<svg width="272" height="272" viewBox="0 0 272 272" fill="none" xmlns="http://www.w3.org/2000/svg">

<g id="V7">

<g id="Walkthrough">
<g id="Walkthrough/Services-1/4">

<g id="Illustration/Africa">
<g id="Illustration/Avion">
<g id="OBJECTS" clip-path="url(#clip0_16_283)">
<g id="Group 34408">
<path id="Vector" d="M256.34 110.27C256.128 111.483 255.791 112.675 255.339 113.84C253.751 118.024 250.864 121.853 248.093 125.105C243.618 130.367 240.558 137.245 234.89 141.391C234.62 141.584 234.37 141.776 234.091 141.959C232.907 142.796 231.676 143.585 230.453 144.364C226.046 147.182 221.6 149.934 218.713 154.696C214.893 160.997 216.365 169.761 217.943 177.707C218.627 181.112 219.319 184.364 219.618 187.211C220.878 199.025 216.827 203.315 207.926 210.54C205.712 212.339 204.913 214.522 204.673 216.87C204.095 222.151 206.29 228.25 201.295 232.569C198.995 234.561 196.917 235.917 195.05 237.841C194.135 238.774 193.26 239.861 192.422 241.208C190.941 243.642 189.949 246.316 188.814 248.904C188.121 250.501 187.361 252.079 186.408 253.531C185.869 254.368 185.253 255.157 184.57 255.917C182.944 257.764 180.961 259.39 178.806 260.727C174.956 263.113 170.501 264.604 166.305 264.873C160.445 265.239 152.63 269.299 147.395 265.114C145.269 263.411 144.258 260.862 143.229 258.534C142.507 256.879 141.602 251.348 134.327 244.075C129.718 239.496 131.305 234.368 130.805 228.385C130.564 225.566 129.708 223.103 128.572 220.804C127.831 219.284 126.965 217.832 126.099 216.408C123.992 212.954 121.798 209.578 120.941 205.528C120.479 203.392 120.412 201.064 120.903 198.438C122.356 190.819 126.571 184.094 126.956 176.985C127.129 173.753 126.513 170.434 124.492 166.913C121.134 161.083 115.533 157.216 113.012 150.732C110.962 145.48 112.097 136.687 107.267 132.839C102.34 128.924 95.4012 133.108 89.8197 128.876C83.5839 124.162 79.5902 123.132 72.2285 127.029C64.6935 131.03 59.6028 129.886 52.1352 128.856C46.9002 128.135 42.4542 128.231 38.8263 126.519C36.6129 125.47 34.7172 123.748 33.1486 120.747C32.9754 120.429 32.8118 120.083 32.6482 119.737C31.2143 116.629 29.1261 114.253 26.9512 112.041C23.458 108.452 19.7531 105.23 18.2615 99.852C16.2213 92.512 14.1716 86.259 16.7602 78.9766C16.9142 78.5149 17.097 78.0531 17.2991 77.5818C19.9263 71.4442 19.7627 64.0464 22.9095 58.2744C23.5446 57.1104 24.3048 56.0522 25.1421 55.071C28.4236 51.1845 32.9369 48.4524 36.151 44.4697C39.7116 40.0542 42.9835 35.4269 46.5152 30.9921C47.6411 29.578 48.7863 28.1831 49.9796 26.8171C50.7687 25.9128 51.5867 25.0181 52.4143 24.1427C54.8104 21.6415 57.3125 19.7848 60.084 17.8705C64.0487 15.1191 66.3102 15.629 71.218 15.8599C76.9246 16.1485 82.5734 15.6579 88.1357 14.3207C93.2841 13.0797 98.0187 9.87625 103.206 9.16437C109.903 8.24085 116.216 9.81853 117.381 17.0816C117.814 19.8041 116.245 23.7675 118.641 25.8743C121.615 28.4813 128.553 26.8363 132.412 29.02C133.779 29.7896 135.318 31.1749 136.964 32.3582C138.6 33.551 140.322 34.5419 142.035 34.5419C146.491 34.5227 149.753 28.7507 153.564 27.0191C161.311 23.4789 167.402 30.2706 174.254 32.7718C177.16 33.8396 181.327 35.2249 184.406 35.35C187.12 35.4558 189.536 34.1763 192.143 34.032C197.282 33.7434 201.805 36.5813 202.142 42.3245C202.431 47.3557 200.179 50.1071 202.498 55.1479C203.191 56.6679 204.028 58.1013 204.894 59.5154C206.29 61.7857 207.762 64.0079 208.888 66.5091C211.91 73.2816 214.181 82.1705 219.425 87.4903C219.801 87.8655 220.185 88.2118 220.59 88.5582C222.822 90.4052 225.401 91.6654 227.403 93.8107C227.538 93.9454 227.663 94.0993 227.788 94.2436C229.674 96.4754 230.973 99.448 232.753 101.651C232.975 101.92 233.186 102.161 233.408 102.392C236.882 106.115 240.356 105.335 245.418 103.883C250.277 102.488 256.167 99.8617 256.552 106.567C256.629 107.827 256.552 109.058 256.33 110.27H256.34Z" fill="url(#paint0_linear_16_283)"/>
</g>
<path id="Vector_2" d="M233.004 211.55C234.438 215.802 229.645 219.294 229.443 223.354C229.376 224.662 229.761 225.576 229.953 226.894C230.146 228.212 229.895 229.453 229.847 230.684C229.703 234.484 232.407 237.467 236.16 237.486C240.115 237.515 242.29 233.32 243.262 229.944C244.234 226.567 244.638 223.441 245.35 220.131C245.957 217.322 248.016 214.638 249.334 212.108C250.614 209.665 252.558 207.721 253.347 205.028C254.213 202.084 254.204 198.736 254.136 195.687C254.088 193.474 253.164 190.704 251.567 189.059C249.498 186.942 246.707 188.578 245.235 190.55C243.464 192.907 243.916 196.726 241.27 198.304C239.076 199.612 236.612 198.554 234.303 199.458C231.637 200.507 230.261 203.787 230.627 206.5C230.819 207.904 232.388 210.896 232.994 211.541L233.004 211.55Z" fill="url(#paint1_linear_16_283)"/>
</g>
<g id="Illustration/Avion_2">
<g id="Frame" clip-path="url(#clip1_16_283)">
<g id="Clouds">
<g id="Clouds_2">
<g id="Clip path group">
<mask id="mask0_16_283" style="mask-type:luminance" maskUnits="userSpaceOnUse" x="167" y="123" width="98" height="21">
<g id="clippath">
<path id="Vector_3" d="M211.311 123.71C214.973 123.002 217.111 124.28 218.347 125.698C218.974 126.417 219.377 127.183 219.623 127.771C219.746 128.064 219.829 128.311 219.881 128.483C219.906 128.569 219.925 128.636 219.936 128.681C219.942 128.703 219.945 128.72 219.948 128.73C219.949 128.736 219.95 128.74 219.951 128.742V128.744L220.052 129.204L220.467 128.983L220.478 128.978C220.487 128.973 220.502 128.965 220.521 128.955C220.561 128.936 220.621 128.907 220.701 128.871C220.861 128.799 221.101 128.699 221.413 128.586C222.037 128.36 222.95 128.088 224.094 127.906C226.383 127.543 229.601 127.542 233.302 129C236.93 130.429 238.371 133.221 238.91 135.684C239.18 136.918 239.222 138.066 239.196 138.905C239.183 139.325 239.153 139.666 239.127 139.9C239.113 140.018 239.1 140.108 239.092 140.169C239.087 140.199 239.084 140.223 239.082 140.237C239.081 140.244 239.079 140.25 239.079 140.253C239.079 140.255 239.078 140.256 239.078 140.257L239.001 140.69L239.441 140.676H239.444C239.447 140.676 239.451 140.675 239.456 140.675C239.466 140.674 239.481 140.674 239.502 140.674C239.543 140.673 239.604 140.671 239.683 140.669C239.843 140.665 240.077 140.659 240.377 140.653C240.976 140.642 241.836 140.629 242.881 140.627C244.97 140.623 247.794 140.658 250.732 140.817C253.673 140.977 256.718 141.26 259.255 141.748C260.523 141.992 261.655 142.286 262.579 142.637C263.065 142.822 263.484 143.02 263.833 143.229H167.971C168.008 143.189 168.048 143.145 168.092 143.101C168.48 142.706 169.164 142.174 170.326 141.684C172.655 140.702 176.905 139.889 184.52 140.696L184.705 140.716L184.826 140.576L184.831 140.571C184.834 140.568 184.839 140.561 184.845 140.554C184.859 140.538 184.881 140.515 184.909 140.484C184.965 140.423 185.051 140.331 185.164 140.214C185.389 139.98 185.726 139.643 186.164 139.239C187.041 138.431 188.325 137.352 189.953 136.273C193.212 134.114 197.827 131.967 203.29 131.967H203.628L203.646 131.63V131.628C203.646 131.626 203.647 131.622 203.647 131.616C203.648 131.606 203.649 131.589 203.651 131.566C203.655 131.521 203.663 131.451 203.675 131.362C203.698 131.184 203.74 130.925 203.813 130.608C203.961 129.974 204.234 129.112 204.735 128.207C205.731 126.408 207.636 124.42 211.311 123.71Z" fill="white" stroke="white" stroke-width="0.713115"/>
</g>
</mask>
<g mask="url(#mask0_16_283)">
<g id="Group">
<path id="Vector_4" opacity="0.5" d="M184.558 140.342C184.558 140.342 192.176 131.61 203.29 131.61C203.29 131.61 203.659 124.825 211.244 123.36C218.829 121.894 220.3 128.668 220.3 128.668C220.3 128.668 225.893 125.698 233.433 128.668C240.973 131.638 239.429 140.319 239.429 140.319C239.429 140.319 261.143 139.609 264.868 143.586H167.291C167.291 143.586 169.26 138.719 184.558 140.342Z" stroke="#083044" stroke-width="0.713115" stroke-linecap="round" stroke-linejoin="round"/>
</g>
</g>
</g>
<path id="Vector_5" d="M184.558 140.342C184.558 140.342 192.176 131.61 203.29 131.61C203.29 131.61 203.659 124.825 211.244 123.36C218.829 121.894 220.3 128.668 220.3 128.668C220.3 128.668 225.893 125.698 233.433 128.668C240.973 131.638 239.429 140.319 239.429 140.319C239.429 140.319 261.143 139.609 264.868 143.586H167.291C167.291 143.586 169.26 138.719 184.558 140.342Z" stroke="#083044" stroke-width="0.713115" stroke-linecap="round" stroke-linejoin="round"/>
<g id="Clip path group_2">
<mask id="mask1_16_283" style="mask-type:luminance" maskUnits="userSpaceOnUse" x="16" y="70" width="98" height="22">
<g id="clippath-1">
<path id="Vector_6" d="M60.1602 71.2285C63.8224 70.5236 65.9616 71.7999 67.1992 73.2168C67.8261 73.9345 68.2299 74.6985 68.4766 75.2852C68.5995 75.5775 68.6822 75.8242 68.7344 75.9961C68.7604 76.082 68.7785 76.1497 68.79 76.1943C68.7958 76.2166 68.8002 76.2335 68.8027 76.2441C68.8039 76.2492 68.8052 76.2527 68.8057 76.2549V76.2568L68.9062 76.7158L69.3213 76.4961L69.333 76.4902C69.3422 76.4856 69.3564 76.4774 69.376 76.4678C69.4153 76.4485 69.4758 76.4197 69.5557 76.3838C69.7157 76.3118 69.9551 76.2112 70.2666 76.0986C70.8906 75.8731 71.8036 75.6006 72.9482 75.4189C75.2363 75.0559 78.4529 75.0547 82.1514 76.5127C85.7765 77.9419 87.2184 80.7338 87.7598 83.1963C88.0311 84.4307 88.0741 85.5783 88.0488 86.418C88.0362 86.837 88.0067 87.1782 87.9805 87.4131C87.9673 87.5305 87.9551 87.622 87.9463 87.6826C87.9419 87.7127 87.9379 87.7353 87.9355 87.75C87.9344 87.7574 87.9342 87.7633 87.9336 87.7666L87.9326 87.7695L87.8564 88.2031L88.2949 88.1885L88.2832 87.832L88.2959 88.1885H88.2988C88.3014 88.1884 88.3054 88.1877 88.3105 88.1875C88.3208 88.1872 88.3362 88.1871 88.3564 88.1865C88.3973 88.1853 88.4585 88.1837 88.5381 88.1816C88.6972 88.1774 88.9312 88.1718 89.2305 88.166C89.8296 88.1544 90.6901 88.1418 91.7344 88.1396C93.8235 88.1353 96.6465 88.1714 99.584 88.3311C102.523 88.4908 105.568 88.7737 108.104 89.2627C109.372 89.5072 110.504 89.8016 111.428 90.1533C111.914 90.3384 112.333 90.5377 112.682 90.7471H16.8203C16.857 90.7061 16.8966 90.6628 16.9404 90.6182C17.3286 90.223 18.0131 89.69 19.1758 89.1992C21.5052 88.216 25.757 87.4015 33.375 88.209L33.5586 88.2285L33.6816 88.0879C33.6823 88.0871 33.6831 88.0856 33.6846 88.084C33.6878 88.0803 33.6933 88.0741 33.7002 88.0664C33.714 88.0509 33.7355 88.0279 33.7637 87.9971C33.8202 87.9353 33.9049 87.8435 34.0176 87.7266C34.2432 87.4924 34.5793 87.156 35.0176 86.752C35.8943 85.9436 37.179 84.865 38.8066 83.7861C42.0649 81.6264 46.6784 79.4796 52.1387 79.4795H52.4766L52.4951 79.1426V79.1406C52.4953 79.1384 52.4957 79.1343 52.4961 79.1289C52.4969 79.1182 52.498 79.1015 52.5 79.0791C52.5041 79.0336 52.5117 78.9641 52.5234 78.875C52.547 78.6968 52.5886 78.4376 52.6621 78.1211C52.8096 77.4865 53.0824 76.6248 53.583 75.7207C54.5787 73.9228 56.484 71.9361 60.1602 71.2285Z" fill="white" stroke="white" stroke-width="0.713115"/>
</g>
</mask>
<g mask="url(#mask1_16_283)">
<g id="Group_2">
<path id="Vector_7" opacity="0.5" d="M33.4121 87.8543C33.4121 87.8543 41.0304 79.123 52.1389 79.123C52.1389 79.123 52.5081 72.3382 60.0928 70.8783C67.6774 69.4184 69.1541 76.1809 69.1541 76.1809C69.1541 76.1809 74.7475 73.2107 82.2819 76.1809C89.8162 79.151 88.2836 87.8319 88.2836 87.8319C88.2836 87.8319 109.992 87.1216 113.717 91.1041H16.1396C16.1396 91.1041 18.1085 86.2322 33.4121 87.8543Z" stroke="#083044" stroke-width="0.713115" stroke-linecap="round" stroke-linejoin="round"/>
</g>
</g>
</g>
<path id="Vector_8" d="M33.4121 87.8543C33.4121 87.8543 41.0304 79.123 52.1389 79.123C52.1389 79.123 52.5081 72.3382 60.0928 70.8783C67.6774 69.4184 69.1541 76.1809 69.1541 76.1809C69.1541 76.1809 74.7475 73.2107 82.2819 76.1809C89.8162 79.151 88.2836 87.8319 88.2836 87.8319C88.2836 87.8319 109.992 87.1216 113.717 91.1041H16.1396C16.1396 91.1041 18.1085 86.2322 33.4121 87.8543Z" stroke="#083044" stroke-width="0.713115" stroke-linecap="round" stroke-linejoin="round"/>
<g id="Clip path group_3">
<mask id="mask2_16_283" style="mask-type:luminance" maskUnits="userSpaceOnUse" x="144" y="186" width="79" height="17">
<g id="clippath-2">
<path id="Vector_9" d="M181.569 188.341C182.54 187.227 184.22 186.218 187.113 186.777C190.02 187.339 191.522 188.91 192.307 190.327C192.703 191.041 192.919 191.722 193.036 192.223C193.094 192.473 193.128 192.677 193.146 192.817C193.156 192.887 193.161 192.941 193.164 192.977C193.165 192.994 193.166 193.008 193.167 193.016C193.167 193.019 193.168 193.022 193.168 193.023V193.025L193.186 193.361H193.524C197.86 193.361 201.526 195.066 204.119 196.784C205.414 197.642 206.436 198.501 207.134 199.144C207.482 199.465 207.749 199.731 207.928 199.917C208.018 200.01 208.086 200.083 208.131 200.132C208.153 200.156 208.17 200.174 208.18 200.187C208.186 200.193 208.19 200.197 208.192 200.2C208.193 200.202 208.195 200.203 208.195 200.203L208.317 200.343L208.502 200.323C214.567 199.681 217.938 200.332 219.776 201.11C220.674 201.491 221.206 201.902 221.51 202.208H145.504C145.724 202.093 145.974 201.981 146.253 201.875C146.983 201.597 147.881 201.363 148.889 201.168C150.906 200.779 153.332 200.553 155.677 200.425C158.019 200.297 160.272 200.268 161.939 200.271C162.772 200.272 163.459 200.282 163.937 200.291C164.176 200.296 164.364 200.299 164.491 200.303C164.554 200.304 164.603 200.306 164.635 200.307C164.651 200.307 164.664 200.308 164.672 200.309H164.683L165.122 200.322L165.047 199.891L165.046 199.889C165.045 199.886 165.045 199.882 165.044 199.876C165.042 199.865 165.039 199.847 165.036 199.823C165.029 199.776 165.02 199.704 165.01 199.611C164.989 199.426 164.966 199.156 164.957 198.824C164.938 198.159 164.973 197.25 165.189 196.273C165.619 194.326 166.758 192.123 169.614 190.993C172.543 189.835 175.095 189.836 176.911 190.124C177.819 190.268 178.545 190.484 179.04 190.663C179.287 190.752 179.478 190.833 179.604 190.89C179.667 190.918 179.715 190.941 179.746 190.956C179.761 190.963 179.772 190.969 179.779 190.973C179.782 190.974 179.785 190.976 179.786 190.977H179.787L180.202 191.196L180.302 190.738V190.736C180.303 190.735 180.304 190.732 180.304 190.729C180.306 190.721 180.31 190.708 180.314 190.69C180.323 190.656 180.338 190.603 180.358 190.535C180.399 190.4 180.464 190.205 180.561 189.974C180.756 189.51 181.075 188.907 181.569 188.341Z" fill="white" stroke="white" stroke-width="0.713115"/>
</g>
</mask>
<g mask="url(#mask2_16_283)">
<g id="Group_3">
<path id="Vector_10" opacity="0.5" d="M208.464 199.969C208.464 199.969 202.384 193.005 193.524 193.005C193.524 193.005 193.227 187.596 187.181 186.427C181.134 185.258 179.954 190.662 179.954 190.662C179.954 190.662 175.479 188.29 169.483 190.662C163.487 193.033 164.695 199.952 164.695 199.952C164.695 199.952 147.356 199.393 144.408 202.564H222.218C222.218 202.564 220.663 198.677 208.464 199.969Z" stroke="#083044" stroke-width="0.713115" stroke-linecap="round" stroke-linejoin="round"/>
</g>
</g>
</g>
<path id="Vector_11" d="M208.464 199.969C208.464 199.969 202.384 193.005 193.524 193.005C193.524 193.005 193.227 187.596 187.181 186.427C181.134 185.258 179.954 190.662 179.954 190.662C179.954 190.662 175.479 188.29 169.483 190.662C163.487 193.033 164.695 199.952 164.695 199.952C164.695 199.952 147.356 199.393 144.408 202.564H222.218C222.218 202.564 220.663 198.677 208.464 199.969Z" stroke="#083044" stroke-width="0.713115" stroke-linecap="round" stroke-linejoin="round"/>
<g id="Clip path group_4">
<mask id="mask3_16_283" style="mask-type:luminance" maskUnits="userSpaceOnUse" x="7" y="168" width="79" height="17">
<g id="clippath-3">
<path id="Vector_12" d="M44.4515 170.554C45.4228 169.442 47.1034 168.435 49.9965 168.991C52.9033 169.551 54.4055 171.121 55.1908 172.539C55.5862 173.253 55.8017 173.934 55.9183 174.436C55.9765 174.686 56.0101 174.89 56.0287 175.03C56.038 175.1 56.044 175.155 56.0472 175.19C56.0488 175.208 56.0496 175.221 56.0502 175.229V175.238L56.0687 175.575H56.4066C60.7428 175.575 64.4096 177.28 67.0023 178.998C68.2972 179.856 69.3195 180.714 70.017 181.356C70.3655 181.678 70.6327 181.945 70.8119 182.131C70.9014 182.224 70.9684 182.297 71.0131 182.346C71.0353 182.37 71.052 182.388 71.0629 182.4C71.0683 182.406 71.0721 182.411 71.0746 182.414C71.0758 182.415 71.077 182.416 71.0775 182.417H71.0785L71.1996 182.557L71.3842 182.537C77.4501 181.895 80.8262 182.544 82.6683 183.321C83.5667 183.7 84.0996 184.111 84.4056 184.416H8.37732C8.59672 184.301 8.84613 184.191 9.12439 184.085C9.8543 183.807 10.7516 183.574 11.7601 183.38C13.7772 182.992 16.2032 182.765 18.5482 182.638C20.891 182.51 23.1435 182.481 24.8109 182.484C25.6442 182.486 26.3308 182.496 26.809 182.505C27.048 182.509 27.2357 182.513 27.3627 182.517L27.5433 182.521C27.5471 182.522 27.5501 182.522 27.5521 182.522H27.5551L27.9926 182.536L27.9183 182.105C27.9183 182.105 27.9185 182.104 27.9183 182.103C27.9179 182.1 27.9173 182.096 27.9164 182.09C27.9146 182.078 27.9109 182.061 27.9076 182.037C27.9008 181.989 27.8922 181.918 27.8822 181.825C27.8621 181.639 27.8394 181.369 27.8304 181.036C27.8125 180.37 27.8487 179.46 28.0658 178.482C28.4987 176.532 29.6409 174.328 32.4974 173.201C35.4265 172.045 37.9781 172.047 39.7943 172.335C40.7031 172.479 41.428 172.694 41.9232 172.872C42.1707 172.961 42.3612 173.041 42.4877 173.098C42.5507 173.126 42.5976 173.149 42.6283 173.164C42.6437 173.172 42.6555 173.177 42.6625 173.181C42.6658 173.182 42.668 173.184 42.6693 173.185H42.6703L43.0853 173.404L43.1849 172.946L43.1859 172.945C43.1863 172.944 43.1869 172.941 43.1879 172.937C43.1898 172.928 43.1922 172.916 43.1967 172.898C43.2056 172.864 43.2202 172.811 43.2406 172.744C43.2816 172.609 43.3476 172.414 43.4447 172.184C43.6395 171.721 43.9578 171.119 44.4515 170.554Z" fill="white" stroke="white" stroke-width="0.713115"/>
</g>
</mask>
<g mask="url(#mask3_16_283)">
<g id="Group_4">
<path id="Vector_13" opacity="0.5" d="M71.3467 182.183C71.3467 182.183 65.2667 175.219 56.4067 175.219C56.4067 175.219 56.1102 169.804 50.0637 168.641C44.0172 167.478 42.837 172.87 42.837 172.87C42.837 172.87 38.3623 170.504 32.3662 172.87C26.37 175.236 27.567 182.166 27.567 182.166C27.567 182.166 10.2274 181.607 7.27966 184.772H85.1177C85.1177 184.772 83.546 180.891 71.3467 182.183Z" stroke="#083044" stroke-width="0.713115" stroke-linecap="round" stroke-linejoin="round"/>
</g>
</g>
</g>
<path id="Vector_14" d="M71.3467 182.183C71.3467 182.183 65.2667 175.219 56.4067 175.219C56.4067 175.219 56.1102 169.804 50.0637 168.641C44.0172 167.478 42.837 172.87 42.837 172.87C42.837 172.87 38.3623 170.504 32.3662 172.87C26.37 175.236 27.567 182.166 27.567 182.166C27.567 182.166 10.2274 181.607 7.27966 184.772H85.1177C85.1177 184.772 83.546 180.891 71.3467 182.183Z" stroke="#083044" stroke-width="0.713115" stroke-linecap="round" stroke-linejoin="round"/>
<g id="Clip path group_5">
<mask id="mask4_16_283" style="mask-type:luminance" maskUnits="userSpaceOnUse" x="82" y="145" width="47" height="11">
<g id="clippath-4">
<path id="Vector_15" d="M103.286 146.37C104.954 146.049 105.901 146.627 106.446 147.25C106.726 147.571 106.908 147.915 107.019 148.18C107.075 148.312 107.112 148.423 107.135 148.499C107.147 148.537 107.155 148.566 107.16 148.585L107.166 148.608L107.258 149.031L107.656 148.858C109.551 148.036 111.697 148.036 113.592 148.858V148.859L113.603 148.863C115.243 149.509 115.895 150.769 116.142 151.896C116.267 152.462 116.287 152.99 116.276 153.377C116.27 153.57 116.257 153.726 116.245 153.833C116.239 153.886 116.233 153.928 116.229 153.955C116.227 153.968 116.226 153.978 116.225 153.984C116.225 153.987 116.225 153.989 116.224 153.99V153.991L116.148 154.423L116.587 154.408H116.615C116.634 154.408 116.663 154.406 116.701 154.405C116.776 154.403 116.887 154.4 117.028 154.397C117.311 154.392 117.717 154.386 118.211 154.385C119.198 154.382 120.533 154.399 121.92 154.474C123.309 154.549 124.742 154.683 125.93 154.912C126.421 155.007 126.863 155.119 127.241 155.245H83.2175C83.3874 155.128 83.6096 155 83.9011 154.878C84.9689 154.431 86.9509 154.047 90.5388 154.43L90.7234 154.449L90.8455 154.31L90.8464 154.308C90.8477 154.306 90.8504 154.304 90.8533 154.301C90.8593 154.294 90.8687 154.283 90.8816 154.269C90.9073 154.24 90.9467 154.199 90.9988 154.145C91.1034 154.036 91.2608 153.879 91.4656 153.69C91.8755 153.313 92.4765 152.808 93.238 152.303C94.7646 151.291 96.916 150.292 99.4539 150.292H99.7761L99.8083 149.971C99.9935 148.115 101.422 146.63 103.267 146.373L103.276 146.372L103.286 146.37Z" fill="white" stroke="white" stroke-width="0.713115"/>
</g>
</mask>
<g mask="url(#mask4_16_283)">
<g id="Group_5">
<path id="Vector_16" opacity="0.5" d="M90.5769 154.075C90.5769 154.075 94.1903 149.936 99.4537 149.936C99.655 147.916 101.21 146.3 103.218 146.02C106.815 145.327 107.514 148.532 107.514 148.532C109.499 147.67 111.748 147.67 113.734 148.532C117.297 149.936 116.575 154.052 116.575 154.052C116.575 154.052 126.861 153.711 128.623 155.602H82.3826C82.3826 155.602 83.3334 153.303 90.5769 154.075Z" stroke="#083044" stroke-width="0.713115" stroke-linecap="round" stroke-linejoin="round"/>
</g>
</g>
</g>
<path id="Vector_17" d="M90.5769 154.075C90.5769 154.075 94.1903 149.936 99.4537 149.936C99.655 147.916 101.21 146.3 103.218 146.02C106.815 145.327 107.514 148.532 107.514 148.532C109.499 147.67 111.748 147.67 113.734 148.532C117.297 149.936 116.575 154.052 116.575 154.052C116.575 154.052 126.861 153.711 128.623 155.602H82.3826C82.3826 155.602 83.3334 153.303 90.5769 154.075Z" stroke="#083044" stroke-width="0.713115" stroke-linecap="round" stroke-linejoin="round"/>
</g>
</g>
<g id="Airplane">
<g id="Airplane_2">
<path id="Vector_18" d="M136.079 77.8157C116.066 79.8349 93.6981 84.332 93.6981 84.332L90.7168 83.5602C104.935 77.9667 136.079 69.75 136.079 69.75C136.079 69.75 167.224 77.9723 181.442 83.5602L178.461 84.332C178.461 84.332 156.093 79.8349 136.079 77.8157Z" fill="#D6DAE1"/>
<g id="Clip path group_6">
<mask id="mask5_16_283" style="mask-type:luminance" maskUnits="userSpaceOnUse" x="90" y="69" width="92" height="16">
<g id="clippath-5">
<path id="Vector_19" d="M136.079 77.8157C116.066 79.8349 93.6981 84.332 93.6981 84.332L90.7168 83.5602C104.935 77.9667 136.079 69.75 136.079 69.75C136.079 69.75 167.224 77.9723 181.442 83.5602L178.461 84.332C178.461 84.332 156.093 79.8349 136.079 77.8157Z" fill="white"/>
</g>
</mask>
<g mask="url(#mask5_16_283)">
<g id="Group_6">
<path id="Vector_20" opacity="0.2" d="M180.631 83.7708L178.461 84.3302C178.461 84.3302 156.087 79.8554 136.079 77.8138C116.066 79.8274 93.6981 84.3302 93.6981 84.3302L91.5278 83.7708C108.672 78.2389 136.079 71.5156 136.079 71.5156C136.079 71.5156 163.487 78.2389 180.631 83.7708Z" fill="black"/>
</g>
</g>
</g>
<path id="Vector_21" d="M136.079 77.8157C116.066 79.8349 93.6981 84.332 93.6981 84.332L90.7168 83.5602C104.935 77.9667 136.079 69.75 136.079 69.75C136.079 69.75 167.224 77.9723 181.442 83.5602L178.461 84.332C178.461 84.332 156.093 79.8349 136.079 77.8157Z" stroke="#263238" stroke-width="0.713115" stroke-linecap="round" stroke-linejoin="round"/>
<path id="Vector_22" d="M172.923 81.4141C174.92 82.0573 176.788 82.7005 178.461 83.3214" stroke="#263238" stroke-width="0.713115" stroke-linecap="round" stroke-linejoin="round"/>
<path id="Vector_23" d="M140.224 72.5C147.015 74.1445 160.814 77.59 171.547 80.9684" stroke="#263238" stroke-width="0.713115" stroke-linecap="round" stroke-linejoin="round"/>
<path id="Vector_24" d="M105.959 79.4974C116.329 76.4826 131.129 72.2987 136.079 71.5156" stroke="#263238" stroke-width="0.713115" stroke-linecap="round" stroke-linejoin="round"/>
<path id="Vector_25" d="M98.363 81.7251L103.503 80.2148" stroke="#263238" stroke-width="0.713115" stroke-linecap="round" stroke-linejoin="round"/>
<path id="Vector_26" d="M95.1859 82.6726L96.2375 82.3594" stroke="#263238" stroke-width="0.713115" stroke-linecap="round" stroke-linejoin="round"/>
<path id="Vector_27" d="M153.139 96.3516C153.139 96.3516 205.365 104.607 257.261 115.492C256.299 116.533 254.956 117.142 253.536 117.17C250.974 117.321 204.873 113.602 159.751 111.504L153.139 96.3516Z" fill="#D6DAE1"/>
<g id="Clip path group_7">
<mask id="mask6_16_283" style="mask-type:luminance" maskUnits="userSpaceOnUse" x="153" y="96" width="105" height="22">
<g id="clippath-6">
<path id="Vector_28" d="M153.139 96.3516C153.139 96.3516 205.365 104.607 257.261 115.492C256.299 116.533 254.956 117.142 253.536 117.17C250.974 117.321 204.873 113.602 159.751 111.504L153.139 96.3516Z" fill="white"/>
</g>
</mask>
<g mask="url(#mask6_16_283)">
<g id="Group_7">
<path id="Vector_29" opacity="0.2" d="M156.014 102.935L159.745 111.481C204.895 113.573 250.974 117.299 253.536 117.142C254.117 117.108 254.694 116.991 255.247 116.801C254.839 116.297 254.274 115.945 253.642 115.8C245.811 113.965 207.619 105.351 156.495 99.3828L156.014 102.935Z" fill="black"/>
</g>
</g>
</g>
<path id="Vector_30" d="M153.139 96.3516C153.139 96.3516 205.365 104.607 257.261 115.492C256.299 116.533 254.956 117.142 253.536 117.17C250.974 117.321 204.873 113.602 159.751 111.504L153.139 96.3516Z" stroke="#263238" stroke-width="0.713115" stroke-linecap="round" stroke-linejoin="round"/>
<path id="Vector_31" d="M167.587 111.852C167.587 111.852 170.457 109.648 171.307 109.083C172.157 108.518 171.771 115.605 170.222 116.136C168.672 116.667 167.587 111.852 167.587 111.852Z" fill="#D6DAE1" stroke="#263238" stroke-width="0.713115" stroke-linecap="round" stroke-linejoin="round"/>
<path id="Vector_32" d="M200.633 113.725C200.633 113.725 202.647 111.588 203.189 111.65C203.732 111.711 202.809 117.349 201.914 117.478C201.019 117.607 200.633 113.725 200.633 113.725Z" fill="#D6DAE1" stroke="#263238" stroke-width="0.713115" stroke-linecap="round" stroke-linejoin="round"/>
<path id="Vector_33" d="M119.019 96.3516C119.019 96.3516 66.7937 104.607 14.8979 115.492C15.86 116.533 17.2024 117.142 18.6232 117.17C21.185 117.321 67.2859 113.602 112.408 111.504L119.019 96.3516Z" fill="#D6DAE1"/>
<g id="Clip path group_8">
<mask id="mask7_16_283" style="mask-type:luminance" maskUnits="userSpaceOnUse" x="14" y="96" width="106" height="22">
<g id="clippath-7">
<path id="Vector_34" d="M119.019 96.3516C119.019 96.3516 66.7937 104.607 14.8979 115.492C15.86 116.533 17.2024 117.142 18.6232 117.17C21.185 117.321 67.2859 113.602 112.408 111.504L119.019 96.3516Z" fill="white"/>
</g>
</mask>
<g mask="url(#mask7_16_283)">
<g id="Group_8">
<path id="Vector_35" opacity="0.2" d="M116.144 102.935L112.414 111.481C67.2804 113.573 21.185 117.299 18.6176 117.142C18.0359 117.108 17.4598 116.991 16.906 116.801C17.3143 116.297 17.8793 115.945 18.5113 115.8C26.3421 113.965 64.534 105.351 115.658 99.3828L116.144 102.935Z" fill="black"/>
</g>
</g>
</g>
<path id="Vector_36" d="M119.019 96.3516C119.019 96.3516 66.7937 104.607 14.8979 115.492C15.86 116.533 17.2024 117.142 18.6232 117.17C21.185 117.321 67.2859 113.602 112.408 111.504L119.019 96.3516Z" stroke="#263238" stroke-width="0.713115" stroke-linecap="round" stroke-linejoin="round"/>
<path id="Vector_37" d="M104.572 111.852C104.572 111.852 101.702 109.648 100.852 109.083C100.002 108.518 100.388 115.605 101.937 116.136C103.486 116.667 104.572 111.852 104.572 111.852Z" fill="#D6DAE1" stroke="#263238" stroke-width="0.713115" stroke-linecap="round" stroke-linejoin="round"/>
<path id="Vector_38" d="M71.5257 113.725C71.5257 113.725 69.5121 111.588 68.9695 111.65C68.427 111.711 69.3499 117.349 70.2448 117.478C71.1398 117.607 71.5257 113.725 71.5257 113.725Z" fill="#D6DAE1" stroke="#263238" stroke-width="0.713115" stroke-linecap="round" stroke-linejoin="round"/>
<path id="Vector_39" d="M163.28 102.702L158.716 102.188" stroke="#263238" stroke-width="0.713115" stroke-linecap="round" stroke-linejoin="round"/>
<path id="Vector_40" d="M169.371 103.46L165.557 102.996" stroke="#263238" stroke-width="0.713115" stroke-linecap="round" stroke-linejoin="round"/>
<path id="Vector_41" d="M241.37 114.218C218.437 110.476 194.945 107.12 172.045 103.77" stroke="#263238" stroke-width="0.713115" stroke-linecap="round" stroke-linejoin="round"/>
<path id="Vector_42" d="M246.74 115.057L244.032 114.648" stroke="#263238" stroke-width="0.713115" stroke-linecap="round" stroke-linejoin="round"/>
<path id="Vector_43" d="M251.807 117.011C252.037 116.681 252.272 116.356 252.507 116.026L249.676 115.551" stroke="#263238" stroke-width="0.713115" stroke-linecap="round" stroke-linejoin="round"/>
<path id="Vector_44" d="M191.307 122.838C196.168 120.96 198.585 115.496 196.707 110.635C194.828 105.774 189.365 103.357 184.504 105.235C179.643 107.114 177.225 112.577 179.103 117.438C180.982 122.299 186.446 124.717 191.307 122.838Z" fill="#D6DAE1" stroke="#263238" stroke-width="0.713115" stroke-linecap="round" stroke-linejoin="round"/>
<path id="Vector_45" d="M185.805 106.639C189.401 105.162 193.518 106.879 194.995 110.482C196.471 114.078 194.754 118.195 191.152 119.672C187.556 121.148 183.439 119.431 181.962 115.829C180.485 112.227 182.203 108.116 185.805 106.639Z" fill="#263238"/>
<g id="Group_9" opacity="0.5">
<path id="Vector_46" d="M188.154 112.659C188.154 112.659 188.769 110.338 190.9 110.293" stroke="white" stroke-width="0.713115" stroke-linecap="round" stroke-linejoin="round"/>
<path id="Vector_47" d="M187.276 115.113C187.276 115.113 186.661 117.429 184.53 117.479" stroke="white" stroke-width="0.713115" stroke-linecap="round" stroke-linejoin="round"/>
<path id="Vector_48" d="M188.937 114.324C188.937 114.324 191.259 114.939 191.309 117.071" stroke="white" stroke-width="0.713115" stroke-linecap="round" stroke-linejoin="round"/>
<path id="Vector_49" d="M186.487 113.446C186.487 113.446 184.166 112.83 184.121 110.699" stroke="white" stroke-width="0.713115" stroke-linecap="round" stroke-linejoin="round"/>
<path id="Vector_50" d="M188.893 113.329C188.893 113.329 190.968 112.121 192.506 113.597" stroke="white" stroke-width="0.713115" stroke-linecap="round" stroke-linejoin="round"/>
<path id="Vector_51" d="M186.538 114.44C186.538 114.44 184.462 115.643 182.919 114.172" stroke="white" stroke-width="0.713115" stroke-linecap="round" stroke-linejoin="round"/>
<path id="Vector_52" d="M188.272 115.062C188.272 115.062 189.474 117.138 188.003 118.676" stroke="white" stroke-width="0.713115" stroke-linecap="round" stroke-linejoin="round"/>
<path id="Vector_53" d="M187.158 112.709C187.158 112.709 185.95 110.634 187.421 109.09" stroke="white" stroke-width="0.713115" stroke-linecap="round" stroke-linejoin="round"/>
<path id="Vector_54" d="M185.302 107.774C185.302 107.774 188.736 105.738 191.84 108.004C195.627 110.767 194.492 115.392 193.518 116.869" stroke="white" stroke-width="0.713115" stroke-linecap="round" stroke-linejoin="round"/>
</g>
<path id="Vector_55" d="M219.813 126.595C224.524 126.595 228.343 122.776 228.343 118.065C228.343 113.354 224.524 109.535 219.813 109.535C215.102 109.535 211.283 113.354 211.283 118.065C211.283 122.776 215.102 126.595 219.813 126.595Z" fill="#D6DAE1" stroke="#263238" stroke-width="0.713115" stroke-linecap="round" stroke-linejoin="round"/>
<path id="Vector_56" d="M214.13 115.933C214.88 112.493 218.269 110.312 221.709 111.062C225.149 111.811 227.331 115.201 226.581 118.641C225.832 122.081 222.442 124.262 219.002 123.512C215.562 122.763 213.381 119.373 214.13 115.933Z" fill="#263238"/>
<g id="Group_10" opacity="0.5">
<path id="Vector_57" d="M220.048 116.822C220.048 116.822 220.607 114.724 222.531 114.68" stroke="white" stroke-width="0.713115" stroke-linecap="round" stroke-linejoin="round"/>
<path id="Vector_58" d="M219.253 119.043C219.253 119.043 218.694 121.141 216.77 121.185" stroke="white" stroke-width="0.713115" stroke-linecap="round" stroke-linejoin="round"/>
<path id="Vector_59" d="M220.758 118.328C220.758 118.328 222.856 118.887 222.9 120.817" stroke="white" stroke-width="0.713115" stroke-linecap="round" stroke-linejoin="round"/>
<path id="Vector_60" d="M218.543 117.538C218.543 117.538 216.44 116.979 216.401 115.055" stroke="white" stroke-width="0.713115" stroke-linecap="round" stroke-linejoin="round"/>
<path id="Vector_61" d="M220.713 117.444C220.713 117.444 222.593 116.359 223.986 117.69" stroke="white" stroke-width="0.713115" stroke-linecap="round" stroke-linejoin="round"/>
<path id="Vector_62" d="M218.588 118.441C218.588 118.441 216.708 119.527 215.316 118.195" stroke="white" stroke-width="0.713115" stroke-linecap="round" stroke-linejoin="round"/>
<path id="Vector_63" d="M220.154 119C220.154 119 221.245 120.879 219.914 122.272" stroke="white" stroke-width="0.713115" stroke-linecap="round" stroke-linejoin="round"/>
<path id="Vector_64" d="M219.147 116.885C219.147 116.885 218.056 115.012 219.388 113.613" stroke="white" stroke-width="0.713115" stroke-linecap="round" stroke-linejoin="round"/>
<path id="Vector_65" d="M217.469 112.411C217.469 112.411 220.574 110.565 223.381 112.618C226.805 115.118 225.775 119.302 224.886 120.633" stroke="white" stroke-width="0.713115" stroke-linecap="round" stroke-linejoin="round"/>
</g>
<path id="Vector_66" d="M108.879 102.702L113.443 102.188" stroke="#263238" stroke-width="0.713115" stroke-linecap="round" stroke-linejoin="round"/>
<path id="Vector_67" d="M102.787 103.46L106.602 102.996" stroke="#263238" stroke-width="0.713115" stroke-linecap="round" stroke-linejoin="round"/>
<path id="Vector_68" d="M30.7888 114.218C53.7218 110.476 77.2142 107.12 100.114 103.77" stroke="#263238" stroke-width="0.713115" stroke-linecap="round" stroke-linejoin="round"/>
<path id="Vector_69" d="M25.4192 115.057L28.1264 114.648" stroke="#263238" stroke-width="0.713115" stroke-linecap="round" stroke-linejoin="round"/>
<path id="Vector_70" d="M20.3515 117.011C20.1222 116.681 19.8873 116.356 19.6523 116.026L22.4826 115.551" stroke="#263238" stroke-width="0.713115" stroke-linecap="round" stroke-linejoin="round"/>
<path id="Vector_71" d="M92.1871 119.17C95.0231 114.798 93.7779 108.955 89.4057 106.119C85.0336 103.283 79.1902 104.528 76.3541 108.9C73.5181 113.272 74.7633 119.115 79.1355 121.952C83.5076 124.788 89.351 123.542 92.1871 119.17Z" fill="#D6DAE1" stroke="#263238" stroke-width="0.713115" stroke-linecap="round" stroke-linejoin="round"/>
<path id="Vector_72" d="M86.5782 119.582C90.1212 117.978 91.6929 113.805 90.0888 110.262C88.4846 106.719 84.3119 105.147 80.7689 106.752C77.2259 108.356 75.6542 112.528 77.2584 116.071C78.8626 119.614 83.0352 121.186 86.5782 119.582Z" fill="#263238"/>
<g id="Group_11" opacity="0.5">
<path id="Vector_73" d="M84.0047 112.659C84.0047 112.659 83.3894 110.338 81.2583 110.293" stroke="white" stroke-width="0.713115" stroke-linecap="round" stroke-linejoin="round"/>
<path id="Vector_74" d="M84.8828 115.113C84.8828 115.113 85.4981 117.429 87.6292 117.479" stroke="white" stroke-width="0.713115" stroke-linecap="round" stroke-linejoin="round"/>
<path id="Vector_75" d="M83.2216 114.324C83.2216 114.324 80.9003 114.939 80.85 117.071" stroke="white" stroke-width="0.713115" stroke-linecap="round" stroke-linejoin="round"/>
<path id="Vector_76" d="M85.6715 113.446C85.6715 113.446 87.9928 112.83 88.0375 110.699" stroke="white" stroke-width="0.713115" stroke-linecap="round" stroke-linejoin="round"/>
<path id="Vector_77" d="M83.2664 113.329C83.2664 113.329 81.1913 112.121 79.6531 113.597" stroke="white" stroke-width="0.713115" stroke-linecap="round" stroke-linejoin="round"/>
<path id="Vector_78" d="M85.6212 114.44C85.6212 114.44 87.6964 115.643 89.2402 114.172" stroke="white" stroke-width="0.713115" stroke-linecap="round" stroke-linejoin="round"/>
<path id="Vector_79" d="M83.8872 115.062C83.8872 115.062 82.6846 117.138 84.1557 118.676" stroke="white" stroke-width="0.713115" stroke-linecap="round" stroke-linejoin="round"/>
<path id="Vector_80" d="M85.0003 112.709C85.0003 112.709 86.2085 110.634 84.7374 109.09" stroke="white" stroke-width="0.713115" stroke-linecap="round" stroke-linejoin="round"/>
<path id="Vector_81" d="M86.8574 107.774C86.8574 107.774 83.423 105.738 80.3187 108.004C76.5319 110.767 77.6674 115.392 78.6406 116.869" stroke="white" stroke-width="0.713115" stroke-linecap="round" stroke-linejoin="round"/>
</g>
<path id="Vector_82" d="M52.3459 126.595C57.0569 126.595 60.8759 122.776 60.8759 118.065C60.8759 113.354 57.0569 109.535 52.3459 109.535C47.6349 109.535 43.8159 113.354 43.8159 118.065C43.8159 122.776 47.6349 126.595 52.3459 126.595Z" fill="#D6DAE1" stroke="#263238" stroke-width="0.713115" stroke-linecap="round" stroke-linejoin="round"/>
<path id="Vector_83" d="M50.2931 111.091C53.7107 110.252 57.1619 112.344 58.0009 115.762C58.8399 119.179 56.748 122.631 53.3304 123.47C49.9128 124.309 46.4617 122.217 45.6226 118.799C44.7836 115.382 46.8756 111.93 50.2931 111.091Z" fill="#263238"/>
<g id="Group_12" opacity="0.5">
<path id="Vector_84" d="M52.1109 116.822C52.1109 116.822 51.5516 114.724 49.6274 114.68" stroke="white" stroke-width="0.713115" stroke-linecap="round" stroke-linejoin="round"/>
<path id="Vector_85" d="M52.9052 119.043C52.9052 119.043 53.4645 121.141 55.3886 121.185" stroke="white" stroke-width="0.713115" stroke-linecap="round" stroke-linejoin="round"/>
<path id="Vector_86" d="M51.4006 118.328C51.4006 118.328 49.303 118.887 49.2583 120.817" stroke="white" stroke-width="0.713115" stroke-linecap="round" stroke-linejoin="round"/>
<path id="Vector_87" d="M53.6156 117.538C53.6156 117.538 55.7187 116.979 55.7579 115.055" stroke="white" stroke-width="0.713115" stroke-linecap="round" stroke-linejoin="round"/>
<path id="Vector_88" d="M51.4452 117.444C51.4452 117.444 49.5659 116.359 48.1731 117.69" stroke="white" stroke-width="0.713115" stroke-linecap="round" stroke-linejoin="round"/>
<path id="Vector_89" d="M53.5708 118.441C53.5708 118.441 55.4502 119.527 56.843 118.195" stroke="white" stroke-width="0.713115" stroke-linecap="round" stroke-linejoin="round"/>
<path id="Vector_90" d="M52.0047 119C52.0047 119 50.886 120.879 52.2452 122.272" stroke="white" stroke-width="0.713115" stroke-linecap="round" stroke-linejoin="round"/>
<path id="Vector_91" d="M53.0115 116.885C53.0115 116.885 54.1302 115.012 52.771 113.613" stroke="white" stroke-width="0.713115" stroke-linecap="round" stroke-linejoin="round"/>
<path id="Vector_92" d="M54.6895 112.411C54.6895 112.411 51.5851 110.565 48.7772 112.618C45.3541 115.118 46.3833 119.302 47.2726 120.633" stroke="white" stroke-width="0.713115" stroke-linecap="round" stroke-linejoin="round"/>
</g>
<path id="Vector_93" d="M136.001 71.0586H136.152C136.969 71.0586 137.634 71.7242 137.634 72.5409V89.3659H134.519V72.5409C134.519 71.7242 135.184 71.0586 136.001 71.0586Z" fill="#D6DAE1" stroke="#263238" stroke-width="0.713115" stroke-linecap="round" stroke-linejoin="round"/>
<path id="Vector_94" d="M159.096 116.023L136.079 118.222L113.062 116.023C113.062 116.023 106.434 125.834 106.591 128.497C106.747 131.159 109.231 134.163 136.079 134.163C162.928 134.163 165.434 131.154 165.568 128.497C165.702 125.84 159.096 116.023 159.096 116.023Z" fill="#D6DAE1"/>
<g id="Clip path group_9">
<mask id="mask8_16_283" style="mask-type:luminance" maskUnits="userSpaceOnUse" x="106" y="116" width="60" height="19">
<g id="clippath-8">
<path id="Vector_95" d="M159.096 116.023L136.079 118.222L113.062 116.023C113.062 116.023 106.434 125.834 106.591 128.497C106.747 131.159 109.231 134.163 136.079 134.163C162.928 134.163 165.434 131.154 165.568 128.497C165.702 125.84 159.096 116.023 159.096 116.023Z" fill="white"/>
</g>
</mask>
<g mask="url(#mask8_16_283)">
<g id="Group_13">
<path id="Vector_96" opacity="0.2" d="M163.28 131.429C160.17 132.962 152.905 134.142 136.08 134.142C120.67 134.142 113.281 133.152 109.757 131.804C106.278 130.215 113.913 127.329 113.913 127.329C113.913 127.329 112.458 125.148 114.707 122.262C116.956 119.375 159.169 122.821 159.169 122.821C159.169 122.821 159.544 124.672 158.274 127.34C158.263 127.34 164.075 128.409 163.28 131.429Z" fill="black"/>
</g>
</g>
</g>
<path id="Vector_97" d="M159.096 116.023L136.079 118.222L113.062 116.023C113.062 116.023 106.434 125.834 106.591 128.497C106.747 131.159 109.231 134.163 136.079 134.163C162.928 134.163 165.434 131.154 165.568 128.497C165.702 125.84 159.096 116.023 159.096 116.023Z" stroke="#263238" stroke-width="0.713115" stroke-linecap="round" stroke-linejoin="round"/>
<path id="Vector_98" d="M136.079 84.8516C128.724 84.846 121.833 88.4314 117.621 94.4611C107.044 109.664 106.434 134.174 136.079 134.174C165.725 134.174 165.126 109.675 154.538 94.4611C150.326 88.4314 143.435 84.846 136.079 84.8516Z" fill="#D6DAE1"/>
<g id="Clip path group_10">
<mask id="mask9_16_283" style="mask-type:luminance" maskUnits="userSpaceOnUse" x="110" y="84" width="52" height="51">
<g id="clippath-9">
<path id="Vector_99" d="M136.079 84.8516C128.724 84.846 121.833 88.4314 117.621 94.4611C107.044 109.664 106.434 134.174 136.079 134.174C165.725 134.174 165.126 109.675 154.538 94.4611C150.326 88.4314 143.435 84.846 136.079 84.8516Z" fill="white"/>
</g>
</mask>
<g mask="url(#mask9_16_283)">
<g id="Group_14">
<path id="Vector_100" opacity="0.2" d="M157.206 126.315C156.825 126.891 156.361 127.4 155.824 127.831C155.354 128.2 154.56 128.849 153.553 129.699C149.576 132.462 143.882 134.146 136.102 134.146C126.408 134.146 119.948 131.528 116.016 127.467C113.37 123.742 111.927 120.123 113.924 117.265C116.083 114.172 132.74 106.078 136.247 106.078C139.754 106.078 157.256 115.928 158.738 117.03C159.963 118.003 159.32 123.2 157.206 126.315Z" fill="black"/>
</g>
</g>
</g>
<path id="Vector_101" d="M136.079 84.8516C128.724 84.846 121.833 88.4314 117.621 94.4611C107.044 109.664 106.434 134.174 136.079 134.174C165.725 134.174 165.126 109.675 154.538 94.4611C150.326 88.4314 143.435 84.846 136.079 84.8516Z" stroke="#263238" stroke-width="0.713115" stroke-linecap="round" stroke-linejoin="round"/>
<path id="Vector_102" d="M123.64 94.2834C122.521 96.146 121.626 98.1429 120.977 100.218C122.828 99.2616 124.948 98.3331 126.57 98.0646C126.811 96.6327 127.13 95.0274 127.533 93.5898C126.162 93.7744 124.848 94.0038 123.64 94.2834Z" fill="#263238"/>
<path id="Vector_103" d="M148.519 94.2834C147.311 94.0038 145.997 93.7744 144.604 93.5898C145.001 95.0274 145.325 96.6327 145.566 98.0646C147.199 98.3331 149.319 99.2616 151.159 100.218C150.516 98.1429 149.632 96.1516 148.519 94.2834Z" fill="#263238"/>
<path id="Vector_104" d="M143.832 93.4932C141.46 93.2191 139.072 93.0737 136.684 93.0625V98.5496C138.776 98.4434 141.69 97.8561 144.816 97.9903C144.47 96.1892 144.145 94.6678 143.832 93.4932Z" fill="#263238"/>
<path id="Vector_105" d="M151.774 100.518L154.258 101.032C153.425 98.8732 152.323 96.8316 150.969 94.9578C150.41 94.762 149.761 94.5886 149.101 94.3984C150.214 96.3338 151.114 98.3865 151.774 100.518Z" fill="#263238"/>
<path id="Vector_106" d="M123.058 94.4219C122.398 94.5897 121.772 94.7631 121.19 94.9812C121.19 94.9812 119.338 96.9837 117.901 101.056L120.384 100.541C121.044 98.41 121.945 96.3572 123.058 94.4219Z" fill="#263238"/>
<path id="Vector_107" d="M135.727 93.0586C133.255 93.0698 130.782 93.2152 128.327 93.4949C128.014 94.6695 127.667 96.1853 127.343 97.9696C130.592 97.8354 133.618 98.473 135.733 98.529V93.0586H135.727Z" fill="#263238"/>
<path id="Vector_108" d="M136.079 128.022C134.905 127.938 131.694 127.642 130.29 126.965L131.079 130.321C132.667 130.908 134.351 131.193 136.046 131.16L136.079 130.925L136.113 131.16C137.808 131.193 139.491 130.908 141.08 130.321L141.869 126.965C140.465 127.642 137.254 127.938 136.079 128.022Z" fill="#263238"/>
<path id="Vector_109" d="M136.555 128.406H135.604V135.851H136.555V128.406Z" fill="#757575" stroke="#263238" stroke-width="0.713115" stroke-linecap="round" stroke-linejoin="round"/>
<path id="Vector_110" d="M136.079 137.997C136.935 137.997 137.629 137.304 137.629 136.448C137.629 135.592 136.935 134.898 136.079 134.898C135.224 134.898 134.53 135.592 134.53 136.448C134.53 137.304 135.224 137.997 136.079 137.997Z" fill="#757575" stroke="#263238" stroke-width="0.713115" stroke-linecap="round" stroke-linejoin="round"/>
<path id="Vector_111" d="M134.25 132.105H131.929C131.481 132.105 131.118 132.469 131.118 132.917V140.283C131.118 140.731 131.481 141.094 131.929 141.094H134.25C134.698 141.094 135.062 140.731 135.062 140.283V132.917C135.062 132.469 134.698 132.105 134.25 132.105Z" fill="#263238"/>
<path id="Vector_112" d="M140.235 132.105H137.914C137.466 132.105 137.103 132.469 137.103 132.917V140.283C137.103 140.731 137.466 141.094 137.914 141.094H140.235C140.683 141.094 141.046 140.731 141.046 140.283V132.917C141.046 132.469 140.683 132.105 140.235 132.105Z" fill="#263238"/>
<path id="Vector_113" d="M150.376 132.205C150.376 132.205 157.525 131.4 160.03 129.828L159.471 131.506C156.07 132.474 152.569 133.033 149.039 133.184L150.376 132.205Z" fill="#263238"/>
<path id="Vector_114" d="M121.783 132.205C121.783 132.205 114.634 131.4 112.128 129.828L112.688 131.506C116.089 132.474 119.59 133.033 123.119 133.184L121.783 132.205Z" fill="#263238"/>
<path id="Vector_115" d="M158.263 136.89H157.463V131.548L158.263 131.363V136.89Z" fill="#757575" stroke="#263238" stroke-width="0.713115" stroke-linecap="round" stroke-linejoin="round"/>
<path id="Vector_116" d="M153.514 136.889H152.714V132.23L153.514 132.129V136.889Z" fill="#757575" stroke="#263238" stroke-width="0.713115" stroke-linecap="round" stroke-linejoin="round"/>
<path id="Vector_117" d="M159.158 137.386C159.158 138.102 158.582 138.684 157.866 138.689C157.15 138.689 156.568 138.113 156.562 137.397C156.562 136.681 157.139 136.099 157.855 136.094H157.86C158.576 136.094 159.152 136.67 159.158 137.386Z" fill="#757575" stroke="#263238" stroke-width="0.713115" stroke-linecap="round" stroke-linejoin="round"/>
<path id="Vector_118" d="M154.409 137.386C154.409 138.102 153.833 138.684 153.117 138.689C152.401 138.689 151.819 138.113 151.814 137.397C151.814 136.681 152.39 136.099 153.106 136.094H153.117C153.827 136.094 154.403 136.675 154.409 137.386Z" fill="#757575" stroke="#263238" stroke-width="0.713115" stroke-linecap="round" stroke-linejoin="round"/>
<path id="Vector_119" d="M156.507 133.762H154.465C154.119 133.762 153.839 134.042 153.839 134.388V140.647C153.839 140.993 154.119 141.274 154.465 141.274H156.507C156.853 141.274 157.133 140.993 157.133 140.647V134.388C157.133 134.042 156.853 133.762 156.507 133.762Z" fill="#263238"/>
<path id="Vector_120" d="M161.384 133.762H159.343C158.997 133.762 158.716 134.042 158.716 134.388V140.647C158.716 140.993 158.997 141.274 159.343 141.274H161.384C161.73 141.274 162.011 140.993 162.011 140.647V134.388C162.011 134.042 161.73 133.762 161.384 133.762Z" fill="#263238"/>
<path id="Vector_121" d="M151.635 133.762H149.593C149.247 133.762 148.967 134.042 148.967 134.388V140.647C148.967 140.993 149.247 141.274 149.593 141.274H151.635C151.981 141.274 152.261 140.993 152.261 140.647V134.388C152.261 134.042 151.981 133.762 151.635 133.762Z" fill="#263238"/>
<path id="Vector_122" d="M113.896 136.89H114.696V131.548L113.896 131.363V136.89Z" fill="#757575" stroke="#263238" stroke-width="0.713115" stroke-linecap="round" stroke-linejoin="round"/>
<path id="Vector_123" d="M118.645 136.889H119.445V132.23L118.645 132.129V136.889Z" fill="#757575" stroke="#263238" stroke-width="0.713115" stroke-linecap="round" stroke-linejoin="round"/>
<path id="Vector_124" d="M113.001 137.386C113.001 138.102 113.577 138.684 114.293 138.689C115.009 138.689 115.591 138.113 115.596 137.397C115.596 136.681 115.02 136.099 114.304 136.094C113.588 136.094 113.012 136.67 113.007 137.386H113.001Z" fill="#757575" stroke="#263238" stroke-width="0.713115" stroke-linecap="round" stroke-linejoin="round"/>
<path id="Vector_125" d="M117.75 137.386C117.75 138.102 118.326 138.684 119.042 138.689C119.758 138.689 120.34 138.113 120.345 137.397C120.345 136.681 119.769 136.099 119.053 136.094H119.042C118.331 136.094 117.755 136.675 117.75 137.386Z" fill="#757575" stroke="#263238" stroke-width="0.713115" stroke-linecap="round" stroke-linejoin="round"/>
<path id="Vector_126" d="M117.688 133.762H115.647C115.301 133.762 115.02 134.042 115.02 134.388V140.647C115.02 140.993 115.301 141.274 115.647 141.274H117.688C118.034 141.274 118.315 140.993 118.315 140.647V134.388C118.315 134.042 118.034 133.762 117.688 133.762Z" fill="#263238"/>
<path id="Vector_127" d="M112.816 133.762H110.775C110.429 133.762 110.148 134.042 110.148 134.388V140.647C110.148 140.993 110.429 141.274 110.775 141.274H112.816C113.162 141.274 113.443 140.993 113.443 140.647V134.388C113.443 134.042 113.162 133.762 112.816 133.762Z" fill="#263238"/>
<path id="Vector_128" d="M122.566 133.762H120.524C120.178 133.762 119.898 134.042 119.898 134.388V140.647C119.898 140.993 120.178 141.274 120.524 141.274H122.566C122.912 141.274 123.192 140.993 123.192 140.647V134.388C123.192 134.042 122.912 133.762 122.566 133.762Z" fill="#263238"/>
<path id="Vector_129" d="M136.684 77.4297V84.8522" stroke="#263238" stroke-width="0.713115" stroke-linecap="round" stroke-linejoin="round"/>
<path id="Vector_130" d="M136.684 72.6992V74.8191" stroke="#263238" stroke-width="0.713115" stroke-linecap="round" stroke-linejoin="round"/>
</g>
</g>
</g>
</g>
</g>
</g>
</g>
</g>
</g>
<defs>
<linearGradient id="paint0_linear_16_283" x1="256.581" y1="137.959" x2="15.5455" y2="137.959" gradientUnits="userSpaceOnUse">
<stop stop-color="#FFC486"/>
<stop offset="1" stop-color="#FF6567"/>
</linearGradient>
<linearGradient id="paint1_linear_16_283" x1="254.164" y1="212.776" x2="229.435" y2="212.776" gradientUnits="userSpaceOnUse">
<stop stop-color="#FFC486"/>
<stop offset="1" stop-color="#FF6567"/>
</linearGradient>
<clipPath id="clip0_16_283">
<rect width="241.033" height="261" fill="white" transform="translate(15.5574 6)"/>
</clipPath>
<clipPath id="clip1_16_283">
<rect width="258.148" height="133.459" fill="white" transform="translate(7 69.4688)"/>
</clipPath>
</defs>
</svg>
