<svg width="272" height="272" viewBox="0 0 272 272" fill="none" xmlns="http://www.w3.org/2000/svg">

<g id="V7">

<g id="Walkthrough">
<g id="Walkthrough/Services-3/4">

<g id="Illustration/Justification" clip-path="url(#clip0_16_283)">
<g id="Group 1">
<g id="Money">
<g id="Group">
<g id="Group_2">
<path id="Vector" d="M193.068 138.906L147.311 119.729L185.907 27L231.663 46.177L193.068 138.906Z" fill="#D6DAE1" stroke="#083044" stroke-linecap="round" stroke-linejoin="round"/>
<path id="Vector_2" d="M222.479 55.6383C219.433 54.3608 217.997 50.8527 219.274 47.8073C219.371 47.5725 219.489 47.3584 219.606 47.1443L193.337 36.1367C193.268 36.3715 193.192 36.6063 193.095 36.8411C191.818 39.8865 188.309 41.3229 185.264 40.0453C185.147 39.997 185.043 39.9417 184.933 39.8865L155.818 110.007C155.936 110.048 156.053 110.083 156.164 110.131C159.209 111.408 160.645 114.916 159.368 117.962C159.271 118.197 159.154 118.411 159.036 118.625L185.306 129.632C185.375 129.398 185.451 129.163 185.547 128.928C186.825 125.883 190.333 124.446 193.378 125.724C193.613 125.821 193.827 125.938 194.041 126.055L223.183 55.88C222.948 55.8109 222.713 55.735 222.479 55.6383ZM185.278 92.0587C180.278 89.9663 177.93 84.2139 180.023 79.2211C182.115 74.2214 187.868 71.8735 192.86 73.9659C197.86 76.0583 200.208 81.8107 198.116 86.8035C196.023 91.8032 190.271 94.1512 185.278 92.0587Z" fill="white" stroke="#083044" stroke-linecap="round" stroke-linejoin="round"/>
</g>
<g id="Group_3">
<path id="Vector_3" d="M192.467 139.141L149.058 115.123L197.467 27.1172L240.869 51.1282L192.467 139.141Z" fill="#D6DAE1" stroke="#083044" stroke-linecap="round" stroke-linejoin="round"/>
<path id="Vector_4" d="M230.717 59.547C227.824 57.9449 226.781 54.3056 228.376 51.4121C228.501 51.1911 228.632 50.984 228.777 50.7906L203.854 37C203.765 37.2279 203.661 37.4558 203.544 37.6698C201.941 40.5633 198.302 41.613 195.409 40.0109C195.298 39.9487 195.195 39.8797 195.091 39.8175L158.553 106.374C158.664 106.429 158.774 106.478 158.885 106.54C161.778 108.142 162.828 111.781 161.226 114.675C161.101 114.896 160.97 115.103 160.825 115.296L185.748 129.087C185.837 128.859 185.941 128.631 186.065 128.417C187.667 125.524 191.307 124.481 194.2 126.076C194.421 126.2 194.628 126.332 194.822 126.477L231.387 59.8646C231.159 59.7749 230.931 59.6713 230.717 59.5539V59.547ZM189.794 91.7274C185.05 89.1032 183.338 83.1367 185.962 78.3925C188.586 73.6483 194.552 71.9357 199.297 74.5599C204.041 77.184 205.753 83.1505 203.129 87.8947C200.505 92.6389 194.539 94.3515 189.794 91.7274Z" fill="white" stroke="#083044" stroke-linecap="round" stroke-linejoin="round"/>
</g>
<g id="Group_4">
<path id="Vector_5" d="M191.666 139.342L152 109.551L212.12 29.0859L251.787 58.8839L191.666 139.342Z" fill="#D6DAE1" stroke="#083044" stroke-linecap="round" stroke-linejoin="round"/>
<path id="Vector_6" d="M240.565 65.8108C237.92 63.8288 237.388 60.0722 239.377 57.4342C239.529 57.2339 239.695 57.0475 239.86 56.8749L217.086 39.7695C216.961 39.9836 216.83 40.1908 216.678 40.391C214.696 43.0359 210.94 43.5676 208.295 41.5788C208.198 41.5029 208.101 41.42 208.012 41.344L162.614 102.204C162.717 102.273 162.821 102.335 162.918 102.411C165.562 104.393 166.094 108.149 164.105 110.787C163.953 110.988 163.788 111.174 163.622 111.347L186.397 128.452C186.521 128.238 186.652 128.031 186.804 127.831C188.786 125.186 192.543 124.654 195.181 126.643C195.381 126.795 195.568 126.96 195.74 127.126L241.173 66.2182C240.958 66.0939 240.751 65.9627 240.551 65.8108H240.565ZM195.581 92.0178C191.252 88.7652 190.375 82.6122 193.627 78.2824C196.88 73.9525 203.033 73.0755 207.362 76.3281C211.692 79.5807 212.569 85.7336 209.317 90.0634C206.064 94.3933 199.911 95.2703 195.581 92.0178Z" fill="white" stroke="#083044" stroke-linecap="round" stroke-linejoin="round"/>
</g>
<g id="Group_5">
<path id="Vector_7" d="M190.872 139.433L155.542 104.608L225.883 32.9062L261.206 67.7315L190.872 139.433Z" fill="#D6DAE1" stroke="#083044" stroke-linecap="round" stroke-linejoin="round"/>
<path id="Vector_8" d="M249.162 73.0961C246.807 70.7758 246.78 66.9845 249.1 64.6297C249.28 64.4502 249.466 64.2913 249.653 64.1394L229.371 44.1406C229.219 44.334 229.06 44.5273 228.887 44.7C226.567 47.0548 222.776 47.0824 220.421 44.7621C220.331 44.6724 220.255 44.5826 220.172 44.4859L167.047 98.7299C167.137 98.8127 167.234 98.8887 167.323 98.9785C169.678 101.299 169.706 105.09 167.385 107.445C167.206 107.624 167.019 107.783 166.833 107.935L187.115 127.934C187.267 127.741 187.426 127.547 187.598 127.375C189.919 125.02 193.71 124.992 196.065 127.312C196.244 127.492 196.403 127.678 196.555 127.865L249.722 73.5794C249.528 73.4275 249.335 73.2687 249.162 73.0961ZM201.078 93.0603C197.218 89.2553 197.176 83.0471 200.981 79.1868C204.787 75.3266 210.995 75.2851 214.855 79.0902C218.715 82.8952 218.757 89.1034 214.952 92.9636C211.147 96.8239 204.938 96.8653 201.078 93.0603Z" fill="white" stroke="#083044" stroke-linecap="round" stroke-linejoin="round"/>
</g>
</g>
</g>
<g id="Passport">
<g id="Group_6">
<path id="Vector_9" d="M145.944 113.482L82.4391 153.852L14.8604 47.1459L78.3648 6.77543C80.6782 5.30452 83.7443 5.98818 85.2152 8.30158L147.47 106.631C148.941 108.945 148.257 112.011 145.944 113.482Z" fill="url(#paint0_linear_16_283)" stroke="#083044" stroke-linecap="round" stroke-linejoin="round"/>
<path id="Vector_10" d="M144.162 113.552L80.6575 153.922L13.0718 47.2162L76.5762 6.84574C78.8896 5.37483 81.9557 6.05849 83.4266 8.37189L145.681 106.702C147.152 109.015 146.468 112.081 144.155 113.552H144.162Z" fill="white" stroke="#083044" stroke-linecap="round" stroke-linejoin="round"/>
<path id="Vector_11" d="M142.09 114.966L78.5857 155.337L11 48.6303L74.5044 8.2598C76.8178 6.7889 79.8839 7.47256 81.3549 9.78595L143.609 108.116C145.08 110.429 144.397 113.495 142.083 114.966H142.09Z" fill="url(#paint1_linear_16_283)" stroke="#083044" stroke-linecap="round" stroke-linejoin="round"/>
<g id="Group_7">
<path id="Vector_12" d="M105.726 88.5358C108.745 75.5919 100.7 62.6511 87.7557 59.6318C74.8117 56.6126 61.871 64.6581 58.8517 77.602C55.8324 90.5459 63.8779 103.487 76.8218 106.506C89.7658 109.525 102.707 101.48 105.726 88.5358Z" stroke="white" stroke-miterlimit="10"/>
<path id="Vector_13" d="M95.1921 103.384C100.001 100.328 98.1195 88.7565 90.9898 77.5392C83.86 66.3219 74.1819 59.7062 69.3731 62.7626C64.5643 65.8191 66.4458 77.3903 73.5755 88.6077C80.7053 99.825 90.3833 106.441 95.1921 103.384Z" stroke="white" stroke-miterlimit="10"/>
<path id="Vector_14" d="M60.7622 72.5928L82.0731 59.0508" stroke="white" stroke-miterlimit="10"/>
<path id="Vector_15" d="M58.366 86.3244L95.5184 62.707" stroke="white" stroke-miterlimit="10"/>
<path id="Vector_16" d="M69.1731 103.324L106.326 79.707" stroke="white" stroke-miterlimit="10"/>
<path id="Vector_17" d="M61.9292 96.0043L102.769 70.0391" stroke="white" stroke-miterlimit="10"/>
<path id="Vector_18" d="M82.8188 107.288L104.123 93.7461" stroke="white" stroke-miterlimit="10"/>
</g>
</g>
<g id="VISA">
<path d="M42.7492 65.3285L28.5393 55.0716L31.4093 53.231L42.7115 61.6606L41.5986 62.3743L38.6916 48.5609L41.5225 46.7455L44.8578 63.9763L42.7492 65.3285Z" fill="white"/>
<path d="M52.1221 59.3177L43.3202 45.5926L45.9754 43.8898L54.7773 57.6149L52.1221 59.3177Z" fill="white"/>
<path d="M61.4351 53.6208C60.3288 54.3303 59.2576 54.7509 58.2216 54.8826C57.1985 55.0059 56.1261 54.8947 55.0042 54.5487L55.6345 51.6648C56.3802 51.9397 57.1159 52.0557 57.8415 52.0128C58.5588 51.9569 59.3014 51.6828 60.0693 51.1903C60.7591 50.7479 61.2181 50.2607 61.4464 49.7286C61.6876 49.1881 61.6538 48.6771 61.3449 48.1956C61.0778 47.7791 60.7437 47.5158 60.3424 47.4057C59.9412 47.2956 59.4869 47.2747 58.9796 47.3429C58.4853 47.4027 57.9579 47.5113 57.3976 47.6686C56.8418 47.8046 56.2671 47.9252 55.6733 48.0304C55.0926 48.1273 54.5152 48.1578 53.941 48.1219C53.3716 48.0646 52.8237 47.8833 52.2973 47.578C51.7625 47.2597 51.2697 46.7491 50.819 46.0462C50.2848 45.2132 50.0316 44.3745 50.0595 43.53C50.0874 42.6856 50.3526 41.8818 50.8551 41.1187C51.3576 40.3555 52.0514 39.6902 52.9365 39.1226C53.8736 38.5216 54.8323 38.1548 55.8126 38.0221C56.7929 37.8894 57.7033 37.9484 58.5438 38.1993L57.9135 41.0832C57.2262 40.8995 56.601 40.8412 56.0379 40.9084C55.4879 40.9672 54.946 41.1678 54.4124 41.51C53.8007 41.9023 53.3942 42.3283 53.193 42.7879C52.9918 43.2476 53.0331 43.6987 53.3169 44.1412C53.559 44.5187 53.8723 44.7494 54.2568 44.8334C54.6414 44.9175 55.0766 44.9231 55.5626 44.8502C56.0616 44.769 56.5889 44.6604 57.1446 44.5245C57.7133 44.3802 58.2881 44.2596 58.8688 44.1627C59.4626 44.0574 60.0484 44.0399 60.6262 44.1103C61.217 44.1722 61.7881 44.3754 62.3396 44.7197C62.8827 45.0511 63.3838 45.5747 63.8429 46.2905C64.6609 47.5661 64.8546 48.8563 64.4239 50.1611C63.9932 51.4659 62.997 52.6191 61.4351 53.6208Z" fill="white"/>
<path d="M67.0079 49.7714L63.7312 32.5031L65.8983 31.1133L80.2058 41.3076L77.3749 43.1231L65.8945 34.5874L66.8706 33.9614L69.7802 47.9935L67.0079 49.7714ZM68.2962 45.3358L66.8689 43.1101L74.2488 38.3773L75.6761 40.603L68.2962 45.3358Z" fill="white"/>
</g>
</g>
<g id="Earth Globe">
<g id="Group_8">
<path id="Vector_19" d="M200.683 234.217C234.253 200.647 234.253 146.22 200.683 112.65C167.113 79.0799 112.685 79.0799 79.1151 112.65C45.5451 146.22 45.5451 200.647 79.1151 234.217C112.685 267.787 167.113 267.787 200.683 234.217Z" fill="url(#paint2_linear_16_283)" stroke="#083044" stroke-linecap="round" stroke-linejoin="round"/>
<g id="Group_9">
<path id="Vector_20" d="M122.644 252.953C127.216 253.946 131.896 254.554 136.653 254.739" stroke="#083044" stroke-linecap="round" stroke-linejoin="round"/>
<path id="Vector_21" d="M112.107 249.906C114.439 250.753 116.81 251.5 119.219 252.138" stroke="#083044" stroke-linecap="round" stroke-linejoin="round"/>
<path id="Vector_22" d="M61.6295 151.16C58.0349 163.753 57.4345 177.384 60.4749 191.062C66.4863 218.117 85.3134 239.007 109.159 248.759" stroke="#083044" stroke-linecap="round" stroke-linejoin="round"/>
<path id="Vector_23" d="M72.5746 127.754C69.642 132.08 67.1174 136.69 65.0623 141.509" stroke="#083044" stroke-linecap="round" stroke-linejoin="round"/>
</g>
<g id="Group_10">
<path id="Vector_24" d="M128.256 135.25L137.023 137.067L140.009 140.161L143.904 140.761L145.143 144.456L144.235 146.957L141.579 148.173L135.075 147.111L134.898 146.311L137.969 144.171L135.845 140.253L130.026 139.453L126.932 136.797L128.256 135.25Z" fill="white"/>
<path id="Vector_25" d="M198.877 216.115L191.926 214.938L183.536 213.875L177.363 215.246L171.321 215.33L165.256 218.14L161.715 219.133L159.521 219.618L155.873 222.935L152.24 225.413L146.113 223.22L146.267 217.331L142.572 216.693L138.593 217.578L137.6 215.915L137.2 212.244L135.36 210.558L132.658 211.574L132.304 213.745L128.964 214.699L125.177 211.774L122.922 207.256L124.669 201.014L130.534 200.128L132.435 201.168L134.821 200.636L137.407 198.181L140.171 198.404L145.128 203.785L146.475 203.277L145.058 198.781L143.334 196.657L142.895 192.785L149.553 187.959L148.915 180.37L151.524 177.076L153.094 171.919L154.995 171.08L158.913 167.077L158.759 165.438L155.619 166.346L154.664 164.883L152.471 165.368L149.261 166.915L150.277 163.975L156.804 160.434L157.997 158.287L161.761 162.051L163.955 163.444L166.564 162.028L164.794 159.703L159.945 157.648L153.972 153.33L148.237 151.052L143.28 151.313L140.363 149.451L137 149.358L136.776 150.244L137.661 156.109L138.901 157.925L138.524 164.699L133.836 162.397L133.813 159.48L129.187 158.418L126.909 156.624L126.801 151.421L131.65 145.956L130.988 141.092L128.841 141.777L127.047 140.291L125.785 137.436L124.345 137.543L124.253 140.907L122.152 141.792L119.612 135.042L117.795 134.403L114.739 133.826L111.907 136.127L116.733 139.029L118.28 142.239L109.913 138.452L103.74 134.18L102.147 128.892L96.6128 128.445L93.203 131.917C93.203 131.917 91.4788 133.556 90.5706 134.172C89.6623 134.788 85.9677 136.027 85.9677 136.027L85.9215 139.591L81.3879 140.807L82.2731 142.908L89.9086 142.469L94.6193 145.81L96.1664 152.784L95.3505 159.442L97.2055 165.923L93.7957 176.922L95.8277 191.723L99.4761 199.69L103.479 205.486L106.557 205.224L104.856 202.261L102.732 200.221L100.762 196.064L102.463 195.272L106.842 201.822L110.252 207.756L111.399 212.936L116.202 216.677L124.076 220.156L135.052 220.641L138.901 222.92L141.995 225.575L146.067 226.968L150.716 227.191L155.049 226.021C155.049 226.021 155.296 228.054 155.511 229.054C155.734 230.047 153.695 234.057 153.695 234.057L152.386 238.529L154.949 242.555L159.729 243.371L167.318 248.374L170.374 248.951L171.036 251.938L171.69 253.254C186.969 247.181 199.777 236.998 209.091 224.313L208.875 222.843L212.085 211.89L209.098 210.673L198.807 216.092L198.877 216.115Z" fill="white"/>
<path id="Vector_26" d="M202.125 132.85L199.092 129.555L195.328 125.791L193.204 119.996L196.921 119.795L196.675 117.763L194.043 118.141L196.013 116.655L198.091 114.731L197.653 112.737L194.558 110.082L193.096 105.91C173.53 90.5157 147.467 83.696 121.267 89.515C109.359 92.1629 98.5832 97.166 89.3082 103.916L94.6192 106.148L92.6256 110.351L89.0157 111.991L89.8085 117.456L88.346 118.41L86.8374 121.042L87.8303 124.583L91.3017 124.229L90.6629 127.924L94.0496 127.169L98.1906 118.518L98.0829 115.2L103.571 113.561L104.433 110.859L110.075 108.981L109.921 105.463L114.062 104.332C114.062 104.332 116.694 102.077 117.295 101.946C117.895 101.815 120.905 102.192 120.905 102.192L124.422 103.916L128.602 102.985L131.704 99.9985L136.376 99.3827C136.376 99.3827 137.746 99.9138 138.747 99.6906C139.74 99.4674 142.418 97.4123 142.418 97.4123L148.991 99.7137L151.778 100.976L152.44 103.963L155.519 103.701L156.119 101.684L158.975 102.308L159.129 103.947L153.51 106.864L157.866 110.497L165.917 112.891L169.789 116.209L174.261 115.631L174.815 113.422L176.324 112.668L170.259 109.835L166.987 110.143L169.397 108.773L166.256 105.918L169.597 104.963L174.507 106.379L176.563 110.936L179.326 113.037L182.397 118.418L187.485 120.634L188.947 127.208L194.189 129.178L194.474 131.41L194.451 134.135L196.444 137.453L197.237 139.154L200.755 139L201.593 135.259L202.101 132.85H202.125Z" fill="white"/>
<path id="Vector_27" d="M200.254 112.215L200.508 113.362L200.223 116.772L201.44 119.427L203.81 119.735L204.649 123.522L202.04 123.06L203.833 133.944L202.417 138.855L205.25 144.073L208.367 145.89L210.753 156.643L215.202 164.432L219.405 170.189L224.254 170.366L224.962 166.033L225.501 165.379C225.162 161.869 224.616 158.336 223.83 154.803C220.097 138 211.684 123.453 200.27 112.223L200.254 112.215Z" fill="white"/>
<path id="Vector_28" d="M153.972 121.18L139.547 118.324L133.813 119.802L133.259 123.897L130.295 121.842L126.139 123.812L127.193 130.47L131.358 132.264L133.105 127.907L136.753 130.224L144.127 134.234L146.606 139.745L153.24 145.164L161.292 141.916L160.43 138.968L157.889 135.981L155.719 128.107L156.958 124.282L153.972 121.18Z" fill="white"/>
<path id="Vector_29" d="M165.702 123.174L162.538 123.043L160.437 125.806L163.108 131.271L165.702 130.694V123.174Z" fill="white"/>
<path id="Vector_30" d="M185.06 122.844L177.494 120.766L175.57 118.688L174.107 119.634L176.386 123.306L178.733 128.224L181.989 128.755L182.405 127.824L179.949 125.238L185.568 126.077L185.06 122.844Z" fill="white"/>
<path id="Vector_31" d="M142.872 207.656L142.257 208.626L148.63 209.096L151.639 211.351L155.511 210.912L156.419 208.411L151.662 208.626L142.872 207.656Z" fill="white"/>
<path id="Vector_32" d="M161.438 207.504L157.52 209.628L158.474 211.091L163.654 209.936L164.293 208.12L162.546 208.72L161.438 207.504Z" fill="white"/>
<path id="Vector_33" d="M128.256 135.25L137.023 137.067L140.009 140.161L143.904 140.761L145.143 144.456L144.235 146.957L141.579 148.173L135.075 147.111L134.898 146.311L137.969 144.171L135.845 140.253L130.026 139.453L126.932 136.797L128.256 135.25Z" stroke="#083044" stroke-linecap="round" stroke-linejoin="round"/>
<path id="Vector_34" d="M198.877 216.115L191.926 214.938L183.536 213.875L177.363 215.246L171.321 215.33L165.256 218.14L161.715 219.133L159.521 219.618L155.873 222.935L152.24 225.413L146.113 223.22L146.267 217.331L142.572 216.693L138.593 217.578L137.6 215.915L137.2 212.244L135.36 210.558L132.658 211.574L132.304 213.745L128.964 214.699L125.177 211.774L122.922 207.256L124.669 201.014L130.534 200.128L132.435 201.168L134.821 200.636L137.407 198.181L140.171 198.404L145.128 203.785L146.475 203.277L145.058 198.781L143.334 196.657L142.895 192.785L149.553 187.959L148.915 180.37L151.524 177.076L153.094 171.919L154.995 171.08L158.913 167.077L158.759 165.438L155.619 166.346L154.664 164.883L152.471 165.368L149.261 166.915L150.277 163.975L156.804 160.434L157.997 158.287L161.761 162.051L163.955 163.444L166.564 162.028L164.794 159.703L159.945 157.648L153.972 153.33L148.237 151.052L143.28 151.313L140.363 149.451L137 149.358L136.776 150.244L137.661 156.109L138.901 157.925L138.524 164.699L133.836 162.397L133.813 159.48L129.187 158.418L126.909 156.624L126.801 151.421L131.65 145.956L130.988 141.092L128.841 141.777L127.047 140.291L125.785 137.436L124.345 137.543L124.253 140.907L122.152 141.792L119.612 135.042L117.795 134.403L114.739 133.826L111.907 136.127L116.733 139.029L118.28 142.239L109.913 138.452L103.74 134.18L102.147 128.892L96.6128 128.445L93.203 131.917C93.203 131.917 91.4788 133.556 90.5706 134.172C89.6623 134.788 85.9677 136.027 85.9677 136.027L85.9215 139.591L81.3879 140.807L82.2731 142.908L89.9086 142.469L94.6193 145.81L96.1664 152.784L95.3505 159.442L97.2055 165.923L93.7957 176.922L95.8277 191.723L99.4761 199.69L103.479 205.486L106.557 205.224L104.856 202.261L102.732 200.221L100.762 196.064L102.463 195.272L106.842 201.822L110.252 207.756L111.399 212.936L116.202 216.677L124.076 220.156L135.052 220.641L138.901 222.92L141.995 225.575L146.067 226.968L150.716 227.191L155.049 226.022C155.049 226.022 155.296 228.054 155.511 229.054C155.734 230.047 153.695 234.057 153.695 234.057L152.386 238.529L154.949 242.555L159.729 243.371L167.318 248.374L170.374 248.951L171.036 251.938L171.69 253.254C186.969 247.181 199.777 236.998 209.091 224.313L208.875 222.843L212.085 211.89L209.098 210.673L198.807 216.092L198.877 216.115Z" stroke="#083044" stroke-linecap="round" stroke-linejoin="round"/>
<path id="Vector_35" d="M202.125 132.85L199.092 129.555L195.328 125.791L193.204 119.996L196.921 119.795L196.675 117.763L194.043 118.141L196.013 116.655L198.091 114.731L197.653 112.737L194.558 110.082L193.096 105.91C173.53 90.5157 147.467 83.696 121.267 89.515C109.359 92.1629 98.5832 97.166 89.3082 103.916L94.6192 106.148L92.6256 110.351L89.0157 111.991L89.8085 117.456L88.346 118.41L86.8374 121.042L87.8303 124.583L91.3017 124.229L90.6629 127.924L94.0496 127.169L98.1906 118.518L98.0829 115.2L103.571 113.561L104.433 110.859L110.075 108.981L109.921 105.463L114.062 104.332C114.062 104.332 116.694 102.077 117.295 101.946C117.895 101.815 120.905 102.192 120.905 102.192L124.422 103.916L128.602 102.985L131.704 99.9985L136.376 99.3827C136.376 99.3827 137.746 99.9138 138.747 99.6906C139.74 99.4674 142.418 97.4123 142.418 97.4123L148.991 99.7137L151.778 100.976L152.44 103.963L155.519 103.701L156.119 101.684L158.975 102.308L159.129 103.947L153.51 106.864L157.866 110.497L165.917 112.891L169.789 116.209L174.261 115.631L174.815 113.422L176.324 112.668L170.259 109.835L166.987 110.143L169.397 108.773L166.256 105.918L169.597 104.963L174.507 106.379L176.563 110.936L179.326 113.037L182.397 118.418L187.485 120.634L188.947 127.208L194.189 129.178L194.474 131.41L194.451 134.135L196.444 137.453L197.237 139.154L200.755 139L201.593 135.259L202.101 132.85H202.125Z" stroke="#083044" stroke-linecap="round" stroke-linejoin="round"/>
<path id="Vector_36" d="M200.254 112.215L200.508 113.362L200.223 116.772L201.44 119.427L203.81 119.735L204.649 123.522L202.04 123.06L203.833 133.944L202.417 138.855L205.25 144.073L208.367 145.89L210.753 156.643L215.202 164.432L219.405 170.189L224.254 170.366L224.962 166.033L225.501 165.379C225.162 161.869 224.616 158.336 223.83 154.803C220.097 138 211.684 123.453 200.27 112.223L200.254 112.215Z" stroke="#083044" stroke-linecap="round" stroke-linejoin="round"/>
<path id="Vector_37" d="M153.972 121.18L139.547 118.324L133.813 119.802L133.259 123.897L130.295 121.842L126.139 123.812L127.193 130.47L131.358 132.264L133.105 127.907L136.753 130.224L144.127 134.234L146.606 139.745L153.24 145.164L161.292 141.916L160.43 138.968L157.889 135.981L155.719 128.107L156.958 124.282L153.972 121.18Z" stroke="#083044" stroke-linecap="round" stroke-linejoin="round"/>
<path id="Vector_38" d="M165.702 123.174L162.538 123.043L160.437 125.806L163.108 131.271L165.702 130.694V123.174Z" stroke="#083044" stroke-linecap="round" stroke-linejoin="round"/>
<path id="Vector_39" d="M185.06 122.844L177.494 120.766L175.57 118.688L174.107 119.634L176.386 123.306L178.733 128.224L181.989 128.755L182.405 127.824L179.949 125.238L185.568 126.077L185.06 122.844Z" stroke="#083044" stroke-linecap="round" stroke-linejoin="round"/>
<path id="Vector_40" d="M142.872 207.656L142.257 208.626L148.63 209.096L151.639 211.351L155.511 210.912L156.419 208.411L151.662 208.626L142.872 207.656Z" stroke="#083044" stroke-linecap="round" stroke-linejoin="round"/>
<path id="Vector_41" d="M161.438 207.504L157.52 209.628L158.474 211.091L163.654 209.936L164.293 208.12L162.546 208.72L161.438 207.504Z" stroke="#083044" stroke-linecap="round" stroke-linejoin="round"/>
</g>
</g>
</g>
<g id="Ubication Icons">
<g id="Group_11">
<path id="Vector_42" d="M219.882 115.133C213.309 115.133 207.982 120.459 207.982 127.033C207.982 133.606 219.882 146.868 219.882 146.868C219.882 146.868 231.782 133.606 231.782 127.033C231.782 120.459 226.455 115.133 219.882 115.133ZM219.882 132.274C216.988 132.274 214.64 129.927 214.64 127.033C214.64 124.138 216.988 121.791 219.882 121.791C222.776 121.791 225.124 124.138 225.124 127.033C225.124 129.927 222.776 132.274 219.882 132.274Z" fill="#083044" stroke="#083044" stroke-miterlimit="10"/>
<path id="Vector_43" d="M127.532 145.684C121.798 145.684 117.149 150.333 117.149 156.067C117.149 161.801 127.532 173.37 127.532 173.37C127.532 173.37 137.915 161.801 137.915 156.067C137.915 150.333 133.266 145.684 127.532 145.684ZM127.532 160.639C125.007 160.639 122.96 158.592 122.96 156.067C122.96 153.542 125.007 151.495 127.532 151.495C130.057 151.495 132.104 153.542 132.104 156.067C132.104 158.592 130.057 160.639 127.532 160.639Z" fill="#083044" stroke="#083044" stroke-miterlimit="10"/>
<path id="Vector_44" d="M166.795 226.656C163.909 226.656 161.569 228.996 161.569 231.883C161.569 234.769 166.795 240.588 166.795 240.588C166.795 240.588 172.021 234.769 172.021 231.883C172.021 228.996 169.681 226.656 166.795 226.656ZM166.795 234.176C165.525 234.176 164.494 233.145 164.494 231.875C164.494 230.605 165.525 229.573 166.795 229.573C168.065 229.573 169.096 230.605 169.096 231.875C169.096 233.145 168.065 234.176 166.795 234.176Z" fill="#083044" stroke="#083044" stroke-miterlimit="10"/>
<path id="Vector_45" d="M101.855 178.441C98.9681 178.441 96.6282 180.781 96.6282 183.668C96.6282 186.554 101.855 192.373 101.855 192.373C101.855 192.373 107.081 186.554 107.081 183.668C107.081 180.781 104.741 178.441 101.855 178.441ZM101.855 185.961C100.584 185.961 99.5531 184.93 99.5531 183.66C99.5531 182.39 100.584 181.359 101.855 181.359C103.125 181.359 104.156 182.39 104.156 183.66C104.156 184.93 103.125 185.961 101.855 185.961Z" fill="#083044" stroke="#083044" stroke-miterlimit="10"/>
<path id="Vector_46" d="M120.327 200.422C117.441 200.422 115.101 202.762 115.101 205.648C115.101 208.535 120.327 214.354 120.327 214.354C120.327 214.354 125.554 208.535 125.554 205.648C125.554 202.762 123.214 200.422 120.327 200.422ZM120.327 207.942C119.057 207.942 118.026 206.911 118.026 205.641C118.026 204.37 119.057 203.339 120.327 203.339C121.597 203.339 122.629 204.37 122.629 205.641C122.629 206.911 121.597 207.942 120.327 207.942Z" fill="#083044" stroke="#083044" stroke-miterlimit="10"/>
<path id="Vector_47" d="M185.206 210.293C181.789 210.293 179.018 213.064 179.018 216.489C179.018 219.914 185.206 226.811 185.206 226.811C185.206 226.811 191.395 219.907 191.395 216.489C191.395 213.072 188.624 210.293 185.206 210.293ZM185.206 219.206C183.698 219.206 182.482 217.982 182.482 216.481C182.482 214.98 183.705 213.757 185.206 213.757C186.707 213.757 187.931 214.98 187.931 216.481C187.931 217.982 186.707 219.206 185.206 219.206Z" fill="#083044" stroke="#083044" stroke-miterlimit="10"/>
<path id="Vector_48" d="M184.752 91.8945C181.712 91.8945 179.249 94.3576 179.249 97.398C179.249 100.438 184.752 106.565 184.752 106.565C184.752 106.565 190.256 100.438 190.256 97.398C190.256 94.3576 187.793 91.8945 184.752 91.8945ZM184.752 99.8148C183.413 99.8148 182.328 98.7296 182.328 97.3903C182.328 96.051 183.413 94.9657 184.752 94.9657C186.092 94.9657 187.177 96.051 187.177 97.3903C187.177 98.7296 186.092 99.8148 184.752 99.8148Z" fill="#083044" stroke="#083044" stroke-miterlimit="10"/>
<path id="Vector_49" d="M90.6167 126.285C87.5764 126.285 85.1133 128.748 85.1133 131.789C85.1133 134.829 90.6167 140.956 90.6167 140.956C90.6167 140.956 96.1201 134.829 96.1201 131.789C96.1201 128.748 93.6571 126.285 90.6167 126.285ZM90.6167 134.205C89.2774 134.205 88.1921 133.12 88.1921 131.781C88.1921 130.442 89.2774 129.356 90.6167 129.356C91.956 129.356 93.0413 130.442 93.0413 131.781C93.0413 133.12 91.956 134.205 90.6167 134.205Z" fill="#083044" stroke="#083044" stroke-miterlimit="10"/>
</g>
</g>
</g>
</g>
</g>
</g>
</g>
<defs>
<linearGradient id="paint0_linear_16_283" x1="148.245" y1="79.9262" x2="14.8604" y2="79.9262" gradientUnits="userSpaceOnUse">
<stop stop-color="#FFC486"/>
<stop offset="1" stop-color="#FF6567"/>
</linearGradient>
<linearGradient id="paint1_linear_16_283" x1="144.385" y1="81.4105" x2="11" y2="81.4105" gradientUnits="userSpaceOnUse">
<stop stop-color="#FFC486"/>
<stop offset="1" stop-color="#FF6567"/>
</linearGradient>
<linearGradient id="paint2_linear_16_283" x1="200.683" y1="112.65" x2="79.1151" y2="234.217" gradientUnits="userSpaceOnUse">
<stop stop-color="#09D1C7"/>
<stop offset="1" stop-color="#05A0C7"/>
</linearGradient>
<clipPath id="clip0_16_283">
<rect width="272" height="272" fill="white"/>
</clipPath>
</defs>
</svg>
