<svg width="272" height="272" viewBox="0 0 272 272" fill="none" xmlns="http://www.w3.org/2000/svg">

<g id="V7">

<g id="Onboarding">


<g id="SignUp">

<g id="Illustration/Travel">
<g id="Calque_1">
<g id="freepik--Map--inject-205">
<path id="Vector" d="M217.281 107.643L211.295 131.014L221.729 191.771H221.65L221.396 191.823C216.955 192.795 169.117 203.202 166.776 203.007C164.324 202.805 125.889 196.89 125.889 196.89L91.8682 200.868L64.5907 188.836L39.3868 193.284L32.2136 104.278C32.2136 104.278 37.5413 60.7564 35.0894 49.0381C35.0894 49.0381 77.0654 55.0635 80.9455 55.4809C84.8255 55.8982 129.964 41.6758 129.964 41.6758L168.054 54.294L199.961 50.2575L247.174 72.3639C247.174 72.3639 216.518 102.882 217.281 107.643Z" fill="white" stroke="#263238" stroke-width="0.652105" stroke-linecap="round" stroke-linejoin="round"/>
<path id="Vector_2" d="M39.9737 52.8655L80.9455 58.6301L129.312 46.7227L168.015 57.5541L198.383 54.2936L240.457 72.3243C240.457 72.3243 216.512 101.995 215.592 103.893C214.673 105.79 206.998 131.014 206.998 131.014L217.131 188.856L168.034 199.661L126.736 193.055L94.0072 195.937L66.1819 183.997L43.0712 188.856L35.572 105.621C35.572 105.621 42.4583 71.7635 39.9737 52.8655Z" fill="url(#paint0_linear_16_283)" stroke="#263238" stroke-width="0.652105" stroke-linecap="round" stroke-linejoin="round"/>
<path id="Vector_3" d="M182.674 83.9391L189.306 82.335L221.52 96.1009C223.098 94.0859 224.878 91.8361 226.704 89.5407L191.784 74.7836L184.428 76.8442L189.039 55.2791L182.941 55.9312L177.346 78.8462L159.27 83.9065L124.487 86.9388L110.59 93.8446L111.242 73.4924L128.236 65.4846L148.034 69.3059L151.406 52.938L145.393 51.2556L143.489 63.1435L128.236 59.883L111.451 67.4539L111.992 51.0078L103.88 52.9772V97.1378L83.267 107.376V58.0571L80.9194 58.6309L75.7808 57.9071L76.6612 74.7836H62.7192L40.3976 57.3267C40.5411 59.8438 40.5606 62.5436 40.4954 65.2889L60.3259 81.885H77.0459L77.698 94.4706L77.0851 99.6875L35.9763 110.147L36.1915 112.527L76.7786 102.296L75.8395 110.415L36.8697 120.033L37.587 128.028L58.2327 122.57L60.1499 147.167L41.128 167.291L41.8714 175.521L48.575 168.426L50.0618 187.37L51.979 186.965L50.6748 166.209L64.5581 151.523L71.2748 149.808L97.8611 141.233L97.2742 145.094L82.5106 191.008L88.1904 193.447L95.9505 168.4L107.401 166.281L130.408 176.232L141.083 176.916L139.27 195.064L142.113 195.514L143.352 177.053L170.134 178.768L189.482 175.984L191.947 194.399L196.929 193.304L194.523 175.24L214.223 172.404L213.238 166.77L171.308 172.332L154.353 170.845L156.766 148.022L171.497 139.975H176.062L209.084 143.32L207.923 136.636L176.994 133.708H169.854L173.479 111.908L182.674 83.9391ZM73.1203 142.042L61.904 145.367L60.4172 121.976L77.698 117.412L103.469 104.109L99.224 132.319L73.1203 142.042ZM109.495 159.864L97.8677 162.172L102.693 146.665L109.99 100.763L124.682 93.1795L130.388 116.316L128.256 135.579L121.852 164.82L109.495 159.864ZM162.765 138.67L152.645 143.463L148.921 170.369L131.966 168.882L126.13 166.541L132.651 137.503L135.181 117.399H146.86L166.352 114.138L162.765 138.67ZM167.297 109.45L147.734 113.473H132.005L127.271 92.7687L157.966 89.932L175.299 85.7194L167.297 109.45Z" fill="white" stroke="#263238" stroke-width="0.652105" stroke-linecap="round" stroke-linejoin="round"/>
<path id="Vector_4" opacity="0.5" d="M175.299 128.079L177.066 114.117L199.629 119.073L197.79 130.994L175.299 128.079Z" fill="white"/>
<path id="Vector_5" opacity="0.5" d="M189.28 113.473L193.877 100.652L210.871 107.063L206.971 120.32L189.28 113.473Z" fill="white"/>
<path id="Vector_6" opacity="0.5" d="M185.589 85.7305H187.467L194.568 88.9453L187.467 110.484L180.809 108.489L178.677 108.019L185.589 85.7305Z" fill="white"/>
<path id="Vector_7" opacity="0.5" d="M199.629 91.4453L216.205 98.1098L213.447 102.883L197.79 98.1098L199.629 91.4453Z" fill="white"/>
<path id="Vector_8" opacity="0.5" d="M189.28 72.3393L192.495 57.5561L197.79 56.7148L205.615 59.858L200.072 75.0977L192.599 72.3393H189.28Z" fill="white"/>
<path id="Vector_9" opacity="0.5" d="M203.541 76.6949L206.997 68.1914L230.252 78.7816L225.648 85.733L203.541 76.6949Z" fill="white"/>
<path id="Vector_10" opacity="0.5" d="M153.988 56.7148L166.339 60.2884L162.589 79.9363H160.796H149.899L153.988 56.7148Z" fill="white"/>
<path id="Vector_11" opacity="0.5" d="M169.469 60.8268L178.676 59.2617L175.299 76.6925L166.339 79.014L169.469 60.8268Z" fill="white"/>
<path id="Vector_12" opacity="0.5" d="M147.369 72.3359L146.254 80.8524L126.175 81.7719L114.105 87.993V76.692L128.719 69.1406L147.369 72.3359Z" fill="white"/>
<path id="Vector_13" opacity="0.5" d="M114.979 52.8656L129.482 49.0508L128.36 57.5542L114.131 63.1167L114.979 52.8656Z" fill="white"/>
<path id="Vector_14" opacity="0.5" d="M131.327 57.5536L141.839 59.8555L143.515 52.0759L132.631 50.2305L131.327 57.5536Z" fill="white"/>
<path id="Vector_15" opacity="0.5" d="M85.895 59.858V72.3393L101.089 68.1919V56.7148L85.895 59.858Z" fill="white"/>
<path id="Vector_16" opacity="0.5" d="M86.9382 76.9594V101.629L95.3308 98.1071L94.0071 82.9261L101.089 80.8524V72.3359L86.9382 76.9594Z" fill="white"/>
<path id="Vector_17" opacity="0.5" d="M61.4866 84.7656L62.6408 100.651L73.6875 98.1077L75.4612 93.1517V84.7656H61.4866Z" fill="white"/>
<path id="Vector_18" opacity="0.5" d="M43.5342 72.3242L58.1087 83.6056V91.4309L41.6887 92.696C41.6887 92.696 43.7624 79.0148 43.5342 72.3242Z" fill="white"/>
<path id="Vector_19" opacity="0.5" d="M41.6886 95.82L56.7066 94.4375V102.015L39.0476 106.834L41.6886 95.82Z" fill="white"/>
<path id="Vector_20" opacity="0.5" d="M61.4866 59.2617V70.0345L73.6875 70.954L73.1853 59.8551L61.4866 59.2617Z" fill="white"/>
<path id="Vector_21" opacity="0.5" d="M112.547 102.88L123.026 97.9961L126.176 115.857L110.453 118.622L112.547 102.88Z" fill="white"/>
<path id="Vector_22" opacity="0.5" d="M114.979 121.344L114.131 133.578L125.034 132.43V118.625L114.979 121.344Z" fill="white"/>
<path id="Vector_23" opacity="0.5" d="M146.254 94.436L144.832 110.484H150.76L163.945 108.306L171.543 88.9453L157.066 93.1514L146.254 94.436Z" fill="white"/>
<path id="Vector_24" opacity="0.5" d="M131.327 95.357V99.713L142.302 99.4V94.4375L131.327 95.357Z" fill="white"/>
<path id="Vector_25" opacity="0.5" d="M147.369 123.235L146.254 136.114L160.724 133.578L162.589 118.625L147.369 123.235Z" fill="white"/>
<path id="Vector_26" opacity="0.5" d="M134.705 139.992L144.832 140.716L142.302 166.559L132.586 166.259L128.947 164.948L134.705 139.992Z" fill="white"/>
<path id="Vector_27" opacity="0.5" d="M138.011 121.344L144.832 122.328L143.515 130.995H136.811L138.011 121.344Z" fill="white"/>
<path id="Vector_28" opacity="0.5" d="M192.495 145.367L205.615 146.639L208.608 162.446L192.495 162.778V145.367Z" fill="white"/>
<path id="Vector_29" opacity="0.5" d="M162.589 150.618L175.299 149.594L177.066 168.114H160.489L162.589 150.618Z" fill="white"/>
<path id="Vector_30" opacity="0.5" d="M197.79 178.741L199.629 187.206L208.608 185.745L206.998 176.941L197.79 178.741Z" fill="white"/>
<path id="Vector_31" opacity="0.5" d="M168.778 182.074L186.619 179.902L187.467 189.756L168.034 194.575L157.04 193.284L160.874 181.161L168.778 182.074Z" fill="white"/>
<path id="Vector_32" opacity="0.5" d="M76.4524 153.278L90.9617 150.617L89.9836 160.634L85.8949 170.402L75.4612 173.18L76.4524 153.278Z" fill="white"/>
<path id="Vector_33" opacity="0.5" d="M63.7952 124.729V132.658L74.9657 130.995L80.9455 128.694L80.6391 118.625L76.5699 121.344L63.7952 124.729Z" fill="white"/>
<path id="Vector_34" opacity="0.5" d="M40.5344 130.993L55.272 127.367L56.7066 142.594L42.6081 145.365L40.5344 130.993Z" fill="white"/>
<path id="Vector_35" opacity="0.5" d="M41.5649 158.064L49.9771 150.617L52.1617 152.639L43.4626 160.992L41.5649 158.064Z" fill="white"/>
<path id="Vector_36" opacity="0.5" d="M43.7625 178.741L47.8772 177.77L48.6206 186.071L44.545 186.664L43.7625 178.741Z" fill="white"/>
<path id="Vector_37" opacity="0.5" d="M54.5808 183.777L53.7917 169.268L63.795 168.113V182.453L54.5808 183.777Z" fill="white"/>
<path id="Vector_38" opacity="0.5" d="M117.6 150.615C120.708 150.615 123.228 148.095 123.228 144.987C123.228 141.879 120.708 139.359 117.6 139.359C114.492 139.359 111.973 141.879 111.973 144.987C111.973 148.095 114.492 150.615 117.6 150.615Z" fill="white"/>
<path id="Vector_39" opacity="0.1" d="M217.281 107.642L211.295 131.013L221.729 191.77H221.65L221.396 191.822L166.782 203.006L180.979 107.329L199.942 50.2305L247.154 72.3368C247.154 72.3368 216.518 102.881 217.281 107.642Z" fill="#23272E"/>
<path id="Vector_40" opacity="0.1" d="M168.034 54.2677L153.584 105.491L140.998 127.74L125.895 196.89L91.8748 200.868L116.929 142.602L122.889 99.0413L130.44 41.8125L168.034 54.2677Z" fill="#23272E"/>
<path id="Vector_41" opacity="0.1" d="M80.639 55.46L79.6021 103.064L65.321 189.181L64.5972 188.861L39.3868 193.283L32.8005 111.267L72.2594 96.0079L78.7805 55.2188L80.639 55.46Z" fill="#23272E"/>
</g>
<g id="freepik--Directions--inject-205">
<path id="Vector_42" d="M179.302 81.2455C179.087 81.0172 178.761 80.9325 178.461 81.0107L158.657 86.1167L124.963 88.6599C124.845 88.6664 124.734 88.699 124.63 88.7512L80.4042 111.451L81.0563 97.1047V77.7176C81.0563 77.235 80.665 76.8438 80.1825 76.8438H71.2747C70.7921 76.8438 70.4009 77.235 70.4009 77.7176C70.4009 78.2001 70.7921 78.5914 71.2747 78.5914H79.276V97.0395L78.5718 112.866C78.5522 113.179 78.7087 113.473 78.9695 113.642C79.2304 113.812 79.563 113.825 79.8368 113.688L125.269 90.388L158.866 87.8513C158.918 87.8578 158.963 87.8578 159.015 87.8513L177.418 83.104L169.495 111.145C169.495 111.145 169.495 111.203 169.495 111.236L168.191 118.983H167.447C167.297 118.983 167.18 119.1 167.18 119.25C167.18 119.27 167.18 119.289 167.186 119.309L168.288 122.367C168.328 122.53 168.491 122.635 168.654 122.595C168.725 122.582 168.784 122.543 168.83 122.485L170.89 119.504C171.021 119.322 170.89 119.1 170.61 119.087H169.958L171.19 111.614L179.531 82.1062C179.622 81.7998 179.531 81.4672 179.309 81.2455H179.302Z" fill="url(#paint1_linear_16_283)"/>
<path id="Vector_43" opacity="0.6" d="M179.302 81.2455C179.087 81.0172 178.761 80.9325 178.461 81.0107L158.657 86.1167L124.963 88.6599C124.845 88.6664 124.734 88.699 124.63 88.7512L80.4042 111.451L81.0563 97.1047V77.7176C81.0563 77.235 80.665 76.8438 80.1825 76.8438H71.2747C70.7921 76.8438 70.4009 77.235 70.4009 77.7176C70.4009 78.2001 70.7921 78.5914 71.2747 78.5914H79.276V97.0395L78.5718 112.866C78.5522 113.179 78.7087 113.473 78.9695 113.642C79.2304 113.812 79.563 113.825 79.8368 113.688L125.269 90.388L158.866 87.8513C158.918 87.8578 158.963 87.8578 159.015 87.8513L177.418 83.104L169.495 111.145C169.495 111.145 169.495 111.203 169.495 111.236L168.191 118.983H167.447C167.297 118.983 167.18 119.1 167.18 119.25C167.18 119.27 167.18 119.289 167.186 119.309L168.288 122.367C168.328 122.53 168.491 122.635 168.654 122.595C168.725 122.582 168.784 122.543 168.83 122.485L170.89 119.504C171.021 119.322 170.89 119.1 170.61 119.087H169.958L171.19 111.614L179.531 82.1062C179.622 81.7998 179.531 81.4672 179.309 81.2455H179.302Z" fill="#23272E"/>
<path id="Vector_44" d="M75.1873 46.3317C71.4703 42.6082 65.4383 42.6082 61.7148 46.3317C57.9978 50.0552 57.9978 56.0872 61.7148 59.8107L68.4575 66.547L75.1938 59.8107C78.9173 56.0937 78.9173 50.0617 75.1938 46.3382L75.1873 46.3317ZM71.2746 55.8459C69.7422 57.3718 67.2642 57.3653 65.7382 55.8329C64.2123 54.3004 64.2188 51.8224 65.7513 50.2965C67.2772 48.7771 69.7422 48.7771 71.2681 50.2965C72.8005 51.8224 72.8071 54.3004 71.2811 55.8329L71.2681 55.8459H71.2746Z" fill="#263238"/>
<path id="Vector_45" d="M61.7148 57.2461C62.4648 58.772 63.5342 60.1219 64.8515 61.2044" stroke="white" stroke-width="0.652105" stroke-linecap="round" stroke-linejoin="round"/>
<path id="Vector_46" d="M64.0297 46.2422C60.7692 48.1985 59.9215 51.9742 60.9909 55.4499" stroke="white" stroke-width="0.652105" stroke-linecap="round" stroke-linejoin="round"/>
<path id="Vector_47" d="M68.477 44.9766C67.6554 44.9766 66.8337 45.1005 66.0447 45.3417" stroke="white" stroke-width="0.652105" stroke-linecap="round" stroke-linejoin="round"/>
<path id="Vector_48" d="M161.161 106.886C157.444 103.163 151.412 103.163 147.688 106.886C143.965 110.603 143.965 116.635 147.688 120.359L154.425 127.095L161.167 120.359C164.891 116.642 164.891 110.61 161.167 106.886H161.161ZM157.196 116.401C155.664 117.927 153.186 117.92 151.66 116.388C150.134 114.855 150.14 112.377 151.673 110.851C153.199 109.332 155.664 109.332 157.19 110.851C158.722 112.377 158.729 114.855 157.203 116.388L157.19 116.401H157.196Z" fill="#263238"/>
<path id="Vector_49" d="M147.662 117.801C148.412 119.333 149.482 120.683 150.799 121.766" stroke="white" stroke-width="0.652105" stroke-linecap="round" stroke-linejoin="round"/>
<path id="Vector_50" d="M149.977 106.789C146.717 108.745 145.869 112.515 146.938 115.997" stroke="white" stroke-width="0.652105" stroke-linecap="round" stroke-linejoin="round"/>
<path id="Vector_51" d="M154.418 105.531C153.596 105.538 152.781 105.662 151.992 105.896" stroke="white" stroke-width="0.652105" stroke-linecap="round" stroke-linejoin="round"/>
</g>
<g id="freepik--Character--inject-205">
<path id="Vector_52" d="M217.281 107.636C216.512 107.949 210.069 108.712 210.069 108.712C210.219 107.18 213.447 104.415 213.447 102.882C213.532 102.283 213.108 101.722 212.508 101.643C212.358 101.624 212.208 101.63 212.064 101.67C211.758 103.665 206.691 107.343 205.615 107.806C204.539 108.269 201.624 118.09 200.046 119.629C187.656 131.979 175.918 139.12 171.542 147.669C168.738 152.958 164.617 157.431 159.57 160.653C159.57 160.653 157.04 193.219 166.704 178.748C176.368 164.278 179.831 165.126 184.663 158.683C189.495 152.24 198.937 137.535 206.306 125.145C210.069 121.95 212.984 123.43 215.286 121.128C215.775 120.639 215.442 118.67 216.205 117.379C216.968 116.088 218.201 113.76 218.051 112.377C217.901 110.995 219.127 110.232 219.277 109.462C219.427 108.693 218.051 107.33 217.281 107.636Z" fill="#BFBFBF" stroke="#263238" stroke-width="0.652105" stroke-miterlimit="10"/>
<path id="Vector_53" d="M68.6662 152.911C66.1621 143.631 56.1457 134.221 46.5859 119.575C45.3664 117.743 44.5383 107.537 43.5927 106.885C42.6472 106.233 38.4411 101.564 38.5519 99.5489C38.0107 99.2685 37.3455 99.4837 37.0651 100.025C36.9934 100.162 36.9543 100.312 36.9478 100.462C36.6282 101.962 39.2106 105.333 39.0475 106.866C39.0475 106.866 32.8982 104.785 32.207 104.322C31.5157 103.859 29.8855 104.929 29.8789 105.711C29.8724 106.494 30.9093 107.498 30.4724 108.822C30.0354 110.146 30.7593 112.676 31.2418 114.097C31.7244 115.519 30.994 117.358 31.3657 117.951C33.146 120.684 36.3022 119.836 39.3214 123.742C43.9775 137.332 50.1659 153.693 53.5634 161.003C56.9609 168.313 60.5149 168.176 66.9837 184.355C73.4526 200.534 77.7109 168.124 77.7109 168.124C73.4331 163.918 70.316 158.675 68.6662 152.911Z" fill="#BFBFBF" stroke="#263238" stroke-width="0.652105" stroke-miterlimit="10"/>
<path id="Vector_54" d="M72.7354 157.325C72.7354 157.325 74.4048 153.36 71.2878 152.108C68.1707 150.856 64.2515 153.119 64.2515 153.119C64.2515 153.119 58.4935 154.56 58.2652 160.651C58.2652 160.651 56.961 181.088 61.7605 181.166C66.56 181.244 72.7354 157.325 72.7354 157.325Z" fill="#999999" stroke="#263238" stroke-width="0.652105" stroke-linecap="round" stroke-linejoin="round"/>
<path id="Vector_55" d="M162.569 158.038C162.569 158.038 162.315 154.83 166.228 155.253C170.14 155.677 173.362 161.253 173.133 169.059C173.133 169.059 174.927 179.016 170.114 178.742C165.302 178.468 162.569 158.038 162.569 158.038Z" fill="#999999" stroke="#263238" stroke-width="0.652105" stroke-linecap="round" stroke-linejoin="round"/>
<path id="Vector_56" d="M87.0491 175.676C87.0491 175.676 73.7135 160.137 71.2746 154.763C71.2746 154.763 62.093 154.463 60.841 162.517C60.1302 167.903 60.1302 173.355 60.841 178.741C60.841 178.741 69.8922 203.443 73.6548 212.794L87.0491 175.676Z" fill="#757575"/>
<g id="Clip path group">
<mask id="mask0_16_283" style="mask-type:luminance" maskUnits="userSpaceOnUse" x="60" y="154" width="28" height="59">
<g id="clippath">
<path id="Vector_57" d="M87.0491 175.676C87.0491 175.676 73.7135 160.137 71.2746 154.763C71.2746 154.763 62.093 154.463 60.841 162.517C60.1302 167.903 60.1302 173.355 60.841 178.741C60.841 178.741 69.8922 203.443 73.6548 212.794L87.0491 175.676Z" fill="white"/>
</g>
</mask>
<g mask="url(#mask0_16_283)">
<g id="Group">
<g id="Group_2">
<g id="Group_3" opacity="0.3">
<path id="Vector_58" d="M82.3605 170.048C80.1955 170.335 78.1022 171.039 76.2046 172.122C75.7025 172.396 75.1938 172.702 74.6852 173.048C74.2092 173.367 73.7722 173.732 73.381 174.15C71.4247 176.106 70.1205 179.06 69.3053 182.536C68.8815 184.329 68.5684 186.155 68.3663 187.987C68.0076 191.196 67.8642 194.43 67.9229 197.658C66.8143 194.717 65.7187 191.789 64.7275 189.109C64.9036 187.107 65.1971 185.118 65.6014 183.149C65.9209 181.571 66.3578 180.012 66.9056 178.499C67.7859 175.747 69.3314 173.25 71.4051 171.235C71.829 170.844 72.2789 170.485 72.7615 170.165C73.2701 169.826 73.7788 169.513 74.2744 169.226C76.035 168.209 77.9262 167.453 79.902 166.977L82.3605 170.048Z" fill="url(#paint2_linear_16_283)"/>
</g>
<g id="Group_4" opacity="0.3">
<path id="Vector_59" d="M77.2348 163.617C75.435 164.132 73.6743 164.771 71.9593 165.534C71.3658 165.795 70.7594 166.082 70.1268 166.388C69.6704 166.61 69.2335 166.864 68.8226 167.158C66.6511 168.723 65.1448 171.24 64.0949 174.116C63.5667 175.616 63.1493 177.155 62.8493 178.72C62.595 180.024 62.4059 181.328 62.2559 182.593L60.8474 178.759C60.8474 178.759 60.6257 177.272 60.4626 174.95C60.4626 174.716 60.4626 174.474 60.417 174.227C60.8017 172.988 61.2713 171.781 61.8255 170.607C62.9732 168.006 64.7991 165.756 67.1011 164.086C67.5641 163.767 68.0531 163.486 68.5618 163.239C69.1226 162.958 69.6769 162.704 70.2116 162.463C71.7636 161.758 73.3548 161.145 74.9785 160.617C75.7023 161.589 76.4523 162.587 77.2348 163.617Z" fill="url(#paint3_linear_16_283)"/>
</g>
<g id="Group_5" opacity="0.3">
<path id="Vector_60" d="M72.5006 156.953C71.0138 157.344 69.5727 157.911 68.2228 158.642C67.1795 159.196 66.1883 159.829 65.2492 160.539C63.5472 161.817 61.9887 163.272 60.5867 164.876C60.6584 164.093 60.7562 163.304 60.8736 162.522C61.1279 160.546 62.0735 158.726 63.5472 157.39L63.632 157.338C64.3298 156.835 65.0536 156.372 65.797 155.942C66.0709 155.779 66.3513 155.629 66.6317 155.479L66.6839 155.583C67.1925 155.401 67.7207 155.244 68.2489 155.127C69.2401 154.899 70.2509 154.781 71.2682 154.781C71.6333 155.531 72.0442 156.255 72.5006 156.953Z" fill="url(#paint4_linear_16_283)"/>
</g>
<g id="Group_6" opacity="0.3">
<path id="Vector_61" d="M80.5084 177.571L77.9 179.906C76.2697 178.08 74.7438 176.156 73.3352 174.148C72.6505 173.189 71.9919 172.191 71.3463 171.22C70.479 169.876 69.6378 168.513 68.8357 167.144C68.2423 166.127 67.6684 165.109 67.1142 164.092C66.462 162.899 65.8099 161.705 65.2361 160.538C64.6622 159.371 64.1405 158.36 63.6384 157.317C64.2971 156.756 65.0274 156.293 65.8099 155.928C66.0838 155.765 66.3642 155.615 66.6446 155.465L66.6968 155.569C67.1794 156.567 67.6815 157.597 68.2162 158.647C68.8683 159.899 69.5204 161.184 70.2312 162.475C70.7855 163.492 71.3594 164.51 71.9528 165.527C72.6831 166.766 73.4396 167.998 74.2221 169.218C74.8612 170.209 75.5133 171.181 76.1784 172.126C77.5152 174.024 78.9629 175.843 80.5084 177.571Z" fill="url(#paint5_linear_16_283)"/>
</g>
<g id="Group_7" opacity="0.3">
<path id="Vector_62" d="M77.1436 199.15L73.7852 200.135C72.7875 196.738 70.7856 192.479 68.3336 187.986C67.4663 186.389 66.5338 184.765 65.5687 183.141C64.6949 181.655 63.7885 180.174 62.8755 178.714C62.0865 177.409 61.2909 176.17 60.4888 174.944C60.4888 174.71 60.4888 174.468 60.4432 174.221C60.3453 172.545 60.2932 170.53 60.3649 168.352L61.8517 170.601C62.5951 171.736 63.3581 172.916 64.121 174.11C65.034 175.544 65.9535 177.012 66.8599 178.492C67.6815 179.835 68.4901 181.192 69.2727 182.541C72.768 188.56 75.7872 194.547 77.1436 199.15Z" fill="url(#paint6_linear_16_283)"/>
</g>
<path id="Vector_63" opacity="0.2" d="M76.8696 203.955L73.6873 212.791C69.9246 203.44 60.8734 178.744 60.8734 178.744C60.1626 173.358 60.1626 167.906 60.8734 162.52C61.6364 157.512 65.4382 155.731 68.2683 155.105C68.4378 155.132 68.6009 155.171 68.7639 155.216C68.7639 155.216 61.4994 159.866 62.295 177.766L69.3704 197.329C69.3704 197.329 70.1138 190.515 72.9439 191.499C74.1633 191.936 75.8979 197.59 76.8696 203.955Z" fill="#23272E"/>
</g>
</g>
</g>
</g>
<path id="Vector_64" d="M87.0491 175.676C87.0491 175.676 73.7135 160.137 71.2746 154.763C71.2746 154.763 62.093 154.463 60.841 162.517C60.1302 167.903 60.1302 173.355 60.841 178.741C60.841 178.741 69.8922 203.443 73.6548 212.794L87.0491 175.676Z" stroke="#263238" stroke-width="0.652105" stroke-linecap="round" stroke-linejoin="round"/>
<path id="Vector_65" d="M115.761 161.797C115.696 162.065 115.429 162.286 114.979 162.45C113.701 162.782 112.377 162.88 111.066 162.736C102.752 162.28 85.8817 157.344 81.8582 147.523C77.5609 137.043 88.588 123.362 100.391 123.069C107.173 122.906 112.892 130.894 114.268 140.311C114.966 144.849 118.82 148.618 115.761 161.797Z" fill="#BFBFBF" stroke="#263238" stroke-width="0.652105" stroke-miterlimit="10"/>
<path id="Vector_66" d="M109.997 146.664C109.547 147.525 109.384 148.51 109.534 149.475" stroke="#263238" stroke-width="0.652105" stroke-linecap="round" stroke-linejoin="round"/>
<path id="Vector_67" d="M110.062 152.102C110.062 152.102 111.268 153.732 112.135 152.975" stroke="#263238" stroke-width="0.652105" stroke-linecap="round" stroke-linejoin="round"/>
<path id="Vector_68" d="M114.966 162.453C113.687 162.786 112.364 162.883 111.053 162.74C111.223 161.508 111.549 160.079 111.653 159.362C111.992 157.099 110.857 156.395 111.34 156.232C111.822 156.069 111.777 158.084 112.735 159.108C113.629 160.119 114.379 161.24 114.966 162.453Z" fill="#263238"/>
<g id="Vector_69">
<path d="M111.705 160.728C111.705 160.728 110.225 166.402 110.401 169.277C110.597 171.482 111.001 173.666 111.594 175.798L93.6875 176.835C93.6875 176.835 96.3677 163.943 94.933 159.431C93.4984 154.918 106.384 156.561 106.384 156.561" fill="#BFBFBF"/>
<path d="M111.705 160.728C111.705 160.728 110.225 166.402 110.401 169.277C110.597 171.482 111.001 173.666 111.594 175.798L93.6875 176.835C93.6875 176.835 96.3677 163.943 94.933 159.431C93.4984 154.918 106.384 156.561 106.384 156.561" stroke="#263238" stroke-width="0.652105" stroke-miterlimit="10"/>
</g>
<path id="Vector_70" d="M109.657 134.116C110.407 131.677 111.744 131.925 111.744 131.925C111.744 131.925 110.877 120.22 105.875 118.974C102.497 118.127 101.571 123.213 98.0499 119.548C96.0936 117.494 92.5201 116.94 90.1269 118.674C88.7118 119.718 88.7574 121.172 87.8119 122.437C86.8663 123.702 84.9165 123.65 83.4819 123.943C81.2647 124.393 79.015 126.043 78.552 128.378C78.1738 130.282 80.5083 131.788 80.0518 133.353C79.5106 135.225 77.7695 136.359 76.6935 137.918C75.3893 139.783 75.2719 142.209 75.774 144.374C76.5239 147.595 78.1868 148.854 80.7757 150.497C82.0799 151.319 82.8428 152.812 83.6449 154.071C86.3316 158.296 89.5921 161.387 94.7307 162.261C105.041 164.022 109.657 154.508 109.657 154.508C109.657 154.508 108.497 145.078 109.338 144.002C110.179 142.926 111.946 146.61 111.946 146.61C114.092 140.872 109.657 134.116 109.657 134.116Z" fill="#263238"/>
<g id="Vector_71">
<path d="M112.051 148.064C111.738 146.916 111.959 142.195 110.531 142.625C109.279 143.01 109.879 147.881 111.183 151.135C112.488 154.389 114.085 154.396 114.131 153.45C114.177 152.505 113.094 151.911 112.827 150.548" fill="#BFBFBF"/>
<path d="M112.051 148.064C111.738 146.916 111.959 142.195 110.531 142.625C109.279 143.01 109.879 147.881 111.183 151.135C112.488 154.389 114.085 154.396 114.131 153.45C114.177 152.505 113.094 151.911 112.827 150.548" stroke="#263238" stroke-width="0.652105" stroke-miterlimit="10"/>
</g>
<path id="Vector_72" opacity="0.3" d="M108.921 128.26C108.921 128.26 109.488 122.88 105.856 123.043C102.224 123.206 102.413 128.26 102.413 128.26C102.413 128.26 99.3608 127.223 98.3174 128.983C97.2741 130.744 98.3501 134.305 98.3501 134.305C98.3501 134.305 95.0895 135.341 95.8916 137.526C96.6937 139.711 94.5874 140.037 94.5874 140.037" stroke="white" stroke-width="0.652105" stroke-linecap="round" stroke-linejoin="round"/>
<path id="Vector_73" opacity="0.3" d="M108.092 132.656C108.092 132.656 107.519 137.417 104.121 137.527C104.121 137.527 100.626 148.274 88.751 148.046" stroke="white" stroke-width="0.652105" stroke-linecap="round" stroke-linejoin="round"/>
<path id="Vector_74" opacity="0.3" d="M98.9955 122.325C98.9955 122.325 96.2567 119.763 92.9635 121.334C89.6704 122.906 91.8615 127.366 91.8615 127.366C91.8615 127.366 88.6662 127.17 87.6163 129.583C86.5664 131.996 89.6769 133.574 89.6769 133.574C89.6769 133.574 86.1295 135.459 87.6163 136.952C89.1031 138.445 87.6163 141.445 87.6163 141.445" stroke="white" stroke-width="0.652105" stroke-linecap="round" stroke-linejoin="round"/>
<path id="Vector_75" opacity="0.3" d="M85.3015 127.367C85.3015 127.367 80.3325 128.932 81.3889 132.656C82.4453 136.379 83.28 136.366 83.28 136.366C83.28 136.366 79.5565 137.67 79.3282 140.351C79.1 143.031 82.3214 142.92 82.3214 142.92C82.3214 142.92 81.2845 145.62 83.9321 146.637" stroke="white" stroke-width="0.652105" stroke-linecap="round" stroke-linejoin="round"/>
<path id="Vector_76" d="M87.0491 174.054C87.0491 174.054 99.0414 165.576 120.867 174.484L137.242 170.663C137.242 170.663 147.832 199.427 141.48 228.909C141.48 228.909 127.271 239.101 103.482 239.049C77.6784 238.984 71.2877 228.909 71.2877 228.909L74.9787 219.499C72.755 208.752 69.8792 191.523 72.0703 182.603C75.4025 169.039 87.0491 174.054 87.0491 174.054Z" fill="#757575"/>
<g id="Clip path group_2">
<mask id="mask1_16_283" style="mask-type:luminance" maskUnits="userSpaceOnUse" x="71" y="170" width="73" height="70">
<g id="clippath-1">
<path id="Vector_77" d="M87.0491 174.054C87.0491 174.054 99.0414 165.576 120.867 174.484L137.242 170.663C137.242 170.663 147.832 199.427 141.48 228.909C141.48 228.909 127.271 239.101 103.482 239.049C77.6784 238.984 71.2877 228.909 71.2877 228.909L74.9787 219.499C72.755 208.752 69.8792 191.523 72.0703 182.603C75.4025 169.039 87.0491 174.054 87.0491 174.054Z" fill="white"/>
</g>
</mask>
<g mask="url(#mask1_16_283)">
<g id="Group_8">
<g id="Group_9">
<g id="Group_10" opacity="0.3">
<path id="Vector_78" d="M136.055 231.954C135.064 232.437 133.929 232.945 132.677 233.467C132.573 232.222 132.468 230.989 132.377 229.77C132.286 228.55 132.188 227.292 132.103 226.072C131.829 222.381 131.601 218.847 131.405 215.489C131.334 214.211 131.262 212.958 131.203 211.726C130.942 206.692 130.753 202.062 130.636 197.836C130.597 196.467 130.564 195.143 130.532 193.865C130.44 189.378 130.408 185.414 130.434 181.97C130.434 180.614 130.434 179.362 130.473 178.136C130.512 175.867 130.564 173.884 130.629 172.189L134.144 171.367C134.092 172.841 134.033 174.569 133.994 176.551C133.994 177.771 133.949 179.075 133.936 180.464C133.936 183.725 133.936 187.552 133.994 191.889C133.994 193.193 134.02 194.556 134.079 195.978C134.19 200.262 134.372 205.003 134.627 210.187C134.692 211.426 134.751 212.698 134.822 213.989C135.018 217.354 135.233 220.895 135.475 224.605C135.566 225.825 135.657 227.064 135.755 228.322C135.866 229.528 135.957 230.728 136.055 231.954Z" fill="url(#paint7_linear_16_283)"/>
</g>
<g id="Group_11" opacity="0.3">
<path id="Vector_79" d="M125.693 173.344C125.432 175.267 125.158 177.569 124.884 180.217C124.754 181.417 124.624 182.695 124.506 184.038C124.161 187.873 123.854 192.255 123.606 197.08C123.548 198.345 123.489 199.643 123.45 200.993C123.293 205.303 123.215 209.92 123.267 214.792C123.267 216.018 123.267 217.257 123.319 218.509C123.391 221.984 123.528 225.597 123.737 229.334C123.808 230.533 123.88 231.746 123.972 232.972C124.043 234.094 124.128 235.222 124.226 236.357C123.124 236.657 121.976 236.944 120.783 237.204C120.698 236.168 120.613 235.137 120.548 234.113C120.457 232.901 120.378 231.694 120.307 230.501C120.078 226.745 119.935 223.086 119.857 219.539C119.818 218.306 119.798 217.094 119.785 215.887C119.726 211.068 119.785 206.49 119.915 202.193C119.955 200.889 120 199.624 120.059 198.404C120.268 193.494 120.574 189.014 120.913 185.056C121.031 183.751 121.141 182.506 121.259 181.319C121.533 178.626 121.807 176.239 122.061 174.205L125.693 173.344Z" fill="url(#paint8_linear_16_283)"/>
</g>
<g id="Group_12" opacity="0.3">
<path id="Vector_80" d="M114.007 172.095C113.655 174.873 113.238 178.616 112.82 183.063C112.71 184.218 112.599 185.418 112.501 186.663C112.162 190.804 111.849 195.46 111.588 200.494C111.529 201.681 111.471 202.881 111.425 204.107C111.249 208.45 111.145 213.041 111.125 217.801V221.362C111.125 225.144 111.229 229.03 111.392 232.976C111.438 234.156 111.49 235.336 111.555 236.53C111.555 237.221 111.627 237.906 111.673 238.597C110.538 238.708 109.377 238.805 108.191 238.864C108.158 238.323 108.125 237.782 108.099 237.247C108.034 236.067 107.975 234.893 107.93 233.719C107.754 229.656 107.662 225.659 107.636 221.759V218.245C107.636 213.478 107.754 208.887 107.923 204.55C107.969 203.344 108.014 202.164 108.073 200.996C108.314 195.956 108.627 191.273 108.973 187.093C109.071 185.868 109.175 184.681 109.28 183.546C109.743 178.473 110.219 174.299 110.584 171.293C111.705 171.528 112.827 171.795 114.007 172.095Z" fill="url(#paint9_linear_16_283)"/>
</g>
<g id="Group_13" opacity="0.3">
<path id="Vector_81" d="M101.643 239.005C100.424 239.005 99.2435 238.933 98.1089 238.855C98.1089 238.66 98.0632 238.457 98.0437 238.249C97.9263 237.114 97.8285 235.947 97.7502 234.74C97.4763 230.671 97.3916 226.263 97.3068 221.522V220.948C97.3068 219.977 97.2742 218.992 97.2546 217.975C97.1764 213.73 97.059 209.204 96.7916 204.424C96.7264 203.263 96.6547 202.076 96.5699 200.883C96.4525 199.194 96.3156 197.486 96.1525 195.744C95.8591 192.653 95.7091 189.876 95.6765 187.306C95.6765 186.067 95.6765 184.9 95.7156 183.798C95.7808 179.344 96.433 174.923 97.672 170.645C98.924 170.501 100.176 170.423 101.435 170.41C100.502 172.966 99.4326 177.29 99.224 183.987C99.1914 185.089 99.1783 186.25 99.224 187.482C99.2501 189.869 99.4 192.51 99.6674 195.412C99.8565 197.381 100.013 199.318 100.143 201.216C100.222 202.402 100.293 203.57 100.352 204.724C100.606 209.556 100.717 214.121 100.796 218.418C100.796 219.266 100.796 220.094 100.841 220.916V221.926C100.926 226.491 101.011 230.802 101.285 234.714C101.363 235.914 101.461 237.075 101.591 238.197C101.572 238.457 101.611 238.731 101.643 239.005Z" fill="url(#paint10_linear_16_283)"/>
</g>
<g id="Group_14" opacity="0.3">
<path id="Vector_82" d="M89.9773 186.528C89.8403 188.797 89.8273 191.066 89.9316 193.336C90.0425 195.507 90.0881 197.568 90.0881 199.557C90.0881 200.789 90.0881 201.983 90.0425 203.169C89.9381 207.212 89.6773 211.047 89.3904 214.999C89.3904 215.351 89.3447 215.709 89.3186 216.068C89.2339 217.255 89.1556 218.455 89.0839 219.674C88.8752 222.935 88.7122 226.332 88.673 229.991V232.834C88.6991 234.171 88.7513 235.442 88.823 236.635C88.823 236.994 88.8622 237.353 88.8948 237.698C87.6232 237.451 86.4363 237.17 85.3343 236.864C85.3017 236.342 85.2756 235.807 85.2495 235.253C85.1908 233.988 85.1647 232.645 85.1582 231.269V229.964C85.1973 225.876 85.393 222.139 85.6212 218.546C85.706 217.307 85.7842 216.094 85.869 214.888V214.757C86.1624 210.538 86.4429 206.469 86.5211 202.133V198.422C86.5211 196.844 86.4624 195.214 86.3776 193.518C86.2537 190.923 86.2798 188.328 86.4494 185.739C86.5146 184.545 86.6124 183.358 86.7167 182.178C87.0037 179.133 87.4145 176.172 87.8514 173.518C88.8948 172.957 89.9903 172.488 91.1119 172.11H91.1445C91.3141 172.044 91.4901 171.986 91.6727 171.934C91.0924 175.194 90.5055 179.048 90.1468 183.019C90.1207 184.174 90.0359 185.354 89.9773 186.528Z" fill="url(#paint11_linear_16_283)"/>
</g>
<g id="Group_15" opacity="0.3">
<path id="Vector_83" d="M85.6211 173.563C86.1167 173.687 86.5145 173.824 86.7558 173.909C84.4017 175.415 82.6801 177.737 81.9302 180.43C81.5976 181.584 81.4085 182.778 81.3759 183.984C81.3433 184.819 81.3629 185.653 81.4346 186.488C81.728 189.892 81.9172 193.179 81.9954 196.348C82.0411 197.652 82.0606 198.956 82.0606 200.26C82.0802 204.499 81.878 208.731 81.4542 212.95C81.3368 214.189 81.1933 215.415 81.0238 216.622C80.9325 217.32 80.8347 218.017 80.7238 218.709C80.313 221.317 79.9087 224.473 79.5761 227.688C79.4392 229.051 79.3087 230.42 79.1979 231.777C79.1261 232.703 79.0609 233.616 79.0022 234.516C77.835 233.981 76.7068 233.368 75.6309 232.67C75.7156 231.542 75.82 230.414 75.9243 229.325C76.0678 227.812 76.2243 226.364 76.3808 225.04C76.8373 221.095 77.2676 218.246 77.2807 218.167C77.4372 217.143 77.5807 216.107 77.7111 215.057C77.8676 213.818 77.998 212.566 78.1023 211.294C78.4871 207.023 78.6371 202.738 78.5523 198.454C78.5523 197.085 78.4936 195.702 78.4349 194.287C78.3371 191.855 78.1741 189.351 77.9524 186.775C77.8154 185.334 77.8154 183.886 77.9524 182.445C78.0697 181.239 78.3175 180.045 78.6892 178.891C79.387 176.706 80.5934 174.717 82.2171 173.094C83.3648 173.107 84.5125 173.263 85.6211 173.563Z" fill="url(#paint12_linear_16_283)"/>
</g>
<g id="Group_16" opacity="0.3">
<path id="Vector_84" d="M139.374 177.713C137.881 178.56 136.061 179.519 133.929 180.484C132.847 180.98 131.679 181.475 130.434 181.971C128.621 182.688 126.639 183.386 124.506 184.038C123.352 184.39 122.159 184.723 120.913 185.036C118.142 185.734 115.331 186.288 112.501 186.692C111.353 186.855 110.166 186.992 108.966 187.11C106.41 187.364 103.75 187.501 100.959 187.501H99.1718C97.972 187.501 96.7982 187.416 95.6635 187.325C93.7528 187.168 91.8552 186.907 89.9771 186.549C88.7773 186.314 87.623 186.047 86.5145 185.753C84.7603 185.284 83.0322 184.71 81.3498 184.032C80.1564 183.556 79.0283 183.047 77.9523 182.506C76.2634 181.651 74.6266 180.693 73.0615 179.623C73.5115 178.541 74.1049 177.53 74.8287 176.611C76.0677 177.465 77.3589 178.247 78.6892 178.952C79.6934 179.486 80.7694 180.002 81.9041 180.478C83.4952 181.149 85.119 181.723 86.7818 182.193C87.8774 182.512 89.0251 182.786 90.2249 183.027C92.0313 183.399 93.8637 183.66 95.7026 183.816C96.8308 183.921 97.9915 183.979 99.1914 184.006H100.919C103.71 184.006 106.501 183.856 109.273 183.556C110.486 183.425 111.666 183.269 112.82 183.086C115.664 182.649 118.481 182.049 121.259 181.293C122.517 180.954 123.724 180.589 124.884 180.21C126.906 179.558 128.797 178.841 130.473 178.13C131.777 177.602 132.912 177.067 133.988 176.545C135.716 175.711 137.19 174.915 138.389 174.211C138.689 175.202 139.022 176.376 139.374 177.713Z" fill="url(#paint13_linear_16_283)"/>
</g>
<g id="Group_17" opacity="0.3">
<path id="Vector_85" d="M142.074 190.76C139.518 192.665 136.844 194.406 134.072 195.977C132.983 196.629 131.842 197.216 130.636 197.816C128.308 198.997 125.908 200.046 123.463 200.953C122.315 201.383 121.141 201.788 119.928 202.153C117.15 203.007 114.32 203.659 111.451 204.109C110.303 204.285 109.129 204.435 107.943 204.539C106.332 204.689 104.689 204.761 103.013 204.768C102.126 204.768 101.226 204.768 100.326 204.696C99.1588 204.637 97.9915 204.539 96.8047 204.396C96.5764 204.396 96.3482 204.344 96.1199 204.318C94.0789 204.05 92.0573 203.659 90.0684 203.144C88.8685 202.831 87.7143 202.485 86.5992 202.101C85.0472 201.572 83.5213 200.959 82.0345 200.275C80.8085 199.707 79.6412 199.101 78.5261 198.468C75.9895 197.021 73.5897 195.351 71.353 193.473C71.2878 191.81 71.2747 190.213 71.353 188.7C73.5245 190.8 75.8982 192.671 78.4414 194.301C79.5695 195.025 80.7563 195.71 82.0019 196.349C83.5017 197.118 85.0407 197.803 86.6188 198.39C87.7404 198.814 88.9142 199.192 90.1206 199.531C92.2399 200.125 94.3984 200.562 96.5764 200.835C97.7633 200.992 98.937 201.103 100.111 201.168C102.771 201.311 105.439 201.246 108.086 200.966C109.279 200.842 110.46 200.679 111.607 200.477C114.483 199.981 117.32 199.264 120.085 198.338C121.298 197.934 122.485 197.497 123.632 197.034C125.999 196.088 128.308 195.012 130.558 193.812C131.777 193.16 132.931 192.508 134.014 191.856C136.583 190.31 139.061 188.608 141.435 186.77C141.643 188.074 141.865 189.391 142.074 190.76Z" fill="url(#paint14_linear_16_283)"/>
</g>
<g id="Group_18" opacity="0.3">
<path id="Vector_86" d="M143.509 208.894V209.684C141.005 211.046 138.064 212.54 134.816 214.007C133.714 214.509 132.573 215.005 131.406 215.487C128.843 216.557 126.123 217.581 123.319 218.487C122.185 218.852 121.024 219.198 119.857 219.517C116.987 220.326 114.073 220.952 111.125 221.395C109.964 221.565 108.804 221.695 107.636 221.793C106.254 221.91 104.865 221.976 103.489 221.976C102.589 221.976 101.696 221.976 100.802 221.897C99.7393 221.832 98.6829 221.721 97.6265 221.571L97.3069 221.519C94.529 221.108 91.7836 220.502 89.0969 219.7C87.9296 219.348 86.7885 218.97 85.6603 218.565C84.0627 217.985 82.5107 217.359 80.9978 216.687C79.8631 216.185 78.761 215.663 77.6851 215.122C76.3091 214.437 74.9854 213.733 73.7203 212.996C73.4529 211.516 73.1921 209.977 72.9377 208.431C74.555 209.436 76.27 210.42 78.0763 211.379C79.1588 211.946 80.2804 212.501 81.4282 213.035C82.8758 213.707 84.3692 214.34 85.9081 214.926C87.0232 215.35 88.1644 215.755 89.3317 216.113C91.9205 216.941 94.5616 217.581 97.2417 218.017C97.5352 218.07 97.8286 218.115 98.1286 218.154C98.9894 218.278 99.8632 218.37 100.737 218.435C103.032 218.578 105.334 218.539 107.623 218.324C108.791 218.213 109.951 218.07 111.119 217.88C114.046 217.417 116.935 216.759 119.778 215.924C120.952 215.585 122.113 215.22 123.261 214.829C126.019 213.903 128.68 212.872 131.197 211.783C132.371 211.288 133.512 210.773 134.614 210.264C137.992 208.692 141.005 207.108 143.456 205.738C143.496 206.743 143.509 207.812 143.509 208.894Z" fill="url(#paint15_linear_16_283)"/>
</g>
<g id="Group_19" opacity="0.3">
<path id="Vector_87" d="M142.765 221.258C142.687 221.91 142.596 222.562 142.498 223.214C142.4 223.866 142.27 224.688 142.146 225.431C140.385 226.266 138.233 227.257 135.775 228.32C134.699 228.79 133.557 229.266 132.377 229.748C129.769 230.811 126.939 231.9 123.972 232.931C122.843 233.322 121.702 233.707 120.548 234.072C117.6 235.011 114.575 235.858 111.555 236.543C110.401 236.817 109.247 237.052 108.099 237.26C105.973 237.658 103.828 237.952 101.676 238.134H101.552C100.691 238.206 99.8306 238.232 98.9959 238.232H98.0438C94.9267 238.147 91.8423 237.619 88.8817 236.654C87.6623 236.263 86.4754 235.8 85.3082 235.272C83.1758 234.306 81.1282 233.159 79.1979 231.835C78.0176 231.039 76.9221 230.205 75.9374 229.383C74.7049 228.372 73.5246 227.296 72.3965 226.168L73.8181 222.562C74.5419 223.332 75.4027 224.192 76.3939 225.099C77.3851 226.005 78.4154 226.853 79.5892 227.746C81.3629 229.09 83.2475 230.27 85.2299 231.287C86.3646 231.881 87.5384 232.402 88.7448 232.852C91.6401 233.961 94.692 234.606 97.7895 234.756C98.9502 234.809 100.111 234.789 101.272 234.698H101.422C103.613 234.509 105.791 234.202 107.943 233.778C109.09 233.557 110.245 233.309 111.405 233.035C114.392 232.331 117.398 231.457 120.32 230.505C121.48 230.126 122.628 229.735 123.75 229.337C126.71 228.281 129.54 227.172 132.116 226.077C133.31 225.588 134.438 225.099 135.507 224.629C138.527 223.305 141.05 222.112 142.765 221.258Z" fill="url(#paint16_linear_16_283)"/>
</g>
<path id="Vector_88" opacity="0.2" d="M120.991 174.432C116.185 177.171 104.63 183.105 96.0353 182.446C89.136 181.918 86.2537 177.34 85.6016 173.564C86.0972 173.688 86.5862 173.845 87.0558 174.034C87.0558 174.034 99.048 165.557 120.874 174.464L120.991 174.432Z" fill="#23272E"/>
<path id="Vector_89" opacity="0.2" d="M105.484 239.002H103.482C77.685 238.937 71.2878 228.855 71.2878 228.855L74.9853 219.445C73.4072 212.115 72.2725 204.701 71.5813 197.234C73.5963 201.401 86.1363 225.562 104.702 225.458C117.861 225.405 111.562 233.394 105.484 239.002Z" fill="#23272E"/>
<path id="Vector_90" opacity="0.2" d="M143.508 208.896C143.521 213.695 143.182 218.488 142.498 223.242C135.683 215.032 137.829 200.145 137.829 200.145C138.728 205.942 141.741 208.107 143.508 208.896Z" fill="#23272E"/>
</g>
</g>
</g>
</g>
<path id="Vector_91" d="M87.0491 174.054C87.0491 174.054 99.0414 165.576 120.867 174.484L137.242 170.663C137.242 170.663 147.832 199.427 141.48 228.909C141.48 228.909 127.271 239.101 103.482 239.049C77.6784 238.984 71.2877 228.909 71.2877 228.909L74.9787 219.499C72.755 208.752 69.8792 191.523 72.0703 182.603C75.4025 169.039 87.0491 174.054 87.0491 174.054Z" stroke="#263238" stroke-width="0.652105" stroke-linecap="round" stroke-linejoin="round"/>
<path id="Vector_92" d="M95.1809 178.674C102.719 178.968 111.875 178.916 118.448 174.723" stroke="#263238" stroke-width="0.652105" stroke-linecap="round" stroke-linejoin="round"/>
<path id="Vector_93" d="M90.9617 178.395C91.6138 178.466 92.3115 178.518 92.9897 178.564" stroke="#263238" stroke-width="0.652105" stroke-linecap="round" stroke-linejoin="round"/>
<path id="Vector_94" d="M96.7783 225.289C96.8174 226.502 96.9935 227.708 97.2935 228.889" stroke="#263238" stroke-width="0.652105" stroke-linecap="round" stroke-linejoin="round"/>
<path id="Vector_95" d="M94.7961 180.391C93.4919 183.332 93.0745 186.592 93.5962 189.768C96.5046 200.854 98.2522 211.287 96.7524 222.53" stroke="#263238" stroke-width="0.652105" stroke-linecap="round" stroke-linejoin="round"/>
<path id="Vector_96" d="M98.9043 217.742C102.693 218.681 106.645 218.714 110.453 217.853" stroke="#263238" stroke-width="0.652105" stroke-linecap="round" stroke-linejoin="round"/>
<path id="Vector_97" d="M75.2395 194.312C79.3347 203.977 86.7296 212.219 96.1917 216.862" stroke="#263238" stroke-width="0.652105" stroke-linecap="round" stroke-linejoin="round"/>
<path id="Vector_98" d="M73.3091 188.836C73.5308 189.618 73.7721 190.401 74.0394 191.177" stroke="#263238" stroke-width="0.652105" stroke-linecap="round" stroke-linejoin="round"/>
<path id="Vector_99" d="M137.242 170.641C136.029 179.96 136.159 189.403 137.639 198.682C140.078 214.333 143.9 214.183 143.9 214.183C143.9 214.183 165.713 187.225 171.542 176.328C171.542 176.328 170.16 160.677 164.024 157.352L137.242 170.641Z" fill="#757575"/>
<g id="Clip path group_3">
<mask id="mask2_16_283" style="mask-type:luminance" maskUnits="userSpaceOnUse" x="136" y="157" width="36" height="58">
<g id="clippath-2">
<path id="Vector_100" d="M137.242 170.641C136.029 179.96 136.159 189.403 137.639 198.682C140.078 214.333 143.9 214.183 143.9 214.183C143.9 214.183 165.713 187.225 171.542 176.328C171.542 176.328 170.16 160.677 164.024 157.352L137.242 170.641Z" fill="white"/>
</g>
</mask>
<g mask="url(#mask2_16_283)">
<g id="Group_20">
<g id="Group_21">
<g id="Group_22" opacity="0.3">
<path id="Vector_101" d="M167.63 182.645C166.75 183.949 165.804 185.338 164.8 186.76C164.285 183.662 163.685 180.799 163.033 178.152C162.72 176.848 162.387 175.609 162.041 174.428C161.305 171.82 160.515 169.485 159.72 167.366C159.283 166.173 158.833 165.051 158.364 164.001C157.874 162.867 157.398 161.817 156.922 160.852L160.092 159.273C160.496 160.089 160.9 160.949 161.311 161.882C161.774 162.932 162.237 164.047 162.7 165.247C163.483 167.255 164.246 169.479 164.995 171.918C165.348 173.098 165.7 174.331 166.026 175.622C166.606 177.806 167.141 180.147 167.63 182.645Z" fill="url(#paint17_linear_16_283)"/>
</g>
<g id="Group_23" opacity="0.3">
<path id="Vector_102" d="M159.635 193.877C158.605 195.253 157.581 196.622 156.557 197.959C156.133 193.583 155.481 189.227 154.601 184.917C154.346 183.613 154.073 182.354 153.779 181.141C153.075 178.083 152.292 175.272 151.503 172.703C151.125 171.503 150.747 170.355 150.369 169.266C149.827 167.682 149.286 166.227 148.771 164.904L151.94 163.332C152.423 164.551 152.931 165.882 153.44 167.329C153.825 168.412 154.216 169.56 154.601 170.766C155.364 173.185 156.127 175.839 156.831 178.715C157.131 179.935 157.424 181.193 157.705 182.491C158.468 186.006 159.126 189.801 159.635 193.877Z" fill="url(#paint18_linear_16_283)"/>
</g>
<g id="Group_24" opacity="0.3">
<path id="Vector_103" d="M151.373 204.699C150.303 206.081 149.299 207.353 148.393 208.501C147.597 202.69 146.593 196.952 145.524 191.546C145.276 190.281 145.021 189.035 144.767 187.816C144.017 184.223 143.248 180.832 142.511 177.734C142.224 176.515 141.937 175.347 141.663 174.232C141.2 172.354 140.757 170.626 140.359 169.068L143.554 167.477C143.952 168.989 144.389 170.665 144.858 172.498C145.145 173.619 145.432 174.793 145.732 176.019C146.43 178.954 147.167 182.169 147.897 185.586C148.158 186.805 148.419 188.057 148.68 189.329C149.632 194.265 150.577 199.417 151.373 204.699Z" fill="url(#paint19_linear_16_283)"/>
</g>
<g id="Group_25" opacity="0.3">
<path id="Vector_104" d="M167.656 161.453C166.156 162.646 164.506 163.924 162.7 165.241C161.748 165.939 160.757 166.65 159.72 167.367C158.142 168.482 156.44 169.623 154.614 170.791C153.616 171.443 152.579 172.095 151.516 172.747C149.671 173.869 147.728 174.984 145.7 176.099C144.656 176.673 143.6 177.24 142.511 177.807C140.555 178.818 138.553 179.822 136.466 180.801C136.466 179.353 136.551 178.036 136.629 176.855C138.37 176.021 140.046 175.173 141.663 174.312C142.739 173.732 143.795 173.158 144.826 172.577C146.782 171.495 148.615 170.399 150.382 169.317C151.438 168.671 152.462 168.019 153.453 167.361C155.188 166.239 156.825 165.124 158.364 164.035C159.387 163.311 160.372 162.607 161.311 161.909C162.87 160.755 164.304 159.64 165.621 158.59C166.052 159.033 166.437 159.509 166.782 160.024C167.102 160.481 167.395 160.957 167.656 161.453Z" fill="url(#paint20_linear_16_283)"/>
</g>
<g id="Group_26" opacity="0.3">
<path id="Vector_105" d="M170.832 171.443C169.319 172.786 167.715 174.188 166.026 175.629C165.054 176.464 164.057 177.312 163.033 178.166C161.318 179.594 159.544 181.048 157.718 182.502C156.701 183.311 155.664 184.126 154.614 184.928C152.658 186.428 150.669 187.921 148.647 189.375C147.61 190.125 146.574 190.862 145.524 191.586C142.831 193.445 140.098 195.225 137.379 196.862C137.196 195.557 137.053 194.292 136.929 193.053C139.537 191.43 142.146 189.675 144.754 187.837C145.791 187.106 146.828 186.369 147.852 185.613C149.867 184.146 151.849 182.639 153.779 181.126C154.81 180.318 155.833 179.509 156.831 178.701C158.625 177.266 160.359 175.825 162.048 174.416C163.052 173.562 164.044 172.727 165.002 171.899C166.75 170.38 168.406 168.912 169.952 167.523C170.31 168.893 170.604 170.23 170.832 171.443Z" fill="url(#paint21_linear_16_283)"/>
</g>
<path id="Vector_106" opacity="0.2" d="M171.543 176.301C165.706 187.198 143.893 214.156 143.893 214.156C143.893 214.156 140.633 214.293 138.227 202.014C140.007 208.633 144.832 209.311 144.832 209.311L167.056 179.92C164.689 174.886 166.724 160.396 166.782 160.012C170.597 165.574 171.543 176.301 171.543 176.301Z" fill="#23272E"/>
</g>
</g>
</g>
</g>
<path id="Vector_107" d="M137.242 170.641C136.029 179.96 136.159 189.403 137.639 198.682C140.078 214.333 143.9 214.183 143.9 214.183C143.9 214.183 165.713 187.225 171.542 176.328C171.542 176.328 170.16 160.677 164.024 157.352L137.242 170.641Z" stroke="#263238" stroke-width="0.652105" stroke-linecap="round" stroke-linejoin="round"/>
<path id="Vector_108" d="M120.867 174.462C120.867 174.462 111.835 167.836 99.8628 166.441C87.8901 165.045 88.2292 172.094 88.2292 172.094C87.2119 172.518 86.7098 173.666 87.0815 174.703C87.5771 176.705 103.788 178.616 120.867 174.462Z" fill="#757575"/>
<g id="Clip path group_4">
<mask id="mask3_16_283" style="mask-type:luminance" maskUnits="userSpaceOnUse" x="86" y="166" width="35" height="11">
<g id="clippath-3">
<path id="Vector_109" d="M120.867 174.462C120.867 174.462 111.835 167.836 99.8628 166.441C87.8901 165.045 88.2292 172.094 88.2292 172.094C87.2119 172.518 86.7098 173.666 87.0815 174.703C87.5771 176.705 103.788 178.616 120.867 174.462Z" fill="white"/>
</g>
</mask>
<g mask="url(#mask3_16_283)">
<g id="Group_27">
<g id="Group_28">
<g id="Group_29" opacity="0.3">
<path id="Vector_110" d="M99.1456 166.364C98.8196 167.153 98.5391 167.955 98.3044 168.777C98.0109 169.755 97.7175 170.916 97.4501 172.272C97.1828 173.628 96.961 175.128 96.798 176.837C95.4938 176.778 94.3591 176.68 93.3027 176.569C93.4658 174.946 93.681 173.491 93.9092 172.187C94.1374 170.883 94.4113 169.696 94.6917 168.666C94.9265 167.773 95.1743 166.99 95.4156 166.292C96.6611 166.214 97.9066 166.234 99.1456 166.364Z" fill="url(#paint22_linear_16_283)"/>
</g>
<g id="Group_30" opacity="0.3">
<path id="Vector_111" d="M108.725 168.463V169.897C108.679 170.928 108.608 172.101 108.471 173.419C108.373 174.397 108.242 175.453 108.079 176.581C106.847 176.692 105.653 176.77 104.499 176.829C104.728 175.401 104.891 174.09 105.008 172.916C105.138 171.58 105.21 170.406 105.243 169.402V167.445C106.443 167.732 107.616 168.084 108.725 168.463Z" fill="url(#paint23_linear_16_283)"/>
</g>
<g id="Group_31" opacity="0.3">
<path id="Vector_112" d="M120.867 174.463C119.563 174.77 118.337 175.05 117.078 175.298C114.046 174.483 111.151 173.87 108.445 173.42C107.251 173.217 106.103 173.048 104.982 172.904C102.223 172.546 99.6998 172.363 97.45 172.252C96.1458 172.2 94.9785 172.187 93.8895 172.194C91.7637 172.194 89.6443 172.311 87.5315 172.533C87.7206 172.344 87.9423 172.194 88.1836 172.083C88.2032 170.883 88.6466 169.729 89.4291 168.822C90.8442 168.718 92.6049 168.646 94.646 168.653C95.7676 168.653 96.9805 168.653 98.2782 168.738C100.371 168.842 102.686 169.031 105.191 169.351C106.312 169.487 107.473 169.657 108.673 169.859C110.805 170.211 113.061 170.655 115.402 171.222C117.307 172.161 119.133 173.244 120.867 174.463Z" fill="url(#paint24_linear_16_283)"/>
</g>
</g>
</g>
</g>
</g>
<path id="Vector_113" d="M120.867 174.462C120.867 174.462 111.835 167.836 99.8628 166.441C87.8901 165.045 88.2292 172.094 88.2292 172.094C87.2119 172.518 86.7098 173.666 87.0815 174.703C87.5771 176.705 103.788 178.616 120.867 174.462Z" stroke="#263238" stroke-width="0.652105" stroke-linecap="round" stroke-linejoin="round"/>
<path id="Vector_114" d="M101.271 171.34C102.432 171.509 103.573 171.764 104.695 172.103" stroke="#263238" stroke-width="0.652105" stroke-linecap="round" stroke-linejoin="round"/>
<path id="Vector_115" d="M88.2292 172.095C91.7245 171.221 95.3307 170.882 98.9303 171.091" stroke="#263238" stroke-width="0.652105" stroke-linecap="round" stroke-linejoin="round"/>
<path id="Vector_116" d="M67.4924 171.285C67.4924 172.433 67.5903 173.581 67.7142 174.722" stroke="#263238" stroke-width="0.652105" stroke-linecap="round" stroke-linejoin="round"/>
<path id="Vector_117" d="M72.7354 157.324C69.1097 159.698 67.825 164.843 67.5186 168.86" stroke="#263238" stroke-width="0.652105" stroke-linecap="round" stroke-linejoin="round"/>
<path id="Vector_118" d="M158.774 187.648C157.855 188.64 156.746 189.442 155.514 190.003" stroke="#263238" stroke-width="0.652105" stroke-linecap="round" stroke-linejoin="round"/>
<path id="Vector_119" d="M169.09 164.812C166.906 171.725 164.578 179.296 160.411 185.68" stroke="#263238" stroke-width="0.652105" stroke-linecap="round" stroke-linejoin="round"/>
<path id="Vector_120" d="M143.899 214.157C143.899 214.157 140.535 215.794 136.074 206.566" stroke="#263238" stroke-width="0.652105" stroke-linecap="round" stroke-linejoin="round"/>
<path id="Vector_121" d="M138.311 223C135.051 228.667 130.434 233.936 124.226 236.336" stroke="#263238" stroke-width="0.652105" stroke-linecap="round" stroke-linejoin="round"/>
<path id="Vector_122" d="M140.822 217.742C140.483 218.662 140.085 219.555 139.661 220.435" stroke="#263238" stroke-width="0.652105" stroke-linecap="round" stroke-linejoin="round"/>
</g>
</g>
</g>
</g>
</g>
</g>
<defs>
<linearGradient id="paint0_linear_16_283" x1="35.8728" y1="199.134" x2="266.086" y2="118.598" gradientUnits="userSpaceOnUse">
<stop stop-color="#05A0C7"/>
<stop offset="1" stop-color="#09D1C7"/>
</linearGradient>
<linearGradient id="paint1_linear_16_283" x1="70.5611" y1="122.446" x2="169.742" y2="60.6597" gradientUnits="userSpaceOnUse">
<stop stop-color="#05A0C7"/>
<stop offset="1" stop-color="#09D1C7"/>
</linearGradient>
<linearGradient id="paint2_linear_16_283" x1="64.7534" y1="197.552" x2="86.5011" y2="194.289" gradientUnits="userSpaceOnUse">
<stop stop-color="#05A0C7"/>
<stop offset="1" stop-color="#09D1C7"/>
</linearGradient>
<linearGradient id="paint3_linear_16_283" x1="60.4417" y1="182.517" x2="80.8367" y2="178.442" gradientUnits="userSpaceOnUse">
<stop stop-color="#05A0C7"/>
<stop offset="1" stop-color="#09D1C7"/>
</linearGradient>
<linearGradient id="paint4_linear_16_283" x1="60.6042" y1="164.841" x2="74.3259" y2="160.612" gradientUnits="userSpaceOnUse">
<stop stop-color="#05A0C7"/>
<stop offset="1" stop-color="#09D1C7"/>
</linearGradient>
<linearGradient id="paint5_linear_16_283" x1="63.6632" y1="179.821" x2="84.2691" y2="176.107" gradientUnits="userSpaceOnUse">
<stop stop-color="#05A0C7"/>
<stop offset="1" stop-color="#09D1C7"/>
</linearGradient>
<linearGradient id="paint6_linear_16_283" x1="60.3562" y1="200.026" x2="81.1615" y2="197.152" gradientUnits="userSpaceOnUse">
<stop stop-color="#05A0C7"/>
<stop offset="1" stop-color="#09D1C7"/>
</linearGradient>
<linearGradient id="paint7_linear_16_283" x1="130.433" y1="233.253" x2="137.529" y2="233.085" gradientUnits="userSpaceOnUse">
<stop stop-color="#05A0C7"/>
<stop offset="1" stop-color="#09D1C7"/>
</linearGradient>
<linearGradient id="paint8_linear_16_283" x1="119.771" y1="236.984" x2="127.246" y2="236.803" gradientUnits="userSpaceOnUse">
<stop stop-color="#05A0C7"/>
<stop offset="1" stop-color="#09D1C7"/>
</linearGradient>
<linearGradient id="paint9_linear_16_283" x1="107.646" y1="238.631" x2="115.675" y2="238.433" gradientUnits="userSpaceOnUse">
<stop stop-color="#05A0C7"/>
<stop offset="1" stop-color="#09D1C7"/>
</linearGradient>
<linearGradient id="paint10_linear_16_283" x1="95.6853" y1="238.769" x2="103.206" y2="238.598" gradientUnits="userSpaceOnUse">
<stop stop-color="#05A0C7"/>
<stop offset="1" stop-color="#09D1C7"/>
</linearGradient>
<linearGradient id="paint11_linear_16_283" x1="85.1678" y1="237.472" x2="93.378" y2="237.259" gradientUnits="userSpaceOnUse">
<stop stop-color="#05A0C7"/>
<stop offset="1" stop-color="#09D1C7"/>
</linearGradient>
<linearGradient id="paint12_linear_16_283" x1="75.6472" y1="234.304" x2="89.6459" y2="233.642" gradientUnits="userSpaceOnUse">
<stop stop-color="#05A0C7"/>
<stop offset="1" stop-color="#09D1C7"/>
</linearGradient>
<linearGradient id="paint13_linear_16_283" x1="73.1589" y1="187.455" x2="104.158" y2="147.063" gradientUnits="userSpaceOnUse">
<stop stop-color="#05A0C7"/>
<stop offset="1" stop-color="#09D1C7"/>
</linearGradient>
<linearGradient id="paint14_linear_16_283" x1="71.403" y1="204.706" x2="114.848" y2="160.093" gradientUnits="userSpaceOnUse">
<stop stop-color="#05A0C7"/>
<stop offset="1" stop-color="#09D1C7"/>
</linearGradient>
<linearGradient id="paint15_linear_16_283" x1="73.0413" y1="221.92" x2="111.938" y2="177.774" gradientUnits="userSpaceOnUse">
<stop stop-color="#05A0C7"/>
<stop offset="1" stop-color="#09D1C7"/>
</linearGradient>
<linearGradient id="paint16_linear_16_283" x1="72.4998" y1="238.174" x2="113.359" y2="193.941" gradientUnits="userSpaceOnUse">
<stop stop-color="#05A0C7"/>
<stop offset="1" stop-color="#09D1C7"/>
</linearGradient>
<linearGradient id="paint17_linear_16_283" x1="156.938" y1="186.665" x2="170.303" y2="185.305" gradientUnits="userSpaceOnUse">
<stop stop-color="#05A0C7"/>
<stop offset="1" stop-color="#09D1C7"/>
</linearGradient>
<linearGradient id="paint18_linear_16_283" x1="148.787" y1="197.839" x2="162.397" y2="196.724" gradientUnits="userSpaceOnUse">
<stop stop-color="#05A0C7"/>
<stop offset="1" stop-color="#09D1C7"/>
</linearGradient>
<linearGradient id="paint19_linear_16_283" x1="140.375" y1="208.359" x2="154.197" y2="207.39" gradientUnits="userSpaceOnUse">
<stop stop-color="#05A0C7"/>
<stop offset="1" stop-color="#09D1C7"/>
</linearGradient>
<linearGradient id="paint20_linear_16_283" x1="136.512" y1="180.724" x2="171.184" y2="168.009" gradientUnits="userSpaceOnUse">
<stop stop-color="#05A0C7"/>
<stop offset="1" stop-color="#09D1C7"/>
</linearGradient>
<linearGradient id="paint21_linear_16_283" x1="136.979" y1="196.76" x2="176.166" y2="184.935" gradientUnits="userSpaceOnUse">
<stop stop-color="#05A0C7"/>
<stop offset="1" stop-color="#09D1C7"/>
</linearGradient>
<linearGradient id="paint22_linear_16_283" x1="93.3113" y1="176.8" x2="100.53" y2="175.76" gradientUnits="userSpaceOnUse">
<stop stop-color="#05A0C7"/>
<stop offset="1" stop-color="#09D1C7"/>
</linearGradient>
<linearGradient id="paint23_linear_16_283" x1="104.505" y1="176.797" x2="109.762" y2="176.179" gradientUnits="userSpaceOnUse">
<stop stop-color="#05A0C7"/>
<stop offset="1" stop-color="#09D1C7"/>
</linearGradient>
<linearGradient id="paint24_linear_16_283" x1="87.5804" y1="175.275" x2="103.06" y2="154.998" gradientUnits="userSpaceOnUse">
<stop stop-color="#05A0C7"/>
<stop offset="1" stop-color="#09D1C7"/>
</linearGradient>
</defs>
</svg>
