<svg width="243" height="143" viewBox="0 0 243 143" fill="none" xmlns="http://www.w3.org/2000/svg">

<g id="V7">

<g id="Onboarding">


<g id="Launch Screen">

<g id="Logo treepi">
<g id="ee">
<path id="e" d="M123.906 69.4023C113.362 74.9792 101.782 78.8966 96.9969 74.2991C86.3337 64.0541 107.373 37.4783 115.809 46.3123C121.631 52.4089 107.068 62.3098 94.3065 69.4023" stroke="url(#paint0_linear_16_283)" stroke-width="7.31788" stroke-miterlimit="10" stroke-linecap="round"/>
<path id="e_2" d="M153.245 70.2875C142.701 75.8644 131.381 78.8973 126.596 74.2999C115.933 64.0548 136.972 37.479 145.408 46.313C151.23 52.4094 136.667 62.3104 123.906 69.403" stroke="url(#paint1_linear_16_283)" stroke-width="7.31788" stroke-miterlimit="10" stroke-linecap="round"/>
</g>
<g id="Voyage.">
<path id="V" d="M48.7187 107.289L45.8765 100.787H47.1862L49.7219 106.667H48.9604L51.5425 100.787H52.7408L49.9077 107.289H48.7187Z" fill="white"/>
<path id="o" d="M55.1744 106.371C55.459 106.371 55.7131 106.308 55.9359 106.181C56.159 106.054 56.3338 105.871 56.4607 105.632C56.5877 105.394 56.6512 105.12 56.6512 104.81C56.6512 104.495 56.5877 104.221 56.4607 103.988C56.3338 103.756 56.159 103.577 55.9359 103.45C55.7131 103.323 55.4623 103.259 55.1835 103.259C54.905 103.259 54.6542 103.323 54.4313 103.45C54.2085 103.577 54.0318 103.756 53.9018 103.988C53.7719 104.221 53.7069 104.495 53.7069 104.81C53.7069 105.12 53.7719 105.394 53.9018 105.632C54.0318 105.871 54.2085 106.054 54.4313 106.181C54.6542 106.308 54.9019 106.371 55.1744 106.371ZM55.1744 107.355C54.6728 107.355 54.2222 107.246 53.8229 107.026C53.4236 106.806 53.109 106.504 52.8802 106.12C52.6509 105.736 52.5364 105.3 52.5364 104.81C52.5364 104.309 52.6509 103.869 52.8802 103.491C53.109 103.114 53.4219 102.815 53.8183 102.595C54.2143 102.375 54.6664 102.265 55.1744 102.265C55.6882 102.265 56.1449 102.375 56.5444 102.595C56.9439 102.815 57.2564 103.114 57.4825 103.491C57.7085 103.869 57.8216 104.309 57.8216 104.81C57.8216 105.306 57.7085 105.744 57.4825 106.125C57.2564 106.506 56.9422 106.806 56.5396 107.026C56.137 107.246 55.682 107.355 55.1744 107.355Z" fill="white"/>
<path id="y" d="M60.2271 107.466L57.9886 102.329H59.1869L61.0166 106.611L60.2271 107.466ZM59.2148 109.156C58.9669 109.156 58.7225 109.116 58.4809 109.036C58.2394 108.955 58.0412 108.844 57.8865 108.701L58.3415 107.856C58.4591 107.955 58.5908 108.036 58.7364 108.098C58.8818 108.159 59.0351 108.19 59.1962 108.19C59.4064 108.19 59.577 108.138 59.7069 108.033C59.837 107.927 59.9577 107.748 60.0693 107.494L60.3479 106.862L60.4595 106.713L62.3263 102.329H63.4409L61.1189 107.698C60.964 108.063 60.7923 108.353 60.6034 108.567C60.4144 108.78 60.2039 108.932 59.9718 109.022C59.7394 109.111 59.4872 109.156 59.2148 109.156Z" fill="white"/>
<path id="a" d="M67.0077 107.29V106.278L66.952 106.074V104.318C66.952 103.978 66.8483 103.713 66.641 103.524C66.4333 103.335 66.1193 103.241 65.698 103.241C65.4255 103.241 65.1561 103.284 64.8901 103.371C64.6238 103.457 64.3946 103.578 64.2026 103.733L63.7474 102.888C64.0199 102.683 64.3387 102.529 64.7042 102.423C65.0695 102.318 65.4504 102.265 65.8467 102.265C66.5714 102.265 67.1285 102.439 67.5187 102.786C67.9086 103.132 68.1039 103.665 68.1039 104.383V107.29H67.0077ZM65.4473 107.355C65.0759 107.355 64.7508 107.292 64.472 107.165C64.1934 107.038 63.9783 106.862 63.8265 106.636C63.6747 106.41 63.5989 106.154 63.5989 105.869C63.5989 105.591 63.6655 105.34 63.7987 105.117C63.9317 104.894 64.15 104.718 64.4534 104.587C64.7568 104.457 65.1594 104.392 65.661 104.392H67.1007V105.163H65.7446C65.3545 105.163 65.0898 105.227 64.9504 105.354C64.811 105.481 64.7413 105.64 64.7413 105.832C64.7413 106.036 64.8251 106.201 64.9921 106.325C65.1594 106.448 65.3917 106.51 65.6889 106.51C65.9735 106.51 66.2291 106.445 66.455 106.315C66.6811 106.185 66.8468 105.993 66.952 105.739L67.138 106.436C67.0264 106.727 66.828 106.953 66.5434 107.114C66.2585 107.275 65.8933 107.355 65.4473 107.355Z" fill="white"/>
<path id="g" d="M71.8746 106.082C72.1656 106.082 72.4255 106.022 72.6548 105.901C72.8838 105.78 73.0619 105.613 73.1889 105.399C73.3158 105.186 73.3792 104.943 73.3792 104.67C73.3792 104.385 73.3158 104.138 73.1889 103.927C73.0619 103.717 72.8838 103.552 72.6548 103.435C72.4255 103.317 72.1656 103.258 71.8746 103.258C71.5834 103.258 71.3219 103.317 71.0897 103.435C70.8574 103.552 70.6778 103.717 70.551 103.927C70.4239 104.138 70.3607 104.385 70.3607 104.67C70.3607 104.943 70.4239 105.186 70.551 105.399C70.6778 105.613 70.8574 105.78 71.0897 105.901C71.3219 106.022 71.5834 106.082 71.8746 106.082ZM71.8467 109.156C71.3823 109.156 70.9348 109.096 70.5046 108.975C70.0741 108.854 69.7164 108.676 69.4317 108.441L69.9519 107.577C70.1685 107.757 70.4409 107.902 70.7693 108.014C71.0974 108.125 71.438 108.181 71.791 108.181C72.3298 108.181 72.7258 108.056 72.9799 107.805C73.2338 107.554 73.3608 107.175 73.3608 106.667V105.785L73.4536 104.67L73.4165 103.546V102.329H74.5218V106.537C74.5218 107.435 74.2927 108.096 73.8344 108.52C73.3763 108.944 72.7136 109.156 71.8467 109.156ZM71.6982 107.067C71.2212 107.067 70.794 106.966 70.4162 106.765C70.0385 106.563 69.7396 106.283 69.5199 105.924C69.3 105.565 69.1902 105.147 69.1902 104.67C69.1902 104.187 69.3 103.764 69.5199 103.402C69.7396 103.04 70.0385 102.76 70.4162 102.562C70.794 102.364 71.2212 102.264 71.6982 102.264C72.1192 102.264 72.4984 102.35 72.836 102.52C73.1734 102.69 73.4411 102.952 73.6395 103.305C73.8375 103.658 73.9367 104.113 73.9367 104.67C73.9367 105.215 73.8375 105.664 73.6395 106.017C73.4411 106.37 73.1734 106.633 72.836 106.806C72.4984 106.98 72.1192 107.067 71.6982 107.067Z" fill="white"/>
<path id="e_3" d="M78.3766 107.355C77.8255 107.355 77.344 107.246 76.9323 107.026C76.5204 106.806 76.2016 106.506 75.9757 106.125C75.7495 105.744 75.6365 105.306 75.6365 104.811C75.6365 104.315 75.7464 103.877 75.9662 103.496C76.1861 103.115 76.4895 102.815 76.8766 102.595C77.2635 102.376 77.7048 102.265 78.2002 102.265C78.6833 102.265 79.1135 102.372 79.4912 102.586C79.8688 102.799 80.1662 103.098 80.383 103.482C80.5996 103.866 80.708 104.321 80.708 104.848C80.708 104.891 80.7065 104.945 80.7034 105.01C80.7003 105.075 80.6955 105.132 80.6895 105.182H76.5562V104.411H80.0765L79.6122 104.653C79.6182 104.374 79.5608 104.125 79.4403 103.905C79.3193 103.685 79.1537 103.515 78.9432 103.394C78.7328 103.273 78.4849 103.213 78.2002 103.213C77.9214 103.213 77.6723 103.273 77.4525 103.394C77.2326 103.515 77.0638 103.686 76.9464 103.909C76.8285 104.132 76.7697 104.389 76.7697 104.68V104.866C76.7697 105.163 76.8362 105.427 76.9694 105.656C77.1025 105.885 77.2929 106.063 77.5407 106.19C77.7883 106.317 78.0763 106.38 78.4046 106.38C78.6833 106.38 78.9341 106.334 79.157 106.241C79.3798 106.148 79.5778 106.012 79.7515 105.832L80.383 106.557C80.1539 106.817 79.8706 107.015 79.5331 107.151C79.1955 107.287 78.8101 107.355 78.3766 107.355Z" fill="white"/>
<path id="." d="M82.2034 107.355C81.9864 107.355 81.8039 107.283 81.6554 107.137C81.5067 106.992 81.4324 106.804 81.4324 106.575C81.4324 106.346 81.5067 106.162 81.6554 106.023C81.8039 105.883 81.9864 105.814 82.2034 105.814C82.4076 105.814 82.5843 105.883 82.7328 106.023C82.8814 106.162 82.9556 106.346 82.9556 106.575C82.9556 106.804 82.8814 106.992 82.7328 107.137C82.5843 107.283 82.4076 107.355 82.2034 107.355Z" fill="#FF6567"/>
</g>
<g id="Paye.">
<path id="P" d="M87.9713 104.985L87.4417 104.391H89.3833C89.9155 104.391 90.3167 104.278 90.5859 104.052C90.8553 103.826 90.9901 103.509 90.9901 103.1C90.9901 102.691 90.8553 102.374 90.5859 102.148C90.3167 101.922 89.9155 101.809 89.3833 101.809H87.4417L87.9713 101.214V104.985ZM86.7637 107.289V100.787H89.4388C90.0147 100.787 90.5086 100.878 90.9204 101.061C91.3321 101.244 91.6496 101.508 91.8724 101.855C92.0954 102.202 92.2069 102.617 92.2069 103.1C92.2069 103.577 92.0954 103.987 91.8724 104.331C91.6496 104.674 91.3321 104.941 90.9204 105.129C90.5086 105.318 90.0147 105.413 89.4388 105.413H87.4417L87.9713 104.855V107.289H86.7637Z" fill="white"/>
<path id="a_2" d="M96.3122 107.29V106.278L96.2565 106.074V104.318C96.2565 103.978 96.1527 103.713 95.9454 103.524C95.7377 103.335 95.4237 103.241 95.0025 103.241C94.73 103.241 94.4605 103.284 94.1946 103.371C93.9282 103.457 93.699 103.578 93.507 103.733L93.0518 102.888C93.3244 102.683 93.6431 102.529 94.0086 102.423C94.3739 102.318 94.7548 102.265 95.1512 102.265C95.8758 102.265 96.4329 102.439 96.8231 102.786C97.2131 103.132 97.4084 103.665 97.4084 104.383V107.29H96.3122ZM94.7517 107.355C94.3803 107.355 94.0552 107.292 93.7765 107.165C93.4979 107.038 93.2827 106.862 93.1309 106.636C92.9791 106.41 92.9033 106.154 92.9033 105.869C92.9033 105.591 92.97 105.34 93.1032 105.117C93.2361 104.894 93.4544 104.718 93.7578 104.587C94.0612 104.457 94.4638 104.392 94.9654 104.392H96.4052V105.163H95.0491C94.6589 105.163 94.3942 105.227 94.2548 105.354C94.1155 105.481 94.0457 105.64 94.0457 105.832C94.0457 106.036 94.1295 106.201 94.2965 106.325C94.4638 106.448 94.6962 106.51 94.9934 106.51C95.278 106.51 95.5335 106.445 95.7595 106.315C95.9856 106.185 96.1513 105.993 96.2565 105.739L96.4424 106.436C96.3308 106.727 96.1325 106.953 95.8479 107.114C95.5629 107.275 95.1978 107.355 94.7517 107.355Z" fill="white"/>
<path id="y_2" d="M100.204 107.466L97.9656 102.329H99.1639L100.994 106.611L100.204 107.466ZM99.1919 109.156C98.944 109.156 98.6996 109.116 98.4579 109.036C98.2164 108.955 98.0182 108.844 97.8635 108.701L98.3185 107.856C98.4362 107.955 98.5679 108.036 98.7135 108.098C98.8589 108.159 99.0121 108.19 99.1732 108.19C99.3835 108.19 99.5541 108.138 99.684 108.033C99.814 107.927 99.9348 107.748 100.046 107.494L100.325 106.862L100.436 106.713L102.303 102.329H103.418L101.096 107.698C100.941 108.063 100.769 108.353 100.58 108.567C100.391 108.78 100.181 108.932 99.9488 109.022C99.7165 109.111 99.4642 109.156 99.1919 109.156Z" fill="white"/>
<path id="e_4" d="M106.334 107.355C105.783 107.355 105.302 107.246 104.89 107.026C104.478 106.806 104.159 106.506 103.933 106.125C103.707 105.744 103.594 105.306 103.594 104.811C103.594 104.315 103.704 103.877 103.924 103.496C104.144 103.115 104.447 102.815 104.834 102.595C105.221 102.376 105.662 102.265 106.158 102.265C106.641 102.265 107.071 102.372 107.449 102.586C107.827 102.799 108.124 103.098 108.341 103.482C108.557 103.866 108.666 104.321 108.666 104.848C108.666 104.891 108.664 104.945 108.661 105.01C108.658 105.075 108.653 105.132 108.647 105.182H104.514V104.411H108.034L107.57 104.653C107.576 104.374 107.519 104.125 107.398 103.905C107.277 103.685 107.111 103.515 106.901 103.394C106.691 103.273 106.443 103.213 106.158 103.213C105.879 103.213 105.63 103.273 105.41 103.394C105.19 103.515 105.022 103.686 104.904 103.909C104.786 104.132 104.727 104.389 104.727 104.68V104.866C104.727 105.163 104.794 105.427 104.927 105.656C105.06 105.885 105.251 106.063 105.499 106.19C105.746 106.317 106.034 106.38 106.362 106.38C106.641 106.38 106.892 106.334 107.115 106.241C107.338 106.148 107.536 106.012 107.709 105.832L108.341 106.557C108.112 106.817 107.828 107.015 107.491 107.151C107.153 107.287 106.768 107.355 106.334 107.355Z" fill="white"/>
<path id="._2" d="M110.162 107.355C109.945 107.355 109.762 107.283 109.614 107.137C109.465 106.992 109.391 106.804 109.391 106.575C109.391 106.346 109.465 106.162 109.614 106.023C109.762 105.883 109.945 105.814 110.162 105.814C110.366 105.814 110.543 105.883 110.691 106.023C110.84 106.162 110.914 106.346 110.914 106.575C110.914 106.804 110.84 106.992 110.691 107.137C110.543 107.283 110.366 107.355 110.162 107.355Z" fill="#FF6567"/>
</g>
<g id="D&#195;&#169;passe tes limites.">
<path id="D" d="M115.929 106.267H117.499C117.988 106.267 118.411 106.174 118.767 105.988C119.123 105.803 119.402 105.543 119.603 105.208C119.804 104.874 119.905 104.484 119.905 104.038C119.905 103.58 119.804 103.187 119.603 102.858C119.402 102.53 119.123 102.273 118.767 102.088C118.411 101.902 117.988 101.809 117.499 101.809H115.929V106.267ZM114.722 107.289V100.787H117.573C118.267 100.787 118.881 100.922 119.417 101.191C119.953 101.46 120.369 101.84 120.666 102.329C120.964 102.818 121.112 103.388 121.112 104.038C121.112 104.688 120.964 105.258 120.666 105.747C120.369 106.236 119.953 106.616 119.417 106.885C118.881 107.154 118.267 107.289 117.573 107.289H114.722Z" fill="white"/>
<path id="&#195;&#169;" d="M123.629 101.652L124.883 100.38H126.258L124.632 101.652H123.629ZM124.614 107.355C124.063 107.355 123.581 107.246 123.17 107.026C122.758 106.806 122.439 106.506 122.213 106.125C121.987 105.744 121.874 105.306 121.874 104.811C121.874 104.315 121.984 103.877 122.203 103.496C122.423 103.115 122.727 102.815 123.114 102.595C123.501 102.376 123.942 102.265 124.437 102.265C124.92 102.265 125.351 102.372 125.729 102.586C126.106 102.799 126.403 103.098 126.62 103.482C126.837 103.866 126.945 104.321 126.945 104.848C126.945 104.891 126.944 104.945 126.941 105.01C126.937 105.075 126.933 105.132 126.927 105.182H122.793V104.411H126.314L125.849 104.653C125.855 104.374 125.798 104.125 125.678 103.905C125.557 103.685 125.391 103.515 125.181 103.394C124.97 103.273 124.722 103.213 124.437 103.213C124.159 103.213 123.909 103.273 123.69 103.394C123.47 103.515 123.301 103.686 123.184 103.909C123.066 104.133 123.007 104.389 123.007 104.68V104.866C123.007 105.164 123.074 105.427 123.207 105.656C123.34 105.885 123.53 106.063 123.778 106.19C124.026 106.317 124.314 106.38 124.642 106.38C124.92 106.38 125.171 106.334 125.394 106.241C125.617 106.148 125.815 106.012 125.989 105.832L126.62 106.557C126.391 106.817 126.108 107.015 125.77 107.151C125.433 107.288 125.047 107.355 124.614 107.355Z" fill="white"/>
<path id="p" d="M130.67 106.372C130.955 106.372 131.207 106.307 131.427 106.177C131.647 106.047 131.822 105.865 131.952 105.629C132.082 105.394 132.147 105.122 132.147 104.812C132.147 104.496 132.082 104.222 131.952 103.99C131.822 103.758 131.647 103.578 131.427 103.451C131.207 103.324 130.955 103.261 130.67 103.261C130.397 103.261 130.15 103.324 129.927 103.451C129.704 103.578 129.527 103.758 129.397 103.99C129.267 104.222 129.202 104.496 129.202 104.812C129.202 105.122 129.267 105.394 129.397 105.629C129.527 105.865 129.704 106.047 129.927 106.177C130.15 106.307 130.397 106.372 130.67 106.372ZM130.809 107.357C130.4 107.357 130.032 107.266 129.704 107.083C129.376 106.9 129.116 106.62 128.924 106.242C128.732 105.865 128.636 105.388 128.636 104.812C128.636 104.23 128.727 103.752 128.91 103.377C129.092 103.002 129.351 102.724 129.685 102.541C130.02 102.358 130.394 102.267 130.809 102.267C131.292 102.267 131.723 102.372 132.1 102.583C132.478 102.793 132.777 103.091 132.997 103.474C133.216 103.858 133.327 104.304 133.327 104.812C133.327 105.326 133.216 105.773 132.997 106.154C132.777 106.535 132.478 106.831 132.1 107.041C131.723 107.252 131.292 107.357 130.809 107.357ZM128.069 109.094V102.332H129.174V103.502L129.128 104.821L129.221 106.14V109.094H128.069Z" fill="white"/>
<path id="a_3" d="M137.423 107.29V106.278L137.367 106.074V104.318C137.367 103.978 137.263 103.713 137.056 103.524C136.848 103.335 136.534 103.241 136.113 103.241C135.841 103.241 135.571 103.284 135.305 103.371C135.039 103.457 134.81 103.578 134.618 103.733L134.162 102.888C134.435 102.683 134.754 102.529 135.119 102.423C135.485 102.318 135.865 102.265 136.262 102.265C136.986 102.265 137.544 102.439 137.934 102.786C138.324 103.132 138.519 103.665 138.519 104.383V107.29H137.423ZM135.862 107.355C135.491 107.355 135.166 107.292 134.887 107.165C134.608 107.038 134.393 106.862 134.242 106.636C134.09 106.41 134.014 106.154 134.014 105.869C134.014 105.591 134.081 105.34 134.214 105.117C134.347 104.894 134.565 104.718 134.868 104.587C135.172 104.457 135.574 104.392 136.076 104.392H137.516V105.163H136.16C135.769 105.163 135.505 105.227 135.365 105.354C135.226 105.481 135.156 105.64 135.156 105.832C135.156 106.036 135.24 106.201 135.407 106.325C135.574 106.448 135.807 106.51 136.104 106.51C136.389 106.51 136.644 106.445 136.87 106.315C137.096 106.185 137.262 105.993 137.367 105.739L137.553 106.436C137.441 106.727 137.243 106.953 136.958 107.114C136.674 107.275 136.308 107.355 135.862 107.355Z" fill="white"/>
<path id="s" d="M141.547 107.355C141.126 107.355 140.726 107.301 140.348 107.193C139.971 107.085 139.667 106.953 139.438 106.798L139.884 105.916C140.107 106.058 140.373 106.174 140.683 106.264C140.993 106.354 141.305 106.399 141.621 106.399C141.98 106.399 142.242 106.351 142.406 106.255C142.57 106.159 142.652 106.027 142.652 105.86C142.652 105.724 142.596 105.62 142.485 105.549C142.373 105.478 142.228 105.424 142.048 105.386C141.869 105.349 141.669 105.315 141.449 105.284C141.229 105.253 141.01 105.211 140.79 105.159C140.57 105.106 140.37 105.029 140.191 104.927C140.011 104.824 139.865 104.687 139.754 104.513C139.643 104.34 139.587 104.108 139.587 103.817C139.587 103.507 139.677 103.236 139.856 103.004C140.036 102.772 140.288 102.591 140.613 102.46C140.938 102.33 141.324 102.265 141.77 102.265C142.098 102.265 142.434 102.304 142.778 102.381C143.121 102.459 143.408 102.566 143.637 102.702L143.182 103.584C142.952 103.448 142.717 103.354 142.476 103.301C142.234 103.248 141.996 103.222 141.76 103.222C141.414 103.222 141.153 103.273 140.98 103.375C140.807 103.478 140.72 103.609 140.72 103.77C140.72 103.919 140.776 104.03 140.887 104.105C140.999 104.179 141.144 104.236 141.324 104.276C141.503 104.317 141.703 104.354 141.923 104.388C142.143 104.422 142.361 104.465 142.578 104.518C142.794 104.571 142.994 104.645 143.177 104.741C143.359 104.837 143.507 104.972 143.618 105.145C143.73 105.318 143.785 105.544 143.785 105.823C143.785 106.139 143.694 106.41 143.511 106.636C143.329 106.862 143.071 107.038 142.74 107.165C142.409 107.292 142.011 107.355 141.547 107.355Z" fill="white"/>
<path id="s_2" d="M146.33 107.355C145.909 107.355 145.51 107.301 145.132 107.193C144.754 107.085 144.451 106.953 144.222 106.798L144.668 105.916C144.891 106.058 145.157 106.174 145.467 106.264C145.776 106.354 146.089 106.399 146.405 106.399C146.764 106.399 147.025 106.351 147.19 106.255C147.354 106.159 147.436 106.027 147.436 105.86C147.436 105.724 147.38 105.62 147.269 105.549C147.157 105.478 147.012 105.424 146.832 105.386C146.652 105.349 146.453 105.315 146.233 105.284C146.013 105.253 145.793 105.211 145.573 105.159C145.354 105.106 145.154 105.029 144.974 104.927C144.795 104.824 144.649 104.687 144.538 104.513C144.426 104.34 144.371 104.108 144.371 103.817C144.371 103.507 144.46 103.236 144.64 103.004C144.819 102.772 145.072 102.591 145.397 102.46C145.722 102.33 146.108 102.265 146.553 102.265C146.882 102.265 147.218 102.304 147.561 102.381C147.905 102.459 148.191 102.566 148.42 102.702L147.965 103.584C147.736 103.448 147.501 103.354 147.259 103.301C147.018 103.248 146.779 103.222 146.544 103.222C146.197 103.222 145.937 103.273 145.764 103.375C145.59 103.478 145.504 103.609 145.504 103.77C145.504 103.919 145.559 104.03 145.671 104.105C145.782 104.179 145.928 104.236 146.108 104.276C146.287 104.317 146.487 104.354 146.707 104.388C146.926 104.422 147.145 104.465 147.362 104.518C147.578 104.571 147.778 104.645 147.961 104.741C148.143 104.837 148.29 104.972 148.402 105.145C148.513 105.318 148.569 105.544 148.569 105.823C148.569 106.139 148.478 106.41 148.295 106.636C148.112 106.862 147.855 107.038 147.524 107.165C147.193 107.292 146.795 107.355 146.33 107.355Z" fill="white"/>
<path id="e_5" d="M151.903 107.355C151.352 107.355 150.871 107.246 150.459 107.026C150.047 106.806 149.728 106.506 149.503 106.125C149.276 105.744 149.163 105.306 149.163 104.811C149.163 104.315 149.273 103.877 149.493 103.496C149.713 103.115 150.016 102.815 150.403 102.595C150.79 102.376 151.232 102.265 151.727 102.265C152.21 102.265 152.64 102.372 153.018 102.586C153.396 102.799 153.693 103.098 153.91 103.482C154.126 103.866 154.235 104.321 154.235 104.848C154.235 104.891 154.233 104.945 154.23 105.01C154.227 105.075 154.222 105.132 154.216 105.182H150.083V104.411H153.603L153.139 104.653C153.145 104.374 153.088 104.125 152.967 103.905C152.846 103.685 152.681 103.515 152.47 103.394C152.26 103.273 152.012 103.213 151.727 103.213C151.448 103.213 151.199 103.273 150.979 103.394C150.759 103.515 150.591 103.686 150.473 103.909C150.355 104.132 150.297 104.389 150.297 104.68V104.866C150.297 105.163 150.363 105.427 150.496 105.656C150.629 105.885 150.82 106.063 151.068 106.19C151.315 106.317 151.603 106.38 151.931 106.38C152.21 106.38 152.461 106.334 152.684 106.241C152.907 106.148 153.105 106.012 153.278 105.832L153.91 106.557C153.681 106.817 153.397 107.015 153.06 107.151C152.722 107.287 152.337 107.355 151.903 107.355Z" fill="white"/>
<path id="t" d="M159.78 107.355C159.235 107.355 158.814 107.215 158.517 106.933C158.219 106.651 158.071 106.238 158.071 105.693V101.234H159.222V105.656C159.222 105.891 159.284 106.074 159.408 106.204C159.532 106.334 159.705 106.399 159.928 106.399C160.182 106.399 160.393 106.331 160.56 106.194L160.894 107.021C160.752 107.133 160.581 107.216 160.383 107.272C160.185 107.328 159.984 107.355 159.78 107.355ZM157.253 102.33H160.56V103.259H157.253V102.33Z" fill="white"/>
<path id="e_6" d="M164.016 107.355C163.464 107.355 162.983 107.246 162.571 107.026C162.159 106.806 161.841 106.506 161.615 106.125C161.388 105.744 161.275 105.306 161.275 104.811C161.275 104.315 161.385 103.877 161.605 103.496C161.825 103.115 162.128 102.815 162.515 102.595C162.902 102.376 163.344 102.265 163.839 102.265C164.322 102.265 164.752 102.372 165.13 102.586C165.508 102.799 165.805 103.098 166.022 103.482C166.239 103.866 166.347 104.321 166.347 104.848C166.347 104.891 166.345 104.945 166.342 105.01C166.339 105.075 166.334 105.132 166.328 105.182H162.195V104.411H165.715L165.251 104.653C165.257 104.374 165.2 104.125 165.079 103.905C164.958 103.685 164.793 103.515 164.582 103.394C164.372 103.273 164.124 103.213 163.839 103.213C163.56 103.213 163.311 103.273 163.091 103.394C162.872 103.515 162.703 103.686 162.585 103.909C162.467 104.132 162.409 104.389 162.409 104.68V104.866C162.409 105.163 162.475 105.427 162.608 105.656C162.741 105.885 162.932 106.063 163.18 106.19C163.427 106.317 163.715 106.38 164.043 106.38C164.322 106.38 164.573 106.334 164.796 106.241C165.019 106.148 165.217 106.012 165.39 105.832L166.022 106.557C165.793 106.817 165.51 107.015 165.172 107.151C164.834 107.287 164.449 107.355 164.016 107.355Z" fill="white"/>
<path id="s_3" d="M169.004 107.355C168.582 107.355 168.183 107.301 167.805 107.193C167.427 107.085 167.124 106.953 166.895 106.798L167.341 105.916C167.564 106.058 167.83 106.174 168.14 106.264C168.449 106.354 168.762 106.399 169.078 106.399C169.437 106.399 169.699 106.351 169.863 106.255C170.027 106.159 170.109 106.027 170.109 105.86C170.109 105.724 170.053 105.62 169.942 105.549C169.83 105.478 169.685 105.424 169.505 105.386C169.325 105.349 169.126 105.315 168.906 105.284C168.686 105.253 168.466 105.211 168.247 105.159C168.027 105.106 167.827 105.029 167.647 104.927C167.468 104.824 167.322 104.687 167.211 104.513C167.099 104.34 167.044 104.108 167.044 103.817C167.044 103.507 167.133 103.236 167.313 103.004C167.493 102.772 167.745 102.591 168.07 102.46C168.395 102.33 168.781 102.265 169.226 102.265C169.555 102.265 169.891 102.304 170.234 102.381C170.578 102.459 170.864 102.566 171.094 102.702L170.638 103.584C170.409 103.448 170.174 103.354 169.932 103.301C169.691 103.248 169.452 103.222 169.217 103.222C168.87 103.222 168.61 103.273 168.437 103.375C168.264 103.478 168.177 103.609 168.177 103.77C168.177 103.919 168.232 104.03 168.344 104.105C168.456 104.179 168.601 104.236 168.781 104.276C168.96 104.317 169.16 104.354 169.38 104.388C169.599 104.422 169.818 104.465 170.035 104.518C170.251 104.571 170.451 104.645 170.634 104.741C170.816 104.837 170.963 104.972 171.075 105.145C171.186 105.318 171.242 105.544 171.242 105.823C171.242 106.139 171.151 106.41 170.968 106.636C170.785 106.862 170.528 107.038 170.197 107.165C169.866 107.292 169.468 107.355 169.004 107.355Z" fill="white"/>
<path id="L" d="M174.818 100.397H175.97V107.289H174.818V100.397Z" fill="white"/>
<path id="i" d="M177.502 102.329H178.654V107.289H177.502V102.329ZM178.078 101.512C177.861 101.512 177.683 101.443 177.544 101.307C177.405 101.171 177.335 101.004 177.335 100.806C177.335 100.62 177.405 100.459 177.544 100.323C177.683 100.187 177.861 100.118 178.078 100.118C178.295 100.118 178.473 100.182 178.612 100.309C178.752 100.436 178.821 100.598 178.821 100.796C178.821 100.995 178.753 101.163 178.617 101.303C178.481 101.442 178.301 101.512 178.078 101.512Z" fill="white"/>
<path id="m" d="M180.186 107.289V102.329H181.292V103.657L181.087 103.258C181.254 102.942 181.497 102.697 181.816 102.524C182.135 102.351 182.502 102.264 182.917 102.264C183.382 102.264 183.784 102.379 184.125 102.608C184.465 102.837 184.691 103.19 184.803 103.666L184.357 103.499C184.512 103.134 184.775 102.837 185.146 102.608C185.518 102.379 185.948 102.264 186.437 102.264C186.834 102.264 187.185 102.342 187.492 102.496C187.798 102.651 188.038 102.889 188.211 103.211C188.385 103.533 188.472 103.945 188.472 104.447V107.289H187.32V104.595C187.32 104.156 187.222 103.828 187.027 103.611C186.832 103.394 186.555 103.286 186.196 103.286C185.942 103.286 185.718 103.341 185.523 103.453C185.327 103.564 185.176 103.73 185.067 103.95C184.959 104.17 184.905 104.444 184.905 104.772V107.289H183.753V104.595C183.753 104.156 183.655 103.828 183.461 103.611C183.265 103.394 182.988 103.286 182.629 103.286C182.375 103.286 182.151 103.341 181.956 103.453C181.761 103.564 181.609 103.73 181.501 103.95C181.392 104.17 181.338 104.444 181.338 104.772V107.289H180.186Z" fill="white"/>
<path id="i_2" d="M189.967 102.329H191.119V107.289H189.967V102.329ZM190.543 101.512C190.326 101.512 190.148 101.443 190.009 101.307C189.87 101.171 189.8 101.004 189.8 100.806C189.8 100.62 189.87 100.459 190.009 100.323C190.148 100.187 190.326 100.118 190.543 100.118C190.76 100.118 190.938 100.182 191.077 100.309C191.216 100.436 191.286 100.598 191.286 100.796C191.286 100.995 191.218 101.163 191.082 101.303C190.945 101.442 190.766 101.512 190.543 101.512Z" fill="white"/>
<path id="t_2" d="M194.509 107.355C193.964 107.355 193.543 107.215 193.246 106.933C192.949 106.651 192.8 106.238 192.8 105.693V101.234H193.952V105.656C193.952 105.891 194.013 106.074 194.137 106.204C194.261 106.334 194.435 106.399 194.658 106.399C194.911 106.399 195.122 106.331 195.289 106.194L195.624 107.021C195.481 107.133 195.311 107.216 195.113 107.272C194.915 107.328 194.713 107.355 194.509 107.355ZM191.982 102.33H195.289V103.259H191.982V102.33Z" fill="white"/>
<path id="e_7" d="M198.745 107.355C198.193 107.355 197.712 107.246 197.3 107.026C196.888 106.806 196.57 106.506 196.343 106.125C196.117 105.744 196.004 105.306 196.004 104.811C196.004 104.315 196.114 103.877 196.334 103.496C196.554 103.115 196.857 102.815 197.244 102.595C197.631 102.376 198.073 102.265 198.568 102.265C199.051 102.265 199.481 102.372 199.859 102.586C200.237 102.799 200.534 103.098 200.751 103.482C200.968 103.866 201.076 104.321 201.076 104.848C201.076 104.891 201.074 104.945 201.071 105.01C201.068 105.075 201.063 105.132 201.057 105.182H196.924V104.411H200.444L199.98 104.653C199.986 104.374 199.929 104.125 199.808 103.905C199.687 103.685 199.522 103.515 199.311 103.394C199.101 103.273 198.853 103.213 198.568 103.213C198.289 103.213 198.04 103.273 197.82 103.394C197.601 103.515 197.432 103.686 197.314 103.909C197.196 104.132 197.138 104.389 197.138 104.68V104.866C197.138 105.163 197.204 105.427 197.337 105.656C197.47 105.885 197.661 106.063 197.908 106.19C198.156 106.317 198.444 106.38 198.772 106.38C199.051 106.38 199.302 106.334 199.525 106.241C199.748 106.148 199.946 106.012 200.119 105.832L200.751 106.557C200.522 106.817 200.239 107.015 199.901 107.151C199.563 107.287 199.178 107.355 198.745 107.355Z" fill="white"/>
<path id="s_4" d="M203.733 107.355C203.311 107.355 202.912 107.301 202.534 107.193C202.156 107.085 201.853 106.953 201.624 106.798L202.07 105.916C202.293 106.058 202.559 106.174 202.869 106.264C203.178 106.354 203.491 106.399 203.807 106.399C204.166 106.399 204.428 106.351 204.592 106.255C204.756 106.159 204.838 106.027 204.838 105.86C204.838 105.724 204.782 105.62 204.671 105.549C204.559 105.478 204.414 105.424 204.234 105.386C204.054 105.349 203.855 105.315 203.635 105.284C203.415 105.253 203.195 105.211 202.976 105.159C202.756 105.106 202.556 105.029 202.376 104.927C202.197 104.824 202.051 104.687 201.94 104.513C201.828 104.34 201.773 104.108 201.773 103.817C201.773 103.507 201.862 103.236 202.042 103.004C202.222 102.772 202.474 102.591 202.799 102.46C203.124 102.33 203.51 102.265 203.955 102.265C204.284 102.265 204.62 102.304 204.963 102.381C205.307 102.459 205.593 102.566 205.823 102.702L205.367 103.584C205.138 103.448 204.903 103.354 204.661 103.301C204.42 103.248 204.181 103.222 203.946 103.222C203.599 103.222 203.339 103.273 203.166 103.375C202.993 103.478 202.906 103.609 202.906 103.77C202.906 103.919 202.961 104.03 203.073 104.105C203.185 104.179 203.33 104.236 203.51 104.276C203.689 104.317 203.889 104.354 204.109 104.388C204.328 104.422 204.547 104.465 204.764 104.518C204.98 104.571 205.18 104.645 205.363 104.741C205.545 104.837 205.692 104.972 205.804 105.145C205.915 105.318 205.971 105.544 205.971 105.823C205.971 106.139 205.88 106.41 205.697 106.636C205.514 106.862 205.257 107.038 204.926 107.165C204.595 107.292 204.197 107.355 203.733 107.355Z" fill="white"/>
<path id="._3" d="M207.355 107.355C207.138 107.355 206.956 107.283 206.807 107.137C206.658 106.992 206.584 106.804 206.584 106.575C206.584 106.346 206.658 106.162 206.807 106.023C206.956 105.883 207.138 105.814 207.355 105.814C207.559 105.814 207.736 105.883 207.885 106.023C208.033 106.162 208.107 106.346 208.107 106.575C208.107 106.804 208.033 106.992 207.885 107.137C207.736 107.283 207.559 107.355 207.355 107.355Z" fill="#FF6567"/>
</g>
<g id="Tr   pi">
<path id="t_3" d="M54.5088 76.6562H46.1762C46.0604 76.6562 45.9665 76.5624 45.9665 76.4466V41.7671C45.9665 41.6513 45.8726 41.5574 45.7568 41.5574H32.9875C32.8717 41.5574 32.7778 41.4635 32.7778 41.3477V32.9848C32.7778 32.869 32.8717 32.7751 32.9875 32.7751H67.667C67.7828 32.7751 67.8767 32.869 67.8767 32.9848V41.3477C67.8767 41.4635 67.7828 41.5574 67.667 41.5574H54.9282C54.8124 41.5574 54.7185 41.6513 54.7185 41.7671V76.4466C54.7185 76.5624 54.6246 76.6562 54.5088 76.6562Z" fill="white"/>
<path id="r" d="M76.9082 76.6562H68.9739C68.858 76.6562 68.7642 76.5624 68.7642 76.4466V44.0926C68.7642 43.9768 68.858 43.8829 68.9739 43.8829H70.6752C70.7431 43.8829 70.8069 43.916 70.8462 43.9715L73.4033 47.5798C73.4752 47.6812 73.6177 47.6962 73.7109 47.6142C74.9678 46.5067 76.3811 45.6383 77.9507 45.0085C79.7921 44.2694 81.7738 43.9443 83.7581 43.9443H90.6173C90.7331 43.9443 90.827 44.0382 90.827 44.154V52.058C90.827 52.1738 90.7331 52.2677 90.6173 52.2677H83.4523C82.575 52.2677 81.7488 52.431 80.9736 52.7571C80.198 53.0839 79.5249 53.5327 78.9542 54.1037C78.3825 54.675 77.9337 55.3482 77.6073 56.1234C77.2809 56.899 77.1179 57.7252 77.1179 58.6018V76.4466C77.1179 76.5624 77.024 76.6562 76.9082 76.6562Z" fill="white"/>
<path id="p_2" d="M187.058 59.9784C187.058 58.5912 186.839 57.3467 186.4 56.2449C185.961 55.1432 185.365 54.2102 184.61 53.4452C183.855 52.6802 182.968 52.0939 181.948 51.6854C180.928 51.2779 179.847 51.0737 178.704 51.0737C177.562 51.0737 176.486 51.2779 175.476 51.6854C174.466 52.0939 173.584 52.6802 172.829 53.4452C172.074 54.2102 171.477 55.1432 171.039 56.2449C170.6 57.3467 170.381 58.5912 170.381 59.9784C170.381 61.3045 170.6 62.5181 171.039 63.6199C171.477 64.7216 172.074 65.6601 172.829 66.435C173.584 67.2106 174.466 67.8121 175.476 68.2406C176.486 68.6689 177.562 68.883 178.704 68.883C179.847 68.883 180.928 68.6689 181.948 68.2406C182.968 67.8121 183.855 67.2106 184.61 66.435C185.365 65.6601 185.961 64.7216 186.4 63.6199C186.839 62.5181 187.058 61.3045 187.058 59.9784ZM170.11 89.1406H162.114C161.998 89.1406 161.905 89.0467 161.905 88.9309V44.0921C161.905 43.9763 161.998 43.8824 162.114 43.8824H163.827C163.888 43.8824 163.947 43.9096 163.987 43.9567L167.119 47.663C167.196 47.7539 167.331 47.762 167.419 47.6811C168.13 47.0222 168.903 46.3986 169.738 45.8102C170.636 45.1782 171.569 44.632 172.538 44.173C173.507 43.7141 174.512 43.3521 175.552 43.0867C176.593 42.822 177.643 42.6889 178.704 42.6889C181.009 42.6889 183.177 43.102 185.207 43.9282C187.237 44.7546 189.011 45.9224 190.532 47.4321C192.051 48.942 193.25 50.7626 194.127 52.8943C195.004 55.0263 195.443 57.388 195.443 59.9784C195.443 62.6712 195.004 65.0938 194.127 67.2458C193.25 69.3987 192.051 71.224 190.532 72.7234C189.011 74.2228 187.237 75.3707 185.207 76.1662C183.177 76.9615 181.009 77.3594 178.704 77.3594C177.97 77.3594 177.24 77.2777 176.517 77.1146C175.792 76.9513 175.078 76.7321 174.374 76.4568C173.67 76.1812 172.977 75.8705 172.293 75.5234C171.721 75.2335 171.167 74.9358 170.631 74.6311C170.491 74.5518 170.32 74.6519 170.32 74.8127V88.9309C170.32 89.0467 170.226 89.1406 170.11 89.1406Z" fill="white"/>
<path id="i_3" d="M208.269 76.6562H200.273C200.157 76.6562 200.063 76.5624 200.063 76.4466V44.0926C200.063 43.9768 200.157 43.8829 200.273 43.8829H208.269C208.385 43.8829 208.479 43.9768 208.479 44.0926V76.4466C208.479 76.5624 208.385 76.6562 208.269 76.6562ZM209.917 34.9782C209.917 35.7538 209.769 36.4777 209.474 37.1508C209.177 37.8243 208.774 38.4108 208.265 38.9104C207.754 39.4107 207.157 39.8086 206.474 40.1039C205.791 40.4 205.061 40.5476 204.287 40.5476C203.511 40.5476 202.782 40.4 202.099 40.1039C201.415 39.8086 200.823 39.4107 200.323 38.9104C199.823 38.4108 199.426 37.8243 199.13 37.1508C198.834 36.4777 198.687 35.7538 198.687 34.9782C198.687 34.2238 198.834 33.5047 199.13 32.8208C199.426 32.1378 199.823 31.5463 200.323 31.046C200.823 30.5464 201.415 30.1488 202.099 29.8527C202.782 29.5573 203.511 29.4088 204.287 29.4088C205.061 29.4088 205.791 29.5573 206.474 29.8527C207.157 30.1488 207.754 30.5464 208.265 31.046C208.774 31.5463 209.177 32.1378 209.474 32.8208C209.769 33.5047 209.917 34.2238 209.917 34.9782Z" fill="white"/>
</g>
</g>
</g>
</g>
</g>
<defs>
<linearGradient id="paint0_linear_16_283" x1="90.3878" y1="60.4332" x2="127.565" y2="60.4332" gradientUnits="userSpaceOnUse">
<stop stop-color="#FF6567"/>
<stop offset="1" stop-color="#FFC486"/>
</linearGradient>
<linearGradient id="paint1_linear_16_283" x1="119.987" y1="60.5429" x2="156.904" y2="60.5429" gradientUnits="userSpaceOnUse">
<stop stop-color="#FF6567"/>
<stop offset="0.999999" stop-color="#FFC486"/>
</linearGradient>
</defs>
</svg>
