<svg width="62" height="36" viewBox="0 0 62 36" fill="none" xmlns="http://www.w3.org/2000/svg">
<g style="mix-blend-mode:luminosity" opacity="0.6" clip-path="url(#clip0_2829_10949)">
<g clip-path="url(#clip1_2829_10949)">
<path d="M42.0095 21.7573H49.0905C49.0905 21.7573 45.2625 31.1174 45.9803 35.298H38.8027C38.8027 35.298 40.1431 24.6083 42.0082 21.7573H42.0095Z" fill="#353A45" stroke="#353A45" stroke-width="0.224191" stroke-linecap="round" stroke-linejoin="round"/>
<path d="M35.8837 8.32081C35.8837 8.32081 35.9551 9.58746 38.3291 10.3278C40.7044 11.0668 43.1141 10.3278 44.461 11.3844C45.808 12.441 45.7723 14.0595 45.3123 14.8693C44.8523 15.6792 44.1068 16.4891 46.305 17.4394C48.5032 18.3897 47.1906 21.1711 46.2693 22.191C45.348 23.2122 43.7525 23.7044 41.98 23.3526C40.2074 23.0008 38.1163 18.7415 35.848 16.4891C33.5797 14.2367 33.3022 10.0784 34.7496 8.88654C36.1956 7.6947 35.8837 8.32343 35.8837 8.32343V8.32081Z" fill="#353A45" stroke="#353A45" stroke-width="0.224191" stroke-linecap="round" stroke-linejoin="round"/>
<path d="M35.5175 3.76494C35.5175 3.76494 36.4956 3.34097 36.7468 4.16397C36.9979 4.98696 37.0733 7.22755 37.0733 7.22755L36.5459 7.10286C36.5459 7.10286 36.6714 4.56168 36.0938 4.16397C35.5175 3.76494 35.0654 4.66275 35.0654 4.66275L35.5175 3.76625V3.76494Z" fill="#CE2828" stroke="#353A45" stroke-width="0.224191" stroke-linecap="round" stroke-linejoin="round"/>
<path d="M24.5391 31.1036L27.8806 29.329C27.8806 29.329 27.6493 25.8467 27.6824 25.7154C27.7154 25.5842 28.5521 18.7705 28.5521 18.7705L26.2588 25.5185L24.5391 31.1036Z" fill="#353A45" stroke="#353A45" stroke-width="0.224191" stroke-linecap="round" stroke-linejoin="round"/>
<path d="M39.3094 15.2725C39.3094 15.2725 42.6086 17.0589 43.0581 17.2453C43.5075 17.4317 43.2458 19.7025 43.2458 21.1909C43.2458 22.6794 40.996 35.2619 40.996 35.2619H24.3516C24.3516 35.2619 27.1631 30.9816 27.2384 29.8645C27.3138 28.7475 26.826 27.855 26.7507 26.7747C26.6753 25.6944 28.288 19.1065 28.5497 18.7705C28.8127 18.4358 29.9363 17.5787 29.9363 17.5787L33.9097 14.1161L35.747 13.7065L39.308 15.2698L39.3094 15.2725Z" fill="white" stroke="#353A45" stroke-width="0.224191" stroke-linecap="round" stroke-linejoin="round"/>
<path d="M28.2817 31.0742L27.7266 32.2096" stroke="#353A45" stroke-width="0.224191" stroke-linecap="round" stroke-linejoin="round"/>
<path d="M28.813 27.8164C28.813 27.8164 27.9882 28.3743 28.4006 28.6722C28.813 28.9702 29.0007 29.6028 29.0007 29.6028L28.4733 30.6253" stroke="#353A45" stroke-width="0.224191" stroke-linecap="round" stroke-linejoin="round"/>
<path d="M32.6992 30.5259C32.9226 30.5429 33.1579 30.5548 33.4038 30.5626" stroke="#353A45" stroke-width="0.224191" stroke-linecap="round" stroke-linejoin="round"/>
<path d="M29.1504 29.604C29.1504 29.604 30.0466 30.1999 32.0029 30.4546" stroke="#353A45" stroke-width="0.224191" stroke-linecap="round" stroke-linejoin="round"/>
<path d="M26.9134 5.80672C26.9134 5.80672 26.4111 6.00623 26.4111 6.65334C26.4111 7.30044 26.9385 8.57103 26.9385 8.57103L27.2399 8.47127C27.2399 8.47127 26.6887 7.15081 26.7627 6.67828C26.8381 6.20443 27.2901 6.08105 27.2901 6.08105L27.1897 5.75684L26.9134 5.80672Z" fill="#CE2828" stroke="#353A45" stroke-width="0.224191" stroke-linecap="round" stroke-linejoin="round"/>
<path d="M28.2048 9.14239C28.333 9.79738 28.111 10.3907 27.7091 10.4681C27.3073 10.5456 26.879 10.077 26.7521 9.42198C26.6239 8.76699 26.846 8.1737 27.2478 8.09626C27.6497 8.01882 28.0779 8.48741 28.2048 9.14239Z" fill="white" stroke="#353A45" stroke-width="0.224191" stroke-linecap="round" stroke-linejoin="round"/>
<path d="M29.4251 8.93245C29.6749 9.76988 29.3828 10.5942 28.7721 10.7753C28.1614 10.9551 27.4635 10.4222 27.2124 9.58481C26.9625 8.74737 27.2547 7.92306 27.8654 7.74193C28.476 7.5621 29.174 8.09501 29.4251 8.93245Z" fill="#353A45" stroke="#353A45" stroke-width="0.224191" stroke-linecap="round" stroke-linejoin="round"/>
<path d="M31.6901 13.4976L32.2836 15.4139L30.3313 17.8554L30.0074 19.7415C30.0074 19.7415 29.6836 25.1245 29.8686 25.9527C30.0537 26.781 30.0537 27.0107 30.0537 27.0107C30.0537 27.0107 34.0839 22.3641 36.0759 19.5118C38.0679 16.6596 38.5319 14.9112 38.5319 14.9112L36.5862 13.8533L35.6596 9.57422L31.6901 13.4976Z" fill="white" stroke="#353A45" stroke-width="0.224191" stroke-linecap="round" stroke-linejoin="round"/>
<path d="M34.7649 11.6431L32.2825 15.4141L31.5898 13.1945L34.7649 11.6431Z" fill="#353A45" stroke="#353A45" stroke-width="0.224191" stroke-linecap="round" stroke-linejoin="round"/>
<path d="M30.0259 19.6341L30.0074 19.7417C30.0074 19.7417 29.6836 25.1247 29.8686 25.9529C30.0537 26.7812 30.0537 27.0109 30.0537 27.0109C30.0537 27.0109 34.0839 22.3643 36.0759 19.512C36.2319 19.2889 36.3773 19.0723 36.5161 18.8623C34.0218 19.7102 31.4786 19.7247 30.0259 19.6341Z" fill="white" stroke="#353A45" stroke-width="0.224191" stroke-linecap="round" stroke-linejoin="round"/>
<path d="M29.0455 1.74703C29.0455 1.74703 27.1896 2.86798 26.9887 4.56123C26.7878 6.25447 27.491 8.07372 27.7659 8.79564C28.0422 9.51757 28.9952 12.3331 29.4962 12.8804C29.9972 13.4278 31.6283 14.2508 31.9046 14.4004C32.1808 14.55 32.6818 14.5002 33.1088 14.2009C33.5357 13.9016 35.2911 11.7844 35.5674 11.2869C35.8436 10.7882 35.8939 9.69214 35.8939 9.69214C35.8939 9.69214 35.8436 7.50012 35.7432 6.07989C35.6427 4.65967 35.7181 3.28933 34.539 2.09487C33.3599 0.899097 30.1994 0.874157 29.0455 1.74572V1.74703Z" fill="white" stroke="#353A45" stroke-width="0.224191" stroke-linecap="round" stroke-linejoin="round"/>
<path d="M35.743 6.08185C35.6426 4.66162 35.7179 3.29259 34.5389 2.09682C33.3598 0.90105 30.1993 0.876111 29.0453 1.74767C29.0453 1.74767 27.1895 2.86862 26.9886 4.56187C26.8723 5.54631 27.06 6.57013 27.2926 7.39969C27.7196 7.14242 29.159 6.26167 30.7769 5.13547C32.7081 3.79006 33.336 1.69779 33.336 1.69779C33.336 1.69779 33.562 1.5731 33.5118 1.84743C33.4616 2.12176 32.7095 3.74018 32.4332 3.98958L32.1569 4.23897C32.1569 4.23897 32.383 4.18909 33.4113 5.4098C34.4397 6.63051 35.0174 7.12798 35.3174 7.27762C35.4113 7.32356 35.5963 7.35637 35.8157 7.37475C35.7959 6.92716 35.7721 6.47562 35.7444 6.08185H35.743Z" fill="#353A45" stroke="#353A45" stroke-width="0.224191" stroke-linecap="round" stroke-linejoin="round"/>
<path d="M32.6558 8.72224C32.6889 8.90469 32.6201 9.07008 32.5051 9.08977C32.3888 9.10946 32.2685 8.9782 32.2368 8.79575C32.2038 8.6133 32.2725 8.44791 32.3875 8.42822C32.5025 8.40854 32.6241 8.53979 32.6558 8.72224Z" fill="#353A45" stroke="#353A45" stroke-width="0.224191" stroke-linecap="round" stroke-linejoin="round"/>
<path d="M29.8453 9.12117C29.8783 9.30362 29.8096 9.46901 29.6946 9.4887C29.5783 9.50839 29.458 9.37713 29.4263 9.19468C29.3932 9.01223 29.462 8.84684 29.577 8.82715C29.6933 8.80746 29.8136 8.93872 29.8453 9.12117Z" fill="#353A45" stroke="#353A45" stroke-width="0.224191" stroke-linecap="round" stroke-linejoin="round"/>
<path d="M31.5049 7.60139C31.5049 7.60139 32.3323 6.95428 33.0858 7.47669" stroke="#353A45" stroke-width="0.224191" stroke-linecap="round" stroke-linejoin="round"/>
<path d="M29.8232 7.95084C29.8232 7.95084 28.8451 7.47699 28.167 8.32492" stroke="#353A45" stroke-width="0.224191" stroke-linecap="round" stroke-linejoin="round"/>
<path d="M29.999 7.97559C29.999 7.97559 30.6758 8.2998 30.726 8.92196" stroke="#353A45" stroke-width="0.224191" stroke-linecap="round" stroke-linejoin="round"/>
<path d="M30.752 10.6401C30.752 10.6401 31.0282 10.8397 31.5041 10.69" stroke="#353A45" stroke-width="0.224191" stroke-linecap="round" stroke-linejoin="round"/>
<path d="M30.5508 11.6866C30.5508 11.6866 31.3029 11.6866 32.1819 11.3125C33.0596 10.9384 33.4112 10.416 33.4112 10.416" stroke="#353A45" stroke-width="0.224191" stroke-linecap="round" stroke-linejoin="round"/>
<path d="M30.9769 11.6616C30.9769 11.6616 31.2532 11.9359 31.7039 11.9359C32.1547 11.9359 32.5565 11.1392 32.5565 11.1392C32.5565 11.1392 31.4025 11.6379 30.9756 11.6629L30.9769 11.6616Z" stroke="#353A45" stroke-width="0.224191" stroke-linecap="round" stroke-linejoin="round"/>
<path d="M36.1959 9.81862C36.8333 9.81862 37.3499 9.11048 37.3499 8.23695C37.3499 7.36341 36.8333 6.65527 36.1959 6.65527C35.5586 6.65527 35.042 7.36341 35.042 8.23695C35.042 9.11048 35.5586 9.81862 36.1959 9.81862Z" fill="#353A45" stroke="#353A45" stroke-width="0.224191" stroke-linecap="round" stroke-linejoin="round"/>
<path d="M36.6846 9.17005C37.0934 9.17005 37.4248 8.6294 37.4248 7.96247C37.4248 7.29554 37.0934 6.75488 36.6846 6.75488C36.2757 6.75488 35.9443 7.29554 35.9443 7.96247C35.9443 8.6294 36.2757 9.17005 36.6846 9.17005Z" fill="white" stroke="#353A45" stroke-width="0.224191" stroke-linecap="round" stroke-linejoin="round"/>
<path d="M27.71 9.9248C27.71 9.9248 27.7166 12.5119 28.3947 12.7364C29.0714 12.9608 30.9286 12.5119 30.9286 12.5119" stroke="#353A45" stroke-width="0.448381" stroke-linecap="round" stroke-linejoin="round"/>
<path d="M31.8814 12.5001C31.8814 12.6996 31.6342 12.8611 31.3289 12.8611C31.0235 12.8611 30.7764 12.6996 30.7764 12.5001C30.7764 12.3006 31.0235 12.1392 31.3289 12.1392C31.6342 12.1392 31.8814 12.3006 31.8814 12.5001Z" fill="#353A45" stroke="#353A45" stroke-width="0.224191" stroke-linecap="round" stroke-linejoin="round"/>
<path d="M32.0376 15.5317C32.0376 15.5317 31.2498 16.9086 30.688 21.0039C30.1262 25.0992 30.5003 25.9183 30.5003 25.9183L29.7125 26.4026C29.7125 26.4026 28.0628 26.2162 28.6259 22.3454C29.1877 18.4733 29.4878 17.8406 29.4878 17.8406L32.0376 15.5331V15.5317Z" fill="white" stroke="#353A45" stroke-width="0.224191" stroke-linecap="round" stroke-linejoin="round"/>
<path d="M37.0614 14.1185C37.0614 14.1185 35.2624 18.3621 33.388 21.0057C31.5137 23.6492 28.9639 27.4452 28.9639 27.4452C28.9639 27.4452 30.3135 26.8126 33.162 24.6901C36.0105 22.5676 38.8974 17.6914 39.1974 17.207C39.4975 16.7227 39.9469 15.6057 39.9469 15.6057L37.0601 14.1172L37.0614 14.1185Z" fill="white" stroke="#353A45" stroke-width="0.224191" stroke-linecap="round" stroke-linejoin="round"/>
<path d="M21.4894 32.9764C21.4894 32.9764 20.9527 33.3189 20.1094 33.6615C19.2661 34.0041 19.1881 33.9424 19.4578 34.2325C19.7274 34.5226 21.1444 34.0041 21.5277 33.8519C21.9111 33.6996 22.6394 33.4712 22.6394 33.4712C22.6394 33.4712 23.521 33.9661 24.0577 34.1183C24.5944 34.2706 25.246 34.0422 25.246 34.0422C25.246 34.0422 25.2844 33.4331 24.8244 33.0906C24.3644 32.748 23.3677 31.9486 23.0227 31.9867C22.6777 32.0247 21.4894 32.9764 21.4894 32.9764Z" fill="white" stroke="#353A45" stroke-width="0.224191" stroke-linecap="round" stroke-linejoin="round"/>
<path d="M21.2587 32.0627C21.2587 32.0627 20.7987 31.9485 20.4921 32.1769C20.1854 32.4053 19.8404 33.1286 19.8021 33.3189C19.7637 33.5092 19.8404 33.6234 20.1471 33.3569C20.4537 33.0905 20.9904 32.7098 20.9904 32.7098L21.4504 32.5576L21.2587 32.0627Z" fill="white" stroke="#353A45" stroke-width="0.224191" stroke-linecap="round" stroke-linejoin="round"/>
<path d="M22.4476 31.7201C22.4476 31.7201 21.5276 31.4156 21.336 31.6821C21.1443 31.9485 20.4926 33.4711 20.6843 33.5853C20.876 33.6995 21.1443 33.4711 21.4893 32.9763C21.8343 32.4814 22.026 32.215 22.026 32.215L22.486 32.1388L22.4476 31.7201Z" fill="white" stroke="#353A45" stroke-width="0.224191" stroke-linecap="round" stroke-linejoin="round"/>
<path d="M24.0904 32.0599C24.0904 32.0599 22.8902 31.1293 22.5915 31.3524C22.2914 31.5756 21.3172 33.0273 21.2049 33.3252C21.0925 33.6232 21.6173 33.4736 22.0297 33.1021C22.4421 32.7293 22.9299 32.3198 22.9299 32.3198L23.867 32.8041L24.0917 32.0599H24.0904Z" fill="white" stroke="#353A45" stroke-width="0.224191" stroke-linecap="round" stroke-linejoin="round"/>
<path d="M28.4004 32.7678C28.4004 32.7678 26.8261 32.693 26.189 32.4699C25.5519 32.2467 24.2777 31.7624 23.9023 31.8005C23.5269 31.8372 22.1032 33.2154 21.8032 33.5134C21.5031 33.8114 21.5335 33.8914 21.8336 33.9282C22.1336 33.9649 22.8527 33.4753 23.1911 33.2154C23.5282 32.9542 23.8652 32.8059 23.8652 32.8059C23.8652 32.8059 24.39 33.5501 24.7654 33.8849C25.1408 34.2196 26.0396 34.4808 26.378 34.4427C26.7151 34.406 27.0152 34.3311 27.0152 34.3311L28.2894 34.2944L28.4017 32.7678H28.4004Z" fill="white" stroke="#353A45" stroke-width="0.224191" stroke-linecap="round" stroke-linejoin="round"/>
<path d="M39.348 22.0083C39.348 22.0083 37.9614 23.6097 38.0354 24.1675C38.1108 24.7254 38.1478 25.2846 38.1478 25.2846L37.1353 31.3527C37.1353 31.3527 36.2734 30.9431 36.2734 31.2778V31.6126L28.1759 32.4316L28.1006 35.2602L40.9963 35.297C40.9963 35.297 41.6334 34.5895 41.7088 34.3296C41.7841 34.0684 43.2077 29.5649 43.5831 24.837C43.9585 20.109 43.7708 17.9879 43.5831 17.6151C43.3954 17.2423 41.184 16.5361 41.184 16.5361" fill="white"/>
<path d="M39.348 22.0083C39.348 22.0083 37.9614 23.6097 38.0354 24.1675C38.1108 24.7254 38.1478 25.2846 38.1478 25.2846L37.1353 31.3527C37.1353 31.3527 36.2734 30.9431 36.2734 31.2778V31.6126L28.1759 32.4316L28.1006 35.2602L40.9963 35.297C40.9963 35.297 41.6334 34.5895 41.7088 34.3296C41.7841 34.0684 43.2077 29.5649 43.5831 24.837C43.9585 20.109 43.7708 17.9879 43.5831 17.6151C43.3954 17.2423 41.184 16.5361 41.184 16.5361" stroke="#353A45" stroke-width="0.224191" stroke-linecap="round" stroke-linejoin="round"/>
<path d="M37.4355 31.3164C37.4355 31.3164 38.6358 32.0987 39.3469 32.2838L37.4355 31.3164Z" fill="white"/>
<path d="M37.4355 31.3164C37.4355 31.3164 38.6358 32.0987 39.3469 32.2838" stroke="#353A45" stroke-width="0.224191" stroke-linecap="round" stroke-linejoin="round"/>
<path d="M26.1922 23.7661L27.1174 20.822C27.1174 20.822 27.7043 20.268 28.0943 19.6026C28.4842 18.9371 28.4855 17.6901 28.4287 17.4683C28.3732 17.2465 29.2376 16.2489 29.4901 15.8879C29.7413 15.527 29.8814 14.8904 29.5456 14.4191C29.2112 13.9479 29.0433 14.7237 28.8199 15.0846C28.5966 15.4456 27.8154 15.8052 27.8154 15.8052L26.9773 16.4707C26.9773 16.4707 25.6092 17.6625 25.526 17.8292C25.4427 17.9959 25.2748 18.5223 25.2748 18.5223L25.3858 20.1302L24.6602 22.93L26.1908 23.7674L26.1922 23.7661Z" fill="white" stroke="#353A45" stroke-width="0.224191" stroke-linecap="round" stroke-linejoin="round"/>
<path d="M26.4199 15.498C26.4199 15.498 27.0901 14.444 27.2857 14.1119C27.4813 13.7798 27.788 12.4488 27.9836 12.5315C28.1793 12.6142 28.3749 13.0579 28.3181 13.6407C28.2625 14.2235 27.5646 15.5531 27.5646 15.5531L26.4199 15.498Z" stroke="#353A45" stroke-width="0.224191" stroke-linecap="round" stroke-linejoin="round"/>
<path d="M24.7998 22.0961L25.3867 20.1272L25.1355 16.9665L25.9167 15.4689L28.066 15.1919C28.066 15.1919 29.3786 15.8849 29.4896 15.8849C29.6007 15.8849 29.4896 16.1895 29.2385 16.2459C28.9874 16.301 28.5128 16.1632 28.5128 16.1632L29.3218 16.6896C29.3218 16.6896 29.2663 16.939 29.0706 16.9941C28.875 17.0492 28.4837 17.0492 28.4837 17.0492C28.4837 17.0492 29.1817 17.4929 29.0138 17.5756C28.8459 17.6583 28.6503 17.6858 28.4837 17.6858H27.9537L27.5347 17.6307L26.8923 17.8801C26.8923 17.8801 27.339 19.0168 27.3113 19.5707C27.2835 20.1246 26.5856 20.4856 26.5856 20.4856" fill="white"/>
<path d="M24.7998 22.0961L25.3867 20.1272L25.1355 16.9665L25.9167 15.4689L28.066 15.1919C28.066 15.1919 29.3786 15.8849 29.4896 15.8849C29.6007 15.8849 29.4896 16.1895 29.2385 16.2459C28.9874 16.301 28.5128 16.1632 28.5128 16.1632L29.3218 16.6896C29.3218 16.6896 29.2663 16.939 29.0706 16.9941C28.875 17.0492 28.4837 17.0492 28.4837 17.0492C28.4837 17.0492 29.1817 17.4929 29.0138 17.5756C28.8459 17.6583 28.6503 17.6858 28.4837 17.6858H27.9537L27.5347 17.6307L26.8923 17.8801C26.8923 17.8801 27.339 19.0168 27.3113 19.5707C27.2835 20.1246 26.5856 20.4856 26.5856 20.4856" stroke="#353A45" stroke-width="0.224191" stroke-linecap="round" stroke-linejoin="round"/>
<path d="M28.5134 16.1637C28.5134 16.1637 28.0666 15.8027 27.8154 15.8027C27.5643 15.8027 26.0283 16.0797 26.0283 16.0797" stroke="#353A45" stroke-width="0.224191" stroke-linecap="round" stroke-linejoin="round"/>
<path d="M28.4855 17.0506C28.4855 17.0506 27.7598 16.6621 27.5365 16.6621C27.3131 16.6621 25.5537 17.1058 25.5537 17.1058" stroke="#353A45" stroke-width="0.224191" stroke-linecap="round" stroke-linejoin="round"/>
<path d="M24.8365 21.478L27.1035 22.9941C27.1035 22.9941 26.0949 28.377 25.9945 28.8364C25.8953 29.2958 25.167 30.5113 24.8035 30.8736C24.44 31.2345 24.0091 31.1689 23.0164 30.9064C22.0237 30.6438 21.1632 29.855 21.1962 28.8364C21.2293 27.8178 24.8352 21.478 24.8352 21.478H24.8365Z" fill="white" stroke="#353A45" stroke-width="0.224191" stroke-linecap="round" stroke-linejoin="round"/>
<path d="M13.1192 34.5229H12.4609V34.7238H13.1192V34.5229Z" fill="white" stroke="#353A45" stroke-width="0.224191" stroke-linecap="round" stroke-linejoin="round"/>
<path d="M14.0313 34.5229H13.373V34.7238H14.0313V34.5229Z" fill="white" stroke="#353A45" stroke-width="0.224191" stroke-linecap="round" stroke-linejoin="round"/>
<path d="M14.9434 34.5229H14.2852V34.7238H14.9434V34.5229Z" fill="white" stroke="#353A45" stroke-width="0.224191" stroke-linecap="round" stroke-linejoin="round"/>
<path d="M15.8546 34.5229H15.1963V34.7238H15.8546V34.5229Z" fill="white" stroke="#353A45" stroke-width="0.224191" stroke-linecap="round" stroke-linejoin="round"/>
<path d="M16.7676 34.5229H16.1094V34.7238H16.7676V34.5229Z" fill="white" stroke="#353A45" stroke-width="0.224191" stroke-linecap="round" stroke-linejoin="round"/>
<path d="M17.6798 34.5229H17.0215V34.7238H17.6798V34.5229Z" fill="white" stroke="#353A45" stroke-width="0.224191" stroke-linecap="round" stroke-linejoin="round"/>
<path d="M18.5928 34.5229H17.9346V34.7238H18.5928V34.5229Z" fill="white" stroke="#353A45" stroke-width="0.224191" stroke-linecap="round" stroke-linejoin="round"/>
<path d="M19.5049 34.5229H18.8467V34.7238H19.5049V34.5229Z" fill="white" stroke="#353A45" stroke-width="0.224191" stroke-linecap="round" stroke-linejoin="round"/>
<path d="M20.4161 34.5229H19.7578V34.7238H20.4161V34.5229Z" fill="white" stroke="#353A45" stroke-width="0.224191" stroke-linecap="round" stroke-linejoin="round"/>
<path d="M21.3292 34.5229H20.6709V34.7238H21.3292V34.5229Z" fill="white" stroke="#353A45" stroke-width="0.224191" stroke-linecap="round" stroke-linejoin="round"/>
<path d="M22.2413 34.5229H21.583V34.7238H22.2413V34.5229Z" fill="white" stroke="#353A45" stroke-width="0.224191" stroke-linecap="round" stroke-linejoin="round"/>
<path d="M23.1524 34.5229H22.4941V34.7238H23.1524V34.5229Z" fill="white" stroke="#353A45" stroke-width="0.224191" stroke-linecap="round" stroke-linejoin="round"/>
<path d="M24.0665 34.5229H23.4082V34.7238H24.0665V34.5229Z" fill="white" stroke="#353A45" stroke-width="0.224191" stroke-linecap="round" stroke-linejoin="round"/>
<path d="M24.9786 34.5229H24.3203V34.7238H24.9786V34.5229Z" fill="white" stroke="#353A45" stroke-width="0.224191" stroke-linecap="round" stroke-linejoin="round"/>
<path d="M25.8907 34.5229H25.2324V34.7238H25.8907V34.5229Z" fill="white" stroke="#353A45" stroke-width="0.224191" stroke-linecap="round" stroke-linejoin="round"/>
<path d="M26.8028 34.5229H26.1445V34.7238H26.8028V34.5229Z" fill="white" stroke="#353A45" stroke-width="0.224191" stroke-linecap="round" stroke-linejoin="round"/>
<path d="M28.3911 34.6802H12.0811V35.2498H28.3911V34.6802Z" fill="white" stroke="#353A45" stroke-width="0.224191" stroke-linecap="round" stroke-linejoin="round"/>
<path d="M28.3919 34.6802H22.1396V35.2498H28.3919V34.6802Z" fill="white" stroke="#353A45" stroke-width="0.224191" stroke-linecap="round" stroke-linejoin="round"/>
<path d="M17.1717 29.6924H4.3487L1.77246 16.1504H14.5955L17.1717 29.6924Z" fill="#353A45" stroke="white" stroke-width="0.224191" stroke-linecap="round" stroke-linejoin="round"/>
<path d="M16.7803 29.3488H4.34186L1.89648 16.4946H14.3362L16.7803 29.3488Z" fill="#353A45" stroke="white" stroke-width="0.224191" stroke-linecap="round" stroke-linejoin="round"/>
<path d="M14.3853 28.3259H5.13782L3.32031 18.7676H12.5678L14.3853 28.3259Z" fill="#353A45" stroke="white" stroke-width="0.224191" stroke-linecap="round" stroke-linejoin="round"/>
<path d="M3.32009 18.768L1.89648 16.4946" stroke="#353A45" stroke-width="0.224191" stroke-linecap="round" stroke-linejoin="round"/>
<path d="M12.5674 18.768L14.336 16.4946" stroke="white" stroke-width="0.224191" stroke-linecap="round" stroke-linejoin="round"/>
<path d="M14.3857 28.3262L16.7809 29.3487" stroke="white" stroke-width="0.224191" stroke-linecap="round" stroke-linejoin="round"/>
<path d="M5.13754 28.3262L4.3418 29.3487" stroke="#353A45" stroke-width="0.224191" stroke-linecap="round" stroke-linejoin="round"/>
<path d="M8.89864 25.4633H6.79297L8.1333 24.2754H10.2376L8.89864 25.4633Z" fill="#353A45" stroke="white" stroke-width="0.224191" stroke-linecap="round" stroke-linejoin="round"/>
<path d="M15.8843 34.5386H8.18066V35.2986H15.8843V34.5386Z" fill="#353A45" stroke="white" stroke-width="0.224191" stroke-linecap="round" stroke-linejoin="round"/>
<path d="M11.4815 35.2986H9.37714L6.79297 32.3833H8.89864L11.4815 35.2986Z" fill="#353A45" stroke="white" stroke-width="0.224191" stroke-linecap="round" stroke-linejoin="round"/>
<path d="M8.89864 25.5107H6.79297V32.352H8.89864V25.5107Z" fill="#353A45" stroke="white" stroke-width="0.224191" stroke-linecap="round" stroke-linejoin="round"/>
<path d="M39.7275 33.9961C39.7275 33.9961 40.1029 34.7784 41.0401 35.2614L39.7275 33.9961Z" fill="white"/>
<path d="M39.7275 33.9961C39.7275 33.9961 40.1029 34.7784 41.0401 35.2614" stroke="#353A45" stroke-width="0.224191" stroke-linecap="round" stroke-linejoin="round"/>
<path d="M0.158203 35.2983H60.4599" stroke="#353A45" stroke-width="0.224191" stroke-linecap="round" stroke-linejoin="round"/>
</g>
</g>
<defs>
<clipPath id="clip0_2829_10949">
<rect width="60.9798" height="60.9798" fill="white" transform="translate(0.0927734 -17.5317)"/>
</clipPath>
<clipPath id="clip1_2829_10949">
<rect width="60.9798" height="56.0476" fill="white" transform="translate(0.0927734 -15.0654)"/>
</clipPath>
</defs>
</svg>
