<svg width="62" height="36" viewBox="0 0 62 36" fill="none" xmlns="http://www.w3.org/2000/svg">
<g style="mix-blend-mode:luminosity" opacity="0.6">
<g clip-path="url(#clip0_2829_12121)">
<mask id="mask0_2829_12121" style="mask-type:luminance" maskUnits="userSpaceOnUse" x="38" y="22" width="23" height="5">
<path d="M48.3086 22.3989C49.1295 22.2403 49.6086 22.5272 49.8857 22.8452C50.026 23.0063 50.1167 23.1774 50.1719 23.3091C50.1994 23.3748 50.2178 23.4306 50.2295 23.4692C50.2353 23.4883 50.2396 23.5032 50.2422 23.5132C50.2435 23.5182 50.2446 23.5225 50.2451 23.5249V23.5278L50.2676 23.6304L50.3613 23.5815V23.5806L50.373 23.5747C50.3818 23.5704 50.3953 23.5641 50.4131 23.5562C50.449 23.54 50.5033 23.517 50.5732 23.4917C50.7132 23.4412 50.9183 23.38 51.1748 23.3394C51.6878 23.2581 52.4089 23.2579 53.2383 23.5845C54.0517 23.9049 54.3752 24.5314 54.4961 25.0835C54.5566 25.36 54.5654 25.617 54.5596 25.8052C54.5566 25.8992 54.5499 25.9762 54.5439 26.0288C54.541 26.055 54.5381 26.0758 54.5361 26.0894C54.5352 26.0958 54.5347 26.1008 54.5342 26.104C54.5339 26.1057 54.5333 26.1072 54.5332 26.1079V26.1089L54.5166 26.2056L54.6152 26.2026H54.6182C54.6205 26.2026 54.6243 26.2018 54.6289 26.2017C54.638 26.2014 54.6515 26.2011 54.6689 26.2007C54.7046 26.1997 54.7572 26.1991 54.8242 26.1978C54.9585 26.1951 55.1517 26.1924 55.3857 26.1919C55.8542 26.1909 56.4878 26.1982 57.1465 26.2339C57.8056 26.2696 58.4881 26.3334 59.0566 26.4429C59.3409 26.4976 59.5946 26.5634 59.8018 26.6421C59.9103 26.6834 60.004 26.7282 60.082 26.7749H38.5957C38.6034 26.7663 38.61 26.7558 38.6191 26.7466C38.7061 26.6581 38.8595 26.5381 39.1201 26.4282C39.6422 26.2082 40.5949 26.0266 42.3018 26.2075L42.3438 26.2114L42.3711 26.1802L42.3721 26.1792C42.3728 26.1784 42.3736 26.1769 42.375 26.1753C42.3781 26.1718 42.3833 26.1666 42.3896 26.1597C42.4023 26.1458 42.4211 26.1252 42.4463 26.0991C42.4969 26.0466 42.5726 25.971 42.6709 25.8804C42.8675 25.6992 43.1557 25.4571 43.5205 25.2153C44.2511 24.7313 45.2853 24.2506 46.5098 24.2505H46.5859L46.5898 24.1743V24.1714C46.59 24.1691 46.5904 24.1655 46.5908 24.1606C46.5917 24.1505 46.594 24.1347 46.5967 24.1147C46.602 24.0748 46.6115 24.0167 46.6279 23.9458C46.661 23.8035 46.7217 23.6095 46.834 23.4067C47.0573 23.0036 47.4847 22.5581 48.3086 22.3989Z" fill="white" stroke="white" stroke-width="0.159874"/>
</mask>
<g mask="url(#mask0_2829_12121)">
<path opacity="0.5" d="M42.3105 26.1276C42.3105 26.1276 44.0185 24.1701 46.5101 24.1701C46.5101 24.1701 46.5929 22.649 48.2933 22.3205C49.9937 21.9919 50.3235 23.5105 50.3235 23.5105C50.3235 23.5105 51.5775 22.8446 53.2679 23.5105C54.9583 24.1764 54.6122 26.1226 54.6122 26.1226C54.6122 26.1226 59.4802 25.9633 60.3153 26.8549H38.4395C38.4395 26.8549 38.8809 25.7639 42.3105 26.1276Z" stroke="#083044" stroke-width="0.159874" stroke-linecap="round" stroke-linejoin="round"/>
</g>
<path d="M42.3105 26.1276C42.3105 26.1276 44.0185 24.1701 46.5101 24.1701C46.5101 24.1701 46.5929 22.649 48.2933 22.3205C49.9937 21.9919 50.3235 23.5105 50.3235 23.5105C50.3235 23.5105 51.5775 22.8446 53.2679 23.5105C54.9583 24.1764 54.6122 26.1226 54.6122 26.1226C54.6122 26.1226 59.4802 25.9633 60.3153 26.8549H38.4395C38.4395 26.8549 38.8809 25.7639 42.3105 26.1276Z" stroke="#083044" stroke-width="0.159874" stroke-linecap="round" stroke-linejoin="round"/>
<mask id="mask1_2829_12121" style="mask-type:luminance" maskUnits="userSpaceOnUse" x="4" y="10" width="23" height="6">
<path d="M14.4209 10.6333C15.2419 10.4753 15.7216 10.761 15.999 11.0786C16.1396 11.2395 16.2299 11.4109 16.2852 11.5425C16.3126 11.6079 16.3311 11.6631 16.3428 11.7017C16.3486 11.7209 16.3529 11.7366 16.3555 11.7466C16.3567 11.7514 16.3578 11.755 16.3584 11.7573L16.3594 11.7603L16.3818 11.8638L16.4746 11.814L16.4775 11.813C16.4796 11.8119 16.483 11.8102 16.4873 11.8081C16.4961 11.8038 16.5096 11.7966 16.5273 11.7886C16.5632 11.7725 16.6169 11.7503 16.6865 11.7251C16.8264 11.6745 17.0314 11.6135 17.2881 11.5728C17.801 11.4914 18.5217 11.4912 19.3506 11.8179C20.1632 12.1382 20.487 12.7639 20.6084 13.3159C20.6692 13.5927 20.6785 13.8503 20.6729 14.0386C20.67 14.1323 20.6641 14.2086 20.6582 14.2612C20.6553 14.2875 20.6524 14.3082 20.6504 14.3218C20.6494 14.3286 20.648 14.3341 20.6475 14.3374V14.3413L20.6299 14.439L20.7285 14.4351H20.7422C20.7513 14.4348 20.7654 14.4346 20.7832 14.4341C20.8189 14.4331 20.8716 14.4315 20.9385 14.4302C21.0727 14.4276 21.2653 14.4248 21.499 14.4243C21.9673 14.4233 22.6004 14.4315 23.2588 14.4673C23.9177 14.5031 24.6005 14.5667 25.1689 14.6763C25.4531 14.7311 25.707 14.7967 25.9141 14.8755C26.0231 14.917 26.1171 14.9623 26.1953 15.0093H4.70801C4.71584 15.0006 4.72219 14.9894 4.73145 14.98C4.81848 14.8914 4.97183 14.7716 5.23242 14.6616C5.75468 14.4412 6.70825 14.2589 8.41602 14.4399L8.45703 14.4438L8.48438 14.4126L8.48535 14.4116C8.48608 14.4108 8.48686 14.4093 8.48828 14.4077C8.49138 14.4042 8.49659 14.399 8.50293 14.3921C8.5156 14.3782 8.53444 14.3576 8.55957 14.3315C8.61012 14.2791 8.686 14.2043 8.78418 14.1138C8.98075 13.9325 9.26887 13.6906 9.63379 13.4487C10.3642 12.9646 11.3981 12.483 12.6221 12.4829H12.6982L12.7021 12.4077V12.4048C12.7023 12.4024 12.7027 12.3981 12.7031 12.3931C12.7041 12.3829 12.7063 12.3671 12.709 12.3472C12.7143 12.3072 12.7238 12.2491 12.7402 12.1782C12.7733 12.036 12.8341 11.8428 12.9463 11.6401C13.1695 11.2371 13.5968 10.7919 14.4209 10.6333Z" fill="white" stroke="white" stroke-width="0.159874"/>
</mask>
<g mask="url(#mask1_2829_12121)">
<path opacity="0.5" d="M8.42409 14.3604C8.42409 14.3604 10.132 12.403 12.6225 12.403C12.6225 12.403 12.7052 10.8819 14.4056 10.5546C16.106 10.2273 16.4371 11.7434 16.4371 11.7434C16.4371 11.7434 17.6911 11.0775 19.3802 11.7434C21.0693 12.4092 20.7257 14.3554 20.7257 14.3554C20.7257 14.3554 25.5925 14.1962 26.4276 15.089H4.55176C4.55176 15.089 4.99316 13.9968 8.42409 14.3604Z" stroke="#083044" stroke-width="0.159874" stroke-linecap="round" stroke-linejoin="round"/>
</g>
<path d="M8.42409 14.3604C8.42409 14.3604 10.132 12.403 12.6225 12.403C12.6225 12.403 12.7052 10.8819 14.4056 10.5546C16.106 10.2273 16.4371 11.7434 16.4371 11.7434C16.4371 11.7434 17.6911 11.0775 19.3802 11.7434C21.0693 12.4092 20.7257 14.3554 20.7257 14.3554C20.7257 14.3554 25.5925 14.1962 26.4276 15.089H4.55176C4.55176 15.089 4.99316 13.9968 8.42409 14.3604Z" stroke="#083044" stroke-width="0.159874" stroke-linecap="round" stroke-linejoin="round"/>
<mask id="mask2_2829_12121" style="mask-type:luminance" maskUnits="userSpaceOnUse" x="2" y="32" width="19" height="5">
<path d="M10.8994 32.9004C11.1172 32.6513 11.4941 32.425 12.1426 32.5498C12.794 32.6753 13.1306 33.0278 13.3066 33.3457C13.3952 33.5057 13.4436 33.6581 13.4697 33.7705C13.4828 33.8266 13.49 33.8728 13.4941 33.9043C13.4962 33.9197 13.4983 33.9316 13.499 33.9395V33.9502L13.5039 34.0264H13.5791C14.5512 34.0264 15.3738 34.4078 15.9551 34.793C16.2453 34.9853 16.4745 35.1782 16.6309 35.3223C16.7089 35.3942 16.7685 35.4545 16.8086 35.4961C16.8285 35.5168 16.8435 35.533 16.8535 35.5439C16.8584 35.5493 16.8628 35.5529 16.8652 35.5557L16.8682 35.5596L16.8955 35.5908L16.9375 35.5869C18.2971 35.443 19.0538 35.5885 19.4668 35.7627C19.6677 35.8474 19.7868 35.9394 19.8555 36.0078H2.81445C2.86307 35.9825 2.91811 35.9569 2.97949 35.9336C3.14307 35.8714 3.34438 35.8189 3.57031 35.7754C4.02245 35.6884 4.5662 35.638 5.0918 35.6094C5.61702 35.5808 6.12228 35.5745 6.49609 35.5752C6.68255 35.5755 6.83624 35.5771 6.94336 35.5791C6.99671 35.5801 7.03893 35.5813 7.06738 35.582C7.08161 35.5824 7.09329 35.5828 7.10059 35.583H7.11133L7.20898 35.5869L7.19238 35.4902V35.4893C7.19229 35.4887 7.19159 35.4875 7.19141 35.4863C7.191 35.4838 7.19115 35.4797 7.19043 35.4746C7.18891 35.4639 7.18682 35.4475 7.18457 35.4268C7.18007 35.3851 7.17486 35.3243 7.17285 35.25C7.16884 35.1007 7.17694 34.8969 7.22559 34.6777C7.32263 34.2406 7.57856 33.7469 8.21875 33.4941C8.87525 33.2351 9.44731 33.2354 9.85449 33.2998C10.0581 33.332 10.221 33.3799 10.332 33.4199C10.3875 33.4399 10.4306 33.458 10.459 33.4707C10.4729 33.477 10.4834 33.482 10.4902 33.4854C10.4937 33.487 10.4965 33.4885 10.498 33.4893L10.499 33.4902H10.5L10.5928 33.5391L10.6152 33.4365V33.4346C10.6157 33.4328 10.6172 33.4297 10.6182 33.4258C10.6202 33.418 10.6234 33.4065 10.6279 33.3916C10.6371 33.3613 10.6511 33.3173 10.6729 33.2656C10.7165 33.1618 10.7887 33.0271 10.8994 32.9004Z" fill="white" stroke="white" stroke-width="0.159874"/>
</mask>
<g mask="url(#mask2_2829_12121)">
<path opacity="0.5" d="M16.9287 35.5073C16.9287 35.5073 15.5656 33.9461 13.5792 33.9461C13.5792 33.9461 13.5128 32.7323 12.1572 32.4714C10.8016 32.2106 10.5371 33.4195 10.5371 33.4195C10.5371 33.4195 9.53386 32.889 8.18958 33.4195C6.8453 33.9499 7.11366 35.5036 7.11366 35.5036C7.11366 35.5036 3.22628 35.3782 2.56543 36.0879H20.016C20.016 36.0879 19.6636 35.2177 16.9287 35.5073Z" stroke="#083044" stroke-width="0.159874" stroke-linecap="round" stroke-linejoin="round"/>
</g>
<path d="M16.9287 35.5073C16.9287 35.5073 15.5656 33.9461 13.5792 33.9461C13.5792 33.9461 13.5128 32.7323 12.1572 32.4714C10.8016 32.2106 10.5371 33.4195 10.5371 33.4195C10.5371 33.4195 9.53386 32.889 8.18958 33.4195C6.8453 33.9499 7.11366 35.5036 7.11366 35.5036C7.11366 35.5036 3.22628 35.3782 2.56543 36.0879H20.016C20.016 36.0879 19.6636 35.2177 16.9287 35.5073Z" stroke="#083044" stroke-width="0.159874" stroke-linecap="round" stroke-linejoin="round"/>
<mask id="mask3_2829_12121" style="mask-type:luminance" maskUnits="userSpaceOnUse" x="19" y="27" width="11" height="3">
<path d="M24.0898 27.479C24.4636 27.407 24.6758 27.5366 24.7979 27.6763C24.8606 27.7481 24.9018 27.8249 24.9268 27.8843C24.9392 27.9139 24.948 27.9395 24.9531 27.9565C24.9556 27.9646 24.9569 27.971 24.958 27.9751C24.9585 27.9772 24.9588 27.9791 24.959 27.98V27.981L24.9805 28.0757L25.0693 28.0366C25.4942 27.8523 25.9755 27.8523 26.4004 28.0366L26.4023 28.0376C26.7698 28.1824 26.9161 28.4649 26.9717 28.7173C26.9996 28.844 27.0045 28.9625 27.002 29.0493C27.0007 29.0924 26.9978 29.1279 26.9951 29.1519L26.9902 29.186V29.187L26.9736 29.2847L27.0713 29.2808H27.0967C27.1135 29.2803 27.1392 29.2794 27.1709 29.2788C27.2343 29.2776 27.3252 29.2762 27.4355 29.2759C27.6569 29.2753 27.9558 29.2786 28.2666 29.2954C28.578 29.3123 28.8995 29.3426 29.166 29.394C29.2737 29.4148 29.3706 29.4407 29.4541 29.4683H19.5918C19.6297 29.4422 19.6794 29.4133 19.7441 29.3862C19.9836 29.2861 20.4284 29.2 21.2324 29.2856L21.2734 29.2905L21.3008 29.2583L21.3027 29.2563C21.3041 29.2548 21.306 29.2524 21.3086 29.2495C21.3143 29.2432 21.3234 29.2342 21.335 29.2222C21.3584 29.1978 21.3935 29.162 21.4395 29.1196C21.5313 29.035 21.6663 28.9222 21.8369 28.8091C22.1791 28.5823 22.6615 28.3579 23.2305 28.3579H23.3027L23.3096 28.2866C23.3511 27.8706 23.6723 27.5376 24.0859 27.48L24.0898 27.479Z" fill="white" stroke="white" stroke-width="0.159874"/>
</mask>
<g mask="url(#mask3_2829_12121)">
<path opacity="0.5" d="M21.2404 29.2062C21.2404 29.2062 22.0505 28.2782 23.2305 28.2782C23.2756 27.8256 23.6243 27.4631 24.0744 27.4005C24.8808 27.245 25.0375 27.9635 25.0375 27.9635C25.4827 27.7704 25.9868 27.7704 26.4319 27.9635C27.2307 28.2782 27.069 29.2012 27.069 29.2012C27.069 29.2012 29.3751 29.1247 29.7701 29.5485H19.4033C19.4033 29.5485 19.6165 29.0331 21.2404 29.2062Z" stroke="#083044" stroke-width="0.159874" stroke-linecap="round" stroke-linejoin="round"/>
</g>
<path d="M21.2404 29.2062C21.2404 29.2062 22.0505 28.2782 23.2305 28.2782C23.2756 27.8256 23.6243 27.4631 24.0744 27.4005C24.8808 27.245 25.0375 27.9635 25.0375 27.9635C25.4827 27.7704 25.9868 27.7704 26.4319 27.9635C27.2307 28.2782 27.069 29.2012 27.069 29.2012C27.069 29.2012 29.3751 29.1247 29.7701 29.5485H19.4033C19.4033 29.5485 19.6165 29.0331 21.2404 29.2062Z" stroke="#083044" stroke-width="0.159874" stroke-linecap="round" stroke-linejoin="round"/>
<path d="M31.4423 12.109C26.9556 12.5617 21.9408 13.5699 21.9408 13.5699L21.2725 13.3969C24.4601 12.1429 31.4423 10.3008 31.4423 10.3008C31.4423 10.3008 38.4246 12.1441 41.6122 13.3969L40.9438 13.5699C40.9438 13.5699 35.9291 12.5617 31.4423 12.109Z" fill="#D6DAE1"/>
<mask id="mask4_2829_12121" style="mask-type:luminance" maskUnits="userSpaceOnUse" x="21" y="10" width="21" height="4">
<path d="M31.4423 12.109C26.9556 12.5617 21.9408 13.5699 21.9408 13.5699L21.2725 13.3969C24.4601 12.1429 31.4423 10.3008 31.4423 10.3008C31.4423 10.3008 38.4246 12.1441 41.6122 13.3969L40.9438 13.5699C40.9438 13.5699 35.9291 12.5617 31.4423 12.109Z" fill="white"/>
</mask>
<g mask="url(#mask4_2829_12121)">
<path opacity="0.2" d="M41.4302 13.4448L40.9436 13.5702C40.9436 13.5702 35.9277 12.567 31.4421 12.1093C26.9554 12.5607 21.9407 13.5702 21.9407 13.5702L21.4541 13.4448C25.2976 12.2046 31.4421 10.6973 31.4421 10.6973C31.4421 10.6973 37.5867 12.2046 41.4302 13.4448Z" fill="black"/>
</g>
<path d="M31.4423 12.109C26.9556 12.5617 21.9408 13.5699 21.9408 13.5699L21.2725 13.3969C24.4601 12.1429 31.4423 10.3008 31.4423 10.3008C31.4423 10.3008 38.4246 12.1441 41.6122 13.3969L40.9438 13.5699C40.9438 13.5699 35.9291 12.5617 31.4423 12.109Z" stroke="#263238" stroke-width="0.159874" stroke-linecap="round" stroke-linejoin="round"/>
<path d="M39.7021 12.9155C40.1498 13.0597 40.5687 13.2039 40.9436 13.3431" stroke="#263238" stroke-width="0.159874" stroke-linecap="round" stroke-linejoin="round"/>
<path d="M32.3711 10.918C33.8934 11.2866 36.987 12.0591 39.3934 12.8165" stroke="#263238" stroke-width="0.159874" stroke-linecap="round" stroke-linejoin="round"/>
<path d="M24.6885 12.4867C27.0134 11.8108 30.3314 10.8728 31.4412 10.6973" stroke="#263238" stroke-width="0.159874" stroke-linecap="round" stroke-linejoin="round"/>
<path d="M22.9863 12.9856L24.1387 12.647" stroke="#263238" stroke-width="0.159874" stroke-linecap="round" stroke-linejoin="round"/>
<path d="M22.2744 13.1972L22.5102 13.127" stroke="#263238" stroke-width="0.159874" stroke-linecap="round" stroke-linejoin="round"/>
<path d="M35.2666 16.2646C35.2666 16.2646 46.9751 18.1155 58.6097 20.5558C58.394 20.7891 58.093 20.9257 57.7745 20.932C57.2002 20.9659 46.8648 20.132 36.7488 19.6617L35.2666 16.2646Z" fill="#D6DAE1"/>
<mask id="mask5_2829_12121" style="mask-type:luminance" maskUnits="userSpaceOnUse" x="35" y="16" width="24" height="5">
<path d="M35.2666 16.2646C35.2666 16.2646 46.9751 18.1155 58.6097 20.5558C58.394 20.7891 58.093 20.9257 57.7745 20.932C57.2002 20.9659 46.8648 20.132 36.7488 19.6617L35.2666 16.2646Z" fill="white"/>
</mask>
<g mask="url(#mask5_2829_12121)">
<path opacity="0.2" d="M35.9111 17.7406L36.7475 19.6567C46.8698 20.1257 57.2002 20.9609 57.7745 20.9258C57.9049 20.9182 58.0341 20.8919 58.1582 20.8493C58.0667 20.7364 57.94 20.6574 57.7983 20.6248C56.0427 20.2135 47.4805 18.2823 36.019 16.9443L35.9111 17.7406Z" fill="black"/>
</g>
<path d="M35.2666 16.2646C35.2666 16.2646 46.9751 18.1155 58.6097 20.5558C58.394 20.7891 58.093 20.9257 57.7745 20.932C57.2002 20.9659 46.8648 20.132 36.7488 19.6617L35.2666 16.2646Z" stroke="#263238" stroke-width="0.159874" stroke-linecap="round" stroke-linejoin="round"/>
<path d="M38.5059 19.7397C38.5059 19.7397 39.1492 19.2457 39.3398 19.119C39.5304 18.9923 39.4438 20.5812 39.0965 20.7003C38.7491 20.8194 38.5059 19.7397 38.5059 19.7397Z" fill="#D6DAE1" stroke="#263238" stroke-width="0.159874" stroke-linecap="round" stroke-linejoin="round"/>
<path d="M45.9141 20.1599C45.9141 20.1599 46.3655 19.6808 46.4871 19.6946C46.6088 19.7084 46.4019 20.9724 46.2012 21.0013C46.0006 21.0301 45.9141 20.1599 45.9141 20.1599Z" fill="#D6DAE1" stroke="#263238" stroke-width="0.159874" stroke-linecap="round" stroke-linejoin="round"/>
<path d="M27.6175 16.2646C27.6175 16.2646 15.909 18.1155 4.27441 20.5558C4.4901 20.7891 4.79106 20.9257 5.10957 20.932C5.6839 20.9659 16.0193 20.132 26.1353 19.6617L27.6175 16.2646Z" fill="#D6DAE1"/>
<mask id="mask6_2829_12121" style="mask-type:luminance" maskUnits="userSpaceOnUse" x="4" y="16" width="24" height="5">
<path d="M27.6175 16.2646C27.6175 16.2646 15.909 18.1155 4.27441 20.5558C4.4901 20.7891 4.79106 20.9257 5.10957 20.932C5.6839 20.9659 16.0193 20.132 26.1353 19.6617L27.6175 16.2646Z" fill="white"/>
</mask>
<g mask="url(#mask6_2829_12121)">
<path opacity="0.2" d="M26.9729 17.7406L26.1365 19.6567C16.0181 20.1257 5.68391 20.9609 5.10833 20.9258C4.97792 20.9182 4.84875 20.8919 4.72461 20.8493C4.81615 20.7364 4.9428 20.6574 5.08451 20.6248C6.84009 20.2135 15.4023 18.2823 26.8638 16.9443L26.9729 17.7406Z" fill="#CE2828"/>
</g>
<path d="M27.6175 16.2646C27.6175 16.2646 15.909 18.1155 4.27441 20.5558C4.4901 20.7891 4.79106 20.9257 5.10957 20.932C5.6839 20.9659 16.0193 20.132 26.1353 19.6617L27.6175 16.2646Z" stroke="#263238" stroke-width="0.159874" stroke-linecap="round" stroke-linejoin="round"/>
<path d="M24.3782 19.7397C24.3782 19.7397 23.7349 19.2457 23.5443 19.119C23.3537 18.9923 23.4402 20.5812 23.7876 20.7003C24.1349 20.8194 24.3782 19.7397 24.3782 19.7397Z" fill="url(#paint0_linear_2829_12121)" stroke="#263238" stroke-width="0.159874" stroke-linecap="round" stroke-linejoin="round"/>
<path d="M16.9697 20.1599C16.9697 20.1599 16.5183 19.6808 16.3966 19.6946C16.275 19.7084 16.4819 20.9724 16.6825 21.0013C16.8832 21.0301 16.9697 20.1599 16.9697 20.1599Z" fill="#D6DAE1" stroke="#263238" stroke-width="0.159874" stroke-linecap="round" stroke-linejoin="round"/>
<path d="M37.5408 17.6881L36.5176 17.5728" stroke="#263238" stroke-width="0.159874" stroke-linecap="round" stroke-linejoin="round"/>
<path d="M38.906 17.859L38.0508 17.7549" stroke="#263238" stroke-width="0.159874" stroke-linecap="round" stroke-linejoin="round"/>
<path d="M55.0469 20.2702C49.9055 19.4313 44.6387 18.6789 39.5049 17.9277" stroke="#263238" stroke-width="0.159874" stroke-linecap="round" stroke-linejoin="round"/>
<path d="M56.2515 20.4582L55.6445 20.3667L56.2515 20.4582Z" fill="#CE2828"/>
<path d="M56.2515 20.4582L55.6445 20.3667" stroke="#263238" stroke-width="0.159874" stroke-linecap="round" stroke-linejoin="round"/>
<path d="M57.387 20.8957C57.4384 20.8217 57.491 20.7489 57.5437 20.6749L56.9092 20.5684" stroke="#263238" stroke-width="0.159874" stroke-linecap="round" stroke-linejoin="round"/>
<path d="M43.8227 22.2025C44.9125 21.7813 45.4545 20.5564 45.0333 19.4666C44.6121 18.3768 43.3873 17.8348 42.2975 18.256C41.2077 18.6771 40.6656 19.902 41.0868 20.9918C41.508 22.0816 42.7329 22.6236 43.8227 22.2025Z" fill="#D6DAE1" stroke="#263238" stroke-width="0.159874" stroke-linecap="round" stroke-linejoin="round"/>
<path d="M42.5896 18.5709C43.3959 18.2398 44.3188 18.6248 44.6499 19.4323C44.9809 20.2387 44.596 21.1616 43.7884 21.4927C42.9821 21.8237 42.0591 21.4387 41.7281 20.6312C41.397 19.8236 41.782 18.9019 42.5896 18.5709Z" fill="#263238"/>
<g opacity="0.5">
<path d="M43.1172 19.9201C43.1172 19.9201 43.2551 19.3997 43.7329 19.3896" stroke="white" stroke-width="0.159874" stroke-linecap="round" stroke-linejoin="round"/>
<path d="M42.9194 20.4707C42.9194 20.4707 42.7815 20.9899 42.3037 21.0011" stroke="white" stroke-width="0.159874" stroke-linecap="round" stroke-linejoin="round"/>
<path d="M43.293 20.2939C43.293 20.2939 43.8134 20.4319 43.8247 20.9097" stroke="white" stroke-width="0.159874" stroke-linecap="round" stroke-linejoin="round"/>
<path d="M42.7433 20.0972C42.7433 20.0972 42.2229 19.9592 42.2129 19.4814" stroke="white" stroke-width="0.159874" stroke-linecap="round" stroke-linejoin="round"/>
<path d="M43.2822 20.0711C43.2822 20.0711 43.7475 19.8003 44.0923 20.1313" stroke="white" stroke-width="0.159874" stroke-linecap="round" stroke-linejoin="round"/>
<path d="M42.7547 20.3204C42.7547 20.3204 42.2895 20.5901 41.9434 20.2603" stroke="white" stroke-width="0.159874" stroke-linecap="round" stroke-linejoin="round"/>
<path d="M43.1432 20.4595C43.1432 20.4595 43.4128 20.9247 43.083 21.2696" stroke="white" stroke-width="0.159874" stroke-linecap="round" stroke-linejoin="round"/>
<path d="M42.8927 19.9315C42.8927 19.9315 42.6219 19.4662 42.9517 19.1201" stroke="white" stroke-width="0.159874" stroke-linecap="round" stroke-linejoin="round"/>
<path d="M42.4775 18.8257C42.4775 18.8257 43.2475 18.3692 43.9435 18.8771C44.7924 19.4965 44.5378 20.5336 44.3197 20.8646" stroke="white" stroke-width="0.159874" stroke-linecap="round" stroke-linejoin="round"/>
</g>
<path d="M50.2141 23.0449C51.2703 23.0449 52.1264 22.1887 52.1264 21.1326C52.1264 20.0764 51.2703 19.2202 50.2141 19.2202C49.1579 19.2202 48.3018 20.0764 48.3018 21.1326C48.3018 22.1887 49.1579 23.0449 50.2141 23.0449Z" fill="#D6DAE1" stroke="#263238" stroke-width="0.159874" stroke-linecap="round" stroke-linejoin="round"/>
<path d="M48.9403 20.6551C49.1083 19.8839 49.8682 19.3948 50.6394 19.5628C51.4106 19.7309 51.8997 20.4908 51.7317 21.262C51.5636 22.0332 50.8037 22.5223 50.0325 22.3542C49.2613 22.1862 48.7722 21.4263 48.9403 20.6551Z" fill="#263238"/>
<g opacity="0.5">
<path d="M50.2666 20.8543C50.2666 20.8543 50.392 20.3841 50.8234 20.374" stroke="white" stroke-width="0.159874" stroke-linecap="round" stroke-linejoin="round"/>
<path d="M50.089 21.3521C50.089 21.3521 49.9636 21.8223 49.5322 21.8323" stroke="white" stroke-width="0.159874" stroke-linecap="round" stroke-linejoin="round"/>
<path d="M50.4258 21.1919C50.4258 21.1919 50.896 21.3173 50.9061 21.7499" stroke="white" stroke-width="0.159874" stroke-linecap="round" stroke-linejoin="round"/>
<path d="M49.9295 21.0148C49.9295 21.0148 49.458 20.8894 49.4492 20.458" stroke="white" stroke-width="0.159874" stroke-linecap="round" stroke-linejoin="round"/>
<path d="M50.416 20.9934C50.416 20.9934 50.8374 20.7501 51.1496 21.0485" stroke="white" stroke-width="0.159874" stroke-linecap="round" stroke-linejoin="round"/>
<path d="M49.9396 21.2168C49.9396 21.2168 49.5183 21.4601 49.2061 21.1616L49.9396 21.2168Z" fill="url(#paint1_linear_2829_12121)"/>
<path d="M49.9396 21.2168C49.9396 21.2168 49.5183 21.4601 49.2061 21.1616" stroke="white" stroke-width="0.159874" stroke-linecap="round" stroke-linejoin="round"/>
<path d="M50.2912 21.3423C50.2912 21.3423 50.5358 21.7636 50.2373 22.0759L50.2912 21.3423Z" fill="url(#paint2_linear_2829_12121)"/>
<path d="M50.2912 21.3423C50.2912 21.3423 50.5358 21.7636 50.2373 22.0759" stroke="white" stroke-width="0.159874" stroke-linecap="round" stroke-linejoin="round"/>
<path d="M50.065 20.8684C50.065 20.8684 49.8205 20.4483 50.1189 20.1348" stroke="white" stroke-width="0.159874" stroke-linecap="round" stroke-linejoin="round"/>
<path d="M49.6895 19.8652C49.6895 19.8652 50.3854 19.4514 51.0149 19.9116C51.7824 20.4722 51.5516 21.4102 51.3522 21.7086" stroke="white" stroke-width="0.159874" stroke-linecap="round" stroke-linejoin="round"/>
</g>
<path d="M25.3438 17.6881L26.367 17.5728" stroke="#263238" stroke-width="0.159874" stroke-linecap="round" stroke-linejoin="round"/>
<path d="M23.9775 17.859L24.8328 17.7549" stroke="#263238" stroke-width="0.159874" stroke-linecap="round" stroke-linejoin="round"/>
<path d="M7.83691 20.2702C12.9783 19.4313 18.245 18.6789 23.3789 17.9277" stroke="#263238" stroke-width="0.159874" stroke-linecap="round" stroke-linejoin="round"/>
<path d="M6.63281 20.4582L7.23974 20.3667L6.63281 20.4582Z" fill="url(#paint3_linear_2829_12121)"/>
<path d="M6.63281 20.4582L7.23974 20.3667" stroke="#263238" stroke-width="0.159874" stroke-linecap="round" stroke-linejoin="round"/>
<path d="M5.49659 20.8957C5.44518 20.8217 5.39251 20.7489 5.33984 20.6749L5.97436 20.5684" stroke="#263238" stroke-width="0.159874" stroke-linecap="round" stroke-linejoin="round"/>
<path d="M21.6022 21.3802C22.238 20.4 21.9589 19.09 20.9787 18.4542C19.9985 17.8184 18.6884 18.0975 18.0526 19.0777C17.4168 20.0579 17.696 21.368 18.6762 22.0038C19.6564 22.6396 20.9664 22.3604 21.6022 21.3802Z" fill="#D6DAE1" stroke="#263238" stroke-width="0.159874" stroke-linecap="round" stroke-linejoin="round"/>
<path d="M20.3441 21.4733C21.1384 21.1136 21.4908 20.1782 21.1312 19.3839C20.7715 18.5896 19.836 18.2372 19.0417 18.5969C18.2474 18.9565 17.8951 19.892 18.2547 20.6863C18.6144 21.4806 19.5498 21.8329 20.3441 21.4733Z" fill="#263238"/>
<g opacity="0.5">
<path d="M19.7671 19.9201C19.7671 19.9201 19.6291 19.3997 19.1514 19.3896" stroke="white" stroke-width="0.159874" stroke-linecap="round" stroke-linejoin="round"/>
<path d="M19.9639 20.4707C19.9639 20.4707 20.1018 20.9899 20.5796 21.0011" stroke="white" stroke-width="0.159874" stroke-linecap="round" stroke-linejoin="round"/>
<path d="M19.5913 20.2939C19.5913 20.2939 19.0709 20.4319 19.0596 20.9097" stroke="white" stroke-width="0.159874" stroke-linecap="round" stroke-linejoin="round"/>
<path d="M20.1406 20.0972C20.1406 20.0972 20.661 19.9592 20.6711 19.4814L20.1406 20.0972Z" fill="url(#paint4_linear_2829_12121)"/>
<path d="M20.1406 20.0972C20.1406 20.0972 20.661 19.9592 20.6711 19.4814" stroke="white" stroke-width="0.159874" stroke-linecap="round" stroke-linejoin="round"/>
<path d="M19.6021 20.0711C19.6021 20.0711 19.1368 19.8003 18.792 20.1313" stroke="white" stroke-width="0.159874" stroke-linecap="round" stroke-linejoin="round"/>
<path d="M20.1299 20.3204C20.1299 20.3204 20.5951 20.5901 20.9412 20.2603" stroke="white" stroke-width="0.159874" stroke-linecap="round" stroke-linejoin="round"/>
<path d="M19.7405 20.4595C19.7405 20.4595 19.4709 20.9247 19.8007 21.2696" stroke="white" stroke-width="0.159874" stroke-linecap="round" stroke-linejoin="round"/>
<path d="M19.9906 19.9315C19.9906 19.9315 20.2614 19.4662 19.9316 19.1201" stroke="white" stroke-width="0.159874" stroke-linecap="round" stroke-linejoin="round"/>
<path d="M20.4071 18.8257C20.4071 18.8257 19.6371 18.3692 18.9412 18.8771C18.0922 19.4965 18.3468 20.5336 18.565 20.8646" stroke="white" stroke-width="0.159874" stroke-linecap="round" stroke-linejoin="round"/>
</g>
<path d="M12.6692 23.0449C13.7253 23.0449 14.5815 22.1887 14.5815 21.1326C14.5815 20.0764 13.7253 19.2202 12.6692 19.2202C11.613 19.2202 10.7568 20.0764 10.7568 21.1326C10.7568 22.1887 11.613 23.0449 12.6692 23.0449Z" fill="#D6DAE1" stroke="#263238" stroke-width="0.159874" stroke-linecap="round" stroke-linejoin="round"/>
<path d="M12.2097 19.5689C12.9759 19.3808 13.7496 19.8497 13.9377 20.6159C14.1258 21.3821 13.6568 22.1558 12.8906 22.3439C12.1244 22.532 11.3507 22.063 11.1626 21.2969C10.9745 20.5307 11.4435 19.7569 12.2097 19.5689Z" fill="#263238"/>
<g opacity="0.5">
<path d="M12.6173 20.8543C12.6173 20.8543 12.4919 20.3841 12.0605 20.374" stroke="white" stroke-width="0.159874" stroke-linecap="round" stroke-linejoin="round"/>
<path d="M12.7949 21.3521C12.7949 21.3521 12.9203 21.8223 13.3517 21.8323" stroke="white" stroke-width="0.159874" stroke-linecap="round" stroke-linejoin="round"/>
<path d="M12.4578 21.1919C12.4578 21.1919 11.9876 21.3173 11.9775 21.7499" stroke="white" stroke-width="0.159874" stroke-linecap="round" stroke-linejoin="round"/>
<path d="M12.9541 21.0148C12.9541 21.0148 13.4256 20.8894 13.4344 20.458" stroke="white" stroke-width="0.159874" stroke-linecap="round" stroke-linejoin="round"/>
<path d="M12.468 20.9934C12.468 20.9934 12.0466 20.7501 11.7344 21.0485" stroke="white" stroke-width="0.159874" stroke-linecap="round" stroke-linejoin="round"/>
<path d="M12.9443 21.2168C12.9443 21.2168 13.3657 21.4601 13.6779 21.1616" stroke="white" stroke-width="0.159874" stroke-linecap="round" stroke-linejoin="round"/>
<path d="M12.5941 21.3423C12.5941 21.3423 12.3433 21.7636 12.648 22.0759" stroke="white" stroke-width="0.159874" stroke-linecap="round" stroke-linejoin="round"/>
<path d="M12.8195 20.8684C12.8195 20.8684 13.0703 20.4483 12.7656 20.1348" stroke="white" stroke-width="0.159874" stroke-linecap="round" stroke-linejoin="round"/>
<path d="M13.1957 19.8652C13.1957 19.8652 12.4997 19.4514 11.8702 19.9116C11.1028 20.4722 11.3335 21.4102 11.5329 21.7086" stroke="white" stroke-width="0.159874" stroke-linecap="round" stroke-linejoin="round"/>
</g>
<path d="M31.4241 10.5942H31.458C31.641 10.5942 31.7903 10.7435 31.7903 10.9265V14.6986H31.0918V10.9265C31.0918 10.7435 31.241 10.5942 31.4241 10.5942Z" fill="#D6DAE1" stroke="#263238" stroke-width="0.159874" stroke-linecap="round" stroke-linejoin="round"/>
<path d="M36.6019 20.6748L31.4417 21.1676L26.2816 20.6748C26.2816 20.6748 24.7956 22.8743 24.8307 23.4712C24.8658 24.0681 25.4226 24.7415 31.4417 24.7415C37.4609 24.7415 38.0227 24.0669 38.0528 23.4712C38.0829 22.8756 36.6019 20.6748 36.6019 20.6748Z" fill="#D6DAE1"/>
<mask id="mask7_2829_12121" style="mask-type:luminance" maskUnits="userSpaceOnUse" x="24" y="20" width="15" height="5">
<path d="M36.6019 20.6748L31.4417 21.1676L26.2816 20.6748C26.2816 20.6748 24.7956 22.8743 24.8307 23.4712C24.8658 24.0681 25.4226 24.7415 31.4417 24.7415C37.4609 24.7415 38.0227 24.0669 38.0528 23.4712C38.0829 22.8756 36.6019 20.6748 36.6019 20.6748Z" fill="white"/>
</mask>
<g mask="url(#mask7_2829_12121)">
<path opacity="0.2" d="M37.54 24.1286C36.8428 24.4721 35.2139 24.7367 31.4419 24.7367C27.9871 24.7367 26.3306 24.5148 25.5406 24.2126C24.7606 23.8564 26.4723 23.2094 26.4723 23.2094C26.4723 23.2094 26.1463 22.7203 26.6504 22.0733C27.1545 21.4262 36.6183 22.1987 36.6183 22.1987C36.6183 22.1987 36.7024 22.6137 36.4177 23.2119C36.4152 23.2119 37.7181 23.4514 37.54 24.1286Z" fill="black"/>
</g>
<path d="M36.6019 20.6748L31.4417 21.1676L26.2816 20.6748C26.2816 20.6748 24.7956 22.8743 24.8307 23.4712C24.8658 24.0681 25.4226 24.7415 31.4417 24.7415C37.4609 24.7415 38.0227 24.0669 38.0528 23.4712C38.0829 22.8756 36.6019 20.6748 36.6019 20.6748Z" stroke="#263238" stroke-width="0.159874" stroke-linecap="round" stroke-linejoin="round"/>
<path d="M31.4423 13.6865C29.7933 13.6853 28.2483 14.4891 27.3041 15.8409C24.9328 19.2492 24.7961 24.7442 31.4423 24.7442C38.0884 24.7442 37.9542 19.2517 35.5804 15.8409C34.6362 14.4891 33.0913 13.6853 31.4423 13.6865Z" fill="#D6DAE1"/>
<mask id="mask8_2829_12121" style="mask-type:luminance" maskUnits="userSpaceOnUse" x="25" y="13" width="13" height="12">
<path d="M31.4423 13.6865C29.7933 13.6853 28.2483 14.4891 27.3041 15.8409C24.9328 19.2492 24.7961 24.7442 31.4423 24.7442C38.0884 24.7442 37.9542 19.2517 35.5804 15.8409C34.6362 14.4891 33.0913 13.6853 31.4423 13.6865Z" fill="white"/>
</mask>
<g mask="url(#mask8_2829_12121)">
<path opacity="0.2" d="M36.1783 22.9823C36.0931 23.1114 35.989 23.2255 35.8686 23.3221C35.7633 23.4048 35.5852 23.5503 35.3595 23.7409C34.4679 24.3604 33.1913 24.7378 31.447 24.7378C29.2739 24.7378 27.8255 24.151 26.9439 23.2406C26.3508 22.4054 26.0273 21.5941 26.475 20.9533C26.959 20.2598 30.6934 18.4453 31.4796 18.4453C32.2659 18.4453 36.1896 20.6536 36.5219 20.9006C36.7966 21.1188 36.6524 22.2838 36.1783 22.9823Z" fill="black"/>
</g>
<path d="M31.4423 13.6865C29.7933 13.6853 28.2483 14.4891 27.3041 15.8409C24.9328 19.2492 24.7961 24.7442 31.4423 24.7442C38.0884 24.7442 37.9542 19.2517 35.5804 15.8409C34.6362 14.4891 33.0913 13.6853 31.4423 13.6865Z" stroke="#263238" stroke-width="0.159874" stroke-linecap="round" stroke-linejoin="round"/>
<path d="M28.6535 15.801C28.4027 16.2186 28.2021 16.6663 28.0566 17.1315C28.4717 16.9171 28.947 16.7089 29.3106 16.6487C29.3646 16.3277 29.436 15.9678 29.5263 15.6455C29.2191 15.6869 28.9244 15.7383 28.6535 15.801Z" fill="#263238"/>
<path d="M34.2303 15.801C33.9595 15.7383 33.6648 15.6869 33.3525 15.6455C33.4416 15.9678 33.5143 16.3277 33.5682 16.6487C33.9344 16.7089 34.4097 16.9171 34.8222 17.1315C34.678 16.6663 34.4799 16.2198 34.2303 15.801Z" fill="#263238"/>
<path d="M33.1798 15.6239C32.6481 15.5625 32.1126 15.5299 31.5771 15.5273V16.7575C32.0461 16.7337 32.6995 16.602 33.4005 16.6321C33.3227 16.2283 33.25 15.8872 33.1798 15.6239Z" fill="#263238"/>
<path d="M34.9607 17.199L35.5175 17.3144C35.3307 16.8303 35.0836 16.3726 34.7802 15.9525C34.6548 15.9087 34.5093 15.8698 34.3613 15.8271C34.6109 16.261 34.8128 16.7212 34.9607 17.199Z" fill="#263238"/>
<path d="M28.5224 15.832C28.3744 15.8697 28.234 15.9085 28.1036 15.9574C28.1036 15.9574 27.6885 16.4064 27.3662 17.3193L27.923 17.2039C28.071 16.7261 28.2728 16.2659 28.5224 15.832Z" fill="#263238"/>
<path d="M31.3631 15.5259C30.8089 15.5284 30.2546 15.561 29.7041 15.6237C29.6339 15.887 29.5561 16.2269 29.4834 16.6269C30.212 16.5968 30.8904 16.7397 31.3644 16.7523V15.5259H31.3631Z" fill="#263238"/>
<path d="M31.4414 23.3649C31.1781 23.3461 30.4583 23.2797 30.1436 23.1279L30.3204 23.8803C30.6765 24.012 31.054 24.0759 31.4339 24.0684L31.4414 24.0158L31.449 24.0684C31.8289 24.0759 32.2064 24.012 32.5625 23.8803L32.7393 23.1279C32.4246 23.2797 31.7048 23.3461 31.4414 23.3649Z" fill="#263238"/>
<path d="M31.5491 23.4512H31.3359V25.1202H31.5491V23.4512Z" fill="#757575" stroke="#263238" stroke-width="0.159874" stroke-linecap="round" stroke-linejoin="round"/>
<path d="M31.4421 25.6005C31.6339 25.6005 31.7894 25.445 31.7894 25.2531C31.7894 25.0613 31.6339 24.9058 31.4421 24.9058C31.2502 24.9058 31.0947 25.0613 31.0947 25.2531C31.0947 25.445 31.2502 25.6005 31.4421 25.6005Z" fill="#757575" stroke="#263238" stroke-width="0.159874" stroke-linecap="round" stroke-linejoin="round"/>
<path d="M31.0323 24.2803H30.5119C30.4115 24.2803 30.3301 24.3617 30.3301 24.4621V26.1136C30.3301 26.214 30.4115 26.2954 30.5119 26.2954H31.0323C31.1327 26.2954 31.2141 26.214 31.2141 26.1136V24.4621C31.2141 24.3617 31.1327 24.2803 31.0323 24.2803Z" fill="#263238"/>
<path d="M32.3731 24.2803H31.8527C31.7523 24.2803 31.6709 24.3617 31.6709 24.4621V26.1136C31.6709 26.214 31.7523 26.2954 31.8527 26.2954H32.3731C32.4736 26.2954 32.555 26.214 32.555 26.1136V24.4621C32.555 24.3617 32.4736 24.2803 32.3731 24.2803Z" fill="#263238"/>
<path d="M34.6474 24.303C34.6474 24.303 36.25 24.1224 36.8117 23.77L36.6864 24.1462C35.9239 24.3632 35.1389 24.4886 34.3477 24.5224L34.6474 24.303Z" fill="#263238"/>
<path d="M28.2367 24.303C28.2367 24.303 26.6341 24.1224 26.0723 23.77L26.1977 24.1462C26.9601 24.3632 27.7451 24.4886 28.5364 24.5224L28.2367 24.303Z" fill="#263238"/>
<path d="M36.4147 25.3527H36.2354V24.1552L36.4147 24.1138V25.3527Z" fill="#757575" stroke="#263238" stroke-width="0.159874" stroke-linecap="round" stroke-linejoin="round"/>
<path d="M35.3502 25.3523H35.1709V24.3077L35.3502 24.2852V25.3523Z" fill="#757575" stroke="#263238" stroke-width="0.159874" stroke-linecap="round" stroke-linejoin="round"/>
<path d="M36.616 25.464C36.616 25.6245 36.4869 25.7549 36.3264 25.7562C36.1658 25.7562 36.0354 25.627 36.0342 25.4665C36.0342 25.306 36.1633 25.1756 36.3239 25.1743H36.3251C36.4856 25.1743 36.6148 25.3035 36.616 25.464Z" fill="#757575" stroke="#263238" stroke-width="0.159874" stroke-linecap="round" stroke-linejoin="round"/>
<path d="M35.5516 25.464C35.5516 25.6245 35.4224 25.7549 35.2619 25.7562C35.1014 25.7562 34.971 25.627 34.9697 25.4665C34.9697 25.306 35.0989 25.1756 35.2594 25.1743H35.2619C35.4212 25.1743 35.5503 25.3047 35.5516 25.464Z" fill="#757575" stroke="#263238" stroke-width="0.159874" stroke-linecap="round" stroke-linejoin="round"/>
<path d="M36.022 24.6514H35.5643C35.4867 24.6514 35.4238 24.7142 35.4238 24.7918V26.195C35.4238 26.2726 35.4867 26.3355 35.5643 26.3355H36.022C36.0996 26.3355 36.1624 26.2726 36.1624 26.195V24.7918C36.1624 24.7142 36.0996 24.6514 36.022 24.6514Z" fill="#263238"/>
<path d="M37.1157 24.6514H36.658C36.5805 24.6514 36.5176 24.7142 36.5176 24.7918V26.195C36.5176 26.2726 36.5805 26.3355 36.658 26.3355H37.1157C37.1933 26.3355 37.2562 26.2726 37.2562 26.195V24.7918C37.2562 24.7142 37.1933 24.6514 37.1157 24.6514Z" fill="#263238"/>
<path d="M34.9292 24.6514H34.4715C34.3939 24.6514 34.3311 24.7142 34.3311 24.7918V26.195C34.3311 26.2726 34.3939 26.3355 34.4715 26.3355H34.9292C35.0068 26.3355 35.0697 26.2726 35.0697 26.195V24.7918C35.0697 24.7142 35.0068 24.6514 34.9292 24.6514Z" fill="#263238"/>
<path d="M26.4688 25.3527H26.6481V24.1552L26.4688 24.1138V25.3527Z" fill="#757575" stroke="#263238" stroke-width="0.159874" stroke-linecap="round" stroke-linejoin="round"/>
<path d="M27.5332 25.3523H27.7125V24.3077L27.5332 24.2852V25.3523Z" fill="#757575" stroke="#263238" stroke-width="0.159874" stroke-linecap="round" stroke-linejoin="round"/>
<path d="M26.2676 25.464C26.2676 25.6245 26.3967 25.7549 26.5573 25.7562C26.7178 25.7562 26.8482 25.627 26.8494 25.4665C26.8494 25.306 26.7203 25.1756 26.5598 25.1743C26.3992 25.1743 26.2701 25.3035 26.2688 25.464H26.2676Z" fill="#757575" stroke="#263238" stroke-width="0.159874" stroke-linecap="round" stroke-linejoin="round"/>
<path d="M27.333 25.464C27.333 25.6245 27.4622 25.7549 27.6227 25.7562C27.7832 25.7562 27.9136 25.627 27.9149 25.4665C27.9149 25.306 27.7857 25.1756 27.6252 25.1743H27.6227C27.4634 25.1743 27.3343 25.3047 27.333 25.464Z" fill="#757575" stroke="#263238" stroke-width="0.159874" stroke-linecap="round" stroke-linejoin="round"/>
<path d="M27.3189 24.6514H26.8612C26.7836 24.6514 26.7207 24.7142 26.7207 24.7918V26.195C26.7207 26.2726 26.7836 26.3355 26.8612 26.3355H27.3189C27.3964 26.3355 27.4593 26.2726 27.4593 26.195V24.7918C27.4593 24.7142 27.3964 24.6514 27.3189 24.6514Z" fill="#263238"/>
<path d="M26.2261 24.6514H25.7684C25.6908 24.6514 25.6279 24.7142 25.6279 24.7918V26.195C25.6279 26.2726 25.6908 26.3355 25.7684 26.3355H26.2261C26.3036 26.3355 26.3665 26.2726 26.3665 26.195V24.7918C26.3665 24.7142 26.3036 24.6514 26.2261 24.6514Z" fill="#263238"/>
<path d="M28.4116 24.6514H27.9539C27.8764 24.6514 27.8135 24.7142 27.8135 24.7918V26.195C27.8135 26.2726 27.8764 26.3355 27.9539 26.3355H28.4116C28.4892 26.3355 28.5521 26.2726 28.5521 26.195V24.7918C28.5521 24.7142 28.4892 24.6514 28.4116 24.6514Z" fill="#263238"/>
<path d="M31.5771 12.0225V13.6865" stroke="#263238" stroke-width="0.159874" stroke-linecap="round" stroke-linejoin="round"/>
<path d="M31.5771 10.9619V11.4372" stroke="#263238" stroke-width="0.159874" stroke-linecap="round" stroke-linejoin="round"/>
</g>
</g>
<defs>
<linearGradient id="paint0_linear_2829_12121" x1="23.4453" y1="19.9106" x2="24.3782" y2="19.9106" gradientUnits="userSpaceOnUse">
<stop stop-color="#05A0C7"/>
<stop offset="1" stop-color="#09D1C7"/>
</linearGradient>
<linearGradient id="paint1_linear_2829_12121" x1="49.2061" y1="21.2359" x2="49.9396" y2="21.2359" gradientUnits="userSpaceOnUse">
<stop stop-color="#05A0C7"/>
<stop offset="1" stop-color="#09D1C7"/>
</linearGradient>
<linearGradient id="paint2_linear_2829_12121" x1="50.2373" y1="21.7091" x2="50.3855" y2="21.7091" gradientUnits="userSpaceOnUse">
<stop stop-color="#05A0C7"/>
<stop offset="1" stop-color="#09D1C7"/>
</linearGradient>
<linearGradient id="paint3_linear_2829_12121" x1="6.63281" y1="20.4125" x2="7.23974" y2="20.4125" gradientUnits="userSpaceOnUse">
<stop stop-color="#05A0C7"/>
<stop offset="1" stop-color="#09D1C7"/>
</linearGradient>
<linearGradient id="paint4_linear_2829_12121" x1="20.1406" y1="19.7893" x2="20.6711" y2="19.7893" gradientUnits="userSpaceOnUse">
<stop stop-color="#05A0C7"/>
<stop offset="1" stop-color="#09D1C7"/>
</linearGradient>
<clipPath id="clip0_2829_12121">
<rect width="57.8742" height="29.9202" fill="white" transform="translate(2.50293 10.2383)"/>
</clipPath>
</defs>
</svg>
