<svg width="9" height="9" viewBox="0 0 9 9" fill="none" xmlns="http://www.w3.org/2000/svg">
<path d="M6.91807 6.54824C6.93388 6.59168 6.93695 6.63874 6.92695 6.68387C6.91694 6.72901 6.89427 6.77035 6.86158 6.80305L6.13268 7.53195C6.11013 7.55456 6.08334 7.5725 6.05384 7.58475C6.02434 7.59699 5.99272 7.6033 5.96079 7.60332C5.95279 7.60376 5.94478 7.60376 5.93679 7.60332C5.90102 7.5998 5.86647 7.58838 5.83564 7.56989C5.80481 7.55141 5.77847 7.52631 5.75852 7.49641L4.42007 5.48829L3.77409 6.13307V6.87442C3.77406 6.93877 3.7485 7.00048 3.70302 7.04601C3.70302 7.04601 3.27783 7.47303 3.22073 7.5283C3.19699 7.55315 3.1682 7.57263 3.1363 7.5854C3.07684 7.60962 3.01021 7.60932 2.95096 7.58457C2.89172 7.55981 2.84469 7.51261 2.82014 7.45329L2.81832 7.44873L2.37187 6.3323L1.25331 5.88494C1.21599 5.87001 1.18297 5.84606 1.15718 5.81523C1.1314 5.7844 1.11366 5.74766 1.10557 5.7083C1.09747 5.66893 1.09927 5.62817 1.11079 5.58967C1.12232 5.55117 1.14322 5.51613 1.17161 5.48769L1.65754 5.00175C1.68023 4.97909 1.70718 4.96114 1.73684 4.94894C1.7665 4.93675 1.79828 4.93054 1.83035 4.93069H2.5714L3.21739 4.2847L1.20957 2.94595C1.17963 2.92602 1.15448 2.89968 1.13595 2.86885C1.11742 2.83801 1.10597 2.80345 1.10243 2.76765C1.09888 2.73185 1.10333 2.69571 1.11545 2.66183C1.12758 2.62796 1.14707 2.59721 1.17252 2.57179L1.90142 1.84289C1.93412 1.8102 1.97546 1.78753 2.0206 1.77752C2.06573 1.76752 2.11279 1.77059 2.15623 1.7864L4.7663 2.73548L5.72389 1.77789C5.88338 1.61841 6.09969 1.52881 6.32523 1.52881C6.43691 1.52881 6.5475 1.55081 6.65068 1.59354C6.75386 1.63628 6.84761 1.69892 6.92658 1.77789C7.00555 1.85686 7.06819 1.95061 7.11093 2.05379C7.15366 2.15697 7.17566 2.26756 7.17566 2.37923C7.17566 2.49091 7.15366 2.6015 7.11093 2.70468C7.06819 2.80786 7.00555 2.90161 6.92658 2.98058L5.96899 3.93817L6.91807 6.54824Z" fill="white"/>
</svg>
