<svg width="136" height="56" viewBox="0 0 136 56" fill="none" xmlns="http://www.w3.org/2000/svg">
<g filter="url(#filter0_d_384_25498)">
<rect x="8" y="8" width="120" height="40" rx="6" fill="white" fill-opacity="0.47" shape-rendering="crispEdges"/>
<rect x="8.5" y="8.5" width="119" height="39" rx="5.5" stroke="white" shape-rendering="crispEdges"/>
<path d="M32.7045 28.7631C32.7166 27.8432 32.9669 26.9412 33.4321 26.1411C33.8972 25.341 34.5621 24.6688 35.3648 24.187C34.8548 23.4759 34.1821 22.8908 33.4 22.478C32.6178 22.0652 31.7479 21.8361 30.8592 21.809C28.9635 21.6147 27.1258 22.9164 26.1598 22.9164C25.1751 22.9164 23.6878 21.8282 22.0862 21.8604C21.0502 21.8931 20.0406 22.1872 19.1557 22.7141C18.2708 23.241 17.5407 23.9826 17.0367 24.8669C14.8535 28.5573 16.482 33.9809 18.5734 36.964C19.6197 38.4247 20.8426 40.0563 22.4428 39.9985C24.0086 39.9351 24.5934 39.0237 26.4835 39.0237C28.3561 39.0237 28.9048 39.9985 30.5374 39.9617C32.2176 39.9351 33.2762 38.4945 34.2859 37.0199C35.0377 35.9791 35.6162 34.8288 36 33.6116C35.0238 33.2085 34.1908 32.5338 33.6048 31.6716C33.0187 30.8094 32.7056 29.7979 32.7045 28.7631Z" fill="white"/>
<path d="M29.621 19.8471C30.5372 18.7734 30.9885 17.3934 30.8792 16C29.4796 16.1435 28.1867 16.7966 27.2582 17.8291C26.8043 18.3335 26.4566 18.9203 26.235 19.556C26.0135 20.1917 25.9224 20.8638 25.9671 21.5338C26.6672 21.5408 27.3597 21.3927 27.9927 21.1005C28.6256 20.8084 29.1824 20.3798 29.621 19.8471Z" fill="white"/>
<path d="M44.791 16.5015H46.8608C48.6494 16.5015 49.5195 17.5649 49.5195 19.4941C49.5195 21.4233 48.6406 22.5 46.8608 22.5H44.791V16.5015ZM45.7886 17.3408V21.6606H46.751C47.9375 21.6606 48.4956 20.9443 48.4956 19.5073C48.4956 18.0615 47.9331 17.3408 46.751 17.3408H45.7886ZM52.6748 17.7759C53.8877 17.7759 54.7358 18.5625 54.7358 19.8677V20.4697C54.7358 21.8188 53.8877 22.5791 52.6748 22.5791C51.4443 22.5791 50.605 21.8276 50.605 20.4741V19.8721C50.605 18.6021 51.4575 17.7759 52.6748 17.7759ZM52.6792 18.5625C51.9849 18.5625 51.5894 19.1426 51.5894 19.9204V20.439C51.5894 21.2168 51.9585 21.7925 52.6792 21.7925C53.3911 21.7925 53.7559 21.2212 53.7559 20.439V19.9204C53.7559 19.1426 53.3735 18.5625 52.6792 18.5625ZM61.8989 17.855L60.6772 22.5H59.6841L58.7129 19.0723H58.6865L57.7329 22.5H56.7354L55.4609 17.855H56.5112L57.2583 21.397H57.3022L58.2383 17.855H59.1567L60.1191 21.397H60.1631L60.9233 17.855H61.8989ZM62.8657 22.5V17.855H63.8237V18.6899H63.8721C63.9907 18.3252 64.3291 17.7847 65.2695 17.7847C66.2056 17.7847 66.834 18.3032 66.834 19.3623V22.5H65.8584V19.6479C65.8584 18.9404 65.4893 18.6152 64.9399 18.6152C64.2192 18.6152 63.8413 19.1689 63.8413 19.9204V22.5H62.8657ZM68.3105 22.5V16.1851H69.2861V22.5H68.3105ZM72.6348 17.7759C73.8477 17.7759 74.6958 18.5625 74.6958 19.8677V20.4697C74.6958 21.8188 73.8477 22.5791 72.6348 22.5791C71.4043 22.5791 70.5649 21.8276 70.5649 20.4741V19.8721C70.5649 18.6021 71.4175 17.7759 72.6348 17.7759ZM72.6392 18.5625C71.9448 18.5625 71.5493 19.1426 71.5493 19.9204V20.439C71.5493 21.2168 71.9185 21.7925 72.6392 21.7925C73.3511 21.7925 73.7158 21.2212 73.7158 20.439V19.9204C73.7158 19.1426 73.3335 18.5625 72.6392 18.5625ZM77.2227 22.5703C76.3218 22.5703 75.7021 22.0166 75.7021 21.1509C75.7021 20.3291 76.2734 19.7754 77.3457 19.7754H78.519V19.3403C78.519 18.8086 78.1807 18.5581 77.6445 18.5581C77.1172 18.5581 76.8799 18.7778 76.8052 19.0854H75.8779C75.9351 18.3076 76.5195 17.7847 77.6753 17.7847C78.6685 17.7847 79.4902 18.1978 79.4902 19.3535V22.5H78.563V21.8979H78.519C78.3125 22.2539 77.9082 22.5703 77.2227 22.5703ZM77.5259 21.8145C78.0796 21.8145 78.519 21.4365 78.519 20.9312V20.4302H77.4995C76.9326 20.4302 76.6821 20.7158 76.6821 21.1025C76.6821 21.5859 77.0864 21.8145 77.5259 21.8145ZM82.4961 17.7935C83.1509 17.7935 83.6519 18.0835 83.832 18.5537H83.8804V16.1851H84.856V22.5H83.9067V21.7573H83.8584C83.7178 22.2275 83.1597 22.5615 82.4829 22.5615C81.415 22.5615 80.7207 21.8013 80.7207 20.5752V19.7798C80.7207 18.5537 81.4282 17.7935 82.4961 17.7935ZM82.7686 18.5933C82.1182 18.5933 81.7139 19.0767 81.7139 19.9204V20.4302C81.7139 21.2783 82.1226 21.7617 82.7905 21.7617C83.4497 21.7617 83.8804 21.2827 83.8804 20.4917V19.7886C83.8804 19.0723 83.4102 18.5933 82.7686 18.5933ZM90.2129 17.7759C91.4258 17.7759 92.2739 18.5625 92.2739 19.8677V20.4697C92.2739 21.8188 91.4258 22.5791 90.2129 22.5791C88.9824 22.5791 88.1431 21.8276 88.1431 20.4741V19.8721C88.1431 18.6021 88.9956 17.7759 90.2129 17.7759ZM90.2173 18.5625C89.5229 18.5625 89.1274 19.1426 89.1274 19.9204V20.439C89.1274 21.2168 89.4966 21.7925 90.2173 21.7925C90.9292 21.7925 91.2939 21.2212 91.2939 20.439V19.9204C91.2939 19.1426 90.9116 18.5625 90.2173 18.5625ZM93.5308 22.5V17.855H94.4888V18.6899H94.5371C94.6558 18.3252 94.9941 17.7847 95.9346 17.7847C96.8706 17.7847 97.499 18.3032 97.499 19.3623V22.5H96.5234V19.6479C96.5234 18.9404 96.1543 18.6152 95.605 18.6152C94.8843 18.6152 94.5063 19.1689 94.5063 19.9204V22.5H93.5308ZM101.274 17.8857V16.7256H102.228V17.8857H103.269V18.6504H102.228V21.1157C102.228 21.6211 102.417 21.7617 102.939 21.7617C103.071 21.7617 103.247 21.7529 103.322 21.7441V22.4912C103.243 22.5044 102.917 22.5308 102.698 22.5308C101.568 22.5308 101.261 22.1265 101.261 21.1948V18.6504H100.553V17.8857H101.274ZM104.5 22.5V16.1851H105.471V18.6899H105.519C105.62 18.3604 105.998 17.7847 106.93 17.7847C107.835 17.7847 108.481 18.3076 108.481 19.3667V22.5H107.51V19.6523C107.51 18.9448 107.119 18.6152 106.565 18.6152C105.866 18.6152 105.471 19.1646 105.471 19.9204V22.5H104.5ZM111.755 22.5791C110.489 22.5791 109.703 21.8013 109.703 20.4917V19.8633C109.703 18.5449 110.564 17.7759 111.698 17.7759C112.862 17.7759 113.684 18.5845 113.684 19.8633V20.4082H110.669V20.6367C110.669 21.3047 111.065 21.7969 111.75 21.7969C112.26 21.7969 112.612 21.5552 112.678 21.2651H113.631C113.574 21.8013 113.007 22.5791 111.755 22.5791ZM110.669 19.771H112.73V19.7095C112.73 19.0107 112.322 18.5449 111.702 18.5449C111.083 18.5449 110.669 19.0107 110.669 19.7095V19.771Z" fill="white"/>
<path d="M46.2061 38.5H44.1758L48.3066 26.5029H50.5391L54.6611 38.5H52.5518L51.4883 35.1777H47.2783L46.2061 38.5ZM49.4316 28.5771H49.3525L47.7266 33.6484H51.04L49.4316 28.5771ZM60.2644 38.6318C59.0603 38.6318 58.1462 38.0605 57.654 37.208H57.5837V41.585H55.6325V29.21H57.531V30.5723H57.6013C58.1111 29.6846 59.0603 29.0869 60.3083 29.0869C62.3913 29.0869 63.8767 30.6602 63.8767 33.4375V34.2637C63.8767 37.0234 62.4089 38.6318 60.2644 38.6318ZM59.8161 37.0234C61.0554 37.0234 61.8991 36.0303 61.8991 34.1582V33.5078C61.8991 31.7061 61.1081 30.6777 59.781 30.6777C58.4187 30.6777 57.5661 31.7852 57.5661 33.499V34.1582C57.5661 35.916 58.4275 37.0234 59.8161 37.0234ZM70.183 38.6318C68.9789 38.6318 68.0649 38.0605 67.5727 37.208H67.5024V41.585H65.5512V29.21H67.4496V30.5723H67.52C68.0297 29.6846 68.9789 29.0869 70.227 29.0869C72.31 29.0869 73.7954 30.6602 73.7954 33.4375V34.2637C73.7954 37.0234 72.3276 38.6318 70.183 38.6318ZM69.7348 37.0234C70.9741 37.0234 71.8178 36.0303 71.8178 34.1582V33.5078C71.8178 31.7061 71.0268 30.6777 69.6996 30.6777C68.3373 30.6777 67.4848 31.7852 67.4848 33.499V34.1582C67.4848 35.916 68.3461 37.0234 69.7348 37.0234ZM77.8387 35.1689H79.7899C79.8778 36.2061 80.7919 37.0938 82.4882 37.0938C84.0438 37.0938 84.9667 36.3643 84.9667 35.2305C84.9667 34.3164 84.3514 33.8242 83.0682 33.5166L81.0995 33.0244C79.5526 32.6641 78.1639 31.7412 78.1639 29.79C78.1639 27.4961 80.1679 26.2393 82.497 26.2393C84.8261 26.2393 86.7684 27.4961 86.8124 29.7373H84.8964C84.8085 28.7178 84.0262 27.874 82.4706 27.874C81.0995 27.874 80.1679 28.5244 80.1679 29.6406C80.1679 30.4229 80.7128 30.9854 81.829 31.2402L83.7889 31.7236C85.5907 32.1631 86.9618 33.0156 86.9618 35.0547C86.9618 37.4102 85.0546 38.7373 82.3387 38.7373C78.9989 38.7373 77.8827 36.7861 77.8387 35.1689ZM89.3395 29.21V26.9512H91.2555V29.21H93.066V30.7744H91.2555V35.7314C91.2555 36.7422 91.6334 37.0234 92.6793 37.0234C92.8463 37.0234 93.0045 37.0234 93.1188 37.0059V38.5C92.9605 38.5264 92.5914 38.5615 92.1959 38.5615C89.9371 38.5615 89.3131 37.7529 89.3131 35.8896V30.7744H88.0299V29.21H89.3395ZM98.3353 29.0518C101.007 29.0518 102.457 30.9326 102.457 33.4639V34.2109C102.457 36.8301 101.016 38.6582 98.3353 38.6582C95.6546 38.6582 94.1956 36.8301 94.1956 34.2109V33.4639C94.1956 30.9414 95.6634 29.0518 98.3353 29.0518ZM98.3353 30.6162C96.8851 30.6162 96.1644 31.8027 96.1644 33.4902V34.2021C96.1644 35.8633 96.8763 37.085 98.3353 37.085C99.7943 37.085 100.497 35.8721 100.497 34.2021V33.4902C100.497 31.7939 99.7855 30.6162 98.3353 30.6162ZM104.106 38.5V29.21H106.057V30.4316H106.127C106.364 29.8516 107.059 29.0781 108.351 29.0781C108.606 29.0781 108.825 29.0957 109.01 29.1309V30.8535C108.843 30.8096 108.5 30.7832 108.175 30.7832C106.61 30.7832 106.083 31.75 106.083 32.998V38.5H104.106ZM113.743 38.6582C111.256 38.6582 109.674 37.0146 109.674 34.2637V33.3232C109.674 30.7305 111.22 29.0518 113.664 29.0518C116.142 29.0518 117.636 30.792 117.636 33.4111V34.2988H111.598V34.5186C111.598 36.083 112.442 37.1201 113.769 37.1201C114.762 37.1201 115.439 36.6279 115.677 35.8281H117.531C117.25 37.3311 116.037 38.6582 113.743 38.6582ZM111.598 32.9365H115.729V32.9189C115.729 31.6006 114.912 30.5635 113.673 30.5635C112.416 30.5635 111.598 31.6006 111.598 32.9189V32.9365Z" fill="white"/>
</g>
<defs>
<filter id="filter0_d_384_25498" x="0.9" y="0.9" width="134.2" height="54.2" filterUnits="userSpaceOnUse" color-interpolation-filters="sRGB">
<feFlood flood-opacity="0" result="BackgroundImageFix"/>
<feColorMatrix in="SourceAlpha" type="matrix" values="0 0 0 0 0 0 0 0 0 0 0 0 0 0 0 0 0 0 127 0" result="hardAlpha"/>
<feOffset/>
<feGaussianBlur stdDeviation="3.55"/>
<feComposite in2="hardAlpha" operator="out"/>
<feColorMatrix type="matrix" values="0 0 0 0 1 0 0 0 0 1 0 0 0 0 1 0 0 0 1 0"/>
<feBlend mode="normal" in2="BackgroundImageFix" result="effect1_dropShadow_384_25498"/>
<feBlend mode="normal" in="SourceGraphic" in2="effect1_dropShadow_384_25498" result="shape"/>
</filter>
</defs>
</svg>
