<svg width="52" height="36" viewBox="0 0 52 36" fill="none" xmlns="http://www.w3.org/2000/svg">
<g style="mix-blend-mode:luminosity" opacity="0.6" clip-path="url(#clip0_2829_8479)">
<g clip-path="url(#clip1_2829_8479)">
<path d="M34.9796 2.56055L35.9601 22.0034L26.2999 22.49L25.3193 3.04717" fill="url(#paint0_linear_2829_8479)"/>
<path d="M34.9796 2.56055L35.9601 22.0034L26.2999 22.49L25.3193 3.04717" stroke="#263238" stroke-width="0.0912982" stroke-linecap="round" stroke-linejoin="round"/>
<path d="M33.5879 4.10872L26.8623 4.44824L27.6947 20.9376L34.4203 20.5981L33.5879 4.10872Z" fill="white" stroke="#263238" stroke-width="0.0912982" stroke-linecap="round" stroke-linejoin="round"/>
<path d="M32.1686 12.4484C32.2334 13.7312 31.6016 14.8067 30.7571 14.8487C29.9126 14.8916 29.1758 13.8855 29.111 12.6027C29.0462 11.3191 29.678 10.2445 30.5225 10.2025C31.367 10.1596 32.1038 11.1657 32.1686 12.4484Z" fill="white" stroke="#263238" stroke-width="0.0912982" stroke-linecap="round" stroke-linejoin="round"/>
<path d="M37.6539 2.74693L36.4926 22.1797L26.8369 21.6027L27.9991 2.16992" fill="url(#paint1_linear_2829_8479)"/>
<path d="M37.6539 2.74693L36.4926 22.1797L26.8369 21.6027L27.9991 2.16992" stroke="#263238" stroke-width="0.0912982" stroke-linecap="round" stroke-linejoin="round"/>
<path d="M36.0991 4.13463L29.377 3.73291L28.392 20.2139L35.1142 20.6156L36.0991 4.13463Z" fill="white" stroke="#263238" stroke-width="0.0912982" stroke-linecap="round" stroke-linejoin="round"/>
<path d="M33.7741 12.2654C33.6974 13.5481 32.9515 14.547 32.1079 14.4967C31.2643 14.4465 30.6426 13.3656 30.7193 12.0837C30.796 10.801 31.5419 9.80219 32.3855 9.8524C33.2291 9.90261 33.8508 10.9836 33.7741 12.2663V12.2654Z" fill="url(#paint2_linear_2829_8479)" stroke="#263238" stroke-width="0.0912982" stroke-linecap="round" stroke-linejoin="round"/>
<path d="M31.4032 1.3208L40.8808 3.25176L36.9943 22.3276L27.5166 20.3966L31.4032 1.3208Z" fill="url(#paint3_linear_2829_8479)" stroke="#263238" stroke-width="0.0912982" stroke-linecap="round" stroke-linejoin="round"/>
<path d="M32.5478 3.06299L39.1468 4.40781L35.851 20.5858L29.252 19.241L32.5478 3.06299Z" fill="white" stroke="#263238" stroke-width="0.0912982" stroke-linecap="round" stroke-linejoin="round"/>
<path d="M35.6987 12.1298C35.4422 13.3888 34.563 14.2725 33.7349 14.1036C32.9068 13.9347 32.443 12.778 32.6996 11.519C32.9561 10.26 33.8353 9.3762 34.6634 9.5451C35.4915 9.71401 35.9553 10.8708 35.6987 12.1298Z" fill="url(#paint4_linear_2829_8479)" stroke="#263238" stroke-width="0.0912982" stroke-linecap="round" stroke-linejoin="round"/>
<path d="M34.3886 2.04199L43.502 5.28216L36.9815 23.6249L27.8672 20.3847L34.3886 2.04199Z" fill="url(#paint5_linear_2829_8479)" stroke="#263238" stroke-width="0.0912982" stroke-linecap="round" stroke-linejoin="round"/>
<path d="M41.6225 6.18291L35.2773 3.92725L29.7471 19.4839L36.0922 21.7395L41.6225 6.18291Z" fill="white" stroke="#263238" stroke-width="0.0912982" stroke-linecap="round" stroke-linejoin="round"/>
<path d="M37.1262 13.3469C36.6962 14.5575 35.701 15.3089 34.9049 15.0259C34.1088 14.7429 33.8121 13.5322 34.2421 12.3216C34.6721 11.111 35.6673 10.3596 36.4634 10.6427C37.2595 10.9257 37.5562 12.1363 37.1262 13.3469Z" fill="url(#paint6_linear_2829_8479)" stroke="#263238" stroke-width="0.0912982" stroke-linecap="round" stroke-linejoin="round"/>
<path d="M45.7779 7.9103L37.373 3.12402L27.7395 20.0408L36.1444 24.8271L45.7779 7.9103Z" fill="url(#paint7_linear_2829_8479)" stroke="#263238" stroke-width="0.0912982" stroke-linecap="round" stroke-linejoin="round"/>
<path d="M43.7708 8.46815L37.9189 5.13574L29.7488 19.4829L35.6006 22.8153L43.7708 8.46815Z" fill="white" stroke="#263238" stroke-width="0.0912982" stroke-linecap="round" stroke-linejoin="round"/>
<path d="M38.0881 14.7342C37.4527 15.8508 36.3416 16.4168 35.6066 15.9987C34.8726 15.5806 34.7923 14.3362 35.4277 13.2196C36.0631 12.103 37.1742 11.537 37.9092 11.9551C38.6432 12.3732 38.7236 13.6176 38.0881 14.7342Z" fill="url(#paint8_linear_2829_8479)" stroke="#263238" stroke-width="0.0912982" stroke-linecap="round" stroke-linejoin="round"/>
<path d="M47.8583 11.5502L40.6514 5.09961L27.668 19.6054L34.875 26.0559L47.8583 11.5502Z" fill="url(#paint9_linear_2829_8479)" stroke="#263238" stroke-width="0.0912982" stroke-linecap="round" stroke-linejoin="round"/>
<path d="M45.7776 11.6728L40.7598 7.18164L29.7486 19.484L34.7664 23.9751L45.7776 11.6728Z" fill="white" stroke="#263238" stroke-width="0.0912982" stroke-linecap="round" stroke-linejoin="round"/>
<path d="M38.9016 16.5996C38.0443 17.5574 36.8391 17.876 36.2101 17.3118C35.5801 16.7485 35.7646 15.515 36.6209 14.5573C37.4782 13.6005 38.6834 13.281 39.3124 13.8452C39.9424 14.4085 39.7579 15.6419 38.9016 16.5996Z" fill="url(#paint10_linear_2829_8479)" stroke="#263238" stroke-width="0.0912982" stroke-linecap="round" stroke-linejoin="round"/>
<path d="M49.0505 15.199L43.2256 7.47754L27.6843 19.2015L33.5092 26.923L49.0505 15.199Z" fill="url(#paint11_linear_2829_8479)" stroke="#263238" stroke-width="0.0912982" stroke-linecap="round" stroke-linejoin="round"/>
<path d="M46.9852 14.9165L42.9297 9.54053L29.7491 19.4836L33.8047 24.8596L46.9852 14.9165Z" fill="white" stroke="#263238" stroke-width="0.0912982" stroke-linecap="round" stroke-linejoin="round"/>
<path d="M39.2869 18.4227C38.2617 19.196 37.0173 19.2763 36.5078 18.6016C35.9984 17.9269 36.4174 16.7528 37.4436 15.9786C38.4689 15.2053 39.7133 15.125 40.2227 15.7997C40.7322 16.4744 40.3131 17.6485 39.2869 18.4227Z" fill="url(#paint12_linear_2829_8479)" stroke="#263238" stroke-width="0.0912982" stroke-linecap="round" stroke-linejoin="round"/>
<path d="M34.8357 5.43652H10.7412V41.1578H34.8357V5.43652Z" fill="white" stroke="#263238" stroke-width="0.0912982" stroke-linecap="round" stroke-linejoin="round"/>
<path d="M33.7604 14.4858H12.1328V14.9761H33.7604V14.4858Z" fill="url(#paint13_linear_2829_8479)"/>
<path d="M29.7721 32.2783C27.7873 32.2783 26.1777 33.8879 26.1777 35.8727C26.1777 37.8576 27.7873 39.4671 29.7721 39.4671C31.757 39.4671 33.3666 37.8576 33.3666 35.8727C33.3666 33.8879 31.757 32.2783 29.7721 32.2783ZM29.7721 39.0316C28.0274 39.0316 26.6132 37.6174 26.6132 35.8727C26.6132 34.128 28.0274 32.7138 29.7721 32.7138C31.5169 32.7138 32.9311 34.128 32.9311 35.8727C32.9311 37.6174 31.5169 39.0316 29.7721 39.0316ZM29.7721 38.4839C28.3305 38.4839 27.1619 37.3152 27.1619 35.8736C27.1619 34.432 28.3305 33.2634 29.7721 33.2634C31.2137 33.2634 32.3824 34.432 32.3824 35.8736C32.3824 37.3152 31.2137 38.4839 29.7721 38.4839Z" fill="url(#paint14_linear_2829_8479)"/>
<path d="M19.0117 21.0366H26.2699" stroke="#263238" stroke-width="0.0912982" stroke-linecap="round" stroke-linejoin="round"/>
<path d="M19.0117 21.9917H31.8738" stroke="#263238" stroke-width="0.0912982" stroke-linecap="round" stroke-linejoin="round"/>
<path d="M19.0117 23.1382H31.8738" stroke="#263238" stroke-width="0.0912982" stroke-linecap="round" stroke-linejoin="round"/>
<path d="M19.0117 17.0894H31.8738" stroke="#263238" stroke-width="0.0912982" stroke-linecap="round" stroke-linejoin="round"/>
<path d="M12.6719 17.6621H16.6826" stroke="#263238" stroke-width="0.0912982" stroke-linecap="round" stroke-linejoin="round"/>
<path d="M12.6719 18.8721H16.6826" stroke="#263238" stroke-width="0.0912982" stroke-linecap="round" stroke-linejoin="round"/>
<path d="M12.6719 20.0815H16.6826" stroke="#263238" stroke-width="0.0912982" stroke-linecap="round" stroke-linejoin="round"/>
<path d="M12.6719 21.2915H16.6826" stroke="#263238" stroke-width="0.0912982" stroke-linecap="round" stroke-linejoin="round"/>
<path d="M12.6719 22.501H16.6826" stroke="#263238" stroke-width="0.0912982" stroke-linecap="round" stroke-linejoin="round"/>
<path d="M12.6719 23.7109H16.6826" stroke="#263238" stroke-width="0.0912982" stroke-linecap="round" stroke-linejoin="round"/>
<path d="M12.3113 16.1978H16.9867C17.1894 16.1978 17.3546 16.3621 17.3546 16.5657V25.6362C17.3546 25.8388 17.1903 26.0041 16.9867 26.0041H12.3113C12.1086 26.0041 11.9434 25.8398 11.9434 25.6362V16.5657C11.9434 16.363 12.1077 16.1978 12.3113 16.1978Z" stroke="#263238" stroke-width="0.0912982" stroke-linecap="round" stroke-linejoin="round"/>
<path d="M18.3728 16.1978H33.479C33.6817 16.1978 33.8469 16.3621 33.8469 16.5657V18.1862C33.8469 18.3889 33.6826 18.5542 33.479 18.5542H18.3728C18.1701 18.5542 18.0049 18.3898 18.0049 18.1862V16.5657C18.0049 16.363 18.1692 16.1978 18.3728 16.1978Z" stroke="#263238" stroke-width="0.0912982" stroke-linecap="round" stroke-linejoin="round"/>
<path d="M18.3728 19.7632H33.4133C33.616 19.7632 33.7812 19.9275 33.7812 20.1311V25.6355C33.7812 25.8382 33.6169 26.0034 33.4133 26.0034H18.3728C18.1701 26.0034 18.0049 25.8391 18.0049 25.6355V20.1311C18.0049 19.9284 18.1692 19.7632 18.3728 19.7632Z" stroke="#263238" stroke-width="0.0912982" stroke-linecap="round" stroke-linejoin="round"/>
<path d="M13.8525 28.7412H31.873" stroke="#263238" stroke-width="0.0912982" stroke-linecap="round" stroke-linejoin="round"/>
<path d="M13.8525 30.7793H31.873" stroke="#263238" stroke-width="0.0912982" stroke-linecap="round" stroke-linejoin="round"/>
<path d="M13.8525 32.8169H31.873" stroke="#263238" stroke-width="0.0912982" stroke-linecap="round" stroke-linejoin="round"/>
<path d="M13.8525 34.854H31.873" stroke="#263238" stroke-width="0.0912982" stroke-linecap="round" stroke-linejoin="round"/>
<path d="M13.9912 35.7876V36.686C13.9912 36.7964 15.6008 36.8859 17.5865 36.8859C19.5723 36.8859 21.1819 36.7964 21.1819 36.686V35.7876H13.9921H13.9912Z" fill="white" stroke="#263238" stroke-width="0.0912982" stroke-linecap="round" stroke-linejoin="round"/>
<path d="M21.1809 35.7878C21.1809 35.8983 19.5713 35.9878 17.5856 35.9878C15.5998 35.9878 13.9902 35.8983 13.9902 35.7878C13.9902 35.6774 15.5998 35.5879 17.5856 35.5879C19.5713 35.5879 21.1809 35.6774 21.1809 35.7878Z" fill="white" stroke="#263238" stroke-width="0.0912982" stroke-linecap="round" stroke-linejoin="round"/>
<path d="M20.3469 35.7621C20.3469 35.8333 19.1107 35.8899 17.5861 35.8899C16.0614 35.8899 14.8252 35.8324 14.8252 35.7621C14.8252 35.6918 16.0614 35.6343 17.5861 35.6343C19.1107 35.6343 20.3469 35.6918 20.3469 35.7621Z" fill="white" stroke="#263238" stroke-width="0.0912982" stroke-linecap="round" stroke-linejoin="round"/>
<path d="M20.8223 35.8901V36.5867" stroke="#263238" stroke-width="0.0912982" stroke-linecap="round" stroke-linejoin="round"/>
<path d="M20.3086 35.9629V36.6969" stroke="#263238" stroke-width="0.0912982" stroke-linecap="round" stroke-linejoin="round"/>
<path d="M19.5391 35.9814V36.5502" stroke="#263238" stroke-width="0.0912982" stroke-linecap="round" stroke-linejoin="round"/>
<path d="M14.2197 35.8901V36.2015" stroke="#263238" stroke-width="0.0912982" stroke-linecap="round" stroke-linejoin="round"/>
<path d="M13.8809 34.8872V35.7856C13.8809 35.8961 15.4904 35.9855 17.4762 35.9855C19.4619 35.9855 21.0715 35.8961 21.0715 35.7856V34.8872H13.8818H13.8809Z" fill="white" stroke="#263238" stroke-width="0.0912982" stroke-linecap="round" stroke-linejoin="round"/>
<path d="M21.0715 34.8874C21.0715 34.9979 19.4619 35.0874 17.4762 35.0874C15.4904 35.0874 13.8809 34.9979 13.8809 34.8874C13.8809 34.777 15.4904 34.6875 17.4762 34.6875C19.4619 34.6875 21.0715 34.777 21.0715 34.8874Z" fill="white" stroke="#263238" stroke-width="0.0912982" stroke-linecap="round" stroke-linejoin="round"/>
<path d="M20.2375 34.8632C20.2375 34.9344 19.0014 34.991 17.4767 34.991C15.952 34.991 14.7158 34.9335 14.7158 34.8632C14.7158 34.7929 15.952 34.7354 17.4767 34.7354C19.0014 34.7354 20.2375 34.7929 20.2375 34.8632Z" fill="white" stroke="#263238" stroke-width="0.0912982" stroke-linecap="round" stroke-linejoin="round"/>
<path d="M20.7129 34.9897V35.6873" stroke="#263238" stroke-width="0.0912982" stroke-linecap="round" stroke-linejoin="round"/>
<path d="M20.2002 35.064V35.7971" stroke="#263238" stroke-width="0.0912982" stroke-linecap="round" stroke-linejoin="round"/>
<path d="M19.4287 35.082V35.6499" stroke="#263238" stroke-width="0.0912982" stroke-linecap="round" stroke-linejoin="round"/>
<path d="M18.4209 35.4492V35.9441" stroke="#263238" stroke-width="0.0912982" stroke-linecap="round" stroke-linejoin="round"/>
<path d="M17.3389 35.9986V35.375" stroke="#263238" stroke-width="0.0912982" stroke-linecap="round" stroke-linejoin="round"/>
<path d="M14.1113 34.9897V35.302" stroke="#263238" stroke-width="0.0912982" stroke-linecap="round" stroke-linejoin="round"/>
<path d="M14.5332 35.8709V35.5039" stroke="#263238" stroke-width="0.0912982" stroke-linecap="round" stroke-linejoin="round"/>
<path d="M16.2021 35.9073V35.4673" stroke="#263238" stroke-width="0.0912982" stroke-linecap="round" stroke-linejoin="round"/>
<path d="M13.6904 33.9883V34.8867C13.6904 34.9971 15.3 35.0866 17.2858 35.0866C19.2715 35.0866 20.8811 34.9971 20.8811 34.8867V33.9883H13.6913H13.6904Z" fill="white" stroke="#263238" stroke-width="0.0912982" stroke-linecap="round" stroke-linejoin="round"/>
<path d="M20.8811 33.988C20.8811 34.0985 19.2715 34.188 17.2858 34.188C15.3 34.188 13.6904 34.0985 13.6904 33.988C13.6904 33.8776 15.3 33.7881 17.2858 33.7881C19.2715 33.7881 20.8811 33.8776 20.8811 33.988Z" fill="white" stroke="#263238" stroke-width="0.0912982" stroke-linecap="round" stroke-linejoin="round"/>
<path d="M20.0461 33.9628C20.0461 34.034 18.8099 34.0906 17.2853 34.0906C15.7606 34.0906 14.5244 34.0331 14.5244 33.9628C14.5244 33.8925 15.7606 33.835 17.2853 33.835C18.8099 33.835 20.0461 33.8925 20.0461 33.9628Z" fill="white" stroke="#263238" stroke-width="0.0912982" stroke-linecap="round" stroke-linejoin="round"/>
<path d="M20.5215 34.0903V34.7869" stroke="#263238" stroke-width="0.0912982" stroke-linecap="round" stroke-linejoin="round"/>
<path d="M20.0088 34.1636V34.8976" stroke="#263238" stroke-width="0.0912982" stroke-linecap="round" stroke-linejoin="round"/>
<path d="M19.2383 34.1816V34.7504" stroke="#263238" stroke-width="0.0912982" stroke-linecap="round" stroke-linejoin="round"/>
<path d="M18.2295 34.5488V35.0437" stroke="#263238" stroke-width="0.0912982" stroke-linecap="round" stroke-linejoin="round"/>
<path d="M17.1475 35.0992V34.4756" stroke="#263238" stroke-width="0.0912982" stroke-linecap="round" stroke-linejoin="round"/>
<path d="M13.9199 34.0903V34.4017" stroke="#263238" stroke-width="0.0912982" stroke-linecap="round" stroke-linejoin="round"/>
<path d="M14.3418 34.9705V34.6035" stroke="#263238" stroke-width="0.0912982" stroke-linecap="round" stroke-linejoin="round"/>
<path d="M16.0107 35.007V34.5669" stroke="#263238" stroke-width="0.0912982" stroke-linecap="round" stroke-linejoin="round"/>
<path d="M13.9912 33.0879V33.9863C13.9912 34.0967 15.6008 34.1862 17.5865 34.1862C19.5723 34.1862 21.1819 34.0967 21.1819 33.9863V33.0879H13.9921H13.9912Z" fill="white" stroke="#263238" stroke-width="0.0912982" stroke-linecap="round" stroke-linejoin="round"/>
<path d="M21.1809 33.0881C21.1809 33.1986 19.5713 33.2881 17.5856 33.2881C15.5998 33.2881 13.9902 33.1986 13.9902 33.0881C13.9902 32.9777 15.5998 32.8882 17.5856 32.8882C19.5713 32.8882 21.1809 32.9777 21.1809 33.0881Z" fill="white" stroke="#263238" stroke-width="0.0912982" stroke-linecap="round" stroke-linejoin="round"/>
<path d="M20.3469 33.0634C20.3469 33.1346 19.1107 33.1912 17.5861 33.1912C16.0614 33.1912 14.8252 33.1337 14.8252 33.0634C14.8252 32.9931 16.0614 32.9355 17.5861 32.9355C19.1107 32.9355 20.3469 32.9931 20.3469 33.0634Z" fill="white" stroke="#263238" stroke-width="0.0912982" stroke-linecap="round" stroke-linejoin="round"/>
<path d="M20.8223 33.1899V33.8875" stroke="#263238" stroke-width="0.0912982" stroke-linecap="round" stroke-linejoin="round"/>
<path d="M20.3086 33.2642V33.9973" stroke="#263238" stroke-width="0.0912982" stroke-linecap="round" stroke-linejoin="round"/>
<path d="M19.5391 33.2822V33.8501" stroke="#263238" stroke-width="0.0912982" stroke-linecap="round" stroke-linejoin="round"/>
<path d="M18.5303 33.6494V34.1442" stroke="#263238" stroke-width="0.0912982" stroke-linecap="round" stroke-linejoin="round"/>
<path d="M17.4482 34.1988V33.5752" stroke="#263238" stroke-width="0.0912982" stroke-linecap="round" stroke-linejoin="round"/>
<path d="M14.2197 33.1899V33.5022" stroke="#263238" stroke-width="0.0912982" stroke-linecap="round" stroke-linejoin="round"/>
<path d="M14.6416 34.0711V33.7041" stroke="#263238" stroke-width="0.0912982" stroke-linecap="round" stroke-linejoin="round"/>
<path d="M16.3105 34.1075V33.6675" stroke="#263238" stroke-width="0.0912982" stroke-linecap="round" stroke-linejoin="round"/>
<path d="M13.7451 32.1885V33.0869C13.7451 33.1973 15.3547 33.2868 17.3404 33.2868C19.3262 33.2868 20.9358 33.1973 20.9358 33.0869V32.1885H13.746H13.7451Z" fill="white" stroke="#263238" stroke-width="0.0912982" stroke-linecap="round" stroke-linejoin="round"/>
<path d="M17.3404 32.3887C19.3261 32.3887 20.9358 32.2991 20.9358 32.1887C20.9358 32.0783 19.3261 31.9888 17.3404 31.9888C15.3548 31.9888 13.7451 32.0783 13.7451 32.1887C13.7451 32.2991 15.3548 32.3887 17.3404 32.3887Z" fill="white" stroke="#263238" stroke-width="0.0912982" stroke-linecap="round" stroke-linejoin="round"/>
<path d="M20.1008 32.163C20.1008 32.2342 18.8646 32.2908 17.34 32.2908C15.8153 32.2908 14.5791 32.2333 14.5791 32.163C14.5791 32.0927 15.8153 32.0352 17.34 32.0352C18.8646 32.0352 20.1008 32.0927 20.1008 32.163Z" fill="white" stroke="#263238" stroke-width="0.0912982" stroke-linecap="round" stroke-linejoin="round"/>
<path d="M20.5771 32.291V32.9876" stroke="#263238" stroke-width="0.0912982" stroke-linecap="round" stroke-linejoin="round"/>
<path d="M20.0625 32.3638V33.0978" stroke="#263238" stroke-width="0.0912982" stroke-linecap="round" stroke-linejoin="round"/>
<path d="M19.293 32.3823V32.9511" stroke="#263238" stroke-width="0.0912982" stroke-linecap="round" stroke-linejoin="round"/>
<path d="M18.2842 32.749V33.2439" stroke="#263238" stroke-width="0.0912982" stroke-linecap="round" stroke-linejoin="round"/>
<path d="M17.2031 33.2998V32.6763" stroke="#263238" stroke-width="0.0912982" stroke-linecap="round" stroke-linejoin="round"/>
<path d="M13.9746 32.291V32.6023" stroke="#263238" stroke-width="0.0912982" stroke-linecap="round" stroke-linejoin="round"/>
<path d="M14.3975 33.1707V32.8037" stroke="#263238" stroke-width="0.0912982" stroke-linecap="round" stroke-linejoin="round"/>
<path d="M16.0664 33.2076V32.7676" stroke="#263238" stroke-width="0.0912982" stroke-linecap="round" stroke-linejoin="round"/>
<path d="M13.9912 31.2881V32.1865C13.9912 32.2969 15.6008 32.3864 17.5865 32.3864C19.5723 32.3864 21.1819 32.2969 21.1819 32.1865V31.2881H13.9921H13.9912Z" fill="white" stroke="#263238" stroke-width="0.0912982" stroke-linecap="round" stroke-linejoin="round"/>
<path d="M21.1809 31.2883C21.1809 31.3988 19.5713 31.4883 17.5856 31.4883C15.5998 31.4883 13.9902 31.3988 13.9902 31.2883C13.9902 31.1779 15.5998 31.0884 17.5856 31.0884C19.5713 31.0884 21.1809 31.1779 21.1809 31.2883Z" fill="white" stroke="#263238" stroke-width="0.0912982" stroke-linecap="round" stroke-linejoin="round"/>
<path d="M20.3469 31.264C20.3469 31.3353 19.1107 31.3919 17.5861 31.3919C16.0614 31.3919 14.8252 31.3343 14.8252 31.264C14.8252 31.1937 16.0614 31.1362 17.5861 31.1362C19.1107 31.1362 20.3469 31.1937 20.3469 31.264Z" fill="white" stroke="#263238" stroke-width="0.0912982" stroke-linecap="round" stroke-linejoin="round"/>
<path d="M20.8223 31.3906V32.0881" stroke="#263238" stroke-width="0.0912982" stroke-linecap="round" stroke-linejoin="round"/>
<path d="M20.3086 31.4648V32.198" stroke="#263238" stroke-width="0.0912982" stroke-linecap="round" stroke-linejoin="round"/>
<path d="M19.5391 31.4829V32.0508" stroke="#263238" stroke-width="0.0912982" stroke-linecap="round" stroke-linejoin="round"/>
<path d="M18.5303 31.8501V32.3449" stroke="#263238" stroke-width="0.0912982" stroke-linecap="round" stroke-linejoin="round"/>
<path d="M17.4482 32.3994V31.7759" stroke="#263238" stroke-width="0.0912982" stroke-linecap="round" stroke-linejoin="round"/>
<path d="M14.2197 31.3906V31.7029" stroke="#263238" stroke-width="0.0912982" stroke-linecap="round" stroke-linejoin="round"/>
<path d="M14.6416 32.2718V31.9048" stroke="#263238" stroke-width="0.0912982" stroke-linecap="round" stroke-linejoin="round"/>
<path d="M16.3105 32.3082V31.8682" stroke="#263238" stroke-width="0.0912982" stroke-linecap="round" stroke-linejoin="round"/>
<path d="M14.2627 30.3892V31.2875C14.2627 31.398 15.8723 31.4875 17.858 31.4875C19.8438 31.4875 21.4533 31.398 21.4533 31.2875V30.3892H14.2636H14.2627Z" fill="white" stroke="#263238" stroke-width="0.0912982" stroke-linecap="round" stroke-linejoin="round"/>
<path d="M17.858 30.5888C19.8437 30.5888 21.4533 30.4993 21.4533 30.3889C21.4533 30.2785 19.8437 30.189 17.858 30.189C15.8724 30.189 14.2627 30.2785 14.2627 30.3889C14.2627 30.4993 15.8724 30.5888 17.858 30.5888Z" fill="white" stroke="#263238" stroke-width="0.0912982" stroke-linecap="round" stroke-linejoin="round"/>
<path d="M20.6194 30.3637C20.6194 30.4349 19.3832 30.4915 17.8585 30.4915C16.3338 30.4915 15.0977 30.434 15.0977 30.3637C15.0977 30.2934 16.3338 30.2358 17.8585 30.2358C19.3832 30.2358 20.6194 30.2934 20.6194 30.3637Z" fill="white" stroke="#263238" stroke-width="0.0912982" stroke-linecap="round" stroke-linejoin="round"/>
<path d="M21.0947 30.4912V31.1878" stroke="#263238" stroke-width="0.0912982" stroke-linecap="round" stroke-linejoin="round"/>
<path d="M20.5811 30.5645V31.2985" stroke="#263238" stroke-width="0.0912982" stroke-linecap="round" stroke-linejoin="round"/>
<path d="M19.8105 30.5825V31.1513" stroke="#263238" stroke-width="0.0912982" stroke-linecap="round" stroke-linejoin="round"/>
<path d="M18.8018 30.9497V31.4445" stroke="#263238" stroke-width="0.0912982" stroke-linecap="round" stroke-linejoin="round"/>
<path d="M17.7197 31.5V30.8765" stroke="#263238" stroke-width="0.0912982" stroke-linecap="round" stroke-linejoin="round"/>
<path d="M14.4922 30.4912V30.8025" stroke="#263238" stroke-width="0.0912982" stroke-linecap="round" stroke-linejoin="round"/>
<path d="M14.9141 31.3714V31.0044" stroke="#263238" stroke-width="0.0912982" stroke-linecap="round" stroke-linejoin="round"/>
<path d="M16.583 31.4078V30.9678" stroke="#263238" stroke-width="0.0912982" stroke-linecap="round" stroke-linejoin="round"/>
<path d="M14.2627 29.5444V30.4428C14.2627 30.5533 15.8723 30.6428 17.858 30.6428C19.8438 30.6428 21.4533 30.5533 21.4533 30.4428V29.5444H14.2636H14.2627Z" fill="white" stroke="#263238" stroke-width="0.0912982" stroke-linecap="round" stroke-linejoin="round"/>
<path d="M21.4533 29.5447C21.4533 29.6551 19.8438 29.7446 17.858 29.7446C15.8723 29.7446 14.2627 29.6551 14.2627 29.5447C14.2627 29.4342 15.8723 29.3447 17.858 29.3447C19.8438 29.3447 21.4533 29.4342 21.4533 29.5447Z" fill="white" stroke="#263238" stroke-width="0.0912982" stroke-linecap="round" stroke-linejoin="round"/>
<path d="M17.8575 29.6467C19.3823 29.6467 20.6184 29.5895 20.6184 29.5189C20.6184 29.4483 19.3823 29.3911 17.8575 29.3911C16.3328 29.3911 15.0967 29.4483 15.0967 29.5189C15.0967 29.5895 16.3328 29.6467 17.8575 29.6467Z" fill="white" stroke="#263238" stroke-width="0.0912982" stroke-linecap="round" stroke-linejoin="round"/>
<path d="M21.0947 29.647V30.3436" stroke="#263238" stroke-width="0.0912982" stroke-linecap="round" stroke-linejoin="round"/>
<path d="M20.5811 29.7197V30.4538" stroke="#263238" stroke-width="0.0912982" stroke-linecap="round" stroke-linejoin="round"/>
<path d="M19.8105 29.7393V30.3071" stroke="#263238" stroke-width="0.0912982" stroke-linecap="round" stroke-linejoin="round"/>
<path d="M18.8018 30.105V30.6007" stroke="#263238" stroke-width="0.0912982" stroke-linecap="round" stroke-linejoin="round"/>
<path d="M17.7197 30.6558V30.0322" stroke="#263238" stroke-width="0.0912982" stroke-linecap="round" stroke-linejoin="round"/>
<path d="M14.4922 29.647V29.9592" stroke="#263238" stroke-width="0.0912982" stroke-linecap="round" stroke-linejoin="round"/>
<path d="M14.9141 30.5272V30.1611" stroke="#263238" stroke-width="0.0912982" stroke-linecap="round" stroke-linejoin="round"/>
<path d="M16.583 30.5636V30.1235" stroke="#263238" stroke-width="0.0912982" stroke-linecap="round" stroke-linejoin="round"/>
<path d="M13.918 28.7002V29.5986C13.918 29.709 15.5276 29.7985 17.5133 29.7985C19.499 29.7985 21.1086 29.709 21.1086 29.5986V28.7002H13.9189H13.918Z" fill="white" stroke="#263238" stroke-width="0.0912982" stroke-linecap="round" stroke-linejoin="round"/>
<path d="M17.5133 28.8999C19.4989 28.8999 21.1086 28.8104 21.1086 28.6999C21.1086 28.5895 19.4989 28.5 17.5133 28.5C15.5276 28.5 13.918 28.5895 13.918 28.6999C13.918 28.8104 15.5276 28.8999 17.5133 28.8999Z" fill="white" stroke="#263238" stroke-width="0.0912982" stroke-linecap="round" stroke-linejoin="round"/>
<path d="M17.5128 28.8035C19.0376 28.8035 20.2737 28.7463 20.2737 28.6757C20.2737 28.6051 19.0376 28.5479 17.5128 28.5479C15.988 28.5479 14.752 28.6051 14.752 28.6757C14.752 28.7463 15.988 28.8035 17.5128 28.8035Z" fill="white" stroke="#263238" stroke-width="0.0912982" stroke-linecap="round" stroke-linejoin="round"/>
<path d="M20.75 28.8022V29.4998" stroke="#263238" stroke-width="0.0912982" stroke-linecap="round" stroke-linejoin="round"/>
<path d="M20.2354 28.8765V29.6096" stroke="#263238" stroke-width="0.0912982" stroke-linecap="round" stroke-linejoin="round"/>
<path d="M19.4658 28.8945V29.4624" stroke="#263238" stroke-width="0.0912982" stroke-linecap="round" stroke-linejoin="round"/>
<path d="M18.457 29.2617V29.7566" stroke="#263238" stroke-width="0.0912982" stroke-linecap="round" stroke-linejoin="round"/>
<path d="M17.375 29.8111V29.1875" stroke="#263238" stroke-width="0.0912982" stroke-linecap="round" stroke-linejoin="round"/>
<path d="M14.1475 28.8022V29.1145" stroke="#263238" stroke-width="0.0912982" stroke-linecap="round" stroke-linejoin="round"/>
<path d="M14.5703 29.6834V29.3164" stroke="#263238" stroke-width="0.0912982" stroke-linecap="round" stroke-linejoin="round"/>
<path d="M16.2383 29.7198V29.2798" stroke="#263238" stroke-width="0.0912982" stroke-linecap="round" stroke-linejoin="round"/>
<path d="M13.4961 27.8555V28.7538C13.4961 28.8643 15.1057 28.9538 17.0914 28.9538C19.0772 28.9538 20.6867 28.8643 20.6867 28.7538V27.8555H13.497H13.4961Z" fill="white" stroke="#263238" stroke-width="0.0912982" stroke-linecap="round" stroke-linejoin="round"/>
<path d="M20.6858 27.8557C20.6858 27.9662 19.0762 28.0556 17.0904 28.0556C15.1047 28.0556 13.4951 27.9662 13.4951 27.8557C13.4951 27.7452 15.1047 27.6558 17.0904 27.6558C19.0762 27.6558 20.6858 27.7452 20.6858 27.8557Z" fill="white" stroke="#263238" stroke-width="0.0912982" stroke-linecap="round" stroke-linejoin="round"/>
<path d="M19.8518 27.8309C19.8518 27.9022 18.6156 27.9588 17.0909 27.9588C15.5663 27.9588 14.3301 27.9012 14.3301 27.8309C14.3301 27.7606 15.5663 27.7031 17.0909 27.7031C18.6156 27.7031 19.8518 27.7606 19.8518 27.8309Z" fill="white" stroke="#263238" stroke-width="0.0912982" stroke-linecap="round" stroke-linejoin="round"/>
<path d="M20.3271 27.9585V28.6551" stroke="#263238" stroke-width="0.0912982" stroke-linecap="round" stroke-linejoin="round"/>
<path d="M19.8145 28.0317V28.7649" stroke="#263238" stroke-width="0.0912982" stroke-linecap="round" stroke-linejoin="round"/>
<path d="M19.043 28.0503V28.6191" stroke="#263238" stroke-width="0.0912982" stroke-linecap="round" stroke-linejoin="round"/>
<path d="M18.0352 28.417V28.9118" stroke="#263238" stroke-width="0.0912982" stroke-linecap="round" stroke-linejoin="round"/>
<path d="M16.9531 28.9668V28.3433" stroke="#263238" stroke-width="0.0912982" stroke-linecap="round" stroke-linejoin="round"/>
<path d="M13.7246 27.9585V28.2698" stroke="#263238" stroke-width="0.0912982" stroke-linecap="round" stroke-linejoin="round"/>
<path d="M14.1475 28.8387V28.4717" stroke="#263238" stroke-width="0.0912982" stroke-linecap="round" stroke-linejoin="round"/>
<path d="M15.8164 28.8756V28.4355" stroke="#263238" stroke-width="0.0912982" stroke-linecap="round" stroke-linejoin="round"/>
<path d="M7.5127 35.9692V36.8676C7.5127 36.9781 9.12228 37.0676 11.108 37.0676C13.0938 37.0676 14.7033 36.9781 14.7033 36.8676V35.9692H7.51361H7.5127Z" fill="white" stroke="#263238" stroke-width="0.0912982" stroke-linecap="round" stroke-linejoin="round"/>
<path d="M11.108 36.1694C13.0937 36.1694 14.7033 36.0799 14.7033 35.9695C14.7033 35.859 13.0937 35.7695 11.108 35.7695C9.12237 35.7695 7.5127 35.859 7.5127 35.9695C7.5127 36.0799 9.12237 36.1694 11.108 36.1694Z" fill="white" stroke="#263238" stroke-width="0.0912982" stroke-linecap="round" stroke-linejoin="round"/>
<path d="M13.8694 35.9437C13.8694 36.015 12.6332 36.0716 11.1085 36.0716C9.58383 36.0716 8.34766 36.014 8.34766 35.9437C8.34766 35.8734 9.58383 35.8159 11.1085 35.8159C12.6332 35.8159 13.8694 35.8734 13.8694 35.9437Z" fill="white" stroke="#263238" stroke-width="0.0912982" stroke-linecap="round" stroke-linejoin="round"/>
<path d="M18.642 39.3817C18.988 37.2362 17.5292 35.2165 15.3837 34.8705C13.2382 34.5246 11.2185 35.9834 10.8725 38.1289C10.5265 40.2744 11.9854 42.2941 14.1309 42.6401C16.2764 42.986 18.2961 41.5272 18.642 39.3817Z" fill="#263238" stroke="#263238" stroke-width="0.0912982" stroke-linecap="round" stroke-linejoin="round"/>
<path d="M18.2966 39.8844C18.9196 37.8024 17.7369 35.6096 15.6549 34.9865C13.5729 34.3635 11.3801 35.5462 10.757 37.6282C10.134 39.7102 11.3167 41.903 13.3987 42.5261C15.4807 43.1491 17.6735 41.9664 18.2966 39.8844Z" fill="white" stroke="#263238" stroke-width="0.0912982" stroke-linecap="round" stroke-linejoin="round"/>
<path d="M17.8574 39.4931C18.2672 37.6534 17.1081 35.8297 15.2685 35.4199C13.4288 35.01 11.6051 36.1691 11.1953 38.0088C10.7854 39.8485 11.9445 41.6721 13.7842 42.082C15.6239 42.4919 17.4475 41.3328 17.8574 39.4931Z" fill="white" stroke="#263238" stroke-width="0.0912982" stroke-linecap="round" stroke-linejoin="round"/>
<path d="M15.5062 41.5156L15.2971 40.9778C14.9173 41.1047 14.5904 41.0938 14.3165 40.9431C14.0436 40.7925 13.8089 40.4884 13.6145 40.031L14.3969 39.5828C14.4736 39.7699 14.5494 39.916 14.6233 40.0201C14.6973 40.1251 14.7721 40.1917 14.8479 40.22C14.9237 40.2492 15.0013 40.2474 15.0816 40.2173C15.183 40.178 15.2359 40.1178 15.2396 40.0365C15.2432 39.9562 15.2304 39.8777 15.2012 39.801C15.1309 39.6202 15.0287 39.4833 14.8945 39.392C14.7603 39.2997 14.595 39.2194 14.3969 39.1509L13.882 38.9692C13.735 38.9136 13.5971 38.8515 13.4684 38.783C13.3397 38.7145 13.2219 38.6223 13.1141 38.5082C13.0073 38.3932 12.9169 38.2416 12.843 38.0535C12.7088 37.7093 12.7024 37.4007 12.8238 37.1287C12.9452 36.8566 13.1671 36.643 13.4912 36.4878L13.2904 35.971L13.5679 35.8633L13.7669 36.3736C13.9815 36.3024 14.1686 36.2851 14.3284 36.3207C14.4882 36.3563 14.6242 36.4248 14.7365 36.5252C14.8488 36.6256 14.9438 36.7407 15.0214 36.8712C15.099 37.0018 15.1629 37.1259 15.2131 37.2437L14.4106 37.6746C14.3558 37.5459 14.3038 37.4345 14.2526 37.3414C14.2015 37.2483 14.1476 37.1835 14.0892 37.1451C14.0308 37.1077 13.9605 37.1068 13.8783 37.1424C13.7879 37.178 13.7359 37.2419 13.7213 37.335C13.7076 37.4281 13.7149 37.5121 13.745 37.5888C13.8126 37.7623 13.9121 37.8855 14.0417 37.9586C14.1723 38.0307 14.3083 38.0937 14.4498 38.1466L14.9438 38.3238C15.1108 38.3886 15.2706 38.4635 15.4231 38.5502C15.5755 38.6369 15.7134 38.7465 15.8348 38.8779C15.9572 39.0094 16.0576 39.1774 16.1361 39.3801C16.211 39.5718 16.2393 39.7635 16.2219 39.9534C16.2046 40.1443 16.1407 40.3177 16.0311 40.4757C15.9216 40.6327 15.7673 40.7633 15.5692 40.8646L15.781 41.4078L15.5034 41.5156H15.5062Z" fill="#263238" stroke="#263238" stroke-width="0.0912982" stroke-linecap="round" stroke-linejoin="round"/>
<path d="M15.4066 41.5156L15.1975 40.9778C14.8177 41.1047 14.4908 41.0938 14.2169 40.9431C13.944 40.7925 13.7093 40.4884 13.5149 40.031L14.2973 39.5828C14.374 39.7699 14.4497 39.916 14.5237 40.0201C14.5977 40.1251 14.6725 40.1917 14.7483 40.22C14.8241 40.2492 14.9017 40.2474 14.982 40.2173C15.0834 40.178 15.1363 40.1178 15.14 40.0365C15.1436 39.9562 15.1308 39.8777 15.1016 39.801C15.0313 39.6202 14.9291 39.4833 14.7949 39.392C14.6606 39.2997 14.4954 39.2194 14.2973 39.1509L13.7824 38.9692C13.6354 38.9136 13.4975 38.8515 13.3688 38.783C13.24 38.7145 13.1214 38.6223 13.0145 38.5082C12.9077 38.3932 12.8173 38.2416 12.7434 38.0535C12.6092 37.7093 12.6028 37.4007 12.7242 37.1287C12.8456 36.8566 13.0675 36.643 13.3916 36.4878L13.1907 35.971L13.4683 35.8633L13.6673 36.3736C13.8819 36.3024 14.069 36.2851 14.2288 36.3207C14.3886 36.3563 14.5246 36.4248 14.6369 36.5252C14.7492 36.6256 14.8442 36.7407 14.9218 36.8712C14.9994 37.0018 15.0633 37.1259 15.1135 37.2437L14.311 37.6746C14.2562 37.5459 14.2042 37.4345 14.153 37.3414C14.1019 37.2483 14.048 37.1835 13.9896 37.1451C13.9312 37.1077 13.8609 37.1068 13.7787 37.1424C13.6883 37.178 13.6363 37.2419 13.6217 37.335C13.608 37.4281 13.6153 37.5121 13.6454 37.5888C13.713 37.7623 13.8125 37.8855 13.9421 37.9586C14.0727 38.0307 14.2087 38.0937 14.3502 38.1466L14.8442 38.3238C15.0112 38.3886 15.171 38.4635 15.3235 38.5502C15.4759 38.6369 15.6138 38.7465 15.7352 38.8779C15.8576 39.0094 15.958 39.1774 16.0365 39.3801C16.1114 39.5718 16.1397 39.7635 16.1223 39.9534C16.105 40.1443 16.0411 40.3177 15.9315 40.4757C15.822 40.6327 15.6677 40.7633 15.4695 40.8646L15.6814 41.4078L15.4038 41.5156H15.4066Z" fill="white" stroke="#263238" stroke-width="0.0912982" stroke-linecap="round" stroke-linejoin="round"/>
<path d="M18.2372 11.7956C18.0661 11.7956 17.9135 11.7641 17.7795 11.7012C17.6463 11.6382 17.5405 11.5514 17.4622 11.4408C17.3839 11.3302 17.3431 11.2034 17.3399 11.0606H17.8485C17.8542 11.1566 17.8945 11.2345 17.9696 11.2943C18.0447 11.354 18.1339 11.3839 18.2372 11.3839C18.3196 11.3839 18.3922 11.3657 18.4552 11.3294C18.519 11.2923 18.5686 11.241 18.6042 11.1756C18.6405 11.1094 18.6587 11.0335 18.6587 10.9479C18.6587 10.8607 18.6401 10.784 18.603 10.7178C18.5666 10.6516 18.5162 10.6 18.4516 10.5628C18.387 10.5257 18.3131 10.5067 18.23 10.5059C18.1573 10.5059 18.0867 10.5208 18.018 10.5507C17.9502 10.5806 17.8973 10.6214 17.8594 10.673L17.3932 10.5895L17.5106 9.28159H19.0268V9.71029H17.943L17.8788 10.3315H17.8933C17.9369 10.2702 18.0027 10.2193 18.0907 10.1789C18.1787 10.1386 18.2772 10.1184 18.3862 10.1184C18.5355 10.1184 18.6688 10.1535 18.7858 10.2238C18.9029 10.294 18.9953 10.3905 19.0631 10.5132C19.131 10.6351 19.1645 10.7756 19.1636 10.9346C19.1645 11.1017 19.1257 11.2503 19.0474 11.3803C18.9699 11.5094 18.8613 11.6112 18.7216 11.6854C18.5828 11.7589 18.4213 11.7956 18.2372 11.7956ZM20.4167 11.7617L21.4449 9.72724V9.71029H20.2472V9.28159H21.9874V9.71634L20.958 11.7617H20.4167ZM23.222 11.7956C23.0355 11.7956 22.8696 11.7654 22.7243 11.7048C22.5798 11.6434 22.4663 11.5599 22.384 11.4541C22.3016 11.3484 22.2605 11.2285 22.2605 11.0945C22.2605 10.9911 22.2839 10.8963 22.3307 10.8099C22.3783 10.7227 22.4429 10.6504 22.5245 10.5931C22.606 10.535 22.6972 10.4978 22.7982 10.4817V10.4647C22.6658 10.4381 22.5584 10.3739 22.476 10.2722C22.3937 10.1697 22.3525 10.0506 22.3525 9.91495C22.3525 9.78658 22.39 9.67234 22.4651 9.57223C22.5402 9.47132 22.6431 9.3922 22.7739 9.33488C22.9055 9.27675 23.0549 9.24769 23.222 9.24769C23.3891 9.24769 23.5381 9.27675 23.6689 9.33488C23.8005 9.39301 23.9038 9.47253 23.9789 9.57345C24.054 9.67355 24.0919 9.78739 24.0927 9.91495C24.0919 10.0514 24.0499 10.1705 23.9668 10.2722C23.8836 10.3739 23.777 10.4381 23.6471 10.4647V10.4817C23.7464 10.4978 23.8364 10.535 23.9171 10.5931C23.9987 10.6504 24.0632 10.7227 24.1109 10.8099C24.1593 10.8963 24.1839 10.9911 24.1847 11.0945C24.1839 11.2285 24.1424 11.3484 24.06 11.4541C23.9777 11.5599 23.8638 11.6434 23.7185 11.7048C23.574 11.7654 23.4085 11.7956 23.222 11.7956ZM23.222 11.4105C23.3052 11.4105 23.3778 11.3956 23.44 11.3657C23.5021 11.335 23.5506 11.2931 23.5853 11.2398C23.6208 11.1857 23.6386 11.1235 23.6386 11.0533C23.6386 10.9814 23.6204 10.9181 23.5841 10.8632C23.5478 10.8075 23.4985 10.7639 23.4364 10.7324C23.3742 10.7001 23.3027 10.6839 23.222 10.6839C23.1421 10.6839 23.0706 10.7001 23.0077 10.7324C22.9447 10.7639 22.895 10.8075 22.8587 10.8632C22.8232 10.9181 22.8054 10.9814 22.8054 11.0533C22.8054 11.1235 22.8228 11.1857 22.8575 11.2398C22.8922 11.2931 22.9411 11.335 23.004 11.3657C23.067 11.3956 23.1397 11.4105 23.222 11.4105ZM23.222 10.3025C23.2914 10.3025 23.3532 10.2883 23.4073 10.2601C23.4614 10.2318 23.5038 10.1927 23.5344 10.1426C23.5651 10.0926 23.5805 10.0348 23.5805 9.96944C23.5805 9.90486 23.5651 9.84834 23.5344 9.7999C23.5038 9.75065 23.4618 9.71231 23.4085 9.68486C23.3552 9.6566 23.293 9.64247 23.222 9.64247C23.1518 9.64247 23.0896 9.6566 23.0355 9.68486C22.9814 9.71231 22.939 9.75065 22.9084 9.7999C22.8785 9.84834 22.8635 9.90486 22.8635 9.96944C22.8635 10.0348 22.8789 10.0926 22.9096 10.1426C22.9402 10.1927 22.9826 10.2318 23.0367 10.2601C23.0908 10.2883 23.1526 10.3025 23.222 10.3025ZM25.5238 11.8162C25.3155 11.8154 25.1363 11.7641 24.9861 11.6624C24.8368 11.5607 24.7217 11.4134 24.641 11.2204C24.5611 11.0275 24.5215 10.7953 24.5223 10.5241C24.5223 10.2536 24.5623 10.0231 24.6422 9.8326C24.7229 9.64207 24.838 9.49715 24.9873 9.39785C25.1375 9.29774 25.3163 9.24769 25.5238 9.24769C25.7313 9.24769 25.9097 9.29774 26.0591 9.39785C26.2092 9.49796 26.3247 9.64328 26.4054 9.83381C26.4861 10.0235 26.5261 10.2536 26.5253 10.5241C26.5253 10.7961 26.4849 11.0287 26.4042 11.2216C26.3243 11.4146 26.2096 11.5619 26.0603 11.6636C25.9109 11.7654 25.7321 11.8162 25.5238 11.8162ZM25.5238 11.3815C25.6659 11.3815 25.7793 11.31 25.8641 11.1671C25.9489 11.0242 25.9908 10.8099 25.99 10.5241C25.99 10.336 25.9707 10.1793 25.9319 10.0542C25.894 9.92908 25.8399 9.83502 25.7696 9.77205C25.7002 9.70908 25.6183 9.67759 25.5238 9.67759C25.3825 9.67759 25.2695 9.74823 25.1847 9.88952C25.1 10.0308 25.0572 10.2423 25.0564 10.5241C25.0564 10.7146 25.0753 10.8737 25.1133 11.0012C25.152 11.128 25.2065 11.2232 25.2768 11.287C25.347 11.35 25.4293 11.3815 25.5238 11.3815ZM29.3257 10.1353L29.2058 10.4006H27.5867L27.6848 10.1353H29.3257ZM29.0944 10.6428L28.9624 10.914H27.5867L27.6848 10.6428H29.0944ZM29.6406 9.47293L29.4468 9.88709C29.4145 9.86449 29.3754 9.83986 29.3294 9.81322C29.2842 9.78577 29.2321 9.76276 29.1732 9.7442C29.115 9.72482 29.0504 9.71513 28.9794 9.71513C28.8672 9.71513 28.7695 9.74339 28.6863 9.7999C28.6032 9.85642 28.5386 9.94441 28.4926 10.0639C28.4474 10.1834 28.4248 10.3368 28.4248 10.5241C28.4248 10.713 28.4474 10.8668 28.4926 10.9855C28.5386 11.1033 28.6032 11.1901 28.6863 11.2458C28.7695 11.3007 28.8672 11.3282 28.9794 11.3282C29.0504 11.3282 29.115 11.3189 29.1732 11.3003C29.2313 11.2818 29.2821 11.2596 29.3257 11.2337C29.3701 11.2079 29.4073 11.1841 29.4371 11.1623L29.6333 11.5764C29.5453 11.6491 29.4456 11.704 29.3342 11.7411C29.2228 11.7775 29.1045 11.7956 28.9794 11.7956C28.7679 11.7956 28.5806 11.7456 28.4175 11.6455C28.2552 11.5445 28.1281 11.3996 28.036 11.2107C27.944 11.021 27.898 10.7921 27.898 10.5241C27.898 10.2569 27.944 10.028 28.036 9.83744C28.1281 9.64691 28.2552 9.50119 28.4175 9.40027C28.5806 9.29855 28.7679 9.24769 28.9794 9.24769C29.1094 9.24769 29.2297 9.26706 29.3403 9.30581C29.4509 9.34457 29.551 9.40027 29.6406 9.47293Z" fill="#23272E"/>
</g>
</g>
<defs>
<linearGradient id="paint0_linear_2829_8479" x1="25.335" y1="22.4213" x2="38.4985" y2="20.586" gradientUnits="userSpaceOnUse">
<stop stop-color="#05A0C7"/>
<stop offset="1" stop-color="#09D1C7"/>
</linearGradient>
<linearGradient id="paint1_linear_2829_8479" x1="26.8528" y1="22.1107" x2="40.228" y2="20.2226" gradientUnits="userSpaceOnUse">
<stop stop-color="#05A0C7"/>
<stop offset="1" stop-color="#09D1C7"/>
</linearGradient>
<linearGradient id="paint2_linear_2829_8479" x1="30.7174" y1="14.4825" x2="34.4745" y2="13.835" gradientUnits="userSpaceOnUse">
<stop stop-color="#05A0C7"/>
<stop offset="1" stop-color="#09D1C7"/>
</linearGradient>
<linearGradient id="paint3_linear_2829_8479" x1="27.5362" y1="22.2552" x2="43.9376" y2="19.5304" gradientUnits="userSpaceOnUse">
<stop stop-color="#05A0C7"/>
<stop offset="1" stop-color="#09D1C7"/>
</linearGradient>
<linearGradient id="paint4_linear_2829_8479" x1="32.6335" y1="14.1084" x2="36.4721" y2="13.4241" gradientUnits="userSpaceOnUse">
<stop stop-color="#05A0C7"/>
<stop offset="1" stop-color="#09D1C7"/>
</linearGradient>
<linearGradient id="paint5_linear_2829_8479" x1="27.8901" y1="23.5505" x2="46.9265" y2="19.9494" gradientUnits="userSpaceOnUse">
<stop stop-color="#05A0C7"/>
<stop offset="1" stop-color="#09D1C7"/>
</linearGradient>
<linearGradient id="paint6_linear_2829_8479" x1="34.0497" y1="15.07" x2="38.04" y2="14.3113" gradientUnits="userSpaceOnUse">
<stop stop-color="#05A0C7"/>
<stop offset="1" stop-color="#09D1C7"/>
</linearGradient>
<linearGradient id="paint7_linear_2829_8479" x1="27.7851" y1="19.9895" x2="38.9794" y2="24.5733" gradientUnits="userSpaceOnUse">
<stop stop-color="#05A0C7"/>
<stop offset="1" stop-color="#09D1C7"/>
</linearGradient>
<linearGradient id="paint8_linear_2829_8479" x1="35.0042" y1="16.1215" x2="39.2486" y2="15.2188" gradientUnits="userSpaceOnUse">
<stop stop-color="#05A0C7"/>
<stop offset="1" stop-color="#09D1C7"/>
</linearGradient>
<linearGradient id="paint9_linear_2829_8479" x1="27.7234" y1="19.5648" x2="37.6999" y2="26.4055" gradientUnits="userSpaceOnUse">
<stop stop-color="#05A0C7"/>
<stop offset="1" stop-color="#09D1C7"/>
</linearGradient>
<linearGradient id="paint10_linear_2829_8479" x1="35.8416" y1="17.5769" x2="40.4124" y2="16.4348" gradientUnits="userSpaceOnUse">
<stop stop-color="#05A0C7"/>
<stop offset="1" stop-color="#09D1C7"/>
</linearGradient>
<linearGradient id="paint11_linear_2829_8479" x1="27.7464" y1="19.1724" x2="36.2132" y2="27.8117" gradientUnits="userSpaceOnUse">
<stop stop-color="#05A0C7"/>
<stop offset="1" stop-color="#09D1C7"/>
</linearGradient>
<linearGradient id="paint12_linear_2829_8479" x1="36.2971" y1="19.0467" x2="41.1195" y2="17.6414" gradientUnits="userSpaceOnUse">
<stop stop-color="#05A0C7"/>
<stop offset="1" stop-color="#09D1C7"/>
</linearGradient>
<linearGradient id="paint13_linear_2829_8479" x1="12.1646" y1="14.9744" x2="12.3686" y2="12.6244" gradientUnits="userSpaceOnUse">
<stop stop-color="#05A0C7"/>
<stop offset="1" stop-color="#09D1C7"/>
</linearGradient>
<linearGradient id="paint14_linear_2829_8479" x1="26.1883" y1="39.4423" x2="34.6756" y2="37.226" gradientUnits="userSpaceOnUse">
<stop stop-color="#05A0C7"/>
<stop offset="1" stop-color="#09D1C7"/>
</linearGradient>
<clipPath id="clip0_2829_8479">
<rect width="51.0706" height="51.0706" fill="white" transform="translate(0.625977 -2.28662)"/>
</clipPath>
<clipPath id="clip1_2829_8479">
<rect width="61.2373" height="44.1235" fill="white" transform="translate(-7.58008 1.2749)"/>
</clipPath>
</defs>
</svg>
