<svg width="17" height="17" viewBox="0 0 17 17" fill="none" xmlns="http://www.w3.org/2000/svg">
<path opacity="0.4" d="M1.49902 8.38029C1.49902 12.3384 4.70765 15.547 8.66569 15.547C12.6238 15.547 15.8324 12.3384 15.8324 8.38029C15.8324 4.42225 12.6238 1.21362 8.66569 1.21362C4.70765 1.21362 1.49902 4.42225 1.49902 8.38029Z" fill="url(#paint0_linear_384_25557)"/>
<path d="M11.917 5.72705C12.0937 6.05008 11.975 6.45517 11.652 6.63183C10.7378 7.13179 9.87923 8.17846 9.22363 9.18226C8.9041 9.67159 8.6477 10.1273 8.47136 10.4604C8.38336 10.6266 8.31576 10.7615 8.27063 10.8538L8.2051 10.9907C8.1021 11.2159 7.88276 11.3656 7.63556 11.3793C7.3883 11.3929 7.15381 11.2683 7.02668 11.0558C6.81954 10.7095 6.49038 10.3933 6.18534 10.1522C6.03712 10.035 5.90371 9.94259 5.8085 9.88026L5.66831 9.79259C5.34865 9.61006 5.23734 9.20306 5.41971 8.88333C5.60212 8.56346 6.00926 8.45206 6.32909 8.63446L6.53912 8.76493C6.66058 8.84446 6.82716 8.95993 7.01228 9.10626C7.15375 9.21813 7.31192 9.35259 7.47163 9.50753C7.64283 9.19993 7.85683 8.83679 8.1073 8.45319C8.7851 7.41539 9.79316 6.1287 11.0123 5.46201C11.3353 5.28534 11.7404 5.40401 11.917 5.72705Z" fill="url(#paint1_linear_384_25557)"/>
<defs>
<linearGradient id="paint0_linear_384_25557" x1="1.49902" y1="8.38029" x2="15.8324" y2="8.38029" gradientUnits="userSpaceOnUse">
<stop stop-color="#05A0C7"/>
<stop offset="1" stop-color="#09D1C7"/>
</linearGradient>
<linearGradient id="paint1_linear_384_25557" x1="5.33203" y1="8.3802" x2="11.9989" y2="8.3802" gradientUnits="userSpaceOnUse">
<stop stop-color="#05A0C7"/>
<stop offset="1" stop-color="#09D1C7"/>
</linearGradient>
</defs>
</svg>
