<svg width="8" height="9" viewBox="0 0 8 9" fill="none" xmlns="http://www.w3.org/2000/svg">
<path d="M6.97177 5.51375L6.98088 5.48338C7.21582 4.81085 7.21582 4.07854 6.98088 3.40602L6.97177 3.37565C6.75086 2.76409 6.34694 2.23542 5.81494 1.86156C5.28294 1.48769 4.64869 1.28677 3.99846 1.28613V1.28613C3.34823 1.28677 2.71398 1.48769 2.18199 1.86156C1.64999 2.23542 1.24606 2.76409 1.02516 3.37565L1.01605 3.40602C0.781108 4.07854 0.781108 4.81085 1.01605 5.48338L1.02516 5.51375C1.24682 6.12482 1.65093 6.65299 2.18276 7.02674C2.71459 7.40049 3.34844 7.60175 3.99846 7.60326V7.60326C4.64869 7.60262 5.28294 7.40171 5.81494 7.02784C6.34694 6.65397 6.75086 6.12531 6.97177 5.51375ZM3.99846 1.94214C4.35226 2.30608 4.61729 2.74675 4.77292 3.22987H3.22401C3.37964 2.74675 3.64467 2.30608 3.99846 1.94214V1.94214ZM3.22401 5.65953H4.77292C4.61729 6.14264 4.35226 6.58332 3.99846 6.94725C3.64467 6.58332 3.37964 6.14264 3.22401 5.65953V5.65953ZM3.09645 5.1736C3.00334 4.69212 3.00334 4.19727 3.09645 3.7158H4.90048C4.99359 4.19727 4.99359 4.69212 4.90048 5.1736H3.09645ZM5.39552 3.7158H6.57087C6.70454 4.19254 6.70454 4.69686 6.57087 5.1736H5.39552C5.47651 4.69104 5.47651 4.19836 5.39552 3.7158V3.7158ZM6.37954 3.22987H5.28619C5.14005 2.71821 4.89099 2.24178 4.55425 1.82977C4.94307 1.91372 5.30843 2.08284 5.62405 2.32493C5.93967 2.56703 6.19769 2.87609 6.37954 3.22987V3.22987ZM4.55425 7.05963C4.89099 6.64761 5.14005 6.17118 5.28619 5.65953H6.37954C6.19769 6.01331 5.93967 6.32237 5.62405 6.56446C5.30843 6.80656 4.94307 6.97567 4.55425 7.05963V7.05963Z" fill="white"/>
</svg>
