<svg width="386" height="303" viewBox="0 0 386 303" fill="none" xmlns="http://www.w3.org/2000/svg">
<g clip-path="url(#clip0_384_25784)">
<rect width="386" height="386" transform="translate(0 -41.5254)" fill="url(#paint0_linear_384_25784)"/>
<g filter="url(#filter0_d_384_25784)">
<rect x="-19.7441" y="-61.2695" width="426.476" height="426.476" rx="213.238" fill="white" fill-opacity="0.09" shape-rendering="crispEdges"/>
<rect x="-18.9144" y="-60.4398" width="424.816" height="424.816" rx="212.408" stroke="url(#paint1_linear_384_25784)" stroke-opacity="0.23" stroke-width="1.65944" shape-rendering="crispEdges"/>
</g>
<g filter="url(#filter1_d_384_25784)">
<rect x="16.7637" y="-24.7617" width="353.46" height="353.46" rx="176.73" fill="white" fill-opacity="0.09" shape-rendering="crispEdges"/>
<rect x="17.4513" y="-24.0741" width="352.085" height="352.085" rx="176.043" stroke="url(#paint2_linear_384_25784)" stroke-opacity="0.23" stroke-width="1.37533" shape-rendering="crispEdges"/>
</g>
<g filter="url(#filter2_d_384_25784)">
<rect x="54.9307" y="13.4062" width="277.126" height="277.126" rx="138.563" fill="white" fill-opacity="0.09" shape-rendering="crispEdges"/>
<rect x="55.4698" y="13.9454" width="276.048" height="276.048" rx="138.024" stroke="url(#paint3_linear_384_25784)" stroke-opacity="0.23" stroke-width="1.07831" shape-rendering="crispEdges"/>
<g clip-path="url(#clip1_384_25784)">
<g clip-path="url(#clip2_384_25784)">
<g opacity="0.3">
<path d="M280.538 165.398L272.814 173.038L280.538 180.678L288.262 173.038L280.538 165.398Z" stroke="black" stroke-width="0.987212" stroke-linecap="round" stroke-linejoin="round"/>
<path d="M113.943 30.357L106.22 37.9971L113.943 45.6371L121.667 37.9971L113.943 30.357Z" stroke="black" stroke-width="0.987212" stroke-linecap="round" stroke-linejoin="round"/>
<path d="M99.9037 189.676L95.1279 194.4L99.9037 199.124L104.68 194.4L99.9037 189.676Z" stroke="black" stroke-width="0.987212" stroke-linecap="round" stroke-linejoin="round"/>
<path d="M72.9115 113.002L68.1357 117.727L72.9115 122.451L77.6873 117.727L72.9115 113.002Z" stroke="black" stroke-width="0.987212" stroke-linecap="round" stroke-linejoin="round"/>
<path d="M268.18 58.3238L263.404 63.0479L268.18 67.7719L272.956 63.0479L268.18 58.3238Z" stroke="black" stroke-width="0.987212" stroke-linecap="round" stroke-linejoin="round"/>
<path d="M110.621 194.929L103.829 201.647L110.621 208.366L117.413 201.647L110.621 194.929Z" stroke="black" stroke-width="0.987212" stroke-linecap="round" stroke-linejoin="round"/>
<path d="M246.068 187.767L241.292 192.491L246.068 197.215L250.844 192.491L246.068 187.767Z" stroke="black" stroke-width="0.987212" stroke-linecap="round" stroke-linejoin="round"/>
<path d="M282.701 48.6742L273.562 57.7148L282.701 66.7555L291.841 57.7149L282.701 48.6742Z" stroke="black" stroke-width="0.987212" stroke-linecap="round" stroke-linejoin="round"/>
<path d="M184.751 262.159L179.976 266.883L184.751 271.607L189.527 266.883L184.751 262.159Z" stroke="black" stroke-width="0.987212" stroke-linecap="round" stroke-linejoin="round"/>
<path d="M89.6457 119.632C93.479 119.632 96.5864 116.559 96.5864 112.767C96.5864 108.975 93.479 105.901 89.6457 105.901C85.8125 105.901 82.7051 108.975 82.7051 112.767C82.7051 116.559 85.8125 119.632 89.6457 119.632Z" stroke="black" stroke-width="0.987212" stroke-linecap="round" stroke-linejoin="round"/>
<path d="M290.947 140.616C294.567 140.616 297.503 137.712 297.503 134.131C297.503 130.549 294.567 127.646 290.947 127.646C287.326 127.646 284.391 130.549 284.391 134.131C284.391 137.712 287.326 140.616 290.947 140.616Z" stroke="black" stroke-width="0.987212" stroke-linecap="round" stroke-linejoin="round"/>
<path d="M314.474 93.3118C316.605 93.3118 318.332 91.6033 318.332 89.4957C318.332 87.3882 316.605 85.6797 314.474 85.6797C312.343 85.6797 310.616 87.3882 310.616 89.4957C310.616 91.6033 312.343 93.3118 314.474 93.3118Z" stroke="black" stroke-width="0.987212" stroke-linecap="round" stroke-linejoin="round"/>
<path d="M237.346 39.5297C237.346 38.2652 236.311 37.2412 235.032 37.2412C233.754 37.2412 232.719 38.2652 232.719 39.5297C232.719 40.7943 233.754 41.8182 235.032 41.8182C236.311 41.8182 237.346 40.7943 237.346 39.5297Z" stroke="black" stroke-width="0.987212" stroke-linecap="round" stroke-linejoin="round"/>
<path d="M140.164 172.274C141.442 172.274 142.478 171.25 142.478 169.986C142.478 168.722 141.442 167.697 140.164 167.697C138.886 167.697 137.851 168.722 137.851 169.986C137.851 171.25 138.886 172.274 140.164 172.274Z" stroke="black" stroke-width="0.987212" stroke-linecap="round" stroke-linejoin="round"/>
<path d="M85.4028 234.835C87.321 234.835 88.876 233.297 88.876 231.399C88.876 229.502 87.321 227.964 85.4028 227.964C83.4847 227.964 81.9297 229.502 81.9297 231.399C81.9297 233.297 83.4847 234.835 85.4028 234.835Z" stroke="black" stroke-width="0.987212" stroke-linecap="round" stroke-linejoin="round"/>
<path d="M295.575 225.681C295.575 223.997 294.195 222.632 292.492 222.632C290.789 222.632 289.409 223.997 289.409 225.681C289.409 227.366 290.789 228.731 292.492 228.731C294.195 228.731 295.575 227.366 295.575 225.681Z" stroke="black" stroke-width="0.987212" stroke-linecap="round" stroke-linejoin="round"/>
<path d="M270.894 28.4674C270.894 26.7832 269.514 25.418 267.811 25.418C266.109 25.418 264.729 26.7832 264.729 28.4674C264.729 30.1517 266.109 31.5169 267.811 31.5169C269.514 31.5169 270.894 30.1517 270.894 28.4674Z" stroke="black" stroke-width="0.987212" stroke-linecap="round" stroke-linejoin="round"/>
</g>
<path d="M147.49 145.573L125.509 157.402" stroke="#23272E" stroke-width="2.96164" stroke-linecap="round" stroke-linejoin="round"/>
<path d="M105.841 81.1084L129.367 90.2624" stroke="#23272E" stroke-width="2.96164" stroke-linecap="round" stroke-linejoin="round"/>
<path d="M133.993 29.2285L149.034 53.2606" stroke="#23272E" stroke-width="2.96164" stroke-linecap="round" stroke-linejoin="round"/>
<path d="M185.282 18.5469L184.513 37.6215" stroke="#23272E" stroke-width="2.96164" stroke-linecap="round" stroke-linejoin="round"/>
<path d="M229.245 63.9424L248.913 44.4873" stroke="#23272E" stroke-width="2.96164" stroke-linecap="round" stroke-linejoin="round"/>
<path d="M256.623 103.232L273.593 97.5078" stroke="#23272E" stroke-width="2.96164" stroke-linecap="round" stroke-linejoin="round"/>
<path d="M240.429 145.953L254.7 153.966" stroke="#23272E" stroke-width="2.96164" stroke-linecap="round" stroke-linejoin="round"/>
<path d="M128.982 63.5615L140.55 72.3351" stroke="#23272E" stroke-width="2.96164" stroke-linecap="round" stroke-linejoin="round"/>
<path d="M253.54 79.9609L241.197 85.685" stroke="#23272E" stroke-width="2.96164" stroke-linecap="round" stroke-linejoin="round"/>
<path d="M133.223 121.541L120.111 125.357" stroke="#23272E" stroke-width="2.96164" stroke-linecap="round" stroke-linejoin="round"/>
<path d="M245.83 126.498L251.996 128.026" stroke="#23272E" stroke-width="2.96164" stroke-linecap="round" stroke-linejoin="round"/>
<path d="M251.107 103.786C248.93 102.292 240.711 103.618 235.512 107.764C230.314 111.91 229.143 113.404 229.143 113.404C229.143 113.404 226.795 97.1499 226.795 96.6519C226.795 96.1539 223.441 65.6368 222.774 61.1605C222.1 56.6842 221.099 50.0481 220.092 48.5541C219.085 47.0602 215.064 46.8979 213.723 47.5581L212.382 48.224C212.382 48.224 213.055 36.6136 211.709 33.7935C210.369 30.9735 206.177 32.6353 205 34.1237C203.83 35.6176 202.987 37.9397 202.987 37.9397C202.987 37.9397 199.129 36.6136 196.951 40.9276C194.773 45.2417 193.093 49.0521 192.76 53.1983C192.426 57.3444 190.582 62.6544 190.582 62.6544C190.582 62.6544 188.404 59.1741 186.056 61.1605C183.709 63.1524 181.028 70.9468 180.355 76.5869C179.681 82.227 179.014 97.1499 179.014 97.1499C179.014 97.1499 177.673 103.948 177 109.421C176.327 114.893 176.831 137.616 179.348 147.066C181.865 156.522 185.214 162.493 185.214 162.493C185.214 162.493 191.08 181.567 191.922 184.219C192.76 186.872 201.98 223.029 201.98 223.029L229.477 188.533C229.477 188.533 222.604 169.795 221.094 165.481C219.583 161.167 218.576 159.84 218.576 159.84C218.576 159.84 226.959 148.062 231.485 144.582C236.01 141.102 238.358 129.491 239.534 124.349C240.705 119.207 245.57 112.078 248.251 109.756C250.932 107.434 253.28 105.28 251.102 103.786H251.107ZM189.071 95.8294C188.568 95.8294 188.738 89.3611 188.738 81.5668C188.738 73.7724 190.078 70.2865 190.078 70.2865C189.405 73.7668 190.751 91.0174 190.751 92.1812C190.751 93.345 189.581 95.8294 189.077 95.8294H189.071Z" fill="white" stroke="#23272E" stroke-width="0.987212" stroke-linecap="round" stroke-linejoin="round"/>
<path d="M214.425 162.677C216.523 161.625 216.902 160.506 216.902 160.506" stroke="#23272E" stroke-width="0.987212" stroke-linecap="round" stroke-linejoin="round"/>
<path d="M197.959 158.851C197.959 158.851 207.179 164.821 211.71 163.663" stroke="#23272E" stroke-width="0.987212" stroke-linecap="round" stroke-linejoin="round"/>
<path d="M229.144 113.41C229.144 113.41 225.625 118.882 224.782 120.874C223.945 122.866 223.442 124.523 221.931 125.351C220.421 126.179 218.413 127.343 218.413 127.343" stroke="#23272E" stroke-width="0.987212" stroke-linecap="round" stroke-linejoin="round"/>
<path d="M219.013 115.027C214.748 116.986 208.746 120.449 205.335 125.513" stroke="#23272E" stroke-width="0.987212" stroke-linecap="round" stroke-linejoin="round"/>
<path d="M223.945 113.074C223.945 113.074 222.717 113.455 220.851 114.227" stroke="#23272E" stroke-width="0.987212" stroke-linecap="round" stroke-linejoin="round"/>
<path d="M203.49 127.672C203.49 127.672 200.47 133.144 199.129 137.458" stroke="#23272E" stroke-width="0.987212" stroke-linecap="round" stroke-linejoin="round"/>
<path d="M202.987 37.9453C202.987 37.9453 202.149 44.9115 200.973 55.3581C199.802 65.8047 199.129 70.9468 199.298 77.5829C199.468 84.219 201.312 90.0214 201.143 90.8495" stroke="#23272E" stroke-width="0.987212" stroke-linecap="round" stroke-linejoin="round"/>
<path d="M212.376 48.2295C212.376 48.2295 211.873 52.5435 212.376 58.1781C212.88 63.8182 211.873 74.2647 211.873 78.2486C211.873 82.2325 212.043 88.1972 212.207 90.0213C212.371 91.8454 213.378 93.1715 213.378 93.1715" stroke="#23272E" stroke-width="0.987212" stroke-linecap="round" stroke-linejoin="round"/>
<path d="M215.562 94.168C215.562 94.168 216.399 95.6619 221.931 95.8242" stroke="#23272E" stroke-width="0.987212" stroke-linecap="round" stroke-linejoin="round"/>
<path d="M202.817 90.1895C202.817 90.1895 206.839 91.0176 209.526 90.5196" stroke="#23272E" stroke-width="0.987212" stroke-linecap="round" stroke-linejoin="round"/>
<path d="M188.229 97.1553C188.229 97.1553 188.229 98.8115 183.364 100.305" stroke="#23272E" stroke-width="0.987212" stroke-linecap="round" stroke-linejoin="round"/>
<path d="M197.789 92.6735C198.293 92.3434 200.306 91.6775 200.81 89.3555" stroke="#23272E" stroke-width="0.987212" stroke-linecap="round" stroke-linejoin="round"/>
<path d="M198.077 118.082C198.077 118.082 208.502 114.299 215.104 112.923" stroke="#23272E" stroke-width="0.987212" stroke-linecap="round" stroke-linejoin="round"/>
<path d="M227.672 285.949H317.805C311.509 277.729 288.532 247.777 287.033 246.3C285.296 244.582 277.648 243.553 277.648 243.553L255.061 224.993L226.914 178.932L200.158 215.71L195.639 197.833L185.559 234.958C185.559 234.958 222.049 278.96 223.435 280.678C223.707 281.014 225.279 282.983 227.666 285.954L227.672 285.949Z" fill="#23272E" stroke="#23272E" stroke-width="0.987212" stroke-linecap="round" stroke-linejoin="round"/>
<path d="M157.094 156.999C157.094 156.999 149.633 138.098 147.834 134.617C146.036 131.137 136.272 116.024 135.78 111.923C135.288 107.821 133.761 101 132.188 98.1469C130.616 95.2932 135.299 93.4244 139.174 97.039C143.043 100.654 145.385 106.534 145.334 108.23C145.283 109.925 154.023 116.259 154.023 116.259L155.612 101.689C155.612 101.689 157.309 65.5482 156.953 60.1543C156.596 54.7604 156.246 43.3067 160.573 42.8646C164.9 42.4226 165.574 45.8078 165.574 45.8078C165.574 45.8078 165.726 37.2748 170.54 37.8232C174.217 38.2428 175.625 41.6728 176.163 43.3234C176.7 44.9741 177.334 47.022 177.334 47.022C177.334 47.022 180.366 44.9853 183.324 49.8364C185.021 52.6229 188.63 61.3853 189.213 63.6122C189.795 65.8392 189.976 66.6449 189.976 66.6449C189.976 66.6449 194.032 66.5162 195.831 70.7519C197.63 74.9876 200.186 86.0385 202.658 95.1813C205.13 104.324 205.028 113.008 205.028 113.008C205.028 113.008 205.996 142.423 204.005 151.778C202.013 161.134 198.269 169.107 197.499 169.868C196.73 170.629 185.666 202.926 185.666 202.926L147.291 188.853C147.291 188.853 155.284 169.432 156.546 165.196C157.813 160.966 157.094 156.999 157.094 156.999Z" fill="white" stroke="#23272E" stroke-width="0.987212" stroke-linecap="round" stroke-linejoin="round"/>
<path d="M149.067 129.43C149.147 131.282 149.548 132.395 149.548 132.395" stroke="#23272E" stroke-width="0.987212" stroke-linecap="round" stroke-linejoin="round"/>
<path d="M152.853 117.87C152.853 117.87 150.686 120.366 149.561 124.82C149.334 125.715 149.199 126.554 149.125 127.326" stroke="#23272E" stroke-width="0.987212" stroke-linecap="round" stroke-linejoin="round"/>
<path d="M165.573 45.8184C165.573 45.8184 166.241 57.5407 166.682 63.3319C167.129 69.1231 167.344 78.0812 167.384 83.9676C167.423 89.8483 166.699 97.2454 166.292 98.8513C165.885 100.457 164.979 102.505 164.979 102.505" stroke="#23272E" stroke-width="0.987212" stroke-linecap="round" stroke-linejoin="round"/>
<path d="M177.328 47.0322C177.328 47.0322 175.433 49.2144 176.061 52.0233C176.689 54.8322 179.602 70.5216 179.602 72.7933C179.602 75.065 179.766 94.8055 179.806 96.1428C179.851 97.4801 178.901 101.979 178.448 103.764" stroke="#23272E" stroke-width="0.987212" stroke-linecap="round" stroke-linejoin="round"/>
<path d="M189.971 66.6504C189.971 66.6504 187.81 66.8686 188.302 70.2146C188.795 73.5607 189.869 84.4325 189.864 87.4596C189.864 90.4923 190.576 97.4865 190.435 104.083C190.294 110.68 191.826 112.952 192.545 114.647" stroke="#23272E" stroke-width="0.987212" stroke-linecap="round" stroke-linejoin="round"/>
<path d="M156.597 110.652C156.597 110.652 155.828 114.44 156.863 116.399C157.898 118.363 159.335 122.503 159.335 124.781" stroke="#23272E" stroke-width="0.987212" stroke-linecap="round" stroke-linejoin="round"/>
<path d="M164.347 108.789C164.347 108.789 163.939 111.906 164.386 113.914C164.833 115.923 166.23 117.971 166.23 117.971" stroke="#23272E" stroke-width="0.987212" stroke-linecap="round" stroke-linejoin="round"/>
<path d="M177.272 113.702C177.272 113.702 176.819 116.998 177.628 119.096C178.437 121.189 179.382 122.75 179.382 122.75" stroke="#23272E" stroke-width="0.987212" stroke-linecap="round" stroke-linejoin="round"/>
<path d="M159.872 285.95L195.548 206.322C195.548 206.322 180.326 193.889 170.314 187.365C160.302 180.841 148.293 181.037 148.293 181.037C148.293 181.037 132.618 214.077 131.798 216.181C130.972 218.285 120.044 240.672 120.044 240.672C120.044 240.672 115.241 242.368 113.109 246.161C111.44 249.138 99.3971 274.927 94.2666 285.95H159.872Z" fill="url(#paint4_linear_384_25784)" stroke="#23272E" stroke-width="0.987212" stroke-linecap="round" stroke-linejoin="round"/>
<path d="M185.113 211.55C186.695 210.625 187.218 208.607 186.283 207.043C185.348 205.479 183.308 204.961 181.727 205.886C180.146 206.811 179.622 208.828 180.557 210.392C181.492 211.956 183.532 212.475 185.113 211.55Z" fill="#23272E" stroke="#23272E" stroke-width="0.987212" stroke-linecap="round" stroke-linejoin="round"/>
<path d="M181.627 221.822C181.181 223.584 179.376 224.653 177.594 224.211C175.812 223.769 174.732 221.984 175.179 220.221C175.626 218.459 177.43 217.39 179.212 217.832C180.994 218.274 182.074 220.059 181.627 221.822Z" fill="#23272E" stroke="#23272E" stroke-width="0.987212" stroke-linecap="round" stroke-linejoin="round"/>
</g>
</g>
</g>
</g>
<defs>
<filter id="filter0_d_384_25784" x="-57.5793" y="-99.1047" width="502.146" height="502.146" filterUnits="userSpaceOnUse" color-interpolation-filters="sRGB">
<feFlood flood-opacity="0" result="BackgroundImageFix"/>
<feColorMatrix in="SourceAlpha" type="matrix" values="0 0 0 0 0 0 0 0 0 0 0 0 0 0 0 0 0 0 127 0" result="hardAlpha"/>
<feOffset/>
<feGaussianBlur stdDeviation="18.9176"/>
<feComposite in2="hardAlpha" operator="out"/>
<feColorMatrix type="matrix" values="0 0 0 0 0 0 0 0 0 0 0 0 0 0 0 0 0 0 0.15 0"/>
<feBlend mode="normal" in2="BackgroundImageFix" result="effect1_dropShadow_384_25784"/>
<feBlend mode="normal" in="SourceGraphic" in2="effect1_dropShadow_384_25784" result="shape"/>
</filter>
<filter id="filter1_d_384_25784" x="-21.0715" y="-62.5969" width="429.13" height="429.13" filterUnits="userSpaceOnUse" color-interpolation-filters="sRGB">
<feFlood flood-opacity="0" result="BackgroundImageFix"/>
<feColorMatrix in="SourceAlpha" type="matrix" values="0 0 0 0 0 0 0 0 0 0 0 0 0 0 0 0 0 0 127 0" result="hardAlpha"/>
<feOffset/>
<feGaussianBlur stdDeviation="18.9176"/>
<feComposite in2="hardAlpha" operator="out"/>
<feColorMatrix type="matrix" values="0 0 0 0 0 0 0 0 0 0 0 0 0 0 0 0 0 0 0.15 0"/>
<feBlend mode="normal" in2="BackgroundImageFix" result="effect1_dropShadow_384_25784"/>
<feBlend mode="normal" in="SourceGraphic" in2="effect1_dropShadow_384_25784" result="shape"/>
</filter>
<filter id="filter2_d_384_25784" x="17.0955" y="-24.4289" width="352.796" height="352.796" filterUnits="userSpaceOnUse" color-interpolation-filters="sRGB">
<feFlood flood-opacity="0" result="BackgroundImageFix"/>
<feColorMatrix in="SourceAlpha" type="matrix" values="0 0 0 0 0 0 0 0 0 0 0 0 0 0 0 0 0 0 127 0" result="hardAlpha"/>
<feOffset/>
<feGaussianBlur stdDeviation="18.9176"/>
<feComposite in2="hardAlpha" operator="out"/>
<feColorMatrix type="matrix" values="0 0 0 0 0 0 0 0 0 0 0 0 0 0 0 0 0 0 0.15 0"/>
<feBlend mode="normal" in2="BackgroundImageFix" result="effect1_dropShadow_384_25784"/>
<feBlend mode="normal" in="SourceGraphic" in2="effect1_dropShadow_384_25784" result="shape"/>
</filter>
<linearGradient id="paint0_linear_384_25784" x1="0" y1="193" x2="386" y2="193" gradientUnits="userSpaceOnUse">
<stop stop-color="#05A0C7"/>
<stop offset="1" stop-color="#09D1C7"/>
</linearGradient>
<linearGradient id="paint1_linear_384_25784" x1="406.732" y1="51.3159" x2="-19.7442" y2="252.621" gradientUnits="userSpaceOnUse">
<stop stop-color="#D7D7D7"/>
<stop offset="0.5" stop-color="white"/>
<stop offset="1" stop-color="#D7D7D7"/>
</linearGradient>
<linearGradient id="paint2_linear_384_25784" x1="370.224" y1="68.5484" x2="16.7637" y2="235.389" gradientUnits="userSpaceOnUse">
<stop stop-color="#D7D7D7"/>
<stop offset="0.5" stop-color="white"/>
<stop offset="1" stop-color="#D7D7D7"/>
</linearGradient>
<linearGradient id="paint3_linear_384_25784" x1="332.057" y1="86.5649" x2="54.9306" y2="217.374" gradientUnits="userSpaceOnUse">
<stop stop-color="#D7D7D7"/>
<stop offset="0.5" stop-color="white"/>
<stop offset="1" stop-color="#D7D7D7"/>
</linearGradient>
<linearGradient id="paint4_linear_384_25784" x1="195.548" y1="233.493" x2="94.2666" y2="233.493" gradientUnits="userSpaceOnUse">
<stop stop-color="#09D1C7"/>
<stop offset="1" stop-color="#05A0C7"/>
</linearGradient>
<clipPath id="clip0_384_25784">
<rect width="386" height="386" fill="white" transform="translate(0 -41.5254)"/>
</clipPath>
<clipPath id="clip1_384_25784">
<rect width="268.522" height="268.522" fill="white" transform="translate(59.2324 17.707)"/>
</clipPath>
<clipPath id="clip2_384_25784">
<rect width="250.752" height="268.522" fill="white" transform="translate(67.8564 17.707)"/>
</clipPath>
</defs>
</svg>
