<svg width="83" height="36" viewBox="0 0 83 36" fill="none" xmlns="http://www.w3.org/2000/svg">
<g style="mix-blend-mode:luminosity" opacity="0.6" clip-path="url(#clip0_2829_9270)">
<g clip-path="url(#clip1_2829_9270)">
<path d="M8.86777 20.8184H-2.29395V56.1918H8.86777V20.8184Z" fill="#F5F5F5"/>
<path d="M8.87091 20.8184H3.28906V56.0951H8.87091V20.8184Z" fill="#EBEBEB"/>
<path d="M2.92366 17.3457H-1.01855V20.8183H2.92366V17.3457Z" fill="#F5F5F5"/>
<path d="M2.92356 17.3457H1.98438V20.8183H2.92356V17.3457Z" fill="#EBEBEB"/>
<path d="M-3.22266 20.818V20.6167H9.19591V20.818" fill="#E0E0E0"/>
<path d="M0.855262 22.3335H-0.0898438V24.3263H0.855262V22.3335Z" fill="#FAFAFA"/>
<path d="M3.28886 25.1073C3.28886 25.129 2.0399 25.1448 0.498921 25.1448C-1.04206 25.1448 -2.29102 25.127 -2.29102 25.1073C-2.29102 25.0876 -1.04206 25.0698 0.498921 25.0698C2.0399 25.0698 3.28886 25.0876 3.28886 25.1073Z" fill="#E0E0E0"/>
<path d="M6.48514 22.3335H5.54004V24.3263H6.48514V22.3335Z" fill="#E0E0E0"/>
<path d="M8.91776 25.1073C8.91776 25.129 7.6688 25.1448 6.12783 25.1448C4.58685 25.1448 3.33789 25.127 3.33789 25.1073C3.33789 25.0876 4.58685 25.0698 6.12783 25.0698C7.6688 25.0698 8.91776 25.0876 8.91776 25.1073Z" fill="#E0E0E0"/>
<path d="M6.48514 26.2896H5.54004V28.2824H6.48514V26.2896Z" fill="#E0E0E0"/>
<path d="M8.91776 29.0639C8.91776 29.0856 7.6688 29.1013 6.12783 29.1013C4.58685 29.1013 3.33789 29.0836 3.33789 29.0639C3.33789 29.0441 4.58685 29.0264 6.12783 29.0264C7.6688 29.0264 8.91776 29.0441 8.91776 29.0639Z" fill="#E0E0E0"/>
<path d="M6.48514 30.3643H5.54004V32.3571H6.48514V30.3643Z" fill="#E0E0E0"/>
<path d="M8.91776 33.1386C8.91776 33.1603 7.6688 33.1761 6.12783 33.1761C4.58685 33.1761 3.33789 33.1583 3.33789 33.1386C3.33789 33.1188 4.58685 33.1011 6.12783 33.1011C7.6688 33.1011 8.91776 33.1188 8.91776 33.1386Z" fill="#E0E0E0"/>
<path d="M6.48514 34.4385H5.54004V36.4313H6.48514V34.4385Z" fill="#E0E0E0"/>
<path d="M0.855262 26.3491H-0.0898438V28.3419H0.855262V26.3491Z" fill="#FAFAFA"/>
<path d="M3.28886 29.1229C3.28886 29.1446 2.0399 29.1604 0.498921 29.1604C-1.04206 29.1604 -2.29102 29.1427 -2.29102 29.1229C-2.29102 29.1032 -1.04206 29.0854 0.498921 29.0854C2.0399 29.0854 3.28886 29.1032 3.28886 29.1229Z" fill="#E0E0E0"/>
<path d="M0.855262 30.3643H-0.0898438V32.3571H0.855262V30.3643Z" fill="#FAFAFA"/>
<path d="M3.28886 33.1386C3.28886 33.1603 2.0399 33.1761 0.498921 33.1761C-1.04206 33.1761 -2.29102 33.1583 -2.29102 33.1386C-2.29102 33.1188 -1.04206 33.1011 0.498921 33.1011C2.0399 33.1011 3.28886 33.1188 3.28886 33.1386Z" fill="#E0E0E0"/>
<path d="M0.855262 34.3813H-0.0898438V36.3742H0.855262V34.3813Z" fill="#FAFAFA"/>
<path d="M17.7472 0.580078H2.09082V56.1914H17.7472V0.580078Z" fill="#EBEBEB"/>
<path d="M4.7563 2.5H3.36133V5.43989H4.7563V2.5Z" fill="white"/>
<path d="M7.68598 2.5H6.29102V5.43989H7.68598V2.5Z" fill="white"/>
<path d="M10.6166 2.5H9.22168V5.43989H10.6166V2.5Z" fill="white"/>
<path d="M13.5473 2.5H12.1523V5.43989H13.5473V2.5Z" fill="white"/>
<path d="M16.477 2.5H15.082V5.43989H16.477V2.5Z" fill="white"/>
<path d="M4.7563 6.61182H3.36133V9.55171H4.7563V6.61182Z" fill="white"/>
<path d="M7.68598 6.61182H6.29102V9.55171H7.68598V6.61182Z" fill="white"/>
<path d="M10.6166 6.61182H9.22168V9.55171H10.6166V6.61182Z" fill="white"/>
<path d="M13.5473 6.61182H12.1523V9.55171H13.5473V6.61182Z" fill="white"/>
<path d="M16.477 6.61182H15.082V9.55171H16.477V6.61182Z" fill="white"/>
<path d="M4.7563 10.7217H3.36133V13.6616H4.7563V10.7217Z" fill="white"/>
<path d="M7.68598 10.7217H6.29102V13.6616H7.68598V10.7217Z" fill="white"/>
<path d="M10.6166 10.7217H9.22168V13.6616H10.6166V10.7217Z" fill="white"/>
<path d="M13.5473 10.7217H12.1523V13.6616H13.5473V10.7217Z" fill="white"/>
<path d="M16.477 10.7217H15.082V13.6616H16.477V10.7217Z" fill="white"/>
<path d="M4.7563 14.8335H3.36133V17.7734H4.7563V14.8335Z" fill="white"/>
<path d="M7.68598 14.8335H6.29102V17.7734H7.68598V14.8335Z" fill="white"/>
<path d="M10.6166 14.8335H9.22168V17.7734H10.6166V14.8335Z" fill="#CE2828"/>
<path d="M13.5473 14.8335H12.1523V17.7734H13.5473V14.8335Z" fill="white"/>
<path d="M16.477 14.8335H15.082V17.7734H16.477V14.8335Z" fill="#CE2828"/>
<path d="M4.7563 18.9458H3.36133V21.8857H4.7563V18.9458Z" fill="white"/>
<path d="M7.68598 18.9458H6.29102V21.8857H7.68598V18.9458Z" fill="white"/>
<path d="M10.6166 18.9458H9.22168V21.8857H10.6166V18.9458Z" fill="white"/>
<path d="M13.5473 18.9458H12.1523V21.8857H13.5473V18.9458Z" fill="white"/>
<path d="M16.477 18.9458H15.082V21.8857H16.477V18.9458Z" fill="#CE2828"/>
<path d="M4.7563 23.0576H3.36133V25.9975H4.7563V23.0576Z" fill="white"/>
<path d="M7.68598 23.0576H6.29102V25.9975H7.68598V23.0576Z" fill="white"/>
<path d="M10.6166 23.0576H9.22168V25.9975H10.6166V23.0576Z" fill="white"/>
<path d="M13.5473 23.0576H12.1523V25.9975H13.5473V23.0576Z" fill="white"/>
<path d="M16.477 23.0576H15.082V25.9975H16.477V23.0576Z" fill="white"/>
<path d="M4.7563 27.1675H3.36133V30.1074H4.7563V27.1675Z" fill="white"/>
<path d="M7.68598 27.1675H6.29102V30.1074H7.68598V27.1675Z" fill="white"/>
<path d="M10.6166 27.1675H9.22168V30.1074H10.6166V27.1675Z" fill="white"/>
<path d="M13.5473 27.1675H12.1523V30.1074H13.5473V27.1675Z" fill="white"/>
<path d="M16.477 27.1675H15.082V30.1074H16.477V27.1675Z" fill="white"/>
<path d="M4.7563 31.2793H3.36133V34.2192H4.7563V31.2793Z" fill="white"/>
<path d="M7.68598 31.2793H6.29102V34.2192H7.68598V31.2793Z" fill="white"/>
<path d="M10.6166 31.2793H9.22168V34.2192H10.6166V31.2793Z" fill="white"/>
<path d="M13.5473 31.2793H12.1523V34.2192H13.5473V31.2793Z" fill="white"/>
<path d="M16.477 31.2793H15.082V34.2192H16.477V31.2793Z" fill="white"/>
<path d="M4.7563 35.3911H3.36133V38.331H4.7563V35.3911Z" fill="white"/>
<path d="M7.68598 35.3911H6.29102V38.331H7.68598V35.3911Z" fill="white"/>
<path d="M10.6166 35.3911H9.22168V38.331H10.6166V35.3911Z" fill="white"/>
<path d="M13.5473 35.3911H12.1523V38.331H13.5473V35.3911Z" fill="white"/>
<path d="M16.477 35.3911H15.082V38.331H16.477V35.3911Z" fill="#CE2828"/>
<path d="M24.5858 0.580078H17.7471V56.1914H24.5858V0.580078Z" fill="#E0E0E0"/>
<path d="M10.6166 2.5H9.22168V5.43989H10.6166V2.5Z" fill="white"/>
<path d="M13.5473 2.5H12.1523V5.43989H13.5473V2.5Z" fill="white"/>
<path d="M16.477 2.5H15.082V5.43989H16.477V2.5Z" fill="white"/>
<path d="M10.6166 6.61182H9.22168V9.55171H10.6166V6.61182Z" fill="white"/>
<path d="M13.5473 6.61182H12.1523V9.55171H13.5473V6.61182Z" fill="white"/>
<path d="M16.477 6.61182H15.082V9.55171H16.477V6.61182Z" fill="white"/>
<path d="M10.6166 10.7222H9.22168V13.6621H10.6166V10.7222Z" fill="white"/>
<path d="M13.5473 10.7222H12.1523V13.6621H13.5473V10.7222Z" fill="white"/>
<path d="M16.477 10.7222H15.082V13.6621H16.477V10.7222Z" fill="white"/>
<path d="M10.6166 14.8335H9.22168V17.7734H10.6166V14.8335Z" fill="white"/>
<path d="M13.5473 14.8335H12.1523V17.7734H13.5473V14.8335Z" fill="white"/>
<path d="M16.477 14.8335H15.082V17.7734H16.477V14.8335Z" fill="white"/>
<path d="M10.6166 18.9458H9.22168V21.8857H10.6166V18.9458Z" fill="white"/>
<path d="M13.5473 18.9458H12.1523V21.8857H13.5473V18.9458Z" fill="white"/>
<path d="M16.477 18.9458H15.082V21.8857H16.477V18.9458Z" fill="white"/>
<path d="M10.6166 23.0576H9.22168V25.9975H10.6166V23.0576Z" fill="white"/>
<path d="M13.5473 23.0576H12.1523V25.9975H13.5473V23.0576Z" fill="white"/>
<path d="M16.477 23.0576H15.082V25.9975H16.477V23.0576Z" fill="white"/>
<path d="M10.6166 27.168H9.22168V30.1079H10.6166V27.168Z" fill="white"/>
<path d="M13.5473 27.168H12.1523V30.1079H13.5473V27.168Z" fill="white"/>
<path d="M16.477 27.168H15.082V30.1079H16.477V27.168Z" fill="white"/>
<path d="M10.6166 31.2793H9.22168V34.2192H10.6166V31.2793Z" fill="white"/>
<path d="M13.5473 31.2793H12.1523V34.2192H13.5473V31.2793Z" fill="white"/>
<path d="M16.477 31.2793H15.082V34.2192H16.477V31.2793Z" fill="white"/>
<path d="M10.6166 35.3911H9.22168V38.331H10.6166V35.3911Z" fill="white"/>
<path d="M13.5473 35.3911H12.1523V38.331H13.5473V35.3911Z" fill="white"/>
<path d="M16.477 35.3911H15.082V38.331H16.477V35.3911Z" fill="white"/>
<path d="M20.6889 2.5H19.2939V5.43989H20.6889V2.5Z" fill="#EBEBEB"/>
<path d="M23.6196 2.5H22.2246V5.43989H23.6196V2.5Z" fill="#EBEBEB"/>
<path d="M20.6889 6.61182H19.2939V9.55171H20.6889V6.61182Z" fill="#EBEBEB"/>
<path d="M23.6196 6.61182H22.2246V9.55171H23.6196V6.61182Z" fill="#EBEBEB"/>
<path d="M20.6889 10.7222H19.2939V13.6621H20.6889V10.7222Z" fill="#EBEBEB"/>
<path d="M23.6196 10.7222H22.2246V13.6621H23.6196V10.7222Z" fill="#EBEBEB"/>
<path d="M20.6889 14.8335H19.2939V17.7734H20.6889V14.8335Z" fill="#EBEBEB"/>
<path d="M23.6196 14.8335H22.2246V17.7734H23.6196V14.8335Z" fill="#EBEBEB"/>
<path d="M20.6889 18.9458H19.2939V21.8857H20.6889V18.9458Z" fill="#EBEBEB"/>
<path d="M23.6196 18.9458H22.2246V21.8857H23.6196V18.9458Z" fill="#EBEBEB"/>
<path d="M20.6889 23.0576H19.2939V25.9975H20.6889V23.0576Z" fill="#EBEBEB"/>
<path d="M23.6196 23.0576H22.2246V25.9975H23.6196V23.0576Z" fill="#EBEBEB"/>
<path d="M20.6889 27.168H19.2939V30.1079H20.6889V27.168Z" fill="#EBEBEB"/>
<path d="M23.6196 27.168H22.2246V30.1079H23.6196V27.168Z" fill="#EBEBEB"/>
<path d="M20.6889 31.2793H19.2939V34.2192H20.6889V31.2793Z" fill="#EBEBEB"/>
<path d="M23.6196 31.2793H22.2246V34.2192H23.6196V31.2793Z" fill="#EBEBEB"/>
<path d="M20.6889 35.3911H19.2939V38.331H20.6889V35.3911Z" fill="#EBEBEB"/>
<path d="M23.6196 35.3911H22.2246V38.331H23.6196V35.3911Z" fill="#EBEBEB"/>
<path d="M64.657 -3.06787H52.1279V29.7247H64.657V-3.06787Z" fill="#EBEBEB"/>
<path d="M64.6571 -3.06787H58.3926V29.7247H64.6571V-3.06787Z" fill="#E0E0E0"/>
<path d="M55.6621 -1.36719H54.6025V0.868314H55.6621V-1.36719Z" fill="white"/>
<path d="M58.3934 1.74604C58.3934 1.76972 56.9906 1.78945 55.2621 1.78945C53.5337 1.78945 52.1309 1.76972 52.1309 1.74604C52.1309 1.72237 53.5337 1.70264 55.2621 1.70264C56.9906 1.70264 58.3934 1.72237 58.3934 1.74604Z" fill="#E0E0E0"/>
<path d="M61.9804 -1.36719H60.9209V0.868314H61.9804V-1.36719Z" fill="#F5F5F5"/>
<path d="M64.7128 1.74653C64.7128 1.77021 63.3099 1.78994 61.5815 1.78994C59.8531 1.78994 58.4502 1.77021 58.4502 1.74653C58.4502 1.72286 59.8531 1.70312 61.5815 1.70312C63.3099 1.70312 64.7128 1.72286 64.7128 1.74653Z" fill="#EBEBEB"/>
<path d="M61.9804 3.07227H60.9209V5.30777H61.9804V3.07227Z" fill="#F5F5F5"/>
<path d="M64.7128 6.18599C64.7128 6.20966 63.3099 6.22939 61.5815 6.22939C59.8531 6.22939 58.4502 6.20966 58.4502 6.18599C58.4502 6.16231 59.8531 6.14258 61.5815 6.14258C63.3099 6.14258 64.7128 6.16231 64.7128 6.18599Z" fill="#EBEBEB"/>
<path d="M61.9804 7.646H60.9209V9.88149H61.9804V7.646Z" fill="#F5F5F5"/>
<path d="M64.7128 10.7597C64.7128 10.7834 63.3099 10.8031 61.5815 10.8031C59.8531 10.8031 58.4502 10.7834 58.4502 10.7597C58.4502 10.736 59.8531 10.7163 61.5815 10.7163C63.3099 10.7163 64.7128 10.736 64.7128 10.7597Z" fill="#EBEBEB"/>
<path d="M61.9804 12.2192H60.9209V14.4547H61.9804V12.2192Z" fill="#F5F5F5"/>
<path d="M64.7128 15.333C64.7128 15.3566 63.3099 15.3764 61.5815 15.3764C59.8531 15.3764 58.4502 15.3566 58.4502 15.333C58.4502 15.3093 59.8531 15.2896 61.5815 15.2896C63.3099 15.2896 64.7128 15.3093 64.7128 15.333Z" fill="#EBEBEB"/>
<path d="M61.9804 16.6606H60.9209V18.8961H61.9804V16.6606Z" fill="#F5F5F5"/>
<path d="M64.7128 19.7744C64.7128 19.798 63.3099 19.8178 61.5815 19.8178C59.8531 19.8178 58.4502 19.798 58.4502 19.7744C58.4502 19.7507 59.8531 19.731 61.5815 19.731C63.3099 19.731 64.7128 19.7507 64.7128 19.7744Z" fill="#EBEBEB"/>
<path d="M61.9804 21.1221H60.9209V23.3576H61.9804V21.1221Z" fill="#F5F5F5"/>
<path d="M61.9804 25.6401H60.9209V27.8756H61.9804V25.6401Z" fill="#F5F5F5"/>
<path d="M64.7128 24.2353C64.7128 24.259 63.3099 24.2787 61.5815 24.2787C59.8531 24.2787 58.4502 24.259 58.4502 24.2353C58.4502 24.2116 59.8531 24.1919 61.5815 24.1919C63.3099 24.1919 64.7128 24.2116 64.7128 24.2353Z" fill="#EBEBEB"/>
<path d="M55.6621 3.13965H54.6025V5.37515H55.6621V3.13965Z" fill="white"/>
<path d="M58.3934 6.25288C58.3934 6.27655 56.9906 6.29629 55.2621 6.29629C53.5337 6.29629 52.1309 6.27655 52.1309 6.25288C52.1309 6.2292 53.5337 6.20947 55.2621 6.20947C56.9906 6.20947 58.3934 6.2292 58.3934 6.25288Z" fill="#E0E0E0"/>
<path d="M55.6621 7.64795H54.6025V9.88345H55.6621V7.64795Z" fill="white"/>
<path d="M58.3934 10.7612C58.3934 10.7849 56.9906 10.8046 55.2621 10.8046C53.5337 10.8046 52.1309 10.7849 52.1309 10.7612C52.1309 10.7375 53.5337 10.7178 55.2621 10.7178C56.9906 10.7178 58.3934 10.7375 58.3934 10.7612Z" fill="#E0E0E0"/>
<path d="M55.6621 12.1543H54.6025V14.3898H55.6621V12.1543Z" fill="white"/>
<path d="M58.3934 15.268C58.3934 15.2917 56.9906 15.3114 55.2621 15.3114C53.5337 15.3114 52.1309 15.2917 52.1309 15.268C52.1309 15.2443 53.5337 15.2246 55.2621 15.2246C56.9906 15.2246 58.3934 15.2443 58.3934 15.268Z" fill="#E0E0E0"/>
<path d="M55.6621 16.6606H54.6025V18.8961H55.6621V16.6606Z" fill="white"/>
<path d="M58.3934 19.7744C58.3934 19.798 56.9906 19.8178 55.2621 19.8178C53.5337 19.8178 52.1309 19.798 52.1309 19.7744C52.1309 19.7507 53.5337 19.731 55.2621 19.731C56.9906 19.731 58.3934 19.7507 58.3934 19.7744Z" fill="#E0E0E0"/>
<path d="M55.6621 21.1694H54.6025V23.4049H55.6621V21.1694Z" fill="white"/>
<path d="M58.3934 24.2827C58.3934 24.3063 56.9906 24.3261 55.2621 24.3261C53.5337 24.3261 52.1309 24.3063 52.1309 24.2827C52.1309 24.259 53.5337 24.2393 55.2621 24.2393C56.9906 24.2393 58.3934 24.259 58.3934 24.2827Z" fill="#E0E0E0"/>
<path d="M55.6621 25.6758H54.6025V27.9113H55.6621V25.6758Z" fill="white"/>
<path d="M39.1893 33.2153H27.2305V55.9117H39.1893V33.2153Z" fill="#E0E0E0"/>
<path d="M39.1886 33.2153H33.5811V55.9117H39.1886V33.2153Z" fill="#EBEBEB"/>
<path d="M30.8136 35.3501H29.7383V37.9625H30.8136V35.3501Z" fill="#F5F5F5"/>
<path d="M35.8458 35.3501H34.7705V37.9625H35.8458V35.3501Z" fill="#E0E0E0"/>
<path d="M38.1808 35.3501H37.1055V37.9625H38.1808V35.3501Z" fill="#E0E0E0"/>
<path d="M40.0864 32.6665H26.3301V33.2348H40.0864V32.6665Z" fill="#E0E0E0"/>
<path d="M39.2721 33.288C39.2721 33.3097 36.5986 33.3294 33.3036 33.3294C30.0085 33.3294 27.333 33.3117 27.333 33.288C27.333 33.2643 30.0046 33.2466 33.3036 33.2466C36.6025 33.2466 39.2721 33.2643 39.2721 33.288Z" fill="#EBEBEB"/>
<path d="M85.106 17.4858H72.8887V56.2056H85.106V17.4858Z" fill="#F5F5F5"/>
<path d="M85.1057 17.4858H78.9971V56.099H85.1057V17.4858Z" fill="#EBEBEB"/>
<path d="M78.5993 13.6836H74.2842V17.4857H78.5993V13.6836Z" fill="#F5F5F5"/>
<path d="M78.5973 13.6836H77.5693V17.4857H78.5973V13.6836Z" fill="#EBEBEB"/>
<path d="M71.8711 17.4857V17.2627H85.4637V17.4857" fill="#E0E0E0"/>
<path d="M76.3337 19.1431H75.2998V21.3233H76.3337V19.1431Z" fill="#FAFAFA"/>
<path d="M78.9973 22.1796C78.9973 22.2033 77.63 22.2211 75.943 22.2211C74.256 22.2211 72.8887 22.2033 72.8887 22.1796C72.8887 22.1559 74.256 22.1382 75.943 22.1382C77.63 22.1382 78.9973 22.1559 78.9973 22.1796Z" fill="#E0E0E0"/>
<path d="M82.4958 19.1431H81.4619V21.3233H82.4958V19.1431Z" fill="#E0E0E0"/>
<path d="M85.1594 22.1796C85.1594 22.2033 83.7921 22.2211 82.1051 22.2211C80.4181 22.2211 79.0508 22.2033 79.0508 22.1796C79.0508 22.1559 80.4181 22.1382 82.1051 22.1382C83.7921 22.1382 85.1594 22.1559 85.1594 22.1796Z" fill="#E0E0E0"/>
<path d="M82.4958 23.4722H81.4619V25.6524H82.4958V23.4722Z" fill="#E0E0E0"/>
<path d="M85.1594 26.5087C85.1594 26.5324 83.7921 26.5502 82.1051 26.5502C80.4181 26.5502 79.0508 26.5324 79.0508 26.5087C79.0508 26.485 80.4181 26.4673 82.1051 26.4673C83.7921 26.4673 85.1594 26.485 85.1594 26.5087Z" fill="#E0E0E0"/>
<path d="M82.4958 27.9312H81.4619V30.1114H82.4958V27.9312Z" fill="#E0E0E0"/>
<path d="M85.1594 30.9677C85.1594 30.9914 83.7921 31.0091 82.1051 31.0091C80.4181 31.0091 79.0508 30.9914 79.0508 30.9677C79.0508 30.944 80.4181 30.9263 82.1051 30.9263C83.7921 30.9263 85.1594 30.944 85.1594 30.9677Z" fill="#E0E0E0"/>
<path d="M82.4958 32.3926H81.4619V34.5728H82.4958V32.3926Z" fill="#E0E0E0"/>
<path d="M85.1594 35.4291C85.1594 35.4528 83.7921 35.4706 82.1051 35.4706C80.4181 35.4706 79.0508 35.4528 79.0508 35.4291C79.0508 35.4055 80.4181 35.3877 82.1051 35.3877C83.7921 35.3877 85.1594 35.4055 85.1594 35.4291Z" fill="#E0E0E0"/>
<path d="M76.3337 23.5376H75.2998V25.7179H76.3337V23.5376Z" fill="#FAFAFA"/>
<path d="M78.9973 26.5737C78.9973 26.5973 77.63 26.6151 75.943 26.6151C74.256 26.6151 72.8887 26.5973 72.8887 26.5737C72.8887 26.55 74.256 26.5322 75.943 26.5322C77.63 26.5322 78.9973 26.55 78.9973 26.5737Z" fill="#E0E0E0"/>
<path d="M76.3337 27.9331H75.2998V30.1134H76.3337V27.9331Z" fill="#FAFAFA"/>
<path d="M78.9973 30.9697C78.9973 30.9933 77.63 31.0111 75.943 31.0111C74.256 31.0111 72.8887 30.9933 72.8887 30.9697C72.8887 30.946 74.256 30.9282 75.943 30.9282C77.63 30.9282 78.9973 30.946 78.9973 30.9697Z" fill="#E0E0E0"/>
<path d="M76.3337 32.3291H75.2998V34.5094H76.3337V32.3291Z" fill="#FAFAFA"/>
<path d="M78.9973 35.3657C78.9973 35.3893 77.63 35.4071 75.943 35.4071C74.256 35.4071 72.8887 35.3893 72.8887 35.3657C72.8887 35.342 74.256 35.3242 75.943 35.3242C77.63 35.3242 78.9973 35.342 78.9973 35.3657Z" fill="#E0E0E0"/>
<path d="M73.1133 56.1933H56.196L56.123 29.458H73.0383L73.1133 56.1933Z" fill="#EBEBEB"/>
<path d="M73.0406 29.458H64.582V56.1933H73.0406V29.458Z" fill="#E0E0E0"/>
<path d="M64.0272 24.1963H58.0547V29.4585H64.0272V24.1963Z" fill="#EBEBEB"/>
<path d="M64.0291 24.1963H62.6045V29.4585H64.0291V24.1963Z" fill="#E0E0E0"/>
<path d="M73.5341 29.1528H54.7129V29.4606H73.5341V29.1528Z" fill="#E0E0E0"/>
<path d="M60.8944 31.7549H59.4619V34.7737H60.8944V31.7549Z" fill="white"/>
<path d="M64.5826 35.9576C64.5826 35.9892 62.6884 36.0148 60.3543 36.0148C58.0201 36.0148 56.126 35.9892 56.126 35.9576C56.126 35.926 58.0182 35.9004 60.3543 35.9004C62.6904 35.9004 64.5826 35.926 64.5826 35.9576Z" fill="#E0E0E0"/>
<path d="M69.4256 31.7549H67.9932V34.7737H69.4256V31.7549Z" fill="#F5F5F5"/>
<path d="M73.1139 35.9576C73.1139 35.9892 71.2197 36.0148 68.8855 36.0148C66.5514 36.0148 64.6572 35.9892 64.6572 35.9576C64.6572 35.926 66.5494 35.9004 68.8855 35.9004C71.2217 35.9004 73.1139 35.926 73.1139 35.9576Z" fill="#EBEBEB"/>
<path d="M50.7056 13.1606H38.6855V55.8581H50.7056V13.1606Z" fill="#EBEBEB"/>
<path d="M40.7315 14.6348H39.6621V16.892H40.7315V14.6348Z" fill="white"/>
<path d="M42.9835 14.6348H41.9121V16.892H42.9835V14.6348Z" fill="white"/>
<path d="M45.2296 14.6348H44.1602V16.892H45.2296V14.6348Z" fill="white"/>
<path d="M47.4796 14.6348H46.4102V16.892H47.4796V14.6348Z" fill="white"/>
<path d="M49.7286 14.6348H48.6592V16.892H49.7286V14.6348Z" fill="white"/>
<path d="M40.7315 17.7915H39.6621V20.0487H40.7315V17.7915Z" fill="white"/>
<path d="M42.9835 17.7915H41.9121V20.0487H42.9835V17.7915Z" fill="white"/>
<path d="M45.2296 17.7915H44.1602V20.0487H45.2296V17.7915Z" fill="white"/>
<path d="M47.4796 17.7915H46.4102V20.0487H47.4796V17.7915Z" fill="white"/>
<path d="M49.7286 17.7915H48.6592V20.0487H49.7286V17.7915Z" fill="white"/>
<path d="M40.7315 20.9468H39.6621V23.204H40.7315V20.9468Z" fill="white"/>
<path d="M42.9835 20.9468H41.9121V23.204H42.9835V20.9468Z" fill="white"/>
<path d="M45.2296 20.9468H44.1602V23.204H45.2296V20.9468Z" fill="white"/>
<path d="M47.4796 20.9468H46.4102V23.204H47.4796V20.9468Z" fill="white"/>
<path d="M49.7286 20.9468H48.6592V23.204H49.7286V20.9468Z" fill="white"/>
<path d="M40.7315 24.103H39.6621V26.3602H40.7315V24.103Z" fill="white"/>
<path d="M42.9835 24.103H41.9121V26.3602H42.9835V24.103Z" fill="white"/>
<path d="M45.2296 24.103H44.1602V26.3602H45.2296V24.103Z" fill="white"/>
<path d="M47.4796 24.103H46.4102V26.3602H47.4796V24.103Z" fill="white"/>
<path d="M49.7286 24.103H48.6592V26.3602H49.7286V24.103Z" fill="white"/>
<path d="M40.7315 27.2603H39.6621V29.5175H40.7315V27.2603Z" fill="white"/>
<path d="M42.9835 27.2603H41.9121V29.5175H42.9835V27.2603Z" fill="white"/>
<path d="M45.2296 27.2603H44.1602V29.5175H45.2296V27.2603Z" fill="white"/>
<path d="M47.4796 27.2603H46.4102V29.5175H47.4796V27.2603Z" fill="white"/>
<path d="M49.7286 27.2603H48.6592V29.5175H49.7286V27.2603Z" fill="white"/>
<path d="M40.7315 30.4175H39.6621V32.6747H40.7315V30.4175Z" fill="white"/>
<path d="M42.9835 30.4175H41.9121V32.6747H42.9835V30.4175Z" fill="white"/>
<path d="M45.2296 30.4175H44.1602V32.6747H45.2296V30.4175Z" fill="white"/>
<path d="M47.4796 30.4175H46.4102V32.6747H47.4796V30.4175Z" fill="white"/>
<path d="M49.7286 30.4175H48.6592V32.6747H49.7286V30.4175Z" fill="white"/>
<path d="M40.7315 33.5742H39.6621V35.8314H40.7315V33.5742Z" fill="white"/>
<path d="M42.9835 33.5742H41.9121V35.8314H42.9835V33.5742Z" fill="white"/>
<path d="M45.2296 33.5742H44.1602V35.8314H45.2296V33.5742Z" fill="white"/>
<path d="M47.4796 33.5742H46.4102V35.8314H47.4796V33.5742Z" fill="white"/>
<path d="M49.7286 33.5742H48.6592V35.8314H49.7286V33.5742Z" fill="white"/>
<path d="M55.9564 13.1606H50.7061V55.8581H55.9564V13.1606Z" fill="#E0E0E0"/>
<path d="M45.2296 14.6348H44.1602V16.892H45.2296V14.6348Z" fill="white"/>
<path d="M47.4796 14.6348H46.4102V16.892H47.4796V14.6348Z" fill="white"/>
<path d="M49.7286 14.6348H48.6592V16.892H49.7286V14.6348Z" fill="white"/>
<path d="M45.2296 17.7915H44.1602V20.0487H45.2296V17.7915Z" fill="white"/>
<path d="M47.4796 17.7915H46.4102V20.0487H47.4796V17.7915Z" fill="white"/>
<path d="M49.7286 17.7915H48.6592V20.0487H49.7286V17.7915Z" fill="white"/>
<path d="M45.2296 20.9468H44.1602V23.204H45.2296V20.9468Z" fill="white"/>
<path d="M47.4796 20.9468H46.4102V23.204H47.4796V20.9468Z" fill="white"/>
<path d="M49.7286 20.9468H48.6592V23.204H49.7286V20.9468Z" fill="white"/>
<path d="M45.2296 24.1035H44.1602V26.3607H45.2296V24.1035Z" fill="white"/>
<path d="M47.4796 24.1035H46.4102V26.3607H47.4796V24.1035Z" fill="white"/>
<path d="M49.7286 24.1035H48.6592V26.3607H49.7286V24.1035Z" fill="white"/>
<path d="M45.2296 27.2603H44.1602V29.5175H45.2296V27.2603Z" fill="white"/>
<path d="M47.4796 27.2603H46.4102V29.5175H47.4796V27.2603Z" fill="white"/>
<path d="M49.7286 27.2603H48.6592V29.5175H49.7286V27.2603Z" fill="white"/>
<path d="M45.2296 30.4175H44.1602V32.6747H45.2296V30.4175Z" fill="white"/>
<path d="M47.4796 30.4175H46.4102V32.6747H47.4796V30.4175Z" fill="white"/>
<path d="M49.7286 30.4175H48.6592V32.6747H49.7286V30.4175Z" fill="white"/>
<path d="M45.2296 33.5742H44.1602V35.8314H45.2296V33.5742Z" fill="white"/>
<path d="M47.4796 33.5742H46.4102V35.8314H47.4796V33.5742Z" fill="white"/>
<path d="M49.7286 33.5742H48.6592V35.8314H49.7286V33.5742Z" fill="white"/>
<path d="M52.963 14.6348H51.8936V16.892H52.963V14.6348Z" fill="#EBEBEB"/>
<path d="M55.212 14.6348H54.1426V16.892H55.212V14.6348Z" fill="#EBEBEB"/>
<path d="M52.963 17.7915H51.8936V20.0487H52.963V17.7915Z" fill="#EBEBEB"/>
<path d="M55.212 17.7915H54.1426V20.0487H55.212V17.7915Z" fill="#EBEBEB"/>
<path d="M52.963 20.9468H51.8936V23.204H52.963V20.9468Z" fill="#EBEBEB"/>
<path d="M55.212 20.9468H54.1426V23.204H55.212V20.9468Z" fill="#EBEBEB"/>
<path d="M52.963 24.1035H51.8936V26.3607H52.963V24.1035Z" fill="#EBEBEB"/>
<path d="M55.212 24.1035H54.1426V26.3607H55.212V24.1035Z" fill="#EBEBEB"/>
<path d="M52.963 27.2603H51.8936V29.5175H52.963V27.2603Z" fill="#EBEBEB"/>
<path d="M55.212 27.2603H54.1426V29.5175H55.212V27.2603Z" fill="#EBEBEB"/>
<path d="M52.963 30.4175H51.8936V32.6747H52.963V30.4175Z" fill="#EBEBEB"/>
<path d="M55.212 30.4175H54.1426V32.6747H55.212V30.4175Z" fill="#EBEBEB"/>
<path d="M52.963 33.5742H51.8936V35.8314H52.963V33.5742Z" fill="#EBEBEB"/>
<path d="M55.212 33.5742H54.1426V35.8314H55.212V33.5742Z" fill="#EBEBEB"/>
<path d="M44.5145 3.16901C44.3093 2.62246 44.1021 2.07 43.7568 1.59843C43.4135 1.12687 42.9104 0.742117 42.3323 0.671086C41.7542 0.600055 41.1129 0.911803 40.9235 1.46427C40.8406 0.221225 40.665 -1.05536 40.0415 -2.13463C39.42 -3.21391 38.2579 -4.06233 37.0148 -3.98538C35.8428 -3.91435 34.8385 -3.04225 34.2801 -2.00836C33.7217 -0.974464 33.5303 0.211359 33.3469 1.37153C32.9029 0.82696 31.9637 0.996644 31.5001 1.5274C31.0364 2.05619 30.918 2.79609 30.8193 3.49259H44.8045L44.5125 3.16901H44.5145Z" fill="#F5F5F5"/>
<path d="M83.6348 3.94427C83.5006 3.58714 83.3645 3.2241 83.1376 2.91432C82.9126 2.60652 82.5831 2.352 82.2023 2.30661C81.8235 2.25926 81.4032 2.46446 81.2789 2.82751C81.2237 2.01263 81.1092 1.17604 80.7008 0.467705C80.2924 -0.240631 79.5308 -0.797041 78.7159 -0.74574C77.9464 -0.698386 77.2894 -0.128166 76.9224 0.550574C76.5573 1.22931 76.4311 2.00671 76.3107 2.76832C76.0187 2.41119 75.4031 2.52365 75.0992 2.87092C74.7954 3.21818 74.7184 3.70356 74.6533 4.15934H83.8242L83.6328 3.94822L83.6348 3.94427Z" fill="#F5F5F5"/>
<path d="M73.9531 29.6891C73.9531 29.7503 74.0025 29.7996 74.0636 29.7996C74.1248 29.7996 74.1741 29.7503 74.1741 29.6891C74.1741 29.6279 74.1248 29.5786 74.0636 29.5786C74.0025 29.5786 73.9531 29.6279 73.9531 29.6891Z" fill="#23272E"/>
<path d="M72.2475 32.856H74.1377V31.2597H72.2475V32.856Z" fill="#23272E"/>
<path d="M74.0868 31.38H74.0374V29.8252H72.3623V29.7759H74.0868V31.38Z" fill="#23272E"/>
<path d="M74.057 30.6401H72.3779V30.6895H74.057V30.6401Z" fill="#23272E"/>
<path d="M8.9767 29.7996C9.03773 29.7996 9.0872 29.7501 9.0872 29.6891C9.0872 29.6281 9.03773 29.5786 8.9767 29.5786C8.91568 29.5786 8.86621 29.6281 8.86621 29.6891C8.86621 29.7501 8.91568 29.7996 8.9767 29.7996Z" fill="#23272E"/>
<path d="M10.7896 31.2617H8.89941V32.8579H10.7896V31.2617Z" fill="#23272E"/>
<path d="M9.0005 31.38H8.95117V29.7759H10.6776V29.8252H9.0005V31.38Z" fill="#23272E"/>
<path d="M10.6596 30.6401H8.98047V30.6895H10.6596V30.6401Z" fill="#23272E"/>
<path d="M50.9229 8.28731C50.9229 8.29915 47.2037 8.30704 42.6162 8.30704C38.0288 8.30704 34.3096 8.29718 34.3096 8.28731C34.3096 8.27744 38.0288 8.26758 42.6162 8.26758C47.2037 8.26758 50.9229 8.27744 50.9229 8.28731Z" fill="#23272E"/>
<path d="M34.2854 12.6003C34.2735 12.6003 34.2656 11.8052 34.2656 10.8265C34.2656 9.84789 34.2755 9.05273 34.2854 9.05273C34.2952 9.05273 34.3051 9.84789 34.3051 10.8265C34.3051 11.8052 34.2952 12.6003 34.2854 12.6003Z" fill="#23272E"/>
<path d="M36.7697 12.6003C36.7579 12.6003 36.75 11.8052 36.75 10.8265C36.75 9.84789 36.7599 9.05273 36.7697 9.05273C36.7796 9.05273 36.7895 9.84789 36.7895 10.8265C36.7895 11.8052 36.7796 12.6003 36.7697 12.6003Z" fill="#23272E"/>
<path d="M38.5002 12.6003C38.4884 12.6003 38.4805 11.8052 38.4805 10.8265C38.4805 9.84789 38.4903 9.05273 38.5002 9.05273C38.5101 9.05273 38.5199 9.84789 38.5199 10.8265C38.5199 11.8052 38.5101 12.6003 38.5002 12.6003Z" fill="#23272E"/>
<path d="M41.2287 12.6003C41.2169 12.6003 41.209 11.8052 41.209 10.8265C41.209 9.84789 41.2189 9.05273 41.2287 9.05273C41.2386 9.05273 41.2484 9.84789 41.2484 10.8265C41.2484 11.8052 41.2386 12.6003 41.2287 12.6003Z" fill="#23272E"/>
<path d="M43.4699 12.6003C43.4581 12.6003 43.4502 11.8052 43.4502 10.8265C43.4502 9.84789 43.4601 9.05273 43.4699 9.05273C43.4798 9.05273 43.4897 9.84789 43.4897 10.8265C43.4897 11.8052 43.4798 12.6003 43.4699 12.6003Z" fill="#23272E"/>
<path d="M45.7316 12.6003C45.7198 12.6003 45.7119 11.8052 45.7119 10.8265C45.7119 9.84789 45.7218 9.05273 45.7316 9.05273C45.7415 9.05273 45.7514 9.84789 45.7514 10.8265C45.7514 11.8052 45.7415 12.6003 45.7316 12.6003Z" fill="#23272E"/>
<path d="M49.1272 12.6003C49.1153 12.6003 49.1074 11.8052 49.1074 10.8265C49.1074 9.84789 49.1173 9.05273 49.1272 9.05273C49.137 9.05273 49.1469 9.84789 49.1469 10.8265C49.1469 11.8052 49.137 12.6003 49.1272 12.6003Z" fill="#23272E"/>
<path d="M50.9224 12.5193C50.8711 12.5332 50.8355 11.6926 50.8276 10.349C50.8237 9.67614 50.8257 8.87507 50.8355 7.98521C50.8415 7.54127 50.8493 7.07365 50.8671 6.59024L50.877 6.40872L50.8829 6.31598L50.8888 6.26863L50.8927 6.24495L50.8967 6.23114C50.8967 6.23114 50.8947 6.22719 50.9105 6.21536C50.9125 6.21141 50.9322 6.21141 50.9381 6.22128C50.948 6.23311 50.9401 6.2489 50.9381 6.2489C50.9026 6.26863 50.8987 6.26074 50.8789 6.26468L50.8316 6.26863L50.7388 6.27257L50.5514 6.27849C50.3008 6.28244 50.0483 6.28441 49.7918 6.28836C47.2899 6.29428 45.0781 6.26271 43.7423 6.24495L43.7541 6.23311C43.7522 6.66324 43.7502 7.00853 43.7482 7.25517C43.7463 7.49194 43.7423 7.62019 43.7423 7.62019C43.7423 7.62019 43.7384 7.49194 43.7364 7.25517C43.7364 7.00656 43.7324 6.66324 43.7305 6.23311V6.22128H43.7423C45.0781 6.22917 47.2899 6.25284 49.7918 6.24692C50.0483 6.24298 50.3008 6.24101 50.5514 6.23706C50.6737 6.23706 50.804 6.2193 50.9184 6.23114C50.9243 6.23508 50.9184 6.23311 50.9224 6.23509C50.9243 6.23706 50.9421 6.24693 50.9362 6.24298V6.25087L50.9302 6.27257L50.9263 6.31795L50.9204 6.40872L50.9105 6.59024C50.8908 7.07365 50.8829 7.54127 50.875 7.98521C50.8612 8.87507 50.8572 9.67614 50.8572 10.349C50.8572 11.0218 50.8632 11.5663 50.875 11.9412C50.8849 12.3161 50.9046 12.5272 50.9224 12.5193Z" fill="#23272E"/>
<path d="M72.2198 22.813H10.7031V56.1936H72.2198V22.813Z" fill="#F5F5F5"/>
<path d="M73.2518 21.9053H9.82715V22.8129H73.2518V21.9053Z" fill="#E0E0E0"/>
<path d="M74.1317 20.9976H8.87207V21.9052H74.1317V20.9976Z" fill="#E0E0E0"/>
<g opacity="0.2">
<path d="M74.1317 20.9976H8.87207V21.9052H74.1317V20.9976Z" fill="black"/>
</g>
<path d="M12.7871 12.5728C12.7319 12.7405 7.95703 20.9662 7.95703 20.9662H75.7205L70.9772 12.5728H12.7871Z" fill="#23272E"/>
<path d="M22.2697 9.75879H19.4541V12.5744H22.2697V9.75879Z" fill="#23272E"/>
<path d="M64.048 9.75879H61.2324V12.5744H64.048V9.75879Z" fill="#23272E"/>
<path d="M57.592 9.75879H54.7764V12.5744H57.592V9.75879Z" fill="#23272E"/>
<path d="M31.5945 10.8579H24.1777V12.5745H31.5945V10.8579Z" fill="#23272E"/>
<path d="M17.0085 31.3799H12.6875V27.5502C12.6875 26.3565 13.6543 25.3896 14.848 25.3896C16.0417 25.3896 17.0085 26.3565 17.0085 27.5502V31.3799Z" fill="#3C4350"/>
<path d="M13.757 31.38C13.7452 31.38 13.7373 30.1015 13.7373 28.525C13.7373 26.9485 13.7472 25.668 13.757 25.668C13.7669 25.668 13.7768 26.9465 13.7768 28.525C13.7768 30.1035 13.7669 31.38 13.757 31.38Z" fill="#E0E0E0"/>
<path d="M15.9953 31.38C15.9835 31.38 15.9756 30.1015 15.9756 28.525C15.9756 26.9485 15.9855 25.668 15.9953 25.668C16.0052 25.668 16.015 26.9465 16.015 28.525C16.015 30.1035 16.0052 31.38 15.9953 31.38Z" fill="#E0E0E0"/>
<path d="M16.8578 26.7556C16.8578 26.7674 15.962 26.7753 14.8591 26.7753C13.7561 26.7753 12.8604 26.7654 12.8604 26.7556C12.8604 26.7457 13.7542 26.7358 14.8591 26.7358C15.964 26.7358 16.8578 26.7457 16.8578 26.7556Z" fill="#E0E0E0"/>
<path d="M16.8572 28.0734C16.8572 28.0853 15.9318 28.0932 14.7914 28.0932C13.651 28.0932 12.7256 28.0833 12.7256 28.0734C12.7256 28.0636 13.651 28.0537 14.7914 28.0537C15.9318 28.0537 16.8572 28.0636 16.8572 28.0734Z" fill="#E0E0E0"/>
<path d="M17.0091 29.2668C17.0091 29.2786 16.0502 29.2865 14.8683 29.2865C13.6865 29.2865 12.7275 29.2767 12.7275 29.2668C12.7275 29.2569 13.6865 29.2471 14.8683 29.2471C16.0502 29.2471 17.0091 29.2569 17.0091 29.2668Z" fill="#E0E0E0"/>
<path d="M17.0091 30.4606C17.0091 30.4725 16.0502 30.4804 14.8683 30.4804C13.6865 30.4804 12.7275 30.4705 12.7275 30.4606C12.7275 30.4508 13.6865 30.4409 14.8683 30.4409C16.0502 30.4409 17.0091 30.4508 17.0091 30.4606Z" fill="#E0E0E0"/>
<path d="M14.8488 31.3801C14.837 31.3801 14.8291 30.0444 14.8291 28.3988C14.8291 26.7533 14.839 25.4175 14.8488 25.4175C14.8587 25.4175 14.8686 26.7533 14.8686 28.3988C14.8686 30.0444 14.8587 31.3801 14.8488 31.3801Z" fill="#23272E"/>
<g opacity="0.1">
<path d="M16.9711 27.0034L12.6875 28.9943V30.3537L17.0085 28.3846L17.052 27.6683C17.0658 27.4553 17.0441 27.2402 16.9809 27.035C16.977 27.0231 16.973 27.0113 16.9711 27.0034Z" fill="white"/>
</g>
<g opacity="0.1">
<path d="M16.7146 26.4966L12.6875 28.3513V28.588L16.8093 26.7274L16.7146 26.4966Z" fill="white"/>
</g>
<path d="M17.009 31.3798C17.009 31.3798 17.007 31.3601 17.0051 31.3285C17.0051 31.2891 17.0031 31.2417 17.0011 31.1825C16.9991 31.0484 16.9972 30.8629 16.9932 30.6301C16.9893 30.1467 16.9814 29.464 16.9735 28.6234C16.9735 28.4123 16.9715 28.1913 16.9695 27.9625C16.9656 27.7316 16.9774 27.4909 16.9419 27.2502C16.8768 26.7668 16.6203 26.2696 16.1941 25.9203C15.7719 25.5671 15.18 25.3797 14.5861 25.4566C13.9961 25.5277 13.4141 25.873 13.0747 26.4096C12.8241 26.7944 12.7215 27.2462 12.7393 27.6902C12.7393 28.1381 12.7393 28.5781 12.7393 29.0023C12.7373 29.8527 12.7353 30.6498 12.7333 31.3779L12.6899 31.3345C13.9803 31.3443 15.0537 31.3522 15.8133 31.3562C16.1862 31.3601 16.4822 31.364 16.6933 31.368C16.79 31.37 16.8669 31.3719 16.9281 31.3719C16.9814 31.3719 17.011 31.3759 17.011 31.3759C17.011 31.3759 16.9873 31.3798 16.936 31.3798C16.8788 31.3798 16.8038 31.3818 16.7091 31.3858C16.5 31.3877 16.2079 31.3917 15.839 31.3976C15.0714 31.4035 13.9902 31.4114 12.688 31.4193H12.6446V31.3759C12.6446 30.6478 12.6406 29.8507 12.6386 29.0003C12.6386 28.5741 12.6386 28.1361 12.6386 27.6882C12.6209 27.2364 12.7255 26.751 12.9898 26.3504C13.345 25.7881 13.9567 25.427 14.5762 25.3521C15.1977 25.2731 15.8192 25.4724 16.2573 25.8434C16.7012 26.2104 16.9656 26.7293 17.0287 27.2344C17.0623 27.4869 17.0485 27.7316 17.0504 27.9644C17.0504 28.1973 17.0485 28.4222 17.0465 28.6353C17.0386 29.4798 17.0327 30.1664 17.0268 30.6518C17.0228 30.8806 17.0208 31.0622 17.0189 31.1944C17.0189 31.2496 17.0169 31.297 17.0149 31.3325C17.0149 31.364 17.013 31.3779 17.011 31.3779L17.009 31.3798Z" fill="#23272E"/>
<path d="M17.4114 32.6424H12.3604V31.4507V30.9673H17.4114V32.6424Z" fill="#23272E"/>
<path d="M12.4868 31.502H12.4375V29.1797H17.3623V31.2573H17.313V29.229H12.4868V31.502Z" fill="#23272E"/>
<path d="M17.3582 30.1211H12.4492V30.1704H17.3582V30.1211Z" fill="#23272E"/>
<path d="M17.4368 29.1051C17.4368 29.1663 17.3875 29.2156 17.3263 29.2156C17.2651 29.2156 17.2158 29.1663 17.2158 29.1051C17.2158 29.044 17.2651 28.9946 17.3263 28.9946C17.3875 28.9946 17.4368 29.044 17.4368 29.1051Z" fill="#23272E"/>
<path d="M12.5599 29.1051C12.5599 29.1663 12.5105 29.2156 12.4494 29.2156C12.3882 29.2156 12.3389 29.1663 12.3389 29.1051C12.3389 29.044 12.3882 28.9946 12.4494 28.9946C12.5105 28.9946 12.5599 29.044 12.5599 29.1051Z" fill="#23272E"/>
<path d="M25.8894 31.3799H21.5684V27.5502C21.5684 26.3565 22.5352 25.3896 23.7289 25.3896C24.9226 25.3896 25.8894 26.3565 25.8894 27.5502V31.3799Z" fill="#3C4350"/>
<path d="M22.6379 31.38C22.6261 31.38 22.6182 30.1015 22.6182 28.525C22.6182 26.9485 22.628 25.668 22.6379 25.668C22.6478 25.668 22.6576 26.9465 22.6576 28.525C22.6576 30.1035 22.6478 31.38 22.6379 31.38Z" fill="#E0E0E0"/>
<path d="M24.8752 31.38C24.8634 31.38 24.8555 30.1015 24.8555 28.525C24.8555 26.9485 24.8653 25.668 24.8752 25.668C24.8851 25.668 24.8949 26.9465 24.8949 28.525C24.8949 30.1035 24.8851 31.38 24.8752 31.38Z" fill="#E0E0E0"/>
<path d="M25.7377 26.7556C25.7377 26.7674 24.8419 26.7753 23.739 26.7753C22.636 26.7753 21.7402 26.7654 21.7402 26.7556C21.7402 26.7457 22.634 26.7358 23.739 26.7358C24.8439 26.7358 25.7377 26.7457 25.7377 26.7556Z" fill="#E0E0E0"/>
<path d="M25.7371 28.0734C25.7371 28.0853 24.8117 28.0932 23.6713 28.0932C22.5308 28.0932 21.6055 28.0833 21.6055 28.0734C21.6055 28.0636 22.5308 28.0537 23.6713 28.0537C24.8117 28.0537 25.7371 28.0636 25.7371 28.0734Z" fill="#E0E0E0"/>
<path d="M25.889 29.2668C25.889 29.2786 24.9301 29.2865 23.7482 29.2865C22.5663 29.2865 21.6074 29.2767 21.6074 29.2668C21.6074 29.2569 22.5663 29.2471 23.7482 29.2471C24.9301 29.2471 25.889 29.2569 25.889 29.2668Z" fill="#E0E0E0"/>
<path d="M25.889 30.4606C25.889 30.4725 24.9301 30.4804 23.7482 30.4804C22.5663 30.4804 21.6074 30.4705 21.6074 30.4606C21.6074 30.4508 22.5663 30.4409 23.7482 30.4409C24.9301 30.4409 25.889 30.4508 25.889 30.4606Z" fill="#E0E0E0"/>
<path d="M23.7287 31.3801C23.7169 31.3801 23.709 30.0444 23.709 28.3988C23.709 26.7533 23.7189 25.4175 23.7287 25.4175C23.7386 25.4175 23.7484 26.7533 23.7484 28.3988C23.7484 30.0444 23.7386 31.3801 23.7287 31.3801Z" fill="#23272E"/>
<g opacity="0.1">
<path d="M25.8519 27.0034L21.5684 28.9943V30.3537L25.8894 28.3846L25.9328 27.6683C25.9466 27.4553 25.9249 27.2402 25.8618 27.035C25.8578 27.0231 25.8539 27.0113 25.8519 27.0034Z" fill="white"/>
</g>
<g opacity="0.1">
<path d="M25.5954 26.4966L21.5684 28.3513V28.588L25.6901 26.7274L25.5954 26.4966Z" fill="white"/>
</g>
<path d="M25.8889 31.3798C25.8889 31.3798 25.8869 31.3601 25.8849 31.3285C25.8849 31.2891 25.883 31.2417 25.881 31.1825C25.879 31.0484 25.8771 30.8629 25.8731 30.6301C25.8692 30.1467 25.8613 29.464 25.8534 28.6234C25.8534 28.4123 25.8514 28.1913 25.8494 27.9625C25.8455 27.7316 25.8573 27.4909 25.8218 27.2502C25.7567 26.7668 25.5002 26.2696 25.074 25.9203C24.6518 25.5671 24.0598 25.3797 23.466 25.4566C22.876 25.5277 22.2939 25.873 21.9546 26.4096C21.704 26.7944 21.6014 27.2462 21.6191 27.6902C21.6191 28.1381 21.6191 28.5781 21.6191 29.0023C21.6172 29.8527 21.6152 30.6498 21.6132 31.3779L21.5698 31.3345C22.8602 31.3443 23.9336 31.3522 24.6932 31.3562C25.0661 31.3601 25.3621 31.364 25.5732 31.368C25.6699 31.37 25.7468 31.3719 25.808 31.3719C25.8613 31.3719 25.8909 31.3759 25.8909 31.3759C25.8909 31.3759 25.8672 31.3798 25.8159 31.3798C25.7587 31.3798 25.6837 31.3818 25.589 31.3858C25.3798 31.3877 25.0878 31.3917 24.7189 31.3976C23.9513 31.4035 22.8701 31.4114 21.5678 31.4193H21.5244V31.3759C21.5244 30.6478 21.5205 29.8507 21.5185 29.0003C21.5185 28.5741 21.5185 28.1361 21.5185 27.6882C21.5008 27.2364 21.6053 26.751 21.8697 26.3504C22.2249 25.7881 22.8365 25.427 23.4561 25.3521C24.0776 25.2731 24.6991 25.4724 25.1372 25.8434C25.5811 26.2104 25.8455 26.7293 25.9086 27.2344C25.9422 27.4869 25.9284 27.7316 25.9303 27.9644C25.9303 28.1973 25.9284 28.4222 25.9264 28.6353C25.9185 29.4798 25.9126 30.1664 25.9067 30.6518C25.9027 30.8806 25.9007 31.0622 25.8988 31.1944C25.8988 31.2496 25.8968 31.297 25.8948 31.3325C25.8948 31.364 25.8928 31.3779 25.8909 31.3779L25.8889 31.3798Z" fill="#23272E"/>
<path d="M26.2903 32.6424H21.2412V31.4507V30.9673H26.2903V32.6424Z" fill="#23272E"/>
<path d="M21.3677 31.502H21.3184V29.1797H26.2432V31.2573H26.1938V29.229H21.3677V31.502Z" fill="#23272E"/>
<path d="M26.2381 30.1211H21.3291V30.1704H26.2381V30.1211Z" fill="#23272E"/>
<path d="M26.3177 29.1051C26.3177 29.1663 26.2683 29.2156 26.2072 29.2156C26.146 29.2156 26.0967 29.1663 26.0967 29.1051C26.0967 29.044 26.146 28.9946 26.2072 28.9946C26.2683 28.9946 26.3177 29.044 26.3177 29.1051Z" fill="#23272E"/>
<path d="M21.4407 29.1051C21.4407 29.1663 21.3914 29.2156 21.3302 29.2156C21.2691 29.2156 21.2197 29.1663 21.2197 29.1051C21.2197 29.044 21.2691 28.9946 21.3302 28.9946C21.3914 28.9946 21.4407 29.044 21.4407 29.1051Z" fill="#23272E"/>
<path d="M34.7703 31.3799H30.4492V27.5502C30.4492 26.3565 31.416 25.3896 32.6097 25.3896C33.8035 25.3896 34.7703 26.3565 34.7703 27.5502V31.3799Z" fill="#3C4350"/>
<path d="M31.5188 31.38C31.5069 31.38 31.499 30.1015 31.499 28.525C31.499 26.9485 31.5089 25.668 31.5188 25.668C31.5286 25.668 31.5385 26.9465 31.5385 28.525C31.5385 30.1035 31.5286 31.38 31.5188 31.38Z" fill="#E0E0E0"/>
<path d="M33.757 31.38C33.7452 31.38 33.7373 30.1015 33.7373 28.525C33.7373 26.9485 33.7472 25.668 33.757 25.668C33.7669 25.668 33.7768 26.9465 33.7768 28.525C33.7768 30.1035 33.7669 31.38 33.757 31.38Z" fill="#E0E0E0"/>
<path d="M34.6195 26.7556C34.6195 26.7674 33.7238 26.7753 32.6208 26.7753C31.5178 26.7753 30.6221 26.7654 30.6221 26.7556C30.6221 26.7457 31.5159 26.7358 32.6208 26.7358C33.7257 26.7358 34.6195 26.7457 34.6195 26.7556Z" fill="#E0E0E0"/>
<path d="M34.6189 28.0734C34.6189 28.0853 33.6936 28.0932 32.5531 28.0932C31.4127 28.0932 30.4873 28.0833 30.4873 28.0734C30.4873 28.0636 31.4127 28.0537 32.5531 28.0537C33.6936 28.0537 34.6189 28.0636 34.6189 28.0734Z" fill="#E0E0E0"/>
<path d="M34.7708 29.2668C34.7708 29.2786 33.8119 29.2865 32.6301 29.2865C31.4482 29.2865 30.4893 29.2767 30.4893 29.2668C30.4893 29.2569 31.4482 29.2471 32.6301 29.2471C33.8119 29.2471 34.7708 29.2569 34.7708 29.2668Z" fill="#E0E0E0"/>
<path d="M34.7708 30.4606C34.7708 30.4725 33.8119 30.4804 32.6301 30.4804C31.4482 30.4804 30.4893 30.4705 30.4893 30.4606C30.4893 30.4508 31.4482 30.4409 32.6301 30.4409C33.8119 30.4409 34.7708 30.4508 34.7708 30.4606Z" fill="#E0E0E0"/>
<path d="M32.6105 31.3801C32.5987 31.3801 32.5908 30.0444 32.5908 28.3988C32.5908 26.7533 32.6007 25.4175 32.6105 25.4175C32.6204 25.4175 32.6303 26.7533 32.6303 28.3988C32.6303 30.0444 32.6204 31.3801 32.6105 31.3801Z" fill="#23272E"/>
<g opacity="0.1">
<path d="M34.7328 27.0034L30.4492 28.9943V30.3537L34.7703 28.3846L34.8137 27.6683C34.8275 27.4553 34.8058 27.2402 34.7426 27.035C34.7387 27.0231 34.7348 27.0113 34.7328 27.0034Z" fill="white"/>
</g>
<g opacity="0.1">
<path d="M34.4763 26.4966L30.4492 28.3513V28.588L34.571 26.7274L34.4763 26.4966Z" fill="white"/>
</g>
<path d="M34.7707 31.3798C34.7707 31.3798 34.7688 31.3601 34.7668 31.3285C34.7668 31.2891 34.7648 31.2417 34.7628 31.1825C34.7609 31.0484 34.7589 30.8629 34.7549 30.6301C34.751 30.1467 34.7431 29.464 34.7352 28.6234C34.7352 28.4123 34.7332 28.1913 34.7313 27.9625C34.7273 27.7316 34.7392 27.4909 34.7036 27.2502C34.6385 26.7668 34.382 26.2696 33.9558 25.9203C33.5336 25.5671 32.9417 25.3797 32.3478 25.4566C31.7578 25.5277 31.1758 25.873 30.8364 26.4096C30.5858 26.7944 30.4832 27.2462 30.501 27.6902C30.501 28.1381 30.501 28.5781 30.501 29.0023C30.499 29.8527 30.497 30.6498 30.4951 31.3779L30.4517 31.3345C31.7421 31.3443 32.8154 31.3522 33.575 31.3562C33.948 31.3601 34.2439 31.364 34.455 31.368C34.5517 31.37 34.6287 31.3719 34.6898 31.3719C34.7431 31.3719 34.7727 31.3759 34.7727 31.3759C34.7727 31.3759 34.749 31.3798 34.6977 31.3798C34.6405 31.3798 34.5655 31.3818 34.4708 31.3858C34.2617 31.3877 33.9697 31.3917 33.6007 31.3976C32.8332 31.4035 31.7519 31.4114 30.4497 31.4193H30.4063V31.3759C30.4063 30.6478 30.4023 29.8507 30.4004 29.0003C30.4004 28.5741 30.4004 28.1361 30.4004 27.6882C30.3826 27.2364 30.4872 26.751 30.7516 26.3504C31.1067 25.7881 31.7184 25.427 32.3379 25.3521C32.9594 25.2731 33.581 25.4724 34.019 25.8434C34.4629 26.2104 34.7273 26.7293 34.7905 27.2344C34.824 27.4869 34.8102 27.7316 34.8122 27.9644C34.8122 28.1973 34.8102 28.4222 34.8082 28.6353C34.8003 29.4798 34.7944 30.1664 34.7885 30.6518C34.7845 30.8806 34.7826 31.0622 34.7806 31.1944C34.7806 31.2496 34.7786 31.297 34.7766 31.3325C34.7766 31.364 34.7747 31.3779 34.7727 31.3779L34.7707 31.3798Z" fill="#23272E"/>
<path d="M35.1712 32.6424H30.1221V31.4507V30.9673H35.1712V32.6424Z" fill="#23272E"/>
<path d="M30.2485 31.502H30.1992V29.1797H35.124V31.2573H35.0747V29.229H30.2485V31.502Z" fill="#23272E"/>
<path d="M35.12 30.1211H30.2109V30.1704H35.12V30.1211Z" fill="#23272E"/>
<path d="M35.1985 29.1051C35.1985 29.1663 35.1492 29.2156 35.088 29.2156C35.0269 29.2156 34.9775 29.1663 34.9775 29.1051C34.9775 29.044 35.0269 28.9946 35.088 28.9946C35.1492 28.9946 35.1985 29.044 35.1985 29.1051Z" fill="#23272E"/>
<path d="M30.3216 29.1051C30.3216 29.1663 30.2722 29.2156 30.2111 29.2156C30.1499 29.2156 30.1006 29.1663 30.1006 29.1051C30.1006 29.044 30.1499 28.9946 30.2111 28.9946C30.2722 28.9946 30.3216 29.044 30.3216 29.1051Z" fill="#23272E"/>
<path d="M43.6511 31.3799H39.3301V27.5502C39.3301 26.3565 40.2969 25.3896 41.4906 25.3896C42.6843 25.3896 43.6511 26.3565 43.6511 27.5502V31.3799Z" fill="#3C4350"/>
<path d="M40.3996 31.38C40.3878 31.38 40.3799 30.1015 40.3799 28.525C40.3799 26.9485 40.3897 25.668 40.3996 25.668C40.4095 25.668 40.4193 26.9465 40.4193 28.525C40.4193 30.1035 40.4095 31.38 40.3996 31.38Z" fill="#E0E0E0"/>
<path d="M42.635 31.38C42.6231 31.38 42.6152 30.1015 42.6152 28.525C42.6152 26.9485 42.6251 25.668 42.635 25.668C42.6448 25.668 42.6547 26.9465 42.6547 28.525C42.6547 30.1035 42.6448 31.38 42.635 31.38Z" fill="#E0E0E0"/>
<path d="M43.4994 26.7556C43.4994 26.7674 42.6036 26.7753 41.5007 26.7753C40.3977 26.7753 39.502 26.7654 39.502 26.7556C39.502 26.7457 40.3958 26.7358 41.5007 26.7358C42.6056 26.7358 43.4994 26.7457 43.4994 26.7556Z" fill="#E0E0E0"/>
<path d="M43.4988 28.0734C43.4988 28.0853 42.5734 28.0932 41.433 28.0932C40.2926 28.0932 39.3672 28.0833 39.3672 28.0734C39.3672 28.0636 40.2926 28.0537 41.433 28.0537C42.5734 28.0537 43.4988 28.0636 43.4988 28.0734Z" fill="#E0E0E0"/>
<path d="M43.6507 29.2668C43.6507 29.2786 42.6918 29.2865 41.5099 29.2865C40.3281 29.2865 39.3691 29.2767 39.3691 29.2668C39.3691 29.2569 40.3281 29.2471 41.5099 29.2471C42.6918 29.2471 43.6507 29.2569 43.6507 29.2668Z" fill="#E0E0E0"/>
<path d="M43.6507 30.4606C43.6507 30.4725 42.6918 30.4804 41.5099 30.4804C40.3281 30.4804 39.3691 30.4705 39.3691 30.4606C39.3691 30.4508 40.3281 30.4409 41.5099 30.4409C42.6918 30.4409 43.6507 30.4508 43.6507 30.4606Z" fill="#E0E0E0"/>
<path d="M41.4904 31.3801C41.4786 31.3801 41.4707 30.0444 41.4707 28.3988C41.4707 26.7533 41.4806 25.4175 41.4904 25.4175C41.5003 25.4175 41.5102 26.7533 41.5102 28.3988C41.5102 30.0444 41.5003 31.3801 41.4904 31.3801Z" fill="#23272E"/>
<g opacity="0.1">
<path d="M43.6117 27.0034L39.3281 28.9943V30.3537L43.6492 28.3846L43.6926 27.6683C43.7064 27.4553 43.6847 27.2402 43.6215 27.035C43.6176 27.0231 43.6137 27.0113 43.6117 27.0034Z" fill="white"/>
</g>
<g opacity="0.1">
<path d="M43.3572 26.4966L39.3281 28.3513V28.588L43.4499 26.7274L43.3572 26.4966Z" fill="white"/>
</g>
<path d="M43.6506 31.3798C43.6506 31.3798 43.6486 31.3601 43.6467 31.3285C43.6467 31.2891 43.6447 31.2417 43.6427 31.1825C43.6407 31.0484 43.6388 30.8629 43.6348 30.6301C43.6309 30.1467 43.623 29.464 43.6151 28.6234C43.6151 28.4123 43.6131 28.1913 43.6112 27.9625C43.6072 27.7316 43.619 27.4909 43.5835 27.2502C43.5184 26.7668 43.2619 26.2696 42.8357 25.9203C42.4135 25.5671 41.8216 25.3797 41.2277 25.4566C40.6377 25.5277 40.0557 25.873 39.7163 26.4096C39.4657 26.7944 39.3631 27.2462 39.3809 27.6902C39.3809 28.1381 39.3809 28.5781 39.3809 29.0023C39.3789 29.8527 39.3769 30.6498 39.3749 31.3779L39.3315 31.3345C40.6219 31.3443 41.6953 31.3522 42.4549 31.3562C42.8278 31.3601 43.1238 31.364 43.3349 31.368C43.4316 31.37 43.5086 31.3719 43.5697 31.3719C43.623 31.3719 43.6526 31.3759 43.6526 31.3759C43.6526 31.3759 43.6289 31.3798 43.5776 31.3798C43.5204 31.3798 43.4454 31.3818 43.3507 31.3858C43.1416 31.3877 42.8495 31.3917 42.4806 31.3976C41.713 31.4035 40.6318 31.4114 39.3296 31.4193H39.2862V31.3759C39.2862 30.6478 39.2822 29.8507 39.2802 29.0003C39.2802 28.5741 39.2802 28.1361 39.2802 27.6882C39.2625 27.2364 39.3671 26.751 39.6314 26.3504C39.9866 25.7881 40.5983 25.427 41.2178 25.3521C41.8393 25.2731 42.4608 25.4724 42.8989 25.8434C43.3428 26.2104 43.6072 26.7293 43.6703 27.2344C43.7039 27.4869 43.6901 27.7316 43.692 27.9644C43.692 28.1973 43.6901 28.4222 43.6881 28.6353C43.6802 29.4798 43.6743 30.1664 43.6684 30.6518C43.6644 30.8806 43.6625 31.0622 43.6605 31.1944C43.6605 31.2496 43.6585 31.297 43.6565 31.3325C43.6565 31.364 43.6546 31.3779 43.6526 31.3779L43.6506 31.3798Z" fill="#23272E"/>
<path d="M44.052 32.6424H39.0029V31.4507V30.9673H44.052V32.6424Z" fill="#23272E"/>
<path d="M39.1275 31.502H39.0781V29.1797H44.0029V31.2573H43.9536V29.229H39.1275V31.502Z" fill="#23272E"/>
<path d="M43.9998 30.1211H39.0908V30.1704H43.9998V30.1211Z" fill="#23272E"/>
<path d="M43.9669 29.2156C44.028 29.2156 44.0774 29.1661 44.0774 29.1051C44.0774 29.0441 44.028 28.9946 43.9669 28.9946C43.9059 28.9946 43.8564 29.0441 43.8564 29.1051C43.8564 29.1661 43.9059 29.2156 43.9669 29.2156Z" fill="#23272E"/>
<path d="M39.2024 29.1051C39.2024 29.1663 39.1531 29.2156 39.0919 29.2156C39.0308 29.2156 38.9814 29.1663 38.9814 29.1051C38.9814 29.044 39.0308 28.9946 39.0919 28.9946C39.1531 28.9946 39.2024 29.044 39.2024 29.1051Z" fill="#23272E"/>
<path d="M52.531 31.3799H48.21V27.5502C48.21 26.3565 49.1768 25.3896 50.3705 25.3896C51.5642 25.3896 52.531 26.3565 52.531 27.5502V31.3799Z" fill="#3C4350"/>
<path d="M49.2795 31.38C49.2677 31.38 49.2598 30.1015 49.2598 28.525C49.2598 26.9485 49.2696 25.668 49.2795 25.668C49.2894 25.668 49.2992 26.9465 49.2992 28.525C49.2992 30.1035 49.2894 31.38 49.2795 31.38Z" fill="#E0E0E0"/>
<path d="M51.5168 31.38C51.505 31.38 51.4971 30.1015 51.4971 28.525C51.4971 26.9485 51.5069 25.668 51.5168 25.668C51.5267 25.668 51.5365 26.9465 51.5365 28.525C51.5365 30.1035 51.5267 31.38 51.5168 31.38Z" fill="#E0E0E0"/>
<path d="M52.3812 26.7556C52.3812 26.7674 51.4855 26.7753 50.3825 26.7753C49.2796 26.7753 48.3838 26.7654 48.3838 26.7556C48.3838 26.7457 49.2776 26.7358 50.3825 26.7358C51.4874 26.7358 52.3812 26.7457 52.3812 26.7556Z" fill="#E0E0E0"/>
<path d="M52.3807 28.0734C52.3807 28.0853 51.4553 28.0932 50.3148 28.0932C49.1744 28.0932 48.249 28.0833 48.249 28.0734C48.249 28.0636 49.1744 28.0537 50.3148 28.0537C51.4553 28.0537 52.3807 28.0636 52.3807 28.0734Z" fill="#E0E0E0"/>
<path d="M52.5306 29.2668C52.5306 29.2786 51.5717 29.2865 50.3898 29.2865C49.2079 29.2865 48.249 29.2767 48.249 29.2668C48.249 29.2569 49.2079 29.2471 50.3898 29.2471C51.5717 29.2471 52.5306 29.2569 52.5306 29.2668Z" fill="#E0E0E0"/>
<path d="M52.5306 30.4606C52.5306 30.4725 51.5717 30.4804 50.3898 30.4804C49.2079 30.4804 48.249 30.4705 48.249 30.4606C48.249 30.4508 49.2079 30.4409 50.3898 30.4409C51.5717 30.4409 52.5306 30.4508 52.5306 30.4606Z" fill="#E0E0E0"/>
<path d="M50.3703 31.3801C50.3585 31.3801 50.3506 30.0444 50.3506 28.3988C50.3506 26.7533 50.3605 25.4175 50.3703 25.4175C50.3802 25.4175 50.39 26.7533 50.39 28.3988C50.39 30.0444 50.3802 31.3801 50.3703 31.3801Z" fill="#23272E"/>
<g opacity="0.1">
<path d="M52.4935 27.0034L48.21 28.9943V30.3537L52.531 28.3846L52.5744 27.6683C52.5882 27.4553 52.5665 27.2402 52.5034 27.035C52.4994 27.0231 52.4955 27.0113 52.4935 27.0034Z" fill="white"/>
</g>
<g opacity="0.1">
<path d="M52.237 26.4966L48.21 28.3513V28.588L52.3317 26.7274L52.237 26.4966Z" fill="white"/>
</g>
<path d="M52.5305 31.3798C52.5305 31.3798 52.5285 31.3601 52.5266 31.3285C52.5266 31.2891 52.5246 31.2417 52.5226 31.1825C52.5206 31.0484 52.5187 30.8629 52.5147 30.6301C52.5108 30.1467 52.5029 29.464 52.495 28.6234C52.495 28.4123 52.493 28.1913 52.491 27.9625C52.4871 27.7316 52.4989 27.4909 52.4634 27.2502C52.3983 26.7668 52.1418 26.2696 51.7156 25.9203C51.2934 25.5671 50.7014 25.3797 50.1076 25.4566C49.5176 25.5277 48.9355 25.873 48.5962 26.4096C48.3456 26.7944 48.243 27.2462 48.2607 27.6902C48.2607 28.1381 48.2607 28.5781 48.2607 29.0023C48.2588 29.8527 48.2568 30.6498 48.2548 31.3779L48.2114 31.3345C49.5018 31.3443 50.5752 31.3522 51.3348 31.3562C51.7077 31.3601 52.0037 31.364 52.2148 31.368C52.3115 31.37 52.3884 31.3719 52.4496 31.3719C52.5029 31.3719 52.5325 31.3759 52.5325 31.3759C52.5325 31.3759 52.5088 31.3798 52.4575 31.3798C52.4003 31.3798 52.3253 31.3818 52.2306 31.3858C52.0214 31.3877 51.7294 31.3917 51.3605 31.3976C50.5929 31.4035 49.5117 31.4114 48.2094 31.4193H48.166V31.3759C48.166 30.6478 48.1621 29.8507 48.1601 29.0003C48.1601 28.5741 48.1601 28.1361 48.1601 27.6882C48.1424 27.2364 48.2469 26.751 48.5113 26.3504C48.8665 25.7881 49.4781 25.427 50.0977 25.3521C50.7192 25.2731 51.3407 25.4724 51.7788 25.8434C52.2227 26.2104 52.4871 26.7293 52.5502 27.2344C52.5838 27.4869 52.57 27.7316 52.5719 27.9644C52.5719 28.1973 52.57 28.4222 52.568 28.6353C52.5601 29.4798 52.5522 30.1664 52.5483 30.6518C52.5443 30.8806 52.5423 31.0622 52.5404 31.1944C52.5404 31.2496 52.5384 31.297 52.5364 31.3325C52.5364 31.364 52.5344 31.3779 52.5325 31.3779L52.5305 31.3798Z" fill="#23272E"/>
<path d="M52.9339 32.6424H47.8828V31.4507V30.9673H52.9339V32.6424Z" fill="#23272E"/>
<path d="M48.0083 31.502H47.959V29.1797H52.8838V31.2573H52.8345V29.229H48.0083V31.502Z" fill="#23272E"/>
<path d="M52.8817 30.1211H47.9727V30.1704H52.8817V30.1211Z" fill="#23272E"/>
<path d="M52.8488 29.2156C52.9098 29.2156 52.9593 29.1661 52.9593 29.1051C52.9593 29.0441 52.9098 28.9946 52.8488 28.9946C52.7877 28.9946 52.7383 29.0441 52.7383 29.1051C52.7383 29.1661 52.7877 29.2156 52.8488 29.2156Z" fill="#23272E"/>
<path d="M48.0833 29.1051C48.0833 29.1663 48.034 29.2156 47.9728 29.2156C47.9116 29.2156 47.8623 29.1663 47.8623 29.1051C47.8623 29.044 47.9116 28.9946 47.9728 28.9946C48.034 28.9946 48.0833 29.044 48.0833 29.1051Z" fill="#23272E"/>
<path d="M61.4119 31.3799H57.0908V27.5502C57.0908 26.3565 58.0576 25.3896 59.2513 25.3896C60.4451 25.3896 61.4119 26.3565 61.4119 27.5502V31.3799Z" fill="#3C4350"/>
<path d="M58.1594 31.38C58.1475 31.38 58.1396 30.1015 58.1396 28.525C58.1396 26.9485 58.1495 25.668 58.1594 25.668C58.1692 25.668 58.1791 26.9465 58.1791 28.525C58.1791 30.1035 58.1692 31.38 58.1594 31.38Z" fill="#E0E0E0"/>
<path d="M60.3977 31.38C60.3858 31.38 60.3779 30.1015 60.3779 28.525C60.3779 26.9485 60.3878 25.668 60.3977 25.668C60.4075 25.668 60.4174 26.9465 60.4174 28.525C60.4174 30.1035 60.4075 31.38 60.3977 31.38Z" fill="#E0E0E0"/>
<path d="M61.2611 26.7556C61.2611 26.7674 60.3654 26.7753 59.2624 26.7753C58.1595 26.7753 57.2637 26.7654 57.2637 26.7556C57.2637 26.7457 58.1575 26.7358 59.2624 26.7358C60.3673 26.7358 61.2611 26.7457 61.2611 26.7556Z" fill="#E0E0E0"/>
<path d="M61.2615 28.0734C61.2615 28.0853 60.3361 28.0932 59.1957 28.0932C58.0553 28.0932 57.1299 28.0833 57.1299 28.0734C57.1299 28.0636 58.0553 28.0537 59.1957 28.0537C60.3361 28.0537 61.2615 28.0636 61.2615 28.0734Z" fill="#E0E0E0"/>
<path d="M61.4115 29.2668C61.4115 29.2786 60.4526 29.2865 59.2707 29.2865C58.0888 29.2865 57.1299 29.2767 57.1299 29.2668C57.1299 29.2569 58.0888 29.2471 59.2707 29.2471C60.4526 29.2471 61.4115 29.2569 61.4115 29.2668Z" fill="#E0E0E0"/>
<path d="M61.4115 30.4606C61.4115 30.4725 60.4526 30.4804 59.2707 30.4804C58.0888 30.4804 57.1299 30.4705 57.1299 30.4606C57.1299 30.4508 58.0888 30.4409 59.2707 30.4409C60.4526 30.4409 61.4115 30.4508 61.4115 30.4606Z" fill="#E0E0E0"/>
<path d="M59.2512 31.3801C59.2393 31.3801 59.2314 30.0444 59.2314 28.3988C59.2314 26.7533 59.2413 25.4175 59.2512 25.4175C59.261 25.4175 59.2709 26.7533 59.2709 28.3988C59.2709 30.0444 59.261 31.3801 59.2512 31.3801Z" fill="#23272E"/>
<g opacity="0.1">
<path d="M61.3744 27.0034L57.0908 28.9943V30.3537L61.4119 28.3846L61.4553 27.6683C61.4691 27.4553 61.4474 27.2402 61.3842 27.035C61.3803 27.0231 61.3764 27.0113 61.3744 27.0034Z" fill="white"/>
</g>
<g opacity="0.1">
<path d="M61.1179 26.4966L57.0908 28.3513V28.588L61.2126 26.7274L61.1179 26.4966Z" fill="white"/>
</g>
<path d="M61.4114 31.3798C61.4114 31.3798 61.4094 31.3601 61.4074 31.3285C61.4074 31.2891 61.4054 31.2417 61.4035 31.1825C61.4015 31.0484 61.3995 30.8629 61.3956 30.6301C61.3916 30.1467 61.3837 29.464 61.3758 28.6234C61.3758 28.4123 61.3739 28.1913 61.3719 27.9625C61.368 27.7316 61.3798 27.4909 61.3443 27.2502C61.2792 26.7668 61.0227 26.2696 60.5965 25.9203C60.1742 25.5671 59.5823 25.3797 58.9884 25.4566C58.3985 25.5277 57.8164 25.873 57.477 26.4096C57.2265 26.7944 57.1239 27.2462 57.1416 27.6902C57.1416 28.1381 57.1416 28.5781 57.1416 29.0023C57.1396 29.8527 57.1377 30.6498 57.1357 31.3779L57.0923 31.3345C58.3827 31.3443 59.456 31.3522 60.2157 31.3562C60.5886 31.3601 60.8845 31.364 61.0957 31.368C61.1923 31.37 61.2693 31.3719 61.3305 31.3719C61.3837 31.3719 61.4133 31.3759 61.4133 31.3759C61.4133 31.3759 61.3897 31.3798 61.3384 31.3798C61.2811 31.3798 61.2062 31.3818 61.1114 31.3858C60.9023 31.3877 60.6103 31.3917 60.2413 31.3976C59.4738 31.4035 58.3925 31.4114 57.0903 31.4193H57.0469V31.3759C57.0469 30.6478 57.043 29.8507 57.041 29.0003C57.041 28.5741 57.041 28.1361 57.041 27.6882C57.0232 27.2364 57.1278 26.751 57.3922 26.3504C57.7473 25.7881 58.359 25.427 58.9785 25.3521C59.6001 25.2731 60.2216 25.4724 60.6596 25.8434C61.1036 26.2104 61.3679 26.7293 61.4311 27.2344C61.4646 27.4869 61.4508 27.7316 61.4528 27.9644C61.4528 28.1973 61.4508 28.4222 61.4488 28.6353C61.441 29.4798 61.435 30.1664 61.4291 30.6518C61.4252 30.8806 61.4232 31.0622 61.4212 31.1944C61.4212 31.2496 61.4193 31.297 61.4173 31.3325C61.4173 31.364 61.4153 31.3779 61.4133 31.3779L61.4114 31.3798Z" fill="#23272E"/>
<path d="M61.8138 32.6424H56.7627V31.4507V30.9673H61.8138V32.6424Z" fill="#23272E"/>
<path d="M56.8892 31.502H56.8398V29.1797H61.7647V31.2573H61.7153V29.229H56.8892V31.502Z" fill="#23272E"/>
<path d="M61.7606 30.1211H56.8516V30.1704H61.7606V30.1211Z" fill="#23272E"/>
<path d="M61.7287 29.2156C61.7897 29.2156 61.8391 29.1661 61.8391 29.1051C61.8391 29.0441 61.7897 28.9946 61.7287 28.9946C61.6676 28.9946 61.6182 29.0441 61.6182 29.1051C61.6182 29.1661 61.6676 29.2156 61.7287 29.2156Z" fill="#23272E"/>
<path d="M56.9622 29.1051C56.9622 29.1663 56.9129 29.2156 56.8517 29.2156C56.7905 29.2156 56.7412 29.1663 56.7412 29.1051C56.7412 29.044 56.7905 28.9946 56.8517 28.9946C56.9129 28.9946 56.9622 29.044 56.9622 29.1051Z" fill="#23272E"/>
<path d="M70.3435 31.3936H66.0225V27.5638C66.0225 26.3701 66.9893 25.4033 68.183 25.4033C69.3767 25.4033 70.3435 26.3701 70.3435 27.5638V31.3936Z" fill="#3C4350"/>
<path d="M67.0402 31.38C67.0284 31.38 67.0205 30.1015 67.0205 28.525C67.0205 26.9485 67.0304 25.668 67.0402 25.668C67.0501 25.668 67.06 26.9465 67.06 28.525C67.06 30.1035 67.0501 31.38 67.0402 31.38Z" fill="#E0E0E0"/>
<path d="M69.2775 31.38C69.2657 31.38 69.2578 30.1015 69.2578 28.525C69.2578 26.9485 69.2677 25.668 69.2775 25.668C69.2874 25.668 69.2973 26.9465 69.2973 28.525C69.2973 30.1035 69.2874 31.38 69.2775 31.38Z" fill="#E0E0E0"/>
<path d="M70.1391 26.7551C70.1391 26.7669 69.2433 26.7748 68.1403 26.7748C67.0374 26.7748 66.1416 26.7649 66.1416 26.7551C66.1416 26.7452 67.0354 26.7354 68.1403 26.7354C69.2453 26.7354 70.1391 26.7452 70.1391 26.7551Z" fill="#E0E0E0"/>
<path d="M70.1394 28.073C70.1394 28.0848 69.2141 28.0927 68.0736 28.0927C66.9332 28.0927 66.0078 28.0828 66.0078 28.073C66.0078 28.0631 66.9332 28.0532 68.0736 28.0532C69.2141 28.0532 70.1394 28.0631 70.1394 28.073Z" fill="#E0E0E0"/>
<path d="M70.2923 29.2668C70.2923 29.2786 69.3334 29.2865 68.1515 29.2865C66.9697 29.2865 66.0107 29.2767 66.0107 29.2668C66.0107 29.2569 66.9697 29.2471 68.1515 29.2471C69.3334 29.2471 70.2923 29.2569 70.2923 29.2668Z" fill="#E0E0E0"/>
<path d="M70.2923 30.4606C70.2923 30.4725 69.3334 30.4804 68.1515 30.4804C66.9697 30.4804 66.0107 30.4705 66.0107 30.4606C66.0107 30.4508 66.9697 30.4409 68.1515 30.4409C69.3334 30.4409 70.2923 30.4508 70.2923 30.4606Z" fill="#E0E0E0"/>
<path d="M68.1311 31.3801C68.1192 31.3801 68.1113 30.0444 68.1113 28.3988C68.1113 26.7533 68.1212 25.4175 68.1311 25.4175C68.1409 25.4175 68.1508 26.7533 68.1508 28.3988C68.1508 30.0444 68.1409 31.3801 68.1311 31.3801Z" fill="#23272E"/>
<g opacity="0.1">
<path d="M70.2543 27.0034L65.9707 28.9943V30.3537L70.2917 28.3846L70.3352 27.6683C70.349 27.4553 70.3273 27.2402 70.2641 27.035C70.2602 27.0231 70.2562 27.0113 70.2543 27.0034Z" fill="white"/>
</g>
<g opacity="0.1">
<path d="M69.9978 26.4966L65.9707 28.3513V28.588L70.0925 26.7274L69.9978 26.4966Z" fill="white"/>
</g>
<path d="M70.2922 31.3798C70.2922 31.3798 70.2902 31.3601 70.2883 31.3285C70.2883 31.2891 70.2863 31.2417 70.2843 31.1825C70.2824 31.0484 70.2804 30.8629 70.2764 30.6301C70.2725 30.1467 70.2646 29.464 70.2567 28.6234C70.2567 28.4123 70.2547 28.1913 70.2528 27.9625C70.2488 27.7316 70.2606 27.4909 70.2251 27.2502C70.16 26.7668 69.9035 26.2696 69.4773 25.9203C69.0551 25.5671 68.4632 25.3797 67.8693 25.4566C67.2793 25.5277 66.6973 25.873 66.3579 26.4096C66.1073 26.7944 66.0047 27.2462 66.0225 27.6902C66.0225 28.1381 66.0225 28.5781 66.0225 29.0023C66.0205 29.8527 66.0185 30.6498 66.0166 31.3779L65.9731 31.3345C67.2635 31.3443 68.3369 31.3522 69.0965 31.3562C69.4694 31.3601 69.7654 31.364 69.9765 31.368C70.0732 31.37 70.1502 31.3719 70.2113 31.3719C70.2646 31.3719 70.2942 31.3759 70.2942 31.3759C70.2942 31.3759 70.2705 31.3798 70.2192 31.3798C70.162 31.3798 70.087 31.3818 69.9923 31.3858C69.7832 31.3877 69.4911 31.3917 69.1222 31.3976C68.3547 31.4035 67.2734 31.4114 65.9712 31.4193H65.9278V31.3759C65.9278 30.6478 65.9238 29.8507 65.9218 29.0003C65.9218 28.5741 65.9218 28.1361 65.9218 27.6882C65.9041 27.2364 66.0087 26.751 66.273 26.3504C66.6282 25.7881 67.2399 25.427 67.8594 25.3521C68.4809 25.2731 69.1024 25.4724 69.5405 25.8434C69.9844 26.2104 70.2488 26.7293 70.3119 27.2344C70.3455 27.4869 70.3317 27.7316 70.3337 27.9644C70.3337 28.1973 70.3317 28.4222 70.3297 28.6353C70.3218 29.4798 70.3159 30.1664 70.31 30.6518C70.306 30.8806 70.3041 31.0622 70.3021 31.1944C70.3021 31.2496 70.3001 31.297 70.2981 31.3325C70.2981 31.364 70.2962 31.3779 70.2942 31.3779L70.2922 31.3798Z" fill="#23272E"/>
<path d="M70.6946 32.6424H65.6436V31.4507V30.9673H70.6946V32.6424Z" fill="#23272E"/>
<path d="M65.77 31.502H65.7207V29.1797H70.6455V31.2573H70.5962V29.229H65.77V31.502Z" fill="#23272E"/>
<path d="M70.6405 30.1211H65.7314V30.1704H70.6405V30.1211Z" fill="#23272E"/>
<path d="M70.72 29.1051C70.72 29.1663 70.6707 29.2156 70.6095 29.2156C70.5483 29.2156 70.499 29.1663 70.499 29.1051C70.499 29.044 70.5483 28.9946 70.6095 28.9946C70.6707 28.9946 70.72 29.044 70.72 29.1051Z" fill="#23272E"/>
<path d="M65.8431 29.1051C65.8431 29.1663 65.7937 29.2156 65.7326 29.2156C65.6714 29.2156 65.6221 29.1663 65.6221 29.1051C65.6221 29.044 65.6714 28.9946 65.7326 28.9946C65.7937 28.9946 65.8431 29.044 65.8431 29.1051Z" fill="#23272E"/>
<path d="M17.0085 40.813H12.6875V36.9833C12.6875 35.7896 13.6543 34.8228 14.848 34.8228C16.0417 34.8228 17.0085 35.7896 17.0085 36.9833V40.813Z" fill="#3C4350"/>
<path d="M13.757 40.8131C13.7452 40.8131 13.7373 39.5346 13.7373 37.9581C13.7373 36.3816 13.7472 35.1011 13.757 35.1011C13.7669 35.1011 13.7768 36.3796 13.7768 37.9581C13.7768 39.5366 13.7669 40.8131 13.757 40.8131Z" fill="#E0E0E0"/>
<path d="M15.9953 40.8131C15.9835 40.8131 15.9756 39.5346 15.9756 37.9581C15.9756 36.3816 15.9855 35.1011 15.9953 35.1011C16.0052 35.1011 16.015 36.3796 16.015 37.9581C16.015 39.5366 16.0052 40.8131 15.9953 40.8131Z" fill="#E0E0E0"/>
<path d="M14.8488 40.8132C14.837 40.8132 14.8291 39.4775 14.8291 37.8319C14.8291 36.1864 14.839 34.8506 14.8488 34.8506C14.8587 34.8506 14.8686 36.1864 14.8686 37.8319C14.8686 39.4775 14.8587 40.8132 14.8488 40.8132Z" fill="#23272E"/>
<g opacity="0.1">
<path d="M16.7146 35.9297L12.6875 37.7844V38.0211L16.8093 36.1605L16.7146 35.9297Z" fill="white"/>
</g>
<path d="M17.009 40.8129C17.009 40.8129 17.007 40.7932 17.0051 40.7616C17.0051 40.7222 17.0031 40.6748 17.0011 40.6156C16.9991 40.4815 16.9972 40.296 16.9932 40.0632C16.9893 39.5798 16.9814 38.8971 16.9735 38.0565C16.9735 37.8454 16.9715 37.6244 16.9695 37.3956C16.9656 37.1647 16.9774 36.924 16.9419 36.6833C16.8768 36.1999 16.6203 35.7027 16.1941 35.3534C15.7719 35.0002 15.18 34.8128 14.5861 34.8897C13.9961 34.9608 13.4141 35.3061 13.0747 35.8428C12.8241 36.2275 12.7215 36.6793 12.7393 37.1233C12.7393 37.5712 12.7393 38.0112 12.7393 38.4354C12.7373 39.2858 12.7353 40.0829 12.7333 40.811L12.6899 40.7676C13.9803 40.7774 15.0537 40.7853 15.8133 40.7893C16.1862 40.7932 16.4822 40.7972 16.6933 40.8011C16.79 40.8031 16.8669 40.805 16.9281 40.805C16.9814 40.805 17.011 40.809 17.011 40.809C17.011 40.809 16.9873 40.8129 16.936 40.8129C16.8788 40.8129 16.8038 40.8149 16.7091 40.8189C16.5 40.8208 16.2079 40.8248 15.839 40.8307C15.0714 40.8366 13.9902 40.8445 12.688 40.8524H12.6446V40.809C12.6446 40.0809 12.6406 39.2838 12.6386 38.4334C12.6386 38.0072 12.6386 37.5692 12.6386 37.1213C12.6209 36.6695 12.7255 36.1841 12.9898 35.7836C13.345 35.2212 13.9567 34.8602 14.5762 34.7852C15.1977 34.7063 15.8192 34.9055 16.2573 35.2765C16.7012 35.6435 16.9656 36.1624 17.0287 36.6675C17.0623 36.9201 17.0485 37.1647 17.0504 37.3975C17.0504 37.6304 17.0485 37.8553 17.0465 38.0684C17.0386 38.9129 17.0327 39.5995 17.0268 40.0849C17.0228 40.3138 17.0208 40.4953 17.0189 40.6275C17.0189 40.6827 17.0169 40.7301 17.0149 40.7656C17.0149 40.7972 17.013 40.811 17.011 40.811L17.009 40.8129Z" fill="#23272E"/>
<path d="M25.8894 40.813H21.5684V36.9833C21.5684 35.7896 22.5352 34.8228 23.7289 34.8228C24.9226 34.8228 25.8894 35.7896 25.8894 36.9833V40.813Z" fill="#3C4350"/>
<path d="M22.6379 40.8131C22.6261 40.8131 22.6182 39.5346 22.6182 37.9581C22.6182 36.3816 22.628 35.1011 22.6379 35.1011C22.6478 35.1011 22.6576 36.3796 22.6576 37.9581C22.6576 39.5366 22.6478 40.8131 22.6379 40.8131Z" fill="#E0E0E0"/>
<path d="M24.8752 40.8131C24.8634 40.8131 24.8555 39.5346 24.8555 37.9581C24.8555 36.3816 24.8653 35.1011 24.8752 35.1011C24.8851 35.1011 24.8949 36.3796 24.8949 37.9581C24.8949 39.5366 24.8851 40.8131 24.8752 40.8131Z" fill="#E0E0E0"/>
<path d="M23.7287 40.8132C23.7169 40.8132 23.709 39.4775 23.709 37.8319C23.709 36.1864 23.7189 34.8506 23.7287 34.8506C23.7386 34.8506 23.7484 36.1864 23.7484 37.8319C23.7484 39.4775 23.7386 40.8132 23.7287 40.8132Z" fill="#23272E"/>
<g opacity="0.1">
<path d="M25.5954 35.9297L21.5684 37.7844V38.0211L25.6901 36.1605L25.5954 35.9297Z" fill="white"/>
</g>
<path d="M25.8889 40.8129C25.8889 40.8129 25.8869 40.7932 25.8849 40.7616C25.8849 40.7222 25.883 40.6748 25.881 40.6156C25.879 40.4815 25.8771 40.296 25.8731 40.0632C25.8692 39.5798 25.8613 38.8971 25.8534 38.0565C25.8534 37.8454 25.8514 37.6244 25.8494 37.3956C25.8455 37.1647 25.8573 36.924 25.8218 36.6833C25.7567 36.1999 25.5002 35.7027 25.074 35.3534C24.6518 35.0002 24.0598 34.8128 23.466 34.8897C22.876 34.9608 22.2939 35.3061 21.9546 35.8428C21.704 36.2275 21.6014 36.6793 21.6191 37.1233C21.6191 37.5712 21.6191 38.0112 21.6191 38.4354C21.6172 39.2858 21.6152 40.0829 21.6132 40.811L21.5698 40.7676C22.8602 40.7774 23.9336 40.7853 24.6932 40.7893C25.0661 40.7932 25.3621 40.7972 25.5732 40.8011C25.6699 40.8031 25.7468 40.805 25.808 40.805C25.8613 40.805 25.8909 40.809 25.8909 40.809C25.8909 40.809 25.8672 40.8129 25.8159 40.8129C25.7587 40.8129 25.6837 40.8149 25.589 40.8189C25.3798 40.8208 25.0878 40.8248 24.7189 40.8307C23.9513 40.8366 22.8701 40.8445 21.5678 40.8524H21.5244V40.809C21.5244 40.0809 21.5205 39.2838 21.5185 38.4334C21.5185 38.0072 21.5185 37.5692 21.5185 37.1213C21.5008 36.6695 21.6053 36.1841 21.8697 35.7836C22.2249 35.2212 22.8365 34.8602 23.4561 34.7852C24.0776 34.7063 24.6991 34.9055 25.1372 35.2765C25.5811 35.6435 25.8455 36.1624 25.9086 36.6675C25.9422 36.9201 25.9284 37.1647 25.9303 37.3975C25.9303 37.6304 25.9284 37.8553 25.9264 38.0684C25.9185 38.9129 25.9126 39.5995 25.9067 40.0849C25.9027 40.3138 25.9007 40.4953 25.8988 40.6275C25.8988 40.6827 25.8968 40.7301 25.8948 40.7656C25.8948 40.7972 25.8928 40.811 25.8909 40.811L25.8889 40.8129Z" fill="#23272E"/>
<path d="M34.7703 40.813H30.4492V36.9833C30.4492 35.7896 31.416 34.8228 32.6097 34.8228C33.8035 34.8228 34.7703 35.7896 34.7703 36.9833V40.813Z" fill="#3C4350"/>
<path d="M31.5188 40.8131C31.5069 40.8131 31.499 39.5346 31.499 37.9581C31.499 36.3816 31.5089 35.1011 31.5188 35.1011C31.5286 35.1011 31.5385 36.3796 31.5385 37.9581C31.5385 39.5366 31.5286 40.8131 31.5188 40.8131Z" fill="#E0E0E0"/>
<path d="M33.757 40.8131C33.7452 40.8131 33.7373 39.5346 33.7373 37.9581C33.7373 36.3816 33.7472 35.1011 33.757 35.1011C33.7669 35.1011 33.7768 36.3796 33.7768 37.9581C33.7768 39.5366 33.7669 40.8131 33.757 40.8131Z" fill="#E0E0E0"/>
<path d="M32.6105 40.8132C32.5987 40.8132 32.5908 39.4775 32.5908 37.8319C32.5908 36.1864 32.6007 34.8506 32.6105 34.8506C32.6204 34.8506 32.6303 36.1864 32.6303 37.8319C32.6303 39.4775 32.6204 40.8132 32.6105 40.8132Z" fill="#23272E"/>
<g opacity="0.1">
<path d="M34.4763 35.9297L30.4492 37.7844V38.0211L34.571 36.1605L34.4763 35.9297Z" fill="white"/>
</g>
<path d="M34.7707 40.8129C34.7707 40.8129 34.7688 40.7932 34.7668 40.7616C34.7668 40.7222 34.7648 40.6748 34.7628 40.6156C34.7609 40.4815 34.7589 40.296 34.7549 40.0632C34.751 39.5798 34.7431 38.8971 34.7352 38.0565C34.7352 37.8454 34.7332 37.6244 34.7313 37.3956C34.7273 37.1647 34.7392 36.924 34.7036 36.6833C34.6385 36.1999 34.382 35.7027 33.9558 35.3534C33.5336 35.0002 32.9417 34.8128 32.3478 34.8897C31.7578 34.9608 31.1758 35.3061 30.8364 35.8428C30.5858 36.2275 30.4832 36.6793 30.501 37.1233C30.501 37.5712 30.501 38.0112 30.501 38.4354C30.499 39.2858 30.497 40.0829 30.4951 40.811L30.4517 40.7676C31.7421 40.7774 32.8154 40.7853 33.575 40.7893C33.948 40.7932 34.2439 40.7972 34.455 40.8011C34.5517 40.8031 34.6287 40.805 34.6898 40.805C34.7431 40.805 34.7727 40.809 34.7727 40.809C34.7727 40.809 34.749 40.8129 34.6977 40.8129C34.6405 40.8129 34.5655 40.8149 34.4708 40.8189C34.2617 40.8208 33.9697 40.8248 33.6007 40.8307C32.8332 40.8366 31.7519 40.8445 30.4497 40.8524H30.4063V40.809C30.4063 40.0809 30.4023 39.2838 30.4004 38.4334C30.4004 38.0072 30.4004 37.5692 30.4004 37.1213C30.3826 36.6695 30.4872 36.1841 30.7516 35.7836C31.1067 35.2212 31.7184 34.8602 32.3379 34.7852C32.9594 34.7063 33.581 34.9055 34.019 35.2765C34.4629 35.6435 34.7273 36.1624 34.7905 36.6675C34.824 36.9201 34.8102 37.1647 34.8122 37.3975C34.8122 37.6304 34.8102 37.8553 34.8082 38.0684C34.8003 38.9129 34.7944 39.5995 34.7885 40.0849C34.7845 40.3138 34.7826 40.4953 34.7806 40.6275C34.7806 40.6827 34.7786 40.7301 34.7766 40.7656C34.7766 40.7972 34.7747 40.811 34.7727 40.811L34.7707 40.8129Z" fill="#23272E"/>
<path d="M43.6511 40.813H39.3301V36.9833C39.3301 35.7896 40.2969 34.8228 41.4906 34.8228C42.6843 34.8228 43.6511 35.7896 43.6511 36.9833V40.813Z" fill="#3C4350"/>
<path d="M40.3996 40.8131C40.3878 40.8131 40.3799 39.5346 40.3799 37.9581C40.3799 36.3816 40.3897 35.1011 40.3996 35.1011C40.4095 35.1011 40.4193 36.3796 40.4193 37.9581C40.4193 39.5366 40.4095 40.8131 40.3996 40.8131Z" fill="#E0E0E0"/>
<path d="M42.635 40.8131C42.6231 40.8131 42.6152 39.5346 42.6152 37.9581C42.6152 36.3816 42.6251 35.1011 42.635 35.1011C42.6448 35.1011 42.6547 36.3796 42.6547 37.9581C42.6547 39.5366 42.6448 40.8131 42.635 40.8131Z" fill="#E0E0E0"/>
<path d="M41.4904 40.8132C41.4786 40.8132 41.4707 39.4775 41.4707 37.8319C41.4707 36.1864 41.4806 34.8506 41.4904 34.8506C41.5003 34.8506 41.5102 36.1864 41.5102 37.8319C41.5102 39.4775 41.5003 40.8132 41.4904 40.8132Z" fill="#23272E"/>
<g opacity="0.1">
<path d="M43.3572 35.9297L39.3281 37.7844V38.0211L43.4499 36.1605L43.3572 35.9297Z" fill="white"/>
</g>
<path d="M43.6506 40.8129C43.6506 40.8129 43.6486 40.7932 43.6467 40.7616C43.6467 40.7222 43.6447 40.6748 43.6427 40.6156C43.6407 40.4815 43.6388 40.296 43.6348 40.0632C43.6309 39.5798 43.623 38.8971 43.6151 38.0565C43.6151 37.8454 43.6131 37.6244 43.6112 37.3956C43.6072 37.1647 43.619 36.924 43.5835 36.6833C43.5184 36.1999 43.2619 35.7027 42.8357 35.3534C42.4135 35.0002 41.8216 34.8128 41.2277 34.8897C40.6377 34.9608 40.0557 35.3061 39.7163 35.8428C39.4657 36.2275 39.3631 36.6793 39.3809 37.1233C39.3809 37.5712 39.3809 38.0112 39.3809 38.4354C39.3789 39.2858 39.3769 40.0829 39.3749 40.811L39.3315 40.7676C40.6219 40.7774 41.6953 40.7853 42.4549 40.7893C42.8278 40.7932 43.1238 40.7972 43.3349 40.8011C43.4316 40.8031 43.5086 40.805 43.5697 40.805C43.623 40.805 43.6526 40.809 43.6526 40.809C43.6526 40.809 43.6289 40.8129 43.5776 40.8129C43.5204 40.8129 43.4454 40.8149 43.3507 40.8189C43.1416 40.8208 42.8495 40.8248 42.4806 40.8307C41.713 40.8366 40.6318 40.8445 39.3296 40.8524H39.2862V40.809C39.2862 40.0809 39.2822 39.2838 39.2802 38.4334C39.2802 38.0072 39.2802 37.5692 39.2802 37.1213C39.2625 36.6695 39.3671 36.1841 39.6314 35.7836C39.9866 35.2212 40.5983 34.8602 41.2178 34.7852C41.8393 34.7063 42.4608 34.9055 42.8989 35.2765C43.3428 35.6435 43.6072 36.1624 43.6703 36.6675C43.7039 36.9201 43.6901 37.1647 43.692 37.3975C43.692 37.6304 43.6901 37.8553 43.6881 38.0684C43.6802 38.9129 43.6743 39.5995 43.6684 40.0849C43.6644 40.3138 43.6625 40.4953 43.6605 40.6275C43.6605 40.6827 43.6585 40.7301 43.6565 40.7656C43.6565 40.7972 43.6546 40.811 43.6526 40.811L43.6506 40.8129Z" fill="#23272E"/>
<path d="M52.531 40.813H48.21V36.9833C48.21 35.7896 49.1768 34.8228 50.3705 34.8228C51.5642 34.8228 52.531 35.7896 52.531 36.9833V40.813Z" fill="#3C4350"/>
<path d="M49.2795 40.8131C49.2677 40.8131 49.2598 39.5346 49.2598 37.9581C49.2598 36.3816 49.2696 35.1011 49.2795 35.1011C49.2894 35.1011 49.2992 36.3796 49.2992 37.9581C49.2992 39.5366 49.2894 40.8131 49.2795 40.8131Z" fill="#E0E0E0"/>
<path d="M51.5168 40.8131C51.505 40.8131 51.4971 39.5346 51.4971 37.9581C51.4971 36.3816 51.5069 35.1011 51.5168 35.1011C51.5267 35.1011 51.5365 36.3796 51.5365 37.9581C51.5365 39.5366 51.5267 40.8131 51.5168 40.8131Z" fill="#E0E0E0"/>
<path d="M50.3703 40.8132C50.3585 40.8132 50.3506 39.4775 50.3506 37.8319C50.3506 36.1864 50.3605 34.8506 50.3703 34.8506C50.3802 34.8506 50.39 36.1864 50.39 37.8319C50.39 39.4775 50.3802 40.8132 50.3703 40.8132Z" fill="#23272E"/>
<g opacity="0.1">
<path d="M52.237 35.9297L48.21 37.7844V38.0211L52.3317 36.1605L52.237 35.9297Z" fill="white"/>
</g>
<path d="M52.5305 40.8129C52.5305 40.8129 52.5285 40.7932 52.5266 40.7616C52.5266 40.7222 52.5246 40.6748 52.5226 40.6156C52.5206 40.4815 52.5187 40.296 52.5147 40.0632C52.5108 39.5798 52.5029 38.8971 52.495 38.0565C52.495 37.8454 52.493 37.6244 52.491 37.3956C52.4871 37.1647 52.4989 36.924 52.4634 36.6833C52.3983 36.1999 52.1418 35.7027 51.7156 35.3534C51.2934 35.0002 50.7014 34.8128 50.1076 34.8897C49.5176 34.9608 48.9355 35.3061 48.5962 35.8428C48.3456 36.2275 48.243 36.6793 48.2607 37.1233C48.2607 37.5712 48.2607 38.0112 48.2607 38.4354C48.2588 39.2858 48.2568 40.0829 48.2548 40.811L48.2114 40.7676C49.5018 40.7774 50.5752 40.7853 51.3348 40.7893C51.7077 40.7932 52.0037 40.7972 52.2148 40.8011C52.3115 40.8031 52.3884 40.805 52.4496 40.805C52.5029 40.805 52.5325 40.809 52.5325 40.809C52.5325 40.809 52.5088 40.8129 52.4575 40.8129C52.4003 40.8129 52.3253 40.8149 52.2306 40.8189C52.0214 40.8208 51.7294 40.8248 51.3605 40.8307C50.5929 40.8366 49.5117 40.8445 48.2094 40.8524H48.166V40.809C48.166 40.0809 48.1621 39.2838 48.1601 38.4334C48.1601 38.0072 48.1601 37.5692 48.1601 37.1213C48.1424 36.6695 48.2469 36.1841 48.5113 35.7836C48.8665 35.2212 49.4781 34.8602 50.0977 34.7852C50.7192 34.7063 51.3407 34.9055 51.7788 35.2765C52.2227 35.6435 52.4871 36.1624 52.5502 36.6675C52.5838 36.9201 52.57 37.1647 52.5719 37.3975C52.5719 37.6304 52.57 37.8553 52.568 38.0684C52.5601 38.9129 52.5522 39.5995 52.5483 40.0849C52.5443 40.3138 52.5423 40.4953 52.5404 40.6275C52.5404 40.6827 52.5384 40.7301 52.5364 40.7656C52.5364 40.7972 52.5344 40.811 52.5325 40.811L52.5305 40.8129Z" fill="#23272E"/>
<path d="M61.4119 40.813H57.0908V36.9833C57.0908 35.7896 58.0576 34.8228 59.2513 34.8228C60.4451 34.8228 61.4119 35.7896 61.4119 36.9833V40.813Z" fill="#3C4350"/>
<path d="M58.1594 40.8131C58.1475 40.8131 58.1396 39.5346 58.1396 37.9581C58.1396 36.3816 58.1495 35.1011 58.1594 35.1011C58.1692 35.1011 58.1791 36.3796 58.1791 37.9581C58.1791 39.5366 58.1692 40.8131 58.1594 40.8131Z" fill="#E0E0E0"/>
<path d="M60.3977 40.8131C60.3858 40.8131 60.3779 39.5346 60.3779 37.9581C60.3779 36.3816 60.3878 35.1011 60.3977 35.1011C60.4075 35.1011 60.4174 36.3796 60.4174 37.9581C60.4174 39.5366 60.4075 40.8131 60.3977 40.8131Z" fill="#E0E0E0"/>
<path d="M59.2512 40.8132C59.2393 40.8132 59.2314 39.4775 59.2314 37.8319C59.2314 36.1864 59.2413 34.8506 59.2512 34.8506C59.261 34.8506 59.2709 36.1864 59.2709 37.8319C59.2709 39.4775 59.261 40.8132 59.2512 40.8132Z" fill="#23272E"/>
<g opacity="0.1">
<path d="M61.1179 35.9297L57.0908 37.7844V38.0211L61.2126 36.1605L61.1179 35.9297Z" fill="white"/>
</g>
<path d="M61.4114 40.8129C61.4114 40.8129 61.4094 40.7932 61.4074 40.7616C61.4074 40.7222 61.4054 40.6748 61.4035 40.6156C61.4015 40.4815 61.3995 40.296 61.3956 40.0632C61.3916 39.5798 61.3837 38.8971 61.3758 38.0565C61.3758 37.8454 61.3739 37.6244 61.3719 37.3956C61.368 37.1647 61.3798 36.924 61.3443 36.6833C61.2792 36.1999 61.0227 35.7027 60.5965 35.3534C60.1742 35.0002 59.5823 34.8128 58.9884 34.8897C58.3985 34.9608 57.8164 35.3061 57.477 35.8428C57.2265 36.2275 57.1239 36.6793 57.1416 37.1233C57.1416 37.5712 57.1416 38.0112 57.1416 38.4354C57.1396 39.2858 57.1377 40.0829 57.1357 40.811L57.0923 40.7676C58.3827 40.7774 59.456 40.7853 60.2157 40.7893C60.5886 40.7932 60.8845 40.7972 61.0957 40.8011C61.1923 40.8031 61.2693 40.805 61.3305 40.805C61.3837 40.805 61.4133 40.809 61.4133 40.809C61.4133 40.809 61.3897 40.8129 61.3384 40.8129C61.2811 40.8129 61.2062 40.8149 61.1114 40.8189C60.9023 40.8208 60.6103 40.8248 60.2413 40.8307C59.4738 40.8366 58.3925 40.8445 57.0903 40.8524H57.0469V40.809C57.0469 40.0809 57.043 39.2838 57.041 38.4334C57.041 38.0072 57.041 37.5692 57.041 37.1213C57.0232 36.6695 57.1278 36.1841 57.3922 35.7836C57.7473 35.2212 58.359 34.8602 58.9785 34.7852C59.6001 34.7063 60.2216 34.9055 60.6596 35.2765C61.1036 35.6435 61.3679 36.1624 61.4311 36.6675C61.4646 36.9201 61.4508 37.1647 61.4528 37.3975C61.4528 37.6304 61.4508 37.8553 61.4488 38.0684C61.441 38.9129 61.435 39.5995 61.4291 40.0849C61.4252 40.3138 61.4232 40.4953 61.4212 40.6275C61.4212 40.6827 61.4193 40.7301 61.4173 40.7656C61.4173 40.7972 61.4153 40.811 61.4133 40.811L61.4114 40.8129Z" fill="#23272E"/>
<path d="M70.3435 40.8272H66.0225V36.9974C66.0225 35.8037 66.9893 34.8369 68.183 34.8369C69.3767 34.8369 70.3435 35.8037 70.3435 36.9974V40.8272Z" fill="#3C4350"/>
<path d="M67.0402 40.8131C67.0284 40.8131 67.0205 39.5346 67.0205 37.9581C67.0205 36.3816 67.0304 35.1011 67.0402 35.1011C67.0501 35.1011 67.06 36.3796 67.06 37.9581C67.06 39.5366 67.0501 40.8131 67.0402 40.8131Z" fill="#E0E0E0"/>
<path d="M69.2775 40.8131C69.2657 40.8131 69.2578 39.5346 69.2578 37.9581C69.2578 36.3816 69.2677 35.1011 69.2775 35.1011C69.2874 35.1011 69.2973 36.3796 69.2973 37.9581C69.2973 39.5366 69.2874 40.8131 69.2775 40.8131Z" fill="#E0E0E0"/>
<path d="M68.1311 40.8132C68.1192 40.8132 68.1113 39.4775 68.1113 37.8319C68.1113 36.1864 68.1212 34.8506 68.1311 34.8506C68.1409 34.8506 68.1508 36.1864 68.1508 37.8319C68.1508 39.4775 68.1409 40.8132 68.1311 40.8132Z" fill="#23272E"/>
<g opacity="0.1">
<path d="M69.9978 35.9297L65.9707 37.7844V38.0211L70.0925 36.1605L69.9978 35.9297Z" fill="white"/>
</g>
<path d="M70.2922 40.8129C70.2922 40.8129 70.2902 40.7932 70.2883 40.7616C70.2883 40.7222 70.2863 40.6748 70.2843 40.6156C70.2824 40.4815 70.2804 40.296 70.2764 40.0632C70.2725 39.5798 70.2646 38.8971 70.2567 38.0565C70.2567 37.8454 70.2547 37.6244 70.2528 37.3956C70.2488 37.1647 70.2606 36.924 70.2251 36.6833C70.16 36.1999 69.9035 35.7027 69.4773 35.3534C69.0551 35.0002 68.4632 34.8128 67.8693 34.8897C67.2793 34.9608 66.6973 35.3061 66.3579 35.8428C66.1073 36.2275 66.0047 36.6793 66.0225 37.1233C66.0225 37.5712 66.0225 38.0112 66.0225 38.4354C66.0205 39.2858 66.0185 40.0829 66.0166 40.811L65.9731 40.7676C67.2635 40.7774 68.3369 40.7853 69.0965 40.7893C69.4694 40.7932 69.7654 40.7972 69.9765 40.8011C70.0732 40.8031 70.1502 40.805 70.2113 40.805C70.2646 40.805 70.2942 40.809 70.2942 40.809C70.2942 40.809 70.2705 40.8129 70.2192 40.8129C70.162 40.8129 70.087 40.8149 69.9923 40.8189C69.7832 40.8208 69.4911 40.8248 69.1222 40.8307C68.3547 40.8366 67.2734 40.8445 65.9712 40.8524H65.9278V40.809C65.9278 40.0809 65.9238 39.2838 65.9218 38.4334C65.9218 38.0072 65.9218 37.5692 65.9218 37.1213C65.9041 36.6695 66.0087 36.1841 66.273 35.7836C66.6282 35.2212 67.2399 34.8602 67.8594 34.7852C68.4809 34.7063 69.1024 34.9055 69.5405 35.2765C69.9844 35.6435 70.2488 36.1624 70.3119 36.6675C70.3455 36.9201 70.3317 37.1647 70.3337 37.3975C70.3337 37.6304 70.3317 37.8553 70.3297 38.0684C70.3218 38.9129 70.3159 39.5995 70.31 40.0849C70.306 40.3138 70.3041 40.4953 70.3021 40.6275C70.3021 40.6827 70.3001 40.7301 70.2981 40.7656C70.2981 40.7972 70.2962 40.811 70.2942 40.811L70.2922 40.8129Z" fill="#23272E"/>
<path d="M73.2896 21.9055C73.2896 21.9173 58.8585 21.9252 41.0633 21.9252C23.2681 21.9252 8.83301 21.9153 8.83301 21.9055C8.83301 21.8956 23.2602 21.8857 41.0633 21.8857C58.8664 21.8857 73.2896 21.8956 73.2896 21.9055Z" fill="#23272E"/>
<path d="M37.1901 7.90479V11.4524H36.3693V9.99822H34.7573V11.4524H33.9365V7.90479H34.7573V9.3037H36.3693V7.90479H37.1901Z" fill="#23272E"/>
<path d="M38.7527 11.2725C38.4568 11.1146 38.2259 10.8956 38.0582 10.6155C37.8905 10.3373 37.8076 10.0235 37.8076 9.67627C37.8076 9.32901 37.8905 9.01529 38.0582 8.73709C38.2259 8.45888 38.4568 8.23987 38.7527 8.08005C39.0487 7.92221 39.3802 7.84131 39.7491 7.84131C40.1181 7.84131 40.4476 7.92023 40.7416 8.08005C41.0356 8.2379 41.2664 8.45691 41.4361 8.73709C41.6058 9.01529 41.6887 9.32901 41.6887 9.67627C41.6887 10.0235 41.6038 10.3373 41.4361 10.6155C41.2664 10.8937 41.0356 11.1127 40.7416 11.2725C40.4476 11.4323 40.1161 11.5112 39.7491 11.5112C39.3821 11.5112 39.0487 11.4323 38.7527 11.2725ZM40.3154 10.6668C40.4851 10.5701 40.6173 10.4359 40.714 10.2643C40.8106 10.0926 40.858 9.89529 40.858 9.67627C40.858 9.45726 40.8106 9.25996 40.714 9.0883C40.6173 8.91664 40.4851 8.78247 40.3154 8.68579C40.1457 8.58911 39.9583 8.54175 39.7472 8.54175C39.536 8.54175 39.3486 8.58911 39.1789 8.68579C39.0092 8.78247 38.877 8.91664 38.7803 9.0883C38.6837 9.25996 38.6363 9.45726 38.6363 9.67627C38.6363 9.89529 38.6837 10.0926 38.7803 10.2643C38.877 10.4359 39.0092 10.5701 39.1789 10.6668C39.3486 10.7634 39.536 10.8108 39.7472 10.8108C39.9583 10.8108 40.1457 10.7634 40.3154 10.6668Z" fill="#23272E"/>
<path d="M42.991 8.57366H41.8564V7.90479H44.9463V8.57366H43.8118V11.4524H42.991V8.57366Z" fill="#23272E"/>
<path d="M48.1342 10.7909V11.4499H45.3877V7.90234H48.0671V8.56136H46.2026V9.33086H47.8501V9.97013H46.2026V10.7909H48.1342Z" fill="#23272E"/>
<path d="M48.7871 7.90479H49.6079V10.7835H51.3857V11.4524H48.7871V7.90479Z" fill="#23272E"/>
<path d="M43.7425 5.46582L43.9911 5.96896L44.5455 6.04985L44.145 6.44249L44.2397 6.99496L43.7425 6.73451L43.2453 6.99496L43.34 6.44249L42.9395 6.04985L43.4939 5.96896L43.7425 5.46582Z" fill="#23272E"/>
<path d="M46.1009 5.46582L46.3495 5.96896L46.9059 6.04985L46.5034 6.44249L46.5981 6.99496L46.1009 6.73451L45.6057 6.99496L45.7004 6.44249L45.2979 6.04985L45.8523 5.96896L46.1009 5.46582Z" fill="#23272E"/>
<path d="M48.4603 5.46582L48.7089 5.96896L49.2633 6.04985L48.8608 6.44249L48.9555 6.99496L48.4603 6.73451L47.9631 6.99496L48.0578 6.44249L47.6553 6.04985L48.2117 5.96896L48.4603 5.46582Z" fill="#23272E"/>
<path d="M50.8177 5.46582L51.0663 5.96896L51.6207 6.04985L51.2202 6.44249L51.3149 6.99496L50.8177 6.73451L50.3205 6.99496L50.4152 6.44249L50.0146 6.04985L50.5691 5.96896L50.8177 5.46582Z" fill="#23272E"/>
<path d="M70.9772 12.5725C70.9772 12.5843 57.9509 12.5922 41.8841 12.5922C25.8173 12.5922 12.7871 12.5823 12.7871 12.5725C12.7871 12.5626 25.8114 12.5527 41.8841 12.5527C57.9569 12.5527 70.9772 12.5626 70.9772 12.5725Z" fill="#23272E"/>
<path d="M72.2482 56.1937C72.2364 56.1937 72.2285 48.7611 72.2285 39.5961C72.2285 30.4312 72.2384 22.9966 72.2482 22.9966C72.2581 22.9966 72.268 30.4272 72.268 39.5961C72.268 48.765 72.2581 56.1937 72.2482 56.1937Z" fill="#23272E"/>
<path d="M10.7033 56.1936C10.6915 56.1936 10.6836 48.7195 10.6836 39.5033C10.6836 30.287 10.6935 22.813 10.7033 22.813C10.7132 22.813 10.7231 30.285 10.7231 39.5033C10.7231 48.7215 10.7132 56.1936 10.7033 56.1936Z" fill="#23272E"/>
<path d="M73.2538 22.8132C73.2538 22.825 59.0535 22.8329 41.5424 22.8329C24.0313 22.8329 9.8291 22.8231 9.8291 22.8132C9.8291 22.8033 24.0254 22.7935 41.5424 22.7935C59.0594 22.7935 73.2538 22.8033 73.2538 22.8132Z" fill="#23272E"/>
<path d="M58.6395 12.9475C58.6395 12.9593 49.7567 12.9672 38.8022 12.9672C27.8477 12.9672 18.9648 12.9573 18.9648 12.9475C18.9648 12.9376 27.8457 12.9277 38.8022 12.9277C49.7587 12.9277 58.6395 12.9376 58.6395 12.9475Z" fill="white"/>
<path d="M64.073 20.6047C64.073 20.6165 57.6151 20.6244 49.6517 20.6244C41.6884 20.6244 35.2285 20.6146 35.2285 20.6047C35.2285 20.5948 41.6844 20.585 49.6517 20.585C57.619 20.585 64.073 20.5948 64.073 20.6047Z" fill="white"/>
</g>
</g>
<defs>
<linearGradient id="paint0_linear_2829_9270" x1="15.082" y1="16.3034" x2="16.477" y2="16.3034" gradientUnits="userSpaceOnUse">
<stop stop-color="#05A0C7"/>
<stop offset="1" stop-color="#09D1C7"/>
</linearGradient>
<linearGradient id="paint1_linear_2829_9270" x1="15.082" y1="36.8611" x2="16.477" y2="36.8611" gradientUnits="userSpaceOnUse">
<stop stop-color="#05A0C7"/>
<stop offset="1" stop-color="#09D1C7"/>
</linearGradient>
<linearGradient id="paint2_linear_2829_9270" x1="8.05651" y1="20.9373" x2="23.7525" y2="-12.1535" gradientUnits="userSpaceOnUse">
<stop stop-color="#05A0C7"/>
<stop offset="1" stop-color="#09D1C7"/>
</linearGradient>
<linearGradient id="paint3_linear_2829_9270" x1="19.4582" y1="12.5647" x2="22.7824" y2="11.6966" gradientUnits="userSpaceOnUse">
<stop stop-color="#05A0C7"/>
<stop offset="1" stop-color="#09D1C7"/>
</linearGradient>
<linearGradient id="paint4_linear_2829_9270" x1="61.2366" y1="12.5647" x2="64.5607" y2="11.6966" gradientUnits="userSpaceOnUse">
<stop stop-color="#05A0C7"/>
<stop offset="1" stop-color="#09D1C7"/>
</linearGradient>
<linearGradient id="paint5_linear_2829_9270" x1="54.7805" y1="12.5647" x2="58.1047" y2="11.6966" gradientUnits="userSpaceOnUse">
<stop stop-color="#05A0C7"/>
<stop offset="1" stop-color="#09D1C7"/>
</linearGradient>
<linearGradient id="paint6_linear_2829_9270" x1="24.1886" y1="12.5686" x2="28.3037" y2="7.92563" gradientUnits="userSpaceOnUse">
<stop stop-color="#05A0C7"/>
<stop offset="1" stop-color="#09D1C7"/>
</linearGradient>
<clipPath id="clip0_2829_9270">
<rect width="82.3228" height="82.3228" fill="white" transform="translate(0.262695 -25.9165)"/>
</clipPath>
<clipPath id="clip1_2829_9270">
<rect width="91.2728" height="82.1926" fill="white" transform="translate(-4.07812 -25.9165)"/>
</clipPath>
</defs>
</svg>
