<svg width="9" height="9" viewBox="0 0 9 9" fill="none" xmlns="http://www.w3.org/2000/svg">
<path d="M7.756 4.20199V7.11759C7.756 7.18203 7.7304 7.24383 7.68484 7.2894C7.63927 7.33496 7.57747 7.36056 7.51303 7.36056H5.81227C5.74783 7.36056 5.68603 7.33496 5.64047 7.2894C5.5949 7.24383 5.5693 7.18203 5.5693 7.11759V5.53831C5.5693 5.50609 5.5565 5.47519 5.53372 5.45241C5.51094 5.42963 5.48004 5.41683 5.44782 5.41683H4.23299C4.20077 5.41683 4.16987 5.42963 4.14709 5.45241C4.1243 5.47519 4.1115 5.50609 4.1115 5.53831V7.11759C4.1115 7.18203 4.08591 7.24383 4.04034 7.2894C3.99478 7.33496 3.93298 7.36056 3.86854 7.36056H2.16777C2.10333 7.36056 2.04153 7.33496 1.99597 7.2894C1.9504 7.24383 1.9248 7.18203 1.9248 7.11759V4.20199C1.92486 4.07314 1.9761 3.94958 2.06724 3.8585L4.49691 1.42884C4.58803 1.33777 4.71158 1.28662 4.8404 1.28662C4.96923 1.28662 5.09278 1.33777 5.1839 1.42884L7.61356 3.8585C7.70471 3.94958 7.75594 4.07314 7.756 4.20199Z" fill="white"/>
</svg>
