<svg width="9" height="9" viewBox="0 0 9 9" fill="none" xmlns="http://www.w3.org/2000/svg">
<path d="M7.09194 1.77197H1.74668C1.6178 1.77197 1.4942 1.82317 1.40307 1.9143C1.31194 2.00543 1.26074 2.12903 1.26074 2.25791V6.6313C1.26074 6.76018 1.31194 6.88378 1.40307 6.97491C1.4942 7.06604 1.6178 7.11724 1.74668 7.11724H7.09194C7.22082 7.11724 7.34442 7.06604 7.43555 6.97491C7.52668 6.88378 7.57787 6.76018 7.57787 6.6313V2.25791C7.57787 2.12903 7.52668 2.00543 7.43555 1.9143C7.34442 1.82317 7.22082 1.77197 7.09194 1.77197V1.77197ZM4.33123 5.89329C4.30032 5.90154 4.26809 5.9036 4.23638 5.89935C4.20467 5.89511 4.17411 5.88464 4.14646 5.86856C4.1188 5.85247 4.0946 5.83109 4.07523 5.80562C4.05586 5.78016 4.04171 5.75112 4.0336 5.72018C3.99242 5.56472 3.90099 5.42725 3.77355 5.32917C3.64611 5.23109 3.48981 5.1779 3.32899 5.1779C3.16818 5.1779 3.01188 5.23109 2.88444 5.32917C2.757 5.42725 2.66557 5.56472 2.62439 5.72018C2.61039 5.77235 2.5796 5.81846 2.53679 5.85139C2.49398 5.88432 2.44151 5.90225 2.3875 5.9024L2.32676 5.89329C2.29593 5.88552 2.26696 5.87169 2.24152 5.85262C2.21608 5.83355 2.19469 5.80962 2.17858 5.7822C2.16247 5.75479 2.15197 5.72446 2.14769 5.69295C2.14341 5.66145 2.14543 5.62941 2.15364 5.5987C2.22761 5.3115 2.40357 5.06104 2.64869 4.89409C2.51083 4.75896 2.41633 4.58583 2.37725 4.39679C2.33817 4.20774 2.35628 4.01134 2.42926 3.83262C2.50224 3.6539 2.62679 3.50097 2.78704 3.39332C2.94728 3.28567 3.13595 3.22817 3.32899 3.22817C3.52204 3.22817 3.71071 3.28567 3.87095 3.39332C4.0312 3.50097 4.15575 3.6539 4.22873 3.83262C4.30171 4.01134 4.31982 4.20774 4.28074 4.39679C4.24166 4.58583 4.14716 4.75896 4.0093 4.89409C4.25442 5.06104 4.43038 5.3115 4.50435 5.5987C4.51256 5.62941 4.51458 5.66145 4.5103 5.69295C4.50602 5.72446 4.49552 5.75479 4.47941 5.7822C4.4633 5.80962 4.44191 5.83355 4.41647 5.85262C4.39103 5.87169 4.36206 5.88552 4.33123 5.89329V5.89329ZM6.36304 5.1735H5.14821C5.08377 5.1735 5.02197 5.14791 4.9764 5.10234C4.93084 5.05678 4.90524 4.99498 4.90524 4.93054C4.90524 4.8661 4.93084 4.8043 4.9764 4.75873C5.02197 4.71317 5.08377 4.68757 5.14821 4.68757H6.36304C6.42748 4.68757 6.48928 4.71317 6.53484 4.75873C6.58041 4.8043 6.60601 4.8661 6.60601 4.93054C6.60601 4.99498 6.58041 5.05678 6.53484 5.10234C6.48928 5.14791 6.42748 5.1735 6.36304 5.1735ZM6.36304 4.20164H5.14821C5.08377 4.20164 5.02197 4.17604 4.9764 4.13047C4.93084 4.08491 4.90524 4.02311 4.90524 3.95867C4.90524 3.89423 4.93084 3.83243 4.9764 3.78687C5.02197 3.7413 5.08377 3.7157 5.14821 3.7157H6.36304C6.42748 3.7157 6.48928 3.7413 6.53484 3.78687C6.58041 3.83243 6.60601 3.89423 6.60601 3.95867C6.60601 4.02311 6.58041 4.08491 6.53484 4.13047C6.48928 4.17604 6.42748 4.20164 6.36304 4.20164Z" fill="white"/>
<path d="M3.32871 4.68769C3.59708 4.68769 3.81464 4.47013 3.81464 4.20175C3.81464 3.93338 3.59708 3.71582 3.32871 3.71582C3.06033 3.71582 2.84277 3.93338 2.84277 4.20175C2.84277 4.47013 3.06033 4.68769 3.32871 4.68769Z" fill="white"/>
</svg>
