<svg width="136" height="56" viewBox="0 0 136 56" fill="none" xmlns="http://www.w3.org/2000/svg">
<g filter="url(#filter0_d_384_25499)">
<rect x="8" y="8" width="120" height="40" rx="6" fill="white" fill-opacity="0.47" shape-rendering="crispEdges"/>
<rect x="8.5" y="8.5" width="119" height="39" rx="5.5" stroke="white" shape-rendering="crispEdges"/>
<path d="M25.8051 27.4617L16.0898 38.0059C16.0908 38.0078 16.0908 38.0106 16.0917 38.0125C16.3901 39.1574 17.412 40 18.6256 40C19.1111 40 19.5664 39.8656 19.957 39.6305L19.988 39.6118L30.9232 33.1593L25.8051 27.4617Z" fill="#E7E7E7"/>
<path d="M35.6332 25.6662L35.624 25.6597L30.9029 22.8612L25.584 27.7013L30.922 33.1582L35.6177 30.3878C36.4407 29.9324 37.0001 29.045 37.0001 28.0223C37.0001 27.0052 36.4489 26.1225 35.6332 25.6662Z" fill="#BFBFBF"/>
<path d="M16.0894 17.9933C16.031 18.2135 16 18.4449 16 18.6838V37.3163C16 37.5552 16.031 37.7866 16.0903 38.0059L26.1386 27.7313L16.0894 17.9933Z" fill="white"/>
<path d="M25.8762 27.9999L30.904 22.8594L19.9815 16.3835C19.5846 16.14 19.1211 16 18.6256 16C17.412 16 16.3882 16.8445 16.0898 17.9904C16.0898 17.9913 16.0889 17.9922 16.0889 17.9932L25.8762 27.9999Z" fill="#E7E7E7"/>
<path d="M51.61 19.71C51.61 20.71 51.3133 21.5067 50.72 22.1C50.0533 22.8067 49.1767 23.16 48.09 23.16C47.05 23.16 46.17 22.8 45.45 22.08C44.73 21.36 44.37 20.4733 44.37 19.42C44.37 18.3667 44.73 17.48 45.45 16.76C46.17 16.04 47.05 15.68 48.09 15.68C48.6167 15.68 49.1133 15.7733 49.58 15.96C50.0467 16.1467 50.43 16.41 50.73 16.75L50.07 17.41C49.85 17.1433 49.5633 16.9367 49.21 16.79C48.8633 16.6367 48.49 16.56 48.09 16.56C47.31 16.56 46.65 16.83 46.11 17.37C45.5767 17.9167 45.31 18.6 45.31 19.42C45.31 20.24 45.5767 20.9233 46.11 21.47C46.65 22.01 47.31 22.28 48.09 22.28C48.8033 22.28 49.3967 22.08 49.87 21.68C50.3433 21.28 50.6167 20.73 50.69 20.03H48.09V19.17H51.56C51.5933 19.3567 51.61 19.5367 51.61 19.71ZM56.9078 15.84V16.72H53.6478V18.99H56.5878V19.85H53.6478V22.12H56.9078V23H52.7278V15.84H56.9078ZM60.5877 16.72V23H59.6677V16.72H57.6677V15.84H62.5877V16.72H60.5877ZM66.6654 23H65.7454V15.84H66.6654V23ZM70.5487 16.72V23H69.6287V16.72H67.6287V15.84H72.5487V16.72H70.5487ZM82.521 19.42C82.521 20.48 82.1677 21.3667 81.461 22.08C80.7477 22.8 79.8743 23.16 78.841 23.16C77.801 23.16 76.9277 22.8 76.221 22.08C75.5143 21.3667 75.161 20.48 75.161 19.42C75.161 18.36 75.5143 17.4733 76.221 16.76C76.9277 16.04 77.801 15.68 78.841 15.68C79.881 15.68 80.7543 16.0433 81.461 16.77C82.1677 17.4833 82.521 18.3667 82.521 19.42ZM76.101 19.42C76.101 20.2467 76.361 20.93 76.881 21.47C77.4077 22.01 78.061 22.28 78.841 22.28C79.621 22.28 80.271 22.01 80.791 21.47C81.3177 20.9367 81.581 20.2533 81.581 19.42C81.581 18.5867 81.3177 17.9033 80.791 17.37C80.271 16.83 79.621 16.56 78.841 16.56C78.061 16.56 77.4077 16.83 76.881 17.37C76.361 17.91 76.101 18.5933 76.101 19.42ZM84.5267 23H83.6067V15.84H84.7267L88.2067 21.41H88.2467L88.2067 20.03V15.84H89.1267V23H88.1667L84.5267 17.16H84.4867L84.5267 18.54V23Z" fill="white"/>
<path d="M101.518 39.4097H103.147V28.3981H101.518V39.4097ZM116.189 32.3646L114.322 37.1388H114.266L112.328 32.3646H110.573L113.479 39.0371L111.823 42.749H113.521L118 32.3646H116.189ZM106.952 38.1588C106.418 38.1588 105.674 37.8902 105.674 37.2234C105.674 36.3742 106.6 36.0483 107.401 36.0483C108.116 36.0483 108.454 36.2042 108.889 36.4165C108.762 37.4365 107.892 38.1588 106.952 38.1588ZM107.148 32.1241C105.969 32.1241 104.747 32.6482 104.242 33.8101L105.688 34.4188C105.997 33.8101 106.572 33.611 107.176 33.611C108.019 33.611 108.875 34.121 108.889 35.0283V35.1411C108.594 34.971 107.963 34.7165 107.19 34.7165C105.632 34.7165 104.045 35.5806 104.045 37.1952C104.045 38.6689 105.323 39.6184 106.755 39.6184C107.85 39.6184 108.454 39.1225 108.833 38.5411H108.889V39.3912H110.461V35.1692C110.461 33.2146 109.015 32.1241 107.148 32.1241ZM97.0821 33.7053H94.7655V29.9308H97.0821C98.2998 29.9308 98.9911 30.9482 98.9911 31.8176C98.9911 32.6711 98.2998 33.7053 97.0821 33.7053ZM97.0402 28.3981H93.1375V39.4097H94.7655V35.2379H97.0402C98.8453 35.2379 100.62 33.9184 100.62 31.8176C100.62 29.7168 98.8453 28.3981 97.0402 28.3981ZM75.7583 38.1606C74.6332 38.1606 73.6913 37.2102 73.6913 35.9047C73.6913 34.5852 74.6332 33.6198 75.7583 33.6198C76.8695 33.6198 77.7406 34.5852 77.7406 35.9047C77.7406 37.2102 76.8695 38.1606 75.7583 38.1606ZM77.6289 32.9812H77.5722C77.2064 32.5417 76.5038 32.1444 75.6178 32.1444C73.7611 32.1444 72.0599 33.7898 72.0599 35.9047C72.0599 38.0047 73.7611 39.6369 75.6178 39.6369C76.5038 39.6369 77.2064 39.2396 77.5722 38.7851H77.6289V39.3251C77.6289 40.7582 76.8695 41.5246 75.6457 41.5246C74.6471 41.5246 74.0282 40.8005 73.7751 40.1901L72.3549 40.7864C72.7626 41.78 73.8458 43 75.6457 43C77.5582 43 79.1757 41.8646 79.1757 39.0978V32.3708H77.6289V32.9812ZM80.3008 39.4097H81.9323V28.3973H80.3008V39.4097ZM84.3362 35.777C84.2943 34.3298 85.4474 33.5916 86.2766 33.5916C86.9243 33.5916 87.4725 33.9176 87.6549 34.3862L84.3362 35.777ZM89.3989 34.528C89.0899 33.6912 88.1472 32.1444 86.2208 32.1444C84.3083 32.1444 82.7196 33.6621 82.7196 35.8907C82.7196 37.9906 84.2943 39.6369 86.4032 39.6369C88.1053 39.6369 89.0899 38.5869 89.4976 37.9765L88.2319 37.1247C87.8103 37.7493 87.2333 38.1606 86.4032 38.1606C85.5739 38.1606 84.983 37.7774 84.6033 37.0261L89.5674 34.9534L89.3989 34.528ZM49.8501 33.2939V34.883H53.6184C53.5058 35.777 53.2107 36.4297 52.7612 36.8834C52.2121 37.4374 51.3541 38.0479 49.8501 38.0479C47.5291 38.0479 45.7152 36.1602 45.7152 33.8189C45.7152 31.4767 47.5291 29.5899 49.8501 29.5899C51.1018 29.5899 52.0157 30.0867 52.6905 30.7254L53.8017 29.604C52.8589 28.6959 51.6081 28 49.8501 28C46.6719 28 44 30.6117 44 33.8189C44 37.0261 46.6719 39.6369 49.8501 39.6369C51.5653 39.6369 52.8589 39.0688 53.8715 38.0047C54.9129 36.9547 55.2358 35.4793 55.2358 34.2866C55.2358 33.9176 55.2079 33.5775 55.1512 33.2939H49.8501ZM59.5208 38.1606C58.3957 38.1606 57.425 37.2243 57.425 35.8907C57.425 34.5421 58.3957 33.6198 59.5208 33.6198C60.6451 33.6198 61.6158 34.5421 61.6158 35.8907C61.6158 37.2243 60.6451 38.1606 59.5208 38.1606ZM59.5208 32.1444C57.4669 32.1444 55.7936 33.7194 55.7936 35.8907C55.7936 38.0479 57.4669 39.6369 59.5208 39.6369C61.5739 39.6369 63.2472 38.0479 63.2472 35.8907C63.2472 33.7194 61.5739 32.1444 59.5208 32.1444ZM67.65 38.1606C66.5249 38.1606 65.5542 37.2243 65.5542 35.8907C65.5542 34.5421 66.5249 33.6198 67.65 33.6198C68.7752 33.6198 69.745 34.5421 69.745 35.8907C69.745 37.2243 68.7752 38.1606 67.65 38.1606ZM67.65 32.1444C65.597 32.1444 63.9237 33.7194 63.9237 35.8907C63.9237 38.0479 65.597 39.6369 67.65 39.6369C69.7031 39.6369 71.3764 38.0479 71.3764 35.8907C71.3764 33.7194 69.7031 32.1444 67.65 32.1444Z" fill="white"/>
</g>
<defs>
<filter id="filter0_d_384_25499" x="0.9" y="0.9" width="134.2" height="54.2" filterUnits="userSpaceOnUse" color-interpolation-filters="sRGB">
<feFlood flood-opacity="0" result="BackgroundImageFix"/>
<feColorMatrix in="SourceAlpha" type="matrix" values="0 0 0 0 0 0 0 0 0 0 0 0 0 0 0 0 0 0 127 0" result="hardAlpha"/>
<feOffset/>
<feGaussianBlur stdDeviation="3.55"/>
<feComposite in2="hardAlpha" operator="out"/>
<feColorMatrix type="matrix" values="0 0 0 0 1 0 0 0 0 1 0 0 0 0 1 0 0 0 1 0"/>
<feBlend mode="normal" in2="BackgroundImageFix" result="effect1_dropShadow_384_25499"/>
<feBlend mode="normal" in="SourceGraphic" in2="effect1_dropShadow_384_25499" result="shape"/>
</filter>
</defs>
</svg>
