<svg width="386" height="303" viewBox="0 0 386 303" fill="none" xmlns="http://www.w3.org/2000/svg">
<g clip-path="url(#clip0_384_25803)">
<rect width="386" height="386" transform="translate(0 -41.5254)" fill="url(#paint0_linear_384_25803)"/>
<g filter="url(#filter0_d_384_25803)">
<rect x="-19.7441" y="-61.2695" width="426.476" height="426.476" rx="213.238" fill="white" fill-opacity="0.09" shape-rendering="crispEdges"/>
<rect x="-18.9144" y="-60.4398" width="424.816" height="424.816" rx="212.408" stroke="url(#paint1_linear_384_25803)" stroke-opacity="0.23" stroke-width="1.65944" shape-rendering="crispEdges"/>
</g>
<g filter="url(#filter1_d_384_25803)">
<rect x="16.7637" y="-24.7617" width="353.46" height="353.46" rx="176.73" fill="white" fill-opacity="0.09" shape-rendering="crispEdges"/>
<rect x="17.4513" y="-24.0741" width="352.085" height="352.085" rx="176.043" stroke="url(#paint2_linear_384_25803)" stroke-opacity="0.23" stroke-width="1.37533" shape-rendering="crispEdges"/>
</g>
<g filter="url(#filter2_d_384_25803)">
<rect x="54.9307" y="13.4062" width="277.126" height="277.126" rx="138.563" fill="white" fill-opacity="0.09" shape-rendering="crispEdges"/>
<rect x="55.4698" y="13.9454" width="276.048" height="276.048" rx="138.024" stroke="url(#paint3_linear_384_25803)" stroke-opacity="0.23" stroke-width="1.07831" shape-rendering="crispEdges"/>
<g clip-path="url(#clip1_384_25803)">
<path d="M195.798 69.5371V73.2029" stroke="#083044" stroke-width="0.80362" stroke-linecap="round" stroke-linejoin="round"/>
<path d="M195.798 77.1611V83.0875" stroke="#083044" stroke-width="0.80362" stroke-linecap="round" stroke-linejoin="round" stroke-dasharray="5.2 5.2"/>
<path d="M195.798 85.0674V88.7332" stroke="#083044" stroke-width="0.80362" stroke-linecap="round" stroke-linejoin="round"/>
<path d="M253.768 131.568H250.134" stroke="#083044" stroke-width="0.80362" stroke-linecap="round" stroke-linejoin="round"/>
<path d="M246.215 131.568H240.334" stroke="#083044" stroke-width="0.80362" stroke-linecap="round" stroke-linejoin="round" stroke-dasharray="5.2 5.2"/>
<path d="M238.377 131.568H234.743" stroke="#083044" stroke-width="0.80362" stroke-linecap="round" stroke-linejoin="round"/>
<path d="M156.857 131.568H153.223" stroke="#083044" stroke-width="0.80362" stroke-linecap="round" stroke-linejoin="round"/>
<path d="M149.304 131.568H143.423" stroke="#083044" stroke-width="0.80362" stroke-linecap="round" stroke-linejoin="round" stroke-dasharray="5.2 5.2"/>
<path d="M141.466 131.568H137.832" stroke="#083044" stroke-width="0.80362" stroke-linecap="round" stroke-linejoin="round"/>
<path d="M295.942 143.994C295.942 143.346 296.282 142.979 296.899 142.979C297.517 142.979 297.856 143.352 297.856 143.994V146.095C297.856 146.743 297.517 147.11 296.899 147.11C296.282 147.11 295.942 146.737 295.942 146.095V143.994ZM296.572 146.138C296.572 146.425 296.699 146.535 296.899 146.535C297.099 146.535 297.226 146.425 297.226 146.138V143.957C297.226 143.67 297.099 143.56 296.899 143.56C296.699 143.56 296.572 143.67 296.572 143.957V146.138Z" fill="#083044"/>
<path d="M296.385 149.316C296.869 149.316 296.978 149.077 297.075 148.809H297.499V152.853H296.869V149.768H296.385V149.316Z" fill="#083044"/>
<path d="M295.942 155.553C295.942 154.906 296.282 154.539 296.899 154.539C297.517 154.539 297.856 154.912 297.856 155.553V157.655C297.856 158.303 297.517 158.669 296.899 158.669C296.282 158.669 295.942 158.296 295.942 157.655V155.553ZM296.572 157.698C296.572 157.985 296.699 158.095 296.899 158.095C297.099 158.095 297.226 157.985 297.226 157.698V155.517C297.226 155.229 297.099 155.119 296.899 155.119C296.699 155.119 296.572 155.229 296.572 155.517V157.698Z" fill="#083044"/>
<path d="M296.385 160.869C296.869 160.869 296.978 160.631 297.075 160.362H297.499V164.407H296.869V161.322H296.385V160.869Z" fill="#083044"/>
<path d="M295.942 167.113C295.942 166.465 296.282 166.099 296.899 166.099C297.517 166.099 297.856 166.471 297.856 167.113V169.215C297.856 169.862 297.517 170.229 296.899 170.229C296.282 170.229 295.942 169.856 295.942 169.215V167.113ZM296.572 169.257C296.572 169.544 296.699 169.654 296.899 169.654C297.099 169.654 297.226 169.544 297.226 169.257V167.076C297.226 166.789 297.099 166.679 296.899 166.679C296.699 166.679 296.572 166.789 296.572 167.076V169.257Z" fill="#083044"/>
<path d="M296.385 172.428C296.869 172.428 296.978 172.19 297.075 171.921H297.499V175.965H296.869V172.88H296.385V172.428Z" fill="#083044"/>
<path d="M295.942 178.672C295.942 178.025 296.282 177.658 296.899 177.658C297.517 177.658 297.856 178.025 297.856 178.672V180.774C297.856 181.422 297.517 181.788 296.899 181.788C296.282 181.788 295.942 181.416 295.942 180.774V178.672ZM296.572 180.817C296.572 181.104 296.699 181.214 296.899 181.214C297.099 181.214 297.226 181.104 297.226 180.817V178.636C297.226 178.349 297.099 178.239 296.899 178.239C296.699 178.239 296.572 178.349 296.572 178.636V180.817Z" fill="#083044"/>
<path d="M295.942 184.453C295.942 183.805 296.282 183.438 296.899 183.438C297.517 183.438 297.856 183.811 297.856 184.453V186.554C297.856 187.202 297.517 187.569 296.899 187.569C296.282 187.569 295.942 187.202 295.942 186.554V184.453ZM296.572 186.597C296.572 186.884 296.699 186.994 296.899 186.994C297.099 186.994 297.226 186.884 297.226 186.597V184.416C297.226 184.129 297.099 184.019 296.899 184.019C296.699 184.019 296.572 184.129 296.572 184.416V186.597Z" fill="#083044"/>
<path d="M295.942 190.232C295.942 189.584 296.282 189.218 296.899 189.218C297.517 189.218 297.856 189.584 297.856 190.232V192.334C297.856 192.981 297.517 193.348 296.899 193.348C296.282 193.348 295.942 192.975 295.942 192.334V190.232ZM296.572 192.37C296.572 192.657 296.699 192.767 296.899 192.767C297.099 192.767 297.226 192.657 297.226 192.37V190.189C297.226 189.902 297.099 189.792 296.899 189.792C296.699 189.792 296.572 189.902 296.572 190.189V192.37Z" fill="#083044"/>
<path d="M296.385 201.326C296.869 201.326 296.978 201.088 297.075 200.819H297.499V204.864H296.869V201.779H296.385V201.326Z" fill="#083044"/>
<path d="M296.385 207.106C296.869 207.106 296.978 206.867 297.075 206.599H297.499V210.643H296.869V207.558H296.385V207.106Z" fill="#083044"/>
<path d="M296.385 212.886C296.869 212.886 296.978 212.648 297.075 212.379H297.499V216.423H296.869V213.338H296.385V212.886Z" fill="#083044"/>
<path d="M295.942 219.125C295.942 218.477 296.282 218.11 296.899 218.11C297.517 218.11 297.856 218.483 297.856 219.125V221.226C297.856 221.874 297.517 222.24 296.899 222.24C296.282 222.24 295.942 221.868 295.942 221.226V219.125ZM296.572 221.269C296.572 221.556 296.699 221.666 296.899 221.666C297.099 221.666 297.226 221.556 297.226 221.269V219.088C297.226 218.801 297.099 218.691 296.899 218.691C296.699 218.691 296.572 218.801 296.572 219.088V221.269Z" fill="#083044"/>
<path d="M295.942 224.904C295.942 224.256 296.282 223.89 296.899 223.89C297.517 223.89 297.856 224.256 297.856 224.904V227.006C297.856 227.653 297.517 228.02 296.899 228.02C296.282 228.02 295.942 227.647 295.942 227.006V224.904ZM296.572 227.048C296.572 227.335 296.699 227.445 296.899 227.445C297.099 227.445 297.226 227.335 297.226 227.048V224.867C297.226 224.58 297.099 224.47 296.899 224.47C296.699 224.47 296.572 224.58 296.572 224.867V227.048Z" fill="#083044"/>
<path d="M296.385 230.226C296.869 230.226 296.978 229.988 297.075 229.719H297.499V233.763H296.869V230.678H296.385V230.226Z" fill="#083044"/>
<path d="M299.794 137.756C300.279 137.756 300.388 137.518 300.484 137.249H300.908V141.294H300.279V138.208H299.794V137.756Z" fill="#083044"/>
<path d="M299.794 143.536C300.279 143.536 300.388 143.298 300.484 143.029H300.908V147.074H300.279V143.989H299.794V143.536Z" fill="#083044"/>
<path d="M299.353 155.553C299.353 154.906 299.692 154.539 300.31 154.539C300.927 154.539 301.267 154.912 301.267 155.553V157.655C301.267 158.303 300.927 158.669 300.31 158.669C299.692 158.669 299.353 158.296 299.353 157.655V155.553ZM299.982 157.698C299.982 157.985 300.11 158.095 300.31 158.095C300.509 158.095 300.637 157.985 300.637 157.698V155.517C300.637 155.229 300.509 155.119 300.31 155.119C300.11 155.119 299.982 155.229 299.982 155.517V157.698Z" fill="#083044"/>
<path d="M299.794 172.428C300.279 172.428 300.388 172.19 300.484 171.921H300.908V175.965H300.279V172.88H299.794V172.428Z" fill="#083044"/>
<path d="M299.353 178.672C299.353 178.025 299.692 177.658 300.31 177.658C300.927 177.658 301.267 178.025 301.267 178.672V180.774C301.267 181.422 300.927 181.788 300.31 181.788C299.692 181.788 299.353 181.416 299.353 180.774V178.672ZM299.982 180.817C299.982 181.104 300.11 181.214 300.31 181.214C300.509 181.214 300.637 181.104 300.637 180.817V178.636C300.637 178.349 300.509 178.239 300.31 178.239C300.11 178.239 299.982 178.349 299.982 178.636V180.817Z" fill="#083044"/>
<path d="M299.794 183.988C300.279 183.988 300.388 183.749 300.484 183.48H300.908V187.525H300.279V184.44H299.794V183.988Z" fill="#083044"/>
<path d="M299.794 189.767C300.279 189.767 300.388 189.529 300.484 189.26H300.908V193.304H300.279V190.219H299.794V189.767Z" fill="#083044"/>
<path d="M299.794 195.547C300.279 195.547 300.388 195.309 300.484 195.04H300.908V199.085H300.279V195.999H299.794V195.547Z" fill="#083044"/>
<path d="M299.353 201.792C299.353 201.144 299.692 200.777 300.31 200.777C300.927 200.777 301.267 201.144 301.267 201.792V203.893C301.267 204.541 300.927 204.907 300.31 204.907C299.692 204.907 299.353 204.535 299.353 203.893V201.792ZM299.982 203.93C299.982 204.217 300.11 204.327 300.31 204.327C300.509 204.327 300.637 204.217 300.637 203.93V201.749C300.637 201.462 300.509 201.352 300.31 201.352C300.11 201.352 299.982 201.462 299.982 201.749V203.93Z" fill="#083044"/>
<path d="M299.353 207.565C299.353 206.917 299.692 206.551 300.31 206.551C300.927 206.551 301.267 206.923 301.267 207.565V209.667C301.267 210.314 300.927 210.681 300.31 210.681C299.692 210.681 299.353 210.314 299.353 209.667V207.565ZM299.982 209.709C299.982 209.997 300.11 210.107 300.31 210.107C300.509 210.107 300.637 209.997 300.637 209.709V207.528C300.637 207.241 300.509 207.131 300.31 207.131C300.11 207.131 299.982 207.241 299.982 207.528V209.709Z" fill="#083044"/>
<path d="M292.98 172.428C293.465 172.428 293.574 172.19 293.671 171.921H294.095V175.965H293.465V172.88H292.98V172.428Z" fill="#083044"/>
<path d="M292.538 178.672C292.538 178.025 292.877 177.658 293.495 177.658C294.113 177.658 294.452 178.025 294.452 178.672V180.774C294.452 181.422 294.113 181.788 293.495 181.788C292.877 181.788 292.538 181.416 292.538 180.774V178.672ZM293.168 180.817C293.168 181.104 293.295 181.214 293.495 181.214C293.695 181.214 293.822 181.104 293.822 180.817V178.636C293.822 178.349 293.695 178.239 293.495 178.239C293.295 178.239 293.168 178.349 293.168 178.636V180.817Z" fill="#083044"/>
<path d="M292.538 184.453C292.538 183.805 292.877 183.438 293.495 183.438C294.113 183.438 294.452 183.811 294.452 184.453V186.554C294.452 187.202 294.113 187.569 293.495 187.569C292.877 187.569 292.538 187.202 292.538 186.554V184.453ZM293.168 186.597C293.168 186.884 293.295 186.994 293.495 186.994C293.695 186.994 293.822 186.884 293.822 186.597V184.416C293.822 184.129 293.695 184.019 293.495 184.019C293.295 184.019 293.168 184.129 293.168 184.416V186.597Z" fill="#083044"/>
<path d="M292.98 189.767C293.465 189.767 293.574 189.529 293.671 189.26H294.095V193.304H293.465V190.219H292.98V189.767Z" fill="#083044"/>
<path d="M292.98 201.326C293.465 201.326 293.574 201.088 293.671 200.819H294.095V204.864H293.465V201.779H292.98V201.326Z" fill="#083044"/>
<path d="M292.98 207.107C293.465 207.107 293.574 206.868 293.671 206.6H294.095V210.644H293.465V207.559H292.98V207.107Z" fill="#083044"/>
<path d="M292.98 212.887C293.465 212.887 293.574 212.649 293.671 212.38H294.095V216.424H293.465V213.339H292.98V212.887Z" fill="#083044"/>
<path d="M289.135 155.554C289.135 154.907 289.474 154.54 290.092 154.54C290.71 154.54 291.049 154.913 291.049 155.554V157.656C291.049 158.304 290.71 158.67 290.092 158.67C289.474 158.67 289.135 158.297 289.135 157.656V155.554ZM289.765 157.699C289.765 157.986 289.892 158.096 290.092 158.096C290.292 158.096 290.419 157.986 290.419 157.699V155.518C290.419 155.23 290.292 155.12 290.092 155.12C289.892 155.12 289.765 155.23 289.765 155.518V157.699Z" fill="#083044"/>
<path d="M289.135 167.114C289.135 166.466 289.474 166.1 290.092 166.1C290.71 166.1 291.049 166.472 291.049 167.114V169.216C291.049 169.863 290.71 170.23 290.092 170.23C289.474 170.23 289.135 169.857 289.135 169.216V167.114ZM289.765 169.258C289.765 169.545 289.892 169.655 290.092 169.655C290.292 169.655 290.419 169.545 290.419 169.258V167.077C290.419 166.79 290.292 166.68 290.092 166.68C289.892 166.68 289.765 166.79 289.765 167.077V169.258Z" fill="#083044"/>
<path d="M289.577 183.989C290.062 183.989 290.171 183.75 290.268 183.481H290.692V187.526H290.062V184.441H289.577V183.989Z" fill="#083044"/>
<path d="M289.577 189.768C290.062 189.768 290.171 189.53 290.268 189.261H290.692V193.305H290.062V190.22H289.577V189.768Z" fill="#083044"/>
<path d="M289.577 207.107C290.062 207.107 290.171 206.868 290.268 206.6H290.692V210.644H290.062V207.559H289.577V207.107Z" fill="#083044"/>
<path d="M289.135 213.344C289.135 212.697 289.474 212.33 290.092 212.33C290.71 212.33 291.049 212.697 291.049 213.344V215.446C291.049 216.094 290.71 216.46 290.092 216.46C289.474 216.46 289.135 216.087 289.135 215.446V213.344ZM289.765 215.489C289.765 215.776 289.892 215.886 290.092 215.886C290.292 215.886 290.419 215.776 290.419 215.489V213.308C290.419 213.02 290.292 212.91 290.092 212.91C289.892 212.91 289.765 213.02 289.765 213.308V215.489Z" fill="#083044"/>
<path d="M289.577 218.666C290.062 218.666 290.171 218.428 290.268 218.159H290.692V222.204H290.062V219.118H289.577V218.666Z" fill="#083044"/>
<path d="M148.094 161.725C148.094 161.078 148.433 160.711 149.051 160.711C149.669 160.711 150.008 161.084 150.008 161.725V163.827C150.008 164.474 149.669 164.841 149.051 164.841C148.433 164.841 148.094 164.474 148.094 163.827V161.725ZM148.724 163.864C148.724 164.151 148.851 164.261 149.051 164.261C149.251 164.261 149.378 164.151 149.378 163.864V161.682C149.378 161.395 149.251 161.285 149.051 161.285C148.851 161.285 148.724 161.395 148.724 161.682V163.864Z" fill="#083044"/>
<path d="M148.094 167.504C148.094 166.857 148.433 166.49 149.051 166.49C149.669 166.49 150.008 166.857 150.008 167.504V169.606C150.008 170.254 149.669 170.62 149.051 170.62C148.433 170.62 148.094 170.248 148.094 169.606V167.504ZM148.724 169.643C148.724 169.93 148.851 170.04 149.051 170.04C149.251 170.04 149.378 169.93 149.378 169.643V167.462C149.378 167.175 149.251 167.065 149.051 167.065C148.851 167.065 148.724 167.175 148.724 167.462V169.643Z" fill="#083044"/>
<path d="M148.53 172.821C149.015 172.821 149.124 172.582 149.221 172.313H149.645V176.358H149.015V173.273H148.53V172.821Z" fill="#083044"/>
<path d="M148.094 179.058C148.094 178.411 148.433 178.044 149.051 178.044C149.669 178.044 150.008 178.411 150.008 179.058V181.16C150.008 181.807 149.669 182.174 149.051 182.174C148.433 182.174 148.094 181.801 148.094 181.16V179.058ZM148.724 181.203C148.724 181.49 148.851 181.6 149.051 181.6C149.251 181.6 149.378 181.49 149.378 181.203V179.021C149.378 178.734 149.251 178.624 149.051 178.624C148.851 178.624 148.724 178.734 148.724 179.021V181.203Z" fill="#083044"/>
<path d="M148.53 184.38C149.015 184.38 149.124 184.142 149.221 183.873H149.645V187.918H149.015V184.832H148.53V184.38Z" fill="#083044"/>
<path d="M148.094 190.618C148.094 189.97 148.433 189.604 149.051 189.604C149.669 189.604 150.008 189.97 150.008 190.618V192.719C150.008 193.367 149.669 193.734 149.051 193.734C148.433 193.734 148.094 193.361 148.094 192.719V190.618ZM148.724 192.762C148.724 193.049 148.851 193.159 149.051 193.159C149.251 193.159 149.378 193.049 149.378 192.762V190.581C149.378 190.294 149.251 190.184 149.051 190.184C148.851 190.184 148.724 190.294 148.724 190.581V192.762Z" fill="#083044"/>
<path d="M148.53 195.94C149.015 195.94 149.124 195.701 149.221 195.433H149.645V199.477H149.015V196.392H148.53V195.94Z" fill="#083044"/>
<path d="M148.094 202.177C148.094 201.53 148.433 201.163 149.051 201.163C149.669 201.163 150.008 201.536 150.008 202.177V204.279C150.008 204.927 149.669 205.293 149.051 205.293C148.433 205.293 148.094 204.92 148.094 204.279V202.177ZM148.724 204.322C148.724 204.609 148.851 204.719 149.051 204.719C149.251 204.719 149.378 204.609 149.378 204.322V202.141C149.378 201.853 149.251 201.743 149.051 201.743C148.851 201.743 148.724 201.853 148.724 202.141V204.322Z" fill="#083044"/>
<path d="M148.094 207.957C148.094 207.309 148.433 206.942 149.051 206.942C149.669 206.942 150.008 207.315 150.008 207.957V210.058C150.008 210.706 149.669 211.072 149.051 211.072C148.433 211.072 148.094 210.706 148.094 210.058V207.957ZM148.724 210.101C148.724 210.388 148.851 210.498 149.051 210.498C149.251 210.498 149.378 210.388 149.378 210.101V207.92C149.378 207.633 149.251 207.523 149.051 207.523C148.851 207.523 148.724 207.633 148.724 207.92V210.101Z" fill="#083044"/>
<path d="M148.094 213.736C148.094 213.088 148.433 212.722 149.051 212.722C149.669 212.722 150.008 213.094 150.008 213.736V215.838C150.008 216.485 149.669 216.852 149.051 216.852C148.433 216.852 148.094 216.479 148.094 215.838V213.736ZM148.724 215.88C148.724 216.168 148.851 216.277 149.051 216.277C149.251 216.277 149.378 216.168 149.378 215.88V213.699C149.378 213.412 149.251 213.302 149.051 213.302C148.851 213.302 148.724 213.412 148.724 213.699V215.88Z" fill="#083044"/>
<path d="M148.53 219.052C149.015 219.052 149.124 218.814 149.221 218.545H149.645V222.589H149.015V219.504H148.53V219.052Z" fill="#083044"/>
<path d="M148.53 224.831C149.015 224.831 149.124 224.593 149.221 224.324H149.645V228.369H149.015V225.283H148.53V224.831Z" fill="#083044"/>
<path d="M148.53 230.612C149.015 230.612 149.124 230.373 149.221 230.104H149.645V234.149H149.015V231.064H148.53V230.612Z" fill="#083044"/>
<path d="M148.53 236.391C149.015 236.391 149.124 236.153 149.221 235.884H149.645V239.928H149.015V236.843H148.53V236.391Z" fill="#083044"/>
<path d="M148.724 244.774C148.724 245.061 148.851 245.171 149.051 245.171C149.251 245.171 149.378 245.061 149.378 244.774V242.592C149.378 242.305 149.251 242.195 149.051 242.195C148.851 242.195 148.724 242.305 148.724 242.592V244.774Z" fill="#083044"/>
<path d="M151.94 184.38C152.425 184.38 152.534 184.142 152.631 183.873H153.055V187.918H152.425V184.832H151.94V184.38Z" fill="#083044"/>
<path d="M151.94 190.159C152.425 190.159 152.534 189.921 152.631 189.652H153.055V193.697H152.425V190.612H151.94V190.159Z" fill="#083044"/>
<path d="M151.498 202.177C151.498 201.53 151.837 201.163 152.455 201.163C153.073 201.163 153.412 201.536 153.412 202.177V204.279C153.412 204.927 153.073 205.293 152.455 205.293C151.837 205.293 151.498 204.92 151.498 204.279V202.177ZM152.128 204.322C152.128 204.609 152.255 204.719 152.455 204.719C152.655 204.719 152.782 204.609 152.782 204.322V202.141C152.782 201.853 152.655 201.743 152.455 201.743C152.255 201.743 152.128 201.853 152.128 202.141V204.322Z" fill="#083044"/>
<path d="M151.94 207.498C152.425 207.498 152.534 207.26 152.631 206.991H153.055V211.036H152.425V207.95H151.94V207.498Z" fill="#083044"/>
<path d="M151.498 213.737C151.498 213.089 151.837 212.723 152.455 212.723C153.073 212.723 153.412 213.095 153.412 213.737V215.839C153.412 216.486 153.073 216.853 152.455 216.853C151.837 216.853 151.498 216.48 151.498 215.839V213.737ZM152.128 215.881C152.128 216.168 152.255 216.278 152.455 216.278C152.655 216.278 152.782 216.168 152.782 215.881V213.7C152.782 213.413 152.655 213.303 152.455 213.303C152.255 213.303 152.128 213.413 152.128 213.7V215.881Z" fill="#083044"/>
<path d="M152.128 227.441C152.128 227.728 152.255 227.838 152.455 227.838C152.655 227.838 152.782 227.728 152.782 227.441V225.259C152.782 224.972 152.655 224.862 152.455 224.862C152.255 224.862 152.128 224.972 152.128 225.259V227.441Z" fill="#083044"/>
<path d="M151.94 230.612C152.425 230.612 152.534 230.373 152.631 230.104H153.055V234.149H152.425V231.064H151.94V230.612Z" fill="#083044"/>
<path d="M151.94 236.391C152.425 236.391 152.534 236.153 152.631 235.884H153.055V239.928H152.425V236.843H151.94V236.391Z" fill="#083044"/>
<path d="M151.498 254.195C151.498 253.547 151.837 253.181 152.455 253.181C153.073 253.181 153.412 253.547 153.412 254.195V256.297C153.412 256.944 153.073 257.311 152.455 257.311C151.837 257.311 151.498 256.938 151.498 256.297V254.195ZM152.128 256.333C152.128 256.62 152.255 256.73 152.455 256.73C152.655 256.73 152.782 256.62 152.782 256.333V254.152C152.782 253.865 152.655 253.755 152.455 253.755C152.255 253.755 152.128 253.865 152.128 254.152V256.333Z" fill="#083044"/>
<path d="M144.685 179.058C144.685 178.411 145.024 178.044 145.642 178.044C146.259 178.044 146.599 178.411 146.599 179.058V181.16C146.599 181.807 146.259 182.174 145.642 182.174C145.024 182.174 144.685 181.801 144.685 181.16V179.058ZM145.314 181.203C145.314 181.49 145.442 181.6 145.642 181.6C145.841 181.6 145.969 181.49 145.969 181.203V179.021C145.969 178.734 145.841 178.624 145.642 178.624C145.442 178.624 145.314 178.734 145.314 179.021V181.203Z" fill="#083044"/>
<path d="M145.127 184.38C145.612 184.38 145.721 184.142 145.817 183.873H146.241V187.918H145.612V184.832H145.127V184.38Z" fill="#083044"/>
<path d="M145.127 190.159C145.612 190.159 145.721 189.921 145.817 189.652H146.241V193.697H145.612V190.612H145.127V190.159Z" fill="#083044"/>
<path d="M144.685 196.397C144.685 195.749 145.024 195.383 145.642 195.383C146.259 195.383 146.599 195.756 146.599 196.397V198.499C146.599 199.146 146.259 199.513 145.642 199.513C145.024 199.513 144.685 199.14 144.685 198.499V196.397ZM145.314 198.541C145.314 198.829 145.442 198.939 145.642 198.939C145.841 198.939 145.969 198.829 145.969 198.541V196.36C145.969 196.073 145.841 195.963 145.642 195.963C145.442 195.963 145.314 196.073 145.314 196.36V198.541Z" fill="#083044"/>
<path d="M144.685 207.957C144.685 207.309 145.024 206.942 145.642 206.942C146.259 206.942 146.599 207.315 146.599 207.957V210.058C146.599 210.706 146.259 211.072 145.642 211.072C145.024 211.072 144.685 210.706 144.685 210.058V207.957ZM145.314 210.101C145.314 210.388 145.442 210.498 145.642 210.498C145.841 210.498 145.969 210.388 145.969 210.101V207.92C145.969 207.633 145.841 207.523 145.642 207.523C145.442 207.523 145.314 207.633 145.314 207.92V210.101Z" fill="#083044"/>
<path d="M144.685 213.737C144.685 213.089 145.024 212.723 145.642 212.723C146.259 212.723 146.599 213.095 146.599 213.737V215.839C146.599 216.486 146.259 216.853 145.642 216.853C145.024 216.853 144.685 216.48 144.685 215.839V213.737ZM145.314 215.881C145.314 216.168 145.442 216.278 145.642 216.278C145.841 216.278 145.969 216.168 145.969 215.881V213.7C145.969 213.413 145.841 213.303 145.642 213.303C145.442 213.303 145.314 213.413 145.314 213.7V215.881Z" fill="#083044"/>
<path d="M145.127 219.052C145.612 219.052 145.721 218.814 145.817 218.545H146.241V222.589H145.612V219.504H145.127V219.052Z" fill="#083044"/>
<path d="M144.685 225.296C144.685 224.649 145.024 224.282 145.642 224.282C146.259 224.282 146.599 224.655 146.599 225.296V227.398C146.599 228.046 146.259 228.412 145.642 228.412C145.024 228.412 144.685 228.04 144.685 227.398V225.296ZM145.314 227.441C145.314 227.728 145.442 227.838 145.642 227.838C145.841 227.838 145.969 227.728 145.969 227.441V225.26C145.969 224.973 145.841 224.863 145.642 224.863C145.442 224.863 145.314 224.973 145.314 225.26V227.441Z" fill="#083044"/>
<path d="M145.127 230.612C145.612 230.612 145.721 230.373 145.817 230.104H146.241V234.149H145.612V231.064H145.127V230.612Z" fill="#083044"/>
<path d="M141.28 167.504C141.28 166.857 141.619 166.49 142.237 166.49C142.855 166.49 143.194 166.863 143.194 167.504V169.606C143.194 170.254 142.855 170.62 142.237 170.62C141.619 170.62 141.28 170.254 141.28 169.606V167.504ZM141.91 169.643C141.91 169.93 142.037 170.04 142.237 170.04C142.437 170.04 142.564 169.93 142.564 169.643V167.462C142.564 167.175 142.437 167.065 142.237 167.065C142.037 167.065 141.91 167.175 141.91 167.462V169.643Z" fill="#083044"/>
<path d="M141.723 178.601C142.207 178.601 142.316 178.363 142.413 178.094H142.837V182.138H142.207V179.053H141.723V178.601Z" fill="#083044"/>
<path d="M141.723 190.159C142.207 190.159 142.316 189.921 142.413 189.652H142.837V193.697H142.207V190.612H141.723V190.159Z" fill="#083044"/>
<path d="M141.28 196.397C141.28 195.749 141.619 195.383 142.237 195.383C142.855 195.383 143.194 195.756 143.194 196.397V198.499C143.194 199.146 142.855 199.513 142.237 199.513C141.619 199.513 141.28 199.146 141.28 198.499V196.397ZM141.91 198.541C141.91 198.829 142.037 198.939 142.237 198.939C142.437 198.939 142.564 198.829 142.564 198.541V196.36C142.564 196.073 142.437 195.963 142.237 195.963C142.037 195.963 141.91 196.073 141.91 196.36V198.541Z" fill="#083044"/>
<path d="M141.723 213.279C142.207 213.279 142.316 213.04 142.413 212.771H142.837V216.816H142.207V213.731H141.723V213.279Z" fill="#083044"/>
<path d="M141.723 219.052C142.207 219.052 142.316 218.814 142.413 218.545H142.837V222.589H142.207V219.504H141.723V219.052Z" fill="#083044"/>
<path d="M141.723 224.831C142.207 224.831 142.316 224.593 142.413 224.324H142.837V228.369H142.207V225.283H141.723V224.831Z" fill="#083044"/>
<path d="M248.409 28.5044C248.409 27.8568 248.748 27.4902 249.366 27.4902C249.984 27.4902 250.323 27.8568 250.323 28.5044V30.6061C250.323 31.2538 249.984 31.6203 249.366 31.6203C248.748 31.6203 248.409 31.2477 248.409 30.6061V28.5044ZM249.039 30.6489C249.039 30.9361 249.166 31.046 249.366 31.046C249.566 31.046 249.693 30.9361 249.693 30.6489V28.4678C249.693 28.1806 249.566 28.0706 249.366 28.0706C249.166 28.0706 249.039 28.1806 249.039 28.4678V30.6489Z" fill="#083044"/>
<path d="M248.409 34.2847C248.409 33.6371 248.748 33.2705 249.366 33.2705C249.984 33.2705 250.323 33.6432 250.323 34.2847V36.3864C250.323 37.034 249.984 37.4006 249.366 37.4006C248.748 37.4006 248.409 37.0279 248.409 36.3864V34.2847ZM249.039 36.4292C249.039 36.7163 249.166 36.8263 249.366 36.8263C249.566 36.8263 249.693 36.7163 249.693 36.4292V34.248C249.693 33.9609 249.566 33.8509 249.366 33.8509C249.166 33.8509 249.039 33.9609 249.039 34.248V36.4292Z" fill="#083044"/>
<path d="M248.852 51.1594C249.336 51.1594 249.445 50.9212 249.542 50.6523H249.966V54.6969H249.336V51.6116H248.852V51.1594Z" fill="#083044"/>
<path d="M248.852 56.9387C249.336 56.9387 249.445 56.7005 249.542 56.4316H249.966V60.4762H249.336V57.3909H248.852V56.9387Z" fill="#083044"/>
<path d="M248.409 74.7427C248.409 74.0951 248.748 73.7285 249.366 73.7285C249.984 73.7285 250.323 74.1012 250.323 74.7427V76.8444C250.323 77.4921 249.984 77.8586 249.366 77.8586C248.748 77.8586 248.409 77.4859 248.409 76.8444V74.7427ZM249.039 76.8811C249.039 77.1682 249.166 77.2782 249.366 77.2782C249.566 77.2782 249.693 77.1682 249.693 76.8811V74.6999C249.693 74.4128 249.566 74.3028 249.366 74.3028C249.166 74.3028 249.039 74.4128 249.039 74.6999V76.8811Z" fill="#083044"/>
<path d="M248.409 86.2954C248.409 85.6478 248.748 85.2812 249.366 85.2812C249.984 85.2812 250.323 85.6539 250.323 86.2954V88.3972C250.323 89.0448 249.984 89.4114 249.366 89.4114C248.748 89.4114 248.409 89.0448 248.409 88.3972V86.2954ZM249.039 88.4399C249.039 88.7271 249.166 88.8371 249.366 88.8371C249.566 88.8371 249.693 88.7271 249.693 88.4399V86.2588C249.693 85.9716 249.566 85.8617 249.366 85.8617C249.166 85.8617 249.039 85.9716 249.039 86.2588V88.4399Z" fill="#083044"/>
<path d="M238.19 40.064C238.19 39.4164 238.53 39.0498 239.147 39.0498C239.765 39.0498 240.104 39.4225 240.104 40.064V42.1657C240.104 42.8133 239.765 43.1799 239.147 43.1799C238.53 43.1799 238.19 42.8072 238.19 42.1657V40.064ZM238.82 42.2085C238.82 42.4956 238.948 42.6056 239.147 42.6056C239.347 42.6056 239.475 42.4956 239.475 42.2085V40.0273C239.475 39.7402 239.347 39.6302 239.147 39.6302C238.948 39.6302 238.82 39.7402 238.82 40.0273V42.2085Z" fill="#083044"/>
<path d="M238.19 45.8433C238.19 45.1957 238.53 44.8291 239.147 44.8291C239.765 44.8291 240.104 45.2018 240.104 45.8433V47.945C240.104 48.5926 239.765 48.9592 239.147 48.9592C238.53 48.9592 238.19 48.5865 238.19 47.945V45.8433ZM238.82 47.9878C238.82 48.2749 238.948 48.3849 239.147 48.3849C239.347 48.3849 239.475 48.2749 239.475 47.9878V45.8066C239.475 45.5195 239.347 45.4095 239.147 45.4095C238.948 45.4095 238.82 45.5195 238.82 45.8066V47.9878Z" fill="#083044"/>
<path d="M238.19 51.6236C238.19 50.976 238.53 50.6094 239.147 50.6094C239.765 50.6094 240.104 50.9821 240.104 51.6236V53.7253C240.104 54.3729 239.765 54.7395 239.147 54.7395C238.53 54.7395 238.19 54.3729 238.19 53.7253V51.6236ZM238.82 53.7681C238.82 54.0552 238.948 54.1652 239.147 54.1652C239.347 54.1652 239.475 54.0552 239.475 53.7681V51.5869C239.475 51.2998 239.347 51.1898 239.147 51.1898C238.948 51.1898 238.82 51.2998 238.82 51.5869V53.7681Z" fill="#083044"/>
<path d="M238.633 56.9387C239.117 56.9387 239.226 56.7005 239.323 56.4316H239.747V60.4762H239.117V57.3909H238.633V56.9387Z" fill="#083044"/>
<path d="M238.633 68.4983C239.117 68.4983 239.226 68.26 239.323 67.9912H239.747V72.0358H239.117V68.9504H238.633V68.4983Z" fill="#083044"/>
<path d="M238.633 74.2776C239.117 74.2776 239.226 74.0393 239.323 73.7705H239.747V77.8151H239.117V74.7297H238.633V74.2776Z" fill="#083044"/>
<path d="M238.19 86.2954C238.19 85.6478 238.53 85.2812 239.147 85.2812C239.765 85.2812 240.104 85.6539 240.104 86.2954V88.3972C240.104 89.0448 239.765 89.4114 239.147 89.4114C238.53 89.4114 238.19 89.0448 238.19 88.3972V86.2954ZM238.82 88.4399C238.82 88.7271 238.948 88.8371 239.147 88.8371C239.347 88.8371 239.475 88.7271 239.475 88.4399V86.2588C239.475 85.9716 239.347 85.8617 239.147 85.8617C238.948 85.8617 238.82 85.9716 238.82 86.2588V88.4399Z" fill="#083044"/>
<path d="M238.633 91.6165C239.117 91.6165 239.226 91.3782 239.323 91.1094H239.747V95.1539H239.117V92.0686H238.633V91.6165Z" fill="#083044"/>
<path d="M245.005 28.5044C245.005 27.8568 245.344 27.4902 245.962 27.4902C246.58 27.4902 246.919 27.8568 246.919 28.5044V30.6061C246.919 31.2538 246.58 31.6203 245.962 31.6203C245.344 31.6203 245.005 31.2477 245.005 30.6061V28.5044ZM245.635 30.6489C245.635 30.9361 245.762 31.046 245.962 31.046C246.162 31.046 246.289 30.9361 246.289 30.6489V28.4678C246.289 28.1806 246.162 28.0706 245.962 28.0706C245.762 28.0706 245.635 28.1806 245.635 28.4678V30.6489Z" fill="#083044"/>
<path d="M245.44 33.8196C245.925 33.8196 246.034 33.5813 246.131 33.3125H246.555V37.3571H245.925V34.2717H245.44V33.8196Z" fill="#083044"/>
<path d="M245.005 40.064C245.005 39.4164 245.344 39.0498 245.962 39.0498C246.58 39.0498 246.919 39.4225 246.919 40.064V42.1657C246.919 42.8133 246.58 43.1799 245.962 43.1799C245.344 43.1799 245.005 42.8072 245.005 42.1657V40.064ZM245.635 42.2085C245.635 42.4956 245.762 42.6056 245.962 42.6056C246.162 42.6056 246.289 42.4956 246.289 42.2085V40.0273C246.289 39.7402 246.162 39.6302 245.962 39.6302C245.762 39.6302 245.635 39.7402 245.635 40.0273V42.2085Z" fill="#083044"/>
<path d="M245.44 45.3801C245.925 45.3801 246.034 45.1419 246.131 44.873H246.555V48.9176H245.925V45.8323H245.44V45.3801Z" fill="#083044"/>
<path d="M245.44 51.1594C245.925 51.1594 246.034 50.9212 246.131 50.6523H246.555V54.6969H245.925V51.6116H245.44V51.1594Z" fill="#083044"/>
<path d="M245.44 56.9387C245.925 56.9387 246.034 56.7005 246.131 56.4316H246.555V60.4762H245.925V57.3909H245.44V56.9387Z" fill="#083044"/>
<path d="M245.005 63.1822C245.005 62.5345 245.344 62.168 245.962 62.168C246.58 62.168 246.919 62.5407 246.919 63.1822V65.2839C246.919 65.9315 246.58 66.2981 245.962 66.2981C245.344 66.2981 245.005 65.9254 245.005 65.2839V63.1822ZM245.635 65.3205C245.635 65.6077 245.762 65.7177 245.962 65.7177C246.162 65.7177 246.289 65.6077 246.289 65.3205V63.1394C246.289 62.8522 246.162 62.7423 245.962 62.7423C245.762 62.7423 245.635 62.8522 245.635 63.1394V65.3205Z" fill="#083044"/>
<path d="M245.005 68.9634C245.005 68.3158 245.344 67.9492 245.962 67.9492C246.58 67.9492 246.919 68.3158 246.919 68.9634V71.0651C246.919 71.7127 246.58 72.0793 245.962 72.0793C245.344 72.0793 245.005 71.7066 245.005 71.0651V68.9634ZM245.635 71.1018C245.635 71.3889 245.762 71.4989 245.962 71.4989C246.162 71.4989 246.289 71.3889 246.289 71.1018V68.9207C246.289 68.6335 246.162 68.5235 245.962 68.5235C245.762 68.5235 245.635 68.6335 245.635 68.9207V71.1018Z" fill="#083044"/>
<path d="M242.037 33.8196C242.522 33.8196 242.631 33.5813 242.728 33.3125H243.152V37.3571H242.522V34.2717H242.037V33.8196Z" fill="#083044"/>
<path d="M241.595 40.064C241.595 39.4164 241.934 39.0498 242.552 39.0498C243.17 39.0498 243.509 39.4225 243.509 40.064V42.1657C243.509 42.8133 243.17 43.1799 242.552 43.1799C241.934 43.1799 241.595 42.8072 241.595 42.1657V40.064ZM242.225 42.2085C242.225 42.4956 242.352 42.6056 242.552 42.6056C242.752 42.6056 242.879 42.4956 242.879 42.2085V40.0273C242.879 39.7402 242.752 39.6302 242.552 39.6302C242.352 39.6302 242.225 39.7402 242.225 40.0273V42.2085Z" fill="#083044"/>
<path d="M241.595 45.8433C241.595 45.1957 241.934 44.8291 242.552 44.8291C243.17 44.8291 243.509 45.2018 243.509 45.8433V47.945C243.509 48.5926 243.17 48.9592 242.552 48.9592C241.934 48.9592 241.595 48.5865 241.595 47.945V45.8433ZM242.225 47.9878C242.225 48.2749 242.352 48.3849 242.552 48.3849C242.752 48.3849 242.879 48.2749 242.879 47.9878V45.8066C242.879 45.5195 242.752 45.4095 242.552 45.4095C242.352 45.4095 242.225 45.5195 242.225 45.8066V47.9878Z" fill="#083044"/>
<path d="M242.037 51.1585C242.522 51.1585 242.631 50.9202 242.728 50.6514H243.152V54.6959H242.522V51.6106H242.037V51.1585Z" fill="#083044"/>
<path d="M242.037 62.718C242.522 62.718 242.631 62.4798 242.728 62.2109H243.152V66.2555H242.522V63.1701H242.037V62.718Z" fill="#083044"/>
<path d="M242.037 68.4973C242.522 68.4973 242.631 68.2591 242.728 67.9902H243.152V72.0348H242.522V68.9494H242.037V68.4973Z" fill="#083044"/>
<path d="M242.037 74.2776C242.522 74.2776 242.631 74.0393 242.728 73.7705H243.152V77.8151H242.522V74.7297H242.037V74.2776Z" fill="#083044"/>
<path d="M88.0576 92.4966C88.0576 91.849 88.3968 91.4824 89.0146 91.4824C89.6324 91.4824 89.9716 91.8551 89.9716 92.4966V94.5983C89.9716 95.246 89.6324 95.6125 89.0146 95.6125C88.3968 95.6125 88.0576 95.2398 88.0576 94.5983V92.4966ZM88.6875 94.6411C88.6875 94.9283 88.8147 95.0382 89.0146 95.0382C89.2145 95.0382 89.3417 94.9283 89.3417 94.6411V92.46C89.3417 92.1728 89.2145 92.0628 89.0146 92.0628C88.8147 92.0628 88.6875 92.1728 88.6875 92.46V94.6411Z" fill="#083044"/>
<path d="M88.0576 98.2769C88.0576 97.6293 88.3968 97.2627 89.0146 97.2627C89.6324 97.2627 89.9716 97.6354 89.9716 98.2769V100.379C89.9716 101.026 89.6324 101.393 89.0146 101.393C88.3968 101.393 88.0576 101.026 88.0576 100.379V98.2769ZM88.6875 100.421C88.6875 100.709 88.8147 100.818 89.0146 100.818C89.2145 100.818 89.3417 100.709 89.3417 100.421V98.2402C89.3417 97.9531 89.2145 97.8431 89.0146 97.8431C88.8147 97.8431 88.6875 97.9531 88.6875 98.2402V100.421Z" fill="#083044"/>
<path d="M88.5 103.593C88.9846 103.593 89.0936 103.355 89.1905 103.086H89.6145V107.131H88.9846V104.045H88.5V103.593Z" fill="#083044"/>
<path d="M88.0576 109.835C88.0576 109.188 88.3968 108.821 89.0146 108.821C89.6324 108.821 89.9716 109.194 89.9716 109.835V111.937C89.9716 112.585 89.6324 112.951 89.0146 112.951C88.3968 112.951 88.0576 112.579 88.0576 111.937V109.835ZM88.6875 111.98C88.6875 112.267 88.8147 112.377 89.0146 112.377C89.2145 112.377 89.3417 112.267 89.3417 111.98V109.799C89.3417 109.512 89.2145 109.402 89.0146 109.402C88.8147 109.402 88.6875 109.512 88.6875 109.799V111.98Z" fill="#083044"/>
<path d="M88.5 115.152C88.9846 115.152 89.0936 114.913 89.1905 114.645H89.6145V118.689H88.9846V115.604H88.5V115.152Z" fill="#083044"/>
<path d="M88.0576 121.395C88.0576 120.747 88.3968 120.381 89.0146 120.381C89.6324 120.381 89.9716 120.754 89.9716 121.395V123.497C89.9716 124.144 89.6324 124.511 89.0146 124.511C88.3968 124.511 88.0576 124.138 88.0576 123.497V121.395ZM88.6875 123.533C88.6875 123.821 88.8147 123.931 89.0146 123.931C89.2145 123.931 89.3417 123.821 89.3417 123.533V121.352C89.3417 121.065 89.2145 120.955 89.0146 120.955C88.8147 120.955 88.6875 121.065 88.6875 121.352V123.533Z" fill="#083044"/>
<path d="M88.5 126.711C88.9846 126.711 89.0936 126.473 89.1905 126.204H89.6145V130.249H88.9846V127.163H88.5V126.711Z" fill="#083044"/>
<path d="M88.0576 132.949C88.0576 132.301 88.3968 131.935 89.0146 131.935C89.6324 131.935 89.9716 132.307 89.9716 132.949V135.05C89.9716 135.698 89.6324 136.065 89.0146 136.065C88.3968 136.065 88.0576 135.698 88.0576 135.05V132.949ZM88.6875 135.093C88.6875 135.38 88.8147 135.49 89.0146 135.49C89.2145 135.49 89.3417 135.38 89.3417 135.093V132.912C89.3417 132.625 89.2145 132.515 89.0146 132.515C88.8147 132.515 88.6875 132.625 88.6875 132.912V135.093Z" fill="#083044"/>
<path d="M88.0576 138.728C88.0576 138.08 88.3968 137.714 89.0146 137.714C89.6324 137.714 89.9716 138.087 89.9716 138.728V140.83C89.9716 141.477 89.6324 141.844 89.0146 141.844C88.3968 141.844 88.0576 141.471 88.0576 140.83V138.728ZM88.6875 140.873C88.6875 141.16 88.8147 141.27 89.0146 141.27C89.2145 141.27 89.3417 141.16 89.3417 140.873V138.691C89.3417 138.404 89.2145 138.294 89.0146 138.294C88.8147 138.294 88.6875 138.404 88.6875 138.691V140.873Z" fill="#083044"/>
<path d="M88.0576 144.508C88.0576 143.861 88.3968 143.494 89.0146 143.494C89.6324 143.494 89.9716 143.867 89.9716 144.508V146.61C89.9716 147.258 89.6324 147.624 89.0146 147.624C88.3968 147.624 88.0576 147.258 88.0576 146.61V144.508ZM88.6875 146.653C88.6875 146.94 88.8147 147.05 89.0146 147.05C89.2145 147.05 89.3417 146.94 89.3417 146.653V144.472C89.3417 144.185 89.2145 144.075 89.0146 144.075C88.8147 144.075 88.6875 144.185 88.6875 144.472V146.653Z" fill="#083044"/>
<path d="M88.5 155.61C88.9846 155.61 89.0936 155.371 89.1905 155.103H89.6145V159.147H88.9846V156.062H88.5V155.61Z" fill="#083044"/>
<path d="M91.9102 115.152C92.3947 115.152 92.5037 114.913 92.6006 114.645H93.0246V118.689H92.3947V115.604H91.9102V115.152Z" fill="#083044"/>
<path d="M91.9102 120.932C92.3947 120.932 92.5037 120.694 92.6006 120.425H93.0246V124.469H92.3947V121.384H91.9102V120.932Z" fill="#083044"/>
<path d="M91.4668 127.175C91.4668 126.528 91.806 126.161 92.4238 126.161C93.0416 126.161 93.3808 126.534 93.3808 127.175V129.277C93.3808 129.925 93.0416 130.291 92.4238 130.291C91.806 130.291 91.4668 129.919 91.4668 129.277V127.175ZM92.0967 129.314C92.0967 129.601 92.2239 129.711 92.4238 129.711C92.6237 129.711 92.7509 129.601 92.7509 129.314V127.133C92.7509 126.845 92.6237 126.735 92.4238 126.735C92.2239 126.735 92.0967 126.845 92.0967 127.133V129.314Z" fill="#083044"/>
<path d="M91.4668 132.949C91.4668 132.301 91.806 131.935 92.4238 131.935C93.0416 131.935 93.3808 132.307 93.3808 132.949V135.05C93.3808 135.698 93.0416 136.065 92.4238 136.065C91.806 136.065 91.4668 135.698 91.4668 135.05V132.949ZM92.0967 135.093C92.0967 135.38 92.2239 135.49 92.4238 135.49C92.6237 135.49 92.7509 135.38 92.7509 135.093V132.912C92.7509 132.625 92.6237 132.515 92.4238 132.515C92.2239 132.515 92.0967 132.625 92.0967 132.912V135.093Z" fill="#083044"/>
<path d="M91.9102 138.271C92.3947 138.271 92.5037 138.032 92.6006 137.764H93.0246V141.808H92.3947V138.723H91.9102V138.271Z" fill="#083044"/>
<path d="M91.9102 149.829C92.3947 149.829 92.5037 149.591 92.6006 149.322H93.0246V153.367H92.3947V150.281H91.9102V149.829Z" fill="#083044"/>
<path d="M84.6533 109.835C84.6533 109.188 84.9925 108.821 85.6103 108.821C86.2281 108.821 86.5673 109.194 86.5673 109.835V111.937C86.5673 112.585 86.2281 112.951 85.6103 112.951C84.9925 112.951 84.6533 112.579 84.6533 111.937V109.835ZM85.2832 111.98C85.2832 112.267 85.4104 112.377 85.6103 112.377C85.8102 112.377 85.9374 112.267 85.9374 111.98V109.799C85.9374 109.512 85.8102 109.402 85.6103 109.402C85.4104 109.402 85.2832 109.512 85.2832 109.799V111.98Z" fill="#083044"/>
<path d="M85.0957 115.151C85.5803 115.151 85.6893 114.912 85.7862 114.644H86.2102V118.688H85.5803V115.603H85.0957V115.151Z" fill="#083044"/>
<path d="M85.0957 120.932C85.5803 120.932 85.6893 120.694 85.7862 120.425H86.2102V124.469H85.5803V121.384H85.0957V120.932Z" fill="#083044"/>
<path d="M84.6533 127.174C84.6533 126.527 84.9925 126.16 85.6103 126.16C86.2281 126.16 86.5673 126.533 86.5673 127.174V129.276C86.5673 129.924 86.2281 130.29 85.6103 130.29C84.9925 130.29 84.6533 129.918 84.6533 129.276V127.174ZM85.2832 129.313C85.2832 129.6 85.4104 129.71 85.6103 129.71C85.8102 129.71 85.9374 129.6 85.9374 129.313V127.132C85.9374 126.844 85.8102 126.734 85.6103 126.734C85.4104 126.734 85.2832 126.844 85.2832 127.132V129.313Z" fill="#083044"/>
<path d="M85.0957 132.49C85.5803 132.49 85.6893 132.252 85.7862 131.983H86.2102V136.028H85.5803V132.943H85.0957V132.49Z" fill="#083044"/>
<path d="M84.6533 138.728C84.6533 138.08 84.9925 137.714 85.6103 137.714C86.2281 137.714 86.5673 138.087 86.5673 138.728V140.83C86.5673 141.477 86.2281 141.844 85.6103 141.844C84.9925 141.844 84.6533 141.471 84.6533 140.83V138.728ZM85.2832 140.873C85.2832 141.16 85.4104 141.27 85.6103 141.27C85.8102 141.27 85.9374 141.16 85.9374 140.873V138.691C85.9374 138.404 85.8102 138.294 85.6103 138.294C85.4104 138.294 85.2832 138.404 85.2832 138.691V140.873Z" fill="#083044"/>
<path d="M81.249 98.2769C81.249 97.6293 81.5882 97.2627 82.206 97.2627C82.8238 97.2627 83.163 97.6354 83.163 98.2769V100.379C83.163 101.026 82.8238 101.393 82.206 101.393C81.5882 101.393 81.249 101.02 81.249 100.379V98.2769ZM81.8789 100.421C81.8789 100.709 82.0061 100.818 82.206 100.818C82.4059 100.818 82.5331 100.709 82.5331 100.421V98.2402C82.5331 97.9531 82.4059 97.8431 82.206 97.8431C82.0061 97.8431 81.8789 97.9531 81.8789 98.2402V100.421Z" fill="#083044"/>
<path d="M81.6846 109.372C82.1691 109.372 82.2782 109.134 82.3751 108.865H82.7991V112.91H82.1691V109.824H81.6846V109.372Z" fill="#083044"/>
<path d="M81.249 115.616C81.249 114.968 81.5882 114.602 82.206 114.602C82.8238 114.602 83.163 114.974 83.163 115.616V117.717C83.163 118.365 82.8238 118.732 82.206 118.732C81.5882 118.732 81.249 118.365 81.249 117.717V115.616ZM81.8789 117.76C81.8789 118.047 82.0061 118.157 82.206 118.157C82.4059 118.157 82.5331 118.047 82.5331 117.76V115.579C82.5331 115.292 82.4059 115.182 82.206 115.182C82.0061 115.182 81.8789 115.292 81.8789 115.579V117.76Z" fill="#083044"/>
<path d="M81.249 127.174C81.249 126.527 81.5882 126.16 82.206 126.16C82.8238 126.16 83.163 126.533 83.163 127.174V129.276C83.163 129.924 82.8238 130.29 82.206 130.29C81.5882 130.29 81.249 129.918 81.249 129.276V127.174ZM81.8789 129.313C81.8789 129.6 82.0061 129.71 82.206 129.71C82.4059 129.71 82.5331 129.6 82.5331 129.313V127.132C82.5331 126.844 82.4059 126.734 82.206 126.734C82.0061 126.734 81.8789 126.844 81.8789 127.132V129.313Z" fill="#083044"/>
<path d="M81.249 132.955C81.249 132.307 81.5882 131.94 82.206 131.94C82.8238 131.94 83.163 132.313 83.163 132.955V135.056C83.163 135.704 82.8238 136.071 82.206 136.071C81.5882 136.071 81.249 135.698 81.249 135.056V132.955ZM81.8789 135.093C81.8789 135.38 82.0061 135.49 82.206 135.49C82.4059 135.49 82.5331 135.38 82.5331 135.093V132.912C82.5331 132.625 82.4059 132.515 82.206 132.515C82.0061 132.515 81.8789 132.625 81.8789 132.912V135.093Z" fill="#083044"/>
<path d="M81.249 138.728C81.249 138.08 81.5882 137.714 82.206 137.714C82.8238 137.714 83.163 138.087 83.163 138.728V140.83C83.163 141.477 82.8238 141.844 82.206 141.844C81.5882 141.844 81.249 141.471 81.249 140.83V138.728ZM81.8789 140.873C81.8789 141.16 82.0061 141.27 82.206 141.27C82.4059 141.27 82.5331 141.16 82.5331 140.873V138.691C82.5331 138.404 82.4059 138.294 82.206 138.294C82.0061 138.294 81.8789 138.404 81.8789 138.691V140.873Z" fill="#083044"/>
<path d="M81.6846 155.61C82.1691 155.61 82.2782 155.371 82.3751 155.103H82.7991V159.147H82.1691V156.062H81.6846V155.61Z" fill="#083044"/>
<path d="M273.581 152.115C255.707 144.814 254.404 119.703 254.404 119.703H258.232V116.703C267.306 116.703 273.575 111.021 273.575 111.021C273.575 111.021 279.844 116.703 288.917 116.703V119.703H292.745C292.745 119.703 291.443 144.814 273.569 152.115H273.581Z" stroke="#083044" stroke-width="0.80362" stroke-linecap="round" stroke-linejoin="round"/>
<path d="M273.587 148.797C261.873 143.262 258.481 128.623 257.548 122.3H261.049V119.141C266.785 118.487 271.231 115.976 273.593 114.339C275.955 115.976 280.395 118.487 286.137 119.141V122.3H289.632C288.687 128.623 285.271 143.28 273.599 148.797H273.587Z" stroke="#083044" stroke-width="0.80362" stroke-linecap="round" stroke-linejoin="round"/>
<path d="M279.819 128.031H267.348C266.896 128.031 266.53 128.401 266.53 128.856V136.353C266.53 136.808 266.896 137.177 267.348 137.177H279.819C280.271 137.177 280.637 136.808 280.637 136.353V128.856C280.637 128.401 280.271 128.031 279.819 128.031Z" fill="#083044"/>
<path d="M273.835 120.314C270.927 120.168 268.511 122.514 268.511 125.422V125.953C268.511 126.149 268.668 126.314 268.868 126.314H270.152C270.346 126.314 270.51 126.155 270.51 125.953V125.532C270.51 123.882 271.739 122.434 273.374 122.324C275.167 122.202 276.663 123.638 276.663 125.422V125.953C276.663 126.149 276.821 126.314 277.021 126.314H278.305C278.499 126.314 278.662 126.155 278.662 125.953V125.568C278.662 122.819 276.573 120.449 273.847 120.314H273.835Z" fill="#083044"/>
<path d="M274.907 131.573C274.907 130.834 274.313 130.235 273.58 130.235C272.847 130.235 272.254 130.834 272.254 131.573C272.254 132.105 272.563 132.557 273.005 132.771L272.52 134.921H274.634L274.15 132.771C274.592 132.557 274.901 132.099 274.901 131.573H274.907Z" fill="white" stroke="#083044" stroke-width="0.80362" stroke-linecap="round" stroke-linejoin="round"/>
<path d="M174.102 37.0635H216.906C218.015 37.0635 218.917 37.9738 218.917 39.0919V63.231C218.917 64.3491 218.015 65.2594 216.906 65.2594H174.102C172.993 65.2594 172.091 64.3491 172.091 63.231V39.0919C172.091 37.9738 172.993 37.0635 174.102 37.0635Z" stroke="#083044" stroke-width="0.80362" stroke-linecap="round" stroke-linejoin="round"/>
<path d="M176.518 61.3252H189.934C190.319 61.3252 190.631 61.0106 190.631 60.6226V41.7133C190.631 41.3252 190.319 41.0107 189.934 41.0107H176.518C176.133 41.0107 175.822 41.3252 175.822 41.7133V60.6226C175.822 61.0106 176.133 61.3252 176.518 61.3252Z" stroke="#083044" stroke-width="0.80362" stroke-linecap="round" stroke-linejoin="round"/>
<path d="M183.223 61.3192H176.488C176.118 61.3192 175.821 61.0198 175.821 60.6471V55.9549C175.821 55.9549 179.601 55.79 180.237 54.9774C180.873 54.1648 180.17 52.9001 180.17 52.9001C179.94 52.613 179.886 50.5785 179.886 50.5785L179.661 50.5235C179.437 50.4685 179.14 48.7761 179.14 48.1407C179.14 47.5053 179.661 47.2732 179.661 47.2732C179.661 47.2732 179.092 43.1553 183.229 43.1553C187.366 43.1553 186.796 47.2732 186.796 47.2732C186.796 47.2732 187.317 47.5053 187.317 48.1407C187.317 48.7761 187.021 50.4624 186.796 50.5235L186.572 50.5785C186.572 50.5785 186.518 52.613 186.288 52.9001C186.288 52.9001 185.585 54.1709 186.221 54.9774C186.857 55.79 190.637 55.9549 190.637 55.9549V60.6471C190.637 61.0198 190.34 61.3192 189.97 61.3192H183.235H183.223Z" fill="#083044"/>
<path d="M214.224 61.4165H205.024C204.636 61.4165 204.321 61.0988 204.321 60.7077C204.321 60.3167 204.636 59.999 205.024 59.999H214.224C214.612 59.999 214.927 60.3167 214.927 60.7077C214.927 61.0988 214.612 61.4165 214.224 61.4165Z" fill="#083044"/>
<path d="M214.223 42.3237H195.15C194.762 42.3237 194.447 42.006 194.447 41.615C194.447 41.224 194.762 40.9062 195.15 40.9062H214.223C214.611 40.9062 214.926 41.224 214.926 41.615C214.926 42.006 214.611 42.3237 214.223 42.3237Z" fill="#083044"/>
<path d="M206.089 47.0952H195.15C194.762 47.0952 194.447 46.7775 194.447 46.3865C194.447 45.9954 194.762 45.6777 195.15 45.6777H206.089C206.476 45.6777 206.791 45.9954 206.791 46.3865C206.791 46.7775 206.476 47.0952 206.089 47.0952Z" fill="#083044"/>
<path d="M202.606 51.8676H195.15C194.762 51.8676 194.447 51.5499 194.447 51.1589C194.447 50.7679 194.762 50.4502 195.15 50.4502H202.606C202.994 50.4502 203.309 50.7679 203.309 51.1589C203.309 51.5499 202.994 51.8676 202.606 51.8676Z" fill="#083044"/>
<path d="M206.089 56.645H195.15C194.762 56.645 194.447 56.3273 194.447 55.9363C194.447 55.5452 194.762 55.2275 195.15 55.2275H206.089C206.476 55.2275 206.791 55.5452 206.791 55.9363C206.791 56.3273 206.476 56.645 206.089 56.645Z" fill="#083044"/>
<path d="M128.081 112.145V139.29L120.843 146.597H101.612V112.145H128.081Z" stroke="#083044" stroke-width="0.80362" stroke-linecap="round" stroke-linejoin="round"/>
<path d="M128.081 139.29L120.843 146.597V139.29H128.081Z" fill="#083044" stroke="#083044" stroke-width="0.80362" stroke-linecap="round" stroke-linejoin="round"/>
<path d="M108.057 116.537H124.041" stroke="#083044" stroke-width="0.80362" stroke-linecap="round" stroke-linejoin="round"/>
<path d="M105.652 119.574H124.041" stroke="#083044" stroke-width="0.80362" stroke-linecap="round" stroke-linejoin="round"/>
<path d="M105.652 122.604H124.041" stroke="#083044" stroke-width="0.80362" stroke-linecap="round" stroke-linejoin="round"/>
<path d="M105.652 125.641H124.041" stroke="#083044" stroke-width="0.80362" stroke-linecap="round" stroke-linejoin="round"/>
<path d="M105.652 128.671H124.041" stroke="#083044" stroke-width="0.80362" stroke-linecap="round" stroke-linejoin="round"/>
<path d="M105.652 131.708H124.041" stroke="#083044" stroke-width="0.80362" stroke-linecap="round" stroke-linejoin="round"/>
<path d="M105.652 134.744H124.041" stroke="#083044" stroke-width="0.80362" stroke-linecap="round" stroke-linejoin="round"/>
<path d="M105.652 137.773H121.637" stroke="#083044" stroke-width="0.80362" stroke-linecap="round" stroke-linejoin="round"/>
<path d="M129.347 116.537H132.436V143.682L125.198 150.989H105.961V147.776" stroke="#083044" stroke-width="0.80362" stroke-linecap="round" stroke-linejoin="round"/>
<path d="M132.435 143.683L125.197 150.99V143.683H132.435Z" fill="#083044" stroke="#083044" stroke-width="0.80362" stroke-linecap="round" stroke-linejoin="round"/>
<path d="M227.306 93.2666H163.708C162.289 93.2666 161.14 94.4264 161.14 95.8571V167.279C161.14 168.709 162.289 169.869 163.708 169.869H227.306C228.724 169.869 229.874 168.709 229.874 167.279V95.8571C229.874 94.4264 228.724 93.2666 227.306 93.2666Z" fill="url(#paint4_linear_384_25803)" stroke="#083044" stroke-width="0.80362" stroke-linecap="round" stroke-linejoin="round"/>
<g opacity="0.5">
<path d="M228.488 118.806H162.521" stroke="white" stroke-width="0.80362" stroke-linecap="round" stroke-linejoin="round"/>
<path d="M228.488 127.31H162.521" stroke="white" stroke-width="0.80362" stroke-linecap="round" stroke-linejoin="round"/>
<path d="M228.488 135.82H162.521" stroke="white" stroke-width="0.80362" stroke-linecap="round" stroke-linejoin="round"/>
<path d="M228.488 144.331H162.521" stroke="white" stroke-width="0.80362" stroke-linecap="round" stroke-linejoin="round"/>
<path d="M228.488 152.843H162.521" stroke="white" stroke-width="0.80362" stroke-linecap="round" stroke-linejoin="round"/>
<path d="M228.488 161.354H162.521" stroke="white" stroke-width="0.80362" stroke-linecap="round" stroke-linejoin="round"/>
<path d="M228.488 110.295H162.521" stroke="white" stroke-width="0.80362" stroke-linecap="round" stroke-linejoin="round"/>
<path d="M228.488 101.784H162.521" stroke="white" stroke-width="0.80362" stroke-linecap="round" stroke-linejoin="round"/>
<path d="M212.728 168.501V94.6357" stroke="white" stroke-width="0.80362" stroke-linecap="round" stroke-linejoin="round"/>
<path d="M204.115 168.501V94.6357" stroke="white" stroke-width="0.80362" stroke-linecap="round" stroke-linejoin="round"/>
<path d="M195.508 168.501V94.6357" stroke="white" stroke-width="0.80362" stroke-linecap="round" stroke-linejoin="round"/>
<path d="M186.896 168.501V94.6357" stroke="white" stroke-width="0.80362" stroke-linecap="round" stroke-linejoin="round"/>
<path d="M178.288 168.501V94.6357" stroke="white" stroke-width="0.80362" stroke-linecap="round" stroke-linejoin="round"/>
<path d="M169.675 168.501V94.6357" stroke="white" stroke-width="0.80362" stroke-linecap="round" stroke-linejoin="round"/>
<path d="M221.335 168.501V94.6357" stroke="white" stroke-width="0.80362" stroke-linecap="round" stroke-linejoin="round"/>
</g>
<path d="M193.12 154.9C193.956 150.666 194.925 147.067 196.131 143.585C196.391 142.839 196.682 142.088 196.997 141.294C197.748 139.357 199.286 135.416 198.705 134.237C198.572 133.974 198.311 133.791 198.063 133.791C198.008 133.791 197.978 133.797 197.911 133.852C196.203 135.257 195.101 139.161 194.302 142.008L194.035 142.968C192.963 146.713 192.26 150.678 191.794 154.649" stroke="#083044" stroke-width="0.80362" stroke-linecap="round" stroke-linejoin="round"/>
<path d="M195.628 155.072C196.434 151.101 197.342 147.698 198.493 144.417C198.735 143.708 199.02 142.963 199.329 142.181C200.522 139.108 202.012 135.302 200.94 133.121C200.383 131.996 199.256 131.275 198.063 131.275C197.421 131.275 196.833 131.483 196.324 131.905C194.011 133.811 192.836 137.978 191.897 141.32L191.63 142.273C190.558 146.006 189.837 149.94 189.371 153.863" stroke="#083044" stroke-width="0.80362" stroke-linecap="round" stroke-linejoin="round"/>
<path d="M198.22 154.834C198.904 151.589 199.734 148.418 200.842 145.248C202.145 141.502 205.076 135.857 203.168 131.996C201.612 128.837 197.529 127.658 194.743 129.955C191.557 132.576 190.297 137.824 189.225 141.576C188.201 145.162 187.487 148.889 186.996 152.61" stroke="#083044" stroke-width="0.80362" stroke-linecap="round" stroke-linejoin="round"/>
<path d="M200.946 154.075C201.594 151.173 202.327 148.582 203.199 146.077C203.411 145.454 203.69 144.758 203.974 144.012C205.531 140.023 207.463 135.049 205.404 130.87C204.017 128.054 201.133 126.239 198.063 126.239C196.264 126.239 194.574 126.85 193.175 127.999C189.637 130.907 188.232 135.923 187.1 139.943L186.839 140.878C185.906 144.122 185.228 147.489 184.737 150.855" stroke="#083044" stroke-width="0.80362" stroke-linecap="round" stroke-linejoin="round"/>
<path d="M203.859 152.621C204.368 150.605 204.925 148.73 205.555 146.909C205.761 146.322 206.015 145.65 206.294 144.948C207.941 140.714 210.195 134.928 207.645 129.753C205.84 126.087 202.078 123.717 198.068 123.717C195.688 123.717 193.453 124.523 191.606 126.045C187.463 129.454 185.93 134.885 184.707 139.26L184.446 140.188C183.671 142.907 183.059 145.699 182.587 148.504" stroke="#083044" stroke-width="0.80362" stroke-linecap="round" stroke-linejoin="round"/>
<path d="M206.863 150.165C207.439 146.126 210.637 141.336 210.952 135.734C211.242 130.602 209.565 127.315 208.384 125.665C207.796 124.846 207.693 123.789 208.032 122.842C208.565 121.339 209.02 118.822 207.954 115.603" stroke="#083044" stroke-width="0.80362" stroke-linecap="round" stroke-linejoin="round"/>
<path d="M199.273 108.063C203.489 110.721 206.239 114.912 206.432 120.295C206.505 122.232 204.942 122.904 202.986 122.305C198.886 121.046 189.122 117.821 183.174 134.701C181.968 138.117 181.272 141.819 180.66 145.442" stroke="#083044" stroke-width="0.80362" stroke-linecap="round" stroke-linejoin="round"/>
<path d="M190.891 108.339C191.902 108.351 195.161 108.339 198.456 110.129C202.454 112.292 204.973 117.393 203.683 118.695C202.26 120.13 199.607 116.654 191.497 120.008C187.59 121.621 184.828 124.902 182.944 128.635C182.084 130.334 181.394 132.111 180.8 133.926C180.043 136.242 179.437 138.637 178.94 141.044" stroke="#083044" stroke-width="0.80362" stroke-linecap="round" stroke-linejoin="round"/>
<path d="M186.3 111.449C187.971 110.991 189.48 110.881 190.691 110.856C197.85 110.697 200.533 114.54 199.746 115.524C199.086 116.343 197.614 115.885 195.597 116.135C189.77 116.856 185.167 120.198 182.06 125.141C180.497 127.627 179.352 130.346 178.432 133.132C178.262 133.639 178.111 134.146 177.953 134.653" stroke="#083044" stroke-width="0.80362" stroke-linecap="round" stroke-linejoin="round"/>
<path d="M182.92 115.604C186.142 113.068 189.153 112.732 191.381 112.775C192.29 112.793 194.531 113.074 194.834 113.936C195.234 115.072 191.593 113.526 186.312 117.082C179.546 121.634 178.729 125.947 178.729 125.947" stroke="#083044" stroke-width="0.80362" stroke-linecap="round" stroke-linejoin="round"/>
<path d="M209.734 147.11C209.734 147.11 213.399 139.119 213.029 132.936C212.787 128.959 210.843 126.46 210.534 124.688C210.225 122.916 211.079 122.458 210.849 120.857" stroke="#083044" stroke-width="0.80362" stroke-linecap="round" stroke-linejoin="round"/>
<path d="M165.768 109.475V98.1846H176.955" stroke="#083044" stroke-width="0.80362" stroke-linecap="round" stroke-linejoin="round"/>
<path d="M176.955 164.951H165.768V153.66" stroke="#083044" stroke-width="0.80362" stroke-linecap="round" stroke-linejoin="round"/>
<path d="M225.246 109.475V98.1846H214.053" stroke="#083044" stroke-width="0.80362" stroke-linecap="round" stroke-linejoin="round"/>
<path d="M214.053 164.951H225.246V153.66" stroke="#083044" stroke-width="0.80362" stroke-linecap="round" stroke-linejoin="round"/>
<path d="M272.792 268.764C269.873 264.359 266.808 259.692 264.288 255.836C264.288 255.836 264.276 255.824 264.276 255.818C261.06 250.9 258.746 247.314 258.746 247.314C257.516 241.503 255.766 239.218 254.015 234.447C252.271 229.675 253.707 225.423 254.433 219.509C255.148 213.594 254.015 208.096 253.404 204.363C252.786 200.63 253.507 197.098 253.404 196.268C253.301 195.437 249.8 191.081 248.461 187.867C247.862 186.425 247.001 185.087 245.984 183.957C244.736 182.57 243.258 181.488 241.78 180.914C241.023 180.621 240.327 180.45 239.691 180.364C238.055 180.126 236.729 180.395 235.402 180.395C233.549 180.395 229.648 177.181 227.074 176.668C226.596 176.576 226.117 176.503 225.626 176.466H225.608C223.482 176.265 221.253 176.491 218.746 176.668C216.281 176.833 213.361 174.493 211.035 173.747C211.023 173.747 211.011 173.735 210.993 173.729C210.417 173.552 209.872 173.466 209.388 173.552C206.917 173.967 202.289 174.383 202.289 174.383C202.289 174.383 201.877 171.169 201.671 166.807C201.635 166.049 201.58 165.322 201.514 164.607V164.589C201.278 161.901 200.89 159.494 200.829 157.294C200.811 156.72 200.811 156.152 200.847 155.602C201.047 152.498 200.956 150.06 200.86 145.319C200.86 145.154 200.86 144.989 200.847 144.818C200.817 143.334 200.829 141.916 200.757 140.633C200.587 137.53 199.903 135.238 196.844 134.756C194.167 134.34 192.313 135.691 191.187 140.151C190.054 144.617 189.23 144.299 188.927 150.836C188.612 157.374 187.177 161.528 187.383 164.846C187.583 168.163 186.868 174.597 186.868 174.597C185.638 173.974 184.5 174.493 184.288 175.012C184.076 175.531 183.167 180.615 182.44 184.25C181.798 187.476 178.891 190.457 177.813 192.681C177.801 192.7 177.795 192.718 177.789 192.736C177.667 192.993 177.571 193.243 177.51 193.482C176.892 195.76 177.201 200.642 177.201 206.868C177.201 213.093 175.657 219.527 177.201 223.675C177.51 224.5 177.976 225.264 178.564 225.997C180.932 228.948 185.275 231.496 189.236 236.225C194.173 242.139 197.668 246.501 200.963 248.474C203.319 249.88 204.354 251.022 204.784 252.537C204.784 252.549 204.784 252.556 204.784 252.556C204.954 253.154 205.027 253.814 205.057 254.566C205.099 255.885 205.808 256.9 207.013 258.58C208.231 260.278 209.945 262.661 211.962 266.736C213.282 269.394 215.299 274.465 217.419 280.061L272.81 268.783L272.792 268.764Z" fill="white"/>
<path opacity="0.4" d="M200.836 155.597C200.8 156.147 200.794 156.715 200.818 157.289C196.887 156.538 189.298 158.493 189.183 160.833C189.049 163.686 188.704 170.431 190.146 172.001C191.587 173.571 194.67 174.579 194.67 174.579C194.434 174.598 194.21 174.628 193.992 174.671H193.98C193.955 174.671 193.925 174.683 193.907 174.689C192.877 174.909 192.023 175.422 191.333 176.15C188.329 179.265 188.195 186.163 189.183 189.481C193.301 203.27 186.627 214.188 184.276 212.868C181.92 211.555 181.714 199.69 182.429 196.91C183.15 194.13 183.059 191.925 183.059 191.925C182.011 191.57 179.806 192.09 177.777 192.719C177.789 192.701 177.796 192.682 177.802 192.664C178.88 190.44 181.787 187.458 182.429 184.233C183.15 180.597 184.064 175.514 184.276 174.995C184.488 174.475 185.621 173.956 186.857 174.579C186.857 174.579 187.571 168.146 187.372 164.828C187.166 161.511 188.601 157.356 188.916 150.819C189.225 144.282 190.043 144.599 191.175 140.133C192.302 135.667 194.155 134.323 196.833 134.738C199.897 135.215 200.576 137.506 200.745 140.616C200.4 140.298 200.031 139.981 199.625 139.706C198.613 139.003 197.438 138.514 196.221 138.685C194.803 138.887 193.556 140.317 192.774 141.844C191.642 144.043 191.454 146.42 193.047 145.614C194.852 144.703 198.577 145.003 200.848 145.308C200.945 150.055 201.042 152.487 200.836 155.591V155.597Z" fill="url(#paint5_linear_384_25803)"/>
<path opacity="0.4" d="M205.039 254.547C205.015 253.796 204.942 253.136 204.766 252.537C204.766 252.537 204.766 252.537 204.766 252.519C204.336 251.004 203.301 249.861 200.945 248.456C197.656 246.482 194.155 242.126 189.218 236.206C185.263 231.477 180.914 228.929 178.546 225.979C181.526 227.61 185.572 226.773 186.85 229.345C188.703 233.066 197.413 238.699 197.413 238.699C205.917 247.203 205.039 254.541 205.039 254.541V254.547Z" fill="url(#paint6_linear_384_25803)"/>
<path opacity="0.4" d="M210.981 173.724C209.982 173.523 207.269 180.268 207.008 182.663C206.33 188.87 209.485 208.005 205.421 207.578C203.743 207.4 201.775 198.462 201.654 194.295C201.29 181.636 201.793 176.382 201.793 176.382C201.793 176.382 200.891 169.374 201.496 164.603C201.563 165.317 201.617 166.044 201.654 166.802C201.86 171.158 202.272 174.378 202.272 174.378C202.272 174.378 206.899 173.962 209.37 173.547C209.861 173.461 210.4 173.547 210.975 173.724H210.981Z" fill="url(#paint7_linear_384_25803)"/>
<path opacity="0.4" d="M225.603 176.467C223.417 176.668 221.212 178.825 219.425 179.216C217.233 179.687 213.217 174.713 211.03 173.748C213.362 174.493 216.276 176.833 218.741 176.668C221.248 176.497 223.477 176.271 225.603 176.467Z" fill="url(#paint8_linear_384_25803)"/>
<path opacity="0.4" d="M239.685 180.364C238.898 181.226 237.45 183.755 237.099 184.897C235.336 190.64 237.002 212.378 234.161 208.823C230.46 204.198 234.325 188.16 231.629 182.032C230.769 180.071 227.729 176.937 227.062 176.674C229.637 177.187 233.543 180.401 235.391 180.401C236.717 180.401 238.05 180.132 239.679 180.37L239.685 180.364Z" fill="url(#paint9_linear_384_25803)"/>
<path opacity="0.4" d="M264.277 255.825C261.394 252.544 258.377 249.429 256.397 248.249C251.587 245.396 250.206 242.439 249.794 237.509C249.383 232.572 250.618 232.688 252.06 227.819C253.501 222.943 250.824 216.919 251.03 218.221C251.23 219.522 248.971 228.546 247.299 228.986C245.627 229.426 245.064 223.353 244.858 218.398C244.652 213.443 247.329 190.361 246.578 185.852C246.457 185.125 246.251 184.502 245.972 183.964C246.99 185.094 247.856 186.426 248.45 187.874C249.788 191.088 253.283 195.45 253.392 196.275C253.495 197.106 252.774 200.631 253.392 204.37C254.004 208.103 255.137 213.602 254.422 219.516C253.701 225.43 252.26 229.682 254.004 234.454C255.754 239.225 257.505 241.51 258.735 247.321C258.735 247.321 261.054 250.907 264.264 255.825H264.277Z" fill="url(#paint10_linear_384_25803)"/>
<path opacity="0.4" d="M220.86 188.747C221.957 189.908 222.641 205.091 223.259 208.824C223.877 212.557 221.957 221.501 220.86 218.795C219.764 216.088 216.403 184.025 220.86 188.747Z" fill="url(#paint11_linear_384_25803)"/>
<path d="M216.59 277.918C214.773 273.183 213.095 269.034 211.944 266.719C209.927 262.644 208.213 260.261 206.996 258.562C205.797 256.882 205.082 255.874 205.039 254.548C205.015 253.797 204.943 253.137 204.767 252.538C204.767 252.538 204.767 252.538 204.767 252.52C204.337 251.005 203.301 249.862 200.945 248.457C197.656 246.484 194.155 242.127 189.219 236.207C185.264 231.478 180.915 228.931 178.546 225.98C177.959 225.247 177.492 224.477 177.184 223.658C175.639 219.51 177.184 213.076 177.184 206.85C177.184 200.625 176.869 195.749 177.492 193.464C177.553 193.226 177.656 192.975 177.771 192.719C177.783 192.701 177.789 192.682 177.795 192.664C178.873 190.44 181.781 187.458 182.423 184.233C183.144 180.597 184.058 175.514 184.27 174.995C184.482 174.475 185.615 173.956 186.85 174.579C186.85 174.579 187.565 168.146 187.365 164.828C187.159 161.511 188.595 157.356 188.91 150.819C189.219 144.282 190.036 144.599 191.169 140.133C192.296 135.667 194.149 134.323 196.826 134.738C199.891 135.215 200.569 137.506 200.739 140.616C200.812 141.899 200.794 143.316 200.83 144.801C200.83 144.972 200.83 145.143 200.842 145.302C200.939 150.049 201.036 152.481 200.83 155.585C200.794 156.134 200.787 156.703 200.812 157.277C200.872 159.476 201.26 161.884 201.496 164.572V164.59C201.563 165.305 201.617 166.032 201.654 166.79C201.86 171.146 202.271 174.366 202.271 174.366C202.271 174.366 206.899 173.95 209.37 173.535C209.861 173.449 210.4 173.535 210.975 173.712C210.993 173.712 211.006 173.724 211.018 173.73C213.35 174.475 216.263 176.815 218.728 176.651C221.236 176.479 223.465 176.253 225.591 176.449H225.609C226.1 176.492 226.578 176.559 227.056 176.651C229.631 177.164 233.537 180.377 235.385 180.377C236.711 180.377 238.044 180.109 239.673 180.347C240.315 180.438 241.006 180.603 241.763 180.897C243.241 181.471 244.719 182.546 245.966 183.939C246.984 185.07 247.85 186.401 248.444 187.849C249.782 191.063 253.277 195.425 253.386 196.25C253.489 197.081 252.768 200.606 253.386 204.345C253.998 208.078 255.13 213.577 254.416 219.491C253.695 225.405 252.253 229.658 253.998 234.429C255.748 239.201 257.499 241.486 258.728 247.296C258.728 247.296 261.048 250.883 264.258 255.801C264.258 255.801 264.258 255.813 264.27 255.819C266.505 259.234 269.164 263.297 271.775 267.244" stroke="#083044" stroke-width="0.80362" stroke-linecap="round" stroke-linejoin="round"/>
<path d="M186.85 174.585C186.85 179.149 186.438 184.819 185.753 187.171C185.069 189.523 185.535 197.404 184.27 200.728" stroke="#083044" stroke-width="0.80362" stroke-linecap="round" stroke-linejoin="round"/>
<path d="M189.182 178.184C189.182 178.184 192.337 174.586 194.669 174.586C197.001 174.586 199.333 176.107 201.798 176.382C204.27 176.657 206.838 174.818 209.206 174.378" stroke="#083044" stroke-width="0.80362" stroke-linecap="round" stroke-linejoin="round"/>
<path d="M190.963 161.535C190.963 161.535 195.215 159.965 197.407 161.535" stroke="#083044" stroke-width="0.80362" stroke-linecap="round" stroke-linejoin="round"/>
<path d="M194.185 159.506C194.185 159.506 195.487 159.152 197.407 160.087" stroke="#083044" stroke-width="0.80362" stroke-linecap="round" stroke-linejoin="round"/>
<path d="M193.052 148.441C193.052 148.441 195.214 147.885 197.413 148.441" stroke="#083044" stroke-width="0.80362" stroke-linecap="round" stroke-linejoin="round"/>
<path d="M177.801 192.669C177.801 192.669 180.545 191.325 181.641 191.185" stroke="#083044" stroke-width="0.80362" stroke-linecap="round" stroke-linejoin="round"/>
<path d="M185.003 196.916C185.003 196.916 183.374 199.488 183.053 200.735" stroke="#083044" stroke-width="0.80362" stroke-linecap="round" stroke-linejoin="round"/>
<path d="M193.052 137.237C193.052 137.237 192.398 142.522 193.052 142.993C193.707 143.463 198.782 143.903 199.194 142.993C199.606 142.082 199.685 138.209 199.685 138.209C199.685 138.209 196.65 132.954 193.052 137.237Z" stroke="#083044" stroke-width="0.80362" stroke-linecap="round" stroke-linejoin="round"/>
<path d="M182.429 184.238C182.429 184.238 186.632 182.1 186.735 179.039C186.838 175.978 185.596 176.009 184.028 175.99" stroke="#083044" stroke-width="0.80362" stroke-linecap="round" stroke-linejoin="round"/>
<path d="M248.013 191.185C248.152 196.023 246.777 210.137 246.644 212.214C246.505 214.291 246.644 219.594 246.644 219.594" stroke="#083044" stroke-width="0.80362" stroke-linecap="round" stroke-linejoin="round"/>
<path d="M217.982 180.108C222.507 186.756 217.982 184.232 220.859 215.947" stroke="#083044" stroke-width="0.80362" stroke-linecap="round" stroke-linejoin="round"/>
<path d="M258.746 247.314C258.746 247.314 254.736 244.167 254.052 242.371" stroke="#083044" stroke-width="0.80362" stroke-linecap="round" stroke-linejoin="round"/>
<path d="M202.756 245.823C203.955 247.839 204.724 252.251 204.761 252.519C204.761 252.532 204.761 252.538 204.761 252.538" stroke="#083044" stroke-width="0.80362" stroke-linecap="round" stroke-linejoin="round"/>
</g>
</g>
</g>
<defs>
<filter id="filter0_d_384_25803" x="-57.5793" y="-99.1047" width="502.146" height="502.146" filterUnits="userSpaceOnUse" color-interpolation-filters="sRGB">
<feFlood flood-opacity="0" result="BackgroundImageFix"/>
<feColorMatrix in="SourceAlpha" type="matrix" values="0 0 0 0 0 0 0 0 0 0 0 0 0 0 0 0 0 0 127 0" result="hardAlpha"/>
<feOffset/>
<feGaussianBlur stdDeviation="18.9176"/>
<feComposite in2="hardAlpha" operator="out"/>
<feColorMatrix type="matrix" values="0 0 0 0 0 0 0 0 0 0 0 0 0 0 0 0 0 0 0.15 0"/>
<feBlend mode="normal" in2="BackgroundImageFix" result="effect1_dropShadow_384_25803"/>
<feBlend mode="normal" in="SourceGraphic" in2="effect1_dropShadow_384_25803" result="shape"/>
</filter>
<filter id="filter1_d_384_25803" x="-21.0715" y="-62.5969" width="429.13" height="429.13" filterUnits="userSpaceOnUse" color-interpolation-filters="sRGB">
<feFlood flood-opacity="0" result="BackgroundImageFix"/>
<feColorMatrix in="SourceAlpha" type="matrix" values="0 0 0 0 0 0 0 0 0 0 0 0 0 0 0 0 0 0 127 0" result="hardAlpha"/>
<feOffset/>
<feGaussianBlur stdDeviation="18.9176"/>
<feComposite in2="hardAlpha" operator="out"/>
<feColorMatrix type="matrix" values="0 0 0 0 0 0 0 0 0 0 0 0 0 0 0 0 0 0 0.15 0"/>
<feBlend mode="normal" in2="BackgroundImageFix" result="effect1_dropShadow_384_25803"/>
<feBlend mode="normal" in="SourceGraphic" in2="effect1_dropShadow_384_25803" result="shape"/>
</filter>
<filter id="filter2_d_384_25803" x="17.0955" y="-24.4289" width="352.796" height="352.796" filterUnits="userSpaceOnUse" color-interpolation-filters="sRGB">
<feFlood flood-opacity="0" result="BackgroundImageFix"/>
<feColorMatrix in="SourceAlpha" type="matrix" values="0 0 0 0 0 0 0 0 0 0 0 0 0 0 0 0 0 0 127 0" result="hardAlpha"/>
<feOffset/>
<feGaussianBlur stdDeviation="18.9176"/>
<feComposite in2="hardAlpha" operator="out"/>
<feColorMatrix type="matrix" values="0 0 0 0 0 0 0 0 0 0 0 0 0 0 0 0 0 0 0.15 0"/>
<feBlend mode="normal" in2="BackgroundImageFix" result="effect1_dropShadow_384_25803"/>
<feBlend mode="normal" in="SourceGraphic" in2="effect1_dropShadow_384_25803" result="shape"/>
</filter>
<linearGradient id="paint0_linear_384_25803" x1="0" y1="193" x2="386" y2="193" gradientUnits="userSpaceOnUse">
<stop stop-color="#05A0C7"/>
<stop offset="1" stop-color="#09D1C7"/>
</linearGradient>
<linearGradient id="paint1_linear_384_25803" x1="406.732" y1="51.3159" x2="-19.7442" y2="252.621" gradientUnits="userSpaceOnUse">
<stop stop-color="#D7D7D7"/>
<stop offset="0.5" stop-color="white"/>
<stop offset="1" stop-color="#D7D7D7"/>
</linearGradient>
<linearGradient id="paint2_linear_384_25803" x1="370.224" y1="68.5484" x2="16.7637" y2="235.389" gradientUnits="userSpaceOnUse">
<stop stop-color="#D7D7D7"/>
<stop offset="0.5" stop-color="white"/>
<stop offset="1" stop-color="#D7D7D7"/>
</linearGradient>
<linearGradient id="paint3_linear_384_25803" x1="332.057" y1="86.5649" x2="54.9306" y2="217.374" gradientUnits="userSpaceOnUse">
<stop stop-color="#D7D7D7"/>
<stop offset="0.5" stop-color="white"/>
<stop offset="1" stop-color="#D7D7D7"/>
</linearGradient>
<linearGradient id="paint4_linear_384_25803" x1="229.874" y1="131.568" x2="161.14" y2="131.568" gradientUnits="userSpaceOnUse">
<stop stop-color="#09D1C7"/>
<stop offset="1" stop-color="#05A0C7"/>
</linearGradient>
<linearGradient id="paint5_linear_384_25803" x1="200.958" y1="173.822" x2="177.777" y2="173.822" gradientUnits="userSpaceOnUse">
<stop stop-color="#09D1C7"/>
<stop offset="1" stop-color="#05A0C7"/>
</linearGradient>
<linearGradient id="paint6_linear_384_25803" x1="205.065" y1="240.263" x2="178.546" y2="240.263" gradientUnits="userSpaceOnUse">
<stop stop-color="#09D1C7"/>
<stop offset="1" stop-color="#05A0C7"/>
</linearGradient>
<linearGradient id="paint7_linear_384_25803" x1="210.981" y1="186.094" x2="201.287" y2="186.094" gradientUnits="userSpaceOnUse">
<stop stop-color="#09D1C7"/>
<stop offset="1" stop-color="#05A0C7"/>
</linearGradient>
<linearGradient id="paint8_linear_384_25803" x1="225.603" y1="176.498" x2="211.03" y2="176.498" gradientUnits="userSpaceOnUse">
<stop stop-color="#09D1C7"/>
<stop offset="1" stop-color="#05A0C7"/>
</linearGradient>
<linearGradient id="paint9_linear_384_25803" x1="239.685" y1="192.944" x2="227.062" y2="192.944" gradientUnits="userSpaceOnUse">
<stop stop-color="#09D1C7"/>
<stop offset="1" stop-color="#05A0C7"/>
</linearGradient>
<linearGradient id="paint10_linear_384_25803" x1="264.277" y1="219.895" x2="244.847" y2="219.895" gradientUnits="userSpaceOnUse">
<stop stop-color="#09D1C7"/>
<stop offset="1" stop-color="#05A0C7"/>
</linearGradient>
<linearGradient id="paint11_linear_384_25803" x1="223.379" y1="203.785" x2="218.612" y2="203.785" gradientUnits="userSpaceOnUse">
<stop stop-color="#09D1C7"/>
<stop offset="1" stop-color="#05A0C7"/>
</linearGradient>
<clipPath id="clip0_384_25803">
<rect width="386" height="386" fill="white" transform="translate(0 -41.5254)"/>
</clipPath>
<clipPath id="clip1_384_25803">
<rect width="250.752" height="255.688" fill="white" transform="translate(67.8564 24.3564)"/>
</clipPath>
</defs>
</svg>
