<svg width="82" height="36" viewBox="0 0 82 36" fill="none" xmlns="http://www.w3.org/2000/svg">
<g style="mix-blend-mode:luminosity" opacity="0.6" clip-path="url(#clip0_2829_10885)">
<path d="M61.9135 38.6652C73.4069 27.1718 73.4069 8.53723 61.9135 -2.95619C50.4201 -14.4496 31.7856 -14.4496 20.2921 -2.95619C8.79871 8.53723 8.79871 27.1718 20.2921 38.6652C31.7856 50.1586 50.4201 50.1586 61.9135 38.6652Z" fill="#F5F5F5"/>
<path d="M24.6971 16.9688C24.5232 16.9777 24.5262 17.2476 24.6072 17.3136C24.6611 17.3586 25.03 17.5715 25.0809 17.4035C25.1079 17.3046 24.91 16.9957 24.6941 16.9688H24.6971Z" fill="#E0E0E0"/>
<path d="M25.4283 16.4862C25.5153 16.753 26.4988 17.1818 26.5588 17.0739C26.5918 17.0109 25.8212 15.0649 25.8092 15.0529C25.7102 14.9149 25.4044 14.4951 24.6037 14.3812C24.139 14.3722 23.7462 14.5521 23.7432 14.5611C23.7791 14.6301 24.115 14.696 24.4298 14.6391C24.8796 14.5551 25.0865 14.765 25.0895 14.84C25.0565 14.8699 24.9876 14.9059 24.8916 14.795C24.8856 14.795 24.8796 14.798 24.8736 14.801C24.8256 14.9869 25.0985 15.1668 25.2814 15.2867C25.6143 15.5086 25.6113 15.5956 25.6053 15.8535C25.6023 15.9824 25.6023 16.0604 25.6442 16.1833C25.6742 16.2703 25.6952 16.3332 25.6862 16.3722C25.6502 16.4982 25.5153 16.4442 25.4313 16.4892L25.4283 16.4862Z" fill="#E0E0E0"/>
<path d="M26.604 18.2914C26.688 18.3873 26.5381 18.5493 26.679 18.6182C26.9279 18.7352 27.0208 18.3753 27.2517 18.4323C27.2757 18.4383 27.2997 18.4473 27.3716 18.4893C27.7435 18.6962 28.4181 18.9571 28.4211 18.9571C28.4571 18.9631 28.4811 18.9661 28.4931 18.9361C28.5411 18.8221 28.4781 18.6932 28.5501 18.5852C28.772 18.2494 26.9488 17.4248 26.8229 17.4038C26.7899 17.4038 26.7839 17.4038 26.7689 17.4098C26.7629 17.4278 26.7659 17.4488 26.7779 17.4728C26.9638 17.8266 26.7689 18.0935 26.7509 18.1025C26.706 18.1205 26.562 18.0425 26.3701 17.9375C26.0103 17.7426 25.9683 17.7426 25.9443 17.7396C25.9443 17.7486 25.9443 17.7606 25.9503 17.7666C26.1333 17.9855 26.4181 18.0815 26.604 18.2974V18.2914Z" fill="#E0E0E0"/>
<path d="M38.1328 2.03271C37.9499 2.03571 38.2557 2.34456 38.3187 2.40753C38.7235 2.80634 38.9814 2.62043 38.9814 2.61743C39.0863 2.50648 38.3187 2.0657 38.1298 2.03271H38.1328Z" fill="#E0E0E0"/>
<path d="M26.1026 -7.46316L17.7697 -0.0837355C15.3708 2.83985 13.7246 7.04382 13.7246 7.04382V7.86542C13.7706 7.88941 13.9065 8.86993 14.1324 10.807C14.0455 10.777 13.9315 10.741 13.8416 10.714C13.8805 11.0709 14.4623 12.828 14.4683 12.843C14.6152 12.7351 14.7681 12.6241 14.5222 11.7545C14.4083 11.3587 14.2823 10.9119 14.4653 9.02886C14.8641 9.60758 14.8311 9.88344 14.7891 10.2313C14.7591 10.4802 14.7231 10.759 14.7681 10.9599C14.8641 11.3857 15.023 11.7935 15.1369 12.2133C15.2839 12.759 15.7097 13.1848 15.7936 13.7576C15.8596 14.2193 15.5807 14.7051 15.8956 15.1459C15.9375 15.2059 16.0185 15.2688 16.0725 15.3168C16.1744 15.4038 16.2944 15.5417 16.4083 15.6167C16.8011 15.8775 17.2179 16.1024 17.6137 16.3603C18.0185 16.6242 18.5793 16.5342 18.9271 16.933C19.4588 17.5447 19.8367 17.9036 20.0605 18.0095C20.1115 18.0335 20.1775 18.0665 20.2285 18.0935C21.7157 18.8611 21.6828 21.026 23.4159 21.5658C24.6243 20.5613 24.5584 22.2525 24.4744 23.0261C24.4564 23.188 24.1945 23.5328 23.6888 24.0606C23.6888 24.0606 22.6693 25.6228 22.7353 26.0036C22.7442 26.0666 22.7592 26.1476 22.7742 26.2105C23.0441 27.242 24.5494 30.3305 24.5614 30.3545C24.9542 31.0382 25.6768 31.416 26.1206 32.0517C26.4594 32.5345 26.5734 33.2931 26.4415 34.1837C26.4355 34.2257 25.9257 38.4986 26.7053 41.2033C27.6919 44.6336 29.6859 44.9934 29.7039 44.9934C28.7124 43.944 28.3635 43.1833 28.6574 42.7116C28.5534 42.4717 28.4955 41.859 28.4835 40.8734C28.5394 40.8734 28.6794 40.9184 28.9033 41.0084C28.9093 40.9844 28.8423 40.7325 28.7024 40.2527C28.9802 40.1388 29.1381 40.0039 29.1761 39.8479C29.2151 39.8359 29.2271 39.8299 29.2631 39.818C29.7728 40.2018 30.1297 39.797 30.0577 39.5331L29.9737 39.2422C31.2691 39.659 32.9063 36.7474 32.9213 36.7175C33.2452 36.3876 33.8119 36.3216 34.0398 36.3097C34.5615 36.2797 34.7564 35.7489 35.1792 35.569C35.3711 35.488 35.5001 35.53 35.605 35.584C35.7849 35.674 35.7969 35.68 35.8839 35.512C36.0728 35.1402 36.1747 34.7384 36.3307 34.3546C36.4176 34.1387 36.3666 33.8718 36.5885 33.7099C36.8434 33.524 36.9364 33.452 36.8764 33.2481C36.8644 33.2122 36.8584 33.1552 36.8614 33.1192C38.0728 33.1042 38.8614 32.0757 38.8674 32.0667C38.8734 32.0547 38.8794 32.0367 38.8824 32.0217C38.9034 31.8868 38.8315 31.7549 38.8525 31.6169C38.8824 31.41 39.2333 31.2361 39.0354 31.0292C38.8914 30.8793 38.6755 30.9482 38.5166 30.8523C38.0009 30.5344 37.803 29.9197 37.3262 29.5659C36.6125 29.0382 35.8389 28.6064 35.1013 28.1206C34.6935 27.7818 34.8404 27.224 34.6605 26.8102C34.2797 26.3155 34.0938 25.6618 33.68 25.188C33.1402 24.5643 32.2616 24.4054 31.7369 23.7637C31.3201 23.257 31.1582 22.5853 30.6844 22.1145C30.6154 22.0456 30.5105 21.9676 30.4265 21.9226C27.8238 20.5433 25.7698 19.4548 24.7593 21.5478C24.1476 20.6812 21.7307 20.8641 22.3994 19.5777C22.8042 18.8011 22.6663 18.0755 22.6633 18.0695C22.1385 17.5237 21.3769 17.6317 20.7472 17.3618C21.0531 16.944 21.193 16.6082 21.167 16.3543C21.5048 15.9865 21.7767 15.6177 21.9826 15.2478C21.8987 15.0979 21.131 13.8595 20.0545 16.1954C19.6947 16.0425 19.2749 16.4772 18.9391 16.0874C18.1475 15.1729 18.0635 14.3333 18.0845 13.9135C18.1085 13.3947 18.6332 13.1669 18.7772 12.7201C18.8701 12.4352 18.5373 12.1623 18.7502 11.8745C19.026 11.4997 20.0785 10.9839 20.3064 10.9089C20.7172 10.774 21.8747 11.4967 21.8807 11.5057C21.9256 11.4907 21.9826 11.4697 22.0246 11.4517C21.9646 11.3137 21.8357 11.2268 21.7577 11.1009C21.7817 11.0619 21.8117 11.0109 21.8357 10.9719C22.1385 10.9149 24.1955 11.4427 24.2015 11.4487C24.8972 12.2043 23.9527 13.2238 24.6063 13.9855C25.9317 13.3048 24.6963 11.8535 25.23 10.882C25.7818 9.88044 26.9332 10.0064 27.7638 9.53561C27.7518 9.52961 27.7488 9.52961 27.7488 9.52961C27.7338 9.49063 27.7128 9.43966 27.6978 9.40067C27.7158 9.36469 27.7398 9.31371 27.7578 9.27773C27.7998 9.27773 27.8538 9.28373 27.8958 9.28373C27.9167 9.23875 27.9437 9.17878 27.9647 9.1338C27.9317 9.10682 27.8898 9.07083 27.8568 9.04385L28.7383 7.16376C28.6514 7.45761 28.3425 8.33619 28.3425 8.33619C28.4185 8.3182 28.6334 7.89041 28.9872 7.05281C29.0112 7.21473 29.0952 7.36466 29.0712 7.53558C29.353 7.29569 29.431 6.88189 29.7938 6.71397C29.8028 6.70798 31.1702 6.48908 31.2511 6.52507C31.559 5.87938 31.9628 5.44659 32.4625 5.22669C32.5245 5.25268 33.2132 5.14074 34.5285 4.89086C34.4986 4.91784 34.4626 4.95683 34.4326 4.98681C34.5045 5.04678 34.6155 5.12175 34.7055 5.14873C34.6905 5.19071 34.6695 5.24768 34.6545 5.28966C33.8649 5.51755 33.4431 5.69547 33.3891 5.82341C34.0278 6.06029 36.4086 5.60451 36.3697 4.591C36.0338 4.67796 35.9049 5.0078 35.656 5.19671C35.4641 5.06477 35.3112 4.95383 35.1822 4.86387C35.3351 4.88486 35.4971 4.76792 35.4971 4.76792C35.4971 4.76792 35.5001 4.76192 35.5031 4.76192C35.5031 4.76192 35.5031 4.75892 35.5031 4.75592C35.4911 4.74993 35.4881 4.74693 35.4491 4.74093C35.1792 4.68995 35.0563 4.585 35.0143 4.54003C34.9094 4.43208 34.9184 4.35112 34.9633 4.24917C34.9813 4.21019 34.9753 4.20419 34.9723 4.19819C34.9723 4.19819 34.9663 4.19819 34.9633 4.19819C34.9423 4.21319 34.7924 4.3871 34.8134 4.56102C34.6065 4.35712 34.6095 4.21918 34.6185 3.88634C34.4176 3.72142 34.4086 3.69444 34.3516 3.53851C34.7324 3.5655 35.0053 3.58649 35.2032 3.26265C35.1253 3.10472 34.0818 3.25165 32.0727 3.70343C33.622 2.92181 35.0403 2.55899 36.3277 2.61496C36.6305 3.02576 38.7265 2.76789 39.1733 2.36908C39.1653 2.20516 39.2413 2.03224 39.4012 1.85033C39.3922 1.79336 39.3892 1.76637 39.3802 1.7064C39.2423 1.62244 39.1073 1.53848 38.9694 1.45452C38.8464 1.40954 38.8465 1.40954 38.8435 1.40954C38.7535 1.38855 38.4806 1.32258 37.9049 1.46352C37.9019 1.42154 37.8959 1.36756 37.8929 1.32558C38.1088 1.17266 38.1838 1.16966 38.7865 1.15167H38.7925C38.8255 1.14567 38.8704 1.14267 38.8974 1.12168C38.9424 1.06771 38.6545 0.56695 38.0878 0.521972C38.0019 0.513976 37.9409 0.495984 37.9049 0.467998C37.9049 0.354053 38.0248 0.273092 37.9859 0.150151C37.9319 -0.0147686 37.728 -0.0507507 37.677 -0.215671C37.656 -0.284637 37.701 -0.323619 37.8149 -0.40458C37.9289 -0.484541 37.9549 -0.702435 37.8929 -1.05826C37.737 -1.95383 37.4871 -2.24169 37.1433 -1.92185C37.0623 -1.84688 37.1523 -1.70895 37.0413 -1.64598C36.9154 -1.57401 36.7835 -1.72694 36.6575 -1.63998C36.4636 -1.50605 36.3467 -1.44008 36.3067 -1.44208C35.9289 -1.45707 35.7879 -1.81989 35.5121 -1.99081C35.4911 -2.10176 35.8239 -2.67148 36.0578 -2.75544C35.9049 -2.87538 35.689 -2.85439 35.539 -2.98033C35.5031 -3.01032 35.4881 -3.0463 35.4671 -3.15725C35.4581 -3.19623 35.4431 -3.28319 35.0623 -3.57704C34.9783 -3.64301 34.9543 -3.64901 34.8794 -3.667C34.4506 -3.69999 34.0578 -3.93387 33.617 -3.90988C33.557 -3.52007 32.9933 -3.34915 33.1642 -2.86339C33.0443 -2.70447 32.7894 -2.72546 32.7024 -2.52156C32.6035 -2.28467 32.7984 -2.05678 32.7234 -1.8169C32.7234 -1.8079 32.4086 -0.86036 31.8209 -0.926328C31.6919 -0.94132 31.3921 -0.950315 31.3801 -0.731421C31.3411 -0.707433 31.3231 -0.698438 31.1852 -0.65346C30.8493 -0.158699 30.9693 0.647911 30.1956 0.860808C30.1057 0.494986 29.7908 0.288085 29.5899 0.000224113C29.8868 -0.377593 29.8778 -0.554508 29.8688 -0.782397C29.9228 -0.800389 30.0127 -0.836371 30.0667 -0.854362C30.0667 -0.87835 30.0907 -0.923328 30.0937 -0.950315C30.0487 -0.974304 29.9887 -0.998292 29.9408 -1.01628C29.7728 -1.35212 29.383 -1.23818 29.1342 -1.40909C28.8793 -1.58301 28.8373 -1.91885 28.6034 -2.10476C28.5614 -2.13774 28.5045 -2.17672 28.4595 -2.20071C28.2286 -2.32665 27.9917 -2.20971 27.7578 -2.2217C27.7218 -2.27967 27.7388 -2.50556 27.8088 -2.89937C27.8328 -3.03731 27.6958 -3.17224 27.398 -3.30418C27.5029 -3.93687 29.3321 -4.5036 30.1147 -4.74648C30.1087 -4.96237 29.8718 -4.95038 29.7878 -5.08531C30.6414 -4.94538 31.3831 -5.03934 32.0128 -5.36718C31.518 -5.45114 31.413 -5.46613 31.1102 -5.81696C31.617 -5.81996 32.0967 -5.33419 32.6215 -5.739C32.5945 -5.77498 32.5465 -5.81396 32.5075 -5.83195C32.5075 -5.83195 32.8284 -6.02686 33.0113 -5.79297C33.599 -5.79897 33.9828 -5.83795 34.1627 -5.90992C34.2197 -5.9339 34.2947 -5.97588 34.3426 -6.01486C34.4776 -6.12581 34.3906 -6.32671 34.5165 -6.44366C34.6335 -6.54861 34.7924 -6.47964 34.9183 -6.54561C34.9933 -6.59358 35.0293 -6.67155 35.0923 -6.73152C35.0863 -6.74051 34.6665 -7.64308 34.1087 -6.7705C33.62 -6.68054 32.9963 -5.83195 32.6574 -6.44666C32.8044 -6.72252 33.4611 -6.70453 33.2871 -7.09134C32.9303 -7.08235 32.6934 -6.81248 32.3906 -6.68654C32.3906 -6.86345 32.8554 -7.16931 32.8613 -7.1723C32.8613 -7.1723 32.7644 -7.21328 32.5705 -7.29524C33.0782 -7.70305 33.3431 -7.93893 33.3651 -8.0029C33.3501 -8.02689 33.3261 -8.05987 33.3111 -8.08386C33.597 -8.30376 34.2607 -8.51665 35.3022 -8.72255C35.2442 -8.75054 35.1642 -8.77253 35.0623 -8.78852C33.9408 -8.91146 31.8568 -7.45717 31.8388 -7.44217C31.8418 -7.41519 31.8448 -7.3822 31.8478 -7.35821C31.9588 -7.31923 32.0757 -7.30424 32.1897 -7.27426C32.1897 -7.25327 32.1837 -7.22328 32.1837 -7.19929C31.9138 -7.16631 31.8718 -7.15731 31.7279 -7.09434L31.7069 -7.04037C31.7249 -7.02837 31.7489 -7.01338 31.7669 -7.00139C31.4131 -6.69853 30.8853 -6.74051 30.5585 -6.38369C30.4865 -6.53961 30.5954 -6.69354 30.8853 -6.84546C30.7754 -6.91943 30.4695 -6.87045 29.9678 -6.69853C29.9258 -6.68354 29.6859 -6.62957 28.9692 -6.91743C28.9452 -7.00439 28.9872 -7.09134 28.9602 -7.1753C28.3185 -7.23228 28.0217 -6.95041 27.434 -6.39268C27.431 -6.58759 27.6319 -6.67754 27.6709 -6.84846C27.335 -6.90843 26.9842 -6.74051 26.6543 -6.91443C26.8463 -7.00439 27.0921 -6.9774 27.2301 -7.1783C27.2091 -7.20829 27.2091 -7.21428 27.1881 -7.24427C27.0951 -7.22928 27.0801 -7.22628 26.8643 -7.33123C26.8523 -7.37621 26.8283 -7.43618 26.8043 -7.47516C26.6304 -7.49915 26.4924 -7.3912 26.3365 -7.35222C26.3755 -7.3882 26.4295 -7.43018 26.4744 -7.46017C26.4025 -7.43818 26.3035 -7.39819 26.1776 -7.34022C26.2635 -7.42618 26.4125 -7.53413 26.6244 -7.66407L26.1056 -7.46616C26.1056 -7.46616 23.314 -5.70601 22.1895 -4.7045C20.9181 -3.57405 19.7217 -2.46458 17.7726 -0.0867329L26.1026 -7.46316Z" fill="#E0E0E0"/>
<path d="M29.0392 19.3077C28.8533 19.3587 28.9792 19.6225 29.1531 19.7155C29.2761 19.7845 29.7169 19.8714 29.7498 19.8354C29.7678 19.8174 29.7528 19.7545 29.477 19.5476C29.1681 19.3197 29.1141 19.3137 29.0392 19.3047V19.3077Z" fill="#E0E0E0"/>
<path d="M60.6101 7.27137C60.706 7.25038 60.796 7.21739 60.8949 7.2024C61.0089 7.18741 61.1258 7.26837 61.2368 7.1904C61.2997 7.14543 61.3297 7.00449 61.3297 6.76761C61.3297 6.64767 61.3057 6.56671 61.2817 6.47975C61.2428 6.33282 61.2548 6.28784 61.3507 6.18589C61.3927 6.14091 61.4617 6.06595 61.4707 5.94601C61.4797 5.82607 61.4227 5.72112 61.3717 5.65515C61.3477 5.62216 61.3087 5.58018 61.2787 5.5502C61.1978 5.46924 61.0988 5.40927 61.0179 5.33131C60.9579 5.27433 60.9429 5.23835 60.9339 5.22036C60.9279 5.20836 60.9279 5.20537 60.9189 5.20537C60.8889 5.20537 60.1963 5.1364 60.5171 5.50222C60.5381 5.52621 60.5501 5.5382 60.6041 5.56219C60.5831 5.57119 60.5561 5.57419 60.5351 5.57719C60.2263 5.61317 60.1393 5.65515 60.0583 5.69713C60.0014 5.72411 59.9264 5.78409 59.9054 5.90703C59.9054 5.955 59.9084 6.02097 59.9954 6.10793C60.0613 6.1769 60.1573 6.19189 60.2353 6.24286C60.2293 6.24886 60.2233 6.25786 60.2173 6.26385C60.0374 6.43477 59.8215 6.80359 59.8215 6.80659C59.7375 6.95652 59.7225 7.03448 59.7525 7.11844C59.8065 7.25937 60.2443 7.36132 60.6191 7.27137H60.6101Z" fill="#E0E0E0"/>
<path d="M64.1299 16.8161C64.1599 16.8251 64.1779 16.8161 64.2079 16.8041C64.2079 16.8041 64.3758 16.7112 64.3788 16.7052C64.4058 16.6602 64.3368 16.5912 64.1959 16.5223C64.0429 16.4503 63.7761 16.3963 63.833 16.5463C63.866 16.6302 64.0429 16.7921 64.1299 16.8161Z" fill="#E0E0E0"/>
<path d="M62.1004 6.77961C62.0704 6.77362 62.0704 6.78861 62.0674 6.82159L62.2533 6.90555C62.1663 6.82159 62.1304 6.79161 62.1004 6.78261V6.77961Z" fill="#E0E0E0"/>
<path d="M69.2576 11.2149C69.5904 11.6347 69.8213 12.0665 69.9563 12.5372C69.7973 11.7936 69.6084 10.8011 69.4195 10.0664C68.532 7.14284 68.517 7.08587 67.8573 5.5776L67.1316 4.03934V4.03334C67.1017 3.97937 67.0717 3.9254 67.0417 3.87442C67.0687 3.95838 67.0777 3.98836 67.3745 4.63905C67.3056 4.56109 67.2576 4.46813 67.1976 4.38417C67.2456 4.67203 67.4345 4.88793 67.5544 5.14281C67.5394 5.1458 67.5154 5.1518 67.5005 5.1578C66.9397 4.24024 66.5409 3.23273 65.9682 2.32117C66.2771 2.70798 66.463 3.18475 66.8258 3.53558C66.7898 3.31369 65.9472 1.8444 65.3205 1.08577C64.8707 0.540034 64.8288 0.459073 64.7868 0.384109C64.8168 0.405099 64.8527 0.438083 64.8797 0.462071C64.8347 0.390106 64.8108 0.348126 64.6848 0.198198C64.6698 0.204195 64.6488 0.210193 64.6308 0.21619C64.5889 0.177209 64.5019 0.108242 64.214 -0.284568C64.244 -0.26058 64.283 -0.227595 64.313 -0.206605C64.301 -0.380521 63.7163 -0.947247 63.6683 -0.980231C63.6703 -0.92026 63.6943 -0.831303 63.7403 -0.71336C63.5274 -0.884277 63.4944 -1.18113 63.2845 -1.35205C63.2905 -1.22611 63.3924 -1.13316 63.4014 -1.00722C63.2975 -0.899271 63.2365 -0.805315 63.2185 -0.725354C63.1795 -0.542443 63.3954 0.644982 63.3954 0.653978C63.5873 1.44559 63.4944 1.66449 63.4824 1.68548C63.2885 2.0653 63.0536 2.29518 62.7777 2.37515C62.6278 2.42012 62.6158 2.4621 62.6248 2.64202C62.6248 2.666 62.7807 5.03186 63.7253 4.9419C64.0281 4.91192 64.0491 4.43515 64.0611 4.20426C64.1121 4.27622 65.0566 6.23128 65.1676 6.78301C65.2216 7.04389 65.2695 7.29277 65.4944 7.37073C65.5694 7.30476 65.7913 6.74103 65.7433 6.43218C65.6294 5.71853 65.7283 5.67655 65.9442 5.58359C66.0012 5.44266 66.0042 5.37969 65.6803 4.9539C65.5304 4.75599 65.3985 4.39817 65.2845 3.88042C65.2186 3.58356 65.5784 3.36467 65.4345 3.05282C65.1886 2.51308 65.0636 2.22922 65.0596 2.20123C65.0596 2.17424 65.0566 2.14126 65.0536 2.11427C65.0686 2.10228 65.0866 2.09028 65.0986 2.07829C65.2905 2.22522 65.8453 2.95986 65.8453 3.12778C65.8273 3.12478 65.8033 3.11879 65.7853 3.11279C65.8652 4.08032 66.0252 4.79098 66.2651 5.24476C66.5769 5.83847 67.3056 6.02138 67.6204 6.61209C67.5454 6.57311 67.4915 6.50415 67.4285 6.45017C67.4105 6.45317 67.3895 6.45917 67.3745 6.46217C67.3835 6.52813 67.4045 6.5911 67.4195 6.65407C67.1766 6.48016 66.9607 6.27326 66.6909 6.13832C66.8498 6.66907 67.1766 7.13984 67.2486 7.70357C66.9487 7.58662 67.0837 7.13684 66.7478 7.04988C66.7328 7.06188 66.7118 7.07687 66.6968 7.08886C66.6968 7.09486 66.8288 7.89547 66.8498 7.95544C66.8768 8.03641 67.0147 8.44121 66.9457 8.57614C66.8258 8.52217 66.7528 8.49418 66.7268 8.49219C66.6819 8.54016 66.6489 8.60013 66.6069 8.65111C66.6129 8.6661 66.6189 8.68709 66.6249 8.70508H66.6189C66.0631 8.4632 65.7733 8.36924 65.7493 8.42322C65.7073 8.43221 65.6504 8.44421 65.6054 8.4532C65.4644 8.28828 65.2605 8.14435 65.0416 8.01542L65.4285 8.23431C65.3775 8.15635 65.2396 7.95245 64.9007 7.85349C64.7868 7.82051 64.7598 7.81151 64.5679 7.33475C64.4269 6.98392 64.289 6.49815 64.4209 6.16831C64.4749 6.03337 64.4719 5.37669 64.322 5.30473C64.304 5.29873 63.8602 5.13981 63.8602 5.38269C63.8602 5.48764 64.0791 6.68106 64.319 7.28977C64.4179 7.53565 64.415 7.56263 64.415 7.57763C64.388 7.59262 64.382 7.59562 64.25 7.57763C64.1601 7.56263 64.0401 7.54165 63.9502 7.52665C63.7163 7.19981 63.3924 6.94194 63.2125 6.57311C63.1196 6.3842 63.0806 6.17131 62.9487 6.00039C62.7178 5.70653 62.4569 5.5716 62.322 5.51463C62.322 5.51463 62.322 5.51463 62.319 5.51463C62.5469 5.42167 63.0476 4.732 62.5858 4.54909C62.5019 4.51611 62.3999 4.49512 62.334 4.48013C62.0251 4.41416 61.9681 4.40216 61.9921 4.3242C62.0431 4.16828 62.4089 3.97037 62.196 3.88042C62.19 3.88042 61.6083 3.68551 61.4524 3.86243C61.4374 3.88042 61.4374 3.9104 61.4344 3.93439C61.3984 4.1263 61.4734 4.3182 61.4374 4.51011C61.4074 4.66903 61.2425 4.76799 61.2485 4.9419C61.2875 4.97489 61.3894 4.99887 61.6503 4.91492C61.7462 4.88493 61.8272 4.85794 61.8692 4.90292C62.0371 5.09183 61.7163 5.23276 61.7282 5.42467C61.7582 5.80848 61.9142 5.91343 62.1091 6.04837C62.4179 6.25827 62.4569 6.28225 62.5049 6.34822C62.4959 6.40519 62.4449 6.45017 62.4569 6.51314C62.4899 6.70805 62.6128 6.87597 62.6338 7.07387C62.6158 7.26578 62.4359 7.08587 62.304 6.95693C62.266 6.92095 62.185 6.87497 62.0611 6.81899C62.0611 7.06787 62.271 7.26278 62.238 7.52065C62.22 7.65859 62.0761 7.68558 61.8722 7.70956C61.8182 7.71556 61.7372 7.72456 61.7432 7.78453C61.7462 7.81751 61.7912 7.93145 62.211 8.06639C62.3849 8.12336 62.7478 8.23731 62.7238 8.36025C62.6158 8.32726 62.5588 8.33026 62.4119 8.33326C62.4119 8.34226 62.4089 8.34825 62.4119 8.37824C62.3429 8.36624 62.304 8.38424 62.259 8.40223C62.1421 8.4532 62.0821 8.57315 61.9741 8.63312C61.8392 8.70808 61.6863 8.72907 61.5513 8.79804C61.5513 8.80703 61.5453 8.82203 61.5423 8.83402C61.5813 8.86101 61.5933 8.864 62.0101 8.95696C61.9741 9.02293 61.9292 9.08889 61.8842 9.13687C61.4554 8.96296 61.4044 8.88499 61.2635 8.67809C61.2815 8.77705 61.3144 8.90898 61.3444 9.00794C61.3174 9.04692 61.2785 9.09789 61.2485 9.13387C61.1465 9.13987 61.0116 9.14287 60.9126 9.13387C60.8027 8.99394 60.6358 8.881 60.4119 8.79504C60.3789 8.82802 60.3369 8.873 60.3039 8.90598C60.3639 9.01093 60.4419 9.15187 60.5018 9.25681C60.4569 9.26881 60.3969 9.2868 60.3549 9.29879C62.199 10.5852 61.1585 12.5252 61.1405 12.5402C60.211 12.1384 59.3924 11.5297 58.4808 11.1009C58.4988 11.1999 58.5348 11.3288 58.5738 11.4188C58.5618 11.4428 57.7792 14.0185 58.07 14.2284C57.8281 14.7302 57.6932 15.003 57.6652 15.047C58.3459 15.2269 58.4868 15.2659 58.7477 15.4308C58.7157 15.7547 58.7007 15.9206 58.7027 15.9286L60.4359 15.9586C60.8827 16.0545 61.1825 15.5508 61.0776 15.104C61.6833 14.1714 61.6983 14.1714 62.4239 14.1414C62.6238 13.5957 62.7528 13.3119 62.8107 13.2899C63.1915 13.1489 63.2845 13.6227 63.5604 13.7187C63.9682 13.3588 64.28 13.1429 64.5559 13.6227C64.5679 13.6407 65.4285 15.8056 65.7283 17.0201C65.6743 17.143 65.6324 17.2959 65.6623 17.3619C65.6923 17.4339 65.8093 17.4459 65.7943 17.5478C65.7823 17.6408 65.7163 17.7187 65.7103 17.8147C65.7043 17.8926 65.7523 17.9226 65.7703 17.9346C65.7763 17.9376 65.7883 17.9436 65.8033 17.9466C65.7403 18.2315 65.5364 18.1925 64.7718 18.0366C64.8437 18.4024 65.2276 19.0771 65.2336 19.0801C65.3985 18.8612 65.3265 18.5673 65.4614 18.3364C65.5004 18.3574 65.5514 18.3814 65.5904 18.4024C65.7643 18.2705 65.8842 18.0845 66.0492 17.9466C66.0492 17.9376 66.0492 17.9316 66.0492 17.9226C66.1301 17.8926 66.2051 17.8387 66.2411 17.7427C66.2501 17.7157 66.2591 17.6797 66.2651 17.6528C66.286 17.5478 66.28 17.4429 66.301 17.3379C66.301 17.3319 66.304 17.3229 66.307 17.3169C66.334 17.4039 66.364 17.5058 66.391 17.5838C66.409 17.4518 66.418 17.3919 66.349 17.17C66.364 17.116 66.382 17.065 66.391 17.0111C66.427 16.8341 66.373 16.7952 66.316 16.7682C66.289 16.7592 66.2501 16.7532 66.2021 16.7532C66.1481 16.6063 66.0821 16.4293 66.0012 16.2075C66.0222 16.1745 66.0522 16.1295 66.0761 16.0935C66.0761 16.1145 66.0821 16.1355 66.0881 16.1535C66.0881 16.1565 66.2231 16.5073 66.2351 16.5193C66.295 16.5133 66.391 16.0905 66.421 15.8626C66.421 15.8626 66.445 15.6497 66.439 15.5358L66.7958 16.4653C66.7958 16.4653 66.7988 16.4803 66.7928 18.4804L66.9217 20.2225C66.9637 20.1385 67.0117 20.0246 67.0447 19.9376C67.1706 19.5778 67.1496 19.197 67.2006 18.8282C67.3125 18.0286 67.4155 17.6138 67.5094 17.5838C67.6954 17.6977 68.0282 18.0965 68.0012 18.4534C68.0702 18.3904 68.1571 18.3004 68.2141 18.2285C68.2591 18.2405 68.3221 18.2585 68.364 18.2705C68.8588 17.2959 68.442 16.1565 68.9248 15.1819C69.0087 15.1819 69.1227 15.2299 69.1826 15.2869C69.1527 15.3169 69.1107 15.3619 69.0807 15.3918C69.1557 15.5868 69.1946 15.6437 69.3146 15.7877C69.3006 15.9176 69.2456 16.0695 69.1497 16.2434C69.2306 16.4413 69.2246 16.6572 69.2816 16.8611C69.8753 16.7502 69.3146 15.9886 69.6084 15.6257C69.8423 15.6557 69.8573 15.7427 69.8603 15.9346C69.8243 15.9676 69.7764 16.0095 69.7404 16.0395C69.7624 16.1395 69.7594 16.3494 69.7314 16.6692C69.6954 16.6962 69.6444 16.7322 69.6084 16.7592C69.6564 17.7577 70.2201 18.7232 69.8213 19.7547C69.7794 19.7607 69.7194 19.7727 69.6744 19.7787C69.3506 19.3469 69.7014 18.4114 68.9488 18.3514C68.9158 18.4324 68.8318 18.5253 68.7568 18.5673C68.6849 18.5103 68.5859 18.4414 68.508 18.3934C68.499 18.4774 68.52 18.5943 68.5589 18.6723C68.352 18.7502 68.1691 18.5943 67.9682 18.6213C67.9202 18.7082 67.8693 18.8342 67.8393 18.9301C67.8753 18.9541 67.9203 18.9901 67.9562 19.0141C67.8423 19.5598 67.6264 20.5763 68.0822 21.347C68.1242 21.326 68.1781 21.302 68.2171 21.281C68.2321 21.239 68.2471 21.182 68.2621 21.1401C68.409 21.3889 68.376 21.7068 68.5679 21.9407C68.6279 21.8687 68.6939 21.7638 68.7299 21.6828C68.7658 21.7638 68.8408 21.8627 68.9068 21.9227C68.3191 23.9377 68.2291 24.2496 67.8243 24.7053C67.5484 24.5824 67.5244 24.5044 67.5304 24.1926C67.4525 24.1686 67.3265 24.1716 67.2546 24.2106C66.334 23.8088 66.9037 22.4654 65.9202 22.1026C65.6204 22.3665 65.6324 22.7983 65.3865 23.0891C65.3415 23.0891 65.2785 23.0951 65.2336 23.0951C65.0806 22.8732 63.6053 20.1385 63.5424 19.8267C63.5214 19.7307 63.6383 19.6078 63.7163 19.5448C63.8402 19.4469 64.0081 18.9981 64.22 18.1985C64.0401 17.9616 64.0011 17.9166 63.8842 17.7907C63.7223 17.8427 63.3984 17.7147 62.9127 17.4069C62.8257 17.4488 62.7118 17.5148 62.6338 17.5778C61.7432 16.8132 60.5138 17.6498 59.6143 16.9361C59.5063 16.8881 59.4853 16.8791 59.4643 16.8701C59.1525 16.8281 59.0475 16.8132 58.8646 16.3244C58.8227 16.2644 58.8197 16.2644 58.8197 16.2644C58.7687 16.2854 58.6967 16.3064 58.6517 16.3364C58.3759 16.5043 58.4059 16.8881 58.133 17.062C57.7942 17.2749 57.3564 17.113 57.0265 17.3589C56.9276 17.4309 56.8976 17.6108 56.8526 17.7247C56.5188 18.5383 56.2209 18.9601 55.959 18.9901C55.6082 19.0291 54.9485 19.248 54.8496 19.3289C54.5587 19.5628 52.3458 21.4639 52.3458 21.4669C52.0669 22.0846 52.2978 22.7683 52.0909 23.395C51.917 23.9197 51.0834 23.9077 51.1074 24.5944C51.1404 25.6259 51.3353 26.6394 51.4462 27.6589C51.4942 28.0877 52.3698 29.8119 52.6277 29.8778C53.911 30.1957 55.2754 30.1507 56.4988 30.7354C56.5378 30.7534 56.5737 30.8044 56.5977 30.8434C56.7597 31.1162 56.4748 31.4041 56.6307 31.677C56.7836 31.9438 57.1015 31.9498 57.3234 32.1148C57.3174 32.4826 57.1904 32.8014 56.9426 33.0713C56.2569 33.8229 55.8981 34.3347 55.8661 34.6065C55.7911 35.2512 55.6922 36.1358 54.2978 37.6621C53.6562 38.3637 52.7686 38.7355 52.0429 39.3233C51.3653 39.869 51.0204 40.6996 50.3697 41.2663C47.845 43.4852 47.785 43.5182 47.4432 43.6861C47.2123 43.8001 47.0863 43.8631 46.7715 44.2019C47.4791 44.7266 48.6396 44.4208 49.0204 44.3188L50.5587 43.8841L52.5557 43.1884C53.0355 42.9455 53.4133 42.5407 53.914 42.3248C54.4838 42.0789 55.1284 42.0879 55.6952 41.83C57.0535 41.2153 58.6727 39.6171 58.8556 39.4102C59.5873 38.5886 61.4494 37.5901 61.9951 37.3082C62.8677 36.8315 64.349 35.3022 64.8078 34.6605C64.7138 34.5886 64.5659 34.5396 64.364 34.5136C64.342 34.4416 64.5089 34.0398 64.8647 33.3082C65.0626 32.9034 65.1136 32.4506 65.2545 32.0278C65.6174 30.9273 66.2111 29.9138 66.4989 28.7834L67.4195 25.2331C67.4395 25.321 67.4155 25.5399 67.3475 25.8898C67.4435 25.8568 67.5454 25.7518 67.6024 25.6679C67.3955 28.5195 65.7283 30.8674 64.8977 33.5001C65.1196 33.4781 65.2695 33.4911 65.3475 33.5391C66.2311 32.6295 66.7098 32.1088 66.7838 31.9768C66.7598 32.0218 66.7298 32.0788 66.7058 32.1237C66.7538 32.0428 66.8138 31.9348 66.8588 31.8539L66.9067 31.7639L67.2006 31.1912C67.3325 30.9273 67.4945 30.5975 67.8873 29.6859C67.8693 29.7339 67.8513 29.7819 67.8333 29.8239C68.1541 29.0262 68.5649 28.0337 68.8318 27.2541C69.0657 26.4475 69.3985 25.38 69.5934 24.5644C69.6414 24.3155 69.6864 24.0876 69.7284 23.8717C69.7584 23.1791 69.7764 23.0741 70.1842 20.7293C70.1842 20.7383 70.1872 20.7533 70.1902 20.7622C70.2901 18.5413 70.3521 17.3809 70.3761 17.2809C70.3761 17.2809 70.3821 17.2929 70.3821 17.2989C70.3941 16.2434 70.3581 15.8716 70.2561 14.7801L69.9533 12.5402C69.8093 12.0934 69.6084 11.6706 69.2546 11.2179L69.2576 11.2149ZM63.6623 7.52665C63.6773 7.52665 63.6833 7.52665 63.7913 7.59562C63.7373 7.57463 63.6893 7.55664 63.6473 7.54165C63.6503 7.53565 63.6563 7.53265 63.6623 7.52665ZM66.394 15.4968C66.394 15.4968 66.385 15.5088 66.382 15.5148C66.328 15.6107 66.328 15.7217 66.292 15.8236C66.2531 15.9346 66.1901 15.9616 66.1451 15.9796C66.1121 15.9916 66.0821 16.0065 66.0732 16.0605C66.0732 16.0635 66.0732 16.0695 66.0732 16.0725C65.7883 15.8026 65.5604 15.5658 65.3055 13.3918C65.3745 13.3378 65.4914 13.2929 65.5754 13.2899L66.415 15.4698C66.415 15.4698 66.403 15.4788 66.394 15.4938V15.4968Z" fill="#E0E0E0"/>
<path d="M49.5761 7.72242L41.2226 4.72314L32.9497 7.68407C31.895 8.18267 30.9668 8.48183 30.9668 9.46369V14.3615C30.9668 17.7635 31.8566 21.1348 33.6899 24.1111C35.2318 26.6156 37.6212 29.193 41.2993 30.8307C44.6822 29.7337 47.2059 26.8035 48.7477 24.299C50.581 21.3227 51.4708 17.9514 51.4708 14.5494V10.1464C51.4708 8.74264 50.7267 8.05994 49.5685 7.72242H49.5761Z" fill="url(#paint0_linear_2829_10885)"/>
<path d="M41.3061 27.9847C38.395 26.6884 36.5042 24.6058 35.2845 22.6229C33.8348 20.2679 33.1291 17.6023 33.1291 14.9099V11.4734C33.1291 10.6948 33.597 9.96606 34.529 9.53266L41.2256 7.02814V4.71924L32.9526 7.68016C32.0858 8.05986 30.9697 8.47792 30.9697 9.45979V14.3576C30.9697 17.7596 31.8595 21.1309 33.6929 24.1072C35.2347 26.6117 37.6241 29.189 41.3023 30.8268V27.9847H41.3061Z" fill="#21E0D3"/>
<path d="M41.307 30.8307C41.8939 30.6351 42.4308 30.4089 42.9486 30.1289C44.337 29.3733 45.5183 28.3377 46.4196 27.3981C47.4283 26.3472 48.1839 25.2119 48.8359 24.1533C50.6692 21.1771 51.559 17.8057 51.4785 14.3117V10.2692C51.4785 8.25561 50.4468 8.10603 49.5761 7.72633L41.2227 4.72705V7.03596L47.9998 9.57882C48.9318 10.0122 49.3997 10.7448 49.3997 11.5195V14.956C49.3997 17.6485 48.694 20.3141 47.2442 22.669C46.0246 24.6519 44.2143 26.6924 41.3032 27.9887V30.8307H41.307Z" fill="#039E99"/>
<path d="M35.1814 15.3857C35.7606 14.5074 37.5862 14.7873 38.8788 15.2821C38.8788 15.2821 39.7609 15.5698 40.0946 15.7347C40.0946 15.7347 40.1023 15.7347 40.1061 15.7347L42.8906 15.029C43.1169 14.9714 43.3547 14.983 43.5733 15.0635L43.8188 15.1517C43.9415 15.1977 43.9568 15.3665 43.8456 15.4317L41.8742 16.5823C41.8742 16.5823 41.8742 16.5977 41.8742 16.6092C43.0709 17.1998 44.0987 17.7022 44.0987 17.7022C44.1102 17.7061 44.1218 17.7138 44.1333 17.7176C44.5513 17.917 45.0307 17.9515 45.4756 17.8135L46.5534 17.4798C46.6071 17.4645 46.6685 17.4568 46.7221 17.4721C46.9293 17.5297 46.9983 17.779 46.8526 17.9324L45.7096 19.1559C45.5293 19.3476 45.257 19.4205 45.0077 19.34L44.3749 19.1405L41.1762 18.0781L41.7361 19.7542C41.7591 19.8232 41.7093 19.8961 41.6364 19.8999L41.4945 19.9114C41.2989 19.9268 41.1071 19.8424 40.9882 19.6851L39.4809 17.5143L35.7069 16.264C35.2045 16.1029 34.9858 15.7193 35.1814 15.3742V15.3857Z" fill="white"/>
</g>
<defs>
<linearGradient id="paint0_linear_2829_10885" x1="30.9969" y1="30.7406" x2="55.8115" y2="25.6515" gradientUnits="userSpaceOnUse">
<stop stop-color="#05A0C7"/>
<stop offset="1" stop-color="#09D1C7"/>
</linearGradient>
<clipPath id="clip0_2829_10885">
<rect width="81.5605" height="81.5605" fill="white" transform="translate(0.380859 -22.8677)"/>
</clipPath>
</defs>
</svg>
