<svg width="9" height="9" viewBox="0 0 9 9" fill="none" xmlns="http://www.w3.org/2000/svg">
<path d="M7.25034 2.50116H2.39101C2.32657 2.50116 2.26477 2.47556 2.21921 2.43C2.17364 2.38443 2.14804 2.32264 2.14804 2.2582C2.14804 2.19376 2.17364 2.13196 2.21921 2.08639C2.26477 2.04083 2.32657 2.01523 2.39101 2.01523H6.52144C6.58588 2.01523 6.64768 1.98963 6.69324 1.94407C6.73881 1.8985 6.76441 1.8367 6.76441 1.77226C6.76441 1.70782 6.73881 1.64603 6.69324 1.60046C6.64768 1.5549 6.58588 1.5293 6.52144 1.5293H2.39101C2.19769 1.5293 2.01229 1.60609 1.8756 1.74279C1.7389 1.87948 1.66211 2.06488 1.66211 2.2582V6.14566C1.66211 6.33898 1.7389 6.52438 1.8756 6.66107C2.01229 6.79777 2.19769 6.87456 2.39101 6.87456H7.25034C7.37922 6.87456 7.50282 6.82336 7.59395 6.73223C7.68508 6.6411 7.73627 6.5175 7.73627 6.38863V2.9871C7.73627 2.85822 7.68508 2.73462 7.59395 2.64349C7.50282 2.55236 7.37922 2.50116 7.25034 2.50116ZM6.15699 4.93083C6.08491 4.93083 6.01445 4.90945 5.95451 4.86941C5.89458 4.82936 5.84787 4.77244 5.82028 4.70585C5.7927 4.63925 5.78548 4.56597 5.79954 4.49528C5.81361 4.42458 5.84832 4.35964 5.89929 4.30867C5.95025 4.2577 6.01519 4.22299 6.08589 4.20893C6.15659 4.19487 6.22986 4.20209 6.29646 4.22967C6.36305 4.25725 6.41997 4.30397 6.46002 4.3639C6.50006 4.42383 6.52144 4.4943 6.52144 4.56638C6.52144 4.66304 6.48304 4.75574 6.41469 4.82408C6.34635 4.89243 6.25365 4.93083 6.15699 4.93083Z" fill="white"/>
</svg>
