<svg width="386" height="303" viewBox="0 0 386 303" fill="none" xmlns="http://www.w3.org/2000/svg">
<g clip-path="url(#clip0_384_25792)">
<rect width="386" height="386" transform="translate(0 -41.5254)" fill="url(#paint0_linear_384_25792)"/>
<g filter="url(#filter0_d_384_25792)">
<rect x="-19.7441" y="-61.2695" width="426.476" height="426.476" rx="213.238" fill="white" fill-opacity="0.09" shape-rendering="crispEdges"/>
<rect x="-18.9144" y="-60.4398" width="424.816" height="424.816" rx="212.408" stroke="url(#paint1_linear_384_25792)" stroke-opacity="0.23" stroke-width="1.65944" shape-rendering="crispEdges"/>
</g>
<g filter="url(#filter1_d_384_25792)">
<rect x="16.7637" y="-24.7617" width="353.46" height="353.46" rx="176.73" fill="white" fill-opacity="0.09" shape-rendering="crispEdges"/>
<rect x="17.4513" y="-24.0741" width="352.085" height="352.085" rx="176.043" stroke="url(#paint2_linear_384_25792)" stroke-opacity="0.23" stroke-width="1.37533" shape-rendering="crispEdges"/>
</g>
<g filter="url(#filter2_d_384_25792)">
<rect x="54.9307" y="13.4062" width="277.126" height="277.126" rx="138.563" fill="white" fill-opacity="0.09" shape-rendering="crispEdges"/>
<rect x="55.4698" y="13.9454" width="276.048" height="276.048" rx="138.024" stroke="url(#paint3_linear_384_25792)" stroke-opacity="0.23" stroke-width="1.07831" shape-rendering="crispEdges"/>
<g clip-path="url(#clip1_384_25792)">
<path d="M284.003 214.127L284.049 208.742L217.032 192.455L100.334 231.503V237.111C100.334 237.381 100.419 237.643 100.59 237.854C100.794 238.09 101.063 238.274 101.358 238.372L166.964 265.449C167.502 265.659 168.061 265.803 168.632 265.875C169.906 266.059 171.206 266.026 172.467 265.777C173.045 265.672 173.61 265.494 174.148 265.258L283.221 215.44C283.451 215.361 283.642 215.21 283.773 215.007C283.95 214.75 284.036 214.435 284.003 214.127Z" fill="white"/>
<mask id="mask0_384_25792" style="mask-type:luminance" maskUnits="userSpaceOnUse" x="100" y="192" width="185" height="74">
<path d="M284.003 214.127L284.049 208.742L217.032 192.455L100.334 231.503V237.111C100.334 237.381 100.419 237.643 100.59 237.854C100.794 238.09 101.063 238.274 101.358 238.372L166.964 265.449C167.502 265.659 168.061 265.803 168.632 265.875C169.906 266.059 171.206 266.026 172.467 265.777C173.045 265.672 173.61 265.494 174.148 265.258L283.221 215.44C283.451 215.361 283.642 215.21 283.773 215.007C283.95 214.75 284.036 214.435 284.003 214.127Z" fill="white"/>
</mask>
<g mask="url(#mask0_384_25792)">
<path opacity="0.2" d="M283.773 215.02C283.95 214.764 284.029 214.455 284.003 214.146L284.049 208.761L217.031 192.455L171.876 207.559V265.849C172.073 265.849 172.277 265.797 172.467 265.757C173.045 265.652 173.61 265.475 174.148 265.238L283.221 215.44C283.445 215.361 283.642 215.217 283.773 215.02Z" fill="#23272E"/>
<path opacity="0.2" d="M170.07 266.092V257.049H167.784V265.809C168.526 266.026 169.295 266.118 170.07 266.092Z" fill="#23272E"/>
</g>
<path d="M284.003 214.127L284.049 208.742L217.032 192.455L100.334 231.503V237.111C100.334 237.381 100.419 237.643 100.59 237.854C100.794 238.09 101.063 238.274 101.358 238.372L166.964 265.448C167.502 265.659 168.061 265.803 168.632 265.875C169.906 266.059 171.206 266.026 172.467 265.777C173.045 265.672 173.61 265.494 174.148 265.258L283.221 215.44C283.451 215.361 283.642 215.21 283.773 215.007C283.95 214.75 284.036 214.435 284.003 214.127Z" stroke="#23272E" stroke-width="0.656711" stroke-miterlimit="10"/>
<path d="M249.716 202.051L241.133 199.877C241.008 199.844 240.877 199.825 240.746 199.812H240.325C240.194 199.812 240.063 199.825 239.931 199.844C239.82 199.864 239.715 199.89 239.61 199.923C239.537 199.943 239.472 199.989 239.419 200.041C239.399 200.081 239.399 200.127 239.419 200.166C239.452 200.219 239.498 200.265 239.557 200.291C239.649 200.343 239.747 200.376 239.846 200.396L248.429 202.589C248.56 202.616 248.692 202.642 248.83 202.655H249.257C249.388 202.655 249.526 202.635 249.657 202.616C249.769 202.603 249.874 202.576 249.979 202.537C250.051 202.511 250.11 202.471 250.163 202.419C250.189 202.379 250.189 202.327 250.163 202.287C250.13 202.228 250.077 202.182 250.018 202.156C249.926 202.11 249.828 202.077 249.723 202.051" fill="white"/>
<path d="M274.861 209.465L260.38 205.774H257.235C256.979 205.774 256.723 205.741 256.48 205.709C256.237 205.676 255.987 205.643 255.751 205.603C255.514 205.564 255.297 205.512 255.094 205.459L229.843 198.977L229.331 198.82C229.174 198.761 229.036 198.701 228.911 198.642C228.799 198.583 228.694 198.518 228.596 198.445C228.523 198.386 228.451 198.321 228.399 198.242L227.893 197.506L214.929 194.223L116.206 228.247L178.515 252.105L274.861 209.465Z" fill="url(#paint4_linear_384_25792)" stroke="white" stroke-width="1.97013" stroke-miterlimit="10"/>
<path d="M284.24 208.302C284.076 208.105 283.872 207.948 283.636 207.843C283.281 207.665 282.9 207.534 282.513 207.449L219.278 191.688C218.877 191.589 218.477 191.524 218.07 191.484C217.636 191.445 217.196 191.432 216.756 191.438C216.329 191.438 215.902 191.478 215.482 191.537C215.114 191.583 214.753 191.668 214.405 191.78L101.845 229.961C101.431 230.092 101.037 230.283 100.669 230.519C100.42 230.663 100.223 230.88 100.105 231.136C100.019 231.34 100.046 231.57 100.183 231.74C100.387 231.983 100.65 232.167 100.945 232.266L166.971 259.001C167.509 259.211 168.068 259.355 168.639 259.434C169.913 259.618 171.213 259.585 172.474 259.335C173.052 259.23 173.617 259.053 174.155 258.817L283.741 209.196C283.971 209.11 284.161 208.959 284.299 208.756C284.365 208.605 284.338 208.434 284.24 208.302ZM178.509 252.105L116.207 228.247L214.924 194.17L227.887 197.454L228.393 198.189C228.446 198.268 228.511 198.334 228.59 198.393C228.689 198.465 228.794 198.531 228.905 198.59C229.03 198.649 229.168 198.708 229.326 198.767L229.838 198.925L255.075 205.433C255.285 205.485 255.509 205.538 255.732 205.577C255.955 205.617 256.211 205.656 256.461 205.682C256.71 205.708 256.96 205.735 257.216 205.748C257.472 205.761 257.728 205.748 257.991 205.748H260.362L274.842 209.439L178.509 252.105ZM239.413 200.021C239.465 199.969 239.531 199.923 239.603 199.903C239.708 199.87 239.813 199.844 239.925 199.824C240.056 199.805 240.188 199.798 240.319 199.792H240.739C240.871 199.805 241.002 199.824 241.127 199.857L249.71 202.031C249.815 202.057 249.914 202.09 250.005 202.136C250.065 202.162 250.117 202.208 250.15 202.267C250.176 202.307 250.176 202.359 250.15 202.399C250.097 202.451 250.038 202.491 249.966 202.517C249.861 202.556 249.756 202.583 249.644 202.596C249.513 202.615 249.375 202.628 249.244 202.635H248.817C248.679 202.622 248.548 202.596 248.416 202.569L239.833 200.376C239.735 200.356 239.636 200.323 239.544 200.271C239.485 200.245 239.439 200.199 239.406 200.146C239.386 200.107 239.393 200.061 239.419 200.021H239.413ZM143.874 241.486C143.723 241.611 143.546 241.709 143.362 241.775C143.119 241.867 142.876 241.933 142.62 241.972C142.351 242.025 142.075 242.051 141.799 242.057C141.53 242.064 141.261 242.057 140.998 242.018C140.775 241.985 140.551 241.926 140.341 241.847C140.184 241.788 140.033 241.696 139.914 241.578C139.836 241.493 139.796 241.381 139.809 241.269C139.842 241.145 139.921 241.033 140.026 240.954C140.177 240.829 140.354 240.731 140.538 240.665C140.781 240.573 141.024 240.508 141.28 240.468C141.55 240.422 141.819 240.396 142.095 240.389C142.357 240.383 142.627 240.389 142.889 240.429C143.113 240.462 143.336 240.514 143.546 240.593C143.704 240.645 143.855 240.737 143.973 240.856C144.058 240.934 144.098 241.046 144.085 241.164C144.058 241.296 143.979 241.407 143.874 241.486Z" fill="#23272E"/>
<path d="M143.539 240.592C143.329 240.513 143.106 240.461 142.882 240.428C142.62 240.395 142.35 240.382 142.088 240.388C141.812 240.388 141.543 240.421 141.273 240.467C141.017 240.507 140.774 240.572 140.531 240.664C140.347 240.73 140.17 240.828 140.019 240.953C139.914 241.032 139.835 241.144 139.802 241.268C139.789 241.38 139.829 241.492 139.907 241.577C140.026 241.695 140.177 241.787 140.334 241.846C140.544 241.925 140.768 241.984 140.991 242.017C141.254 242.05 141.523 242.063 141.792 242.056C142.068 242.056 142.344 242.024 142.613 241.971C142.869 241.932 143.112 241.866 143.355 241.774C143.539 241.708 143.716 241.61 143.867 241.485C143.972 241.406 144.045 241.295 144.071 241.163C144.084 241.045 144.045 240.933 143.959 240.855C143.841 240.736 143.69 240.644 143.532 240.592" fill="white"/>
<path d="M121.624 212.117L123.502 215.296" stroke="#23272E" stroke-width="0.656711" stroke-miterlimit="10"/>
<path d="M94.0293 165.445L119.503 208.526" stroke="#23272E" stroke-width="0.656711" stroke-miterlimit="10"/>
<path d="M143.172 202.91L144.242 205.471" stroke="#23272E" stroke-width="0.656711" stroke-miterlimit="10"/>
<path d="M135.875 185.455L141.976 200.047" stroke="#23272E" stroke-width="0.656711" stroke-miterlimit="10"/>
<path d="M263.035 163.028L249.611 196.008" stroke="#23272E" stroke-width="0.656711" stroke-miterlimit="10"/>
<path d="M266.351 154.892L264.689 158.957" stroke="#23272E" stroke-width="0.656711" stroke-miterlimit="10"/>
<path d="M273.798 195.332L270.869 198.556" stroke="#23272E" stroke-width="0.656711" stroke-miterlimit="10"/>
<path d="M292.698 174.541L276.727 192.108" stroke="#23272E" stroke-width="0.656711" stroke-miterlimit="10"/>
<path d="M131.508 207.291L142.422 228.391" stroke="#23272E" stroke-width="0.656711" stroke-miterlimit="10"/>
<path d="M265.412 194.189L253.4 210.561" stroke="#23272E" stroke-width="0.656711" stroke-miterlimit="10"/>
<path d="M188.636 194.189L191.545 208.742" stroke="#23272E" stroke-width="0.656711" stroke-miterlimit="10"/>
<path d="M135.868 62.9199C139.814 62.9199 143.013 59.721 143.013 55.7749C143.013 51.8288 139.814 48.6299 135.868 48.6299C131.922 48.6299 128.723 51.8288 128.723 55.7749C128.723 59.721 131.922 62.9199 135.868 62.9199Z" fill="white" stroke="white" stroke-width="0.328355" stroke-miterlimit="10"/>
<path d="M138.239 55.29H133.583C132.67 55.29 131.935 56.0256 131.935 56.9384V60.8787C134.279 62.7043 137.569 62.678 139.887 60.8195V56.9712C139.907 56.0584 139.185 55.3097 138.272 55.29C138.259 55.29 138.252 55.29 138.239 55.29Z" fill="url(#paint5_linear_384_25792)"/>
<path d="M135.828 54.5735C137.137 54.5735 138.198 53.5121 138.198 52.2028C138.198 50.8934 137.137 49.832 135.828 49.832C134.518 49.832 133.457 50.8934 133.457 52.2028C133.457 53.5121 134.518 54.5735 135.828 54.5735Z" fill="url(#paint6_linear_384_25792)"/>
<path d="M149.344 190.46C153.29 190.46 156.489 187.261 156.489 183.315C156.489 179.369 153.29 176.17 149.344 176.17C145.398 176.17 142.199 179.369 142.199 183.315C142.199 187.261 145.398 190.46 149.344 190.46Z" fill="white" stroke="white" stroke-width="0.328355" stroke-miterlimit="10"/>
<path d="M151.715 182.836H147.052C146.146 182.836 145.41 183.571 145.41 184.478V188.385C147.755 190.211 151.045 190.185 153.356 188.326V184.478C153.356 183.571 152.621 182.836 151.715 182.836Z" fill="url(#paint7_linear_384_25792)"/>
<path d="M149.304 182.113C150.611 182.113 151.675 181.049 151.675 179.742C151.675 178.435 150.611 177.371 149.304 177.371C147.997 177.371 146.934 178.435 146.934 179.742C146.934 181.049 147.997 182.113 149.304 182.113Z" fill="url(#paint8_linear_384_25792)"/>
<path d="M242.655 163.898C270.525 136.028 270.525 90.8427 242.655 62.973C214.785 35.1033 169.6 35.1033 141.73 62.973C113.86 90.8427 113.86 136.028 141.73 163.898C169.6 191.768 214.785 191.768 242.655 163.898Z" fill="white"/>
<mask id="mask1_384_25792" style="mask-type:luminance" maskUnits="userSpaceOnUse" x="120" y="42" width="144" height="143">
<path d="M242.655 163.898C270.525 136.028 270.525 90.8427 242.655 62.973C214.785 35.1033 169.6 35.1033 141.73 62.973C113.86 90.8427 113.86 136.028 141.73 163.898C169.6 191.768 214.785 191.768 242.655 163.898Z" fill="white"/>
</mask>
<g mask="url(#mask1_384_25792)">
<path opacity="0.18" d="M242.655 163.898C270.525 136.028 270.525 90.8427 242.655 62.973C214.785 35.1033 169.6 35.1033 141.73 62.973C113.86 90.8427 113.86 136.028 141.73 163.898C169.6 191.768 214.785 191.768 242.655 163.898Z" fill="#23272E"/>
<path opacity="0.86" d="M192.193 143.919C160.652 143.919 132.846 123.213 123.804 92.9912C112.541 130.759 134.035 170.509 171.803 181.772C209.57 193.035 249.321 171.54 260.583 133.773C264.55 120.468 264.55 106.296 260.583 92.9912C251.54 123.213 223.735 143.913 192.193 143.919Z" fill="white"/>
<path d="M189.626 80.3947L196.403 83.4418L198.262 86.4889L201.315 87.6776L201.65 90.8955L200.468 92.7605L198.097 93.2662L193.014 91.2304V90.5737L195.891 89.3916L194.873 85.8322L190.276 84.1379L188.247 81.4323L189.626 80.3947ZM232.312 158.642L226.894 156.442L220.268 154.071H215.014L210.122 153.053L204.697 154.242L201.65 154.406H199.785L196.232 156.442L192.844 157.795L188.247 154.918L189.429 150.177L186.552 148.988H183.164L182.658 147.465L182.993 144.417L181.811 142.723L179.44 143.058L178.783 144.752L175.907 144.923L173.366 141.889L172.328 137.811L174.869 133.069L179.782 133.404L181.134 134.593H183.17L185.712 133.069L187.912 133.726L190.959 138.98L192.148 138.816L191.806 134.915L190.795 132.886L191.13 129.668L197.395 126.955L198.242 120.69L200.954 118.49L203.154 114.596L204.848 114.255L208.743 111.713L208.913 110.36L206.201 110.531L205.695 109.172H203.85L200.974 109.828L202.327 107.628L208.237 105.934L209.59 104.411L211.96 108.134L213.491 109.664L215.861 109.008L214.843 106.808L211.284 104.266L207.219 99.6691L202.983 96.7862L198.918 96.1294L196.889 94.1002L194.177 93.4435L193.842 94.1002L193.5 99.0124L194.157 100.707L192.686 106.138L189.297 103.426L189.81 101.055L186.25 99.3605L184.727 97.502L185.574 93.2662L190.486 89.7068L190.828 85.6418L188.962 85.8125L187.774 84.2889L187.268 81.7475L186.08 81.5767L185.423 84.2889L183.564 84.6304L182.717 78.72L181.358 77.8729L178.987 76.855L176.268 78.1881L179.65 81.4126L180.307 84.2889L174.213 79.692L169.977 75.095L169.642 70.498L165.236 69.1452L161.821 71.4174C161 71.9165 160.153 72.3696 159.279 72.7702C157.939 73.092 156.587 73.3087 155.214 73.4269L154.557 76.3099L150.663 76.4807L151.005 78.3391L157.27 79.357L160.487 82.9164V88.8268L158.622 94.0805L158.964 99.6691L154.222 107.97L153.205 120.329L154.728 127.448L156.928 132.866L159.47 133.207L158.622 130.495L157.27 128.459L156.422 124.736L157.946 124.394L160.317 130.495L162.018 135.979V140.385L165.236 144.28L171.015 148.456L179.821 150.827L182.533 153.368L184.563 156.074L187.61 157.939L191.34 158.957L195.063 158.786C195.063 158.786 194.893 160.481 194.893 161.328C194.893 162.175 192.522 165.051 192.522 165.051L190.663 168.44L192.016 172.163L195.74 173.694L200.993 179.111L203.364 180.129V182.664L203.66 183.853C216.833 181.725 229.147 175.926 239.181 167.126L239.273 165.898L243.87 157.598L241.67 156.074L232.312 158.642ZM249.932 91.7426L248.066 88.5247L245.696 84.7946L245.039 79.7182L248.086 80.2239L248.257 78.5296L246.05 78.3588L247.915 77.5117L249.951 76.3296V74.6353L247.915 71.9231L247.482 68.2783C227.249 43.5269 193.021 35.2326 163.699 47.9794L167.606 50.7442L165.236 53.7979L162.018 54.4546L161.676 59.0515L160.323 59.5572L158.629 61.4223L158.8 64.4694L161.676 64.8109L160.507 67.6807H163.384L168.296 61.4157L168.808 58.7101L173.549 58.3686L174.732 56.3328L179.644 55.8271L180.156 52.9507L183.709 52.78C183.709 52.78 186.25 51.4271 186.762 51.4271C187.741 51.6373 188.7 51.9197 189.639 52.2677L192.18 54.3035H195.733L198.787 52.4385L202.681 52.78C203.239 53.1411 203.883 53.371 204.546 53.4367C205.393 53.4367 207.928 52.248 207.928 52.248L212.84 55.3017L214.876 56.8253V59.3668L217.418 59.7017L218.265 58.1781L220.465 59.196L220.294 60.5488L215.211 61.9082L218.094 65.6318L224.188 69.0204L226.73 72.409L230.46 72.744L231.307 71.0497L232.66 70.7147L228.253 67.3261L225.522 67.024L227.722 66.3673L225.686 63.4909L228.569 63.3202L232.292 65.3494L233.139 69.4144L235.004 71.621L236.528 76.5332L240.252 79.2388V84.8274L244.152 87.3689L243.982 89.234L243.469 91.434L244.487 94.4811L244.829 96.0112L247.705 96.5169L249.065 93.6339L249.932 91.7426ZM252.132 74.6681V75.6401L251.284 78.3457L251.79 80.7164L253.655 81.3731V84.591L251.619 83.7439L251.133 92.9247L249.104 96.6548L250.457 101.396L252.657 103.426V112.573L254.857 119.686L257.234 125.11L261.128 126.121L262.481 122.733L263.033 122.306C263.401 119.364 263.585 116.402 263.585 113.434C263.598 99.6823 259.618 86.2197 252.125 74.6813V74.6681H252.132ZM212.998 73.5911L201.834 68.6789L196.922 68.8497L195.733 72.0676L193.704 69.8676L189.98 70.7147L189.639 76.3033L192.686 78.5033L194.886 75.2854L197.427 77.8269L202.681 82.4239L203.699 87.3361L208.099 92.9247L215.211 91.7426L215.047 89.2011L213.523 86.3182L213.182 79.5475L214.876 76.6645L212.998 73.5911ZM222.146 77.3212L219.605 76.6645L217.405 78.5296L218.587 83.4418H220.793L222.146 77.3212ZM237.907 80.5391L232.141 77.5314L230.953 75.5022L229.6 76.0078L230.782 79.3965L231.8 83.803L234.341 84.8143L234.847 84.1576L233.323 81.6161L237.73 83.3105L237.907 80.5391ZM188.45 141.679L187.794 142.336L192.876 143.859L194.906 146.23L198.13 146.571L199.312 144.706L195.418 144.05L188.45 141.679ZM203.555 144.897L199.995 145.915L200.507 147.268H204.907L205.755 145.915L204.231 146.085L203.555 144.897Z" fill="url(#paint9_linear_384_25792)"/>
<mask id="mask2_384_25792" style="mask-type:luminance" maskUnits="userSpaceOnUse" x="150" y="42" width="114" height="142">
<path d="M189.626 80.3947L196.403 83.4418L198.262 86.4889L201.315 87.6776L201.65 90.8955L200.468 92.7605L198.097 93.2662L193.014 91.2304V90.5737L195.891 89.3916L194.873 85.8322L190.276 84.1379L188.247 81.4323L189.626 80.3947ZM232.312 158.642L226.894 156.442L220.268 154.071H215.014L210.122 153.053L204.697 154.242L201.65 154.406H199.785L196.232 156.442L192.844 157.795L188.247 154.918L189.429 150.177L186.552 148.988H183.164L182.658 147.465L182.993 144.417L181.811 142.723L179.44 143.058L178.783 144.752L175.907 144.923L173.366 141.889L172.328 137.811L174.869 133.069L179.782 133.404L181.134 134.593H183.17L185.712 133.069L187.912 133.726L190.959 138.98L192.148 138.816L191.806 134.915L190.795 132.886L191.13 129.668L197.395 126.955L198.242 120.69L200.954 118.49L203.154 114.596L204.848 114.255L208.743 111.713L208.913 110.36L206.201 110.531L205.695 109.172H203.85L200.974 109.828L202.327 107.628L208.237 105.934L209.59 104.411L211.96 108.134L213.491 109.664L215.861 109.008L214.843 106.808L211.284 104.266L207.219 99.6691L202.983 96.7862L198.918 96.1294L196.889 94.1002L194.177 93.4435L193.842 94.1002L193.5 99.0124L194.157 100.707L192.686 106.138L189.297 103.426L189.81 101.055L186.25 99.3605L184.727 97.502L185.574 93.2662L190.486 89.7068L190.828 85.6418L188.962 85.8125L187.774 84.2889L187.268 81.7475L186.08 81.5767L185.423 84.2889L183.564 84.6304L182.717 78.72L181.358 77.8729L178.987 76.855L176.268 78.1881L179.65 81.4126L180.307 84.2889L174.213 79.692L169.977 75.095L169.642 70.498L165.236 69.1452L161.821 71.4174C161 71.9165 160.153 72.3696 159.279 72.7702C157.939 73.092 156.587 73.3087 155.214 73.4269L154.557 76.3099L150.663 76.4807L151.005 78.3391L157.27 79.357L160.487 82.9164V88.8268L158.622 94.0805L158.964 99.6691L154.222 107.97L153.205 120.329L154.728 127.448L156.928 132.866L159.47 133.207L158.622 130.495L157.27 128.459L156.422 124.736L157.946 124.394L160.317 130.495L162.018 135.979V140.385L165.236 144.28L171.015 148.456L179.821 150.827L182.533 153.368L184.563 156.074L187.61 157.939L191.34 158.957L195.063 158.786C195.063 158.786 194.893 160.481 194.893 161.328C194.893 162.175 192.522 165.051 192.522 165.051L190.663 168.44L192.016 172.163L195.74 173.694L200.993 179.111L203.364 180.129V182.664L203.66 183.853C216.833 181.725 229.147 175.926 239.181 167.126L239.273 165.898L243.87 157.598L241.67 156.074L232.312 158.642ZM249.932 91.7426L248.066 88.5247L245.696 84.7946L245.039 79.7182L248.086 80.2239L248.257 78.5296L246.05 78.3588L247.915 77.5117L249.951 76.3296V74.6353L247.915 71.9231L247.482 68.2783C227.249 43.5269 193.021 35.2326 163.699 47.9794L167.606 50.7442L165.236 53.7979L162.018 54.4546L161.676 59.0515L160.323 59.5572L158.629 61.4223L158.8 64.4694L161.676 64.8109L160.507 67.6807H163.384L168.296 61.4157L168.808 58.7101L173.549 58.3686L174.732 56.3328L179.644 55.8271L180.156 52.9507L183.709 52.78C183.709 52.78 186.25 51.4271 186.762 51.4271C187.741 51.6373 188.7 51.9197 189.639 52.2677L192.18 54.3035H195.733L198.787 52.4385L202.681 52.78C203.239 53.1411 203.883 53.371 204.546 53.4367C205.393 53.4367 207.928 52.248 207.928 52.248L212.84 55.3017L214.876 56.8253V59.3668L217.418 59.7017L218.265 58.1781L220.465 59.196L220.294 60.5488L215.211 61.9082L218.094 65.6318L224.188 69.0204L226.73 72.409L230.46 72.744L231.307 71.0497L232.66 70.7147L228.253 67.3261L225.522 67.024L227.722 66.3673L225.686 63.4909L228.569 63.3202L232.292 65.3494L233.139 69.4144L235.004 71.621L236.528 76.5332L240.252 79.2388V84.8274L244.152 87.3689L243.982 89.234L243.469 91.434L244.487 94.4811L244.829 96.0112L247.705 96.5169L249.065 93.6339L249.932 91.7426ZM252.132 74.6681V75.6401L251.284 78.3457L251.79 80.7164L253.655 81.3731V84.591L251.619 83.7439L251.133 92.9247L249.104 96.6548L250.457 101.396L252.657 103.426V112.573L254.857 119.686L257.234 125.11L261.128 126.121L262.481 122.733L263.033 122.306C263.401 119.364 263.585 116.402 263.585 113.434C263.598 99.6823 259.618 86.2197 252.125 74.6813V74.6681H252.132ZM212.998 73.5911L201.834 68.6789L196.922 68.8497L195.733 72.0676L193.704 69.8676L189.98 70.7147L189.639 76.3033L192.686 78.5033L194.886 75.2854L197.427 77.8269L202.681 82.4239L203.699 87.3361L208.099 92.9247L215.211 91.7426L215.047 89.2011L213.523 86.3182L213.182 79.5475L214.876 76.6645L212.998 73.5911ZM222.146 77.3212L219.605 76.6645L217.405 78.5296L218.587 83.4418H220.793L222.146 77.3212ZM237.907 80.5391L232.141 77.5314L230.953 75.5022L229.6 76.0078L230.782 79.3965L231.8 83.803L234.341 84.8143L234.847 84.1576L233.323 81.6161L237.73 83.3105L237.907 80.5391ZM188.45 141.679L187.794 142.336L192.876 143.859L194.906 146.23L198.13 146.571L199.312 144.706L195.418 144.05L188.45 141.679ZM203.555 144.897L199.995 145.915L200.507 147.268H204.907L205.755 145.915L204.231 146.085L203.555 144.897Z" fill="white"/>
</mask>
<g mask="url(#mask2_384_25792)">
<path opacity="0.65" d="M192.193 143.918C160.652 143.918 132.846 123.212 123.804 92.9902C112.541 130.758 134.035 170.508 171.803 181.771C209.57 193.034 249.321 171.539 260.583 133.772C264.55 120.467 264.55 106.295 260.583 92.9902C251.54 123.212 223.735 143.912 192.193 143.918Z" fill="white"/>
</g>
<path d="M189.626 80.3947L196.403 83.4418L198.262 86.4889L201.315 87.6776L201.65 90.8955L200.468 92.7605L198.097 93.2662L193.014 91.2304V90.5737L195.891 89.3916L194.873 85.8322L190.276 84.1379L188.247 81.4323L189.626 80.3947ZM232.312 158.642L226.894 156.442L220.268 154.071H215.014L210.122 153.053L204.697 154.242L201.65 154.406H199.785L196.232 156.442L192.844 157.795L188.247 154.918L189.429 150.177L186.552 148.988H183.164L182.658 147.465L182.993 144.417L181.811 142.723L179.44 143.058L178.783 144.752L175.907 144.923L173.366 141.889L172.328 137.811L174.869 133.069L179.782 133.404L181.134 134.593H183.17L185.712 133.069L187.912 133.726L190.959 138.98L192.148 138.816L191.806 134.915L190.795 132.886L191.13 129.668L197.395 126.955L198.242 120.69L200.954 118.49L203.154 114.596L204.848 114.255L208.743 111.713L208.913 110.36L206.201 110.531L205.695 109.172H203.85L200.974 109.828L202.327 107.628L208.237 105.934L209.59 104.411L211.96 108.134L213.491 109.664L215.861 109.008L214.843 106.808L211.284 104.266L207.219 99.6691L202.983 96.7862L198.918 96.1294L196.889 94.1002L194.177 93.4435L193.842 94.1002L193.5 99.0124L194.157 100.707L192.686 106.138L189.297 103.426L189.81 101.055L186.25 99.3605L184.727 97.502L185.574 93.2662L190.486 89.7068L190.828 85.6418L188.962 85.8125L187.774 84.2889L187.268 81.7475L186.08 81.5767L185.423 84.2889L183.564 84.6304L182.717 78.72L181.358 77.8729L178.987 76.855L176.268 78.1881L179.65 81.4126L180.307 84.2889L174.213 79.692L169.977 75.095L169.642 70.498L165.236 69.1452L161.821 71.4174C161 71.9165 160.153 72.3696 159.279 72.7702C157.939 73.092 156.587 73.3087 155.214 73.4269L154.557 76.3099L150.663 76.4807L151.005 78.3391L157.27 79.357L160.487 82.9164V88.8268L158.622 94.0805L158.964 99.6691L154.222 107.97L153.205 120.329L154.728 127.448L156.928 132.866L159.47 133.207L158.622 130.495L157.27 128.459L156.422 124.736L157.946 124.394L160.317 130.495L162.018 135.979V140.385L165.236 144.279L171.015 148.456L179.821 150.827L182.533 153.368L184.563 156.074L187.61 157.939L191.34 158.957L195.063 158.786C195.063 158.786 194.893 160.481 194.893 161.328C194.893 162.175 192.522 165.051 192.522 165.051L190.663 168.44L192.016 172.163L195.74 173.694L200.993 179.111L203.364 180.129V182.664L203.66 183.853C216.833 181.725 229.147 175.926 239.181 167.126L239.273 165.898L243.87 157.598L241.67 156.074L232.312 158.642ZM249.932 91.7426L248.066 88.5247L245.696 84.7946L245.039 79.7182L248.086 80.2239L248.257 78.5296L246.05 78.3588L247.915 77.5117L249.951 76.3296V74.6353L247.915 71.9231L247.482 68.2783C227.249 43.5269 193.021 35.2326 163.699 47.9794L167.606 50.7442L165.236 53.7979L162.018 54.4546L161.676 59.0515L160.323 59.5572L158.629 61.4223L158.8 64.4694L161.676 64.8109L160.507 67.6807H163.384L168.296 61.4157L168.808 58.7101L173.549 58.3686L174.732 56.3328L179.644 55.8271L180.156 52.9507L183.709 52.78C183.709 52.78 186.25 51.4271 186.762 51.4271C187.741 51.6373 188.7 51.9197 189.639 52.2677L192.18 54.3035H195.733L198.787 52.4385L202.681 52.78C203.239 53.1411 203.883 53.371 204.546 53.4367C205.393 53.4367 207.928 52.248 207.928 52.248L212.84 55.3017L214.876 56.8253V59.3668L217.418 59.7017L218.265 58.1781L220.465 59.196L220.294 60.5488L215.211 61.9082L218.094 65.6318L224.188 69.0204L226.73 72.409L230.46 72.744L231.307 71.0497L232.66 70.7147L228.253 67.3261L225.522 67.024L227.722 66.3673L225.686 63.4909L228.569 63.3202L232.292 65.3494L233.139 69.4144L235.004 71.621L236.528 76.5332L240.252 79.2388V84.8274L244.152 87.3689L243.982 89.234L243.469 91.434L244.487 94.4811L244.829 96.0112L247.705 96.5169L249.065 93.6339L249.932 91.7426ZM252.132 74.6681V75.6401L251.284 78.3457L251.79 80.7164L253.655 81.3732V84.591L251.619 83.7439L251.133 92.9247L249.104 96.6548L250.457 101.396L252.657 103.426V112.573L254.857 119.686L257.234 125.11L261.128 126.121L262.481 122.733L263.033 122.306C263.401 119.364 263.585 116.402 263.585 113.434C263.598 99.6823 259.618 86.2197 252.125 74.6813V74.6681H252.132ZM212.998 73.5911L201.834 68.6789L196.922 68.8497L195.733 72.0676L193.704 69.8676L189.98 70.7147L189.639 76.3033L192.686 78.5033L194.886 75.2854L197.427 77.8269L202.681 82.4239L203.699 87.3361L208.099 92.9247L215.211 91.7426L215.047 89.2011L213.523 86.3182L213.182 79.5475L214.876 76.6645L212.998 73.5911ZM222.146 77.3212L219.605 76.6645L217.405 78.5296L218.587 83.4418H220.793L222.146 77.3212ZM237.907 80.5391L232.141 77.5314L230.953 75.5022L229.6 76.0078L230.782 79.3964L231.8 83.803L234.341 84.8143L234.847 84.1576L233.323 81.6161L237.73 83.3105L237.907 80.5391ZM188.45 141.679L187.794 142.336L192.876 143.859L194.906 146.23L198.13 146.571L199.312 144.706L195.418 144.05L188.45 141.679ZM203.555 144.897L199.995 145.915L200.507 147.268H204.907L205.755 145.915L204.231 146.085L203.555 144.897Z" stroke="#23272E" stroke-width="0.656711" stroke-miterlimit="10"/>
</g>
<path d="M242.655 163.898C270.525 136.028 270.525 90.8427 242.655 62.973C214.785 35.1033 169.6 35.1033 141.73 62.973C113.86 90.8427 113.86 136.028 141.73 163.898C169.6 191.768 214.785 191.768 242.655 163.898Z" stroke="#23272E" stroke-width="0.656711" stroke-miterlimit="10"/>
<path d="M280.449 84.4014C284.395 84.4014 287.594 81.2024 287.594 77.2563C287.594 73.3103 284.395 70.1113 280.449 70.1113C276.503 70.1113 273.304 73.3103 273.304 77.2563C273.304 81.2024 276.503 84.4014 280.449 84.4014Z" fill="white" stroke="white" stroke-width="0.328355" stroke-miterlimit="10"/>
<path d="M282.813 76.7773H278.151C277.244 76.7773 276.509 77.5129 276.509 78.4191C276.509 78.4191 276.509 78.4191 276.509 78.4257V82.3331C278.853 84.1588 282.143 84.1325 284.455 82.274V78.4257C284.455 77.5194 283.726 76.7839 282.82 76.7773C282.82 76.7773 282.82 76.7773 282.813 76.7773Z" fill="url(#paint10_linear_384_25792)"/>
<path d="M280.404 76.054C281.711 76.054 282.775 74.9901 282.775 73.6832C282.775 72.3764 281.711 71.3125 280.404 71.3125C279.097 71.3125 278.033 72.3764 278.033 73.6832C278.033 74.9901 279.097 76.054 280.404 76.054Z" fill="url(#paint11_linear_384_25792)"/>
<path d="M230.092 55.7285C234.038 55.7285 237.237 52.5296 237.237 48.5835C237.237 44.6374 234.038 41.4385 230.092 41.4385C226.146 41.4385 222.947 44.6374 222.947 48.5835C222.947 52.5296 226.146 55.7285 230.092 55.7285Z" fill="white" stroke="white" stroke-width="0.328355" stroke-miterlimit="10"/>
<path d="M232.458 48.0977H227.802C226.902 48.1108 226.18 48.8463 226.18 49.746V53.6863C228.524 55.5119 231.814 55.4857 234.132 53.6272V49.746C234.132 48.8332 233.397 48.0977 232.484 48.0977C232.478 48.0977 232.464 48.0977 232.458 48.0977Z" fill="url(#paint12_linear_384_25792)"/>
<path d="M230.047 47.3762C231.357 47.3762 232.418 46.3148 232.418 45.0055C232.418 43.6962 231.357 42.6348 230.047 42.6348C228.738 42.6348 227.677 43.6962 227.677 45.0055C227.677 46.3148 228.738 47.3762 230.047 47.3762Z" fill="url(#paint13_linear_384_25792)"/>
<path d="M101.981 99.0944C105.876 98.4601 108.519 94.7885 107.885 90.8938C107.25 86.999 103.579 84.3559 99.6839 84.9902C95.7892 85.6245 93.146 89.296 93.7803 93.1908C94.4146 97.0855 98.0862 99.7287 101.981 99.0944Z" fill="white" stroke="white" stroke-width="0.328355" stroke-miterlimit="10"/>
<path d="M103.203 91.5537H98.5402C97.634 91.5537 96.8984 92.2892 96.8984 93.1955C96.8984 93.1955 96.8984 93.1955 96.8984 93.2021V97.1095C99.2429 98.9351 102.533 98.9089 104.845 97.0504V93.2021C104.845 92.2958 104.116 91.5603 103.209 91.5537C103.209 91.5537 103.209 91.5537 103.203 91.5537Z" fill="url(#paint14_linear_384_25792)"/>
<path d="M100.793 90.8303C102.099 90.8303 103.163 89.7664 103.163 88.4596C103.163 87.1527 102.099 86.0889 100.793 86.0889C99.4857 86.0889 98.4219 87.1527 98.4219 88.4596C98.4219 89.7664 99.4857 90.8303 100.793 90.8303Z" fill="url(#paint15_linear_384_25792)"/>
<path d="M106.584 144.074C110.479 143.44 113.122 139.768 112.488 135.873C111.854 131.978 108.182 129.335 104.287 129.97C100.393 130.604 97.7496 134.276 98.3839 138.17C99.0182 142.065 102.69 144.708 106.584 144.074Z" fill="white" stroke="white" stroke-width="0.328355" stroke-miterlimit="10"/>
<path d="M107.8 136.538H103.137C102.231 136.538 101.495 137.274 101.495 138.18C101.495 138.18 101.495 138.18 101.495 138.186V142.094C103.84 143.92 107.13 143.893 109.441 142.035V138.186C109.441 137.28 108.712 136.545 107.806 136.538C107.806 136.538 107.806 136.538 107.8 136.538Z" fill="url(#paint16_linear_384_25792)"/>
<path d="M105.39 135.816C106.697 135.816 107.761 134.752 107.761 133.445C107.761 132.138 106.697 131.074 105.39 131.074C104.083 131.074 103.02 132.138 103.02 133.445C103.02 134.752 104.083 135.816 105.39 135.816Z" fill="url(#paint17_linear_384_25792)"/>
<path d="M134.568 108.043C138.514 108.043 141.713 104.844 141.713 100.898C141.713 96.9519 138.514 93.7529 134.568 93.7529C130.622 93.7529 127.423 96.9519 127.423 100.898C127.423 104.844 130.622 108.043 134.568 108.043Z" fill="white" stroke="white" stroke-width="0.328355" stroke-miterlimit="10"/>
<path d="M136.939 100.419H132.27C131.363 100.419 130.628 101.154 130.628 102.061V106.001C132.972 107.827 136.263 107.8 138.574 105.942V102.094C138.594 101.187 137.871 100.439 136.965 100.419C136.959 100.419 136.945 100.419 136.939 100.419Z" fill="url(#paint18_linear_384_25792)"/>
<path d="M134.529 99.6965C135.836 99.6965 136.9 98.6327 136.9 97.3258C136.9 96.019 135.836 94.9551 134.529 94.9551C133.222 94.9551 132.158 96.019 132.158 97.3258C132.158 98.6327 133.222 99.6965 134.529 99.6965Z" fill="url(#paint19_linear_384_25792)"/>
<path d="M181.7 178.147C185.646 178.147 188.845 174.949 188.845 171.002C188.845 167.056 185.646 163.857 181.7 163.857C177.754 163.857 174.555 167.056 174.555 171.002C174.555 174.949 177.754 178.147 181.7 178.147Z" fill="white" stroke="white" stroke-width="0.328355" stroke-miterlimit="10"/>
<path d="M184.071 170.522H179.415C178.502 170.522 177.767 171.258 177.767 172.171V176.078C180.111 177.904 183.401 177.878 185.719 176.019V172.171C185.719 171.258 184.984 170.522 184.071 170.522Z" fill="url(#paint20_linear_384_25792)"/>
<path d="M181.661 169.8C182.97 169.8 184.031 168.739 184.031 167.429C184.031 166.12 182.97 165.059 181.661 165.059C180.351 165.059 179.29 166.12 179.29 167.429C179.29 168.739 180.351 169.8 181.661 169.8Z" fill="url(#paint21_linear_384_25792)"/>
<path d="M233.075 191.885C237.021 191.885 240.22 188.686 240.22 184.74C240.22 180.794 237.021 177.595 233.075 177.595C229.129 177.595 225.93 180.794 225.93 184.74C225.93 188.686 229.129 191.885 233.075 191.885Z" fill="white" stroke="white" stroke-width="0.328355" stroke-miterlimit="10"/>
<path d="M235.438 184.261H230.775C229.869 184.261 229.134 184.996 229.127 185.903V189.843C231.471 191.668 234.762 191.642 237.08 189.784V185.889C237.073 184.99 236.338 184.261 235.438 184.261Z" fill="url(#paint22_linear_384_25792)"/>
<path d="M233.028 183.538C234.337 183.538 235.399 182.477 235.399 181.168C235.399 179.858 234.337 178.797 233.028 178.797C231.719 178.797 230.657 179.858 230.657 181.168C230.657 182.477 231.719 183.538 233.028 183.538Z" fill="url(#paint23_linear_384_25792)"/>
<path d="M269.201 150.729C273.147 150.729 276.346 147.53 276.346 143.583C276.346 139.637 273.147 136.438 269.201 136.438C265.255 136.438 262.056 139.637 262.056 143.583C262.056 147.53 265.255 150.729 269.201 150.729Z" fill="white" stroke="white" stroke-width="0.328355" stroke-miterlimit="10"/>
<path d="M271.564 143.104H266.895C265.988 143.104 265.253 143.84 265.253 144.746V148.687C267.597 150.512 270.888 150.486 273.199 148.627V144.779C273.219 143.873 272.496 143.124 271.59 143.104C271.584 143.104 271.57 143.104 271.564 143.104Z" fill="url(#paint24_linear_384_25792)"/>
<path d="M269.154 142.382C270.461 142.382 271.525 141.318 271.525 140.011C271.525 138.704 270.461 137.641 269.154 137.641C267.847 137.641 266.783 138.704 266.783 140.011C266.783 141.318 267.847 142.382 269.154 142.382Z" fill="url(#paint25_linear_384_25792)"/>
<path d="M254.982 79.2662C265.069 87.4422 271.052 97.6541 271.052 108.674C271.052 135.599 235.478 157.441 191.59 157.441C147.702 157.441 112.128 135.605 112.128 108.674C112.128 96.8923 118.938 86.0894 130.273 77.6572" stroke="white" stroke-width="0.328355" stroke-miterlimit="10"/>
<path d="M146.06 58.98C153.211 47.2577 163.265 39.4429 175.178 37.7026C203.167 33.6704 230.821 64.9364 236.955 107.537C243.089 150.138 225.377 187.938 197.395 191.971C184.654 193.803 171.98 188.326 161.374 177.792" stroke="white" stroke-width="0.328355" stroke-miterlimit="10"/>
<path d="M253.528 162.339C262.829 147.114 239.841 116.123 202.183 93.1184C164.525 70.1138 126.457 63.8069 117.157 79.0317C107.856 94.2565 130.844 125.248 168.502 148.252C206.16 171.257 244.228 177.564 253.528 162.339Z" stroke="white" stroke-width="0.328355" stroke-miterlimit="10"/>
<path d="M208.036 144.673C246.681 121.066 270.47 89.5856 261.169 74.3608C251.869 59.136 213.001 65.9318 174.355 89.5395C135.71 113.147 111.921 144.627 121.222 159.852C130.522 175.077 169.39 168.281 208.036 144.673Z" stroke="white" stroke-width="0.328355" stroke-miterlimit="10"/>
<path d="M224.911 68.3378C224.911 67.6155 224.32 67.0244 223.598 67.0244C222.875 67.0244 222.284 67.6155 222.284 68.3378C222.284 69.0602 222.875 69.6513 223.598 69.6513C224.32 69.6513 224.911 69.0602 224.911 68.3378Z" fill="white" stroke="white" stroke-width="0.328355" stroke-miterlimit="10"/>
<path d="M239.359 122.103C239.359 121.381 238.768 120.79 238.046 120.79C237.323 120.79 236.732 121.381 236.732 122.103C236.732 122.826 237.323 123.417 238.046 123.417C238.768 123.417 239.359 122.826 239.359 122.103Z" fill="white" stroke="white" stroke-width="0.328355" stroke-miterlimit="10"/>
<path d="M236.47 149.416C236.47 148.694 235.879 148.103 235.156 148.103C234.434 148.103 233.843 148.694 233.843 149.416C233.843 150.138 234.434 150.729 235.156 150.729C235.879 150.729 236.47 150.138 236.47 149.416Z" fill="white" stroke="white" stroke-width="0.328355" stroke-miterlimit="10"/>
<path d="M228.09 170.221C228.09 169.498 227.499 168.907 226.776 168.907C226.054 168.907 225.463 169.498 225.463 170.221C225.463 170.943 226.054 171.534 226.776 171.534C227.499 171.534 228.09 170.943 228.09 170.221Z" fill="white" stroke="white" stroke-width="0.328355" stroke-miterlimit="10"/>
<path d="M253.103 140.576C253.103 139.854 252.512 139.263 251.79 139.263C251.068 139.263 250.477 139.854 250.477 140.576C250.477 141.298 251.068 141.89 251.79 141.89C252.512 141.89 253.103 141.298 253.103 140.576Z" fill="white" stroke="white" stroke-width="0.328355" stroke-miterlimit="10"/>
<path d="M185.607 157.073C185.607 156.351 185.016 155.76 184.294 155.76C183.572 155.76 182.98 156.351 182.98 157.073C182.98 157.796 183.572 158.387 184.294 158.387C185.016 158.387 185.607 157.796 185.607 157.073Z" fill="white" stroke="white" stroke-width="0.328355" stroke-miterlimit="10"/>
<path d="M125.787 135.257C125.787 134.534 125.196 133.943 124.474 133.943C123.751 133.943 123.16 134.534 123.16 135.257C123.16 135.979 123.751 136.57 124.474 136.57C125.196 136.57 125.787 135.979 125.787 135.257Z" fill="white" stroke="white" stroke-width="0.328355" stroke-miterlimit="10"/>
<path d="M135.901 121.67C135.901 120.947 135.31 120.356 134.588 120.356C133.865 120.356 133.274 120.947 133.274 121.67C133.274 122.392 133.865 122.983 134.588 122.983C135.31 122.983 135.901 122.392 135.901 121.67Z" fill="white" stroke="white" stroke-width="0.328355" stroke-miterlimit="10"/>
<path d="M185.752 83.6728C185.752 82.9504 185.161 82.3594 184.438 82.3594C183.716 82.3594 183.125 82.9504 183.125 83.6728C183.125 84.3952 183.716 84.9862 184.438 84.9862C185.161 84.9862 185.752 84.3952 185.752 83.6728Z" fill="white" stroke="white" stroke-width="0.328355" stroke-miterlimit="10"/>
<path d="M263.776 86.996C263.776 86.2737 263.185 85.6826 262.463 85.6826C261.74 85.6826 261.149 86.2737 261.149 86.996C261.149 87.7184 261.74 88.3095 262.463 88.3095C263.185 88.3095 263.776 87.7184 263.776 86.996Z" fill="white" stroke="white" stroke-width="0.328355" stroke-miterlimit="10"/>
<path d="M117.552 93.3525C117.552 92.6301 116.961 92.0391 116.238 92.0391C115.516 92.0391 114.925 92.6301 114.925 93.3525C114.925 94.0749 115.516 94.6659 116.238 94.6659C116.961 94.6659 117.552 94.0749 117.552 93.3525Z" fill="white" stroke="white" stroke-width="0.328355" stroke-miterlimit="10"/>
<path d="M263.763 86.4767L274.086 80.9209" stroke="white" stroke-width="0.328355" stroke-miterlimit="10"/>
<path d="M114.951 93.3525L107.977 92.0391" stroke="white" stroke-width="0.328355" stroke-miterlimit="10"/>
<path d="M134.601 120.369V108.043" stroke="white" stroke-width="0.328355" stroke-miterlimit="10"/>
<path d="M123.187 135.257L112.574 137.023" stroke="white" stroke-width="0.328355" stroke-miterlimit="10"/>
<path d="M184.012 158.354L183.04 164.067" stroke="white" stroke-width="0.328355" stroke-miterlimit="10"/>
<path d="M227.282 171.475L230.323 178.094" stroke="white" stroke-width="0.328355" stroke-miterlimit="10"/>
<path d="M253.085 140.603L261.911 142.494" stroke="white" stroke-width="0.328355" stroke-miterlimit="10"/>
<path d="M234.119 148.463L225.549 140.215" stroke="white" stroke-width="0.328355" stroke-miterlimit="10"/>
<path d="M224.137 67.169L228.044 55.5518" stroke="white" stroke-width="0.328355" stroke-miterlimit="10"/>
<path d="M141.057 61.082L142.712 62.3232" stroke="white" stroke-width="0.328355" stroke-miterlimit="10"/>
<path d="M153.678 177.556L155.536 175.073" stroke="white" stroke-width="0.328355" stroke-miterlimit="10"/>
<path d="M220.275 142.52C224.221 142.52 227.42 139.321 227.42 135.375C227.42 131.428 224.221 128.229 220.275 128.229C216.329 128.229 213.13 131.428 213.13 135.375C213.13 139.321 216.329 142.52 220.275 142.52Z" fill="white" stroke="white" stroke-width="0.328355" stroke-miterlimit="10"/>
<path d="M222.639 134.896H217.977C217.07 134.896 216.335 135.632 216.335 136.538V140.479C218.679 142.304 221.97 142.278 224.281 140.419V136.571C224.301 135.665 223.578 134.916 222.672 134.896C222.659 134.896 222.653 134.896 222.639 134.896Z" fill="url(#paint26_linear_384_25792)"/>
<path d="M220.229 134.173C221.536 134.173 222.6 133.109 222.6 131.802C222.6 130.496 221.536 129.432 220.229 129.432C218.922 129.432 217.858 130.496 217.858 131.802C217.858 133.109 218.922 134.173 220.229 134.173Z" fill="url(#paint27_linear_384_25792)"/>
<path d="M236.364 108.706C240.31 108.706 243.509 105.507 243.509 101.561C243.509 97.6149 240.31 94.416 236.364 94.416C232.418 94.416 229.219 97.6149 229.219 101.561C229.219 105.507 232.418 108.706 236.364 108.706Z" fill="white" stroke="white" stroke-width="0.328355" stroke-miterlimit="10"/>
<path d="M238.729 101.075H234.06C233.153 101.075 232.418 101.811 232.418 102.717V106.657C234.762 108.483 238.053 108.457 240.364 106.598V102.75C240.384 101.844 239.661 101.095 238.755 101.075C238.749 101.075 238.736 101.075 238.729 101.075Z" fill="url(#paint28_linear_384_25792)"/>
<path d="M236.319 100.353C237.626 100.353 238.69 99.2889 238.69 97.9821C238.69 96.6752 237.626 95.6113 236.319 95.6113C235.012 95.6113 233.948 96.6752 233.948 97.9821C233.948 99.2889 235.012 100.353 236.319 100.353Z" fill="url(#paint29_linear_384_25792)"/>
</g>
</g>
</g>
<defs>
<filter id="filter0_d_384_25792" x="-57.5793" y="-99.1047" width="502.146" height="502.146" filterUnits="userSpaceOnUse" color-interpolation-filters="sRGB">
<feFlood flood-opacity="0" result="BackgroundImageFix"/>
<feColorMatrix in="SourceAlpha" type="matrix" values="0 0 0 0 0 0 0 0 0 0 0 0 0 0 0 0 0 0 127 0" result="hardAlpha"/>
<feOffset/>
<feGaussianBlur stdDeviation="18.9176"/>
<feComposite in2="hardAlpha" operator="out"/>
<feColorMatrix type="matrix" values="0 0 0 0 0 0 0 0 0 0 0 0 0 0 0 0 0 0 0.15 0"/>
<feBlend mode="normal" in2="BackgroundImageFix" result="effect1_dropShadow_384_25792"/>
<feBlend mode="normal" in="SourceGraphic" in2="effect1_dropShadow_384_25792" result="shape"/>
</filter>
<filter id="filter1_d_384_25792" x="-21.0715" y="-62.5969" width="429.13" height="429.13" filterUnits="userSpaceOnUse" color-interpolation-filters="sRGB">
<feFlood flood-opacity="0" result="BackgroundImageFix"/>
<feColorMatrix in="SourceAlpha" type="matrix" values="0 0 0 0 0 0 0 0 0 0 0 0 0 0 0 0 0 0 127 0" result="hardAlpha"/>
<feOffset/>
<feGaussianBlur stdDeviation="18.9176"/>
<feComposite in2="hardAlpha" operator="out"/>
<feColorMatrix type="matrix" values="0 0 0 0 0 0 0 0 0 0 0 0 0 0 0 0 0 0 0.15 0"/>
<feBlend mode="normal" in2="BackgroundImageFix" result="effect1_dropShadow_384_25792"/>
<feBlend mode="normal" in="SourceGraphic" in2="effect1_dropShadow_384_25792" result="shape"/>
</filter>
<filter id="filter2_d_384_25792" x="17.0955" y="-24.4289" width="352.796" height="352.796" filterUnits="userSpaceOnUse" color-interpolation-filters="sRGB">
<feFlood flood-opacity="0" result="BackgroundImageFix"/>
<feColorMatrix in="SourceAlpha" type="matrix" values="0 0 0 0 0 0 0 0 0 0 0 0 0 0 0 0 0 0 127 0" result="hardAlpha"/>
<feOffset/>
<feGaussianBlur stdDeviation="18.9176"/>
<feComposite in2="hardAlpha" operator="out"/>
<feColorMatrix type="matrix" values="0 0 0 0 0 0 0 0 0 0 0 0 0 0 0 0 0 0 0.15 0"/>
<feBlend mode="normal" in2="BackgroundImageFix" result="effect1_dropShadow_384_25792"/>
<feBlend mode="normal" in="SourceGraphic" in2="effect1_dropShadow_384_25792" result="shape"/>
</filter>
<linearGradient id="paint0_linear_384_25792" x1="0" y1="193" x2="386" y2="193" gradientUnits="userSpaceOnUse">
<stop stop-color="#05A0C7"/>
<stop offset="1" stop-color="#09D1C7"/>
</linearGradient>
<linearGradient id="paint1_linear_384_25792" x1="406.732" y1="51.3159" x2="-19.7442" y2="252.621" gradientUnits="userSpaceOnUse">
<stop stop-color="#D7D7D7"/>
<stop offset="0.5" stop-color="white"/>
<stop offset="1" stop-color="#D7D7D7"/>
</linearGradient>
<linearGradient id="paint2_linear_384_25792" x1="370.224" y1="68.5484" x2="16.7637" y2="235.389" gradientUnits="userSpaceOnUse">
<stop stop-color="#D7D7D7"/>
<stop offset="0.5" stop-color="white"/>
<stop offset="1" stop-color="#D7D7D7"/>
</linearGradient>
<linearGradient id="paint3_linear_384_25792" x1="332.057" y1="86.5649" x2="54.9306" y2="217.374" gradientUnits="userSpaceOnUse">
<stop stop-color="#D7D7D7"/>
<stop offset="0.5" stop-color="white"/>
<stop offset="1" stop-color="#D7D7D7"/>
</linearGradient>
<linearGradient id="paint4_linear_384_25792" x1="116.439" y1="251.906" x2="248.742" y2="157.207" gradientUnits="userSpaceOnUse">
<stop stop-color="#05A0C7"/>
<stop offset="1" stop-color="#09D1C7"/>
</linearGradient>
<linearGradient id="paint5_linear_384_25792" x1="131.946" y1="62.2069" x2="141.152" y2="59.4523" gradientUnits="userSpaceOnUse">
<stop stop-color="#05A0C7"/>
<stop offset="1" stop-color="#09D1C7"/>
</linearGradient>
<linearGradient id="paint6_linear_384_25792" x1="133.464" y1="54.5571" x2="139.062" y2="53.0953" gradientUnits="userSpaceOnUse">
<stop stop-color="#05A0C7"/>
<stop offset="1" stop-color="#09D1C7"/>
</linearGradient>
<linearGradient id="paint7_linear_384_25792" x1="145.422" y1="189.714" x2="154.612" y2="186.95" gradientUnits="userSpaceOnUse">
<stop stop-color="#05A0C7"/>
<stop offset="1" stop-color="#09D1C7"/>
</linearGradient>
<linearGradient id="paint8_linear_384_25792" x1="146.941" y1="182.096" x2="152.538" y2="180.634" gradientUnits="userSpaceOnUse">
<stop stop-color="#05A0C7"/>
<stop offset="1" stop-color="#09D1C7"/>
</linearGradient>
<linearGradient id="paint9_linear_384_25792" x1="150.829" y1="183.364" x2="287.335" y2="154.977" gradientUnits="userSpaceOnUse">
<stop stop-color="#05A0C7"/>
<stop offset="1" stop-color="#09D1C7"/>
</linearGradient>
<linearGradient id="paint10_linear_384_25792" x1="276.52" y1="83.6615" x2="285.712" y2="80.9004" gradientUnits="userSpaceOnUse">
<stop stop-color="#05A0C7"/>
<stop offset="1" stop-color="#09D1C7"/>
</linearGradient>
<linearGradient id="paint11_linear_384_25792" x1="278.04" y1="76.0376" x2="283.638" y2="74.5758" gradientUnits="userSpaceOnUse">
<stop stop-color="#05A0C7"/>
<stop offset="1" stop-color="#09D1C7"/>
</linearGradient>
<linearGradient id="paint12_linear_384_25792" x1="226.191" y1="55.0145" x2="235.397" y2="52.2602" gradientUnits="userSpaceOnUse">
<stop stop-color="#05A0C7"/>
<stop offset="1" stop-color="#09D1C7"/>
</linearGradient>
<linearGradient id="paint13_linear_384_25792" x1="227.684" y1="47.3599" x2="233.282" y2="45.8981" gradientUnits="userSpaceOnUse">
<stop stop-color="#05A0C7"/>
<stop offset="1" stop-color="#09D1C7"/>
</linearGradient>
<linearGradient id="paint14_linear_384_25792" x1="96.9101" y1="98.4379" x2="106.102" y2="95.6768" gradientUnits="userSpaceOnUse">
<stop stop-color="#05A0C7"/>
<stop offset="1" stop-color="#09D1C7"/>
</linearGradient>
<linearGradient id="paint15_linear_384_25792" x1="98.4288" y1="90.814" x2="104.027" y2="89.3522" gradientUnits="userSpaceOnUse">
<stop stop-color="#05A0C7"/>
<stop offset="1" stop-color="#09D1C7"/>
</linearGradient>
<linearGradient id="paint16_linear_384_25792" x1="101.507" y1="143.422" x2="110.699" y2="140.661" gradientUnits="userSpaceOnUse">
<stop stop-color="#05A0C7"/>
<stop offset="1" stop-color="#09D1C7"/>
</linearGradient>
<linearGradient id="paint17_linear_384_25792" x1="103.026" y1="135.799" x2="108.624" y2="134.338" gradientUnits="userSpaceOnUse">
<stop stop-color="#05A0C7"/>
<stop offset="1" stop-color="#09D1C7"/>
</linearGradient>
<linearGradient id="paint18_linear_384_25792" x1="130.64" y1="107.329" x2="139.838" y2="104.577" gradientUnits="userSpaceOnUse">
<stop stop-color="#05A0C7"/>
<stop offset="1" stop-color="#09D1C7"/>
</linearGradient>
<linearGradient id="paint19_linear_384_25792" x1="132.165" y1="99.6802" x2="137.763" y2="98.2184" gradientUnits="userSpaceOnUse">
<stop stop-color="#05A0C7"/>
<stop offset="1" stop-color="#09D1C7"/>
</linearGradient>
<linearGradient id="paint20_linear_384_25792" x1="177.778" y1="177.407" x2="186.976" y2="174.641" gradientUnits="userSpaceOnUse">
<stop stop-color="#05A0C7"/>
<stop offset="1" stop-color="#09D1C7"/>
</linearGradient>
<linearGradient id="paint21_linear_384_25792" x1="179.297" y1="169.784" x2="184.895" y2="168.322" gradientUnits="userSpaceOnUse">
<stop stop-color="#05A0C7"/>
<stop offset="1" stop-color="#09D1C7"/>
</linearGradient>
<linearGradient id="paint22_linear_384_25792" x1="229.139" y1="191.171" x2="238.343" y2="188.415" gradientUnits="userSpaceOnUse">
<stop stop-color="#05A0C7"/>
<stop offset="1" stop-color="#09D1C7"/>
</linearGradient>
<linearGradient id="paint23_linear_384_25792" x1="230.664" y1="183.522" x2="236.262" y2="182.06" gradientUnits="userSpaceOnUse">
<stop stop-color="#05A0C7"/>
<stop offset="1" stop-color="#09D1C7"/>
</linearGradient>
<linearGradient id="paint24_linear_384_25792" x1="265.265" y1="150.015" x2="274.463" y2="147.262" gradientUnits="userSpaceOnUse">
<stop stop-color="#05A0C7"/>
<stop offset="1" stop-color="#09D1C7"/>
</linearGradient>
<linearGradient id="paint25_linear_384_25792" x1="266.79" y1="142.366" x2="272.388" y2="140.904" gradientUnits="userSpaceOnUse">
<stop stop-color="#05A0C7"/>
<stop offset="1" stop-color="#09D1C7"/>
</linearGradient>
<linearGradient id="paint26_linear_384_25792" x1="216.347" y1="141.807" x2="225.545" y2="139.054" gradientUnits="userSpaceOnUse">
<stop stop-color="#05A0C7"/>
<stop offset="1" stop-color="#09D1C7"/>
</linearGradient>
<linearGradient id="paint27_linear_384_25792" x1="217.865" y1="134.157" x2="223.463" y2="132.695" gradientUnits="userSpaceOnUse">
<stop stop-color="#05A0C7"/>
<stop offset="1" stop-color="#09D1C7"/>
</linearGradient>
<linearGradient id="paint28_linear_384_25792" x1="232.43" y1="107.986" x2="241.628" y2="105.233" gradientUnits="userSpaceOnUse">
<stop stop-color="#05A0C7"/>
<stop offset="1" stop-color="#09D1C7"/>
</linearGradient>
<linearGradient id="paint29_linear_384_25792" x1="233.955" y1="100.336" x2="239.553" y2="98.8746" gradientUnits="userSpaceOnUse">
<stop stop-color="#05A0C7"/>
<stop offset="1" stop-color="#09D1C7"/>
</linearGradient>
<clipPath id="clip0_384_25792">
<rect width="386" height="386" fill="white" transform="translate(0 -41.5254)"/>
</clipPath>
<clipPath id="clip1_384_25792">
<rect width="199.417" height="229.133" fill="white" transform="translate(93.5234 37.1904)"/>
</clipPath>
</defs>
</svg>
