<svg width="254.439" height="250.376" overflow="visible" style="display: block;" viewBox="0 0 254.439 250.376" fill="none" xmlns="http://www.w3.org/2000/svg">
<g id="Group" opacity="0.3">
<path id="Vector" d="M215.656 142.293L207.833 150.032L215.656 157.771L223.48 150.032L215.656 142.293Z" stroke="var(--stroke-0, black)" stroke-linecap="round" stroke-linejoin="round"/>
<path id="Vector_2" d="M46.9037 5.50328L39.08 13.2423L46.9037 20.9813L54.7274 13.2423L46.9037 5.50328Z" stroke="var(--stroke-0, black)" stroke-linecap="round" stroke-linejoin="round"/>
<path id="Vector_3" d="M32.6822 166.887L27.8446 171.672L32.6822 176.457L37.5199 171.672L32.6822 166.887Z" stroke="var(--stroke-0, black)" stroke-linecap="round" stroke-linejoin="round"/>
<path id="Vector_4" d="M5.34037 89.2194L0.502714 94.0046L5.34037 98.7899L10.178 94.0046L5.34037 89.2194Z" stroke="var(--stroke-0, black)" stroke-linecap="round" stroke-linejoin="round"/>
<path id="Vector_5" d="M203.139 33.8322L198.301 38.6174L203.139 43.4027L207.976 38.6175L203.139 33.8322Z" stroke="var(--stroke-0, black)" stroke-linecap="round" stroke-linejoin="round"/>
<path id="Vector_6" d="M43.5385 172.208L36.6588 179.013L43.5385 185.818L50.4181 179.013L43.5385 172.208Z" stroke="var(--stroke-0, black)" stroke-linecap="round" stroke-linejoin="round"/>
<path id="Vector_7" d="M180.74 164.952L175.902 169.737L180.74 174.523L185.577 169.737L180.74 164.952Z" stroke="var(--stroke-0, black)" stroke-linecap="round" stroke-linejoin="round"/>
<path id="Vector_8" d="M217.847 24.0581L208.589 33.2159L217.847 42.3737L227.105 33.2159L217.847 24.0581Z" stroke="var(--stroke-0, black)" stroke-linecap="round" stroke-linejoin="round"/>
<path id="Vector_9" d="M118.629 240.308L113.791 245.093L118.629 249.879L123.467 245.093L118.629 240.308Z" stroke="var(--stroke-0, black)" stroke-linecap="round" stroke-linejoin="round"/>
<path id="Vector_10" d="M22.2912 95.9352C26.174 95.9352 29.3217 92.8216 29.3217 88.9808C29.3217 85.1399 26.174 82.0263 22.2912 82.0263C18.4083 82.0263 15.2606 85.1399 15.2606 88.9808C15.2606 92.8216 18.4083 95.9352 22.2912 95.9352Z" stroke="var(--stroke-0, black)" stroke-linecap="round" stroke-linejoin="round"/>
<path id="Vector_11" d="M226.201 117.19C229.868 117.19 232.841 114.249 232.841 110.621C232.841 106.993 229.868 104.052 226.201 104.052C222.533 104.052 219.56 106.993 219.56 110.621C219.56 114.249 222.533 117.19 226.201 117.19Z" stroke="var(--stroke-0, black)" stroke-linecap="round" stroke-linejoin="round"/>
<path id="Vector_12" d="M250.031 69.2737C252.189 69.2737 253.939 67.543 253.939 65.4082C253.939 63.2734 252.189 61.5427 250.031 61.5427C247.873 61.5427 246.123 63.2734 246.123 65.4082C246.123 67.543 247.873 69.2737 250.031 69.2737Z" stroke="var(--stroke-0, black)" stroke-linecap="round" stroke-linejoin="round"/>
<path id="Vector_13" d="M171.904 14.7943C171.904 13.5134 170.856 12.4762 169.561 12.4762C168.266 12.4762 167.217 13.5134 167.217 14.7943C167.217 16.0752 168.266 17.1125 169.561 17.1125C170.856 17.1125 171.904 16.0752 171.904 14.7943Z" stroke="var(--stroke-0, black)" stroke-linecap="round" stroke-linejoin="round"/>
<path id="Vector_14" d="M73.4648 149.258C74.759 149.258 75.8083 148.22 75.8083 146.94C75.8083 145.66 74.759 144.622 73.4648 144.622C72.1705 144.622 71.1212 145.66 71.1212 146.94C71.1212 148.22 72.1705 149.258 73.4648 149.258Z" stroke="var(--stroke-0, black)" stroke-linecap="round" stroke-linejoin="round"/>
<path id="Vector_15" d="M17.9937 212.631C19.9368 212.631 21.5119 211.072 21.5119 209.15C21.5119 207.228 19.9368 205.67 17.9937 205.67C16.0507 205.67 14.4756 207.228 14.4756 209.15C14.4756 211.072 16.0507 212.631 17.9937 212.631Z" stroke="var(--stroke-0, black)" stroke-linecap="round" stroke-linejoin="round"/>
<path id="Vector_16" d="M230.888 203.358C230.888 201.652 229.489 200.269 227.765 200.269C226.04 200.269 224.642 201.652 224.642 203.358C224.642 205.064 226.04 206.447 227.765 206.447C229.489 206.447 230.888 205.064 230.888 203.358Z" stroke="var(--stroke-0, black)" stroke-linecap="round" stroke-linejoin="round"/>
<path id="Vector_17" d="M205.888 3.58898C205.888 1.88295 204.49 0.5 202.765 0.5C201.041 0.5 199.643 1.88295 199.643 3.58898C199.643 5.295 201.041 6.67795 202.765 6.67795C204.49 6.67795 205.888 5.295 205.888 3.58898Z" stroke="var(--stroke-0, black)" stroke-linecap="round" stroke-linejoin="round"/>
</g>
</svg>
