<svg width="143.904" height="257.978" overflow="visible" style="display: block;" viewBox="0 0 143.904 257.978" fill="none" xmlns="http://www.w3.org/2000/svg">
<g id="Group">
<path id="Vector" d="M75.8425 72.9498C73.6364 71.4364 65.3109 72.7797 60.0452 76.9796C54.7794 81.1795 53.5933 82.6928 53.5933 82.6928C53.5933 82.6928 51.2154 66.2277 51.2154 65.7233C51.2154 65.2188 47.8176 34.3064 47.1415 29.7721C46.4596 25.2378 45.4454 18.5158 44.4255 17.0024C43.4056 15.4891 39.3316 15.3248 37.9737 15.9936L36.6157 16.668C36.6157 16.668 37.2975 4.90725 35.9338 2.05065C34.5758 -0.805942 30.33 0.877408 29.1382 2.38506C27.9521 3.89837 27.0983 6.25053 27.0983 6.25053C27.0983 6.25053 23.1906 4.90725 20.9846 9.27716C18.7786 13.6471 17.0768 17.5069 16.7387 21.7068C16.4007 25.9066 14.5327 31.2854 14.5327 31.2854C14.5327 31.2854 12.3267 27.76 9.94881 29.7721C7.57091 31.7899 4.85494 39.6852 4.17308 45.3984C3.49123 51.1115 2.8151 66.2277 2.8151 66.2277C2.8151 66.2277 1.45712 73.1141 0.775259 78.6573C0.0934029 84.2004 0.603368 107.218 3.15317 116.791C5.70296 126.369 9.09505 132.417 9.09505 132.417C9.09505 132.417 15.0369 151.739 15.8907 154.425C16.7387 157.112 26.0784 193.737 26.0784 193.737L53.9314 158.795C53.9314 158.795 46.9696 139.813 45.4397 135.443C43.9098 131.074 42.8899 129.73 42.8899 129.73C42.8899 129.73 51.3816 117.799 55.9655 114.274C60.5494 110.749 62.9273 98.9879 64.1191 93.7791C65.3052 88.5704 70.2329 81.3495 72.9489 78.9974C75.6648 76.6452 78.0427 74.4631 75.8367 72.9498H75.8425ZM13.0028 64.8901C12.4929 64.8901 12.6648 58.338 12.6648 50.4427C12.6648 42.5474 14.0228 39.0164 14.0228 39.0164C13.3409 42.5418 14.7046 60.0157 14.7046 61.1946C14.7046 62.3736 13.5185 64.8901 13.0086 64.8901H13.0028Z" fill="var(--fill-0, white)" stroke="var(--stroke-0, #23272E)" stroke-linecap="round" stroke-linejoin="round"/>
<path id="Vector_2" d="M38.6841 132.604C40.8099 131.538 41.1938 130.405 41.1938 130.405" stroke="var(--stroke-0, #23272E)" stroke-linecap="round" stroke-linejoin="round"/>
<path id="Vector_3" d="M22.0045 128.727C22.0045 128.727 31.3442 134.775 35.9338 133.601" stroke="var(--stroke-0, #23272E)" stroke-linecap="round" stroke-linejoin="round"/>
<path id="Vector_4" d="M53.5933 82.6985C53.5933 82.6985 50.0293 88.2416 49.1756 90.2594C48.3276 92.2771 47.8176 93.9548 46.2877 94.7937C44.7578 95.6325 42.7237 96.8114 42.7237 96.8114" stroke="var(--stroke-0, #23272E)" stroke-linecap="round" stroke-linejoin="round"/>
<path id="Vector_5" d="M43.3311 84.3365C39.0108 86.3202 32.9314 89.8286 29.4762 94.958" stroke="var(--stroke-0, #23272E)" stroke-linecap="round" stroke-linejoin="round"/>
<path id="Vector_6" d="M48.3276 82.3584C48.3276 82.3584 47.0842 82.7438 45.1933 83.526" stroke="var(--stroke-0, #23272E)" stroke-linecap="round" stroke-linejoin="round"/>
<path id="Vector_7" d="M27.6083 97.1458C27.6083 97.1458 24.5485 102.689 23.1906 107.059" stroke="var(--stroke-0, #23272E)" stroke-linecap="round" stroke-linejoin="round"/>
<path id="Vector_8" d="M27.0983 6.25619C27.0983 6.25619 26.2503 13.3127 25.0585 23.8945C23.8724 34.4764 23.1906 39.6852 23.3624 46.4072C23.5343 53.1293 25.4023 59.0069 25.2304 59.8457" stroke="var(--stroke-0, #23272E)" stroke-linecap="round" stroke-linejoin="round"/>
<path id="Vector_9" d="M36.6099 16.6737C36.6099 16.6737 36.1 21.0436 36.6099 26.7511C37.1199 32.4643 36.1 43.0462 36.1 47.0817C36.1 51.1172 36.2719 57.1591 36.438 59.0068C36.6042 60.8546 37.6241 62.1978 37.6241 62.1978" stroke="var(--stroke-0, #23272E)" stroke-linecap="round" stroke-linejoin="round"/>
<path id="Vector_10" d="M39.8359 63.2067C39.8359 63.2067 40.6839 64.72 46.2877 64.8844" stroke="var(--stroke-0, #23272E)" stroke-linecap="round" stroke-linejoin="round"/>
<path id="Vector_11" d="M26.9264 59.1769C26.9264 59.1769 31.0004 60.0157 33.7221 59.5113" stroke="var(--stroke-0, #23272E)" stroke-linecap="round" stroke-linejoin="round"/>
<path id="Vector_12" d="M12.1491 66.2334C12.1491 66.2334 12.1491 67.911 7.22137 69.4244" stroke="var(--stroke-0, #23272E)" stroke-linecap="round" stroke-linejoin="round"/>
<path id="Vector_13" d="M21.8326 61.6934C22.3425 61.359 24.3824 60.6845 24.8923 58.3324" stroke="var(--stroke-0, #23272E)" stroke-linecap="round" stroke-linejoin="round"/>
<path id="Vector_14" d="M22.1248 87.4311C22.1248 87.4311 32.685 83.5997 39.3717 82.2054" stroke="var(--stroke-0, #23272E)" stroke-linecap="round" stroke-linejoin="round"/>
<path id="Vector_15" d="M52.1035 257.472H143.404C137.026 249.146 113.751 218.806 112.233 217.31C110.474 215.57 102.727 214.527 102.727 214.527L79.8476 195.727L51.3357 149.069L24.2334 186.324L19.6552 168.215L9.44457 205.821C9.44457 205.821 46.408 250.393 47.8119 252.133C48.0869 252.473 49.6798 254.468 52.0978 257.478L52.1035 257.472Z" fill="var(--fill-0, #23272E)" stroke="var(--stroke-0, #23272E)" stroke-linecap="round" stroke-linejoin="round"/>
</g>
</svg>
