<svg width="113.435" height="252.366" overflow="visible" style="display: block;" viewBox="0 0 113.435 252.366" fill="none" xmlns="http://www.w3.org/2000/svg">
<g id="Group">
<path id="Vector" d="M64.1418 121.245C64.1418 121.245 56.5841 102.099 54.762 98.5738C52.9399 95.0484 43.0501 79.7395 42.5516 75.585C42.0531 71.4305 40.506 64.5214 38.9131 61.6308C37.3202 58.7402 42.0646 56.8471 45.9895 60.5085C49.9088 64.17 52.281 70.1269 52.2294 71.8442C52.1778 73.5616 61.0305 79.9776 61.0305 79.9776L62.6406 65.2185C62.6406 65.2185 64.3595 28.6099 63.9986 23.1461C63.6376 17.6823 63.2823 6.08019 67.6657 5.63243C72.0491 5.18467 72.7309 8.61372 72.7309 8.61372C72.7309 8.61372 72.8856 -0.0297474 77.7617 0.525702C81.4862 0.95079 82.9129 4.42518 83.4573 6.09719C84.0016 7.76921 84.6433 9.84364 84.6433 9.84364C84.6433 9.84364 87.7146 7.78055 90.7113 12.6946C92.4303 15.5172 96.0859 24.393 96.6761 26.6488C97.2663 28.9046 97.4496 29.7208 97.4496 29.7208C97.4496 29.7208 101.558 29.5904 103.38 33.881C105.202 38.1715 107.792 49.3655 110.296 58.6268C112.8 67.8881 112.697 76.6846 112.697 76.6846C112.697 76.6846 113.677 106.48 111.66 115.957C109.643 125.434 105.85 133.51 105.07 134.281C104.291 135.052 93.0835 167.767 93.0835 167.767L54.2119 153.512C54.2119 153.512 62.3082 133.839 63.586 129.549C64.8695 125.264 64.1418 121.245 64.1418 121.245Z" fill="var(--fill-0, white)" stroke="var(--stroke-0, #23272E)" stroke-linecap="round" stroke-linejoin="round"/>
<path id="Vector_2" d="M56.0111 93.3197C56.0913 95.1957 56.4981 96.3237 56.4981 96.3237" stroke="var(--stroke-0, #23272E)" stroke-linecap="round" stroke-linejoin="round"/>
<path id="Vector_3" d="M59.8444 81.6099C59.8444 81.6099 57.6499 84.1378 56.5096 88.6494C56.2804 89.5562 56.1429 90.4064 56.0684 91.1886" stroke="var(--stroke-0, #23272E)" stroke-linecap="round" stroke-linejoin="round"/>
<path id="Vector_4" d="M72.7309 8.62506C72.7309 8.62506 73.407 20.4992 73.854 26.3654C74.3066 32.2316 74.5244 41.3059 74.5645 47.2684C74.6046 53.2253 73.8712 60.7182 73.4586 62.3449C73.0461 63.9716 72.1293 66.046 72.1293 66.046" stroke="var(--stroke-0, #23272E)" stroke-linecap="round" stroke-linejoin="round"/>
<path id="Vector_5" d="M84.6376 9.85498C84.6376 9.85498 82.7181 12.0654 83.3541 14.9107C83.9901 17.756 86.941 33.6486 86.941 35.9497C86.941 38.2509 87.1072 58.247 87.1473 59.6017C87.1931 60.9563 86.2305 65.5132 85.7721 67.3213" stroke="var(--stroke-0, #23272E)" stroke-linecap="round" stroke-linejoin="round"/>
<path id="Vector_6" d="M97.4439 29.7265C97.4439 29.7265 95.2551 29.9475 95.7536 33.3369C96.2521 36.7262 97.3408 47.7389 97.335 50.8052C97.335 53.8772 98.057 60.962 97.9137 67.6444C97.7705 74.3267 99.3233 76.6279 100.051 78.3453" stroke="var(--stroke-0, #23272E)" stroke-linecap="round" stroke-linejoin="round"/>
<path id="Vector_7" d="M63.6376 74.2984C63.6376 74.2984 62.8583 78.1355 63.9069 80.1193C64.9555 82.1087 66.4108 86.3029 66.4108 88.6097" stroke="var(--stroke-0, #23272E)" stroke-linecap="round" stroke-linejoin="round"/>
<path id="Vector_8" d="M71.4875 72.411C71.4875 72.411 71.075 75.568 71.5276 77.6028C71.9803 79.6375 73.3956 81.712 73.3956 81.712" stroke="var(--stroke-0, #23272E)" stroke-linecap="round" stroke-linejoin="round"/>
<path id="Vector_9" d="M84.5803 77.3874C84.5803 77.3874 84.1219 80.7257 84.9413 82.8512C85.7607 84.971 86.7176 86.5523 86.7176 86.5523" stroke="var(--stroke-0, #23272E)" stroke-linecap="round" stroke-linejoin="round"/>
<g id="Group_2">
<path id="Vector_10" d="M66.9552 251.866L103.094 171.207C103.094 171.207 87.6744 158.613 77.5326 152.005C67.3907 145.396 55.2261 145.594 55.2261 145.594C55.2261 145.594 39.3486 179.063 38.5178 181.194C37.6812 183.325 26.6111 206.002 26.6111 206.002C26.6111 206.002 21.7464 207.72 19.5862 211.562C17.8959 214.578 5.69701 240.701 0.500001 251.866H66.9552Z" fill="url(#paint0_linear_0_387)" stroke="var(--stroke-0, #23272E)" stroke-linecap="round" stroke-linejoin="round"/>
<path id="Vector_11" d="M92.5234 176.503C94.1251 175.566 94.6556 173.522 93.7084 171.938C92.7612 170.353 90.695 169.829 89.0933 170.766C87.4917 171.703 86.9612 173.746 87.9084 175.331C88.8556 176.915 90.9218 177.44 92.5234 176.503Z" fill="var(--fill-0, #23272E)" stroke="var(--stroke-0, #23272E)" stroke-linecap="round" stroke-linejoin="round"/>
<path id="Vector_12" d="M88.9923 186.907C88.5397 188.693 86.7118 189.775 84.9069 189.327C83.102 188.88 82.0076 187.072 82.4602 185.286C82.9129 183.501 84.7407 182.418 86.5457 182.866C88.3506 183.314 89.445 185.122 88.9923 186.907Z" fill="var(--fill-0, #23272E)" stroke="var(--stroke-0, #23272E)" stroke-linecap="round" stroke-linejoin="round"/>
</g>
</g>
<defs>
<linearGradient id="paint0_linear_0_387" x1="103.094" y1="198.73" x2="0.500001" y2="198.73" gradientUnits="userSpaceOnUse">
<stop stop-color="#09D1C7"/>
<stop offset="1" stop-color="#05A0C7"/>
</linearGradient>
</defs>
</svg>
