<svg width="145" height="49" viewBox="0 0 145 49" fill="none" xmlns="http://www.w3.org/2000/svg">
<path d="M74.8686 32.6642C66.2841 37.2033 56.8571 40.3948 52.9621 36.6501C44.2812 28.3096 61.4104 6.67541 68.2757 13.8669C73.0161 18.8287 61.1579 26.8911 50.7692 32.6642" stroke="url(#paint0_linear_508_45319)" stroke-width="5.95748" stroke-miterlimit="10" stroke-linecap="round"/>
<path d="M98.7524 33.3848C90.168 37.9238 80.9537 40.3948 77.0558 36.6501C68.3749 28.3096 85.5041 6.67541 92.3694 13.8669C97.1099 18.8287 85.2516 26.8911 74.8629 32.6642" stroke="url(#paint1_linear_508_45319)" stroke-width="5.95748" stroke-miterlimit="10" stroke-linecap="round"/>
<path d="M18.3716 38.565H11.5886C11.495 38.565 11.4184 38.4884 11.4184 38.3948V10.162C11.4184 10.0683 11.3418 9.99175 11.2482 9.99175H0.853809C0.760192 9.99175 0.683594 9.91516 0.683594 9.82154V3.01299C0.683594 2.91937 0.760192 2.84277 0.853809 2.84277H29.0866C29.1802 2.84277 29.2568 2.91937 29.2568 3.01299V9.82154C29.2568 9.91516 29.1802 9.99175 29.0866 9.99175H18.7149C18.6213 9.99175 18.5447 10.0683 18.5447 10.162V38.3948C18.5447 38.4884 18.4681 38.565 18.3745 38.565H18.3716Z" fill="white"/>
<path d="M36.6074 38.5648H30.1478C30.0541 38.5648 29.9775 38.4882 29.9775 38.3946V12.054C29.9775 11.9604 30.0541 11.8838 30.1478 11.8838H31.5322C31.5889 11.8838 31.64 11.9093 31.6712 11.9547L33.7534 14.8909C33.813 14.9732 33.9293 14.9845 34.0031 14.9193C35.0272 14.0171 36.1762 13.3107 37.4556 12.7973C38.9535 12.1958 40.5677 11.932 42.1847 11.932H47.7677C47.8613 11.932 47.9379 12.0086 47.9379 12.1022V18.5363C47.9379 18.6299 47.8613 18.7065 47.7677 18.7065H41.9351C41.2202 18.7065 40.5478 18.8399 39.918 19.1037C39.2854 19.3704 38.7379 19.7363 38.2755 20.1987C37.8102 20.664 37.4442 21.2115 37.1776 21.8441C36.9109 22.4768 36.7804 23.1491 36.7804 23.8612V38.3889C36.7804 38.4825 36.7038 38.5591 36.6102 38.5591L36.6074 38.5648Z" fill="white"/>
<path d="M112.484 48.7299H105.976C105.882 48.7299 105.806 48.6533 105.806 48.5597V12.0573C105.806 11.9637 105.882 11.8871 105.976 11.8871H107.369C107.42 11.8871 107.468 11.9098 107.499 11.9467L110.05 14.9652C110.112 15.0389 110.223 15.0446 110.294 14.9793C110.872 14.4432 111.502 13.9354 112.183 13.4559C112.915 12.9424 113.672 12.4971 114.464 12.1226C115.253 11.7481 116.07 11.4531 116.918 11.2375C117.766 11.0219 118.62 10.9141 119.482 10.9141C121.358 10.9141 123.122 11.2517 124.776 11.924C126.43 12.5963 127.874 13.5467 129.111 14.7751C130.348 16.0035 131.324 17.4872 132.038 19.2205C132.753 20.9567 133.111 22.8801 133.111 24.9879C133.111 27.0957 132.753 29.1525 132.038 30.9057C131.324 32.6589 130.348 34.1454 129.111 35.3653C127.874 36.5851 126.427 37.5213 124.776 38.1681C123.122 38.8149 121.358 39.1384 119.482 39.1384C118.884 39.1384 118.291 39.0731 117.701 38.9398C117.111 38.8064 116.529 38.6277 115.956 38.4036C115.383 38.1795 114.818 37.927 114.262 37.6433C113.797 37.4078 113.346 37.1639 112.909 36.9171C112.796 36.8518 112.657 36.9341 112.657 37.0646V48.5569C112.657 48.6505 112.58 48.7271 112.487 48.7271L112.484 48.7299ZM126.282 24.9907C126.282 23.8617 126.104 22.8489 125.746 21.9524C125.389 21.056 124.904 20.2957 124.288 19.6744C123.672 19.0503 122.952 18.5737 122.121 18.2418C121.289 17.9099 120.41 17.7425 119.48 17.7425C118.549 17.7425 117.672 17.9099 116.853 18.2418C116.03 18.5737 115.312 19.0503 114.697 19.6744C114.081 20.2985 113.596 21.056 113.238 21.9524C112.881 22.8489 112.702 23.8617 112.702 24.9907C112.702 26.1198 112.881 27.0588 113.238 27.9553C113.596 28.8518 114.081 29.6149 114.697 30.2475C115.312 30.8801 116.03 31.3681 116.853 31.717C117.675 32.066 118.552 32.239 119.48 32.239C120.407 32.239 121.289 32.066 122.121 31.717C122.952 31.3681 123.672 30.8773 124.288 30.2475C124.904 29.6177 125.389 28.8518 125.746 27.9553C126.104 27.0588 126.282 26.0716 126.282 24.9907Z" fill="white"/>
<path d="M144.89 4.63599C144.89 5.26862 144.77 5.85586 144.529 6.40338C144.288 6.9509 143.959 7.43034 143.545 7.83601C143.131 8.24453 142.643 8.56793 142.087 8.80623C141.531 9.04737 140.938 9.16652 140.305 9.16652C139.672 9.16652 139.08 9.04737 138.524 8.80623C137.967 8.56509 137.485 8.24169 137.08 7.83601C136.674 7.43034 136.348 6.9509 136.109 6.40338C135.868 5.85586 135.749 5.26578 135.749 4.63599C135.749 4.0062 135.868 3.43599 136.109 2.87995C136.35 2.32392 136.674 1.84165 137.08 1.43597C137.485 1.0303 137.967 0.704053 138.524 0.465754C139.08 0.224617 139.672 0.105469 140.305 0.105469C140.938 0.105469 141.531 0.227454 142.087 0.465754C142.643 0.70689 143.128 1.0303 143.545 1.43597C143.959 1.84449 144.288 2.32392 144.529 2.87995C144.77 3.43599 144.89 4.02322 144.89 4.63599ZM143.548 38.5653H137.037C136.943 38.5653 136.867 38.4887 136.867 38.3951V12.0545C136.867 11.9609 136.943 11.8843 137.037 11.8843H143.548C143.641 11.8843 143.718 11.9609 143.718 12.0545V38.3951C143.718 38.4887 143.641 38.5653 143.548 38.5653Z" fill="white"/>
<defs>
<linearGradient id="paint0_linear_508_45319" x1="50.5605" y1="25.3626" x2="74.8686" y2="25.3626" gradientUnits="userSpaceOnUse">
<stop stop-color="#FF6567"/>
<stop offset="1" stop-color="#FFC486"/>
</linearGradient>
<linearGradient id="paint1_linear_508_45319" x1="74.6543" y1="25.4514" x2="98.7524" y2="25.4514" gradientUnits="userSpaceOnUse">
<stop stop-color="#FF6567"/>
<stop offset="1" stop-color="#FFC486"/>
</linearGradient>
</defs>
</svg>
