<svg width="21.2308" height="21.2308" overflow="visible" style="display: block;" viewBox="0 0 21.2308 21.2308" fill="none" xmlns="http://www.w3.org/2000/svg">
<g id="Icon / Storke / ArrowLeft">
<path id="Vector (Stroke)" fill-rule="evenodd" clip-rule="evenodd" d="M2.65385 10.6154C2.65385 10.249 2.95089 9.95192 3.31731 9.95192H17.9135C18.2799 9.95192 18.5769 10.249 18.5769 10.6154C18.5769 10.9818 18.2799 11.2788 17.9135 11.2788H3.31731C2.95089 11.2788 2.65385 10.9818 2.65385 10.6154Z" fill="var(--fill-0, white)"/>
<path id="Vector (Stroke)_2" fill-rule="evenodd" clip-rule="evenodd" d="M9.7576 4.17509C10.0167 4.43419 10.0167 4.85427 9.7576 5.11337L4.25558 10.6154L9.7576 16.1174C10.0167 16.3765 10.0167 16.7966 9.7576 17.0557C9.4985 17.3148 9.07842 17.3148 8.81932 17.0557L2.84817 11.0845C2.58907 10.8254 2.58907 10.4053 2.84817 10.1462L8.81932 4.17509C9.07842 3.91599 9.4985 3.91599 9.7576 4.17509Z" fill="var(--fill-0, white)"/>
</g>
</svg>
