<svg width="32" height="32" overflow="visible" style="display: block;" viewBox="0 0 32 32" fill="none" xmlns="http://www.w3.org/2000/svg">
<g id="Icon / Storke / Close">
<g id="Vector">
</g>
<path id="Vector (Stroke)" fill-rule="evenodd" clip-rule="evenodd" d="M7.51472 7.51472C7.90524 7.12419 8.53841 7.12419 8.92893 7.51472L24.4853 23.0711C24.8758 23.4616 24.8758 24.0948 24.4853 24.4853C24.0948 24.8758 23.4616 24.8758 23.0711 24.4853L7.51472 8.92893C7.12419 8.53841 7.12419 7.90524 7.51472 7.51472Z" fill="var(--fill-0, #09D1C7)"/>
<path id="Vector (Stroke)_2" fill-rule="evenodd" clip-rule="evenodd" d="M24.4853 7.51472C24.8758 7.90524 24.8758 8.53841 24.4853 8.92893L8.92893 24.4853C8.53841 24.8758 7.90524 24.8758 7.51472 24.4853C7.1242 24.0948 7.1242 23.4616 7.51472 23.0711L23.0711 7.51472C23.4616 7.12419 24.0948 7.12419 24.4853 7.51472Z" fill="var(--fill-0, #09D1C7)"/>
</g>
</svg>
