<svg width="41.9735" height="41.8855" overflow="visible" style="display: block;" viewBox="0 0 41.9735 41.8855" fill="none" xmlns="http://www.w3.org/2000/svg">
<g id="Icon / Fill / HouseEE">
<path id="Vector 2" d="M36.4977 37.4839L27.3791 39.4524C26.7136 39.5961 26.0348 39.2735 25.7259 38.6667L25.3487 37.9258C25.0063 37.2535 24.2179 36.94 23.5074 37.1938L14.8152 40.2981C14.4524 40.4277 14.0536 40.4127 13.7015 40.2562L8.39079 37.8959C7.8491 37.6552 7.5 37.118 7.5 36.5252V23.1213C7.5 22.7235 7.65804 22.342 7.93934 22.0607L22.9393 7.06066C23.5251 6.47487 24.4749 6.47487 25.0607 7.06066L40.0342 22.0342C40.331 22.331 40.4899 22.7387 40.4722 23.1582L40.0441 33.2754C39.9575 35.3219 38.4999 37.0516 36.4977 37.4839Z" fill="var(--fill-0, #09D1C7)" stroke="var(--stroke-0, #09D1C7)" stroke-width="3"/>
<g id="ee">
<path id="e" d="M12.3878 18.5673C9.60233 20.0405 6.54337 21.0754 5.27931 19.8609C2.46244 17.1545 8.02028 10.134 10.2488 12.4676C11.7868 14.0782 7.93965 16.6937 4.56858 18.5673" stroke="var(--stroke-0, white)" stroke-width="2.96678" stroke-miterlimit="10" stroke-linecap="round"/>
<path id="e_2" d="M20.3065 16.5592L21.6177 15.8656L23.0048 18.4882L21.6935 19.1817L21 17.8705L20.3065 16.5592ZM13.0985 19.8609L12.0708 20.9306L12.0707 20.9306L13.0985 19.8609ZM18.0681 12.4677L16.9953 13.4921L16.9953 13.4921L18.0681 12.4677ZM13.1084 19.8639C12.3923 20.2619 11.4892 20.004 11.0912 19.2879C10.6932 18.5719 10.951 17.6687 11.6671 17.2707L12.3877 18.5673L13.1084 19.8639ZM21 17.8705L21.6935 19.1817C20.2821 19.9283 18.5271 20.7809 16.9266 21.2878C16.131 21.5397 15.2931 21.7328 14.5118 21.7523C13.7539 21.7713 12.7995 21.6307 12.0708 20.9306L13.0985 19.8609L14.1262 18.7912C14.0295 18.6983 14.0306 18.7967 14.4376 18.7865C14.8211 18.7769 15.3573 18.6727 16.0309 18.4594C17.3687 18.0357 18.9325 17.2859 20.3065 16.5592L21 17.8705ZM13.0985 19.8609L12.0707 20.9306C10.904 19.8095 10.7004 18.3068 10.9083 17.0023C11.1141 15.7109 11.7356 14.4368 12.4933 13.3993C13.2451 12.3701 14.239 11.4264 15.3232 10.9158C16.426 10.3963 17.9698 10.2168 19.1409 11.4432L18.0681 12.4677L16.9953 13.4921C16.9756 13.4715 16.9717 13.4735 16.9847 13.4796C16.9973 13.4856 17.0032 13.4846 16.9919 13.4838C16.9592 13.4814 16.8287 13.4861 16.5873 13.5997C16.0907 13.8337 15.4533 14.3767 14.8891 15.1492C14.331 15.9134 13.9518 16.756 13.8381 17.4692C13.7265 18.1693 13.8846 18.559 14.1262 18.7912L13.0985 19.8609ZM18.0681 12.4677L19.1409 11.4432C19.5185 11.8387 19.783 12.3267 19.8698 12.8889C19.9545 13.4373 19.8537 13.9479 19.6838 14.3797C19.3614 15.1993 18.7172 15.9213 18.07 16.5133C16.7433 17.7269 14.8094 18.9184 13.1084 19.8639L12.3877 18.5673L11.6671 17.2707C13.3372 16.3425 15.0124 15.2895 16.0676 14.3242C16.6113 13.8268 16.8513 13.4759 16.923 13.2936C16.9502 13.2245 16.9239 13.2518 16.9378 13.3416C16.9538 13.4452 17.0021 13.4993 16.9953 13.4921L18.0681 12.4677Z" fill="var(--stroke-0, white)"/>
</g>
</g>
</svg>
