<svg width="24" height="24" overflow="visible" style="display: block;" viewBox="0 0 24 24" fill="none" xmlns="http://www.w3.org/2000/svg">
<g id="Icon / Fill / ArrowsLeftRight">
<path id="Vector" d="M3.96938 8.03063C3.89964 7.96097 3.84432 7.87825 3.80658 7.78721C3.76884 7.69616 3.74941 7.59856 3.74941 7.5C3.74941 7.40144 3.76884 7.30384 3.80658 7.2128C3.84432 7.12175 3.89964 7.03903 3.96938 6.96937L6.96937 3.96937C7.07427 3.86437 7.20796 3.79284 7.35352 3.76385C7.49908 3.73487 7.64998 3.74972 7.78709 3.80653C7.92421 3.86335 8.04139 3.95957 8.12379 4.08301C8.20619 4.20646 8.25012 4.35158 8.25 4.5V6.75H19.5C19.6989 6.75 19.8897 6.82902 20.0303 6.96967C20.171 7.11032 20.25 7.30109 20.25 7.5C20.25 7.69891 20.171 7.88968 20.0303 8.03033C19.8897 8.17098 19.6989 8.25 19.5 8.25H8.25V10.5C8.25012 10.6484 8.20619 10.7935 8.12379 10.917C8.04139 11.0404 7.92421 11.1367 7.78709 11.1935C7.64998 11.2503 7.49908 11.2651 7.35352 11.2361C7.20796 11.2072 7.07427 11.1356 6.96937 11.0306L3.96938 8.03063ZM20.0306 15.9694L17.0306 12.9694C16.9257 12.8644 16.792 12.7928 16.6465 12.7639C16.5009 12.7349 16.35 12.7497 16.2129 12.8065C16.0758 12.8633 15.9586 12.9596 15.8762 13.083C15.7938 13.2065 15.7499 13.3516 15.75 13.5V15.75H4.5C4.30109 15.75 4.11032 15.829 3.96967 15.9697C3.82902 16.1103 3.75 16.3011 3.75 16.5C3.75 16.6989 3.82902 16.8897 3.96967 17.0303C4.11032 17.171 4.30109 17.25 4.5 17.25H15.75V19.5C15.7499 19.6484 15.7938 19.7935 15.8762 19.917C15.9586 20.0404 16.0758 20.1367 16.2129 20.1935C16.35 20.2503 16.5009 20.2651 16.6465 20.2361C16.792 20.2072 16.9257 20.1356 17.0306 20.0306L20.0306 17.0306C20.1004 16.961 20.1557 16.8783 20.1934 16.7872C20.2312 16.6962 20.2506 16.5986 20.2506 16.5C20.2506 16.4014 20.2312 16.3038 20.1934 16.2128C20.1557 16.1217 20.1004 16.039 20.0306 15.9694Z" fill="var(--fill-0, #8996A7)"/>
</g>
</svg>
