<svg width="15" height="15" overflow="visible" style="display: block;" viewBox="0 0 15 15" fill="none" xmlns="http://www.w3.org/2000/svg">
<g id="Icon / Storke / Pencil">
<path id="Vector" d="M13.3189 4.29902L10.701 1.68047C10.6139 1.59339 10.5106 1.52432 10.3968 1.47719C10.283 1.43006 10.1611 1.40581 10.038 1.40581C9.91486 1.40581 9.79293 1.43006 9.67917 1.47719C9.56542 1.52432 9.46206 1.59339 9.375 1.68047L2.1498 8.90625C2.06237 8.99299 1.99305 9.09624 1.94587 9.21001C1.8987 9.32378 1.87461 9.44579 1.875 9.56894V12.1875C1.875 12.4361 1.97377 12.6746 2.14959 12.8504C2.3254 13.0262 2.56386 13.125 2.8125 13.125H5.43105C5.55421 13.1254 5.67622 13.1013 5.78999 13.0541C5.90376 13.0069 6.00701 12.9376 6.09375 12.8502L13.3189 5.625C13.406 5.53794 13.4751 5.43458 13.5222 5.32083C13.5694 5.20707 13.5936 5.08514 13.5936 4.96201C13.5936 4.83888 13.5694 4.71695 13.5222 4.6032C13.4751 4.48944 13.406 4.38608 13.3189 4.29902ZM3.00645 9.375L7.96875 4.41269L8.94668 5.39062L3.98438 10.3523L3.00645 9.375ZM2.8125 10.5064L4.49355 12.1875H2.8125V10.5064ZM5.625 11.9936L4.64707 11.0156L9.60938 6.05332L10.5873 7.03125L5.625 11.9936ZM11.25 6.36855L8.63145 3.75L10.0377 2.34375L12.6563 4.96172L11.25 6.36855Z" fill="var(--fill-0, #09D1C7)"/>
</g>
</svg>
