<svg width="18.2308" height="18.2308" overflow="visible" style="display: block;" viewBox="0 0 18.2308 18.2308" fill="none" xmlns="http://www.w3.org/2000/svg">
<g id="Icon / Fill / PlusCircle">
<path id="Vector" d="M9.11539 1.70913C7.65057 1.70913 6.21865 2.1435 5.0007 2.95731C3.78274 3.77112 2.83347 4.92782 2.2729 6.28113C1.71234 7.63445 1.56567 9.1236 1.85145 10.5603C2.13722 11.9969 2.8426 13.3166 3.87838 14.3524C4.91416 15.3882 6.23383 16.0936 7.6705 16.3793C9.10717 16.6651 10.5963 16.5184 11.9496 15.9579C13.3029 15.3973 14.4596 14.448 15.2735 13.2301C16.0873 12.0121 16.5216 10.5802 16.5216 9.11538C16.5179 7.15228 15.7364 5.27066 14.3482 3.88253C12.9601 2.49441 11.0785 1.7129 9.11539 1.70913V1.70913ZM11.9639 9.68509H9.6851V11.9639C9.6851 12.115 9.62508 12.2599 9.51823 12.3668C9.41139 12.4736 9.26648 12.5337 9.11539 12.5337C8.96429 12.5337 8.81938 12.4736 8.71254 12.3668C8.6057 12.2599 8.54567 12.115 8.54567 11.9639V9.68509H6.26683C6.11573 9.68509 5.97082 9.62507 5.86398 9.51823C5.75714 9.41139 5.69712 9.26648 5.69712 9.11538C5.69712 8.96429 5.75714 8.81938 5.86398 8.71254C5.97082 8.60569 6.11573 8.54567 6.26683 8.54567H8.54567V6.26683C8.54567 6.11573 8.6057 5.97082 8.71254 5.86398C8.81938 5.75714 8.96429 5.69711 9.11539 5.69711C9.26648 5.69711 9.41139 5.75714 9.51823 5.86398C9.62508 5.97082 9.6851 6.11573 9.6851 6.26683V8.54567H11.9639C12.115 8.54567 12.2599 8.60569 12.3668 8.71254C12.4736 8.81938 12.5337 8.96429 12.5337 9.11538C12.5337 9.26648 12.4736 9.41139 12.3668 9.51823C12.2599 9.62507 12.115 9.68509 11.9639 9.68509Z" fill="var(--fill-0, white)"/>
</g>
</svg>
