<svg width="24" height="24" overflow="visible" style="display: block;" viewBox="0 0 24 24" fill="none" xmlns="http://www.w3.org/2000/svg">
<g id="Icon / Fill / UserCircle">
<path id="Vector" d="M12 15.375C14.2782 15.375 16.125 13.5282 16.125 11.25C16.125 8.97183 14.2782 7.125 12 7.125C9.72183 7.125 7.875 8.97183 7.875 11.25C7.875 13.5282 9.72183 15.375 12 15.375Z" fill="url(#paint0_linear_0_384)"/>
<path id="Vector_2" d="M12 2.25C10.0716 2.25 8.18657 2.82183 6.58319 3.89317C4.97982 4.96452 3.73013 6.48726 2.99218 8.26884C2.25422 10.0504 2.06114 12.0108 2.43735 13.9021C2.81355 15.7934 3.74215 17.5307 5.10571 18.8943C6.46928 20.2579 8.20656 21.1865 10.0979 21.5627C11.9892 21.9389 13.9496 21.7458 15.7312 21.0078C17.5127 20.2699 19.0355 19.0202 20.1068 17.4168C21.1782 15.8134 21.75 13.9284 21.75 12C21.745 9.41566 20.7162 6.93859 18.8888 5.11118C17.0614 3.28378 14.5843 2.25496 12 2.25V2.25ZM18.1688 17.475C17.5616 16.6041 16.7793 15.8697 15.8719 15.3187C14.83 16.3169 13.4429 16.8741 12 16.8741C10.5571 16.8741 9.17002 16.3169 8.12813 15.3187C7.22069 15.8697 6.43836 16.6041 5.83125 17.475C4.77542 16.286 4.08567 14.8173 3.84503 13.2455C3.60438 11.6737 3.82309 10.0659 4.47483 8.61549C5.12657 7.16509 6.18357 5.93394 7.51863 5.07021C8.85369 4.20647 10.4099 3.74695 12 3.74695C13.5901 3.74695 15.1463 4.20647 16.4814 5.07021C17.8164 5.93394 18.8734 7.16509 19.5252 8.61549C20.1769 10.0659 20.3956 11.6737 20.155 13.2455C19.9143 14.8173 19.2246 16.286 18.1688 17.475Z" fill="url(#paint1_linear_0_384)"/>
</g>
<defs>
<linearGradient id="paint0_linear_0_384" x1="7.88711" y1="15.3465" x2="17.6273" y2="12.8031" gradientUnits="userSpaceOnUse">
<stop stop-color="#05A0C7"/>
<stop offset="1" stop-color="#09D1C7"/>
</linearGradient>
<linearGradient id="paint1_linear_0_384" x1="2.27863" y1="21.6828" x2="25.3008" y2="15.6709" gradientUnits="userSpaceOnUse">
<stop stop-color="#05A0C7"/>
<stop offset="1" stop-color="#09D1C7"/>
</linearGradient>
</defs>
</svg>
