<svg width="10.2" height="10.2" overflow="visible" style="display: block;" viewBox="0 0 10.2 10.2" fill="none" xmlns="http://www.w3.org/2000/svg">
<g id="Icon / Fill / Globe">
<g id="Vector">
</g>
<path id="Vector_2" d="M9.00078 6.5025L9.01273 6.46266C9.32095 5.58036 9.32095 4.61964 9.01273 3.73734L9.00078 3.6975C8.71097 2.89519 8.18106 2.20163 7.48313 1.71115C6.7852 1.22067 5.95312 0.957089 5.10007 0.95625V0.95625C4.24703 0.957089 3.41495 1.22067 2.71702 1.71115C2.01908 2.20163 1.48918 2.89519 1.19937 3.6975L1.18742 3.73734C0.879194 4.61964 0.879194 5.58036 1.18742 6.46266L1.19937 6.5025C1.49016 7.30416 2.02032 7.99708 2.71803 8.48741C3.41574 8.97773 4.2473 9.24177 5.10007 9.24375V9.24375C5.95312 9.24291 6.7852 8.97933 7.48313 8.48885C8.18106 7.99837 8.71097 7.30481 9.00078 6.5025ZM5.10007 1.81688C5.56422 2.29432 5.91192 2.87245 6.11609 3.50625H4.08406C4.28823 2.87245 4.63593 2.29432 5.10007 1.81688V1.81688ZM4.08406 6.69375H6.11609C5.91192 7.32755 5.56422 7.90568 5.10007 8.38313C4.63593 7.90568 4.28823 7.32755 4.08406 6.69375V6.69375ZM3.91671 6.05625C3.79456 5.4246 3.79456 4.7754 3.91671 4.14375H6.28343C6.40559 4.7754 6.40559 5.4246 6.28343 6.05625H3.91671ZM6.93289 4.14375H8.47484C8.6502 4.76919 8.6502 5.43081 8.47484 6.05625H6.93289C7.03914 5.42318 7.03914 4.77682 6.93289 4.14375V4.14375ZM8.22382 3.50625H6.78945C6.59773 2.83501 6.27098 2.20998 5.82921 1.66945C6.33931 1.77959 6.81863 2.00145 7.2327 2.31906C7.64676 2.63667 7.98526 3.04213 8.22382 3.50625V3.50625ZM5.82921 8.53055C6.27098 7.99003 6.59773 7.36499 6.78945 6.69375H8.22382C7.98526 7.15787 7.64676 7.56333 7.2327 7.88094C6.81863 8.19855 6.33931 8.42041 5.82921 8.53055V8.53055Z" fill="var(--fill-0, white)"/>
</g>
</svg>
