<svg width="10.2" height="10.2" overflow="visible" style="display: block;" viewBox="0 0 10.2 10.2" fill="none" xmlns="http://www.w3.org/2000/svg">
<g id="Icon / Fill / Wallet">
<path id="Vector" d="M8.60625 2.55H2.23125C2.14671 2.55 2.06564 2.51642 2.00586 2.45664C1.94608 2.39686 1.9125 2.31579 1.9125 2.23125C1.9125 2.14671 1.94608 2.06564 2.00586 2.00586C2.06564 1.94608 2.14671 1.9125 2.23125 1.9125H7.65C7.73454 1.9125 7.81561 1.87892 7.87539 1.81914C7.93517 1.75936 7.96875 1.67829 7.96875 1.59375C7.96875 1.50921 7.93517 1.42814 7.87539 1.36836C7.81561 1.30858 7.73454 1.275 7.65 1.275H2.23125C1.97764 1.275 1.73441 1.37575 1.55508 1.55508C1.37575 1.73441 1.275 1.97764 1.275 2.23125V7.33125C1.275 7.58486 1.37575 7.82809 1.55508 8.00742C1.73441 8.18675 1.97764 8.2875 2.23125 8.2875H8.60625C8.77533 8.2875 8.93748 8.22034 9.05703 8.10078C9.17659 7.98123 9.24375 7.81908 9.24375 7.65V3.1875C9.24375 3.01842 9.17659 2.85627 9.05703 2.73672C8.93748 2.61717 8.77533 2.55 8.60625 2.55ZM7.17188 5.7375C7.07731 5.7375 6.98487 5.70946 6.90624 5.65692C6.82762 5.60438 6.76633 5.52971 6.73015 5.44235C6.69396 5.35498 6.68449 5.25885 6.70294 5.1661C6.72139 5.07335 6.76692 4.98816 6.83379 4.92129C6.90066 4.85442 6.98585 4.80889 7.0786 4.79044C7.17135 4.77199 7.26748 4.78146 7.35485 4.81765C7.44221 4.85383 7.51688 4.91512 7.56942 4.99374C7.62196 5.07237 7.65 5.16481 7.65 5.25938C7.65 5.38618 7.59963 5.50779 7.50996 5.59746C7.42029 5.68713 7.29868 5.7375 7.17188 5.7375Z" fill="var(--fill-0, white)"/>
</g>
</svg>
