<svg width="10.2" height="10.2" overflow="visible" style="display: block;" viewBox="0 0 10.2 10.2" fill="none" xmlns="http://www.w3.org/2000/svg">
<g id="Icon / Fill / IdentificationCard">
<g id="Vector">
</g>
<path id="Vector_2" d="M8.60625 1.59375H1.59375C1.42467 1.59375 1.26252 1.66092 1.14297 1.78047C1.02342 1.90002 0.95625 2.06217 0.95625 2.23125V7.96875C0.95625 8.13783 1.02342 8.29998 1.14297 8.41953C1.26252 8.53909 1.42467 8.60625 1.59375 8.60625H8.60625C8.77533 8.60625 8.93748 8.53909 9.05703 8.41953C9.17659 8.29998 9.24375 8.13783 9.24375 7.96875V2.23125C9.24375 2.06217 9.17659 1.90002 9.05703 1.78047C8.93748 1.66092 8.77533 1.59375 8.60625 1.59375V1.59375ZM4.98445 7.00055C4.9439 7.01136 4.90161 7.01407 4.86001 7.0085C4.81841 7.00293 4.77833 6.9892 4.74205 6.9681C4.70577 6.947 4.67401 6.91894 4.6486 6.88553C4.62319 6.85213 4.60463 6.81403 4.59398 6.77344C4.53997 6.5695 4.42002 6.38914 4.25283 6.26047C4.08564 6.13179 3.88058 6.06202 3.66961 6.06202C3.45864 6.06202 3.25358 6.13179 3.08639 6.26047C2.9192 6.38914 2.79925 6.5695 2.74523 6.77344C2.72686 6.84188 2.68648 6.90237 2.63031 6.94557C2.57414 6.98878 2.50532 7.0123 2.43445 7.0125L2.35477 7.00055C2.31432 6.99035 2.27631 6.97221 2.24294 6.94719C2.20957 6.92217 2.1815 6.89077 2.16037 6.85481C2.13924 6.81885 2.12546 6.77905 2.11985 6.73772C2.11423 6.69639 2.11689 6.65436 2.12766 6.61406C2.22469 6.23729 2.45554 5.90871 2.77711 5.68969C2.59625 5.51241 2.47228 5.28528 2.42101 5.03727C2.36974 4.78925 2.39349 4.53159 2.48924 4.29713C2.58498 4.06267 2.74839 3.86203 2.95861 3.72081C3.16883 3.57958 3.41635 3.50416 3.66961 3.50416C3.92287 3.50416 4.17039 3.57958 4.38061 3.72081C4.59083 3.86203 4.75423 4.06267 4.84998 4.29713C4.94573 4.53159 4.96948 4.78925 4.91821 5.03727C4.86694 5.28528 4.74297 5.51241 4.56211 5.68969C4.88368 5.90871 5.11453 6.23729 5.21156 6.61406C5.22233 6.65436 5.22499 6.69639 5.21937 6.73772C5.21376 6.77905 5.19998 6.81885 5.17885 6.85481C5.15772 6.89077 5.12965 6.92217 5.09628 6.94719C5.06291 6.97221 5.0249 6.99035 4.98445 7.00055V7.00055ZM7.65 6.05625H6.05625C5.97171 6.05625 5.89064 6.02267 5.83086 5.96289C5.77108 5.90311 5.7375 5.82204 5.7375 5.7375C5.7375 5.65296 5.77108 5.57189 5.83086 5.51211C5.89064 5.45233 5.97171 5.41875 6.05625 5.41875H7.65C7.73454 5.41875 7.81561 5.45233 7.87539 5.51211C7.93517 5.57189 7.96875 5.65296 7.96875 5.7375C7.96875 5.82204 7.93517 5.90311 7.87539 5.96289C7.81561 6.02267 7.73454 6.05625 7.65 6.05625ZM7.65 4.78125H6.05625C5.97171 4.78125 5.89064 4.74767 5.83086 4.68789C5.77108 4.62811 5.7375 4.54704 5.7375 4.4625C5.7375 4.37796 5.77108 4.29689 5.83086 4.23711C5.89064 4.17733 5.97171 4.14375 6.05625 4.14375H7.65C7.73454 4.14375 7.81561 4.17733 7.87539 4.23711C7.93517 4.29689 7.96875 4.37796 7.96875 4.4625C7.96875 4.54704 7.93517 4.62811 7.87539 4.68789C7.81561 4.74767 7.73454 4.78125 7.65 4.78125Z" fill="var(--fill-0, white)"/>
<path id="Vector_3" d="M3.66967 5.41875C4.02175 5.41875 4.30717 5.13333 4.30717 4.78125C4.30717 4.42917 4.02175 4.14375 3.66967 4.14375C3.31759 4.14375 3.03217 4.42917 3.03217 4.78125C3.03217 5.13333 3.31759 5.41875 3.66967 5.41875Z" fill="var(--fill-0, white)"/>
</g>
</svg>
