<svg width="10.2" height="10.2" overflow="visible" style="display: block;" viewBox="0 0 10.2 10.2" fill="none" xmlns="http://www.w3.org/2000/svg">
<g id="Icon / Fill / House">
<path id="Vector" d="M8.925 4.78125V8.60625C8.925 8.69079 8.89142 8.77186 8.83164 8.83164C8.77186 8.89142 8.69079 8.925 8.60625 8.925H6.375C6.29046 8.925 6.20939 8.89142 6.14961 8.83164C6.08983 8.77186 6.05625 8.69079 6.05625 8.60625V6.53438C6.05625 6.49211 6.03946 6.45157 6.00957 6.42168C5.97968 6.39179 5.93914 6.375 5.89688 6.375H4.30313C4.26086 6.375 4.22032 6.39179 4.19043 6.42168C4.16054 6.45157 4.14375 6.49211 4.14375 6.53438V8.60625C4.14375 8.69079 4.11017 8.77186 4.05039 8.83164C3.99061 8.89142 3.90954 8.925 3.825 8.925H1.59375C1.50921 8.925 1.42814 8.89142 1.36836 8.83164C1.30858 8.77186 1.275 8.69079 1.275 8.60625V4.78125C1.27508 4.61221 1.34229 4.45011 1.46187 4.33062L4.64937 1.14312C4.76891 1.02365 4.931 0.956546 5.1 0.956546C5.269 0.956546 5.43109 1.02365 5.55063 1.14312L8.73813 4.33062C8.85771 4.45011 8.92492 4.61221 8.925 4.78125Z" fill="var(--fill-0, white)"/>
</g>
</svg>
