<svg width="24" height="24" overflow="visible" style="display: block;" viewBox="0 0 24 24" fill="none" xmlns="http://www.w3.org/2000/svg">
<g id="Icon / Storke / Globe">
<path id="Vector (Stroke)" fill-rule="evenodd" clip-rule="evenodd" d="M12 3.75C7.44365 3.75 3.75 7.44365 3.75 12C3.75 16.5563 7.44365 20.25 12 20.25C16.5563 20.25 20.25 16.5563 20.25 12C20.25 7.44365 16.5563 3.75 12 3.75ZM2.25 12C2.25 6.61522 6.61522 2.25 12 2.25C17.3848 2.25 21.75 6.61522 21.75 12C21.75 17.3848 17.3848 21.75 12 21.75C6.61522 21.75 2.25 17.3848 2.25 12Z" fill="url(#paint0_linear_0_367)"/>
<path id="Vector (Stroke)_2" fill-rule="evenodd" clip-rule="evenodd" d="M2.76562 9C2.76562 8.58579 3.10141 8.25 3.51562 8.25H20.4844C20.8986 8.25 21.2344 8.58579 21.2344 9C21.2344 9.41421 20.8986 9.75 20.4844 9.75H3.51562C3.10141 9.75 2.76562 9.41421 2.76562 9Z" fill="url(#paint1_linear_0_367)"/>
<path id="Vector (Stroke)_3" fill-rule="evenodd" clip-rule="evenodd" d="M2.76562 15C2.76562 14.5858 3.10141 14.25 3.51562 14.25H20.4844C20.8986 14.25 21.2344 14.5858 21.2344 15C21.2344 15.4142 20.8986 15.75 20.4844 15.75H3.51562C3.10141 15.75 2.76562 15.4142 2.76562 15Z" fill="url(#paint2_linear_0_367)"/>
<path id="Vector (Stroke)_4" fill-rule="evenodd" clip-rule="evenodd" d="M10.0378 6.10367C9.4079 7.57446 9 9.65861 9 12C9 14.3414 9.4079 16.4256 10.0378 17.8964C10.3533 18.6331 10.7097 19.1814 11.0673 19.5345C11.4217 19.8845 11.736 20.0063 12 20.0063C12.264 20.0063 12.5783 19.8845 12.9327 19.5345C13.2903 19.1814 13.6467 18.6331 13.9622 17.8964C14.5921 16.4256 15 14.3414 15 12C15 9.65861 14.5921 7.57446 13.9622 6.10367C13.6467 5.36693 13.2903 4.81866 12.9327 4.46549C12.5783 4.11549 12.264 3.99376 12 3.99376C11.736 3.99376 11.4217 4.11549 11.0673 4.46549C10.7097 4.81866 10.3533 5.36693 10.0378 6.10367ZM10.0133 3.39825C10.5562 2.86207 11.2284 2.49376 12 2.49376C12.7716 2.49376 13.4438 2.86207 13.9867 3.39825C14.5264 3.93126 14.978 4.66531 15.3411 5.51314C16.0684 7.21149 16.5 9.50546 16.5 12C16.5 14.4946 16.0684 16.7885 15.3411 18.4869C14.978 19.3347 14.5264 20.0688 13.9867 20.6018C13.4438 21.1379 12.7716 21.5063 12 21.5063C11.2284 21.5063 10.5562 21.1379 10.0133 20.6018C9.47362 20.0688 9.02201 19.3347 8.65891 18.4869C7.93157 16.7885 7.5 14.4946 7.5 12C7.5 9.50546 7.93157 7.21149 8.65891 5.51314C9.02201 4.66531 9.47362 3.93126 10.0133 3.39825Z" fill="url(#paint3_linear_0_367)"/>
</g>
<defs>
<linearGradient id="paint0_linear_0_367" x1="2.25" y1="21.6828" x2="25.2722" y2="15.6709" gradientUnits="userSpaceOnUse">
<stop stop-color="#FF6567"/>
<stop offset="1" stop-color="#FFC486"/>
</linearGradient>
<linearGradient id="paint1_linear_0_367" x1="2.76562" y1="9.74483" x2="4.81998" y2="3.13961" gradientUnits="userSpaceOnUse">
<stop stop-color="#FF6567"/>
<stop offset="1" stop-color="#FFC486"/>
</linearGradient>
<linearGradient id="paint2_linear_0_367" x1="2.76562" y1="15.7448" x2="4.81998" y2="9.13961" gradientUnits="userSpaceOnUse">
<stop stop-color="#FF6567"/>
<stop offset="1" stop-color="#FFC486"/>
</linearGradient>
<linearGradient id="paint3_linear_0_367" x1="7.5" y1="21.4407" x2="18.6794" y2="20.0588" gradientUnits="userSpaceOnUse">
<stop stop-color="#FF6567"/>
<stop offset="1" stop-color="#FFC486"/>
</linearGradient>
</defs>
</svg>
