<svg width="32" height="32" viewBox="0 0 32 32" fill="none" xmlns="http://www.w3.org/2000/svg">
<g clip-path="url(#clip0_77_10462)">
<path opacity="0.2" d="M26.125 10.1248L22 13.9998L26 24.9998L23 27.9998L17 18.9998L14 21.9998V24.9998L11 27.9998L9 22.9998L4 20.9998L7 17.9998H10L13 14.9998L4 8.99983L7 5.99983L18 9.99983L21.875 5.87483C22.4386 5.31125 23.203 4.99463 24 4.99463C24.797 4.99463 25.5614 5.31125 26.125 5.87483C26.6886 6.43842 27.0052 7.2028 27.0052 7.99983C27.0052 8.79686 26.6886 9.56125 26.125 10.1248Z" fill="url(#paint0_linear_77_10462)"/>
<path d="M23.1663 14.2765L26.8088 10.8477L26.83 10.8277C27.5802 10.0775 28.0017 9.05998 28.0017 7.99899C28.0017 6.938 27.5802 5.92047 26.83 5.17024C26.0798 4.42001 25.0622 3.99854 24.0013 3.99854C22.9403 3.99854 21.9227 4.42001 21.1725 5.17024L21.1525 5.19149L17.7238 8.83399L7.34876 5.05899C7.16994 4.99395 6.97628 4.98128 6.79052 5.02247C6.60475 5.06365 6.43459 5.15698 6.30001 5.29149L3.30001 8.29149C3.19547 8.39611 3.11544 8.52262 3.06568 8.6619C3.01593 8.80118 2.99769 8.94976 3.01227 9.09694C3.02686 9.24412 3.07391 9.38623 3.15004 9.51303C3.22616 9.63984 3.32947 9.74817 3.45251 9.83024L11.4388 15.154L9.58626 17.0002H7.00001C6.73515 17.0004 6.48115 17.1056 6.29376 17.2927L3.29376 20.2927C3.17676 20.4095 3.09051 20.5533 3.04272 20.7115C2.99494 20.8697 2.9871 21.0373 3.01991 21.1993C3.05273 21.3612 3.12517 21.5126 3.23076 21.6397C3.33636 21.7668 3.47181 21.8658 3.62501 21.9277L8.22751 23.769L10.065 28.3627L10.0725 28.3827C10.1361 28.5366 10.2371 28.6722 10.3663 28.7771C10.4955 28.8821 10.6489 28.9531 10.8125 28.9838C10.9762 29.0145 11.1449 29.0038 11.3034 28.9528C11.4618 28.9017 11.605 28.8119 11.72 28.6915L14.7038 25.7065C14.7971 25.614 14.8713 25.504 14.9222 25.3829C14.973 25.2617 14.9995 25.1317 15 25.0002V22.414L16.845 20.569L22.1688 28.5552C22.2508 28.6783 22.3592 28.7816 22.486 28.8577C22.6128 28.9338 22.7549 28.9809 22.9021 28.9955C23.0492 29.0101 23.1978 28.9918 23.3371 28.9421C23.4764 28.8923 23.6029 28.8123 23.7075 28.7077L26.7075 25.7077C26.842 25.5732 26.9354 25.403 26.9765 25.2172C27.0177 25.0315 27.005 24.8378 26.94 24.659L23.1663 14.2765ZM23.1575 26.4302L17.8338 18.444C17.752 18.3202 17.6438 18.2162 17.5169 18.1395C17.39 18.0627 17.2476 18.0152 17.1 18.0002C17.0671 17.9984 17.0342 17.9984 17.0013 18.0002C16.8699 18.0001 16.7398 18.0259 16.6184 18.0761C16.497 18.1263 16.3867 18.1999 16.2938 18.2927L13.2938 21.2927C13.2007 21.3856 13.1269 21.4958 13.0765 21.6172C13.026 21.7386 13.0001 21.8688 13 22.0002V24.5865L11.3663 26.2202L9.92876 22.6252C9.87846 22.5004 9.8035 22.3871 9.70834 22.2919C9.61319 22.1968 9.49982 22.1218 9.37501 22.0715L5.78251 20.634L7.41501 19.0002H10C10.1314 19.0003 10.2615 18.9746 10.3829 18.9244C10.5043 18.8742 10.6146 18.8006 10.7075 18.7077L13.7075 15.7077C13.8123 15.6031 13.8925 15.4765 13.9424 15.3371C13.9923 15.1977 14.0106 15.049 13.996 14.9016C13.9814 14.7543 13.9343 14.612 13.858 14.4851C13.7818 14.3582 13.6783 14.2498 13.555 14.1677L5.57001 8.84274L7.25751 7.15649L17.66 10.939C17.8433 11.0063 18.0423 11.0186 18.2324 10.9741C18.4226 10.9297 18.5955 10.8306 18.73 10.689L22.5975 6.57899C22.9773 6.23113 23.4766 6.04318 23.9916 6.0543C24.5065 6.06542 24.9972 6.27475 25.3616 6.63869C25.7261 7.00262 25.936 7.49311 25.9478 8.008C25.9597 8.52289 25.7724 9.02249 25.425 9.40274L21.3163 13.2702C21.1747 13.4047 21.0756 13.5777 21.0311 13.7678C20.9867 13.958 20.9989 14.157 21.0663 14.3402L24.8488 24.7427L23.1575 26.4302Z" fill="url(#paint1_linear_77_10462)"/>
</g>
<defs>
<linearGradient id="paint0_linear_77_10462" x1="4" y1="16.4972" x2="27.0052" y2="16.4972" gradientUnits="userSpaceOnUse">
<stop stop-color="#FF6567"/>
<stop offset="1" stop-color="#FFC486"/>
</linearGradient>
<linearGradient id="paint1_linear_77_10462" x1="3" y1="16.4997" x2="28.0017" y2="16.4997" gradientUnits="userSpaceOnUse">
<stop stop-color="#FF6567"/>
<stop offset="1" stop-color="#FFC486"/>
</linearGradient>
<clipPath id="clip0_77_10462">
<rect width="32" height="32" fill="white"/>
</clipPath>
</defs>
</svg>
