<svg width="32" height="33" viewBox="0 0 32 33" fill="none" xmlns="http://www.w3.org/2000/svg">
<path d="M21.7075 12.8296C21.8005 12.9225 21.8742 13.0328 21.9246 13.1542C21.9749 13.2756 22.0008 13.4057 22.0008 13.5371C22.0008 13.6685 21.9749 13.7987 21.9246 13.92C21.8742 14.0414 21.8005 14.1517 21.7075 14.2446L14.7075 21.2446C14.6146 21.3376 14.5043 21.4113 14.3829 21.4617C14.2615 21.512 14.1314 21.5379 14 21.5379C13.8686 21.5379 13.7385 21.512 13.6171 21.4617C13.4957 21.4113 13.3854 21.3376 13.2925 21.2446L10.2925 18.2446C10.1049 18.057 9.99945 17.8025 9.99945 17.5371C9.99945 17.2717 10.1049 17.0173 10.2925 16.8296C10.4801 16.642 10.7346 16.5366 11 16.5366C11.2654 16.5366 11.5199 16.642 11.7075 16.8296L14 19.1234L20.2925 12.8296C20.3854 12.7366 20.4957 12.6629 20.6171 12.6125C20.7385 12.5622 20.8686 12.5363 21 12.5363C21.1314 12.5363 21.2615 12.5622 21.3829 12.6125C21.5043 12.6629 21.6146 12.7366 21.7075 12.8296ZM29 16.5371C29 19.1083 28.2376 21.6217 26.8091 23.7595C25.3807 25.8974 23.3503 27.5636 20.9749 28.5475C18.5995 29.5315 15.9856 29.7889 13.4638 29.2873C10.9421 28.7857 8.6257 27.5476 6.80762 25.7295C4.98953 23.9114 3.75141 21.595 3.2498 19.0733C2.74819 16.5515 3.00563 13.9377 3.98957 11.5622C4.97351 9.18678 6.63975 7.15646 8.77759 5.728C10.9154 4.29955 13.4288 3.53711 16 3.53711C19.4467 3.54075 22.7512 4.91156 25.1884 7.34874C27.6256 9.78593 28.9964 13.0904 29 16.5371ZM27 16.5371C27 14.3615 26.3549 12.2348 25.1462 10.4258C23.9375 8.6169 22.2195 7.207 20.2095 6.37443C18.1995 5.54187 15.9878 5.32403 13.854 5.74847C11.7202 6.17291 9.76021 7.22056 8.22183 8.75893C6.68345 10.2973 5.63581 12.2573 5.21137 14.3911C4.78693 16.5249 5.00477 18.7366 5.83733 20.7466C6.66989 22.7566 8.07979 24.4746 9.88873 25.6833C11.6977 26.892 13.8244 27.5371 16 27.5371C18.9164 27.5338 21.7123 26.3738 23.7745 24.3116C25.8367 22.2494 26.9967 19.4535 27 16.5371Z" fill="url(#paint0_linear_445_35786)"/>
<defs>
<linearGradient id="paint0_linear_445_35786" x1="3" y1="16.5371" x2="29" y2="16.5371" gradientUnits="userSpaceOnUse">
<stop stop-color="#05A0C7"/>
<stop offset="1" stop-color="#09D1C7"/>
</linearGradient>
</defs>
</svg>
