<svg width="26" height="28" viewBox="0 0 26 28" fill="none" xmlns="http://www.w3.org/2000/svg">
<path d="M12.9997 8.53711C13.7908 8.53711 14.5641 8.30252 15.2219 7.86299C15.8797 7.42346 16.3924 6.79875 16.6952 6.06784C16.9979 5.33694 17.0771 4.53267 16.9228 3.75675C16.7685 2.98083 16.3875 2.26809 15.8281 1.70868C15.2687 1.14927 14.556 0.768311 13.78 0.61397C13.0041 0.459629 12.1998 0.538842 11.4689 0.841593C10.738 1.14434 10.1133 1.65703 9.67379 2.31483C9.23426 2.97263 8.99967 3.74599 8.99967 4.53711C8.99967 5.59798 9.42109 6.61539 10.1712 7.36554C10.9214 8.11568 11.9388 8.53711 12.9997 8.53711ZM12.9997 2.53711C13.3952 2.53711 13.7819 2.65441 14.1108 2.87417C14.4397 3.09393 14.6961 3.40629 14.8474 3.77174C14.9988 4.1372 15.0384 4.53933 14.9612 4.92729C14.8841 5.31525 14.6936 5.67162 14.4139 5.95132C14.1342 6.23103 13.7778 6.42151 13.3898 6.49868C13.0019 6.57585 12.5998 6.53625 12.2343 6.38487C11.8688 6.2335 11.5565 5.97715 11.3367 5.64825C11.117 5.31935 10.9997 4.93267 10.9997 4.53711C10.9997 4.00668 11.2104 3.49797 11.5855 3.1229C11.9605 2.74782 12.4692 2.53711 12.9997 2.53711ZM25.8572 15.0521C25.7896 15.1651 25.7003 15.2636 25.5945 15.342C25.4888 15.4204 25.3686 15.4771 25.2408 15.5089C25.113 15.5408 24.9803 15.547 24.8501 15.5274C24.7199 15.5078 24.5949 15.4627 24.4822 15.3946C24.4384 15.3684 20.0934 12.8209 13.9972 12.5609V17.1621L21.7472 25.8784C21.8343 25.9769 21.9012 26.0915 21.9441 26.2159C21.9869 26.3403 22.0048 26.4718 21.9968 26.6031C21.9888 26.7344 21.955 26.8628 21.8974 26.981C21.8398 27.0992 21.7594 27.2049 21.6609 27.2921C21.5624 27.3793 21.4477 27.4462 21.3234 27.489C21.199 27.5319 21.0675 27.5498 20.9362 27.5418C20.8049 27.5338 20.6765 27.5 20.5583 27.4423C20.44 27.3847 20.3343 27.3044 20.2472 27.2059L12.9997 19.0371L5.74967 27.2009C5.6625 27.2994 5.55679 27.3797 5.43857 27.4373C5.32035 27.495 5.19193 27.5288 5.06065 27.5368C4.92938 27.5448 4.7978 27.5269 4.67345 27.484C4.5491 27.4412 4.43441 27.3743 4.33592 27.2871C4.23742 27.1999 4.15707 27.0942 4.09943 26.976C4.04179 26.8578 4.008 26.7294 3.99999 26.5981C3.99198 26.4668 4.00991 26.3353 4.05275 26.2109C4.09559 26.0865 4.1625 25.9719 4.24967 25.8734L11.9997 17.1621V12.5596C5.87467 12.8196 1.55967 15.3671 1.51467 15.3946C1.40201 15.4638 1.27676 15.51 1.14614 15.5305C1.01552 15.551 0.88214 15.5453 0.753711 15.5139C0.625281 15.4825 0.504352 15.426 0.397922 15.3475C0.291492 15.2691 0.201674 15.1703 0.133663 15.057C0.0656519 14.9436 0.0207995 14.8178 0.0017002 14.687C-0.0173991 14.5562 -0.0103661 14.4229 0.0223926 14.2948C0.0551512 14.1667 0.112985 14.0464 0.192548 13.9408C0.272111 13.8352 0.371823 13.7464 0.485916 13.6796C0.699666 13.5509 5.80592 10.5371 12.9997 10.5371C20.1934 10.5371 25.2997 13.5509 25.5147 13.6796C25.6273 13.7472 25.7255 13.8364 25.8037 13.9419C25.8819 14.0475 25.9385 14.1674 25.9703 14.2949C26.0021 14.4224 26.0085 14.5548 25.9891 14.6848C25.9697 14.8147 25.9248 14.9395 25.8572 15.0521Z" fill="url(#paint0_linear_445_35778)"/>
<defs>
<linearGradient id="paint0_linear_445_35778" x1="-0.00878906" y1="14.0404" x2="26" y2="14.0404" gradientUnits="userSpaceOnUse">
<stop stop-color="#FF6567"/>
<stop offset="1" stop-color="#FFC486"/>
</linearGradient>
</defs>
</svg>
