<svg width="32" height="33" viewBox="0 0 32 33" fill="none" xmlns="http://www.w3.org/2000/svg">
<path d="M26.9738 15.3082C26.9359 15.148 26.8591 14.9995 26.75 14.8761C26.641 14.7527 26.5032 14.6581 26.3488 14.6007L19.1475 11.8995L20.98 2.73323C21.0215 2.52026 20.9926 2.29957 20.8977 2.10446C20.8028 1.90935 20.6469 1.75042 20.4538 1.65163C20.2606 1.55285 20.0405 1.51959 19.8267 1.55685C19.613 1.59412 19.4172 1.6999 19.2688 1.85823L5.26879 16.8582C5.15508 16.978 5.07283 17.1242 5.02937 17.2835C4.98591 17.4429 4.98261 17.6105 5.01975 17.7715C5.05689 17.9324 5.13332 18.0817 5.24222 18.2059C5.35111 18.3301 5.48908 18.4254 5.64379 18.4832L12.8475 21.1845L11.02 30.3407C10.9785 30.5537 11.0074 30.7744 11.1024 30.9695C11.1973 31.1646 11.3531 31.3235 11.5463 31.4223C11.7395 31.5211 11.9596 31.5544 12.1733 31.5171C12.3871 31.4798 12.5829 31.3741 12.7313 31.2157L26.7313 16.2157C26.8429 16.0959 26.9234 15.9505 26.9657 15.7922C27.008 15.634 27.0108 15.4678 26.9738 15.3082ZM13.6713 27.287L14.98 20.7395C15.0269 20.5073 14.9898 20.266 14.8753 20.0586C14.7608 19.8512 14.5765 19.6911 14.355 19.607L7.75004 17.1257L18.3275 5.79323L17.02 12.3407C16.9732 12.5729 17.0103 12.8142 17.1248 13.0216C17.2392 13.229 17.4236 13.3891 17.645 13.4732L24.245 15.9482L13.6713 27.287Z" fill="url(#paint0_linear_506_45165)"/>
<defs>
<linearGradient id="paint0_linear_506_45165" x1="4.99414" y1="16.537" x2="26.9996" y2="16.537" gradientUnits="userSpaceOnUse">
<stop stop-color="#05A0C7"/>
<stop offset="1" stop-color="#09D1C7"/>
</linearGradient>
</defs>
</svg>
