<svg width="32" height="33" viewBox="0 0 32 33" fill="none" xmlns="http://www.w3.org/2000/svg">
<path d="M21.4998 11.5371C22.192 11.5371 22.8687 11.3318 23.4442 10.9473C24.0198 10.5627 24.4684 10.016 24.7333 9.3765C24.9982 8.73696 25.0675 8.03323 24.9325 7.35429C24.7975 6.67536 24.4641 6.05172 23.9746 5.56224C23.4851 5.07275 22.8615 4.73941 22.1826 4.60436C21.5036 4.46931 20.7999 4.53863 20.1604 4.80353C19.5208 5.06844 18.9742 5.51704 18.5896 6.09262C18.205 6.66819 17.9998 7.34488 17.9998 8.03711C17.9998 8.96537 18.3685 9.85561 19.0249 10.512C19.6813 11.1684 20.5715 11.5371 21.4998 11.5371ZM21.4998 6.53711C21.7964 6.53711 22.0864 6.62508 22.3331 6.78991C22.5798 6.95473 22.772 7.189 22.8856 7.46309C22.9991 7.73717 23.0288 8.03877 22.9709 8.32975C22.913 8.62072 22.7702 8.88799 22.5604 9.09777C22.3506 9.30755 22.0834 9.45041 21.7924 9.50829C21.5014 9.56617 21.1998 9.53646 20.9257 9.42293C20.6516 9.3094 20.4174 9.11714 20.2525 8.87047C20.0877 8.62379 19.9998 8.33378 19.9998 8.03711C19.9998 7.63929 20.1578 7.25776 20.4391 6.97645C20.7204 6.69515 21.1019 6.53711 21.4998 6.53711ZM4.03975 10.2571C4.07652 10.131 4.13776 10.0134 4.21998 9.91105C4.30219 9.80865 4.40377 9.72344 4.51892 9.6603C4.63406 9.59716 4.76052 9.55731 4.89106 9.54304C5.0216 9.52876 5.15368 9.54034 5.27975 9.57711L13.9998 12.1209L15.2898 10.8296C15.3826 10.7366 15.4929 10.6629 15.6143 10.6126C15.7357 10.5622 15.8658 10.5363 15.9973 10.5363C16.1287 10.5363 16.2588 10.5622 16.3802 10.6126C16.5016 10.6629 16.6119 10.7366 16.7048 10.8296L20.4135 14.5371H24.9998C25.265 14.5371 25.5193 14.6425 25.7069 14.83C25.8944 15.0175 25.9998 15.2719 25.9998 15.5371C25.9998 15.8023 25.8944 16.0567 25.7069 16.2442C25.5193 16.4318 25.265 16.5371 24.9998 16.5371H19.9998C19.8684 16.5372 19.7383 16.5114 19.6169 16.4612C19.4955 16.4111 19.3852 16.3374 19.2922 16.2446L18.591 15.5371L4.716 11.4921C4.46322 11.417 4.25033 11.2451 4.12368 11.0138C3.99702 10.7825 3.96686 10.5105 4.03975 10.2571ZM29.5548 26.0671C28.4943 26.7757 27.2914 27.243 26.0308 27.4363C24.7702 27.6296 23.4825 27.5441 22.2585 27.1859L2.721 21.4959C2.59273 21.4611 2.47266 21.4012 2.36783 21.3195C2.263 21.2378 2.17549 21.1361 2.11044 21.0202C2.04538 20.9043 2.00407 20.7766 1.98893 20.6446C1.97379 20.5125 1.98512 20.3788 2.02225 20.2512C2.05939 20.1236 2.12158 20.0047 2.20521 19.9014C2.28883 19.7981 2.3922 19.7125 2.50928 19.6496C2.62636 19.5868 2.7548 19.5479 2.88709 19.5352C3.01938 19.5225 3.15286 19.5363 3.27975 19.5759L12.7797 22.3421L16.091 19.0371L10.7248 17.4984C10.5984 17.4622 10.4805 17.4016 10.3776 17.3199C10.2747 17.2382 10.1889 17.137 10.1251 17.0222C9.99633 16.7902 9.96494 16.5166 10.0379 16.2615C10.074 16.1352 10.1346 16.0172 10.2163 15.9143C10.298 15.8114 10.3992 15.7257 10.5141 15.6619C10.746 15.5331 11.0196 15.5017 11.2747 15.5746L18.2747 17.5746C18.4422 17.6224 18.5943 17.7131 18.7159 17.8378C18.8376 17.9625 18.9245 18.1167 18.9682 18.2853C19.0119 18.4539 19.0108 18.631 18.9651 18.799C18.9193 18.967 18.8304 19.1202 18.7073 19.2434L14.9698 22.9809L22.8185 25.2659C23.7621 25.5422 24.7549 25.6082 25.7268 25.4592C26.6987 25.3102 27.626 24.9497 28.4435 24.4034C28.5527 24.3305 28.6753 24.2798 28.8041 24.2543C28.9329 24.2288 29.0655 24.2289 29.1943 24.2546C29.3231 24.2803 29.4455 24.3311 29.5547 24.4041C29.6638 24.4772 29.7575 24.571 29.8304 24.6802C29.9033 24.7895 29.9539 24.912 29.9794 25.0408C30.005 25.1696 30.0049 25.3022 29.9792 25.431C29.9535 25.5598 29.9026 25.6823 29.8296 25.7914C29.7566 25.9005 29.6627 25.9942 29.5535 26.0671H29.5548Z" fill="url(#paint0_linear_445_35790)"/>
<defs>
<linearGradient id="paint0_linear_445_35790" x1="1.98242" y1="16.0371" x2="29.9985" y2="16.0371" gradientUnits="userSpaceOnUse">
<stop stop-color="#05A0C7"/>
<stop offset="1" stop-color="#09D1C7"/>
</linearGradient>
</defs>
</svg>
