<svg width="32" height="33" viewBox="0 0 32 33" fill="none" xmlns="http://www.w3.org/2000/svg">
<g clip-path="url(#clip0_445_35765)">
<path d="M15 2.53711V1.53711C15 1.27189 15.1054 1.01754 15.2929 0.830003C15.4804 0.642466 15.7348 0.537109 16 0.537109C16.2652 0.537109 16.5196 0.642466 16.7071 0.830003C16.8946 1.01754 17 1.27189 17 1.53711V2.53711C17 2.80233 16.8946 3.05668 16.7071 3.24422C16.5196 3.43175 16.2652 3.53711 16 3.53711C15.7348 3.53711 15.4804 3.43175 15.2929 3.24422C15.1054 3.05668 15 2.80233 15 2.53711ZM25 6.53711C25.1314 6.53721 25.2615 6.51143 25.3829 6.46125C25.5042 6.41106 25.6146 6.33744 25.7075 6.24461L26.7075 5.24461C26.8951 5.05697 27.0006 4.80247 27.0006 4.53711C27.0006 4.27175 26.8951 4.01725 26.7075 3.82961C26.5199 3.64197 26.2654 3.53655 26 3.53655C25.7346 3.53655 25.4801 3.64197 25.2925 3.82961L24.2925 4.82961C24.1525 4.96946 24.0571 5.14772 24.0185 5.3418C23.9798 5.53589 23.9996 5.73708 24.0754 5.9199C24.1511 6.10272 24.2794 6.25896 24.444 6.36883C24.6086 6.4787 24.8021 6.53727 25 6.53711ZM6.2925 6.24461C6.38541 6.33752 6.49571 6.41122 6.6171 6.4615C6.7385 6.51179 6.86861 6.53767 7 6.53767C7.13139 6.53767 7.2615 6.51179 7.3829 6.4615C7.50429 6.41122 7.61459 6.33752 7.7075 6.24461C7.80041 6.1517 7.87411 6.0414 7.92439 5.92001C7.97468 5.79861 8.00056 5.6685 8.00056 5.53711C8.00056 5.40571 7.97468 5.27561 7.92439 5.15421C7.87411 5.03282 7.80041 4.92252 7.7075 4.82961L6.7075 3.82961C6.51986 3.64197 6.26536 3.53655 6 3.53655C5.73464 3.53655 5.48014 3.64197 5.2925 3.82961C5.10486 4.01725 4.99944 4.27175 4.99944 4.53711C4.99944 4.80247 5.10486 5.05697 5.2925 5.24461L6.2925 6.24461ZM17.1675 9.55086C17.0374 9.52785 16.9041 9.53085 16.7751 9.55968C16.6462 9.5885 16.5243 9.64259 16.4164 9.71881C16.3085 9.79502 16.2168 9.89186 16.1465 10.0037C16.0763 10.1156 16.0289 10.2403 16.0071 10.3706C15.9853 10.5009 15.9895 10.6342 16.0195 10.7628C16.0495 10.8915 16.1048 11.0129 16.182 11.1201C16.2592 11.2273 16.3569 11.3181 16.4694 11.3873C16.5819 11.4565 16.707 11.5028 16.8375 11.5234C19.2087 11.9221 21 14.0771 21 16.5371C21 16.8023 21.1054 17.0567 21.2929 17.2442C21.4804 17.4318 21.7348 17.5371 22 17.5371C22.2652 17.5371 22.5196 17.4318 22.7071 17.2442C22.8946 17.0567 23 16.8023 23 16.5371C23 13.1121 20.4913 10.1084 17.165 9.55086H17.1675ZM29 22.5371V25.5371C29 26.0675 28.7893 26.5763 28.4142 26.9513C28.0391 27.3264 27.5304 27.5371 27 27.5371H5C4.46957 27.5371 3.96086 27.3264 3.58579 26.9513C3.21071 26.5763 3 26.0675 3 25.5371V22.5371C3 22.0067 3.21071 21.498 3.58579 21.1229C3.96086 20.7478 4.46957 20.5371 5 20.5371V16.5371C4.99996 15.0855 5.28723 13.6482 5.84526 12.3082C6.4033 10.9681 7.22105 9.75172 8.25138 8.72917C9.28171 7.70663 10.5042 6.89813 11.8485 6.35027C13.1928 5.80242 14.6322 5.52606 16.0837 5.53711C22.1025 5.58211 27 10.5734 27 16.6621V20.5371C27.5304 20.5371 28.0391 20.7478 28.4142 21.1229C28.7893 21.498 29 22.0067 29 22.5371ZM7 20.5371H25V16.6621C25 11.6621 20.9938 7.57336 16.0688 7.53711H16C13.6131 7.53711 11.3239 8.48532 9.63604 10.1731C7.94821 11.861 7 14.1502 7 16.5371V20.5371ZM27 25.5371V22.5371H5V25.5371H27Z" fill="url(#paint0_linear_445_35765)"/>
</g>
<defs>
<linearGradient id="paint0_linear_445_35765" x1="3" y1="14.0371" x2="29" y2="14.0371" gradientUnits="userSpaceOnUse">
<stop stop-color="#FF6567"/>
<stop offset="1" stop-color="#FFC486"/>
</linearGradient>
<clipPath id="clip0_445_35765">
<rect width="32" height="32" fill="white" transform="translate(0 0.537109)"/>
</clipPath>
</defs>
</svg>
