<svg width="32" height="33" viewBox="0 0 32 33" fill="none" xmlns="http://www.w3.org/2000/svg">
<path d="M16 3.53711C13.4288 3.53711 10.9154 4.29955 8.77759 5.728C6.63975 7.15646 4.97351 9.18678 3.98957 11.5622C3.00563 13.9377 2.74819 16.5515 3.2498 19.0733C3.75141 21.595 4.98953 23.9114 6.80762 25.7295C8.6257 27.5476 10.9421 28.7857 13.4638 29.2873C15.9856 29.7889 18.5995 29.5315 20.9749 28.5475C23.3503 27.5636 25.3807 25.8974 26.8091 23.7595C28.2376 21.6217 29 19.1083 29 16.5371C28.9964 13.0904 27.6256 9.78593 25.1884 7.34874C22.7512 4.91156 19.4467 3.54075 16 3.53711ZM16 27.5371C13.8244 27.5371 11.6977 26.892 9.88873 25.6833C8.07979 24.4746 6.66989 22.7566 5.83733 20.7466C5.00477 18.7366 4.78693 16.5249 5.21137 14.3911C5.63581 12.2573 6.68345 10.2973 8.22183 8.75893C9.76021 7.22056 11.7202 6.17291 13.854 5.74847C15.9878 5.32403 18.1995 5.54187 20.2095 6.37443C22.2195 7.207 23.9375 8.6169 25.1462 10.4258C26.3549 12.2348 27 14.3615 27 16.5371C26.9967 19.4535 25.8367 22.2494 23.7745 24.3116C21.7123 26.3738 18.9164 27.5338 16 27.5371ZM10 14.0371C10 13.7404 10.088 13.4504 10.2528 13.2038C10.4176 12.9571 10.6519 12.7648 10.926 12.6513C11.2001 12.5378 11.5017 12.5081 11.7926 12.5659C12.0836 12.6238 12.3509 12.7667 12.5607 12.9764C12.7704 13.1862 12.9133 13.4535 12.9712 13.7445C13.0291 14.0354 12.9994 14.337 12.8858 14.6111C12.7723 14.8852 12.58 15.1195 12.3334 15.2843C12.0867 15.4491 11.7967 15.5371 11.5 15.5371C11.1022 15.5371 10.7206 15.3791 10.4393 15.0978C10.158 14.8165 10 14.4349 10 14.0371ZM22 14.0371C22 14.3338 21.912 14.6238 21.7472 14.8705C21.5824 15.1171 21.3481 15.3094 21.074 15.4229C20.7999 15.5365 20.4983 15.5662 20.2074 15.5083C19.9164 15.4504 19.6491 15.3075 19.4393 15.0978C19.2296 14.888 19.0867 14.6207 19.0288 14.3297C18.971 14.0388 19.0007 13.7372 19.1142 13.4631C19.2277 13.189 19.42 12.9547 19.6667 12.7899C19.9133 12.6251 20.2033 12.5371 20.5 12.5371C20.8978 12.5371 21.2794 12.6951 21.5607 12.9764C21.842 13.2578 22 13.6393 22 14.0371ZM21.865 22.0371C21.9374 22.1509 21.9859 22.2782 22.0078 22.4113C22.0297 22.5444 22.0245 22.6805 21.9924 22.8115C21.9603 22.9425 21.902 23.0656 21.8211 23.1735C21.7402 23.2814 21.6383 23.3719 21.5215 23.4394C21.4048 23.5068 21.2756 23.55 21.1417 23.5663C21.0078 23.5826 20.872 23.5716 20.7425 23.534C20.6129 23.4964 20.4924 23.433 20.388 23.3476C20.2836 23.2622 20.1975 23.1566 20.135 23.0371C19.2013 21.4234 17.7338 20.5371 16 20.5371C14.2663 20.5371 12.7988 21.4246 11.865 23.0371C11.8025 23.1566 11.7164 23.2622 11.6121 23.3476C11.5077 23.433 11.3871 23.4964 11.2575 23.534C11.128 23.5716 10.9922 23.5826 10.8583 23.5663C10.7245 23.55 10.5952 23.5068 10.4785 23.4394C10.3617 23.3719 10.2598 23.2814 10.1789 23.1735C10.098 23.0656 10.0397 22.9425 10.0076 22.8115C9.97555 22.6805 9.97029 22.5444 9.99218 22.4113C10.0141 22.2782 10.0627 22.1509 10.135 22.0371C11.4213 19.8134 13.5588 18.5371 16 18.5371C18.4413 18.5371 20.5788 19.8121 21.865 22.0371Z" fill="url(#paint0_linear_445_35773)"/>
<defs>
<linearGradient id="paint0_linear_445_35773" x1="3" y1="16.5371" x2="29" y2="16.5371" gradientUnits="userSpaceOnUse">
<stop stop-color="#FF6567"/>
<stop offset="1" stop-color="#FFC486"/>
</linearGradient>
</defs>
</svg>
