<svg width="32" height="33" viewBox="0 0 32 33" fill="none" xmlns="http://www.w3.org/2000/svg">
<path d="M20.7075 13.2446L17.4138 16.5371L20.7075 19.8296C20.8004 19.9225 20.8741 20.0328 20.9244 20.1542C20.9747 20.2756 21.0006 20.4057 21.0006 20.5371C21.0006 20.6685 20.9747 20.7986 20.9244 20.92C20.8741 21.0414 20.8004 21.1517 20.7075 21.2446C20.6146 21.3375 20.5043 21.4112 20.3829 21.4615C20.2615 21.5118 20.1314 21.5377 20 21.5377C19.8686 21.5377 19.7385 21.5118 19.6171 21.4615C19.4957 21.4112 19.3854 21.3375 19.2925 21.2446L16 17.9509L12.7075 21.2446C12.6146 21.3375 12.5043 21.4112 12.3829 21.4615C12.2615 21.5118 12.1314 21.5377 12 21.5377C11.8686 21.5377 11.7385 21.5118 11.6171 21.4615C11.4957 21.4112 11.3854 21.3375 11.2925 21.2446C11.1996 21.1517 11.1259 21.0414 11.0756 20.92C11.0253 20.7986 10.9994 20.6685 10.9994 20.5371C10.9994 20.4057 11.0253 20.2756 11.0756 20.1542C11.1259 20.0328 11.1996 19.9225 11.2925 19.8296L14.5863 16.5371L11.2925 13.2446C11.1049 13.057 10.9994 12.8025 10.9994 12.5371C10.9994 12.2717 11.1049 12.0173 11.2925 11.8296C11.4801 11.642 11.7346 11.5366 12 11.5366C12.2654 11.5366 12.5199 11.642 12.7075 11.8296L16 15.1234L19.2925 11.8296C19.3854 11.7367 19.4957 11.663 19.6171 11.6127C19.7385 11.5624 19.8686 11.5366 20 11.5366C20.1314 11.5366 20.2615 11.5624 20.3829 11.6127C20.5043 11.663 20.6146 11.7367 20.7075 11.8296C20.8004 11.9225 20.8741 12.0328 20.9244 12.1542C20.9747 12.2756 21.0006 12.4057 21.0006 12.5371C21.0006 12.6685 20.9747 12.7986 20.9244 12.92C20.8741 13.0414 20.8004 13.1517 20.7075 13.2446ZM29 16.5371C29 19.1083 28.2376 21.6217 26.8091 23.7595C25.3807 25.8974 23.3503 27.5636 20.9749 28.5475C18.5995 29.5315 15.9856 29.7889 13.4638 29.2873C10.9421 28.7857 8.6257 27.5476 6.80762 25.7295C4.98953 23.9114 3.75141 21.595 3.2498 19.0733C2.74819 16.5515 3.00563 13.9377 3.98957 11.5622C4.97351 9.18678 6.63975 7.15646 8.77759 5.728C10.9154 4.29955 13.4288 3.53711 16 3.53711C19.4467 3.54075 22.7512 4.91156 25.1884 7.34874C27.6256 9.78593 28.9964 13.0904 29 16.5371ZM27 16.5371C27 14.3615 26.3549 12.2348 25.1462 10.4258C23.9375 8.6169 22.2195 7.207 20.2095 6.37443C18.1995 5.54187 15.9878 5.32403 13.854 5.74847C11.7202 6.17291 9.76021 7.22056 8.22183 8.75893C6.68345 10.2973 5.63581 12.2573 5.21137 14.3911C4.78693 16.5249 5.00477 18.7366 5.83733 20.7466C6.66989 22.7566 8.07979 24.4746 9.88873 25.6833C11.6977 26.892 13.8244 27.5371 16 27.5371C18.9164 27.5338 21.7123 26.3738 23.7745 24.3116C25.8367 22.2494 26.9967 19.4535 27 16.5371Z" fill="url(#paint0_linear_445_35769)"/>
<defs>
<linearGradient id="paint0_linear_445_35769" x1="3" y1="16.5371" x2="29" y2="16.5371" gradientUnits="userSpaceOnUse">
<stop stop-color="#FF6567"/>
<stop offset="1" stop-color="#FFC486"/>
</linearGradient>
</defs>
</svg>
